<?xml version="1.0" standalone="no"?>
<!DOCTYPE svg PUBLIC "-//W3C//DTD SVG 1.1//EN" "http://www.w3.org/Graphics/SVG/1.1/DTD/svg11.dtd" >
<svg xmlns="http://www.w3.org/2000/svg" xmlns:xlink="http://www.w3.org/1999/xlink" version="1.1">
<metadata>
Created by FontForge 20190801 at Wed Sep 23 21:37:13 2015
 By www-data
Copyright 2015 Google Inc. All Rights Reserved.
</metadata>
<defs>
<font id="NotoSansTibetanBold" horiz-adv-x="0" >
  <font-face 
    font-family="NotoSansTibetanBold"
    font-weight="700"
    font-stretch="normal"
    units-per-em="2048"
    panose-1="2 11 8 2 4 5 4 2 2 4"
    ascent="1638"
    descent="-410"
    bbox="-1770 -2267 3379 2601"
    underline-thickness="50"
    underline-position="-100"
    unicode-range="U+000D-FEFF"
  />
<missing-glyph horiz-adv-x="1227" 
d="M193 0v1460h841v-1460h-841zM297 1356v-1254h633v1254h-633z" />
    <glyph glyph-name=".notdef" horiz-adv-x="1227" 
d="M193 0v1460h841v-1460h-841zM297 1356v-1254h633v1254h-633z" />
    <glyph glyph-name=".null" 
 />
    <glyph glyph-name="nonmarkingreturn" unicode="&#xd;" horiz-adv-x="532" 
 />
    <glyph glyph-name="null" unicode="&#xfeff;" 
 />
    <glyph glyph-name="null" 
 />
    <glyph glyph-name="space" unicode=" " horiz-adv-x="532" 
 />
    <glyph glyph-name="space" unicode="&#xa0;" horiz-adv-x="532" 
 />
    <glyph glyph-name="bar" unicode="|" horiz-adv-x="395" 
d="M313 1556v-2050h-231v2050h231z" />
    <glyph glyph-name="uni0F00" unicode="&#xf00;" horiz-adv-x="1700" 
d="M1669 1389l-70 -299v-961l-155 31q-379 587 -681 919q-77 -72 -132 -139q129 -12 205.5 -100.5t76.5 -245.5q0 -179 -97 -288t-253 -109q-196 0 -307 156t-111 440q0 151 17 297h-72l70 299h307q-82 -142 -126 -282.5t-44 -272.5q0 -172 79.5 -253t219.5 -81
q80 0 121 23.5t41 62.5q0 36 -44.5 57t-131.5 21q-36 0 -80 -11l-96 105q58 166 160 332h-79l70 299h631l-70 -299h-62q242 -360 395 -675q-12 190 -35 363.5t-54 311.5h-111l70 299h348zM1070.5 2354.5q62.5 -62.5 62.5 -163.5t-62.5 -163t-163.5 -62t-163 62t-62 163
t62.5 163.5t162.5 62.5q101 0 163.5 -62.5zM974.5 2124.5q25.5 25.5 25.5 66.5q0 42 -25.5 67t-67.5 25q-41 0 -66.5 -25t-25.5 -67q0 -41 25.5 -66.5t66.5 -25.5q42 0 67.5 25.5zM1864 2093q-44 -114 -101.5 -188.5t-141.5 -114t-242 -57t-243 -27t-137 -53.5l56 -64
l-59 -135q-233 171 -391.5 248.5t-294.5 77.5q-79 0 -154 -25l47 303q62 29 152 29q135 0 254.5 -74t291.5 -254q49 118 119.5 174t174.5 70l115 15l218 32q94 17 147.5 54t90.5 104z" />
    <glyph glyph-name="uni0F01" unicode="&#xf01;" horiz-adv-x="1690" 
d="M631 940q129 -12 205.5 -100.5t76.5 -245.5q0 -179 -96.5 -288t-253.5 -109q-198 0 -308 157t-110 439q0 151 17 297h-72l70 299h307q-170 -294 -170 -555q0 -172 79.5 -253t219.5 -81q80 0 121 23.5t41 62.5q0 36 -44.5 57t-131.5 21q-36 0 -80 -11l-96 105
q58 166 160 332h-79l70 299h631l-70 -299h-61q362 -534 542 -961l-155 31q-379 587 -681 919q-77 -72 -132 -139z" />
    <glyph glyph-name="uni0F02" unicode="&#xf02;" horiz-adv-x="2150" 
d="M1002 2223.5q63 -62.5 63 -163.5q0 -100 -62.5 -162.5t-162.5 -62.5t-163 62t-63 163t63.5 163.5t162.5 62.5t162 -62.5zM906.5 1993.5q25.5 25.5 25.5 66.5q0 42 -25.5 67t-66.5 25q-42 0 -67 -25t-25 -67q0 -41 25 -66.5t67 -25.5q41 0 66.5 25.5zM516 1987
q48 -129 124.5 -187.5t199.5 -58.5t199 58.5t124 187.5l117 -68q-47 -209 -159 -316.5t-281 -107.5q-170 0 -281.5 107.5t-159.5 316.5zM2009 1323q80 -82 80 -217q0 -140 -88.5 -227.5t-228.5 -87.5q-139 0 -218 82t-79 217q0 140 88.5 227.5t228.5 87.5q137 0 217 -82z
M855 -463.5q-141 81.5 -383.5 352.5t-429.5 448l109 83q187 -148 413.5 -353t362 -268t295.5 -63q98 0 153 29t55 73q0 38 -33.5 61t-91.5 23q-54 0 -104 -15t-89 -44l-43 264q32 35 83.5 55t107.5 21q-107 168 -209 234.5t-259 66.5q-34 0 -72 -5t-69 -14l33 287
q76 19 158 19q69 0 126 -14t107 -44q21 77 21 154q0 129 -42 227h-639q-28 -58 -28 -129q0 -103 32.5 -186t104.5 -169l-200 -204q-80 94 -115 192.5t-35 208.5q0 167 83.5 320t227.5 242h803l-38 -164q36 -106 36 -224q0 -194 -109 -354q66 -72 131.5 -194t146.5 -315
q57 -46 88.5 -118.5t31.5 -160.5q0 -178 -111.5 -291t-302.5 -113q-165 0 -306 81.5zM1900 979.5q23 23.5 23 67.5q0 73 -58.5 132.5t-133.5 59.5q-43 0 -67 -23.5t-24 -66.5q0 -73 59.5 -133t133.5 -60q44 0 67 23.5zM1554 176q-79 82 -79 217q0 140 88.5 228t228.5 88
q137 0 217 -82t80 -217q0 -140 -88.5 -228t-228.5 -88q-139 0 -218 82zM1664 519.5q-24 -23.5 -24 -66.5q0 -73 59 -133t134 -60q44 0 67 23t23 67q0 73 -59 133t-133 60q-43 0 -67 -23.5z" />
    <glyph glyph-name="uni0F03" unicode="&#xf03;" horiz-adv-x="2232" 
d="M1002 2223.5q63 -62.5 63 -163.5q0 -100 -62.5 -162.5t-162.5 -62.5t-163 62t-63 163t63.5 163.5t162.5 62.5t162 -62.5zM906.5 1993.5q25.5 25.5 25.5 66.5q0 42 -25.5 67t-66.5 25q-42 0 -67 -25t-25 -67q0 -41 25 -66.5t67 -25.5q41 0 66.5 25.5zM516 1987
q48 -129 124.5 -187.5t199.5 -58.5t199 58.5t124 187.5l117 -68q-47 -209 -159 -316.5t-281 -107.5q-170 0 -281.5 107.5t-159.5 316.5zM2091 1370q80 -82 80 -217q0 -140 -88.5 -227.5t-229.5 -87.5q-138 0 -217.5 82.5t-79.5 216.5q0 140 89 227.5t229 87.5q137 0 217 -82
zM855 -463.5q-141 81.5 -383.5 352.5t-429.5 448l109 83q187 -148 413.5 -353t362 -268t295.5 -63q98 0 153 29t55 73q0 38 -33.5 61t-91.5 23q-54 0 -104 -15t-89 -44l-43 264q32 35 83.5 55t107.5 21q-107 168 -209 234.5t-259 66.5q-34 0 -72 -5t-69 -14l33 287
q76 19 158 19q69 0 126 -14t107 -44q21 77 21 154q0 129 -42 227h-639q-28 -58 -28 -129q0 -103 32.5 -186t104.5 -169l-200 -204q-80 94 -115 192.5t-35 208.5q0 167 83.5 320t227.5 242h803l-38 -164q36 -106 36 -224q0 -194 -109 -354q66 -72 131.5 -194t146.5 -315
q57 -46 88.5 -118.5t31.5 -160.5q0 -178 -111.5 -291t-302.5 -113q-165 0 -306 81.5zM1982 1027q23 23 23 67q0 72 -58.5 132t-134.5 60q-43 0 -66.5 -23.5t-23.5 -66.5q0 -72 58.5 -132t134.5 -60q44 0 67 23zM1573 778h581v-164h-581v164zM1635.5 23.5
q-79.5 82.5 -79.5 216.5q0 140 89 227.5t229 87.5q137 0 217 -82t80 -217q0 -140 -88.5 -227.5t-229.5 -87.5q-138 0 -217.5 82.5zM1745.5 365.5q-23.5 -23.5 -23.5 -66.5q0 -72 59 -132.5t134 -60.5q44 0 67 23.5t23 67.5q0 72 -58.5 132t-134.5 60q-43 0 -66.5 -23.5z" />
    <glyph glyph-name="uni0F04" unicode="&#xf04;" horiz-adv-x="2085" 
d="M1771 1075.5q-76 54.5 -210 54.5q-164 0 -164 -53q0 -45 155 -45q91 0 152 23l-39 -269q-66 -38 -158 -38q-118 0 -190 86.5t-72 226.5q0 154 96 247t252 93q180 0 293 -127.5t113 -327.5q0 -240 -143 -390t-369 -150q-172 0 -301.5 65t-232.5 178t-262 320.5
t-312.5 334.5t-337.5 209l172 111q174 -74 325.5 -194.5t354.5 -358t332 -312.5t276 -75q161 0 253.5 65t92.5 179q0 93 -76 147.5zM1980 612l39 -198q-109 -200 -250.5 -294.5t-332.5 -94.5q-177 0 -323.5 59t-269.5 179t-261 311t-263 318t-278 200l174 102
q108 -49 214.5 -137t283.5 -296t278 -286.5t210 -120t245 -41.5q179 0 308.5 73t225.5 226z" />
    <glyph glyph-name="uni0F05" unicode="&#xf05;" horiz-adv-x="940" 
d="M-158 815l52 148q99 -147 208 -213t254 -66q161 0 253.5 65t92.5 179q0 93 -76 147.5t-210 54.5q-164 0 -164 -53q0 -45 156 -45q90 0 151 23l-39 -269q-66 -38 -158 -38q-118 0 -190 86.5t-72 226.5q0 153 96 246.5t253 93.5q179 0 292 -127.5t113 -327.5
q0 -240 -143 -390t-369 -150q-158 0 -275.5 95.5t-224.5 313.5zM836 616l38 -202q-103 -200 -234.5 -294.5t-307.5 -94.5q-163 0 -275 93t-198 298l37 196q98 -157 204 -228t242 -71q165 0 284.5 74t209.5 229z" />
    <glyph glyph-name="uni0F06" unicode="&#xf06;" horiz-adv-x="2085" 
d="M1770.5 1111q-76.5 50 -209.5 50q-164 0 -164 -53q0 -45 155 -45q88 0 152 22l-39 -237q-65 -39 -158 -39q-118 0 -190 79t-72 204q0 138 96 223.5t252 85.5q179 0 292.5 -112.5t113.5 -291.5q0 -222 -142.5 -360.5t-369.5 -138.5q-152 0 -266 45t-207 122.5t-285 307
t-349 348.5t-339 192l172 111q171 -68 321.5 -178.5t355.5 -334t334 -295t277 -71.5q159 0 252.5 61.5t93.5 166.5q0 88 -76.5 138zM1980 684l39 -199q-109 -173 -251 -255.5t-332 -82.5q-173 0 -319.5 51t-271.5 158.5t-262.5 277t-263.5 282t-278 176.5l174 102
q185 -75 337.5 -226t282 -282.5t277.5 -205.5t334 -74q180 0 309.5 67.5t224.5 210.5zM1528 -221v-766l-156 86q-17 252 -35.5 401t-46.5 279l-110 299h458z" />
    <glyph glyph-name="uni0F07" unicode="&#xf07;" horiz-adv-x="2953" 
d="M1779 1057.5q-81 62.5 -223 62.5q-76 0 -125 -20t-49 -51q0 -27 45.5 -45.5t120.5 -18.5q105 0 174 29l-43 -273q-65 -41 -155 -41q-130 0 -211.5 96t-81.5 246q0 165 98 267t260 102q185 0 303.5 -139.5t118.5 -364.5q0 -262 -142.5 -426t-369.5 -164q-150 0 -263 52
t-208.5 144t-288 362.5t-351.5 410.5t-347 227l186 119q173 -80 324.5 -209t354 -386t331.5 -339t276 -82q161 0 254 72.5t93 200.5q0 106 -81 168.5zM2265 1389v-1049h-172v1049h172zM2851 1389v-1049h-172v1049h172zM2581 1248.5q45 -45.5 45 -107.5q0 -63 -45.5 -108.5
t-108.5 -45.5t-108.5 45.5t-45.5 108.5q0 62 45 107.5t109 45.5t109 -45.5zM2581 695.5q45 -45.5 45 -107.5q0 -63 -45.5 -108.5t-108.5 -45.5t-108.5 45.5t-45.5 108.5q0 62 45 107.5t109 45.5t109 -45.5z" />
    <glyph glyph-name="uni0F08" unicode="&#xf08;" horiz-adv-x="1065" 
d="M113 967q6 205 83.5 313.5t225.5 108.5q104 0 154.5 -45.5t50.5 -120.5q0 -37 -14 -71l16 -1q162 0 178 238h145q-11 -246 -93.5 -354.5t-256.5 -108.5q-88 0 -170 26v11q43 53 43 118q0 82 -80 82q-129 0 -137 -196h-145zM948 641q-172 -39 -242.5 -77.5t-125.5 -117.5
h-95q-55 79 -125.5 117.5t-242.5 77.5l-35 299q187 -45 289 -100.5t161 -157.5q58 102 161.5 158t289.5 100zM887 215q-117 -19 -173 -41.5t-91 -71.5v-1069l-156 86q0 643 -14 966q-34 54 -89 81.5t-186 48.5l-35 299q160 -38 249.5 -88.5t139.5 -140.5q54 93 144 142.5
t246 86.5z" />
    <glyph glyph-name="uni0F09" unicode="&#xf09;" horiz-adv-x="1235" 
d="M129 862l-80 131q183 218 321 307t292 89q169 0 266.5 -85t97.5 -231q0 -87 -43.5 -161t-149.5 -155q186 -123 371 -507l-100 -115q-143 206 -271.5 297.5t-281.5 91.5q-72 0 -129 -22t-111 -70l-69 141q78 132 165 192t201 60q39 0 81 -8q59 70 59 137q0 129 -166 129
q-103 0 -208 -51t-245 -170zM1098 -274q-178 221 -319 315t-296 94q-68 0 -123.5 -22t-115.5 -70l-70 141q79 132 166 192t201 60q166 0 314.5 -131.5t342.5 -464.5z" />
    <glyph glyph-name="uni0F0A" unicode="&#xf0a;" horiz-adv-x="1909" 
d="M1868 -367q-242 -256 -654 -256q-330 0 -587.5 147.5t-401 412.5t-143.5 604q0 499 283 801.5t747 302.5q164 0 291 -50l-53 -159q-96 32 -238 32q-372 0 -587.5 -241.5t-215.5 -657.5q0 -444 260.5 -719.5t679.5 -275.5q164 0 287.5 45t230.5 143zM1492.5 912
q-43.5 -74 -149.5 -155q186 -123 371 -507l-100 -115q-143 206 -271.5 297.5t-281.5 91.5q-72 0 -129 -22t-111 -70l-69 141q78 132 165 192t201 60q39 0 81 -8q59 70 59 137q0 129 -166 129q-103 0 -208 -51t-245 -170l-80 131q183 218 321 307t292 89q169 0 266.5 -85
t97.5 -231q0 -87 -43.5 -161zM1608 -274q-178 221 -319 315t-296 94q-68 0 -123.5 -22t-115.5 -70l-70 141q79 132 166 192t201 60q166 0 314.5 -131.5t342.5 -464.5z" />
    <glyph glyph-name="uni0F0B" unicode="&#xf0b;" horiz-adv-x="582" 
d="M389 1034h-196l-132 355h459z" />
    <glyph glyph-name="uni0F0C" unicode="&#xf0c;" horiz-adv-x="582" 
d="M389 1034h-196l-132 355h459z" />
    <glyph glyph-name="uni0F0D" unicode="&#xf0d;" horiz-adv-x="606" 
d="M422 1090v-2077l-156 86q-6 758 -24 1193t-58 798l-110 299h458z" />
    <glyph glyph-name="uni0F0E" unicode="&#xf0e;" horiz-adv-x="1139" 
d="M422 1090v-2077l-156 86q-6 758 -24 1193t-58 798l-110 299h458zM934 1090v-2077l-156 86q-6 758 -24 1193t-58 798l-110 299h458z" />
    <glyph glyph-name="uni0F0F" unicode="&#xf0f;" horiz-adv-x="606" 
d="M401 1034h-196l-131 355h458zM422 475v-1462l-156 86q-10 517 -28.5 819t-53.5 557l-110 299h458z" />
    <glyph glyph-name="uni0F10" unicode="&#xf10;" horiz-adv-x="606" 
d="M401 1034h-196l-131 355h458zM401 563h-196l-131 355h458zM422 147v-1134l-156 86q-10 396 -28.5 625.5t-53.5 422.5l-110 299h458z" />
    <glyph glyph-name="uni0F11" unicode="&#xf11;" horiz-adv-x="1098" 
d="M391 1034h-196l-121 355h438zM903 1034h-196l-121 355h438zM647 563h-196l-132 355h459zM668 147v-1134l-156 86q-10 396 -28.5 625.5t-53.5 422.5l-111 299h459z" />
    <glyph glyph-name="uni0F12" unicode="&#xf12;" horiz-adv-x="2671" 
d="M1257 2183h156q5 -75 81.5 -161.5t76.5 -186.5q0 -104 -66 -170t-170 -66q-105 0 -170 65.5t-65 170.5q0 100 76 186.5t81 161.5zM1395 1775q22 22 22 60q0 32 -14.5 58t-43.5 61l-24 31q-41 -53 -61.5 -82t-20.5 -68q0 -38 22 -60t60 -22t60 22zM1057 1745
q42 -107 105.5 -153t172.5 -46q110 0 173.5 46t105.5 153l125 -78q-40 -169 -143.5 -257.5t-260.5 -88.5t-260 88.5t-143 257.5zM1763 1042h-118l-64 216l-63 -216h-119l-64 216l-63 -216h-119l-63 214l-64 -214h-119l-69 236h995zM823 1208v-323l-176 55q-187 22 -627 31
v151q440 9 627 31zM2650 971q-438 -9 -627 -31l-176 -55v323l176 -55q189 -22 627 -31v-151zM1714 1001q-6 -230 -86.5 -336t-253.5 -106q-45 0 -80 7t-80 26v33q60 54 60 110q0 62 -66 62q-124 0 -127 -197h-125q4 197 75 299t204 102q86 0 135 -43.5t49 -121.5
q0 -36 -12 -71l25 -1q147 0 159 237h123zM1151 516h369l-66 -176v-1307l-156 66q-10 471 -28.5 742.5t-52.5 498.5z" />
    <glyph glyph-name="uni0F13" unicode="&#xf13;" horiz-adv-x="1331" 
d="M759.5 1272q39.5 -39 39.5 -94t-39 -94.5t-94 -39.5t-94.5 39t-39.5 95q0 55 39.5 94t94.5 39q54 0 93.5 -39zM441 461.5q-93 92.5 -93 224.5t93 224.5t225 92.5t224.5 -92.5t92.5 -224.5q0 -131 -93.5 -224t-223.5 -93q-132 0 -225 92.5zM775 577.5q44 45.5 44 108.5
q0 64 -44 109t-109 45q-64 0 -109 -44.5t-45 -109.5q0 -64 44.5 -109t109.5 -45t109 45.5zM80 779.5q39 39.5 94 39.5q54 0 93.5 -39t39.5 -94q0 -54 -39 -93.5t-94 -39.5q-54 0 -93.5 39t-39.5 94q0 54 39 93.5zM1063 779.5q39 39.5 94 39.5q54 0 93.5 -39t39.5 -94
q0 -54 -39 -93.5t-94 -39.5q-54 0 -93.5 39t-39.5 94q0 54 39 93.5zM759.5 289q39.5 -39 39.5 -94t-39 -94.5t-94 -39.5t-94.5 39t-39.5 95q0 55 39.5 94t94.5 39q54 0 93.5 -39z" />
    <glyph glyph-name="uni0F14" unicode="&#xf14;" horiz-adv-x="819" 
d="M182.5 919q-80.5 81 -80.5 218q0 140 88 227.5t230 87.5q137 0 217 -81t80 -218q0 -140 -88 -227.5t-230 -87.5q-136 0 -216.5 81zM551 1094q0 74 -59 133t-134 59q-43 0 -66.5 -23.5t-23.5 -66.5q0 -74 59 -133t134 -59q90 0 90 90zM700 778v-164h-581v164h581z
M182.5 22q-80.5 81 -80.5 218q0 140 88 227.5t230 87.5q137 0 217 -81t80 -218q0 -140 -88 -227.5t-230 -87.5q-136 0 -216.5 81zM551 197q0 74 -59 133t-134 59q-43 0 -66.5 -23.5t-23.5 -66.5q0 -75 59 -134t134 -59q90 0 90 91z" />
    <glyph glyph-name="uni0F15" unicode="&#xf15;" horiz-adv-x="1597" 
d="M1497 1419v-1786q-202 151 -472.5 233.5t-578.5 82.5q-158 0 -346 -37v1507h1397zM252 639h1094v369h-490v151h490v109h-1094v-109h489v-151h-489v-369zM360 899h381v-151h-381v151zM856 899h381v-151h-381v151zM1346 -26q-188 125 -369.5 183t-380.5 58q-120 0 -236 -22
v186q113 22 236 22q203 0 395.5 -64.5t354.5 -187.5v338h-1094v-399q108 12 194 12q231 0 464 -50t436 -156v80z" />
    <glyph glyph-name="uni0F16" unicode="&#xf16;" horiz-adv-x="1475" 
d="M1374 1221v-1614h-143v123h-1131v362h566v76h-566v143h1131v439h-340v-363h-791v307h484v56h-484v669h889v-307h-581v-55h823v164h143zM1231 883v41h-957v321h572v41h-613v-403h484v-322h-473v-41h514v363h473zM809 92h422v76h-422v-76zM1231 -127v76h-987v-76h987z" />
    <glyph glyph-name="uni0F17" unicode="&#xf17;" horiz-adv-x="1477" 
d="M495 216q-80 0 -111 -37.5t-32 -102.5l-151 -21v19q-4 131 -83 260.5t-79 312.5q0 93 20 193l140 -76q-13 -77 -13 -131q0 -69 15.5 -126t44.5 -118q-27 101 -27 186q0 61 9.5 166.5t9.5 155.5q0 81 -39 250l163 -35q27 -108 27 -219q0 -50 -4 -89.5t-22 -131.5
q135 260 135 428q0 91 -29 176l162 -33q20 -70 20 -145q0 -92 -39 -184l32 14q72 97 95.5 173t26.5 228l147 -61q-2 -94 -18 -158.5t-56 -127.5l38 5q76 70 104.5 130t28.5 149l145 -62q0 -102 -66 -187q99 31 144 107t45 205l141 -57q0 -125 -60.5 -223.5t-168.5 -155.5
q-7 -316 -171.5 -497t-445.5 -181zM964 831q-9 -188 -114.5 -295.5t-280.5 -107.5q-82 0 -160 25q-26 -61 -41 -114q50 27 177 27q39 0 66.5 2.5t43.5 4.5q348 49 378 467zM483 589q44 -11 86 -11q105 0 167.5 60t73.5 171q-111 -24 -187 -74.5t-136 -140.5z" />
    <glyph glyph-name="uni0F18" unicode="&#xf18;" 
d="M-932 -414l131 56q40 -114 92 -162.5t136 -48.5q64 0 92 29q-116 9 -188 73.5t-72 161.5q0 74 44 118t119 44q90 0 162 -66t95 -166q85 34 110 123q-108 0 -184 64.5t-76 156.5q0 68 44.5 112t115.5 44q70 0 128 -42t91 -114q4 15 4 35q0 120 -127 207l94 108
q86 -62 131 -144t45 -173q0 -72 -30 -127.5t-85 -88.5q-7 -118 -75.5 -200t-182.5 -112q-20 -87 -88.5 -137t-168.5 -50q-254 0 -357 299zM-216 -109q-14 41 -39.5 66t-55.5 25q-17 0 -17 -15q0 -30 32 -52t80 -24zM-463 -396q-13 49 -45 79t-72 30q-18 0 -18 -16
q0 -39 36.5 -64t98.5 -29z" />
    <glyph glyph-name="uni0F19" unicode="&#xf19;" 
d="M-792 -43v-549l-156 107q-10 283 -41 442l-65 176h327z" />
    <glyph glyph-name="uni0F1A" unicode="&#xf1a;" horiz-adv-x="819" 
d="M185 330.5q-93 92.5 -93 224.5t93 224.5t225 92.5t224.5 -92.5t92.5 -224.5q0 -131 -93.5 -224t-223.5 -93q-132 0 -225 92.5zM519 446.5q44 45.5 44 108.5q0 64 -44 109t-109 45q-64 0 -109 -44.5t-45 -109.5q0 -64 44.5 -109t109.5 -45t109 45.5z" />
    <glyph glyph-name="uni0F1B" unicode="&#xf1b;" horiz-adv-x="1516" 
d="M881 330.5q-93 92.5 -93 224.5t93 224.5t225 92.5t224.5 -92.5t92.5 -224.5q0 -131 -93.5 -224t-223.5 -93q-132 0 -225 92.5zM1215 446.5q44 45.5 44 108.5q0 64 -44 109t-109 45q-64 0 -109 -44.5t-45 -109.5q0 -64 44.5 -109t109.5 -45t109 45.5zM185 330.5
q-93 92.5 -93 224.5t93 224.5t225 92.5t224.5 -92.5t92.5 -224.5q0 -131 -93.5 -224t-223.5 -93q-132 0 -225 92.5zM519 446.5q44 45.5 44 108.5q0 64 -44 109t-109 45q-64 0 -109 -44.5t-45 -109.5q0 -64 44.5 -109t109.5 -45t109 45.5z" />
    <glyph glyph-name="uni0F1C" unicode="&#xf1c;" horiz-adv-x="1516" 
d="M881 330.5q-93 92.5 -93 224.5t93 224.5t225 92.5t224.5 -92.5t92.5 -224.5q0 -131 -93.5 -224t-223.5 -93q-132 0 -225 92.5zM1215 446.5q44 45.5 44 108.5q0 64 -44 109t-109 45q-64 0 -109 -44.5t-45 -109.5q0 -64 44.5 -109t109.5 -45t109 45.5zM185 330.5
q-93 92.5 -93 224.5t93 224.5t225 92.5t224.5 -92.5t92.5 -224.5q0 -131 -93.5 -224t-223.5 -93q-132 0 -225 92.5zM519 446.5q44 45.5 44 108.5q0 64 -44 109t-109 45q-64 0 -109 -44.5t-45 -109.5q0 -64 44.5 -109t109.5 -45t109 45.5zM533 940.5q-93 92.5 -93 224.5
t93 224.5t225 92.5t224.5 -92.5t92.5 -224.5q0 -131 -93.5 -224t-223.5 -93q-132 0 -225 92.5zM867 1056.5q44 45.5 44 108.5q0 64 -44 109t-109 45q-64 0 -109 -44.5t-45 -109.5q0 -64 44.5 -109t109.5 -45t109 45.5z" />
    <glyph glyph-name="uni0F1D" unicode="&#xf1d;" horiz-adv-x="827" 
d="M530 555l215 -215l-116 -117l-215 215l-215 -215l-117 117l215 215l-215 215l117 117l215 -215l215 215l116 -117z" />
    <glyph glyph-name="uni0F1E" unicode="&#xf1e;" horiz-adv-x="1524" 
d="M530 555l215 -215l-116 -117l-215 215l-215 -215l-117 117l215 215l-215 215l117 117l215 -215l215 215l116 -117zM1226 555l215 -215l-116 -117l-215 215l-215 -215l-117 117l215 215l-215 215l117 117l215 -215l215 215l116 -117z" />
    <glyph glyph-name="uni0F1F" unicode="&#xf1f;" horiz-adv-x="1499" 
d="M185 330.5q-93 92.5 -93 224.5t93 224.5t225 92.5t224.5 -92.5t92.5 -224.5q0 -131 -93.5 -224t-223.5 -93q-132 0 -225 92.5zM519 446.5q44 45.5 44 108.5q0 64 -44 109t-109 45q-64 0 -109 -44.5t-45 -109.5q0 -64 44.5 -109t109.5 -45t109 45.5zM1202 555l215 -215
l-116 -117l-215 215l-215 -215l-117 117l215 215l-215 215l117 117l215 -215l215 215l116 -117z" />
    <glyph glyph-name="uni0F20" unicode="&#xf20;" horiz-adv-x="1247" 
d="M224.5 469q-132.5 129 -132.5 342q0 269 154 433.5t409 164.5q226 0 363 -141.5t137 -372.5q0 -250 -160.5 -402.5t-421.5 -152.5q-216 0 -348.5 129zM868 615.5q56 56.5 56 148.5q0 171 -122.5 294.5t-291.5 123.5q-89 0 -143 -56.5t-54 -148.5q0 -163 122.5 -290.5
t283.5 -127.5q93 0 149 56.5z" />
    <glyph glyph-name="uni0F21" unicode="&#xf21;" horiz-adv-x="1126" 
d="M94 211q247 115 382.5 260t189 325.5t63.5 436.5h-172q-9 -135 -75 -293t-154 -256l-267 166q87 101 144.5 239t77.5 300h761q-5 -361 -81.5 -594t-263 -403.5t-533.5 -317.5z" />
    <glyph glyph-name="uni0F22" unicode="&#xf22;" horiz-adv-x="1090" 
d="M1036 102q-201 186 -333.5 251t-313.5 65q-131 0 -268 -47l55 295q114 47 241 51q112 63 163 127.5t51 140.5q0 63 -39.5 99t-116.5 36q-164 0 -315 -149l-109 119q199 323 488 323q160 0 255 -84t95 -231q0 -232 -257 -410q117 -39 230 -144t268 -313z" />
    <glyph glyph-name="uni0F23" unicode="&#xf23;" horiz-adv-x="1114" 
d="M1067 -53q-201 168 -335 227t-318 59q-137 0 -269 -47l56 295q118 51 262 51l69 -3q81 36 118.5 73.5t37.5 81.5q0 39 -28.5 61.5t-84.5 22.5q-136 0 -253 -109l-95 121q143 194 330 224q49 35 49 79q0 41 -28.5 63.5t-83.5 22.5q-192 0 -347 -182l-96 121
q107 154 229.5 228.5t270.5 74.5q136 0 216.5 -61.5t80.5 -165.5q0 -109 -105 -187q89 -24 138 -86t49 -149q0 -83 -50.5 -152.5t-159.5 -130.5q98 -47 199.5 -145t235.5 -273z" />
    <glyph glyph-name="uni0F24" unicode="&#xf24;" horiz-adv-x="1481" 
d="M1430 401q-153 -47 -312 -47q-350 0 -586 148.5t-481 541.5l606 367q302 -496 625 -496l66 5v-152q-78 -29 -218 -29q-355 0 -632 395l-117 -71q198 -305 389 -418t455 -113q103 0 205 23v-154z" />
    <glyph glyph-name="uni0F25" unicode="&#xf25;" horiz-adv-x="997" 
d="M852 98q-181 316 -236 567l-479 -96q-21 84 -33 197.5t-12 218.5q0 181 37 328l307 98q-39 -219 -39 -395q0 -133 19 -227l176 34q-4 39 -4 88q0 206 41 402l307 98q-64 -238 -64 -481q0 -349 125 -768z" />
    <glyph glyph-name="uni0F26" unicode="&#xf26;" horiz-adv-x="1122" 
d="M1028 1094l-31 2q-146 0 -281 -52q277 -56 277 -286q0 -163 -116 -269t-295 -106q-243 0 -366.5 207t-123.5 573q0 116 6 213l140 35q23 -367 147.5 -593t327.5 -226q44 0 70 24.5t26 57.5q0 119 -229 137l-88 188q115 175 267.5 277t301.5 102z" />
    <glyph glyph-name="uni0F27" unicode="&#xf27;" horiz-adv-x="1397" 
d="M584.5 518q-129.5 29 -234.5 76v102q221 151 221 336q0 62 -33 100.5t-89 38.5q-60 0 -90.5 -36t-30.5 -101q0 -84 65 -172l-252 -143q-49 93 -49 199q0 183 129.5 304t300.5 121q161 0 253.5 -79t92.5 -195q0 -157 -176 -273q147 -96 281 -96q59 0 93 35.5t34 110.5
q0 198 -162 393l266 170q53 -82 77 -173t24 -206q0 -247 -133.5 -394t-356.5 -147q-101 0 -230.5 29z" />
    <glyph glyph-name="uni0F28" unicode="&#xf28;" horiz-adv-x="1038" 
d="M940 84q-200 467 -852 526l-27 189l592 612l111 -106l-395 -408q269 -67 436 -246t274 -512z" />
    <glyph glyph-name="uni0F29" unicode="&#xf29;" horiz-adv-x="1149" 
d="M1087 655q-100 -59 -207.5 -93t-199.5 -34q-151 0 -248 56v147q107 40 171.5 123.5t64.5 185.5q0 146 -131 146q-108 0 -169 -110.5t-61 -338.5q0 -319 41 -610l-149 -27q-76 324 -76 619q0 330 135 518t375 188q143 0 230 -81t87 -218q0 -120 -54 -201t-171 -151
q42 -6 94 -6q116 0 223 37z" />
    <glyph glyph-name="uni0F2A" unicode="&#xf2a;" horiz-adv-x="1432" 
d="M1165 430l-84 98q80 73 111 126.5t31 119.5q0 92 -67 124q-70 -285 -259.5 -474.5t-566.5 -349.5l-72 137q240 112 374 251.5t195 326.5l-671 -621l-95 104l682 633q70 66 132 102q14 107 18 226h-172q-9 -135 -75 -293t-154 -256l-267 166q87 101 144.5 239t77.5 300
h761q-3 -200 -24 -344q87 -29 136.5 -101t49.5 -170q0 -91 -45 -166.5t-160 -177.5z" />
    <glyph glyph-name="uni0F2B" unicode="&#xf2b;" horiz-adv-x="1432" 
d="M1272 102q-201 186 -333.5 251t-313.5 65q-131 0 -268 -47l47 251l-248 -229l-95 104l670 622l-20 1q-164 0 -315 -149l-109 119q199 323 488 323q99 0 173.5 -32.5t118.5 -92.5h2q135 0 218 -79t83 -210q0 -91 -45 -166.5t-160 -177.5l-84 98q80 73 111 126.5t31 119.5
q0 111 -100 135l2 -36q0 -232 -257 -410q117 -39 230 -144t268 -313zM857 1041l-382 -353q91 26 178 29q112 63 163 127.5t51 140.5q0 33 -10 56z" />
    <glyph glyph-name="uni0F2C" unicode="&#xf2c;" horiz-adv-x="1432" 
d="M1217 -53q-201 168 -335 227t-318 59q-137 0 -269 -47l44 234l-183 -170l-95 104l376 349l-60 77q143 194 330 224q49 35 49 79q0 41 -28.5 63.5t-83.5 22.5q-192 0 -347 -182l-96 121q107 154 229.5 228.5t270.5 74.5q136 0 216.5 -61.5t80.5 -165.5q0 -22 -5 -47
q33 8 76 8q135 0 218 -79t83 -210q0 -91 -45 -166.5t-160 -177.5l-84 98q80 73 111 126.5t31 119.5q0 68 -39 104.5t-115 36.5q-60 0 -111 -26q59 -31 90.5 -85.5t31.5 -123.5q0 -83 -50.5 -152.5t-159.5 -130.5q98 -47 199.5 -145t235.5 -273zM682 529q81 36 118.5 73.5
t37.5 81.5q0 39 -28.5 61.5t-84.5 22.5h-9l-279 -258q90 22 176 22z" />
    <glyph glyph-name="uni0F2D" unicode="&#xf2d;" horiz-adv-x="1491" 
d="M1440 401q-153 -47 -312 -47q-214 0 -377.5 52t-301.5 165l-258 -239l-95 104l249 231q-134 139 -284 377l606 367q97 -159 198 -269q116 85 239 85q135 0 218 -79t83 -210q0 -92 -46.5 -169t-158.5 -175l-84 98l49 47h-25q-196 0 -374 125l-123 -114q119 -110 261 -164
t331 -54q103 0 205 23v-154zM656 956q-79 79 -148 178l-117 -71q78 -120 154 -210zM972 1041q142 -112 285 -125l1 22q0 68 -39 104.5t-115 36.5q-70 0 -132 -38z" />
    <glyph glyph-name="uni0F2E" unicode="&#xf2e;" horiz-adv-x="1432" 
d="M1165 381l-84 98q80 73 111 126.5t31 119.5q0 68 -39 104.5t-115 36.5q-62 0 -113 -27q14 -314 123 -677l-145 -64q-168 292 -228 530l-550 -509l-95 104l432 401l-274 -55q-21 84 -33 197.5t-12 218.5q0 181 37 328l307 98q-39 -219 -39 -395q0 -133 19 -227l176 34
q-4 39 -4 88q0 206 41 402l307 98q-54 -201 -63 -415q54 18 114 18q135 0 218 -79t83 -210q0 -91 -45 -166.5t-160 -177.5z" />
    <glyph glyph-name="uni0F2F" unicode="&#xf2f;" horiz-adv-x="1432" 
d="M1165 430l-84 98q80 73 111 126.5t31 119.5q0 68 -39 104.5t-115 36.5q-59 0 -106 -24q30 -57 30 -133q0 -163 -116 -269t-295 -106q-90 0 -163 29l-263 -244l-95 104l235 218q-108 101 -156 279t-48 394q0 116 6 213l140 35q15 -243 80 -439.5t178 -295.5l139 129l-55 6
l-88 188q115 175 267.5 277t301.5 102l-33 -284l-31 2q-146 0 -281 -52q83 -17 140 -48q104 67 213 67q135 0 218 -79t83 -210q0 -91 -45 -166.5t-160 -177.5zM780 745l-153 -141q41 -12 86 -12q44 0 70 24.5t26 57.5q0 43 -29 71z" />
    <glyph glyph-name="uni0F30" unicode="&#xf30;" horiz-adv-x="1593" 
d="M1327 666l-84 98q80 73 111 126.5t31 119.5q0 123 -118 139q7 -52 7 -119q0 -247 -133.5 -394t-356.5 -147q-147 0 -318 52l-148 -137l-95 104l96 89v99q221 151 221 336q0 62 -33 100.5t-89 38.5q-60 0 -90.5 -36t-30.5 -101q0 -84 65 -172l-252 -143q-49 93 -49 199
q0 183 129.5 304t300.5 121q158 0 249.5 -75t96.5 -190l114 104l-44 57l266 170q37 -57 56 -110h2q135 0 218 -79t83 -210q0 -91 -45 -166.5t-160 -177.5zM1022 1055l-312 -289q118 -66 232 -66q59 0 93 35.5t34 110.5q0 104 -47 209z" />
    <glyph glyph-name="uni0F31" unicode="&#xf31;" horiz-adv-x="1432" 
d="M1165 430l-84 98q80 73 111 126.5t31 119.5q0 68 -39 104.5t-115 36.5q-58 0 -108 -24.5t-121 -89.5l-68 -63q120 -94 210 -240.5t158 -358.5l-139 -55q-132 308 -461 439l-384 -355l-95 104l323 300q-103 25 -235 38l-27 189l592 612l111 -106l-395 -408
q116 -28 218 -80l95 88q93 87 170 122.5t156 35.5q135 0 218 -79t83 -210q0 -91 -45 -166.5t-160 -177.5z" />
    <glyph glyph-name="uni0F32" unicode="&#xf32;" horiz-adv-x="1432" 
d="M1230 655q-100 -59 -207.5 -93t-199.5 -34q-151 0 -248 56v147q107 40 171.5 123.5t64.5 185.5v13l-361 -334q2 -311 41 -592l-149 -27q-56 239 -70 454l-116 -107l-95 104l205 190q4 320 139.5 502t370.5 182q149 0 236 -87q25 4 57 4q135 0 218 -79t83 -210
q0 -84 -37.5 -153t-129.5 -156zM1087 1193q6 -31 6 -67q0 -120 -54 -201t-171 -151q42 -6 94 -6q65 0 140 14l-21 25q80 73 111 126.5t31 119.5q0 64 -34.5 100t-101.5 40zM736 1177q-24 9 -56 9q-171 0 -216 -261z" />
    <glyph glyph-name="uni0F33" unicode="&#xf33;" horiz-adv-x="1432" 
d="M1165 655l-43 50q-55 -170 -202 -267.5t-351 -97.5q-206 0 -340 121l-73 -68l-95 104l82 76q-55 104 -55 238q0 269 154 433.5t409 164.5q214 0 348 -128q34 7 70 7q135 0 218 -79t83 -210q0 -91 -45 -166.5t-160 -177.5zM728 1116q-101 66 -222 66q-89 0 -143 -56.5
t-54 -148.5q0 -103 54 -200zM1101 1138q50 -106 50 -243q0 -44 -4 -77q41 47 58.5 88.5t17.5 92.5q0 60 -31 96t-91 43zM833 1019l-382 -353q115 -107 264 -107q93 0 149 56.5t56 148.5q0 140 -87 255z" />
    <glyph glyph-name="uni0F34" unicode="&#xf34;" horiz-adv-x="793" 
d="M489 1034h-196l-132 355h459zM612 330q-173 222 -530 248v342q234 -28 393.5 -153.5t235.5 -338.5zM612 -182q-173 222 -530 248v342q234 -28 393.5 -153.5t235.5 -338.5z" />
    <glyph glyph-name="uni0F35" unicode="&#xf35;" 
d="M-625 -470q-62 62 -62 163q0 102 63.5 164t162.5 62q100 0 162.5 -62.5t62.5 -163.5t-62 -163t-163 -62q-102 0 -164 62zM-394.5 -373.5q25.5 25.5 25.5 66.5q0 42 -25.5 67t-66.5 25q-42 0 -67 -25t-25 -67q0 -41 25 -66.5t67 -25.5q41 0 66.5 25.5zM-785 -380
q48 -129 124.5 -187.5t199.5 -58.5t199 58.5t124 187.5l117 -68q-47 -209 -159 -316.5t-281 -107.5q-170 0 -281.5 107.5t-159.5 316.5z" />
    <glyph glyph-name="uni0F36" unicode="&#xf36;" horiz-adv-x="1270" 
d="M751 1232.5q48 -47.5 48 -116.5q0 -68 -47.5 -116t-116.5 -48q-68 0 -116 47.5t-48 116.5q0 68 47.5 116t116.5 48q68 0 116 -47.5zM88.5 802q47.5 48 116.5 48q68 0 116 -47.5t48 -116.5q0 -68 -47.5 -116t-116.5 -48q-68 0 -116 47.5t-48 116.5q0 68 47.5 116z
M948.5 802q47.5 48 116.5 48q68 0 116 -47.5t48 -116.5q0 -68 -47.5 -116t-116.5 -48q-68 0 -116 47.5t-48 116.5q0 68 47.5 116zM751 372.5q48 -47.5 48 -116.5q0 -68 -47.5 -116t-116.5 -48q-68 0 -116 47.5t-48 116.5q0 68 47.5 116t116.5 48q68 0 116 -47.5z" />
    <glyph glyph-name="uni0F37" unicode="&#xf37;" 
d="M-440 -481q-62 62 -62 163t62.5 163.5t162.5 62.5q101 0 163.5 -62.5t62.5 -163.5t-62.5 -163t-163.5 -62t-163 62zM-209.5 -384.5q25.5 25.5 25.5 66.5q0 42 -25.5 67t-67.5 25q-41 0 -66.5 -25t-25.5 -67q0 -41 25.5 -66.5t66.5 -25.5q42 0 67.5 25.5z" />
    <glyph glyph-name="uni0F38" unicode="&#xf38;" horiz-adv-x="1321" 
d="M788 670h-278l-10 26q110 135 110 273q0 72 -22 121h-279v-21q0 -112 105 -223l-203 -215q-119 129 -119 272q0 279 277 486h440l-35 -150q25 -77 25 -158q0 -63 -14 -112h126q154 0 154 135q0 109 -78 209l201 98q41 -114 41 -260q0 -243 -119 -362t-322 -119z" />
    <glyph glyph-name="uni0F39" unicode="&#xf39;" 
d="M-492 1389q13 165 13 372q270 0 422 64l-37 -269q-113 -76 -260 -86q-3 -37 -13 -81h-125z" />
    <glyph glyph-name="uni0F3A" unicode="&#xf3a;" horiz-adv-x="3420" 
d="M1779 1057.5q-81 62.5 -223 62.5q-76 0 -125 -20t-49 -51q0 -27 45.5 -45.5t120.5 -18.5q105 0 174 29l-43 -273q-65 -41 -155 -41q-130 0 -211.5 96t-81.5 246q0 165 98 267t260 102q185 0 303.5 -139.5t118.5 -364.5q0 -262 -142.5 -426t-369.5 -164q-150 0 -263 52
t-208.5 144t-288 362.5t-351.5 410.5t-347 227l186 119q173 -80 324.5 -209t354 -386t331.5 -339t276 -82q161 0 254 72.5t93 200.5q0 106 -81 168.5zM2178 676.5q-93 92.5 -93 224.5t93 224.5t225 92.5t224.5 -92.5t92.5 -224.5q0 -131 -93.5 -224t-223.5 -93
q-132 0 -225 92.5zM2512 792.5q44 45.5 44 108.5q0 64 -44 109t-109 45q-64 0 -109 -44.5t-45 -109.5q0 -64 44.5 -109t109.5 -45t109 45.5zM2786 330.5q-93 92.5 -93 224.5t93 224.5t225 92.5t224.5 -92.5t92.5 -224.5q0 -131 -93.5 -224t-223.5 -93q-132 0 -225 92.5z
M3120 446.5q44 45.5 44 108.5q0 64 -44 109t-109 45q-64 0 -109 -44.5t-45 -109.5q0 -64 44.5 -109t109.5 -45t109 45.5zM2786 1022.5q-93 92.5 -93 224.5t93 224.5t225 92.5t224.5 -92.5t92.5 -224.5q0 -131 -93.5 -224t-223.5 -93q-132 0 -225 92.5zM3120 1138.5
q44 45.5 44 108.5q0 64 -44 109t-109 45q-64 0 -109 -44.5t-45 -109.5q0 -64 44.5 -109t109.5 -45t109 45.5z" />
    <glyph glyph-name="uni0F3B" unicode="&#xf3b;" horiz-adv-x="3420" 
d="M3379 1513q-188 -87 -347 -227t-351.5 -410.5t-288 -362.5t-208.5 -144t-263 -52q-226 0 -369 164t-143 426q0 223 118 363.5t304 140.5q161 0 259.5 -102t98.5 -267q0 -151 -81.5 -246.5t-211.5 -95.5q-90 0 -155 41l-43 273q69 -29 174 -29q75 0 120.5 18.5t45.5 45.5
q0 31 -48 51t-126 20q-140 0 -222 -62t-82 -169q0 -127 93 -200t254 -73q147 0 276 82t331.5 339t354 386t324.5 209zM185 1023.5q-93 93.5 -93 223.5q0 132 92.5 224.5t224.5 92.5t225 -92.5t93 -224.5t-93 -224.5t-225 -92.5q-131 0 -224 93.5zM518 1137.5
q45 44.5 45 109.5q0 64 -44.5 109t-109.5 45t-109 -45.5t-44 -108.5q0 -64 44 -109t109 -45q64 0 109 44.5zM789 687.5q-93 93.5 -93 223.5q0 132 92.5 224.5t224.5 92.5t225 -92.5t93 -224.5t-93 -224.5t-225 -92.5q-131 0 -224 93.5zM1122 801.5q45 44.5 45 109.5
q0 64 -44.5 109t-109.5 45t-109 -45.5t-44 -108.5q0 -64 44 -109t109 -45q64 0 109 44.5zM185 331.5q-93 93.5 -93 223.5q0 132 92.5 224.5t224.5 92.5t225 -92.5t93 -224.5t-93 -224.5t-225 -92.5q-131 0 -224 93.5zM518 445.5q45 44.5 45 109.5q0 64 -44.5 109t-109.5 45
t-109 -45.5t-44 -108.5q0 -64 44 -109t109 -45q64 0 109 44.5z" />
    <glyph glyph-name="uni0F3C" unicode="&#xf3c;" horiz-adv-x="1536" 
d="M61 -860q206 58 294.5 149.5t121.5 283.5t36.5 583.5t51.5 607.5t157.5 321t321.5 154q-14 69 -14 135q0 180 72 278t221 152t219 114.5t94 199.5l146 -35q-17 -223 -83 -332.5t-196.5 -163.5t-183.5 -140t-53 -267q-199 -54 -287 -150t-125.5 -302.5t-38.5 -456
t-22 -483.5t-87.5 -394.5t-205.5 -247t-369 -139.5z" />
    <glyph glyph-name="uni0F3D" unicode="&#xf3d;" horiz-adv-x="1536" 
d="M-100 2118q24 -140 94.5 -200.5t220 -114.5t220.5 -152.5t71 -276.5q0 -66 -14 -135q212 -49 321.5 -154t157.5 -321t51.5 -607.5t36.5 -583.5t121.5 -283.5t294.5 -149.5l-70 -133q-230 53 -369 139.5t-205.5 247t-87.5 394.5t-22 483.5t-38.5 456t-125.5 302.5
t-287 150q0 181 -53.5 267t-184 140t-196 163.5t-82.5 332.5z" />
    <glyph glyph-name="uni0F3E" unicode="&#xf3e;" horiz-adv-x="1116" 
d="M979 -680q-247 91 -396.5 210.5t-198.5 277t-56 495t-64.5 496.5t-202.5 221l39 151q206 -70 306 -140t144.5 -178t58 -284t20.5 -390.5t51.5 -327.5t121 -205.5t253.5 -184.5z" />
    <glyph glyph-name="uni0F3F" unicode="&#xf3f;" horiz-adv-x="1116" 
d="M1055 1020q-142 -59 -200.5 -216.5t-66 -487.5t-51.5 -492t-193.5 -285.5t-406.5 -218.5l-76 141q185 96 261 192.5t117.5 207t48 327.5t19.5 381.5t53 270.5t133.5 179.5t322.5 151.5z" />
    <glyph glyph-name="uni0F40" unicode="&#xf40;" horiz-adv-x="1503" 
d="M1372 1090v-2085l-155 94q0 777 -23 1210t-80 781h-262q22 -271 22 -775l-155 68q-20 423 -125 707h-154q0 -206 -46.5 -347.5t-157.5 -269.5l-156 242q103 84 153 170t50 205h-181l70 299h1270z" />
    <glyph glyph-name="uni0F41" unicode="&#xf41;" horiz-adv-x="1475" 
d="M1311 1090q57 -368 63 -805l-123 -54q-128 124 -264.5 180t-304.5 56l-78 -4l-90 121q52 260 140 506h-285q-46 -298 -64 -654.5t-18 -980.5l-156 94v1840h1249zM1219 460q-26 314 -146 630h-199q-83 -144 -151 -314q278 -25 496 -316z" />
    <glyph glyph-name="uni0F42" unicode="&#xf42;" horiz-adv-x="1532" 
d="M1470 1389l-69 -299v-2085l-156 94q0 771 -22.5 1206.5t-79.5 784.5h-238q58 -380 64 -805l-123 -54q-134 124 -277 180t-319 56l-78 -4l-90 121q52 260 140 506h-111l69 299h1290zM813 457q-27 327 -145 633h-226q-83 -144 -151 -314q291 -24 522 -319z" />
    <glyph glyph-name="uni0F43" unicode="&#xf43;" horiz-adv-x="1526" 
d="M1464 1389l-63 -276v-816l-156 62q-12 291 -31 456.5t-55 297.5h-245q35 -240 39 -520l-123 -53q-130 68 -269 98.5t-311 30.5l-78 -5l-90 121q47 176 114 328h-101l65 276h1304zM402 1113q-53 -71 -104 -159q278 -18 500 -225q-24 194 -122 384h-274zM615 -1006l-57 134
q216 227 314 365.5t98 256.5q0 79 -54 120t-158 41q-98 0 -171 -25q60 -70 116 -171l-131 -44q-95 76 -178 107.5t-214 45.5l-51 127q59 161 151 311h-99l65 277h946l-65 -277h-626q-97 -101 -169 -208q83 -24 145 -68q77 87 171.5 129t216.5 42q174 0 276.5 -90.5
t102.5 -248.5q0 -193 -145.5 -373.5t-483.5 -450.5z" />
    <glyph glyph-name="uni0F44" unicode="&#xf44;" horiz-adv-x="1243" 
d="M1165 57q-160 223 -281.5 298t-308.5 75q-207 0 -376 -35l-113 137q37 269 117 558h-101l70 299h1002l-70 -299h-654q-95 -174 -166 -372q118 23 246 23q250 0 418.5 -138.5t372.5 -516.5z" />
    <glyph glyph-name="uni0F45" unicode="&#xf45;" horiz-adv-x="1323" 
d="M454 213.5q-117 84.5 -234 311.5t-200 337l154 94q75 -75 145.5 -110t153.5 -35q78 0 123 36t45 101q0 76 -46 142h-438l70 299h1022l-70 -299h-395q8 -39 8 -89v-20q63 29 143 29q158 0 252.5 -109.5t94.5 -294.5q0 -212 -152.5 -344.5t-390.5 -132.5q-168 0 -285 84.5z
M694 683q-110 -24 -182 -24q-27 0 -58 11l-4 -8q140 -162 198 -208t118.5 -67.5t132.5 -21.5q89 0 144.5 47.5t55.5 126.5t-55 123.5t-162 44.5q-78 0 -188 -24z" />
    <glyph glyph-name="uni0F46" unicode="&#xf46;" horiz-adv-x="1479" 
d="M871.5 181.5q-82.5 54.5 -121.5 149.5q-40 -95 -122 -149.5t-202 -54.5q-169 0 -267 113t-98 309q0 199 98.5 309.5t274.5 110.5q141 0 239 -82q-4 111 -43 203h-440l70 299h1063l-70 -299h-437q8 -92 9 -204q100 83 240 83q178 0 275.5 -112t97.5 -308t-98 -309
t-267 -113q-119 0 -201.5 54.5zM674 597q-107 62 -250 62q-209 0 -209 -131q0 -72 55 -109.5t152 -37.5q116 0 184 53t68 144v19zM825 596v-18q0 -91 68 -144t184 -53q97 0 152 37.5t55 109.5q0 131 -209 131q-142 0 -250 -63z" />
    <glyph glyph-name="uni0F47" unicode="&#xf47;" horiz-adv-x="1257" 
d="M1133 16q-166 185 -293 247.5t-326 62.5q-191 0 -379 -39l-92 135q52 342 142 668h-74l69 299h961l-70 -299h-679l-46 -115h676l-61 -258h-702l-36 -125q132 22 269 22q250 0 419 -118.5t377 -450.5z" />
    <glyph glyph-name="uni0F49" unicode="&#xf49;" horiz-adv-x="1157" 
d="M401 -967l-90 138q255 436 371 704t116 487q0 154 -66.5 240t-187.5 86q-85 0 -128.5 -41.5t-43.5 -114.5q0 -140 232 -217l-191 -241q-254 98 -254 372q0 177 127.5 300.5t331.5 123.5q85 0 158 -21q18 48 18 105q0 77 -26 136h-473l-3 -35q0 -69 41 -131l-213 -201
q-47 71 -47 168q0 284 314 498h602l-43 -184q28 -75 28 -156q0 -135 -73 -254q92 -60 143 -159t51 -230q0 -247 -159 -551t-535 -822z" />
    <glyph glyph-name="uni0F4A" unicode="&#xf4a;" horiz-adv-x="1204" 
d="M872 -967l-208 21q-283 500 -405.5 800.5t-122.5 542.5q0 226 110.5 360t297.5 134q210 0 318 -178l-8 377h-743l69 299h916q-52 -542 -78 -1098l-153 85v113q-93 113 -228 113q-101 0 -157.5 -75.5t-56.5 -208.5q0 -232 106.5 -519.5t342.5 -765.5z" />
    <glyph glyph-name="uni0F4B" unicode="&#xf4b;" horiz-adv-x="1237" 
d="M1151 135q-187 27 -354 27q-176 0 -285 -51.5t-225 -182.5l-156 31v1430h760q125 -78 188.5 -182t63.5 -246q0 -94 -31 -171t-89 -128q144 -186 234 -381zM348 1090l-16 -118q173 -85 413 -85q120 0 180 44.5t60 121.5q0 21 -4 37h-633zM984 465q-71 67 -144 118l-54 -3
q-130 0 -256.5 62t-214.5 168q-31 -326 -34 -679q116 183 240.5 261.5t318.5 78.5q71 0 144 -6z" />
    <glyph glyph-name="uni0F4C" unicode="&#xf4c;" horiz-adv-x="1284" 
d="M1116 1090q64 -238 104 -482l-133 -147q-167 31 -327 31q-241 0 -343 -119.5t-139 -401.5t-61 -966l-156 94q0 769 51 1107t188 467.5t419 129.5q147 0 299 -20q-68 170 -153 307h-787l69 299h1084l-70 -299h-45z" />
    <glyph glyph-name="uni0F4D" unicode="&#xf4d;" horiz-adv-x="1284" 
d="M61 143q22 296 77.5 440t185.5 201.5t393 57.5q147 0 301 -20q-68 150 -150 274h-790l68 293h1085l-68 -293h-46q64 -219 104 -439l-134 -147q-163 30 -329 30q-213 0 -315.5 -37t-149 -130.5t-76.5 -302.5zM683 -1059l-48 130q183 210 257.5 335t74.5 234
q0 161 -154 161q-85 0 -148 -45q37 -61 77 -152l-126 -33q-63 69 -123.5 103t-147.5 47l-52 127q58 166 149 314h-103l63 266h782l-63 -266h-454q-111 -111 -188 -229q56 -24 100 -68q125 176 330 176q148 0 235 -89t87 -240q0 -185 -123.5 -356.5t-424.5 -414.5z" />
    <glyph glyph-name="uni0F4E" unicode="&#xf4e;" horiz-adv-x="1407" 
d="M611.5 227q-116.5 57 -183.5 164q-79 -175 -124 -504.5t-66 -881.5l-156 94q0 685 64.5 1086t204.5 586q13 165 83 319h-332l70 299h1145l-70 -299h-591q-50 -73 -81 -151q106 38 252 38q217 0 347.5 -109.5t130.5 -300.5q0 -397 -424 -397q-153 0 -269.5 57zM673.5 643
q-75.5 -25 -135.5 -83q31 -114 120 -173t223 -59q114 0 171.5 44t57.5 124t-67 126t-195 46q-99 0 -174.5 -25z" />
    <glyph glyph-name="uni0F4F" unicode="&#xf4f;" horiz-adv-x="1217" 
d="M477 -967l-90 138q233 427 338 684t105 464q0 132 -59 207.5t-168 75.5q-141 0 -239 -114l-1 -197l-154 86q-25 510 -78 1012h1018l-70 -299h-704l-8 -382q56 91 141.5 137t190.5 46q195 0 308 -130.5t113 -346.5q0 -249 -147.5 -555.5t-495.5 -825.5z" />
    <glyph glyph-name="uni0F50" unicode="&#xf50;" horiz-adv-x="1278" 
d="M1217 1389l-70 -299v-1162l-156 31q-117 114 -224.5 158.5t-285.5 44.5q-167 0 -354 -27l-107 146q88 192 235 381q-58 51 -89 128t-31 171q0 142 63.5 246t188.5 182h830zM930 1090h-633q-4 -16 -4 -37q0 -77 59.5 -121.5t179.5 -44.5q241 0 414 85zM997 153
q-5 357 -34 657q-88 -106 -214.5 -168t-256.5 -62l-54 3q-73 -51 -144 -118q74 6 144 6q193 0 317.5 -73t241.5 -245z" />
    <glyph glyph-name="uni0F51" unicode="&#xf51;" horiz-adv-x="1247" 
d="M1049 -901q-22 655 -56 928.5t-128.5 389t-317.5 115.5q-177 0 -348 -30l-133 147q35 218 93 441h-77l70 299h1001l-70 -299h-686q-68 -118 -130 -267q171 21 321 21q258 0 387 -134t179 -496.5t50 -1208.5z" />
    <glyph glyph-name="uni0F52" unicode="&#xf52;" horiz-adv-x="1247" 
d="M525 -1096l-52 131q199 231 278 365t79 248q0 83 -43.5 125.5t-126.5 42.5q-89 0 -152 -41q39 -59 88 -163l-128 -35q-70 73 -136.5 108t-166.5 49l-51 127q55 160 149 318h-102l64 270h790q-42 123 -133 172t-304 49q-185 0 -379 -31l-133 147q40 174 94 325h-78l65 278
h1006l-65 -278h-696q-67 -83 -124 -184q181 22 351 22q216 0 333 -63.5t174.5 -216t77.5 -438.5l-155 70l-16 83l-48 -205h-498q-104 -107 -183 -226q61 -25 113 -70q66 89 149.5 131.5t192.5 42.5q155 0 246.5 -91t91.5 -246q0 -192 -130.5 -372.5t-441.5 -443.5z" />
    <glyph glyph-name="uni0F53" unicode="&#xf53;" horiz-adv-x="1395" 
d="M1108 -901q-19 513 -63 823t-117 477q-61 -111 -169.5 -170t-252.5 -59q-195 0 -309.5 106.5t-114.5 290.5q0 191 124 300.5t333 109.5q131 0 229 -34q-28 71 -78 147h-559l70 299h1104l-70 -299h-324q69 -150 83 -318q141 -194 205.5 -615.5t64.5 -1151.5zM811 572
q-57 52 -128.5 74t-164.5 22q-118 0 -180 -46t-62 -126t57.5 -124t172.5 -44q121 0 201 62t104 182z" />
    <glyph glyph-name="uni0F54" unicode="&#xf54;" horiz-adv-x="1354" 
d="M1292 1389l-69 -299v-940l-156 30q-123 194 -238.5 271t-318.5 77q-165 0 -332 -26l-112 102q36 244 105 486h-89l70 299h442l-70 -299h-128q-75 -113 -137 -271q106 19 208 19q205 0 339 -93t257 -314q-29 388 -98 659h-72l70 299h329z" />
    <glyph glyph-name="uni0F55" unicode="&#xf55;" horiz-adv-x="1354" 
d="M1292 1389l-69 -299v-940l-156 30q-123 194 -238.5 271t-318.5 77q-165 0 -332 -26l-112 102q36 244 105 486h-89l70 299h442l-70 -299h-128q-75 -113 -137 -271q106 19 208 19q65 0 124 -9q157 152 376 254l-2 7h-31l70 299h288zM1063 431q-21 280 -66 516
q-141 -73 -250 -166q87 -44 163.5 -128.5t152.5 -221.5z" />
    <glyph glyph-name="uni0F56" unicode="&#xf56;" horiz-adv-x="1354" 
d="M1292 1389l-69 -299v-940l-156 30q-123 194 -238.5 271t-318.5 77q-165 0 -332 -26l-112 102q36 244 105 486h-89l70 299h1140zM1063 431q-29 388 -98 659h-569q-75 -113 -137 -271q106 19 208 19q205 0 339 -93t257 -314z" />
    <glyph glyph-name="uni0F57" unicode="&#xf57;" horiz-adv-x="1350" 
d="M1289 1389l-66 -285v-782l-156 30l-13 15l-51 -216h-497q-108 -111 -183 -228q58 -23 112 -69q66 89 149.5 132t192.5 43q155 0 246.5 -91.5t91.5 -246.5q0 -193 -131 -374t-441 -441l-51 130q197 229 276.5 363.5t79.5 249.5q0 82 -43 125t-126 43q-90 0 -153 -41
q44 -64 88 -162l-128 -36q-70 74 -136 108.5t-166 48.5l-51 127q61 173 149 319h-102l63 269h763q-103 107 -210 150.5t-286 43.5q-175 0 -331 -25l-113 105q35 206 100 410h-84l66 285h1141zM1064 567q-25 312 -88 537h-590q-68 -88 -129 -213q111 18 210 18
q207 0 341 -78.5t256 -263.5z" />
    <glyph glyph-name="uni0F58" unicode="&#xf58;" horiz-adv-x="1468" 
d="M1407 1389l-70 -299v-981l-155 30q-262 288 -396 392q-38 -132 -135.5 -202.5t-238.5 -70.5q-158 0 -251 93.5t-93 252.5q0 176 98 274.5t274 98.5q68 0 128 -17q-33 68 -79 130h-356l70 299h665l-69 -299h-76q58 -127 77 -263q159 -136 390 -471q-26 418 -111 734h-71
l69 299h330zM630 628q-92 40 -200 40q-87 0 -133.5 -33t-46.5 -94q0 -58 43 -92.5t119 -34.5q90 0 147.5 55t70.5 159z" />
    <glyph glyph-name="uni0F59" unicode="&#xf59;" horiz-adv-x="1323" 
d="M1180 1090h-396q9 -37 9 -89v-20q63 29 143 29q157 0 251.5 -109.5t94.5 -294.5q0 -212 -152.5 -344.5t-390.5 -132.5q-168 0 -285 84.5t-234 311.5t-200 337l154 94q75 -75 145.5 -110t153.5 -35q80 0 124 36t44 101q0 76 -46 142h-437l69 299h897q13 165 13 372
q270 0 422 64l-37 -269q-113 -76 -260 -86q-3 -37 -13 -81zM455 670l-4 -8q152 -174 209 -216.5t114.5 -61.5t124.5 -19q90 0 145.5 47t55.5 127q0 78 -55.5 123t-161.5 45q-78 0 -190 -24t-181 -24q-28 0 -57 11z" />
    <glyph glyph-name="uni0F5A" unicode="&#xf5a;" horiz-adv-x="1479" 
d="M816 1090q8 -92 9 -204q100 83 240 83q178 0 275.5 -112t97.5 -308t-98 -309t-267 -113q-119 0 -201.5 54.5t-121.5 149.5q-40 -95 -122 -149.5t-202 -54.5q-169 0 -267 113t-98 309q0 199 98.5 309.5t274.5 110.5q141 0 239 -82q-4 111 -43 203h-440l70 299h938
q12 171 12 372q272 0 422 64l-37 -269q-111 -76 -260 -86q-3 -44 -12 -81l-70 -299h-437zM674 597q-107 62 -250 62q-209 0 -209 -131q0 -72 55 -109.5t152 -37.5q116 0 184 53t68 144v19zM825 578q0 -91 68 -144t184 -53q97 0 152 37.5t55 109.5q0 131 -209 131
q-142 0 -250 -63v-18z" />
    <glyph glyph-name="uni0F5B" unicode="&#xf5b;" horiz-adv-x="1257" 
d="M392 1090l-46 -115h676l-61 -258h-702l-36 -125q132 22 269 22q250 0 419 -118.5t377 -450.5l-155 -29q-166 185 -293 247.5t-326 62.5q-191 0 -379 -39l-92 135q52 342 142 668h-74l69 299h836q12 171 12 372q272 0 422 64l-37 -269q-113 -77 -260 -86q-3 -44 -12 -81
l-70 -299h-679z" />
    <glyph glyph-name="uni0F5C" unicode="&#xf5c;" horiz-adv-x="1255" 
d="M383 1132q-22 -40 -38 -74h675l-53 -221h-720q-22 -58 -32 -87q140 24 279 24q247 0 416 -72t376 -274l-146 -42q-169 85 -294.5 112.5t-322.5 27.5q-88 0 -195.5 -10.5t-198.5 -28.5l-87 127q53 267 140 518h-70l61 257h841q12 167 12 361q147 0 246.5 16t174.5 48
l-34 -252q-56 -38 -119.5 -60t-140.5 -26q-4 -42 -14 -87l-61 -257h-695zM664 -1172l-50 125q189 223 272.5 360.5t83.5 261.5q0 84 -44.5 127t-129.5 43q-92 0 -159 -43q47 -68 94 -169l-122 -33q-71 74 -138.5 109t-171.5 50l-49 121q57 168 151 326h-98l61 256h811
l-61 -256h-496q-108 -111 -187 -235q64 -24 117 -69q66 88 149.5 130.5t191.5 42.5q154 0 245 -90t91 -242q0 -190 -127.5 -369.5t-433.5 -445.5z" />
    <glyph glyph-name="uni0F5D" unicode="&#xf5d;" horiz-adv-x="1587" 
d="M1477 897l-70 -295v-831l-156 28q-110 161 -214.5 224t-282.5 63q-134 0 -269 -27l-133 127q34 206 98 416h-81l69 295h192q13 38 13 78q0 63 -27 115h-357l-1 -27q0 -55 21 -101t65 -94l-194 -204q-49 65 -70 133t-21 153q0 252 279 439h500l-37 -160q22 -68 22 -139
q0 -100 -41 -193h355q-38 101 -123 201l71 291q274 0 418 63l-39 -268q-100 -69 -239 -78q42 -95 61 -209h191zM1246 47q-25 308 -87 555h-497q-69 -101 -124 -229q84 16 179 16q179 0 300.5 -80t228.5 -262z" />
    <glyph glyph-name="uni0F5E" unicode="&#xf5e;" horiz-adv-x="1516" 
d="M1188 406q-131 -113 -338 -113q-163 0 -258.5 85.5t-95.5 229.5q0 171 101 270t276 99q194 0 309 -107q-14 114 -71 220h-736q-74 -131 -74 -297q0 -134 45.5 -241.5t145.5 -219.5l-207 -215q-108 130 -155.5 265.5t-47.5 285.5q0 219 107 414.5t286 306.5h858l-47 -204
q76 -165 76 -341q0 -116 -31 -215q82 -215 122.5 -605.5t41.5 -1018.5l-156 94q-16 518 -53 829.5t-98 477.5zM1109 555q-49 61 -111.5 87t-145.5 26t-126.5 -28.5t-43.5 -78.5t43 -80t125 -30q171 0 259 104z" />
    <glyph glyph-name="uni0F5F" unicode="&#xf5f;" horiz-adv-x="1255" 
d="M1194 1389l-70 -299v-988l-155 37q-177 93 -316 129.5t-327 36.5q-129 0 -271 -41l70 293q130 37 283 37q168 0 301 -58t270 -194l-16 269q-73 51 -174.5 73.5t-262.5 22.5h-374l59 258h375q254 0 357 -141q-17 148 -36 266h-817l70 299h1034z" />
    <glyph glyph-name="uni0F60" unicode="&#xf60;" horiz-adv-x="1331" 
d="M1247 61q-136 251 -249 341t-289 90q-74 0 -142 -19l37 311q69 19 158 19q131 0 225 -54q14 60 14 130q0 118 -35 211h-634q-17 -43 -17 -95q0 -103 33 -185.5t105 -168.5l-220 -223q-149 179 -149 401q0 173 85 328t226 242h815l-38 -164q36 -108 36 -224
q0 -190 -107 -350q70 -80 139 -213.5t153 -345.5z" />
    <glyph glyph-name="uni0F61" unicode="&#xf61;" horiz-adv-x="1513" 
d="M1452 1389l-70 -299v-940l-155 30q-131 234 -231.5 324t-235.5 92q-87 -143 -268 -143q-155 0 -235.5 110t-80.5 309q0 124 23 218h-90l69 299h285q-146 -227 -146 -418q0 -209 185 -209q170 0 170 156q0 107 -86 172l69 299h232l-70 -299q17 -82 17 -154l-1 -41
q116 -23 207.5 -122t178.5 -291q-31 357 -95 608h-71l69 299h330z" />
    <glyph glyph-name="uni0F62" unicode="&#xf62;" horiz-adv-x="1296" 
d="M1212 109q-203 288 -365.5 381.5t-432.5 93.5q-184 0 -332 -41l74 313q105 37 282 37q63 0 121 -6v20q0 104 -41 183h-368l69 299h920l-70 -299h-340q8 -51 8 -101q0 -72 -15 -134q181 -58 326 -216t320 -504z" />
    <glyph glyph-name="uni0F63" unicode="&#xf63;" horiz-adv-x="1520" 
d="M1491 1389l-70 -299v-947l-155 37q-158 206 -283 283.5t-299 77.5q-74 0 -141 -25l32 311q71 25 158 25h11q6 41 6 82q0 88 -29 156h-372q-13 -55 -13 -111q0 -92 32 -168.5t101 -153.5l-215 -231q-91 92 -130.5 189.5t-39.5 220.5q0 171 93 319t255 234h500l-37 -158
q35 -90 35 -195q0 -108 -34 -210q113 -40 202.5 -144t176.5 -288q-23 404 -91 696h-82l69 299h320z" />
    <glyph glyph-name="uni0F64" unicode="&#xf64;" horiz-adv-x="1325" 
d="M1264 1389l-70 -299v-2085l-155 94q0 1011 -42 1500q-67 -114 -159.5 -177.5t-196.5 -63.5q-101 0 -168.5 49.5t-101.5 135.5h-8v-175q96 -90 198 -270l-198 -43q-81 66 -161 95.5t-173 29.5q-35 0 -70 -10l35 311q34 11 78 11q74 0 139 -25v432q0 221 131 355.5
t348 134.5h574zM977 796q-20 167 -41 294h-287q-138 0 -212 -56t-74 -151q0 -99 76.5 -158t222.5 -59q184 0 315 130z" />
    <glyph glyph-name="uni0F65" unicode="&#xf65;" horiz-adv-x="1325" 
d="M1366 170q-33 10 -69 10q-93 0 -173.5 -30t-160.5 -95l-199 43q100 177 199 271v174h-8q-34 -86 -101.5 -135.5t-169.5 -49.5q-103 0 -194.5 63t-158.5 176q-24 -284 -34 -657.5t-10 -934.5l-156 94v2290h504q217 0 348 -134.5t131 -355.5v-432q65 25 140 25q44 0 78 -11
zM676 1090h-287q-23 -150 -39 -295q130 -129 314 -129q146 0 222.5 59t76.5 158q0 95 -74.5 151t-212.5 56z" />
    <glyph glyph-name="uni0F66" unicode="&#xf66;" horiz-adv-x="1417" 
d="M1356 1389l-70 -299v-945l-156 35q-329 501 -710 830q-96 -83 -160 -162q265 -142 453 -457l-140 -43q-195 183 -428 236l-77 176q60 160 161 330h-133l70 299h698l-69 -299h-105q283 -352 450 -679q-18 396 -71 679h-70l70 299h287z" />
    <glyph glyph-name="uni0F67" unicode="&#xf67;" horiz-adv-x="1182" 
d="M498 -987l-90 137q249 453 363 732t114 503q0 136 -60.5 206.5t-173.5 70.5q-92 0 -160 -37q76 -109 152 -299l-141 -27q-99 131 -185.5 186t-226.5 80l-51 127q63 209 158 398h-95l70 299h946l-69 -299h-638q-94 -125 -167 -262q82 -31 147 -89q72 95 159.5 140
t199.5 45q201 0 316.5 -126t115.5 -339q0 -260 -156.5 -581t-527.5 -865z" />
    <glyph glyph-name="uni0F68" unicode="&#xf68;" horiz-adv-x="1731" 
d="M1669 1389l-70 -299v-961l-155 31q-379 587 -681 919q-77 -72 -132 -139q129 -12 205.5 -100.5t76.5 -245.5q0 -179 -97 -288t-253 -109q-196 0 -307 156t-111 440q0 151 17 297h-72l70 299h307q-82 -142 -126 -282.5t-44 -272.5q0 -172 79.5 -253t219.5 -81
q80 0 121 23.5t41 62.5q0 36 -44.5 57t-131.5 21q-36 0 -80 -11l-96 105q58 166 160 332h-79l70 299h631l-70 -299h-62q242 -360 395 -675q-12 190 -35 363.5t-54 311.5h-111l70 299h348z" />
    <glyph glyph-name="uni0F69" unicode="&#xf69;" horiz-adv-x="1501" 
d="M102 1096l69 293h1269l-68 -293v-865l-155 65q-12 310 -34.5 486.5t-68.5 313.5h-262q22 -181 22 -532l-157 68q-24 281 -123 464h-163q-7 -156 -51.5 -263t-143.5 -205l-156 242q92 51 138.5 102.5t55.5 123.5h-172zM1450 -550q-34 9 -70 9q-179 0 -333 -98l-185 36
q96 153 185 234v132h-9q-34 -79 -101.5 -125t-168.5 -46q-104 0 -198.5 60.5t-163.5 169.5q-27 -273 -35 -819l-156 86v1411h531q206 0 329 -117.5t123 -317.5v-340q67 24 141 24q47 0 78 -8zM801 214h-335q-24 -110 -39 -215q134 -116 321 -116q146 0 222.5 47t76.5 125
q0 74 -61.5 116.5t-184.5 42.5z" />
    <glyph glyph-name="uni0F6A" unicode="&#xf6a;" horiz-adv-x="1296" 
d="M1212 109q-203 288 -365.5 381.5t-432.5 93.5q-184 0 -332 -41l74 313q105 37 282 37q63 0 121 -6v20q0 104 -41 183h-368l69 299h920l-70 -299h-340q8 -51 8 -101q0 -72 -15 -134q181 -58 326 -216t320 -504z" />
    <glyph glyph-name="uni0F6B" unicode="&#xf6b;" horiz-adv-x="1485" 
d="M1401 1389l-70 -299h-110q0 -119 49.5 -205t152.5 -170l-155 -242q-112 128 -158.5 269.5t-46.5 347.5h-154q-103 -312 -125 -775l-155 68q0 458 22 707h-262q-57 -365 -79.5 -828.5t-22.5 -1256.5l-156 94v2290h1270z" />
    <glyph glyph-name="uni0F6C" unicode="&#xf6c;" horiz-adv-x="1278" 
d="M1114 547q-114 37 -254 37q-284 0 -454 -92t-381 -373l-97 133q167 276 311 411.5t314 187.5q-16 67 -16 138q0 50 8 101h-410l70 299h919l-69 -299h-299q-41 -79 -41 -183l1 -23q75 9 161 9q206 0 340 -68z" />
    <glyph glyph-name="uni0F71" unicode="&#xf71;" 
d="M-416.5 1395.5q24.5 -23.5 24.5 -64.5q0 -43 -23.5 -66.5t-68.5 -23.5q-42 0 -65 24t-23 66q0 41 23.5 64.5t64.5 23.5q43 0 67.5 -23.5zM-665 1299.5q24 -23.5 24 -66.5t-24 -66.5t-67 -23.5q-42 0 -65 24t-23 66t23 66t65 24q43 0 67 -23.5zM-167.5 1299.5
q23.5 -23.5 23.5 -66.5q0 -41 -24.5 -65.5t-65.5 -24.5t-65.5 24.5t-24.5 65.5q0 43 23.5 66.5t66.5 23.5t66.5 -23.5zM-753 1060q23 -23 23 -65q0 -43 -23 -66.5t-65 -23.5q-43 0 -66.5 23.5t-23.5 66.5q0 42 23.5 65t66.5 23q42 0 65 -23zM-79.5 928.5
q-23.5 -23.5 -66.5 -23.5t-66.5 23.5t-23.5 66.5q0 42 23.5 65t66.5 23t66.5 -23t23.5 -65q0 -43 -23.5 -66.5zM-797 689.5q-23 23.5 -23 66.5q0 42 23 66t65 24q43 0 67 -23.5t24 -66.5t-23.5 -66.5t-67.5 -23.5q-42 0 -65 23.5zM-167.5 822.5q23.5 -23.5 23.5 -66.5
t-23.5 -66.5t-66.5 -23.5t-66.5 23.5t-23.5 66.5t23.5 66.5t66.5 23.5t66.5 -23.5zM-392 657q0 -42 -24.5 -66t-67.5 -24q-42 0 -65 24t-23 66q0 43 23.5 67t64.5 24q92 0 92 -91zM-134 -401q-96 124 -179.5 172t-209.5 48q-41 0 -67 -6l36 264q38 8 79 8q94 0 162 -31
q5 30 5 57q0 69 -23 121h-408q-6 -22 -6 -52q0 -62 18.5 -112.5t59.5 -107.5l-196 -194q-79 122 -79 270q0 141 67.5 267.5t189.5 198.5h605l-42 -178q11 -44 11 -88q0 -139 -99 -256q92 -92 214 -342z" />
    <glyph glyph-name="uni0F72" unicode="&#xf72;" 
d="M-121 1454q-256 265 -412.5 375t-308.5 110q-137 0 -137 -65q0 -27 31 -42t83 -15q92 0 152 34l20 -221q-78 -104 -223 -104q-112 0 -171.5 72.5t-59.5 211.5q0 178 102.5 303t288.5 125q152 0 284.5 -125.5t409.5 -523.5z" />
    <glyph glyph-name="uni0F73" unicode="&#xf73;" 
d="M-477.5 1395.5q24.5 -23.5 24.5 -64.5q0 -43 -23.5 -66.5t-68.5 -23.5q-42 0 -65 24t-23 66q0 41 23.5 64.5t64.5 23.5q43 0 67.5 -23.5zM-726 1299.5q24 -23.5 24 -66.5t-24 -66.5t-67 -23.5q-42 0 -65 24t-23 66t23 66t65 24q43 0 67 -23.5zM-228.5 1299.5
q23.5 -23.5 23.5 -66.5q0 -41 -24.5 -65.5t-65.5 -24.5t-65.5 24.5t-24.5 65.5q0 43 23.5 66.5t66.5 23.5t66.5 -23.5zM-814 1060q23 -23 23 -65q0 -43 -23 -66.5t-65 -23.5q-43 0 -66.5 23.5t-23.5 66.5q0 42 23.5 65t66.5 23q42 0 65 -23zM-140.5 928.5
q-23.5 -23.5 -66.5 -23.5t-66.5 23.5t-23.5 66.5q0 42 23.5 65t66.5 23t66.5 -23t23.5 -65q0 -43 -23.5 -66.5zM-858 689.5q-23 23.5 -23 66.5q0 42 23 66t65 24q43 0 67 -23.5t24 -66.5t-23.5 -66.5t-67.5 -23.5q-42 0 -65 23.5zM-228.5 822.5q23.5 -23.5 23.5 -66.5
t-23.5 -66.5t-66.5 -23.5t-66.5 23.5t-23.5 66.5t23.5 66.5t66.5 23.5t66.5 -23.5zM-453 657q0 -42 -24.5 -66t-67.5 -24q-42 0 -65 24t-23 66q0 43 23.5 67t64.5 24q92 0 92 -91zM-195 -401q-96 124 -179.5 172t-209.5 48q-41 0 -67 -6l36 264q38 8 79 8q94 0 162 -31
q5 30 5 57q0 69 -23 121h-408q-6 -22 -6 -52q0 -62 18.5 -112.5t59.5 -107.5l-196 -194q-79 122 -79 270q0 141 67.5 267.5t189.5 198.5h605l-42 -178q11 -44 11 -88q0 -139 -99 -256q92 -92 214 -342zM-111 1454q-256 265 -412.5 375t-308.5 110q-137 0 -137 -65
q0 -27 31 -42t83 -15q92 0 152 34l20 -221q-78 -104 -223 -104q-112 0 -171.5 72.5t-59.5 211.5q0 178 102.5 303t288.5 125q152 0 284.5 -125.5t409.5 -523.5z" />
    <glyph glyph-name="uni0F74" unicode="&#xf74;" 
d="M-249.5 10q-30.5 21 -84.5 21q-108 0 -189 -60l-47 287q33 36 86 57t109 21q139 0 226 -101t87 -260q0 -189 -112 -304t-299 -115q-146 0 -274 59t-363 277.5t-394 343.5l111 100q161 -97 376 -244.5t337.5 -189t267.5 -41.5q91 0 142 27t51 67q0 34 -30.5 55z" />
    <glyph glyph-name="uni0F75" unicode="&#xf75;" 
d="M-575.5 1395.5q24.5 -23.5 24.5 -64.5q0 -43 -24 -66.5t-68 -23.5q-42 0 -65.5 23.5t-23.5 66.5q0 41 23.5 64.5t65.5 23.5q43 0 67.5 -23.5zM-824.5 1299.5q23.5 -23.5 23.5 -66.5t-23.5 -66.5t-66.5 -23.5q-42 0 -65 23.5t-23 66.5t23 66.5t65 23.5q43 0 66.5 -23.5z
M-327 1299.5q24 -23.5 24 -66.5q0 -41 -24.5 -65.5t-66.5 -24.5q-41 0 -65.5 24.5t-24.5 65.5q0 43 23.5 66.5t66.5 23.5t67 -23.5zM-912 1060q23 -23 23 -65t-23 -66t-65 -24q-43 0 -66.5 23.5t-23.5 66.5q0 42 23.5 65t66.5 23q42 0 65 -23zM-239 928.5
q-24 -23.5 -67 -23.5t-66.5 23.5t-23.5 66.5q0 42 23.5 65t66.5 23t67 -23t24 -65q0 -43 -24 -66.5zM-956 689.5q-23 23.5 -23 66.5t23 66.5t65 23.5q43 0 66.5 -23.5t23.5 -66.5t-23.5 -66.5t-66.5 -23.5q-42 0 -65 23.5zM-327 822.5q24 -23.5 24 -66.5t-23.5 -66.5
t-67.5 -23.5q-43 0 -66.5 23.5t-23.5 66.5t23.5 66.5t66.5 23.5t67 -23.5zM-575 724.5q24 -23.5 24 -67.5q0 -41 -24.5 -65.5t-67.5 -24.5q-42 0 -65.5 23.5t-23.5 66.5t23.5 67t65.5 24q44 0 68 -23.5zM-678.5 -983q-114.5 82 -312.5 368.5t-334 450.5l122 84
q142 -145 322 -352.5t283.5 -267.5t226.5 -60q79 0 122.5 27t43.5 67q0 34 -28.5 55t-79.5 21q-107 0 -182 -59l-47 287q53 61 147 74q-64 59 -130.5 83t-157.5 24q-41 0 -67 -6l36 264q40 8 80 8q95 0 161 -31q6 27 6 57q0 69 -23 121h-409q-6 -22 -6 -52q0 -63 18.5 -113
t60.5 -107l-196 -194q-80 121 -80 270q0 140 67.5 266.5t189.5 199.5h605l-41 -177q11 -44 11 -89q0 -140 -100 -256q45 -45 99 -130.5t116 -210.5q51 -49 79.5 -122.5t28.5 -161.5q0 -189 -103.5 -304.5t-277.5 -115.5q-136 0 -250.5 82z" />
    <glyph glyph-name="uni0F76" unicode="&#xf76;" 
d="M-509.5 1395.5q24.5 -23.5 24.5 -64.5q0 -43 -24 -66.5t-68 -23.5q-42 0 -65 24t-23 66q0 41 23.5 64.5t64.5 23.5q43 0 67.5 -23.5zM-758.5 1299.5q23.5 -23.5 23.5 -66.5t-23.5 -66.5t-66.5 -23.5q-42 0 -65 24t-23 66t23 66t65 24q43 0 66.5 -23.5zM-260.5 1299.5
q23.5 -23.5 23.5 -66.5q0 -41 -24.5 -65.5t-65.5 -24.5q-42 0 -66 24.5t-24 65.5q0 43 23.5 66.5t66.5 23.5t66.5 -23.5zM-846 1060q23 -23 23 -65t-23 -66t-65 -24q-43 0 -66.5 23.5t-23.5 66.5q0 42 23.5 65t66.5 23q42 0 65 -23zM-172.5 928.5q-23.5 -23.5 -66.5 -23.5
t-66.5 23.5t-23.5 66.5q0 42 23.5 65t66.5 23t66.5 -23t23.5 -65q0 -43 -23.5 -66.5zM-890 689.5q-23 23.5 -23 66.5q0 42 23 66t65 24q43 0 66.5 -23.5t23.5 -66.5t-23.5 -66.5t-66.5 -23.5q-42 0 -65 23.5zM-260.5 822.5q23.5 -23.5 23.5 -66.5t-23.5 -66.5t-66.5 -23.5
t-66.5 23.5t-23.5 66.5t23.5 66.5t66.5 23.5t66.5 -23.5zM-509 724.5q24 -23.5 24 -67.5q0 -41 -24.5 -65.5t-67.5 -24.5q-42 0 -65 24t-23 66q0 43 23.5 67t64.5 24q44 0 68 -23.5zM-61 502v-672l-156 35q-219 163 -374 228t-336 65q-104 0 -191 -21l37 299q71 21 166 21
q190 0 345.5 -88.5t352.5 -300.5v453zM-499 1610l61 241q57 -34 141 -34q105 0 105 51q0 31 -46.5 51t-133.5 20q-145 0 -294.5 -113t-383.5 -372l-60 135q266 379 418 514t320 135q165 0 256.5 -103.5t91.5 -252.5q0 -174 -75.5 -265t-217.5 -91q-120 0 -182 84z" />
    <glyph glyph-name="uni0F77" unicode="&#xf77;" 
d="M-1110 1589q266 379 418 514t320 135q165 0 256.5 -103.5t91.5 -252.5q0 -174 -75.5 -265t-217.5 -91q-57 0 -104 21t-78 63l61 241q57 -34 141 -34q50 0 77.5 13t27.5 38q0 31 -46.5 51t-133.5 20q-145 0 -294.5 -113t-383.5 -372zM-642 1265q-23 24 -23 66
q0 41 23.5 64.5t64.5 23.5q43 0 67.5 -23.5t24.5 -64.5q0 -43 -24 -66.5t-68 -23.5q-42 0 -65 24zM-890 1167q-23 24 -23 66t23 66t65 24q43 0 66.5 -23.5t23.5 -66.5t-23.5 -66.5t-66.5 -23.5q-42 0 -65 24zM-260.5 1299.5q23.5 -23.5 23.5 -66.5q0 -41 -24.5 -65.5
t-65.5 -24.5q-42 0 -66 24.5t-24 65.5q0 43 23.5 66.5t66.5 23.5t66.5 -23.5zM-977.5 1060q23.5 23 66.5 23q42 0 65 -23t23 -65t-23 -66t-65 -24q-43 0 -66.5 23.5t-23.5 66.5q0 42 23.5 65zM-305.5 1060q23.5 23 66.5 23t66.5 -23t23.5 -65q0 -43 -23.5 -66.5t-66.5 -23.5
t-66.5 23.5t-23.5 66.5q0 42 23.5 65zM-758.5 822.5q23.5 -23.5 23.5 -66.5t-23.5 -66.5t-66.5 -23.5q-42 0 -65 23.5t-23 66.5q0 42 23 66t65 24q43 0 66.5 -23.5zM-260.5 822.5q23.5 -23.5 23.5 -66.5t-23.5 -66.5t-66.5 -23.5q-44 0 -67 23t-23 67q0 43 23.5 66.5
t66.5 23.5t66.5 -23.5zM-642 591q-23 24 -23 66q0 43 23.5 67t64.5 24q44 0 68 -23.5t24 -67.5q0 -41 -24.5 -65.5t-67.5 -24.5q-42 0 -65 24zM-54 -947q-92 107 -168.5 148t-191.5 41q-24 0 -54 -5l34 242q31 7 69 7q88 0 153 -31q3 19 3 42q0 67 -26 116h-358
q-6 -23 -6 -51q0 -55 15.5 -98.5t52.5 -93.5l-187 -180q-35 56 -50.5 113t-15.5 121q0 134 65 253.5t183 187.5h319q-218 161 -371.5 227t-338.5 66q-104 0 -191 -21l37 299q70 21 166 21q192 0 347.5 -89.5t350.5 -299.5v453l156 -19v-637h65l-40 -168q9 -36 9 -74
q0 -66 -23.5 -123t-71.5 -111q46 -45 92 -116.5t102 -181.5z" />
    <glyph glyph-name="uni0F78" unicode="&#xf78;" 
d="M-678 1396q25 -23 25 -65q0 -43 -24 -66.5t-69 -23.5q-42 0 -65 24t-23 66q0 41 23.5 64.5t64.5 23.5q43 0 68 -23zM-926.5 1299.5q23.5 -23.5 23.5 -66.5t-23.5 -66.5t-66.5 -23.5q-42 0 -65 23.5t-23 66.5t23 66.5t65 23.5q43 0 66.5 -23.5zM-429.5 1299.5
q23.5 -23.5 23.5 -66.5q0 -41 -24 -65.5t-66 -24.5q-41 0 -65.5 24.5t-24.5 65.5q0 43 23.5 66.5t66.5 23.5t66.5 -23.5zM-1014 1060q23 -23 23 -65t-23 -66t-65 -24q-43 0 -66.5 23.5t-23.5 66.5q0 42 23.5 65t66.5 23q42 0 65 -23zM-341 928.5q-24 -23.5 -67 -23.5
t-66.5 23.5t-23.5 66.5q0 42 23.5 65t66.5 23t67 -23t24 -65q0 -43 -24 -66.5zM-1058 689.5q-23 23.5 -23 66.5t23 66.5t65 23.5q43 0 66.5 -23.5t23.5 -66.5t-23.5 -66.5t-66.5 -23.5q-42 0 -65 23.5zM-429.5 822.5q23.5 -23.5 23.5 -66.5q0 -44 -23 -67t-67 -23
q-43 0 -66.5 23.5t-23.5 66.5t23.5 66.5t66.5 23.5t66.5 -23.5zM-677 724.5q24 -23.5 24 -67.5q0 -41 -25 -65.5t-68 -24.5q-42 0 -65 24t-23 66q0 43 23.5 67t64.5 24q45 0 69 -23.5zM-31 502l-67 -290v-833l-156 34q-146 167 -263 231.5t-279 64.5q-66 0 -127 -19l33 300
q63 21 141 21h8q4 27 4 59q0 76 -26 142h-349q-10 -47 -10 -90q0 -81 30 -148.5t94 -135.5l-204 -227q-81 84 -116.5 173t-35.5 201q0 161 85.5 299t234.5 218h479l-36 -155q30 -85 30 -175q0 -98 -30 -187q100 -36 183.5 -126t162.5 -242q-20 330 -85 595h-76l68 290h307z
M-629 1610l61 241q57 -34 141 -34q105 0 105 51q0 31 -46.5 51t-133.5 20q-145 0 -294.5 -113t-383.5 -372l-60 135q266 379 418 514t320 135q165 0 256.5 -103.5t91.5 -252.5q0 -174 -75.5 -265t-217.5 -91q-120 0 -182 84z" />
    <glyph glyph-name="uni0F79" unicode="&#xf79;" 
d="M-1219 1589q266 379 418 514t320 135q165 0 256.5 -103.5t91.5 -252.5q0 -174 -75.5 -265t-217.5 -91q-57 0 -104 21t-78 63l61 241q57 -34 142 -34q49 0 76.5 13t27.5 38q0 31 -46.5 51t-133.5 20q-145 0 -294.5 -113t-383.5 -372zM-770 1265q-23 24 -23 66
q0 41 23.5 64.5t64.5 23.5q43 0 68 -23t25 -65q0 -43 -24 -66.5t-69 -23.5q-42 0 -65 24zM-1017 1166.5q-23 23.5 -23 66.5t23 66.5t65 23.5q43 0 66.5 -23.5t23.5 -66.5t-23.5 -66.5t-66.5 -23.5q-42 0 -65 23.5zM-388.5 1299.5q23.5 -23.5 23.5 -66.5q0 -41 -24 -65.5
t-66 -24.5q-41 0 -65.5 24.5t-24.5 65.5q0 43 23.5 66.5t66.5 23.5t66.5 -23.5zM-1104.5 1060q23.5 23 66.5 23q42 0 65 -23t23 -65t-23 -66t-65 -24q-43 0 -66.5 23.5t-23.5 66.5q0 42 23.5 65zM-433.5 1060q23.5 23 66.5 23t67 -23t24 -65q0 -43 -24 -66.5t-67 -23.5
t-66.5 23.5t-23.5 66.5q0 42 23.5 65zM-885.5 822.5q23.5 -23.5 23.5 -66.5t-23.5 -66.5t-66.5 -23.5q-42 0 -65 23.5t-23 66.5t23 66.5t65 23.5q43 0 66.5 -23.5zM-388.5 822.5q23.5 -23.5 23.5 -66.5t-23.5 -66.5t-66.5 -23.5t-66.5 23.5t-23.5 66.5t23.5 66.5t66.5 23.5
t66.5 -23.5zM-770 591q-23 24 -23 66q0 43 23.5 67t64.5 24q45 0 69 -23.5t24 -67.5q0 -41 -25 -65.5t-68 -24.5q-42 0 -65 24zM-51 -1396q-90 106 -166.5 147.5t-192.5 41.5q-31 0 -55 -5l34 242q31 7 70 7q89 0 152 -31q3 21 3 42q0 66 -25 116h-359q-6 -23 -6 -51
q0 -54 16 -97.5t53 -94.5l-187 -180q-35 56 -50.5 113t-15.5 121q0 134 64.5 254t182.5 187h317q-144 164 -259.5 228.5t-279.5 64.5q-30 0 -64 -5t-63 -14l33 300q63 21 141 21h8q4 27 4 59q0 76 -26 142h-349q-10 -47 -10 -90q0 -81 30 -148.5t94 -135.5l-204 -227
q-81 84 -116.5 173t-35.5 201q0 159 85 298t235 219h479l-36 -155q30 -85 30 -175q0 -98 -30 -187q100 -36 183.5 -126t162.5 -242q-10 166 -32.5 319.5t-52.5 275.5h-76l68 290h307l-67 -290v-796h65l-40 -168q9 -35 9 -73q0 -65 -23.5 -122.5t-71.5 -111.5q45 -45 91 -117
t102 -182z" />
    <glyph glyph-name="uni0F7A" unicode="&#xf7a;" 
d="M-1047 2200q63 28 152 28q130 0 229 -45t224 -166.5t380 -427.5l-59 -135q-298 259 -472.5 363t-346.5 104q-79 0 -154 -25z" />
    <glyph glyph-name="uni0F7B" unicode="&#xf7b;" 
d="M-121 1454q-297 123 -476.5 172t-344.5 49q-77 0 -154 -24l47 282q62 29 152 29q143 0 289.5 -74t364.5 -248q-188 211 -309.5 297t-242.5 86q-49 0 -88 -8l47 283q38 12 86 12q106 0 188 -50t188 -191.5t312 -479.5z" />
    <glyph glyph-name="uni0F7C" unicode="&#xf7c;" 
d="M-29 2154q-47 -122 -108.5 -197t-146.5 -110.5t-233.5 -52.5t-241.5 -31t-150 -84l20 -26l51 -64l-59 -135q-237 207 -393.5 297t-292.5 90q-78 0 -154 -24l47 303q63 28 152 28q130 0 250 -81.5t283 -271.5q54 150 141 216t277 76.5t295 42t165 139.5z" />
    <glyph glyph-name="uni0F7D" unicode="&#xf7d;" 
d="M-1688 2013l50 271q63 28 151 28q108 0 207 -70.5t256 -253.5q43 105 110.5 165.5t173 77.5t242.5 17t227.5 26t143.5 98l109 -101q-51 -107 -115.5 -170.5t-160 -93t-324.5 -35.5l-99 -4q-115 -8 -178.5 -45t-116.5 -127q-170 129 -287.5 185.5t-234.5 56.5
q-78 0 -154 -25zM-18 1944q-50 -110 -115 -175.5t-163 -98t-343 -38.5q-156 0 -239 -20l53 -49l-43 -109q-232 130 -392 187t-323 57q-79 0 -154 -25l51 271q64 28 152 28q133 0 251.5 -58t283.5 -196q58 106 155 146.5t298 42t286 32.5t133 105z" />
    <glyph glyph-name="uni0F7E" unicode="&#xf7e;" 
d="M-440 1557q-62 62 -62 163t62.5 163.5t162.5 62.5q101 0 163.5 -62.5t62.5 -163.5t-62.5 -163t-163.5 -62t-163 62zM-209.5 1653.5q25.5 25.5 25.5 66.5q0 42 -25.5 67t-67.5 25q-41 0 -66.5 -25t-25.5 -67q0 -41 25.5 -66.5t66.5 -25.5q42 0 67.5 25.5z" />
    <glyph glyph-name="uni0F7F" unicode="&#xf7f;" horiz-adv-x="819" 
d="M182.5 872q-80.5 81 -80.5 218q0 140 88 227.5t230 87.5q137 0 217 -81t80 -218q0 -140 -88 -227.5t-230 -87.5q-136 0 -216.5 81zM551 1047q0 74 -59 133t-134 59q-43 0 -66.5 -23.5t-23.5 -66.5q0 -75 59 -134t134 -59q90 0 90 91zM182.5 175q-80.5 81 -80.5 218
q0 141 88.5 228.5t229.5 87.5q137 0 217 -81t80 -218q0 -141 -88.5 -228.5t-229.5 -87.5q-136 0 -216.5 81zM528 283q23 23 23 67q0 75 -59 134t-134 59q-43 0 -66.5 -23.5t-23.5 -66.5q0 -76 58.5 -134.5t134.5 -58.5q44 0 67 23z" />
    <glyph glyph-name="uni0F80" unicode="&#xf80;" 
d="M-536 1610l61 241q57 -34 141 -34q105 0 105 51q0 31 -46.5 51t-133.5 20q-145 0 -294.5 -113t-383.5 -372l-60 135q266 379 418 514t320 135q165 0 256.5 -103.5t91.5 -252.5q0 -174 -75.5 -265t-217.5 -91q-120 0 -182 84z" />
    <glyph glyph-name="uni0F81" unicode="&#xf81;" 
d="M-505.5 1395.5q24.5 -23.5 24.5 -64.5q0 -43 -23.5 -66.5t-68.5 -23.5q-42 0 -65 24t-23 66q0 41 23.5 64.5t64.5 23.5q43 0 67.5 -23.5zM-754 1299.5q24 -23.5 24 -66.5t-24 -66.5t-67 -23.5q-42 0 -65 24t-23 66t23 66t65 24q43 0 67 -23.5zM-256.5 1299.5
q23.5 -23.5 23.5 -66.5q0 -41 -24.5 -65.5t-65.5 -24.5t-65.5 24.5t-24.5 65.5q0 43 23.5 66.5t66.5 23.5t66.5 -23.5zM-842 1060q23 -23 23 -65q0 -43 -23 -66.5t-65 -23.5q-43 0 -66.5 23.5t-23.5 66.5q0 42 23.5 65t66.5 23q42 0 65 -23zM-168.5 928.5
q-23.5 -23.5 -66.5 -23.5t-66.5 23.5t-23.5 66.5q0 42 23.5 65t66.5 23t66.5 -23t23.5 -65q0 -43 -23.5 -66.5zM-886 689.5q-23 23.5 -23 66.5q0 42 23 66t65 24q43 0 67 -23.5t24 -66.5t-23.5 -66.5t-67.5 -23.5q-42 0 -65 23.5zM-256.5 822.5q23.5 -23.5 23.5 -66.5
t-23.5 -66.5t-66.5 -23.5t-66.5 23.5t-23.5 66.5t23.5 66.5t66.5 23.5t66.5 -23.5zM-481 657q0 -42 -24.5 -66t-67.5 -24q-42 0 -65 24t-23 66q0 43 23.5 67t64.5 24q92 0 92 -91zM-223 -401q-96 124 -179.5 172t-209.5 48q-41 0 -67 -6l36 264q38 8 79 8q94 0 162 -31
q5 30 5 57q0 69 -23 121h-408q-6 -22 -6 -52q0 -62 18.5 -112.5t59.5 -107.5l-196 -194q-79 122 -79 270q0 141 67.5 267.5t189.5 198.5h605l-42 -178q11 -44 11 -88q0 -139 -99 -256q92 -92 214 -342zM-495 1610l61 241q57 -34 141 -34q105 0 105 51q0 31 -46.5 51
t-133.5 20q-145 0 -294.5 -113t-383.5 -372l-60 135q266 379 418 514t320 135q165 0 256.5 -103.5t91.5 -252.5q0 -174 -75.5 -265t-217.5 -91q-120 0 -182 84z" />
    <glyph glyph-name="uni0F82" unicode="&#xf82;" 
d="M-588 2054l-2 -24q0 -28 16 -45t45 -17q26 0 43 16.5t17 47.5q0 57 -56.5 133.5t-56.5 132.5q0 36 10 59h100q0 -56 78 -143.5t78 -175.5q0 -89 -56 -146t-145 -57q-91 0 -142.5 49.5t-51.5 128.5q0 23 6 41h117zM-826 1987q48 -129 124.5 -187.5t199.5 -58.5t199 58.5
t124 187.5l117 -68q-47 -209 -159 -316.5t-281 -107.5q-170 0 -281.5 107.5t-159.5 316.5z" />
    <glyph glyph-name="uni0F83" unicode="&#xf83;" 
d="M-666 1897q-62 62 -62 163q0 102 63.5 164t162.5 62q100 0 162.5 -62.5t62.5 -163.5t-62 -163t-163 -62q-102 0 -164 62zM-435.5 1993.5q25.5 25.5 25.5 66.5q0 42 -25.5 67t-66.5 25q-42 0 -67 -25t-25 -67q0 -41 25 -66.5t67 -25.5q41 0 66.5 25.5zM-826 1987
q48 -129 124.5 -187.5t199.5 -58.5t199 58.5t124 187.5l117 -68q-47 -209 -159 -316.5t-281 -107.5q-170 0 -281.5 107.5t-159.5 316.5z" />
    <glyph glyph-name="uni0F84" unicode="&#xf84;" 
d="M-184 -475q-176 122 -295.5 168.5t-228.5 46.5q-54 0 -95 -8l17 303q39 12 92 12q151 0 289 -102.5t344 -337.5z" />
    <glyph glyph-name="uni0F85" unicode="&#xf85;" horiz-adv-x="1202" 
d="M1077 -967q-291 331 -460.5 454.5t-352.5 123.5q-68 0 -114 -17l53 291q54 25 127 25q105 0 196 -40q148 121 209.5 212.5t61.5 191.5q0 118 -73.5 187t-205.5 69q-108 0 -108 -71q0 -66 129 -142l-183 -245q-137 104 -137 284q0 138 92.5 255.5t231.5 157.5
q94 77 94 181q0 81 -60.5 132t-175.5 51q-116 0 -116 -68q0 -58 118 -150l-202 -219q-119 109 -119 246q0 168 141.5 307.5t327.5 139.5q151 0 249.5 -90t98.5 -228q0 -170 -147 -295q140 -31 223.5 -138.5t83.5 -258.5q0 -154 -89.5 -291t-306.5 -304q103 -82 223.5 -232.5
t284.5 -399.5z" />
    <glyph glyph-name="uni0F86" unicode="&#xf86;" 
d="M-534.5 1877q30.5 65 97 153.5t66.5 160.5q0 49 -20 97h158q28 -56 28 -140q0 -116 -66.5 -232t-66.5 -175q0 -76 76 -76q35 0 53.5 19.5t18.5 54.5q0 26 -11 55h154q16 -40 16 -88q0 -106 -71 -168.5t-187 -62.5q-121 0 -198.5 72t-77.5 188q0 77 30.5 142z" />
    <glyph glyph-name="uni0F87" unicode="&#xf87;" 
d="M-55 2058v-549l-156 107q-10 283 -41 442l-65 176h327z" />
    <glyph glyph-name="uni0F88" unicode="&#xf88;" horiz-adv-x="1321" 
d="M801 986l411 -165l-55 -237h-1096l56 237l404 165l-412 165l55 238h1096l-56 -238zM659 1043l265 108h-535zM662 929l-265 -108h535z" />
    <glyph glyph-name="uni0F89" unicode="&#xf89;" horiz-adv-x="1454" 
d="M989 637l47 246q28 -19 68 -19q41 0 65.5 26t24.5 73q0 114 -104 114t-167.5 -120t-129.5 -404h-131q-69 295 -133.5 409.5t-163.5 114.5q-105 0 -105 -114q0 -47 24.5 -73t65.5 -26q40 0 68 19l47 -246q-49 -84 -146 -84q-110 0 -168.5 105t-58.5 288q0 205 71 324
t212 119q134 0 212.5 -114.5t139.5 -399.5q61 287 140 400.5t212 113.5q141 0 212 -119t71 -324q0 -183 -58.5 -288t-168.5 -105q-97 0 -146 84z" />
    <glyph glyph-name="uni0F8A" unicode="&#xf8a;" horiz-adv-x="1589" 
d="M1497 53l-237 101v1009h-152v-932h-627v932h-151v-1110l-238 101v1235h627v-932h151v932h627v-1336z" />
    <glyph glyph-name="uni0F8B" unicode="&#xf8b;" horiz-adv-x="1505" 
d="M1444 1090q-34 12 -68 12q-78 0 -116.5 -50.5t-38.5 -158.5q0 -131 30 -371q-156 66 -286 91.5t-293 25.5q-88 0 -162 -18l35 309q60 16 135 19l2 40q0 55 -18 101h-360q-13 -39 -13 -89q0 -77 34.5 -140.5t108.5 -127.5l-196 -211q-79 83 -112.5 171.5t-33.5 201.5
q0 150 81 282.5t222 211.5h512l-53 -230q8 -48 8 -92q0 -68 -13 -126q113 -17 207 -62q-9 90 -9 163q0 180 72.5 269.5t209.5 89.5q52 0 94 -12z" />
    <glyph glyph-name="uni0F8C" unicode="&#xf8c;" horiz-adv-x="1454" 
d="M866.5 667.5q-78.5 114.5 -139.5 399.5q-61 -287 -140 -400.5t-212 -113.5q-141 0 -212 119t-71 324q0 183 58.5 288t168.5 105q97 0 146 -84l-47 -246q-28 19 -68 19q-41 0 -65.5 -26t-24.5 -73q0 -114 104 -114t167.5 120t129.5 404h131q69 -295 133.5 -409.5
t163.5 -114.5q105 0 105 114q0 47 -24.5 73t-65.5 26q-40 0 -68 -19l-47 246q49 84 146 84q110 0 168.5 -105t58.5 -288q0 -205 -71 -324t-212 -119q-134 0 -212.5 114.5z" />
    <glyph glyph-name="uni0F8D" unicode="&#xf8d;" 
d="M-418 99l411 -165l-55 -237h-1096l56 237l404 165l-412 165l55 238h1096l-56 -238zM-560 156l265 108h-535zM-557 42l-265 -108h535z" />
    <glyph glyph-name="uni0F8E" unicode="&#xf8e;" 
d="M-465 -250l47 246q28 -19 68 -19q41 0 65.5 26t24.5 73q0 114 -104 114t-167.5 -120t-129.5 -404h-131q-69 295 -133.5 409.5t-163.5 114.5q-105 0 -105 -114q0 -47 24.5 -73t65.5 -26q40 0 68 19l47 -246q-49 -84 -146 -84q-110 0 -168.5 105t-58.5 288q0 205 71 324
t212 119q134 0 212.5 -114.5t139.5 -399.5q61 287 140 400.5t212 113.5q141 0 212 -119t71 -324q0 -183 -58.5 -288t-168.5 -105q-97 0 -146 84z" />
    <glyph glyph-name="uni0F8F" unicode="&#xf8f;" 
d="M-587.5 -219.5q-78.5 114.5 -139.5 399.5q-61 -287 -140 -400.5t-212 -113.5q-141 0 -212 119t-71 324q0 183 58.5 288t168.5 105q97 0 146 -84l-47 -246q-28 19 -68 19q-41 0 -65.5 -26t-24.5 -73q0 -114 104 -114t167.5 120t129.5 404h131q69 -295 133.5 -409.5
t163.5 -114.5q105 0 105 114q0 47 -24.5 73t-65.5 26q-40 0 -68 -19l-47 246q49 84 146 84q110 0 168.5 -105t58.5 -288q0 -205 -71 -324t-212 -119q-134 0 -212.5 114.5z" />
    <glyph glyph-name="uni0F90" unicode="&#xf90;" 
d="M-129 208v-1203l-156 72q-8 437 -30.5 686t-71.5 445h-217q21 -223 21 -633l-157 67q-24 341 -119 566h-131q-5 -177 -49 -299t-145 -232l-155 242q93 65 139 131t52 158h-166l69 294h1185z" />
    <glyph glyph-name="uni0F91" unicode="&#xf91;" 
d="M-164 203q51 -303 59 -708l-123 -53q-117 100 -242 144.5t-279 44.5l-70 -4l-90 121q48 222 133 455h-252q-28 -148 -41.5 -326t-19.5 -489l-156 66v1048h1151zM-260 -341q-26 282 -135 544h-168q-74 -122 -137 -269q244 -24 440 -275z" />
    <glyph glyph-name="uni0F92" unicode="&#xf92;" 
d="M-61 502l-64 -284v-1213l-156 72q-8 441 -27 691.5t-60 449.5h-211q44 -302 48 -624l-123 -53q-118 88 -243 127.5t-279 39.5l-75 -4l-90 121q46 202 120 393h-102l67 284h1195zM-681 -256q-24 244 -127 474h-205q-65 -97 -124 -219q250 -18 456 -255z" />
    <glyph glyph-name="uni0F93" unicode="&#xf93;" 
d="M-61 502l-62 -258v-611l-156 57q-13 210 -31.5 332t-50.5 222h-171q19 -139 22 -314l-123 -53q-183 51 -436 51l-78 -4l-90 121q33 96 86 199h-84l61 258h1113zM-975 244l-53 -58q207 -14 372 -145q-23 106 -94 203h-225zM-805 -1057l-32 131q177 58 232.5 92.5
t55.5 73.5q0 71 -152 71q-91 0 -152 -23q26 -33 58 -84l-124 -42q-61 33 -121 48.5t-150 20.5l-51 127q55 132 141 248h-100l62 259h803l-62 -259h-475q-103 -82 -180 -174q54 -18 99 -48q68 82 155.5 121t202.5 39q137 0 220 -65.5t83 -174.5q0 -137 -118.5 -213.5
t-394.5 -147.5z" />
    <glyph glyph-name="uni0F94" unicode="&#xf94;" 
d="M-150 -720q-163 194 -285.5 259.5t-311.5 65.5q-191 0 -375 -35l-113 137q35 246 110 503h-94l69 292h1003l-69 -292h-663q-89 -148 -157 -324q118 23 244 23q249 0 417.5 -123t374.5 -467z" />
    <glyph glyph-name="uni0F95" unicode="&#xf95;" 
d="M-794.5 -580q-110.5 75 -223 282t-182.5 303l153 87q67 -67 130 -98t137 -31q69 0 108.5 31t39.5 89q0 70 -40 130h-396l68 289h926l-67 -289h-351q7 -36 7 -81v-14q55 25 128 25q147 0 231.5 -100t84.5 -266q0 -197 -134.5 -314.5t-351.5 -117.5q-157 0 -267.5 75z
M-573.5 -163.5q-103.5 -19.5 -164.5 -19.5q-24 0 -42 6l-4 -8q99 -107 149.5 -151t108.5 -68t132 -24q85 0 134 39t49 105t-47.5 103t-144.5 37q-67 0 -170.5 -19.5z" />
    <glyph glyph-name="uni0F96" unicode="&#xf96;" 
d="M-565.5 -621.5q-74.5 47.5 -112.5 130.5q-38 -83 -112.5 -130.5t-181.5 -47.5q-160 0 -251.5 106t-91.5 284q0 181 91.5 284.5t256.5 103.5q123 0 211 -71q-6 93 -41 172h-389l68 292h962l-68 -292h-387q7 -78 9 -173q88 72 214 72q166 0 256.5 -103.5t90.5 -284.5
q0 -179 -91 -284.5t-252 -105.5q-107 0 -181.5 47.5zM-754 -241q-95 51 -224 51q-183 0 -183 -110q0 -61 49 -93.5t136 -32.5q105 0 163.5 46.5t58.5 122.5v16zM-602 -242v-15q0 -76 58.5 -122.5t163.5 -46.5q87 0 136 32.5t49 93.5q0 110 -183 110q-130 0 -224 -52z" />
    <glyph glyph-name="uni0F97" unicode="&#xf97;" 
d="M-156 -768q-164 153 -290 205.5t-326 52.5q-195 0 -381 -39l-92 135q51 314 141 625h-74l68 291h963l-68 -291h-683l-43 -102h675l-60 -249h-705l-34 -112q132 22 268 22q249 0 417.5 -103.5t379.5 -401.5z" />
    <glyph glyph-name="uni0F99" unicode="&#xf99;" 
d="M-597 -967l-64 136q169 196 236 311t67 213q0 104 -66 160.5t-191 56.5q-85 0 -127 -25.5t-42 -70.5q0 -90 176 -134l-163 -242q-226 77 -226 291q0 147 130.5 248.5t338.5 101.5q86 0 152 -13q14 31 14 70q0 49 -17 94h-499v-7q0 -57 55 -104l-213 -187q-47 58 -47 140
q0 245 286 430h629l-36 -154q22 -58 22 -118q0 -109 -64 -205q185 -90 185 -297q0 -164 -130 -329t-406 -366z" />
    <glyph glyph-name="uni0F9A" unicode="&#xf9a;" 
d="M-109 502q-51 -467 -77 -975l-153 78v88q-119 112 -292 112q-73 0 -112 -39.5t-39 -109.5q0 -87 62.5 -201.5t253.5 -365.5l-110 -56q-299 269 -395.5 411t-96.5 284q0 154 100 243.5t267 89.5q115 0 207.5 -42.5t152.5 -125.5l-9 322h-744l68 287h917z" />
    <glyph glyph-name="uni0F9B" unicode="&#xf9b;" 
d="M-97 -672q-178 27 -354 27q-181 0 -290.5 -42t-229.5 -149l-155 31v1307h759q125 -73 188.5 -170t63.5 -230q0 -85 -29.5 -156t-85.5 -119q142 -181 230 -366zM-909 215l-15 -100q167 -74 412 -74q123 0 181.5 37t58.5 101q0 18 -5 36h-632zM-280 -354q-64 59 -131 104
q-25 -4 -60 -4q-131 0 -257.5 58.5t-214.5 157.5q-31 -291 -34 -611q116 162 240.5 231.5t318.5 69.5q67 0 138 -6z" />
    <glyph glyph-name="uni0F9C" unicode="&#xf9c;" 
d="M-166 214q65 -207 103 -397l-134 -148q-161 31 -331 31q-220 0 -323 -57.5t-146.5 -199.5t-69.5 -438l-156 76q18 382 72.5 570t185 264.5t396.5 76.5q148 0 302 -20q-68 137 -146 242h-793l67 286h1086l-67 -286h-46z" />
    <glyph glyph-name="uni0F9D" unicode="&#xf9d;" 
d="M-152 244q54 -109 89 -215l-134 -148q-159 30 -322 30q-248 0 -351.5 -55.5t-135.5 -242.5l-155 64q34 271 171.5 377.5t429.5 106.5q139 0 293 -19q-50 57 -103 102h-775l62 258h1030l-62 -258h-37zM-570 -1156l-32 131q161 66 221 104.5t60 85.5q0 77 -147 77
q-90 0 -151 -26q30 -39 58 -89l-124 -39q-57 35 -115 51.5t-142 22.5l-52 127q56 132 142 251h-100l62 259h782l-61 -259h-456q-106 -87 -182 -178q56 -21 94 -49q128 161 350 161q135 0 217 -66.5t82 -178.5q0 -139 -118 -222t-388 -163z" />
    <glyph glyph-name="uni0F9E" unicode="&#xf9e;" 
d="M-751 -501.5q-107 51.5 -166 147.5q-116 -189 -158 -641l-143 81q18 347 77 558.5t160 323.5q12 133 70 255h-289l65 279h1045l-66 -279h-538q-43 -58 -72 -122q97 29 235 29q200 0 314.5 -94.5t114.5 -258.5q0 -155 -106 -242.5t-294 -87.5q-142 0 -249 51.5zM-796 -226
q29 -88 105.5 -133.5t188.5 -45.5q104 0 156.5 31.5t52.5 89.5q0 59 -54.5 91.5t-163.5 32.5q-184 0 -285 -66z" />
    <glyph glyph-name="uni0F9F" unicode="&#xf9f;" 
d="M-644 -967l-52 142q181 228 246 341.5t65 202.5q0 67 -45.5 104.5t-130.5 37.5q-161 0 -271 -81v-110l-153 73q-25 381 -78 759h995l-65 -277h-689l-7 -268q122 160 359 160q170 0 272 -88.5t102 -241.5q0 -146 -111 -302t-437 -452z" />
    <glyph glyph-name="uni0FA0" unicode="&#xfa0;" 
d="M-62 502l-67 -287v-1051l-156 31q-119 90 -228 125t-291 35q-175 0 -355 -27l-96 133q90 190 230 366q-56 48 -86 119t-30 156q0 133 63.5 230t188.5 170h827zM-346 215h-632q-5 -18 -5 -36q0 -64 58.5 -101t181.5 -37q245 0 412 74zM-279 -627q-5 318 -33 589
q-88 -99 -215 -157.5t-257 -58.5q-35 0 -60 4q-67 -45 -131 -104q69 6 137 6q190 0 315.5 -64t243.5 -215z" />
    <glyph glyph-name="uni0FA1" unicode="&#xfa1;" 
d="M-199 -917q-22 276 -65 411.5t-136 188.5t-285 53q-187 0 -364 -31l-133 148q38 183 94 364h-77l67 285h1004l-67 -285h-692q-69 -97 -126 -212q178 21 335 21q239 0 359.5 -87t173 -302t68.5 -630z" />
    <glyph glyph-name="uni0FA2" unicode="&#xfa2;" 
d="M-681 -1151l-33 131q175 78 234.5 122t59.5 94q0 82 -153 82q-89 0 -153 -25q27 -35 62 -93l-124 -41q-61 37 -121.5 54.5t-152.5 24.5l-51 127q53 128 142 255h-100l62 260h783q-52 38 -145 55t-247 17q-218 0 -431 -31l-133 148q37 110 90 215h-73l61 258h1010
l-62 -258h-715q-65 -54 -112 -109q208 27 405 27q245 0 372.5 -96.5t162.5 -309.5l-156 62l-10 9l-59 -247h-475q-107 -90 -180 -180q54 -20 99 -51q68 83 155 122.5t201 39.5q140 0 223 -68.5t83 -182.5q0 -143 -121 -231.5t-398 -179.5z" />
    <glyph glyph-name="uni0FA3" unicode="&#xfa3;" 
d="M-287 -971q-37 438 -135 621q-59 -98 -165 -150.5t-247 -52.5q-177 0 -276.5 88.5t-99.5 250.5q0 164 115 257t316 93q119 0 204 -26q-23 53 -66 115h-524l65 277h1010l-65 -277h-275q55 -119 69 -251q108 -125 165.5 -370.5t64.5 -654.5zM-542 -211q-91 59 -256 59
q-107 0 -164 -34.5t-57 -92.5q0 -60 46.5 -92.5t138.5 -32.5q113 0 189 48.5t103 144.5z" />
    <glyph glyph-name="uni0FA4" unicode="&#xfa4;" 
d="M-62 502l-67 -287v-809l-156 31q-122 154 -238 215t-319 61q-175 0 -331 -25l-113 104q35 205 102 423h-86l67 287h436l-67 -287h-130q-70 -93 -131 -223q117 19 210 19q208 0 342 -81.5t255 -272.5q-27 332 -90 558h-77l66 287h327z" />
    <glyph glyph-name="uni0FA5" unicode="&#xfa5;" 
d="M-62 502l-67 -287v-809l-156 31q-122 154 -238 215t-319 61q-175 0 -331 -25l-113 104q35 205 102 423h-86l67 287h436l-67 -287h-130q-70 -93 -131 -223q117 19 210 19q70 0 132 -9q150 125 356 213h-27l67 287h295zM-288 -343q-20 247 -60 435q-130 -58 -242 -138
q160 -75 302 -297z" />
    <glyph glyph-name="uni0FA6" unicode="&#xfa6;" 
d="M-62 502l-67 -287v-809l-156 31q-122 154 -238 215t-319 61q-175 0 -331 -25l-113 104q35 205 102 423h-86l67 287h1141zM-288 -343q-27 332 -90 558h-586q-70 -93 -131 -223q117 19 210 19q208 0 342 -81.5t255 -272.5z" />
    <glyph glyph-name="uni0FA7" unicode="&#xfa7;" 
d="M-62 502l-59 -254v-432l-155 30q-126 43 -240.5 58t-293.5 15q-152 0 -314 -20l-113 108q31 121 84 241h-68l59 254h1100zM-277 -15q-19 161 -64 263h-619q-46 -39 -88 -86q103 18 197 18q190 0 321 -43.5t253 -151.5zM-753 -1161l-34 131q169 76 232 123.5t63 97.5
q0 84 -153 84q-90 0 -153 -26q27 -35 62 -93l-124 -41q-61 38 -121.5 55.5t-151.5 24.5l-51 127q53 131 142 256h-100l62 260h802l-61 -260h-476q-108 -91 -180 -181q57 -21 100 -51q131 162 355 162q141 0 224 -69t83 -183q0 -143 -119.5 -232.5t-400.5 -184.5z" />
    <glyph glyph-name="uni0FA8" unicode="&#xfa8;" 
d="M-61 502l-68 -291v-903l-156 30q-242 251 -377 351q-38 -121 -130 -186t-225 -65q-148 0 -234 86.5t-86 236.5q0 166 92.5 257t261.5 91q55 0 109 -12q-29 59 -69 114h-332l68 291h631l-68 -291h-70q50 -112 66 -232q154 -125 371 -426q-27 382 -104 658h-71l68 291h323z
M-817 -222q-82 32 -177 32q-80 0 -122 -28.5t-42 -82.5q0 -50 36.5 -80t100.5 -30q84 0 137.5 48.5t66.5 140.5z" />
    <glyph glyph-name="uni0FA9" unicode="&#xfa9;" 
d="M-141 213h-351q7 -36 7 -81v-14q55 25 128 25q147 0 231.5 -100t84.5 -266q0 -197 -134.5 -314.5t-351.5 -117.5q-157 0 -267.5 75t-223 282t-182.5 303l153 87q67 -67 130 -98t137 -31q69 0 108.5 31t39.5 89q0 70 -40 130h-396l68 289h863q12 171 12 372q233 0 361 64
l-37 -268q-116 -79 -260 -86q-3 -38 -13 -82zM-780 -177l-4 -8q99 -107 149.5 -151t108.5 -68t132 -24q85 0 134 39t49 105t-47.5 103t-144.5 37q-67 0 -170.5 -19.5t-164.5 -19.5q-24 0 -42 6z" />
    <glyph glyph-name="uni0FAA" unicode="&#xfaa;" 
d="M-611 210q7 -78 9 -173q88 72 214 72q166 0 256.5 -103.5t90.5 -284.5q0 -179 -91 -284.5t-252 -105.5q-107 0 -181.5 47.5t-112.5 130.5q-38 -83 -112.5 -130.5t-181.5 -47.5q-160 0 -251.5 106t-91.5 284q0 181 91.5 284.5t256.5 103.5q123 0 211 -71q-6 93 -41 172
h-389l68 292h899q12 171 12 372q233 0 361 64l-37 -268q-116 -79 -260 -86q-3 -38 -13 -82l-68 -292h-387zM-754 -241q-95 51 -224 51q-183 0 -183 -110q0 -61 49 -93.5t136 -32.5q105 0 163.5 46.5t58.5 122.5v16zM-602 -257q0 -76 58.5 -122.5t163.5 -46.5q87 0 136 32.5
t49 93.5q0 110 -183 110q-130 0 -224 -52v-15z" />
    <glyph glyph-name="uni0FAB" unicode="&#xfab;" 
d="M-898 211l-43 -102h675l-60 -249h-705l-34 -112q132 22 268 22q249 0 417.5 -103.5t379.5 -401.5l-156 -33q-164 153 -290 205.5t-326 52.5q-195 0 -381 -39l-92 135q51 314 141 625h-74l68 291h899q12 171 12 372q233 0 361 64l-37 -268q-116 -79 -260 -86
q-3 -44 -12 -82l-68 -291h-683z" />
    <glyph glyph-name="uni0FAC" unicode="&#xfac;" 
d="M-962 273q-25 -42 -48 -84h675l-46 -193h-722q-21 -46 -40 -97q147 26 289 26q243 0 410.5 -51.5t377.5 -200.5l-145 -46q-162 45 -287.5 61t-326.5 16q-89 0 -198 -10.5t-200 -28.5l-87 127q54 249 145 481h-73l53 229h909q12 167 12 362q126 0 211 15.5t149 47.5
l-35 -252q-56 -38 -119.5 -60t-140.5 -26q-6 -54 -14 -87l-53 -229h-696zM-684 -1437l-33 126q202 73 284 119.5t82 99.5q0 43 -49.5 65.5t-149.5 22.5q-106 0 -178 -18q46 -43 89 -96l-119 -51q-87 38 -168 54.5t-218 24.5l-49 121q59 136 149 260h-99l60 250h933l-59 -250
h-614q-104 -88 -175 -178q84 -18 148 -51q79 81 177.5 119t227.5 38q159 0 251 -69t92 -182q0 -141 -133.5 -226t-448.5 -179z" />
    <glyph glyph-name="uni0FAD" unicode="&#xfad;" 
d="M-131 502v-1131l-156 31q-182 156 -447 278v130q72 67 199 142t248 121v429h156zM-287 -89q-91 -36 -180 -91q89 -76 180 -190v281z" />
    <glyph glyph-name="uni0FAE" unicode="&#xfae;" 
d="M-269 -374q-118 -118 -315 -118q-160 0 -257 85t-97 231q0 154 100.5 241t270.5 87q142 0 242 -66q-21 81 -70 158h-577q-99 -145 -99 -338q0 -106 35.5 -193t113.5 -176l-206 -215q-86 109 -124 221.5t-38 237.5q0 219 107 414.5t286 306.5h735l-45 -192
q74 -148 74 -302q0 -75 -14 -143q126 -273 127 -832l-156 70q-25 343 -93 523zM-355 -219q-87 102 -233 102q-80 0 -122 -28t-42 -78q0 -51 42.5 -81t125.5 -30q158 0 229 115z" />
    <glyph glyph-name="uni0FAF" unicode="&#xfaf;" 
d="M-61 502l-70 -299v-783l-156 37q-159 45 -285.5 62t-293.5 17q-109 0 -232 -30l66 281q117 27 248 27q149 0 267.5 -41t239.5 -136l-11 152q-66 49 -161.5 70t-250.5 21h-311l60 251h306q240 0 335 -130q-13 103 -30 202h-722l69 299h932z" />
    <glyph glyph-name="uni0FB0" unicode="&#xfb0;" 
d="M-147 -571q-115 173 -213 237.5t-246 64.5q-51 0 -98 -11l35 286q53 11 111 11q111 0 188 -38q10 43 10 91q0 85 -26 150h-514q-10 -30 -10 -72q0 -79 23.5 -142t76.5 -131l-201 -206q-108 147 -108 329q0 155 75 290.5t202 213.5h709l-42 -179q19 -68 19 -135
q0 -159 -102 -291q61 -62 121.5 -164.5t134.5 -267.5z" />
    <glyph glyph-name="uni0FB1" unicode="&#xfb1;" 
d="M-76 74q-242 -280 -345.5 -372.5t-187 -131.5t-176.5 -39q-222 0 -367 166.5t-282 591.5l168 63q137 -104 243.5 -145t225.5 -41q107 0 204 45.5t194 148.5v142h155v-172q-137 -180 -267.5 -257t-285.5 -77q-125 0 -232 51t-229 162l-12 -6q104 -195 217 -277t268 -82
q141 0 271 74.5t410 327.5z" />
    <glyph glyph-name="uni0FB2" unicode="&#xfb2;" 
d="M-61 502v-672l-156 35q-218 161 -373.5 227t-337.5 66q-103 0 -190 -21l37 299q70 21 166 21q190 0 345.5 -88.5t352.5 -300.5v453z" />
    <glyph glyph-name="uni0FB3" unicode="&#xfb3;" 
d="M-28 502l-68 -290v-833l-156 34q-146 167 -263 231.5t-279 64.5q-66 0 -127 -19l33 300q63 21 141 21h8q4 27 4 59q0 76 -26 142h-348q-10 -40 -10 -90q0 -82 29.5 -149t93.5 -135l-204 -227q-81 84 -116.5 173t-35.5 201q0 161 85.5 299t234.5 218h479l-36 -155
q30 -85 30 -175q0 -98 -30 -187q100 -36 183.5 -126t162.5 -242q-20 330 -85 595h-76l68 290h308z" />
    <glyph glyph-name="uni0FB4" unicode="&#xfb4;" 
d="M-62 502l-67 -288v-1209l-156 72q-7 467 -30 730q-64 -110 -150 -171t-182 -61q-180 0 -246 167h-9v-137q87 -82 181 -242l-185 -39q-76 55 -150 79.5t-161 24.5q-34 0 -63 -8l32 294q28 9 70 9q71 0 130 -23v360q0 202 120 322t321 120h545zM-335 -13q-16 119 -40 227
h-286q-117 0 -178 -45.5t-61 -122.5q0 -82 69 -131t201 -49q171 0 295 121z" />
    <glyph glyph-name="uni0FB5" unicode="&#xfb5;" 
d="M0 -580q-34 8 -62 8q-88 0 -162.5 -24.5t-150.5 -79.5l-186 38q93 161 179 242v134h-8q-68 -169 -246 -169q-96 0 -182 59t-150 167q-24 -277 -31 -790l-156 86v1411h487q199 0 317 -121.5t118 -324.5v-354q60 22 129 22q44 0 71 -9zM-619 212h-290q-24 -118 -39 -233
q124 -115 293 -115q133 0 202.5 49t69.5 131q0 77 -60 122.5t-176 45.5z" />
    <glyph glyph-name="uni0FB6" unicode="&#xfb6;" 
d="M-62 502l-69 -291v-850l-152 35q-315 439 -682 732q-77 -68 -136 -139q250 -132 430 -412l-138 -41q-187 155 -407 199l-72 166q61 162 146 310h-120l68 291h659l-68 -291h-105q270 -307 434 -604q-18 354 -71 604h-69l68 291h284z" />
    <glyph glyph-name="uni0FB7" unicode="&#xfb7;" 
d="M-602 -1043l-54 133q216 237 300 371t84 246q0 165 -190 165q-94 0 -163 -33q50 -65 103 -167l-130 -40q-79 73 -153.5 107t-193.5 48l-51 127q60 167 150 315h-101l65 273h885l-65 -273h-561q-103 -106 -176 -218q71 -24 128 -68q72 88 161 130t205 42q164 0 261 -91
t97 -247q0 -193 -139 -374t-462 -446z" />
    <glyph glyph-name="uni0FB8" unicode="&#xfb8;" 
d="M-61 502l-70 -299v-858l-156 30q-381 531 -683 828h-7q-52 -42 -111 -99q125 -13 198 -96t73 -227q0 -165 -92.5 -267t-245.5 -102q-200 0 -312 146.5t-112 413.5q0 119 10 231h-71l69 299h302q-158 -262 -158 -492q0 -154 81 -226t224 -72q74 0 111.5 17t37.5 45
q0 26 -43 41.5t-128 15.5q-46 0 -87 -11l-94 102q56 143 147 281h-65l69 299h631l-69 -299h-47q231 -314 380 -592q-25 354 -85 592h-115l69 299h349z" />
    <glyph glyph-name="uni0FB9" unicode="&#xfb9;" 
d="M-1193 205l69 297h1054l-69 -297v-654l-156 61q-14 228 -36 361.5t-66 231.5h-145q15 -139 15 -386l-159 67q-22 203 -114 319h-90q-18 -126 -58.5 -211.5t-122.5 -161.5l-156 242q80 28 120 58.5t59 72.5h-145zM-61 -944q-18 5 -52 5q-87 0 -156 -11.5t-143 -41.5
l-168 29q81 114 152 177v30h-9q-65 -131 -222 -131q-92 0 -173.5 46t-140.5 130q-16 -114 -28 -284l-156 58v753h503q173 0 274 -90.5t101 -251.5v-170q57 21 128 21q36 0 63 -5zM-590 -455h-318q-19 -46 -34 -101q111 -63 265 -63q123 0 186 24t63 65q0 75 -162 75z" />
    <glyph glyph-name="uni0FBA" unicode="&#xfba;" 
d="M-113 58l-67 -282v-687l-156 29q-102 116 -198 161t-258 45q-122 0 -242 -24l-129 122q34 180 96 354h-80l67 282h179q10 29 10 62q0 51 -21 93h-321v-14q0 -54 20.5 -99t63.5 -91l-193 -206q-45 63 -64 128t-19 148q0 242 252 423h474l-35 -150q20 -60 20 -124
q0 -87 -37 -170h310q-34 87 -102 163l69 281q256 0 390 63l-37 -258q-87 -66 -217 -78q31 -73 47 -171h178zM-340 -662q-22 243 -74 438h-444q-65 -79 -120 -177q75 15 153 15q164 0 275.5 -65t209.5 -211z" />
    <glyph glyph-name="uni0FBB" unicode="&#xfbb;" 
d="M-61 502l-68 -291v-846l-156 31q-130 200 -231 278.5t-236 81.5q-87 -133 -268 -133q-155 0 -234.5 102t-79.5 289q0 109 21 197h-90l68 291h270q-129 -203 -129 -379q0 -104 49 -151.5t144 -47.5q165 0 165 138q0 95 -90 149l68 291h232l-68 -291q16 -69 16 -141v-23
q117 -22 210 -116t181 -272q-27 315 -92 552h-76l68 291h326z" />
    <glyph glyph-name="uni0FBC" unicode="&#xfbc;" 
d="M-156 -778q-203 288 -365.5 381.5t-433.5 93.5q-182 0 -332 -41l74 313q107 37 283 37q62 0 121 -6v20q0 104 -41 183h-369l70 299h919l-69 -299h-340q8 -51 8 -101q0 -74 -16 -134q181 -57 328 -218t319 -502z" />
    <glyph glyph-name="uni0FBE" unicode="&#xfbe;" horiz-adv-x="1552" 
d="M942 694l557 -557l-166 -166l-557 557l-557 -557l-166 166l557 557l-557 557l166 166l557 -557l557 557l166 -166z" />
    <glyph glyph-name="uni0FBF" unicode="&#xfbf;" horiz-adv-x="1552" 
d="M942 694l557 -557l-166 -166l-557 557l-557 -557l-166 166l557 557l-557 557l166 166l557 -557l557 557l166 -166zM877.5 1306q42.5 -42 42.5 -102q0 -59 -42 -101t-102 -42t-101.5 42t-41.5 101q0 60 42 102t101 42t101.5 -42zM165 796q42 42 101 42t101.5 -42
t42.5 -102q0 -59 -42 -101t-102 -42t-101.5 42t-41.5 101q0 60 42 102zM1388 593q-42 -42 -102 -42t-101.5 42t-41.5 101q0 60 42 102t101 42t101.5 -42t42.5 -102q0 -59 -42 -101zM674.5 83q-41.5 42 -41.5 101q0 60 42 102t101 42t101.5 -42t42.5 -102q0 -59 -42 -101
t-102 -42t-101.5 42z" />
    <glyph glyph-name="uni0FC0" unicode="&#xfc0;" horiz-adv-x="1577" 
d="M1300 1085q195 -150 195 -393t-194.5 -392.5t-512.5 -149.5q-315 0 -510.5 149.5t-195.5 392.5q0 240 193 391.5t513 151.5q317 0 512 -150zM394 967q-148 -104 -148 -275q0 -170 149.5 -274.5t392.5 -104.5q244 0 393.5 104t149.5 275t-148.5 275t-394.5 104t-394 -104z
" />
    <glyph glyph-name="uni0FC1" unicode="&#xfc1;" horiz-adv-x="1171" 
d="M952.5 973q137.5 -108 137.5 -281t-137.5 -281t-366.5 -108t-366.5 108t-137.5 281q0 175 138.5 282t365.5 107q229 0 366.5 -108zM339.5 856q-93.5 -62 -93.5 -164t93 -163.5t247 -61.5t247 61.5t93 163.5t-93.5 164t-246.5 62t-246.5 -62z" />
    <glyph glyph-name="uni0FC2" unicode="&#xfc2;" horiz-adv-x="1577" 
d="M335 610q-89 -6 -89 -127q0 -141 130.5 -256t302.5 -124q18 26 47 41.5t62 15.5q55 0 94.5 -39t39.5 -94t-39.5 -94t-94.5 -39q-33 0 -62.5 15.5t-47.5 42.5q-238 11 -417 170t-179 361q0 128 70 208t183 83q29 164 157.5 271.5t295.5 107.5q168 0 296.5 -108t157.5 -271
q89 6 89 127q0 141 -130.5 255.5t-302.5 124.5q-41 -56 -110 -56q-54 0 -93.5 39t-39.5 94q0 54 39 93.5t94 39.5q70 0 111 -58q239 -11 417.5 -170t178.5 -362q0 -128 -70 -208t-183 -83q-29 -164 -157.5 -271.5t-296.5 -107.5q-167 0 -295.5 108t-157.5 271zM579 902
q-87 -87 -87 -210t87 -210t209 -87q123 0 210 87t87 210t-87 210t-210 87q-122 0 -209 -87z" />
    <glyph glyph-name="uni0FC3" unicode="&#xfc3;" horiz-adv-x="1659" 
d="M302.5 165.5q-220.5 220.5 -220.5 526.5q0 307 220.5 527.5t526.5 220.5q307 0 527.5 -220.5t220.5 -527.5q0 -306 -220.5 -526.5t-527.5 -220.5q-306 0 -526.5 220.5zM417.5 1104q-171.5 -172 -171.5 -412q0 -218 144.5 -383t357.5 -194v123q-164 29 -271.5 157.5
t-107.5 296.5q0 189 135 325t325 136t325.5 -135.5t135.5 -325.5q0 -168 -108 -296.5t-271 -157.5v-123q214 31 358 195.5t144 381.5q0 240 -172 412t-412 172t-411.5 -172zM748 692h163v-286q95 28 155 106.5t60 179.5q0 123 -87 210t-210 87t-210 -87.5t-87 -209.5
q0 -99 60.5 -179t155.5 -107v286z" />
    <glyph glyph-name="uni0FC4" unicode="&#xfc4;" horiz-adv-x="1171" 
d="M1141 -66q0 -110 -151 -177.5t-404 -67.5t-404 67.5t-151 177.5q79 56 110.5 121t54.5 169.5t28.5 215.5t37.5 191t87 131.5t132 72.5q-45 47 -45 107q0 55 38 100q-52 39 -117.5 53.5t-151.5 14.5h-23v131h21q52 0 108 -4q33 71 89.5 123t119.5 70v92h131v-92
q64 -18 120.5 -70t89.5 -123q56 4 108 4h20v-131h-22q-87 0 -152.5 -15t-117.5 -54q38 -41 38 -99q0 -60 -45 -107q77 -21 132.5 -72.5t87 -130t37 -188.5t28.5 -218t54 -172.5t112 -119.5zM444 1206q42 -18 76 -41v119q-47 -25 -76 -78zM651 1165q35 24 77 41
q-32 53 -77 78v-119zM612 916.5q11 11.5 11 25.5t-11 25.5t-26 11.5t-26 -11t-11 -26q0 -14 11 -25.5t26 -11.5t26 11.5zM419 640q48 -17 167 -17t167 17q-57 77 -167 77t-167 -77zM799 539q-70 -29 -213 -29t-213 29q-9 -32 -12 -67q25 -13 87 -21.5t138 -8.5q75 0 137 9
t88 21q-4 35 -12 67zM286 51q33 -19 120 -34t180 -15t180 15t120 34q-50 149 -66 308q-84 -29 -234 -29t-235 29q-14 -145 -54 -271zM977 -104q-29 32 -44 57q-109 -64 -347 -64q-236 0 -347 63q-16 -24 -44 -56q51 -33 159.5 -53.5t231.5 -20.5t231 20.5t160 53.5z" />
    <glyph glyph-name="uni0FC5" unicode="&#xfc5;" horiz-adv-x="1032" 
d="M920 115v-131h-21q-53 0 -107 4q-34 -71 -90.5 -123t-119.5 -70v-92h-131v92q-63 18 -120 70t-91 123q-54 -4 -106 -4h-21v131h27q96 0 167.5 20t126.5 72q-152 29 -252 150t-100 276q0 154 99.5 274.5t251.5 151.5q-55 52 -126.5 72t-166.5 20h-27v131h21q51 0 107 -4
q33 71 90 123t120 69v93h131v-93q63 -17 119.5 -69t89.5 -123q56 4 108 4h21v-131h-27q-96 0 -167.5 -20t-125.5 -72q152 -31 251 -152t99 -274q0 -155 -99.5 -276t-251.5 -150q54 -52 125.5 -72t167.5 -20h28zM374 1247q42 -17 77 -41v119q-46 -27 -77 -78zM582 1206
q34 23 76 41q-29 50 -76 78v-119zM211 705q64 53 149 53q88 0 168 -62q51 22 73 53t22 80q0 52 -29.5 84.5t-77.5 32.5q-107 0 -194.5 -69.5t-110.5 -171.5zM569.5 878.5q22.5 -22.5 22.5 -53.5t-22.5 -53t-53.5 -22t-53.5 22t-22.5 53t22.5 53.5t53.5 22.5t53.5 -22.5z
M733 829q0 -83 -41 -140.5t-127 -94.5l-2 -31q0 -63 36 -101t95 -38q70 0 102.5 68.5t32.5 140.5q0 65 -26 124.5t-72 102.5zM604 332q-67 25 -108 88t-41 143l2 49q-43 35 -95 35q-56 0 -94.5 -33t-38.5 -82q0 -59 83 -136t204 -77q41 0 88 13zM295 483q-23 22 -23 54
t22.5 53.5t55.5 21.5q31 0 53.5 -22t22.5 -53t-22.5 -53.5t-53.5 -22.5q-32 0 -55 22zM737 483q-23 -22 -55 -22q-31 0 -53.5 22.5t-22.5 53.5t22.5 53t53.5 22q33 0 55.5 -21.5t22.5 -53.5t-23 -54zM451 59q-43 -27 -77 -40q31 -53 77 -78v118zM658 19q-40 15 -76 40v-118
q47 25 76 78z" />
    <glyph glyph-name="uni0FC6" unicode="&#xfc6;" 
d="M-148 -596q60 -36 150 -45l-12 -113q-158 16 -259 109l-39 -7q61 -64 163 -98l-39 -106q-81 28 -145 76t-102 109q-40 -17 -84 -17q28 -89 89 -150l-88 -73q-87 101 -119 219q-55 -16 -117 -19v-211h-110v211q-62 3 -117 19q-32 -118 -119 -219l-88 73q58 55 90 150
q-43 0 -85 17q-81 -127 -246 -185l-39 106q101 34 162 98l-39 7q-100 -92 -258 -109l-13 113q91 9 150 45q-90 57 -134 171t-62.5 239.5t-55.5 158.5q22 15 57 15q70 0 121 -56t98 -155q37 78 135 168q72 -41 135 -98.5t99 -116.5q72 95 264 202q193 -107 264 -203
q36 59 99 117t135 99q98 -90 135 -168q47 99 98 155t121 56q35 0 57 -15q-37 -33 -57 -167.5t-64.5 -240t-130.5 -161.5zM-40 -159q-31 -44 -85.5 -175.5t-99.5 -188.5q47 29 85 98.5t82 210.5zM-1384 -523q-44 55 -99.5 188t-86.5 175l22 -67q40 -129 77.5 -198t86.5 -98z
M-854 -596v223q0 59 10 82t39 23t39 -23t10 -82v-223q93 6 130.5 32.5t37.5 84.5q0 83 -46.5 145.5t-170.5 143.5q-122 -80 -169.5 -143t-47.5 -146q0 -58 37.5 -84.5t130.5 -32.5zM-1380 -354q57 -125 106 -183q-53 76 -53 175q0 56 8 77t31 21t31 -21t8 -77
q0 -87 36 -142.5t99 -67.5q-21 40 -21 93q0 50 10 90q-14 41 -59 93t-106 97q-82 -80 -90 -155zM-485 -390q10 -40 10 -89q0 -54 -21 -93q63 11 99.5 67t36.5 143q0 56 8 77t30 21q23 0 31 -21t8 -77q0 -99 -53 -175q31 37 61 91t46 94q-8 73 -90 153q-62 -46 -107 -98
t-59 -93z" />
    <glyph glyph-name="uni0FC7" unicode="&#xfc7;" horiz-adv-x="1942" 
d="M1901 698v-131h-93q-17 -63 -69 -119.5t-123 -89.5q4 -56 4 -108v-21h-131v27q0 96 -20 167.5t-72 125.5q-26 -128 -119.5 -222t-224.5 -120q55 -52 126 -72t167 -20h28v-131h-21q-52 0 -106 4q-34 -71 -91 -123t-120 -70v-92h-131v92q-63 18 -119.5 70t-90.5 123
q-54 -4 -107 -4h-21v131h28q96 0 167 20t126 72q-129 26 -223 120t-120 223q-52 -54 -72 -125.5t-20 -167.5v-28h-131v33q0 57 4 96q-71 33 -123 89.5t-70 119.5h-92v131h92q18 64 70 120.5t123 89.5q-4 39 -4 95v33h131v-28q0 -96 20 -167t72 -126q26 130 120 224t222 120
q-55 52 -126 72t-167 20h-27v131h21q52 0 108 -4q33 71 89.5 123t119.5 69v93h131v-93q63 -17 120 -69t90 -123q56 4 108 4h20v-131h-27q-96 0 -167 -20t-126 -72q129 -26 223 -120t120 -223q52 55 72 126t20 167v27h131v-20q0 -52 -4 -108q71 -33 123 -90t69 -120h93z
M829 1247q42 -18 76 -41v119q-47 -28 -76 -78zM1036 1206q34 23 76 41q-29 50 -76 78v-119zM666 705q64 53 149 53q88 0 168 -62q51 22 72.5 53t21.5 80q0 51 -29 84t-77 33q-108 0 -195 -69t-110 -172zM1024.5 878.5q22.5 -22.5 22.5 -53.5t-22.5 -53t-53.5 -22t-53.5 22
t-22.5 53t22.5 53.5t53.5 22.5t53.5 -22.5zM1186 860l2 -31q0 -83 -41 -140.5t-127 -94.5l-2 -31q0 -63 36 -101t95 -38q70 0 102.5 68.5t32.5 140.5q0 64 -26 124t-72 103zM397 698q-24 35 -41 77q-52 -31 -77 -77h118zM1663 698q-28 47 -78 76q-18 -42 -41 -76h119z
M1059 332q-67 25 -108.5 88t-41.5 143l2 49q-42 35 -94 35q-57 0 -95 -33t-38 -82q0 -62 85 -137.5t202 -75.5q41 0 88 13zM750 483q-23 22 -23 54t22.5 53.5t55.5 21.5q31 0 53.5 -22t22.5 -53t-22.5 -53.5t-53.5 -22.5q-32 0 -55 22zM1083.5 483.5q-22.5 22.5 -22.5 53.5
t22.5 53t53.5 22q32 0 54.5 -21.5t22.5 -53.5t-22.5 -54t-54.5 -22q-31 0 -53.5 22.5zM356 491q18 42 41 76h-118q26 -47 77 -76zM1544 567q23 -34 41 -76q50 29 78 76h-119zM905 59q-36 -25 -76 -40q29 -53 76 -78v118zM1113 19q-40 15 -77 40v-118q46 25 77 78z" />
    <glyph glyph-name="uni0FC8" unicode="&#xfc8;" horiz-adv-x="1016" 
d="M971 834l-408 -1104h-110l-408 1104l88 69q67 -59 209 -59q35 0 62 4q-46 44 -46 108q0 56 39 100q-52 39 -117.5 53.5t-152.5 14.5h-23v131h19q49 0 102 -4q38 64 96 110t121 62v113h131v-113q63 -16 121 -62t96 -110q53 4 102 4h19v-131h-23q-87 0 -152 -14.5
t-117 -53.5q38 -43 38 -100q0 -64 -46 -108q27 -4 63 -4q142 0 209 59zM354 1225q45 -16 88 -45v118q-53 -26 -88 -73zM573 1180q45 29 89 45q-35 48 -89 73v-118zM534 931q11 11 11 25t-11 25.5t-26 11.5t-26 -11t-11 -26q0 -14 11 -25t26 -11t26 11zM508 539l67 182
q-30 4 -67 16q-36 -12 -68 -16zM796 735q-42 -16 -83 -20l-150 -402h-110l-150 402q-41 4 -83 20l288 -780z" />
    <glyph glyph-name="uni0FC9" unicode="&#xfc9;" horiz-adv-x="1450" 
d="M247 108q-165 163 -165 474q0 379 180.5 618.5t462.5 239.5t462.5 -239.5t180.5 -618.5q0 -309 -166 -473t-477 -164q-313 0 -478 163zM459 1174q2 -103 71 -159.5t195 -56.5t195 56.5t71 159.5q-114 102 -266 102t-266 -102zM812 1209q36 -36 36 -87t-36 -87t-87 -36
t-87 36t-36 87t36 87t87 36t87 -36zM364 1061q-22 -36 -35 -64q12 -104 121 -167.5t275 -63.5t274.5 63.5t121.5 167.5q-13 28 -35 64q-32 -109 -124.5 -167t-236.5 -58t-236.5 58t-124.5 167zM1177 833q-61 -90 -178 -140t-274 -50t-274 50t-178 140q-27 -114 -27 -251
q0 -242 117.5 -357.5t361.5 -115.5t361.5 115.5t117.5 357.5q0 137 -27 251z" />
    <glyph glyph-name="uni0FCA" unicode="&#xfca;" horiz-adv-x="1659" 
d="M302.5 165.5q-220.5 220.5 -220.5 526.5q0 307 220.5 527.5t526.5 220.5q307 0 527.5 -220.5t220.5 -527.5q0 -306 -220.5 -526.5t-527.5 -220.5q-306 0 -526.5 220.5zM375 1058q46 11 92 11q159 0 265 -85.5t164 -241.5t125 -209.5t171 -53.5q97 0 159 59t62 154
q0 240 -172 412t-412 172q-135 0 -253.5 -58t-200.5 -160zM1283 326q-44 -11 -91 -11q-159 0 -265 85t-164 241.5t-124.5 210t-171.5 53.5q-98 0 -159.5 -59.5t-61.5 -152.5q0 -241 172 -412.5t411 -171.5q135 0 253.5 58t200.5 159zM389.5 598q-39.5 39 -39.5 94
q0 54 39 93.5t94 39.5q54 0 93.5 -39t39.5 -94q0 -54 -39 -93.5t-94 -39.5q-54 0 -93.5 39zM1269.5 786q39.5 -39 39.5 -94q0 -54 -39 -93.5t-94 -39.5t-94.5 39t-39.5 94t39.5 94t94.5 39q54 0 93.5 -39z" />
    <glyph glyph-name="uni0FCB" unicode="&#xfcb;" horiz-adv-x="1659" 
d="M302.5 165.5q-220.5 220.5 -220.5 526.5q0 307 220.5 527.5t526.5 220.5q307 0 527.5 -220.5t220.5 -527.5q0 -306 -220.5 -526.5t-527.5 -220.5q-306 0 -526.5 220.5zM845 786q107 46 152 108t45 161t-59.5 160t-152.5 61q-136 0 -261 -55t-220.5 -185t-95.5 -251
q53 55 128.5 85.5t163.5 30.5q155 0 300 -115zM923.5 1141q39.5 -39 39.5 -94t-39 -94.5t-95 -39.5q-55 0 -94 39.5t-39 94.5q0 54 39 93.5t94 39.5t94.5 -39zM1195 1147q11 -46 11 -92q0 -148 -74 -250.5t-228 -169.5q-5 -43 -5 -72q0 -121 71 -195.5t187 -74.5
q120 0 188 126.5t68 272.5q0 136 -58 254.5t-160 200.5zM1036 147q-133 30 -216 146t-83 272q0 45 6 94q-99 78 -196 78q-108 0 -181 -64.5t-73 -162.5q0 -81 81 -182t199 -160t256 -59q108 0 207 38zM428.5 420q-39.5 39 -39.5 94q0 54 39 93.5t94 39.5q54 0 93.5 -39
t39.5 -94q0 -54 -39 -93.5t-94 -39.5q-54 0 -93.5 39zM1231 420.5q-39 -39.5 -94 -39.5q-54 0 -93.5 39t-39.5 94q0 54 39 93.5t94 39.5q54 0 93.5 -39t39.5 -94q0 -54 -39 -93.5z" />
    <glyph glyph-name="uni0FCC" unicode="&#xfcc;" horiz-adv-x="1659" 
d="M302.5 165.5q-220.5 220.5 -220.5 526.5q0 307 220.5 527.5t526.5 220.5q307 0 527.5 -220.5t220.5 -527.5q0 -306 -220.5 -526.5t-527.5 -220.5q-306 0 -526.5 220.5zM872 798q92 45 131 104.5t39 152.5q0 98 -59.5 159.5t-152.5 61.5q-138 0 -257 -57.5t-198 -160.5
q46 11 92 11q140 0 239.5 -66.5t165.5 -204.5zM957 1154q36 -36 36 -87t-36 -87t-87 -36q-50 0 -86 36t-36 87t36 87t86 36q51 0 87 -36zM936 649q45 -91 104.5 -130.5t151.5 -39.5q98 0 159.5 59.5t61.5 152.5q0 137 -62 261.5t-156 194.5q11 -46 11 -92q0 -140 -66 -239.5
t-204 -166.5zM724 735q-45 92 -105 131t-152 39q-98 0 -159.5 -59.5t-61.5 -152.5q0 -165 68.5 -279.5t149.5 -175.5q-11 44 -11 92q0 141 66.5 240t204.5 165zM368 820q36 36 87 36t87 -36t36 -87t-36 -87t-87 -36t-87 36t-36 87t36 87zM1291 564q-36 -36 -87 -36t-87 36
t-36 87t36 87t87 36t87 -36t36 -87t-36 -87zM787 586q-92 -45 -131.5 -104.5t-39.5 -151.5q0 -98 59.5 -159.5t152.5 -61.5q128 0 254.5 64t200.5 153q-44 -11 -91 -11q-140 0 -239.5 66.5t-165.5 204.5zM702 231q-36 36 -36 86q0 51 36 87t86 36q51 0 87 -36t36 -87
q0 -50 -36 -86t-87 -36q-50 0 -86 36z" />
    <glyph glyph-name="uni0FCE" unicode="&#xfce;" horiz-adv-x="1491" 
d="M530 555l215 -215l-116 -117l-215 215l-215 -215l-117 117l215 215l-215 215l117 117l215 -215l215 215l116 -117zM857 330.5q-93 92.5 -93 224.5t93 224.5t225 92.5t224.5 -92.5t92.5 -224.5q0 -131 -93.5 -224t-223.5 -93q-132 0 -225 92.5zM1191 446.5
q44 45.5 44 108.5q0 64 -44 109t-109 45q-64 0 -109 -44.5t-45 -109.5q0 -64 44.5 -109t109.5 -45t109 45.5z" />
    <glyph glyph-name="uni0FCF" unicode="&#xfcf;" horiz-adv-x="1524" 
d="M530 494l215 -215l-116 -117l-215 215l-215 -215l-117 117l215 215l-215 215l117 117l215 -215l215 215l116 -117zM1226 494l215 -215l-116 -117l-215 215l-215 -215l-117 117l215 215l-215 215l117 117l215 -215l215 215l116 -117zM878 1149l215 -215l-116 -117
l-215 215l-215 -215l-117 117l215 215l-215 215l117 117l215 -215l215 215l116 -117z" />
    </font>
</defs>
</svg>
