<?xml version="1.0" standalone="no"?>
<!DOCTYPE svg PUBLIC "-//W3C//DTD SVG 1.1//EN" "http://www.w3.org/Graphics/SVG/1.1/DTD/svg11.dtd" >
<svg xmlns="http://www.w3.org/2000/svg" xmlns:xlink="http://www.w3.org/1999/xlink" version="1.1">
<metadata>
Created by FontForge 20190801 at Sun Nov 15 08:24:53 2015
 By www-data
Copyright 2013 Google Inc. All Rights Reserved.
</metadata>
<defs>
<font id="NotoSansTagalogRegular" horiz-adv-x="0" >
  <font-face 
    font-family="NotoSansTagalogRegular"
    font-weight="400"
    font-stretch="normal"
    units-per-em="2048"
    panose-1="2 11 5 2 4 5 4 2 2 4"
    ascent="1638"
    descent="-410"
    bbox="-692 -317 2163 1669"
    underline-thickness="102"
    underline-position="-205"
    unicode-range="U+000D-FEFF"
  />
<missing-glyph horiz-adv-x="1229" 
d="M193 1462h841v-1462h-841v1462zM297 104h633v1254h-633v-1254z" />
    <glyph glyph-name=".notdef" horiz-adv-x="1229" 
d="M193 1462h841v-1462h-841v1462zM297 104h633v1254h-633v-1254z" />
    <glyph glyph-name=".null" 
 />
    <glyph glyph-name="uni000D" unicode="&#xd;" horiz-adv-x="1044" 
 />
    <glyph glyph-name="uniFEFF" unicode="&#xfeff;" 
 />
    <glyph glyph-name="uniFEFF" 
 />
    <glyph glyph-name="space" unicode=" " horiz-adv-x="532" 
 />
    <glyph glyph-name="space" unicode="&#xa0;" horiz-adv-x="532" 
 />
    <glyph glyph-name="uni1700" unicode="&#x1700;" horiz-adv-x="2077" 
d="M641 1061v-29q0 -86 -14.5 -179.5t-32.5 -183t-32.5 -170t-14.5 -139.5q0 -221 117 -221q49 0 101 29.5t106.5 85t123.5 151.5t222 349l94 155q138 229 234.5 309t223.5 80q107 0 183 -54.5t116 -151.5l-129 -56q-48 123 -174 123q-72 0 -131.5 -49.5t-130.5 -165.5
l-237 -396q-173 -294 -318.5 -421t-296.5 -127q-118 0 -190 94.5t-72 249.5q0 129 45 326l21 98h-283v139h305q8 61 8 154h-313v139h299q-27 103 -94.5 164.5t-192.5 93.5l33 137q143 -48 217.5 -98t122 -122t70.5 -175h301v-139h-287z" />
    <glyph glyph-name="uni1701" unicode="&#x1701;" horiz-adv-x="2071" 
d="M369 160q-182 0 -297 73l73 119q82 -53 224 -53q146 0 253.5 114.5t159.5 327.5h95q41 -177 122 -282q47 34 106 124.5t85 157.5h94q37 -206 132 -324t231 -118q55 0 95.5 12t102.5 47l66 -122q-89 -47 -142.5 -61.5t-119.5 -14.5q-139 0 -246 77.5t-193 254.5
q-124 -164 -237 -234q-93 108 -142 211q-81 -149 -201 -229t-261 -80zM580 870q-138 0 -255.5 42.5t-258.5 146.5l77 115q128 -92 222.5 -128t218.5 -36q190 0 460 90q264 86 441 86q138 0 256 -42.5t262 -146.5l-86 -110q-129 95 -231 127.5t-228 32.5q-112 0 -286 -54
q-253 -79 -372.5 -101t-219.5 -22z" />
    <glyph glyph-name="uni1702" unicode="&#x1702;" horiz-adv-x="1096" 
d="M221 1223q87 40 164 57.5t193 17.5q180 0 280 -79t100 -218q0 -191 -180 -272q98 -27 158.5 -112t60.5 -201q0 -193 -137.5 -304.5t-361.5 -111.5q-110 0 -203.5 15t-196.5 53l52 133q59 -27 156 -44.5t190 -17.5q105 0 182.5 36t120.5 99.5t43 139.5q0 106 -73 164.5
t-222 58.5h-141v139h94q135 0 218 60t83 157q0 79 -62.5 122.5t-169.5 43.5q-72 0 -151.5 -18t-138.5 -47z" />
    <glyph glyph-name="uni1703" unicode="&#x1703;" horiz-adv-x="2015" 
d="M1522 510q106 0 195 -23.5t194 -78.5l-64 -125q-99 51 -167.5 69.5t-149.5 18.5q-51 0 -120 -17.5t-105 -34.5l-539 -225q-122 -51 -248 -51q-110 0 -204 37.5t-210 136.5l91 109q78 -75 154.5 -109.5t172.5 -34.5q98 0 189 39l229 96v578l-174 -72q-122 -51 -248 -51
q-110 0 -204 37.5t-210 136.5l91 109q78 -75 154.5 -109.5t172.5 -34.5q98 0 189 39l538 226q61 26 136.5 44.5t136.5 18.5q106 0 195 -23.5t194 -78.5l-64 -125q-99 51 -167.5 69.5t-149.5 18.5q-94 0 -225 -51l-207 -88v-578l151 63q154 64 273 64z" />
    <glyph glyph-name="uni1704" unicode="&#x1704;" horiz-adv-x="1714" 
d="M221 1223q87 40 164 57.5t193 17.5q216 0 315 -114q93 55 205 55q163 0 236 -122.5t73 -397.5v-295q0 -136 22.5 -187.5t75.5 -74.5t156 -23v-139h-21q-144 0 -229 43t-123.5 128t-38.5 253v295q0 202 -38 291.5t-132 89.5q-59 0 -127 -35q6 -32 6 -64q0 -191 -180 -272
q98 -27 158.5 -112t60.5 -201q0 -193 -137.5 -304.5t-361.5 -111.5q-110 0 -203.5 15t-196.5 53l52 133q59 -27 156 -44.5t190 -17.5q105 0 182.5 36t120.5 99.5t43 139.5q0 106 -73 164.5t-222 58.5h-141v139h94q135 0 218 60t83 157q0 79 -62.5 122.5t-169.5 43.5
q-72 0 -151.5 -18t-138.5 -47z" />
    <glyph glyph-name="uni1705" unicode="&#x1705;" horiz-adv-x="2071" 
d="M1073 666q83 0 139 25.5t123 88.5q87 78 152.5 108t144.5 30q149 0 238.5 -93.5t89.5 -244.5q0 -178 -115.5 -302t-318.5 -161l-35 131q153 36 237 122.5t84 211.5q0 87 -51 141.5t-129 54.5q-58 0 -100.5 -22.5t-95.5 -77.5q-80 -80 -167.5 -116t-195.5 -36
q-10 -118 -64 -208.5t-140 -138.5t-189 -48q-93 0 -179 22q-86 21 -134 21q-41 0 -59.5 -24.5t-18.5 -59.5q0 -43 18 -90h-145q-21 53 -21 115q0 87 59.5 142.5t159.5 55.5q74 0 164 -21q89 -22 146 -22q245 0 245 320q0 157 -53 237t-170 80q-92 0 -182 -46
q-91 -46 -180 -46q-106 0 -165 56.5t-59 154.5q0 72 46.5 135t177.5 152l78 -117q-101 -65 -127.5 -96.5t-26.5 -69.5q0 -76 94 -76q39 0 117 39q103 54 215 54q171 0 273 -98.5t120 -282.5z" />
    <glyph glyph-name="uni1706" unicode="&#x1706;" horiz-adv-x="1997" 
d="M291 0q36 308 205 596q-81 -37 -152 -37q-94 0 -149.5 53.5t-55.5 141.5q0 94 66 168l106 -91q-32 -38 -32 -71q0 -62 75 -62q144 0 408 240q386 354 831 354q192 0 338 -67l-59 -127q-123 55 -279 55q-186 0 -384 -88t-356 -242t-261 -363.5t-139 -459.5h-162z" />
    <glyph glyph-name="uni1707" unicode="&#x1707;" horiz-adv-x="2146" 
d="M596 303q113 0 224.5 20.5t258.5 65.5q185 54 274.5 70t170.5 16q138 0 259 -43.5t259 -144.5l-86 -111q-127 94 -226.5 127t-232.5 33q-112 0 -281 -52q-98 -30 -232.5 -65t-223 -45t-166.5 -10q-184 0 -292.5 96.5t-108.5 253.5q0 125 52 225t128 170q-135 50 -269 150
l78 115q128 -92 222.5 -128t218.5 -36q190 0 460 90q264 86 441 86q138 0 258 -43t260 -146l-86 -110q-129 95 -231 127.5t-228 32.5q-112 0 -286 -54q-253 -79 -372.5 -101t-220.5 -22q-44 0 -86 4q-79 -56 -130.5 -146.5t-51.5 -209.5q0 -98 61.5 -156.5t184.5 -58.5z" />
    <glyph glyph-name="uni1708" unicode="&#x1708;" horiz-adv-x="1741" 
d="M766 1147q-210 -48 -333.5 -236.5t-123.5 -461.5q0 -136 17 -234t55 -215h-164q-65 181 -65 446q0 247 89 438t258 302.5t371 111.5t371.5 -111t259.5 -303.5t90 -437.5q0 -259 -67 -446h-164q38 117 55 213.5t17 235.5q0 188 -66 349t-185.5 254.5t-275.5 104.5v-12
q0 -77 64 -132l49 -46q47 -38 47 -84q0 -39 -34 -74t-111 -78q-31 -16 -31 -22q0 -7 53 -29q71 -28 96.5 -44.5t40.5 -36.5t15 -46q0 -31 -29.5 -63.5t-110.5 -79.5q-24 -16 -44.5 -27t-20.5 -16t18 -11q89 -33 138 -65.5t49 -77.5q0 -47 -33.5 -84t-83.5 -72
q-106 -73 -174 -192l-131 69q65 128 200 220q33 22 33 39q0 15 -37 30l-53 21q-47 18 -69.5 47.5t-22.5 73.5q0 35 25.5 67t62 52.5t75.5 41.5q19 8 19 15q0 8 -37 24l-53 22q-92 36 -92 120q0 24 9 43t25.5 35t39.5 31t68 42q40 21 40 27q0 7 -20 20q-119 81 -119 236v6z
" />
    <glyph glyph-name="uni1709" unicode="&#x1709;" horiz-adv-x="2191" 
d="M555 295q0 -75 33 -115.5t92 -40.5q129 0 264 123t337 444l192 302q96 156 184.5 223t206.5 67q106 0 182 -54.5t117 -151.5l-129 -56q-47 123 -179 123q-72 0 -129.5 -49t-128.5 -166l-69 -117q50 -63 118 -171t99 -175l-129 -67q-90 174 -170 282
q-149 -239 -228 -341.5t-147 -168t-136 -107t-132.5 -60.5t-132.5 -19q-131 0 -202 80t-71 229q0 108 49 328q13 57 13 129h-340v139h289q109 0 158.5 -36.5t49.5 -123.5q0 -61 -26 -172q-24 -107 -29.5 -164t-5.5 -114z" />
    <glyph glyph-name="uni170A" unicode="&#x170a;" horiz-adv-x="1743" 
d="M893 352q59 -118 117 -165.5t133 -47.5q92 0 162.5 55.5t109.5 151.5t39 209q0 157 -70.5 302t-179.5 223.5t-235 78.5q-175 0 -329.5 -106.5t-252.5 -295.5t-98 -392q0 -103 56.5 -164.5t154.5 -61.5q96 0 191.5 48.5t201.5 164.5zM864 141q-169 -141 -375 -141
q-166 0 -262 102.5t-96 284.5q0 158 67 326t185 303t272.5 208.5t321.5 73.5q161 0 306.5 -100t237 -277.5t91.5 -367.5q0 -161 -58 -288t-161.5 -196t-235.5 -69q-91 0 -158 29t-135 112z" />
    <glyph glyph-name="uni170B" unicode="&#x170b;" horiz-adv-x="2109" 
d="M444 889h-325v139h262q98 0 140 -13.5t61.5 -45.5t19.5 -90q0 -45 -8 -82q52 16 128.5 26.5t139.5 10.5q183 0 355 -80l161 254q100 160 188 225t203 65q107 0 183 -54.5t116 -151.5l-129 -56q-48 123 -178 123q-70 0 -128 -48.5t-130 -166.5l-238 -396
q-175 -295 -317 -421.5t-284 -126.5q-126 0 -200.5 110.5t-74.5 295.5q0 156 32 319q23 121 23 164zM856 694q-144 0 -289 -49q-12 -61 -16 -117.5t-4 -126.5q0 -110 33.5 -186t83.5 -76q93 0 204.5 110.5t276.5 385.5q-135 59 -289 59z" />
    <glyph glyph-name="uni170C" unicode="&#x170c;" horiz-adv-x="2107" 
d="M397 309q0 108 49 328q13 57 13 129h-340v139h289q109 0 158.5 -36.5t49.5 -123.5q0 -61 -26 -172q-24 -107 -29.5 -164t-5.5 -114q0 -156 131 -156q90 0 189.5 69.5t213.5 217t297 461.5q56 94 102.5 170.5t98 129.5t115 82t153.5 29q121 0 202 -75.5t81 -190.5
q0 -82 -38 -151t-106.5 -107.5t-160.5 -38.5q-120 0 -211 43l57 127q65 -31 148 -31q70 0 117 45t47 113q0 55 -40 91t-104 36q-55 0 -100.5 -29t-91.5 -87.5t-137 -221.5q-184 -321 -321 -491.5t-265 -250t-254 -79.5q-137 0 -209 79t-72 230z" />
    <glyph glyph-name="uni170E" unicode="&#x170e;" horiz-adv-x="1870" 
d="M805 801q0 93 43 168q-125 -58 -214 -80.5t-163 -22.5q-110 0 -204 37.5t-210 136.5l93 111q81 -78 159 -111.5t166 -33.5q78 0 194.5 41.5t227.5 101.5q149 78 273 116t237 38q102 0 189 -22t200 -81l-63 -125q-92 50 -164 69t-154 19q-133 0 -238 -43.5t-164 -120.5
t-59 -170q0 -17 6 -29t17.5 -21.5t66.5 -33.5q59 -23 89 -49.5t30 -68.5q0 -52 -91 -104q-52 -29 -70.5 -43t-18.5 -23q0 -6 37.5 -22.5t72.5 -30.5q91 -37 91 -97q0 -47 -30 -79.5t-81 -67.5q-105 -65 -178 -180l-127 67q84 149 211 225q20 13 20 21q0 10 -36 22l-52 21
q-94 34 -94 115q0 41 29 77.5t110 73.5q19 8 19 14q0 7 -9 11t-28 12q-133 51 -133 162z" />
    <glyph glyph-name="uni170F" unicode="&#x170f;" horiz-adv-x="1559" 
d="M397 311q0 106 49 326q13 57 13 129h-340v139h289q109 0 158.5 -36.5t49.5 -123.5q0 -61 -26 -172q-24 -105 -29.5 -153.5t-5.5 -93.5q0 -99 44.5 -143t131.5 -44q127 0 263 130t222.5 327.5t86.5 368.5q0 135 -63.5 205.5t-186.5 70.5q-85 0 -156.5 -37t-122.5 -102
l-104 90q146 188 393 188q190 0 293.5 -108t103.5 -311q0 -217 -114 -448.5t-286 -372t-341 -140.5q-153 0 -237.5 82t-84.5 229z" />
    <glyph glyph-name="uni1710" unicode="&#x1710;" horiz-adv-x="1888" 
d="M492 0h-138l-4 1159h-311v139h262q82 0 126 -14.5t62.5 -46t18.5 -111.5l4 -817h4q133 276 255.5 487t212 308t192 145.5t221.5 48.5q162 0 258 -86t96 -225q0 -216 -180 -297q95 -26 157 -108.5t62 -188.5q0 -208 -164 -310.5t-493 -102.5h-84v139h65q266 0 392 68
t126 206q0 98 -74.5 151.5t-207.5 53.5h-152v139h94q136 0 218.5 62t82.5 168q0 92 -56 142t-157 50q-197 0 -376 -268q-87 -129 -243 -411q-203 -367 -269 -480z" />
    <glyph glyph-name="uni1711" unicode="&#x1711;" horiz-adv-x="2148" 
d="M621 483q-140 0 -260 44t-255 145l78 114q124 -89 220.5 -126t220.5 -37q190 0 460 90q264 86 441 86q138 0 258 -43t260 -146l-86 -110q-123 91 -223.5 125t-235.5 34q-116 0 -286 -53q-253 -79 -372.5 -101t-219.5 -22z" />
    <glyph glyph-name="uni1712" unicode="&#x1712;" 
d="M-451 1554q0 60 31 87.5t76 27.5q48 0 76 -31t28 -84t-29.5 -83.5t-74.5 -30.5t-76 28t-31 86z" />
    <glyph glyph-name="uni1713" unicode="&#x1713;" 
d="M-307 -168q0 60 30.5 87.5t75.5 27.5q42 0 73.5 -27.5t31.5 -87.5q0 -59 -31.5 -87t-73.5 -28q-45 0 -75.5 28t-30.5 87z" />
    <glyph glyph-name="uni1714" unicode="&#x1714;" 
d="M-590 -317v100h-102v102h102v103h103v-103h100v-102h-100v-100h-103z" />
    <glyph glyph-name="uni1735" unicode="&#x1735;" horiz-adv-x="674" 
d="M37 -285l418 1821h143l-420 -1821h-141z" />
    <glyph glyph-name="uni1736" unicode="&#x1736;" horiz-adv-x="999" 
d="M37 -285l418 1821h143l-420 -1821h-141zM363 -285l418 1821h143l-420 -1821h-141z" />
  </font>
</defs>
</svg>
