<?xml version="1.0" standalone="no"?>
<!DOCTYPE svg PUBLIC "-//W3C//DTD SVG 1.1//EN" "http://www.w3.org/Graphics/SVG/1.1/DTD/svg11.dtd" >
<svg xmlns="http://www.w3.org/2000/svg" xmlns:xlink="http://www.w3.org/1999/xlink" version="1.1">
<metadata>
Created by FontForge 20190801 at Wed Sep 23 21:36:33 2015
 By www-data
Copyright 2013 Google Inc. All Rights Reserved.
</metadata>
<defs>
<font id="NotoSansBalineseRegular" horiz-adv-x="0" >
  <font-face 
    font-family="NotoSansBalineseRegular"
    font-weight="400"
    font-stretch="normal"
    units-per-em="2048"
    panose-1="2 11 5 2 4 5 4 2 2 4"
    ascent="1638"
    descent="-410"
    bbox="-2850 -1486 3575 2189"
    underline-thickness="50"
    underline-position="-100"
    unicode-range="U+000D-FEFF"
  />
<missing-glyph horiz-adv-x="1229" 
d="M193 1462h841v-1462h-841v1462zM297 104h633v1254h-633v-1254z" />
    <glyph glyph-name=".notdef" horiz-adv-x="1229" 
d="M193 1462h841v-1462h-841v1462zM297 104h633v1254h-633v-1254z" />
    <glyph glyph-name=".null" 
 />
    <glyph glyph-name="uni000D" unicode="&#xd;" horiz-adv-x="530" 
 />
    <glyph glyph-name="uniFEFF" unicode="&#xfeff;" 
 />
    <glyph glyph-name="uniFEFF" 
 />
    <glyph glyph-name="space" unicode=" " horiz-adv-x="530" 
 />
    <glyph glyph-name="space" unicode="&#xa0;" horiz-adv-x="530" 
 />
    <glyph glyph-name="uni1B00" unicode="&#x1b00;" 
d="M-472.5 1616.5q34.5 -33.5 34.5 -83.5q0 -47 -33 -81.5t-82 -34.5q-50 0 -83.5 35t-33.5 81q0 48 34.5 82.5t82.5 34.5q46 0 80.5 -33.5zM-350 1320q66 95 83 147t17 126q0 120 -80 183.5t-223 63.5q-153 0 -238.5 -64.5t-85.5 -182.5q0 -76 17 -127.5t83 -145.5l-50 -50
q-130 160 -130 332q0 188 103 288t294 100q187 0 288.5 -101t101.5 -287q0 -170 -130 -332z" />
    <glyph glyph-name="uni1B01" unicode="&#x1b01;" 
d="M-290 1990q130 -160 130 -332q0 -187 -101.5 -287.5t-288.5 -100.5q-191 0 -294 100t-103 288q0 170 130 332l50 -50q-64 -92 -82 -143t-18 -130q0 -75 37 -132q10 120 77 200.5t169 94.5v209h80v-210q97 -16 160.5 -90.5t78.5 -186.5q25 51 25 115q0 77 -18.5 130
t-81.5 143zM-753 1466q81 -46 210 -46q127 0 204 49l2 18v21q0 99 -60 170t-151 71t-150 -71t-59 -170q0 -26 4 -42z" />
    <glyph glyph-name="uni1B02" unicode="&#x1b02;" 
d="M-150 1270l-152 380q-54 136 -96 192.5t-89 56.5q-41 0 -64 -31t-25 -82l-66 5q0 107 37 193t103 86q59 0 119 -76t131 -255l174 -431z" />
    <glyph glyph-name="uni1B03" unicode="&#x1b03;" 
d="M-31 1272q-325 21 -594 245.5t-367 552.5l196 -44q104 -299 309 -479t480 -215z" />
    <glyph glyph-name="uni1B04" unicode="&#x1b04;" horiz-adv-x="843" 
d="M202 449h53q343 0 343 272q0 107 -58 167t-154 60q-104 0 -164 -67.5t-62 -192.5q-29 -8 -44 -8l-36 6q0 197 78.5 314.5t224.5 117.5q143 0 229 -108.5t86 -295.5q0 -92 -56.5 -173.5t-156.5 -131.5q258 -108 258 -381q0 -242 -133.5 -491t-133.5 -399q0 -128 27 -193
l7 -24l-51 -39q-31 42 -57 147t-26 168q0 245 133.5 467.5t133.5 430.5q0 132 -110 203t-299 71h-42z" />
    <glyph glyph-name="uni1B05" unicode="&#x1b05;" horiz-adv-x="2258" 
d="M440 726q34 105 99.5 169.5t144.5 64.5q88 0 148 -55.5t60 -140.5q0 -151 -119 -228q80 -25 123.5 -82t43.5 -133q0 -152 -98.5 -246.5t-261.5 -94.5q-204 0 -342 178t-138 439q0 175 73.5 312t215 219t300.5 82q202 0 363.5 -99.5t239.5 -266.5l-70 -46
q-127 188 -251.5 250t-279.5 62q-207 0 -349 -139.5t-142 -365.5q0 -221 98.5 -338t281.5 -117q139 0 199.5 46t60.5 136q0 65 -54.5 104t-160.5 39h-92l10 80h77q73 8 122.5 49.5t49.5 86.5t-37 72t-90 27q-70 0 -115 -21.5t-74 -68.5zM2203 346l-135 58v-404h-80v439
q-117 51 -175 70v-24q0 -254 -92 -379.5t-267 -125.5q-170 0 -269.5 100.5t-120.5 289.5l66 20q16 -116 98 -178t226 -62q136 0 207.5 86.5t71.5 259.5v35q-44 10 -71 10q-41 0 -68 -22t-27 -60q0 -42 42 -86l-50 -42q-58 49 -92.5 109t-34.5 111q0 49 35.5 79t90.5 30
q63 0 175 -35v475h47q105 0 169 -43t91.5 -132.5t27.5 -289.5v-143l160 -68zM1813 598l175 -72v100q0 304 -149 304h-26v-332z" />
    <glyph glyph-name="uni1B06" unicode="&#x1b06;" horiz-adv-x="2871" 
d="M2011 138l-205 218q-44 -376 -352 -376q-170 0 -269.5 100.5t-120.5 289.5l66 20q16 -116 98 -178t226 -62q250 0 276 281q-88 80 -142 80q-35 0 -59 -24.5t-24 -60.5q0 -27 12 -58l-63 -19q-44 88 -44 173q0 65 30.5 104.5t80.5 39.5q80 0 212 -123v1q0 251 144.5 412
t361.5 161q235 0 383.5 -157.5t148.5 -398.5q0 -277 -129 -429.5t-310 -152.5q-110 0 -181 43l51 80q23 -11 65 -17t76 -6q136 0 232 129.5t96 344.5q0 181 -117 287.5t-312 106.5q-199 0 -314 -111t-115 -295v-77l251 -264zM440 726q34 105 99.5 169.5t144.5 64.5
q88 0 148 -55.5t60 -140.5q0 -151 -119 -228q80 -25 123.5 -82t43.5 -133q0 -152 -98.5 -246.5t-261.5 -94.5q-204 0 -342 178t-138 439q0 175 73.5 312t215 219t300.5 82q202 0 363.5 -99.5t239.5 -266.5l-70 -46q-127 188 -251.5 250t-279.5 62q-207 0 -349 -139.5
t-142 -365.5q0 -221 98.5 -338t281.5 -117q139 0 199.5 46t60.5 136q0 65 -54.5 104t-160.5 39h-92l10 80h77q71 0 121.5 44.5t50.5 91.5q0 45 -37 72t-90 27q-70 0 -115 -21.5t-74 -68.5z" />
    <glyph glyph-name="uni1B07" unicode="&#x1b07;" horiz-adv-x="1910" 
d="M1700 0v616q0 172 -52 252t-178 80q-85 0 -145.5 -58t-69.5 -157h-69q0 84 -64.5 149.5t-150.5 65.5q-126 0 -178.5 -80t-52.5 -252v-616h-47q-103 0 -167.5 43t-91 131.5t-26.5 290.5v195q0 165 -26.5 226.5t-92.5 61.5q-50 0 -77.5 -23t-38.5 -66.5t-13 -170.5
q-29 -8 -44 -8l-36 6q0 234 52.5 333t153.5 99t151.5 -94t50.5 -371v-236q0 -121 38.5 -184t107.5 -63h26v446q0 274 72 388t239 114q183 0 249 -206q67 206 250 206q168 0 239 -114t71 -388v-616h-80zM1360 -167q-59 37 -157 37q-60 0 -101 -19t-41 -51q0 -48 137.5 -77.5
t214.5 -79t77 -137.5q0 -96 -74.5 -161t-189.5 -65q-109 0 -218 69t-140 160l38 26q27 -42 121.5 -74t178.5 -32q78 0 138.5 25t60.5 66q0 40 -43.5 67t-170.5 55t-171 62t-44 83q0 71 66.5 117t165.5 46q67 0 110.5 -13t80.5 -33z" />
    <glyph glyph-name="uni1B08" unicode="&#x1b08;" horiz-adv-x="2756" 
d="M1700 0v616q0 172 -52 252t-178 80q-85 0 -145.5 -58t-69.5 -157h-69q0 84 -64.5 149.5t-150.5 65.5q-126 0 -178.5 -80t-52.5 -252v-616h-47q-103 0 -167.5 43t-91 131.5t-26.5 290.5v195q0 165 -26.5 226.5t-92.5 61.5q-50 0 -77.5 -23t-38.5 -66.5t-13 -170.5
q-29 -8 -44 -8l-36 6q0 234 52.5 333t153.5 99t151.5 -94t50.5 -371v-236q0 -121 38.5 -184t107.5 -63h26v446q0 274 72 388t239 114q183 0 249 -206q67 206 250 206q168 0 239 -114t71 -388v-616h-80zM1360 -167q-59 37 -157 37q-60 0 -101 -19t-41 -51q0 -48 137.5 -77.5
t214.5 -79t77 -137.5q0 -96 -74.5 -161t-189.5 -65q-109 0 -218 69t-140 160l38 26q27 -42 121.5 -74t178.5 -32q78 0 138.5 25t60.5 66q0 40 -43.5 67t-170.5 55t-171 62t-44 83q0 71 66.5 117t165.5 46q67 0 110.5 -13t80.5 -33zM1840 850q59 125 164 196.5t224 71.5
q195 0 311.5 -130t116.5 -330q0 -219 -103 -349.5t-276 -130.5q-65 0 -117 37t-52 92q0 125 109 216l67 -51q-43 -43 -43 -95q0 -43 26 -64.5t66 -21.5q93 0 158 104t65 256q0 139 -87 223t-238 84q-111 0 -194 -40t-123 -114z" />
    <glyph glyph-name="uni1B09" unicode="&#x1b09;" horiz-adv-x="1534" 
d="M1324 -1118v292q0 177 -92.5 257.5t-297.5 80.5q-206 0 -298 -82t-92 -252v-296h-47q-172 0 -269.5 116.5t-97.5 325.5q0 176 106.5 345.5t383.5 403.5t369.5 373t92.5 275q0 107 -58 167t-154 60q-104 0 -164 -67.5t-62 -192.5q-29 -8 -44 -8l-36 6q0 197 78.5 314.5
t224.5 117.5q143 0 229 -108.5t86 -295.5q0 -162 -67 -311.5t-204.5 -288.5t-327.5 -290t-271.5 -271t-81.5 -234t66.5 -190.5t141.5 -76.5h26v126q0 245 119.5 374.5t349.5 129.5q226 0 348.5 -124.5t122.5 -380.5v-295h-80z" />
    <glyph glyph-name="uni1B0A" unicode="&#x1b0a;" horiz-adv-x="2176" 
d="M1324 -1118v292q0 177 -92.5 257.5t-297.5 80.5q-206 0 -298 -82t-92 -252v-296h-47q-172 0 -269.5 116.5t-97.5 325.5q0 176 106.5 345.5t383.5 403.5t369.5 373t92.5 275q0 107 -58 167t-154 60q-104 0 -164 -67.5t-62 -192.5q-29 -8 -44 -8l-36 6q0 197 78.5 314.5
t224.5 117.5q143 0 229 -108.5t86 -295.5q0 -162 -67 -311.5t-204.5 -288.5t-327.5 -290t-271.5 -271t-81.5 -234t66.5 -190.5t141.5 -76.5h26v126q0 245 119.5 374.5t349.5 129.5q226 0 348.5 -124.5t122.5 -380.5v-295h-80zM1260 850q59 125 164 196.5t224 71.5
q195 0 311.5 -130t116.5 -330q0 -219 -103 -349.5t-276 -130.5q-65 0 -117 37t-52 92q0 125 109 216l67 -51q-43 -43 -43 -95q0 -43 26 -64.5t66 -21.5q93 0 158 104t65 256q0 139 -87 223t-238 84q-111 0 -194 -40t-123 -114z" />
    <glyph glyph-name="uni1B0B" unicode="&#x1b0b;" horiz-adv-x="1653" 
d="M1443 0v626q0 304 -149 304h-26v-448q0 -245 -107.5 -373.5t-321.5 -128.5q-215 0 -323 123.5t-108 360.5v196q0 165 -26.5 226.5t-92.5 61.5q-50 0 -77.5 -23t-38.5 -66.5t-13 -170.5q-29 -8 -44 -8l-36 6q0 234 52.5 333t153.5 99t151.5 -94t50.5 -371v-167
q0 -180 82 -258t268 -78q187 0 268.5 81t81.5 251v618h47q105 0 169 -43t91.5 -132.5t27.5 -289.5v-635h-80zM990 -217q-59 37 -157 37q-60 0 -101 -19t-41 -51q0 -48 137.5 -77.5t214.5 -79t77 -137.5q0 -96 -74.5 -161t-189.5 -65q-109 0 -218 69t-140 160l38 26
q27 -42 121.5 -74t178.5 -32q78 0 138.5 25t60.5 66q0 40 -43.5 67t-170.5 55t-171 62t-44 83q0 71 66.5 117t165.5 46q67 0 110.5 -13t80.5 -33z" />
    <glyph glyph-name="uni1B0C" unicode="&#x1b0c;" horiz-adv-x="2496" 
d="M1443 0v626q0 304 -149 304h-26v-448q0 -245 -107.5 -373.5t-321.5 -128.5q-215 0 -323 123.5t-108 360.5v196q0 165 -26.5 226.5t-92.5 61.5q-50 0 -77.5 -23t-38.5 -66.5t-13 -170.5q-29 -8 -44 -8l-36 6q0 234 52.5 333t153.5 99t151.5 -94t50.5 -371v-167
q0 -180 82 -258t268 -78q187 0 268.5 81t81.5 251v618h47q105 0 169 -43t91.5 -132.5t27.5 -289.5v-635h-80zM990 -217q-59 37 -157 37q-60 0 -101 -19t-41 -51q0 -48 137.5 -77.5t214.5 -79t77 -137.5q0 -96 -74.5 -161t-189.5 -65q-109 0 -218 69t-140 160l38 26
q27 -42 121.5 -74t178.5 -32q78 0 138.5 25t60.5 66q0 40 -43.5 67t-170.5 55t-171 62t-44 83q0 71 66.5 117t165.5 46q67 0 110.5 -13t80.5 -33zM1580 850q59 125 164 196.5t224 71.5q195 0 311.5 -130t116.5 -330q0 -219 -103 -349.5t-276 -130.5q-65 0 -117 37t-52 92
q0 125 109 216l67 -51q-43 -43 -43 -95q0 -43 26 -64.5t66 -21.5q93 0 158 104t65 256q0 139 -87 223t-238 84q-111 0 -194 -40t-123 -114z" />
    <glyph glyph-name="uni1B0D" unicode="&#x1b0d;" horiz-adv-x="1940" 
d="M2090 -432q-55 -37 -132 -56.5t-150 -19.5l-51 1q-65 -310 -177 -613l-80 20l10 32q-4 67 -101.5 117t-348.5 107t-391.5 110.5t-214.5 129.5t-74 176q0 120 102 204t261 84q208 0 493 -117.5t441 -140.5q63 353 63 656q0 690 -270 690q-85 0 -145.5 -58t-69.5 -157h-69
q0 84 -64.5 149.5t-150.5 65.5q-126 0 -178.5 -80t-52.5 -252v-616h-47q-103 0 -167.5 43t-91 131.5t-26.5 290.5v195q0 165 -26.5 226.5t-92.5 61.5q-50 0 -77.5 -23t-38.5 -66.5t-13 -170.5q-29 -8 -44 -8l-36 6q0 234 52.5 333t153.5 99t151.5 -94t50.5 -371v-236
q0 -121 38.5 -184t107.5 -63h26v446q0 274 72 388t239 114q183 0 249 -206q67 206 250 206q179 0 274.5 -217.5t95.5 -632.5q0 -336 -63 -675l21 -1q174 0 259 47zM1551 -935q69 238 108 436q-193 22 -501 115.5t-477 93.5q-201 0 -201 -142q0 -99 134 -174t497.5 -157.5
t439.5 -171.5z" />
    <glyph glyph-name="uni1B0E" unicode="&#x1b0e;" horiz-adv-x="2353" 
d="M1500 -1100l10 32q-4 67 -101.5 117t-348.5 107t-391.5 110.5t-214.5 129.5t-74 176q0 120 102 204t261 84q208 0 493 -117.5t441 -140.5q63 353 63 656q0 690 -270 690q-85 0 -145.5 -58t-69.5 -157h-69q0 84 -64.5 149.5t-150.5 65.5q-126 0 -178.5 -80t-52.5 -252
v-616h-47q-103 0 -167.5 43t-91 131.5t-26.5 290.5v195q0 165 -26.5 226.5t-92.5 61.5q-50 0 -77.5 -23t-38.5 -66.5t-13 -170.5q-29 -8 -44 -8l-36 6q0 234 52.5 333t153.5 99t151.5 -94t50.5 -371v-236q0 -121 38.5 -184t107.5 -63h26v446q0 274 72 388t239 114
q183 0 249 -206q67 206 250 206q179 0 274.5 -217.5t95.5 -632.5q0 -336 -63 -675l21 -1q149 0 243 89t217 89q69 0 114.5 -49.5t45.5 -126.5q0 -126 -108 -195q66 -20 104.5 -74t38.5 -126q0 -132 -88 -214.5t-224 -82.5q-101 0 -184 53t-139 144l62 59q38 -58 103 -82
t158 -24q119 0 170.5 39.5t51.5 116.5q0 56 -47 91.5t-137 35.5h-78l9 80h65q62 0 107.5 41t45.5 92q0 54 -22 76.5t-74 22.5q-94 0 -214 -77.5t-261 -77.5q-65 -307 -177 -612zM1551 -935q64 221 107 432q-166 16 -486.5 114.5t-490.5 98.5q-201 0 -201 -142
q0 -99 134 -174t497.5 -157.5t439.5 -171.5z" />
    <glyph glyph-name="uni1B0F" unicode="&#x1b0f;" horiz-adv-x="1471" 
d="M1249 -20l2 32v32q0 180 -116 283.5t-313 103.5q-199 0 -314 -111t-115 -295v-49q-129 77 -201 227.5t-72 333.5q0 175 73.5 312t215 219t300.5 82q61 0 127 -11l-23 -96q-56 7 -102 7q-207 0 -349 -139.5t-142 -365.5q0 -240 109 -360q41 188 175.5 302t314.5 114
q236 0 384 -155t148 -394v-26l-1 -25z" />
    <glyph glyph-name="uni1B10" unicode="&#x1b10;" horiz-adv-x="2343" 
d="M2045 -616q0 -259 -75.5 -380.5t-245.5 -121.5q-100 0 -161.5 103t-148.5 103t-147.5 -103t-161.5 -103q-168 0 -266 120t-98 320q0 168 97.5 322.5t378 378t378.5 377t98 321.5q0 106 -59.5 166.5t-163.5 60.5q-85 0 -145.5 -58t-69.5 -157h-69q0 84 -64.5 149.5
t-150.5 65.5q-126 0 -178.5 -80t-52.5 -252v-616h-47q-103 0 -167.5 43t-91 131.5t-26.5 290.5v195q0 165 -26.5 226.5t-92.5 61.5q-50 0 -77.5 -23t-38.5 -66.5t-13 -170.5q-29 -8 -44 -8l-36 6q0 234 52.5 333t153.5 99t151.5 -94t50.5 -371v-236q0 -121 38.5 -184
t107.5 -63h26v446q0 274 72 388t239 114q183 0 249 -206q67 206 250 206q153 0 238 -105.5t85 -298.5q0 -179 -62.5 -335.5t-195.5 -295t-344 -294t-280.5 -261.5t-69.5 -211q0 -127 74.5 -196t209.5 -69q69 0 112 38t81.5 107.5t95.5 69.5q73 0 132.5 -107.5t157.5 -107.5
q153 0 207 81t54 251v1659q-144 21 -231 114t-87 229q0 85 45.5 134.5t124.5 49.5q96 0 159.5 -102.5t68.5 -255.5q88 0 153.5 67t75.5 184l69 -43q-13 -171 -95 -273.5t-203 -105.5v-1657zM1796.5 1266q59.5 -45 168.5 -54q-4 112 -46.5 185t-97.5 73q-84 0 -84 -83
q0 -76 59.5 -121z" />
    <glyph glyph-name="uni1B11" unicode="&#x1b11;" horiz-adv-x="2014" 
d="M1934 -1118v292q0 177 -92.5 257.5t-297.5 80.5q-206 0 -298 -82t-92 -252v-296h-47q-171 0 -268.5 116t-97.5 326q0 169 98.5 322.5t377 376t377.5 376t99 322.5q0 106 -59.5 166.5t-163.5 60.5q-85 0 -145.5 -58t-69.5 -157h-69q0 84 -64.5 149.5t-150.5 65.5
q-126 0 -178.5 -80t-52.5 -252v-616h-47q-103 0 -167.5 43t-91 131.5t-26.5 290.5v195q0 165 -26.5 226.5t-92.5 61.5q-50 0 -77.5 -23t-38.5 -66.5t-13 -170.5q-29 -8 -44 -8l-36 6q0 234 52.5 333t153.5 99t151.5 -94t50.5 -371v-236q0 -121 38.5 -184t107.5 -63h26v446
q0 274 72 388t239 114q183 0 249 -206q67 206 250 206q153 0 238 -105.5t85 -298.5q0 -179 -62.5 -335.5t-195.5 -295t-344 -294t-280.5 -261.5t-69.5 -211q0 -99 60.5 -182t146.5 -83h26v126q0 245 119.5 374.5t349.5 129.5q226 0 348.5 -124.5t122.5 -380.5v-295h-80z" />
    <glyph glyph-name="uni1B12" unicode="&#x1b12;" horiz-adv-x="2786" 
d="M1934 -1118v292q0 177 -92.5 257.5t-297.5 80.5q-206 0 -298 -82t-92 -252v-296h-47q-171 0 -268.5 116t-97.5 326q0 169 98.5 322.5t377 376t377.5 376t99 322.5q0 106 -59.5 166.5t-163.5 60.5q-85 0 -145.5 -58t-69.5 -157h-69q0 84 -64.5 149.5t-150.5 65.5
q-126 0 -178.5 -80t-52.5 -252v-616h-47q-103 0 -167.5 43t-91 131.5t-26.5 290.5v195q0 165 -26.5 226.5t-92.5 61.5q-50 0 -77.5 -23t-38.5 -66.5t-13 -170.5q-29 -8 -44 -8l-36 6q0 234 52.5 333t153.5 99t151.5 -94t50.5 -371v-236q0 -121 38.5 -184t107.5 -63h26v446
q0 274 72 388t239 114q183 0 249 -206q67 206 250 206q153 0 238 -105.5t85 -298.5q0 -179 -62.5 -335.5t-195.5 -295t-344 -294t-280.5 -261.5t-69.5 -211q0 -99 60.5 -182t146.5 -83h26v126q0 245 119.5 374.5t349.5 129.5q226 0 348.5 -124.5t122.5 -380.5v-295h-80z
M1870 850q59 125 164 196.5t224 71.5q195 0 311.5 -130t116.5 -330q0 -219 -103 -349.5t-276 -130.5q-65 0 -117 37t-52 92q0 125 109 216l67 -51q-43 -43 -43 -95q0 -43 26 -64.5t66 -21.5q93 0 158 104t65 256q0 139 -87 223t-238 84q-111 0 -194 -40t-123 -114z" />
    <glyph glyph-name="uni1B13" unicode="&#x1b13;" horiz-adv-x="2275" 
d="M2065 0v626q0 304 -149 304h-26v-709q0 -111 -44 -176t-120 -65q-95 0 -140.5 83t-45.5 309v240q0 178 -97.5 257t-301.5 79q-206 0 -309 -86t-103 -250v-4q288 -15 450 -119.5t162 -285.5q0 -103 -73.5 -163t-198.5 -60q-153 0 -286.5 121t-133.5 312v27l-112 -5v-63
q0 -204 -56 -298t-167 -94q-77 0 -126 60.5t-49 148.5q0 144 84.5 249t233.5 148v74q0 145 -35.5 216.5t-112.5 71.5q-73 0 -109.5 -49.5t-39.5 -210.5q-29 -8 -44 -8l-36 6q0 230 59.5 331t180.5 101q105 0 161 -97t56 -368v-50q28 4 112 7v44q0 219 130.5 341.5
t358.5 122.5q237 0 359.5 -129t122.5 -374v-250q0 -134 22.5 -184.5t86.5 -50.5q38 0 59.5 44t21.5 109v817h47q105 0 169 -43t91.5 -132.5t27.5 -289.5v-635h-80zM729 407q0 -156 111 -241.5t240 -85.5q69 0 115 25t46 69q0 106 -141.5 177t-370.5 86v-30zM457 421
q-112 -27 -170 -84.5t-58 -136.5q0 -120 89 -120q139 0 139 285v56z" />
    <glyph glyph-name="uni1B14" unicode="&#x1b14;" horiz-adv-x="2316" 
d="M2300 -200q-12 94 -91.5 142t-274.5 48q-198 0 -296 102t-98 313v207q0 178 -97.5 257t-301.5 79q-219 0 -315.5 -76t-96.5 -235v-29q288 -15 450 -119.5t162 -285.5q0 -103 -73.5 -163t-198.5 -60q-153 0 -286.5 121t-133.5 312v26q-72 0 -112 -4v-63q0 -204 -56 -298
t-167 -94q-77 0 -126 60.5t-49 148.5q0 144 84.5 249t233.5 148v74q0 145 -35.5 216.5t-112.5 71.5q-73 0 -109.5 -49.5t-39.5 -210.5q-29 -8 -44 -8l-36 6q0 230 59.5 331t180.5 101q105 0 161 -97t56 -368v-50q40 7 112 7v44q0 219 130.5 341.5t358.5 122.5
q237 0 359.5 -129t122.5 -374v-199q0 -131 78 -192.5t256 -64t285 -88t127 -251.5zM729 407q0 -156 111 -241.5t240 -85.5q69 0 115 25t46 69q0 106 -141.5 177t-370.5 86v-30zM457 421q-112 -27 -170 -84.5t-58 -136.5q0 -120 89 -120q139 0 139 285v56z" />
    <glyph glyph-name="uni1B15" unicode="&#x1b15;" horiz-adv-x="2237" 
d="M1852 465q0 -203 -26 -290.5t-90.5 -131t-168.5 -43.5h-47v612q0 179 -94 257.5t-296 78.5q-207 0 -298.5 -81.5t-91.5 -250.5v-616h-47q-103 0 -167.5 43t-91 131.5t-26.5 290.5v195q0 165 -26.5 226.5t-92.5 61.5q-50 0 -77.5 -23t-38.5 -66.5t-13 -170.5
q-29 -8 -44 -8l-36 6q0 234 52.5 333t153.5 99t151.5 -94t50.5 -371v-236q0 -121 38.5 -184t107.5 -63h26v446q0 244 119 373t350 129q226 0 348.5 -123.5t122.5 -379.5v-445h26q70 0 108 63t38 184v683h47q105 0 169 -43t91.5 -132.5t27.5 -289.5v-635h-80v626
q0 304 -149 304h-26v-465z" />
    <glyph glyph-name="uni1B16" unicode="&#x1b16;" horiz-adv-x="2392" 
d="M889 930q-149 0 -149 -304v-626h-47q-103 0 -167.5 43t-91 131.5t-26.5 290.5v195q0 165 -26.5 226.5t-92.5 61.5q-50 0 -77.5 -23t-38.5 -66.5t-13 -170.5q-29 -8 -44 -8l-36 6q0 234 52.5 333t153.5 99t151.5 -94t50.5 -371v-236q0 -121 38.5 -184t107.5 -63h26v465
q0 202 27.5 291t92.5 131.5t168 42.5h47v-618q0 -179 43.5 -255.5t147.5 -76.5q69 0 112 38t81.5 107.5t95.5 69.5q73 0 132.5 -107.5t157.5 -107.5q104 0 147 76.5t43 255.5v53q0 167 -81.5 281t-226.5 114q87 188 277 188q167 0 252.5 -122.5t85.5 -360.5v-635h-80v626
q0 151 -56 236.5t-165 85.5q-46 0 -79 -14q78 -64 115.5 -151t37.5 -224v-77q0 -272 -58.5 -387t-191.5 -115q-100 0 -161.5 103t-148.5 103t-147.5 -103t-161.5 -103q-135 0 -193 118t-58 384v448h-26z" />
    <glyph glyph-name="uni1B17" unicode="&#x1b17;" horiz-adv-x="1910" 
d="M1700 0v616q0 172 -52 252t-178 80q-85 0 -145.5 -58t-69.5 -157h-69q0 84 -64.5 149.5t-150.5 65.5q-126 0 -178.5 -80t-52.5 -252v-616h-47q-103 0 -167.5 43t-91 131.5t-26.5 290.5v195q0 165 -26.5 226.5t-92.5 61.5q-50 0 -77.5 -23t-38.5 -66.5t-13 -170.5
q-29 -8 -44 -8l-36 6q0 234 52.5 333t153.5 99t151.5 -94t50.5 -371v-236q0 -121 38.5 -184t107.5 -63h26v446q0 274 72 388t239 114q183 0 249 -206q67 206 250 206q168 0 239 -114t71 -388v-616h-80z" />
    <glyph glyph-name="uni1B18" unicode="&#x1b18;" horiz-adv-x="1627" 
d="M1270 420q-3 -229 -64.5 -334.5t-179.5 -105.5q-134 0 -265 184.5t-224 221.5v-14q0 -204 -56 -298t-167 -94q-77 0 -126 60.5t-49 148.5q0 163 89 267.5t229 112.5v91q0 145 -35.5 216.5t-112.5 71.5q-73 0 -109.5 -49.5t-39.5 -210.5q-29 -8 -44 -8l-36 6
q0 230 59.5 331t180.5 101q105 0 161 -97t56 -368v-90q80 -18 157 -83.5t175.5 -197.5t153.5 -132q82 0 123 66.5t44 233.5v85q0 167 -81.5 281t-226.5 114q87 188 277 188q167 0 252.5 -122.5t85.5 -360.5v-635h-80v626q0 151 -56 236.5t-165 85.5q-46 0 -79 -14
q78 -64 115.5 -151t37.5 -224v-139zM457 365v34q-228 -5 -228 -199q0 -120 89 -120q139 0 139 285z" />
    <glyph glyph-name="uni1B19" unicode="&#x1b19;" horiz-adv-x="2155" 
d="M1945 626q0 304 -149 304h-26v-448q0 -245 -107.5 -373.5t-321.5 -128.5q-215 0 -323 123.5t-108 360.5v148q0 180 -82 258t-268 78q-187 0 -268.5 -81t-81.5 -251v-178q0 -165 26.5 -226.5t92.5 -61.5q54 0 81.5 33t36.5 86t11 171q29 8 44 8l36 -6q0 -245 -53 -353.5
t-153 -108.5q-101 0 -151.5 94t-50.5 371v171q0 245 107.5 373.5t321.5 128.5q431 0 431 -503v-129q0 -180 82 -258t268 -78q187 0 268.5 81t81.5 251v618h47q105 0 169 -43t91.5 -132.5t27.5 -289.5v-635h-80v626z" />
    <glyph glyph-name="uni1B1A" unicode="&#x1b1a;" horiz-adv-x="1800" 
d="M1590 0v118q0 135 -99.5 206t-289.5 71h-92l10 80h99q166 0 259 60.5t93 168.5q0 112 -111.5 178t-305.5 66q-221 0 -317 -81.5t-96 -250.5v-616h-47q-103 0 -167.5 43t-91 131.5t-26.5 290.5v195q0 165 -26.5 226.5t-92.5 61.5q-50 0 -77.5 -23t-38.5 -66.5t-13 -170.5
q-29 -8 -44 -8l-36 6q0 234 52.5 333t153.5 99t151.5 -94t50.5 -371v-236q0 -121 38.5 -184t107.5 -63h26v446q0 245 127 373.5t366 128.5q244 0 380.5 -104.5t136.5 -295.5q0 -90 -56.5 -167t-158.5 -117q215 -85 215 -322v-112h-80z" />
    <glyph glyph-name="uni1B1B" unicode="&#x1b1b;" horiz-adv-x="2473" 
d="M2045 -616q0 -259 -75.5 -380.5t-245.5 -121.5q-100 0 -161.5 103t-148.5 103t-147.5 -103t-161.5 -103q-168 0 -266 120t-98 320q0 168 97.5 322.5t378 378t378.5 377t98 321.5q0 106 -59.5 166.5t-163.5 60.5q-85 0 -145.5 -58t-69.5 -157h-69q0 84 -64.5 149.5
t-150.5 65.5q-126 0 -178.5 -80t-52.5 -252v-616h-47q-103 0 -167.5 43t-91 131.5t-26.5 290.5v195q0 165 -26.5 226.5t-92.5 61.5q-50 0 -77.5 -23t-38.5 -66.5t-13 -170.5q-29 -8 -44 -8l-36 6q0 234 52.5 333t153.5 99t151.5 -94t50.5 -371v-236q0 -121 38.5 -184
t107.5 -63h26v446q0 274 72 388t239 114q183 0 249 -206q67 206 250 206q153 0 238 -105.5t85 -298.5q0 -179 -62.5 -335.5t-195.5 -295t-344 -294t-280.5 -261.5t-69.5 -211q0 -127 74.5 -196t209.5 -69q69 0 112 38t81.5 107.5t95.5 69.5q73 0 132.5 -107.5t157.5 -107.5
q153 0 207 81t54 251v1624q-149 43 -233.5 141t-84.5 227q0 83 47.5 138.5t127.5 55.5q112 0 167.5 -89t55.5 -288v-39q188 -20 268 -110t80 -291v-47h-80v38q0 93 -27.5 140t-61.5 65.5t-122 33.5l-57 9v-1608zM1965 1167v33q0 136 -33.5 203t-105.5 67q-48 0 -68.5 -25.5
t-20.5 -79.5q0 -69 57 -121t171 -77z" />
    <glyph glyph-name="uni1B1C" unicode="&#x1b1c;" horiz-adv-x="3090" 
d="M1700 616q0 172 -52 252t-178 80q-85 0 -145.5 -58t-69.5 -157h-69q0 84 -64.5 149.5t-150.5 65.5q-126 0 -178.5 -80t-52.5 -252v-616h-47q-103 0 -167.5 43t-91 131.5t-26.5 290.5v195q0 165 -26.5 226.5t-92.5 61.5q-50 0 -77.5 -23t-38.5 -66.5t-13 -170.5
q-29 -8 -44 -8l-36 6q0 234 52.5 333t153.5 99t151.5 -94t50.5 -371v-236q0 -121 38.5 -184t107.5 -63h26v446q0 274 72 388t239 114q183 0 249 -206q67 206 250 206q168 0 239 -114t71 -388v-446h26q70 0 108 63t38 184v128q0 251 144.5 412t361.5 161q235 0 383.5 -157.5
t148.5 -398.5q0 -277 -129 -429.5t-310 -152.5q-110 0 -181 43l51 80q23 -11 65 -17t76 -6q136 0 232 129.5t96 344.5q0 181 -117 287.5t-312 106.5q-199 0 -314 -111t-115 -295v-77q0 -203 -26 -290.5t-90.5 -131t-168.5 -43.5h-47v616z" />
    <glyph glyph-name="uni1B1D" unicode="&#x1b1d;" horiz-adv-x="2150" 
d="M1524 -210q-22 -189 -125.5 -289.5t-274.5 -100.5q-185 0 -292 136t-107 369v76q-136 4 -223 116.5t-87 312.5v249q0 155 -28.5 222t-88.5 67q-70 0 -102.5 -46t-35.5 -214q-29 -8 -44 -8l-36 6q0 251 61 341.5t168 90.5q93 0 139.5 -107.5t46.5 -358.5v-213
q0 -132 68.5 -209.5t161.5 -77.5q5 152 68 255t160 103q79 0 124.5 -49.5t45.5 -134.5q0 -137 -88 -230.5t-230 -112.5v-67q0 -155 87 -250.5t232 -95.5t231 62t103 178zM875 756q19 184 101 273t235 89q183 0 249 -206q67 206 250 206q168 0 239 -114t71 -388v-616h-80v616
q0 172 -52 252t-178 80q-85 0 -145.5 -58t-69.5 -157h-69q0 84 -64.5 149.5t-150.5 65.5q-139 0 -194.5 -51t-71.5 -160zM805 152q110 9 169 54.5t59 120.5q0 83 -84 83q-55 0 -97.5 -73.5t-46.5 -184.5z" />
    <glyph glyph-name="uni1B1E" unicode="&#x1b1e;" horiz-adv-x="2070" 
d="M795 756q19 184 101 273t235 89q183 0 249 -206q67 206 250 206q168 0 239 -114t71 -388v-616h-80v616q0 172 -52 252t-178 80q-85 0 -145.5 -58t-69.5 -157h-69q0 84 -64.5 149.5t-150.5 65.5q-139 0 -194.5 -51t-71.5 -160zM1214 250q-22 -189 -125.5 -289.5
t-274.5 -100.5q-185 0 -292 136t-107 369v294q0 155 -28.5 222t-88.5 67q-70 0 -102.5 -46t-35.5 -214q-29 -8 -44 -8l-36 6q0 251 61 341.5t168 90.5q93 0 139.5 -107.5t46.5 -358.5v-276q0 -155 87 -250.5t232 -95.5t231 62t103 178z" />
    <glyph glyph-name="uni1B1F" unicode="&#x1b1f;" horiz-adv-x="1913" 
d="M1495 1100q105 0 169 -43t91.5 -132.5t27.5 -289.5v-635h-80v626q0 304 -149 304h-26v-448q0 -272 -58.5 -387t-191.5 -115q-100 0 -162 103t-148 103q-87 0 -147.5 -103t-161.5 -103q-135 0 -193 118t-58 384v178q0 165 -26.5 226.5t-92.5 61.5q-50 0 -77.5 -23
t-38.5 -66.5t-13 -170.5q-29 -8 -44 -8l-36 6q0 234 52.5 333t153.5 99t151.5 -94t50.5 -371v-171q0 -179 43.5 -255.5t147.5 -76.5q69 0 112 38t81.5 107.5t95.5 69.5q73 0 132.5 -107.5t157.5 -107.5q104 0 147 76.5t43 255.5v618h47z" />
    <glyph glyph-name="uni1B20" unicode="&#x1b20;" horiz-adv-x="1658" 
d="M1528 1100v-618q0 -272 -58.5 -387t-191.5 -115q-100 0 -162 103t-148 103q-87 0 -147.5 -103t-161.5 -103q-135 0 -193 118t-58 384v178q0 165 -26.5 226.5t-92.5 61.5q-50 0 -77.5 -23t-38.5 -66.5t-13 -170.5q-29 -8 -44 -8l-36 6q0 234 52.5 333t153.5 99t151.5 -94
t50.5 -371v-171q0 -179 43.5 -255.5t147.5 -76.5q69 0 112 38t81.5 107.5t95.5 69.5q73 0 132.5 -107.5t157.5 -107.5q104 0 147 76.5t43 255.5v618h80z" />
    <glyph glyph-name="uni1B21" unicode="&#x1b21;" horiz-adv-x="2501" 
d="M2291 0v626q0 304 -149 304h-26v-709q0 -111 -44 -176t-120 -65q-95 0 -140.5 83t-45.5 309v289q0 287 -220 287q-66 0 -120.5 -37.5t-91.5 -100.5t-81 -116.5t-102 -53.5q-59 0 -102.5 54t-80.5 116.5t-92 100t-121 37.5q-82 0 -134 -47.5t-94 -182.5t-91.5 -180
t-129.5 -45q-115 0 -170.5 98.5t-55.5 333.5l36 6q15 0 44 -8q2 -129 15.5 -172.5t44.5 -65.5t88 -22q69 0 108 37.5t57 106.5l22 84q26 99 55.5 140t76.5 64t120 23q68 0 123.5 -38.5t90.5 -100.5t80 -115.5t109 -53.5q97 0 180.5 154t223.5 154q144 0 218 -117.5
t74 -336.5v-299q0 -134 22.5 -184.5t86.5 -50.5q38 0 59.5 44t21.5 109v817h47q105 0 169 -43t91.5 -132.5t27.5 -289.5v-635h-80z" />
    <glyph glyph-name="uni1B22" unicode="&#x1b22;" horiz-adv-x="2465" 
d="M2255 0v626q0 304 -149 304h-26v-709q0 -111 -44 -176t-120 -65q-95 0 -140.5 83t-45.5 309v244q0 165 -103 248.5t-331 83.5q-379 0 -379 -189q0 -81 120 -99.5t181 -43.5t98.5 -86.5t37.5 -164.5q0 -168 -139 -276.5t-358 -108.5q-231 0 -336.5 105t-105.5 325v249
q0 155 -28.5 222t-88.5 67q-70 0 -102.5 -46t-35.5 -214q-29 -8 -44 -8l-36 6q0 251 61 341.5t168 90.5q93 0 139.5 -107.5t46.5 -358.5v-213q0 -149 91 -219t271 -70q183 0 290 56.5t107 159.5q0 57 -38.5 86.5t-133.5 41t-152.5 39.5t-85 89t-27.5 143q0 151 132 252
t347 101q245 0 379.5 -131t134.5 -371v-251q0 -134 22.5 -184.5t86.5 -50.5q38 0 59.5 44t21.5 109v817h47q105 0 169 -43t91.5 -132.5t27.5 -289.5v-635h-80z" />
    <glyph glyph-name="uni1B23" unicode="&#x1b23;" horiz-adv-x="1625" 
d="M1130 -130l-65 161q-95 -51 -226 -51q-215 0 -323 123.5t-108 360.5v196q0 165 -26.5 226.5t-92.5 61.5q-50 0 -77.5 -23t-38.5 -66.5t-13 -170.5q-29 -8 -44 -8l-36 6q0 234 52.5 333t153.5 99t151.5 -94t50.5 -371v-167q0 -180 82 -258t268 -78q105 0 170 23l-48 120
q-54 136 -96 192.5t-89 56.5q-41 0 -64 -31t-25 -82l-66 5q0 107 37 193t103 86q59 0 119 -76t131 -255l70 -173q108 78 108 273v53q0 167 -81.5 281t-226.5 114q87 188 277 188q167 0 252.5 -122.5t85.5 -360.5v-635h-80v626q0 151 -56 236.5t-165 85.5q-46 0 -79 -14
q78 -64 115.5 -151t37.5 -224v-77q0 -279 -136 -403l70 -171z" />
    <glyph glyph-name="uni1B24" unicode="&#x1b24;" horiz-adv-x="2195" 
d="M530 475q0 -178 42 -251.5t124 -73.5q66 0 199 136.5t230 186.5v143q0 244 119 373t350 129q226 0 348.5 -123.5t122.5 -379.5v-615h-80v612q0 179 -94 257.5t-296 78.5q-207 0 -298.5 -81.5t-91.5 -250.5v-113q33 7 57 7q134 0 216.5 -87.5t82.5 -233.5
q0 -88 -49 -148.5t-126 -60.5q-109 0 -176.5 79t-81.5 227q-51 -35 -182.5 -170.5t-255.5 -135.5q-240 0 -240 465v215q0 153 -33.5 220.5t-107.5 67.5q-73 0 -109.5 -49.5t-39.5 -210.5q-29 -8 -44 -8l-36 6q0 230 59.5 331t180.5 101q104 0 157 -94t53 -371v-178z
M1205 326q3 -118 49 -182t128 -64q35 0 62 28.5t27 65.5q0 79 -51.5 122t-142.5 43q-35 0 -72 -13z" />
    <glyph glyph-name="uni1B25" unicode="&#x1b25;" horiz-adv-x="1885" 
d="M408 660q0 165 -26.5 226.5t-92.5 61.5q-50 0 -77.5 -23t-38.5 -66.5t-13 -170.5q-29 -8 -44 -8l-36 6q0 234 52.5 333t153.5 99t151.5 -94t50.5 -371v-171q0 -179 43.5 -255.5t147.5 -76.5q69 0 112 38t81.5 107.5t95.5 69.5q73 0 132.5 -107.5t157.5 -107.5
q104 0 147 76.5t43 255.5v53q0 167 -81.5 281t-226.5 114q87 188 277 188q167 0 252.5 -122.5t85.5 -360.5v-635h-80v626q0 151 -56 236.5t-165 85.5q-46 0 -79 -14q78 -64 115.5 -151t37.5 -224v-77q0 -272 -58.5 -387t-191.5 -115q-100 0 -162 103t-148 103
q-87 0 -147.5 -103t-161.5 -103q-135 0 -193 118t-58 384v178z" />
    <glyph glyph-name="uni1B26" unicode="&#x1b26;" horiz-adv-x="1750" 
d="M1540 0v612q0 178 -97.5 257t-301.5 79q-219 0 -315.5 -76t-96.5 -235v-29q288 -15 450 -119.5t162 -285.5q0 -103 -73.5 -163t-198.5 -60q-153 0 -286.5 121t-133.5 312v26q-72 0 -112 -4v-63q0 -204 -56 -298t-167 -94q-77 0 -126 60.5t-49 148.5q0 144 84.5 249
t233.5 148v74q0 145 -35.5 216.5t-112.5 71.5q-73 0 -109.5 -49.5t-39.5 -210.5q-29 -8 -44 -8l-36 6q0 230 59.5 331t180.5 101q105 0 161 -97t56 -368v-50q40 7 112 7v44q0 219 130.5 341.5t358.5 122.5q237 0 359.5 -129t122.5 -374v-615h-80zM729 407q0 -156 111 -241.5
t240 -85.5q69 0 115 25t46 69q0 106 -141.5 177t-370.5 86v-30zM457 421q-112 -27 -170 -84.5t-58 -136.5q0 -120 89 -120q139 0 139 285v56z" />
    <glyph glyph-name="uni1B27" unicode="&#x1b27;" horiz-adv-x="1653" 
d="M1443 0v626q0 304 -149 304h-26v-448q0 -245 -107.5 -373.5t-321.5 -128.5q-215 0 -323 123.5t-108 360.5v196q0 165 -26.5 226.5t-92.5 61.5q-50 0 -77.5 -23t-38.5 -66.5t-13 -170.5q-29 -8 -44 -8l-36 6q0 234 52.5 333t153.5 99t151.5 -94t50.5 -371v-167
q0 -180 82 -258t268 -78q187 0 268.5 81t81.5 251v618h47q105 0 169 -43t91.5 -132.5t27.5 -289.5v-635h-80z" />
    <glyph glyph-name="uni1B28" unicode="&#x1b28;" horiz-adv-x="1566" 
d="M1188 482v421q-144 21 -231 114t-87 229q0 85 45.5 134.5t124.5 49.5q96 0 159.5 -102.5t68.5 -255.5q88 0 153.5 67t75.5 184l69 -43q-13 -171 -95 -273.5t-203 -105.5v-419q0 -245 -107.5 -373.5t-321.5 -128.5q-215 0 -323 123.5t-108 360.5v196q0 165 -26.5 226.5
t-92.5 61.5q-50 0 -77.5 -23t-38.5 -66.5t-13 -170.5q-29 -8 -44 -8l-36 6q0 234 52.5 333t153.5 99t151.5 -94t50.5 -371v-167q0 -180 82 -258t268 -78q187 0 268.5 81t81.5 251zM1019.5 1126q59.5 -45 168.5 -54q-4 112 -46.5 185t-97.5 73q-84 0 -84 -83q0 -76 59.5 -121
z" />
    <glyph glyph-name="uni1B29" unicode="&#x1b29;" horiz-adv-x="2417" 
d="M2207 0v626q0 304 -149 304h-26v-465q0 -203 -26 -290.5t-90.5 -131t-168.5 -43.5h-47v616q0 172 -52 252t-178 80q-85 0 -145.5 -58t-69.5 -157h-69q0 84 -64.5 149.5t-150.5 65.5q-126 0 -178.5 -80t-52.5 -252v-616h-47q-103 0 -167.5 43t-91 131.5t-26.5 290.5v195
q0 165 -26.5 226.5t-92.5 61.5q-50 0 -77.5 -23t-38.5 -66.5t-13 -170.5q-29 -8 -44 -8l-36 6q0 234 52.5 333t153.5 99t151.5 -94t50.5 -371v-236q0 -121 38.5 -184t107.5 -63h26v446q0 274 72 388t239 114q183 0 249 -206q67 206 250 206q168 0 239 -114t71 -388v-446h26
q70 0 108 63t38 184v683h47q105 0 169 -43t91.5 -132.5t27.5 -289.5v-635h-80z" />
    <glyph glyph-name="uni1B2A" unicode="&#x1b2a;" horiz-adv-x="1895" 
d="M905 503q33 7 57 7q134 0 216.5 -87.5t82.5 -233.5q0 -88 -49 -148.5t-126 -60.5q-109 0 -176.5 79t-81.5 227q-46 -33 -198.5 -169.5t-265.5 -136.5q-102 0 -173 70t-71 175q0 92 74 180l62 -44q-46 -63 -46 -105q0 -48 31 -77t90 -29q125 0 264 137t230 186v143
q0 244 119 373t350 129q226 0 348.5 -123.5t122.5 -379.5v-615h-80v612q0 179 -94 257.5t-296 78.5q-207 0 -298.5 -81.5t-91.5 -250.5v-113zM905 326q3 -118 49 -182t128 -64q35 0 62 28.5t27 65.5q0 79 -51.5 122t-142.5 43q-35 0 -72 -13zM423 560l-8 99
q-13 173 -38.5 231t-78.5 58q-70 0 -102.5 -46t-35.5 -214q-29 -8 -44 -8l-36 6q0 251 61 341.5t168 90.5q79 0 121 -78.5t56 -280.5l17 -194z" />
    <glyph glyph-name="uni1B2B" unicode="&#x1b2b;" horiz-adv-x="1749" 
d="M137 471q-37 117 -37 231q0 203 184.5 309.5t518.5 106.5q148 0 250 -30l-16 -154q-84 14 -234 14q-172 0 -265.5 -42.5t-93.5 -118.5q0 -82 92 -132t239 -50h114v-78h-114q-143 0 -237 -52.5t-94 -135.5q0 -88 100.5 -138.5t287.5 -50.5q263 0 357.5 80.5t94.5 251.5
v618h47q105 0 169 -43t91.5 -132.5t27.5 -289.5v-635h-80v626q0 304 -149 304h-26v-448q0 -502 -529 -502q-231 0 -361 92.5t-130 252.5q0 86 45.5 149t128.5 93q-174 67 -174 234q0 101 72 179q-105 -41 -160.5 -110t-55.5 -160q0 -109 29 -200z" />
    <glyph glyph-name="uni1B2C" unicode="&#x1b2c;" horiz-adv-x="1964" 
d="M1754 0v626q0 157 -44 230.5t-115 73.5h-46v-520q0 -208 -68.5 -319t-197.5 -111q-226 0 -301 408q-75 -408 -301 -408q-130 0 -198 111.5t-68 318.5v249q0 155 -28.5 222t-88.5 67q-70 0 -102.5 -46t-35.5 -214q-29 -8 -44 -8l-36 6q0 251 61 341.5t168 90.5
q93 0 139.5 -107.5t46.5 -358.5v-213q0 -150 47.5 -219.5t144.5 -69.5q117 0 181 184t70 524l2 152h84q0 -454 65.5 -657t187.5 -203q103 0 147.5 74.5t44.5 214.5v661h67q150 0 224 -91.5t74 -373.5v-635h-80z" />
    <glyph glyph-name="uni1B2D" unicode="&#x1b2d;" horiz-adv-x="1730" 
d="M1520 0v612q0 179 -94 257.5t-296 78.5q-207 0 -298.5 -81.5t-91.5 -250.5v-151q0 -203 -26 -290.5t-90.5 -131t-168.5 -43.5h-47v660q0 165 -26.5 226.5t-92.5 61.5q-50 0 -77.5 -23t-38.5 -66.5t-13 -170.5q-29 -8 -44 -8l-36 6q0 234 52.5 333t153.5 99t151.5 -94
t50.5 -371v-483h26q70 0 108 63t38 184v199q0 244 119 373t350 129q226 0 348.5 -123.5t122.5 -379.5v-615h-80z" />
    <glyph glyph-name="uni1B2E" unicode="&#x1b2e;" horiz-adv-x="2505" 
d="M2295 0v626q0 304 -149 304h-26v-448q0 -245 -107.5 -373.5t-321.5 -128.5q-215 0 -323 123.5t-108 360.5v148q0 192 -58 264t-202 72q-111 0 -163 -29t-74.5 -96.5t-22.5 -206.5v-277q0 -197 -36.5 -278t-119.5 -81q-89 0 -132.5 70.5t-43.5 272.5v337
q0 165 -26.5 226.5t-92.5 61.5q-50 0 -77.5 -23t-38.5 -66.5t-13 -170.5q-29 -8 -44 -8l-36 6q0 234 52.5 333t153.5 99t151.5 -94t50.5 -371v-288q0 -145 20 -190t79 -45q73 0 73 211v275q0 275 78 388.5t261 113.5q184 0 262.5 -114.5t78.5 -388.5v-129q0 -180 82 -258
t268 -78q187 0 268.5 81t81.5 251v618h47q105 0 169 -43t91.5 -132.5t27.5 -289.5v-635h-80z" />
    <glyph glyph-name="uni1B2F" unicode="&#x1b2f;" horiz-adv-x="1625" 
d="M1415 0v626q0 151 -56 236.5t-165 85.5q-46 0 -79 -14q78 -64 115.5 -151t37.5 -224v-77q0 -245 -107.5 -373.5t-321.5 -128.5q-215 0 -323 123.5t-108 360.5v196q0 165 -26.5 226.5t-92.5 61.5q-50 0 -77.5 -23t-38.5 -66.5t-13 -170.5q-29 -8 -44 -8l-36 6
q0 234 52.5 333t153.5 99t151.5 -94t50.5 -371v-167q0 -180 82 -258t268 -78q187 0 268.5 81t81.5 251v53q0 167 -81.5 281t-226.5 114q87 188 277 188q167 0 252.5 -122.5t85.5 -360.5v-635h-80z" />
    <glyph glyph-name="uni1B30" unicode="&#x1b30;" horiz-adv-x="2237" 
d="M1626 170q70 0 108 63t38 184v683h47q105 0 169 -43t91.5 -132.5t27.5 -289.5v-635h-80v626q0 304 -149 304h-26v-465q0 -203 -26 -290.5t-90.5 -131t-168.5 -43.5h-47v612q0 179 -94 257.5t-296 78.5q-207 0 -298.5 -81.5t-91.5 -250.5v-616h-47q-103 0 -167.5 43
t-91 131.5t-26.5 290.5v195q0 165 -26.5 226.5t-92.5 61.5q-50 0 -77.5 -23t-38.5 -66.5t-13 -170.5q-29 -8 -44 -8l-36 6q0 234 52.5 333t153.5 99t151.5 -94t50.5 -371v-236q0 -121 38.5 -184t107.5 -63h26v446q0 244 119 373t350 129q226 0 348.5 -123.5t122.5 -379.5
v-445h26zM1235 -51l-42 273q-25 165 -57.5 226.5t-87.5 61.5q-32 0 -55.5 -24t-34.5 -68l-63 20q15 101 65 171.5t111 70.5q69 0 114 -85.5t77 -297.5l52 -328z" />
    <glyph glyph-name="uni1B31" unicode="&#x1b31;" horiz-adv-x="1653" 
d="M408 660q0 165 -26.5 226.5t-92.5 61.5q-50 0 -77.5 -23t-38.5 -66.5t-13 -170.5q-29 -8 -44 -8l-36 6q0 234 52.5 333t153.5 99t151.5 -94t50.5 -371v-167q0 -180 82 -258t268 -78q105 0 170 23l-48 120q-54 136 -96 192.5t-89 56.5q-41 0 -64 -31t-25 -82l-66 5
q0 107 37 193t103 86q59 0 119 -76t131 -255l70 -173q108 78 108 273v618h47q105 0 169 -43t91.5 -132.5t27.5 -289.5v-635h-80v626q0 304 -149 304h-26v-448q0 -279 -136 -403l70 -171l-72 -38l-65 161q-95 -51 -226 -51q-215 0 -323 123.5t-108 360.5v196z" />
    <glyph glyph-name="uni1B32" unicode="&#x1b32;" horiz-adv-x="1655" 
d="M1270 427q-3 -236 -64 -341.5t-180 -105.5q-134 0 -265 184.5t-224 221.5v-14q0 -204 -56 -298t-167 -94q-77 0 -126 60.5t-49 148.5q0 163 89 267.5t229 112.5v91q0 145 -35.5 216.5t-112.5 71.5q-73 0 -109.5 -49.5t-39.5 -210.5q-29 -8 -44 -8l-36 6q0 230 59.5 331
t180.5 101q105 0 161 -97t56 -368v-90q80 -18 157 -83.5t175.5 -197.5t153.5 -132q82 0 124.5 68.5t42.5 256.5v625h47q105 0 169 -43t91.5 -132.5t27.5 -289.5v-635h-80v626q0 304 -149 304h-26v-503zM457 365v34q-228 -5 -228 -199q0 -120 89 -120q139 0 139 285z" />
    <glyph glyph-name="uni1B33" unicode="&#x1b33;" horiz-adv-x="2505" 
d="M2295 0v626q0 304 -149 304h-26v-591q0 -197 -36.5 -278t-119.5 -81q-89 0 -132.5 70.5t-43.5 272.5v293q0 197 -50.5 264.5t-209.5 67.5q-143 0 -201.5 -72.5t-58.5 -263.5v-148q0 -238 -108 -361t-323 -123q-214 0 -321.5 128.5t-107.5 373.5v178q0 165 -26.5 226.5
t-92.5 61.5q-50 0 -77.5 -23t-38.5 -66.5t-13 -170.5q-29 -8 -44 -8l-36 6q0 234 52.5 333t153.5 99t151.5 -94t50.5 -371v-171q0 -171 81.5 -251.5t268.5 -80.5q186 0 268 77.5t82 258.5v129q0 275 79 389t262 114q184 0 261.5 -114.5t77.5 -387.5v-251q0 -145 20 -190
t79 -45q73 0 73 211v759h47q105 0 169 -43t91.5 -132.5t27.5 -289.5v-635h-80z" />
    <glyph glyph-name="uni1B34" unicode="&#x1b34;" 
d="M-376.5 1815.5q37.5 -37.5 37.5 -90.5q0 -52 -37.5 -89.5t-89.5 -37.5q-54 0 -90.5 38t-36.5 89q0 52 36.5 90t90.5 38q52 0 89.5 -37.5zM-614.5 1487.5q37.5 -37.5 37.5 -89.5q0 -53 -37.5 -90.5t-90.5 -37.5q-54 0 -90.5 38t-36.5 90q0 51 36.5 89t90.5 38
q53 0 90.5 -37.5zM-137.5 1487.5q37.5 -37.5 37.5 -89.5q0 -53 -37.5 -90.5t-90.5 -37.5t-89.5 38t-36.5 90q0 51 36.5 89t89.5 38t90.5 -37.5z" />
    <glyph glyph-name="uni1B35" unicode="&#x1b35;" horiz-adv-x="916" 
d="M0 850q59 125 164 196.5t224 71.5q195 0 311.5 -130t116.5 -330q0 -219 -103 -349.5t-276 -130.5q-65 0 -117 37t-52 92q0 125 109 216l67 -51q-43 -43 -43 -95q0 -43 26 -64.5t66 -21.5q93 0 158 104t65 256q0 139 -87 223t-238 84q-111 0 -194 -40t-123 -114z" />
    <glyph glyph-name="uni1B36" unicode="&#x1b36;" 
d="M-350 1320q66 95 83 147t17 126q0 120 -80 183.5t-223 63.5q-153 0 -238.5 -64.5t-85.5 -182.5q0 -76 17 -127.5t83 -145.5l-50 -50q-130 160 -130 332q0 188 103 288t294 100q187 0 288.5 -101t101.5 -287q0 -170 -130 -332z" />
    <glyph glyph-name="uni1B37" unicode="&#x1b37;" 
d="M-462 1314l-48 106q-46 127 -65 153t-52 26q-62 0 -72 -87l-52 7q3 81 36 148.5t83 67.5q67 0 128.5 -144t103.5 -246zM-350 1320q66 95 83 147t17 126q0 120 -80 183.5t-223 63.5q-153 0 -238.5 -64.5t-85.5 -182.5q0 -76 17 -127.5t83 -145.5l-50 -50
q-130 160 -130 332q0 188 103 288t294 100q187 0 288.5 -101t101.5 -287q0 -170 -130 -332z" />
    <glyph glyph-name="uni1B38" unicode="&#x1b38;" 
d="M-316 -121q-15 -134 -74 -254t-179.5 -254t-120.5 -219q0 -110 117 -110q93 0 178 96.5t135 265.5t50 372v254h80v-254q0 -408 -117.5 -651t-305.5 -243q-106 0 -166.5 66t-60.5 179q0 125 136 274.5t193.5 266t78.5 237.5z" />
    <glyph glyph-name="uni1B39" unicode="&#x1b39;" 
d="M-135 10q-59 -149 -59 -236q0 -60 52.5 -93t106 -60t83.5 -78t30 -112q0 -135 -85 -269t-270 -280l-36 45q135 107 208 218.5t73 208.5q0 54 -37 96.5t-107.5 79.5t-99 67t-28.5 68q0 124 100 364z" />
    <glyph glyph-name="uni1B3A" unicode="&#x1b3a;" 
d="M-315 -1118l-64 156q-104 -46 -230 -46q-226 0 -353.5 128.5t-127.5 355.5v344h80v-322q0 -336 400 -336q98 0 171 20q-21 50 -83.5 189t-134.5 139q-41 0 -64 -31t-25 -82l-66 5q0 107 37 193t103 86q57 0 113.5 -69.5t136.5 -261.5l58 -139q154 82 154 283v326h80v-326
q0 -284 -179 -415l66 -159z" />
    <glyph glyph-name="uni1B3B" unicode="&#x1b3b;" horiz-adv-x="916" 
d="M0 850q59 125 164 196.5t224 71.5q195 0 311.5 -130t116.5 -330q0 -219 -103 -349.5t-276 -130.5q-65 0 -117 37t-52 92q0 125 109 216l67 -51q-43 -43 -43 -95q0 -43 26 -64.5t66 -21.5q93 0 158 104t65 256q0 139 -87 223t-238 84q-111 0 -194 -40t-123 -114z
M-315 -1118l-64 156q-104 -46 -230 -46q-226 0 -353.5 128.5t-127.5 355.5v344h80v-322q0 -336 400 -336q98 0 171 20q-21 50 -83.5 189t-134.5 139q-41 0 -64 -31t-25 -82l-66 5q0 107 37 193t103 86q57 0 113.5 -69.5t136.5 -261.5l58 -139q154 82 154 283v326h80v-326
q0 -284 -179 -415l66 -159zM-635 1088q63 0 63 -64q0 -61 -63 -61q-64 0 -64 61q0 64 64 64zM-645 215q63 0 63 -64q0 -61 -63 -61q-64 0 -64 61q0 64 64 64zM-235 668q63 0 63 -64q0 -61 -63 -61q-64 0 -64 61q0 64 64 64zM-1035 668q63 0 63 -64q0 -61 -63 -61
q-64 0 -64 61q0 64 64 64zM-355 938q63 0 63 -64q0 -61 -63 -61q-64 0 -64 61q0 64 64 64zM-915 938q63 0 63 -64q0 -61 -63 -61q-64 0 -64 61q0 64 64 64zM-355 398q63 0 63 -64q0 -61 -63 -61q-64 0 -64 61q0 64 64 64zM-915 398q63 0 63 -64q0 -61 -63 -61q-64 0 -64 61
q0 64 64 64z" />
    <glyph glyph-name="uni1B3C" unicode="&#x1b3c;" 
d="M-130 -628q0 -247 -79 -368.5t-245 -121.5q-172 0 -254 113t-82 358q0 189 -51.5 258t-178.5 69q-138 0 -184 -73.5t-46 -258.5v-225q0 -111 -44 -176t-120 -65q-82 0 -124 71t-42 321v118q0 152 -23.5 220t-75.5 68t-72 -46t-22 -171q-29 -8 -44 -8q-6 0 -36 6
q0 217 44 303t127 86q89 0 135.5 -97t46.5 -368v-118q0 -155 16.5 -195t72.5 -40q38 0 59.5 44t21.5 109v163q0 263 74 382.5t235 119.5q170 0 240.5 -106.5t70.5 -385.5q0 -170 59 -238t200 -68q128 0 184.5 79.5t56.5 240.5v658h80v-658zM-785 1088q63 0 63 -64
q0 -61 -63 -61q-64 0 -64 61q0 64 64 64zM-795 215q63 0 63 -64q0 -61 -63 -61q-64 0 -64 61q0 64 64 64zM-385 668q63 0 63 -64q0 -61 -63 -61q-64 0 -64 61q0 64 64 64zM-1185 668q63 0 63 -64q0 -61 -63 -61q-64 0 -64 61q0 64 64 64zM-505 938q63 0 63 -64
q0 -61 -63 -61q-64 0 -64 61q0 64 64 64zM-1065 938q63 0 63 -64q0 -61 -63 -61q-64 0 -64 61q0 64 64 64zM-505 398q63 0 63 -64q0 -61 -63 -61q-64 0 -64 61q0 64 64 64zM-1065 398q63 0 63 -64q0 -61 -63 -61q-64 0 -64 61q0 64 64 64zM-1301 1656q187 297 356 415
t401 118q112 0 216.5 -61t177.5 -171l-794 -329l-36 64l609 260q-53 45 -102.5 61t-113.5 16q-170 0 -328.5 -97t-339.5 -309zM-1243 1270q-273 228 -412 402l89 92q132 -170 366 -441z" />
    <glyph glyph-name="uni1B3D" unicode="&#x1b3d;" horiz-adv-x="916" 
d="M0 850q59 125 164 196.5t224 71.5q195 0 311.5 -130t116.5 -330q0 -219 -103 -349.5t-276 -130.5q-65 0 -117 37t-52 92q0 125 109 216l67 -51q-43 -43 -43 -95q0 -43 26 -64.5t66 -21.5q93 0 158 104t65 256q0 139 -87 223t-238 84q-111 0 -194 -40t-123 -114z
M-130 -628q0 -247 -79 -368.5t-245 -121.5q-172 0 -254 113t-82 358q0 189 -51.5 258t-178.5 69q-138 0 -184 -73.5t-46 -258.5v-225q0 -111 -44 -176t-120 -65q-82 0 -124 71t-42 321v118q0 152 -23.5 220t-75.5 68t-72 -46t-22 -171q-29 -8 -44 -8q-6 0 -36 6
q0 217 44 303t127 86q89 0 135.5 -97t46.5 -368v-118q0 -155 16.5 -195t72.5 -40q38 0 59.5 44t21.5 109v163q0 263 74 382.5t235 119.5q170 0 240.5 -106.5t70.5 -385.5q0 -170 59 -238t200 -68q128 0 184.5 79.5t56.5 240.5v658h80v-658zM-785 1088q63 0 63 -64
q0 -61 -63 -61q-64 0 -64 61q0 64 64 64zM-795 215q63 0 63 -64q0 -61 -63 -61q-64 0 -64 61q0 64 64 64zM-385 668q63 0 63 -64q0 -61 -63 -61q-64 0 -64 61q0 64 64 64zM-1185 668q63 0 63 -64q0 -61 -63 -61q-64 0 -64 61q0 64 64 64zM-505 938q63 0 63 -64
q0 -61 -63 -61q-64 0 -64 61q0 64 64 64zM-1065 938q63 0 63 -64q0 -61 -63 -61q-64 0 -64 61q0 64 64 64zM-505 398q63 0 63 -64q0 -61 -63 -61q-64 0 -64 61q0 64 64 64zM-1065 398q63 0 63 -64q0 -61 -63 -61q-64 0 -64 61q0 64 64 64zM-1301 1656q187 297 356 415
t401 118q112 0 216.5 -61t177.5 -171l-794 -329l-36 64l609 260q-53 45 -102.5 61t-113.5 16q-170 0 -328.5 -97t-339.5 -309zM-1243 1270q-273 228 -412 402l89 92q132 -170 366 -441z" />
    <glyph glyph-name="uni1B3E" unicode="&#x1b3e;" horiz-adv-x="990" 
d="M60 686q0 173 107 302.5t296 129.5q206 0 316.5 -151t110.5 -434q0 -373 -157 -743t-157 -603q0 -136 35 -234l9 -32l-67 -39q-30 41 -53.5 146t-23.5 169q0 217 118.5 511t157 477.5t38.5 354.5q0 408 -324 408q-146 0 -235 -71t-91 -189q-29 -8 -44 -8z" />
    <glyph glyph-name="uni1B3F" unicode="&#x1b3f;" horiz-adv-x="990" 
d="M60 686q0 173 107 302.5t296 129.5q206 0 316.5 -151t110.5 -434q0 -373 -157 -743t-157 -603q0 -136 35 -234l9 -32l-67 -39q-30 41 -53.5 146t-23.5 169q0 217 118.5 511t157 477.5t38.5 354.5q0 408 -324 408q-146 0 -235 -71t-91 -189q-29 -8 -44 -8zM272 1352
q161 9 252.5 60t91.5 127q0 47 -76.5 62t-139 36.5t-95 76.5t-32.5 130q0 119 108 208.5t282 109.5l-7 -99q-108 -14 -195.5 -71.5t-87.5 -120.5q0 -38 27.5 -58.5t104.5 -36t121 -39t67 -69t23 -106.5q0 -128 -115 -210t-311 -98z" />
    <glyph glyph-name="uni1B40" unicode="&#x1b40;" horiz-adv-x="2986" 
d="M60 686q0 173 107 302.5t296 129.5q206 0 316.5 -151t110.5 -434q0 -373 -157 -743t-157 -603q0 -136 35 -234l9 -32l-67 -39q-30 41 -53.5 146t-23.5 169q0 217 118.5 511t157 477.5t38.5 354.5q0 408 -324 408q-146 0 -235 -71t-91 -189q-29 -8 -44 -8zM1514 1088
q63 0 63 -64q0 -61 -63 -61q-64 0 -64 61q0 64 64 64zM1504 215q63 0 63 -64q0 -61 -63 -61q-64 0 -64 61q0 64 64 64zM1914 668q63 0 63 -64q0 -61 -63 -61q-64 0 -64 61q0 64 64 64zM1114 668q63 0 63 -64q0 -61 -63 -61q-64 0 -64 61q0 64 64 64zM1794 938q63 0 63 -64
q0 -61 -63 -61q-64 0 -64 61q0 64 64 64zM1234 938q63 0 63 -64q0 -61 -63 -61q-64 0 -64 61q0 64 64 64zM1794 398q63 0 63 -64q0 -61 -63 -61q-64 0 -64 61q0 64 64 64zM1234 398q63 0 63 -64q0 -61 -63 -61q-64 0 -64 61q0 64 64 64zM2070 850q59 125 164 196.5t224 71.5
q195 0 311.5 -130t116.5 -330q0 -219 -103 -349.5t-276 -130.5q-65 0 -117 37t-52 92q0 125 109 216l67 -51q-43 -43 -43 -95q0 -43 26 -64.5t66 -21.5q93 0 158 104t65 256q0 139 -87 223t-238 84q-111 0 -194 -40t-123 -114z" />
    <glyph glyph-name="uni1B41" unicode="&#x1b41;" horiz-adv-x="2986" 
d="M60 686q0 173 107 302.5t296 129.5q206 0 316.5 -151t110.5 -434q0 -373 -157 -743t-157 -603q0 -136 35 -234l9 -32l-67 -39q-30 41 -53.5 146t-23.5 169q0 217 118.5 511t157 477.5t38.5 354.5q0 408 -324 408q-146 0 -235 -71t-91 -189q-29 -8 -44 -8zM272 1352
q161 9 252.5 60t91.5 127q0 47 -76.5 62t-139 36.5t-95 76.5t-32.5 130q0 119 108 208.5t282 109.5l-7 -99q-108 -14 -195.5 -71.5t-87.5 -120.5q0 -38 27.5 -58.5t104.5 -36t121 -39t67 -69t23 -106.5q0 -128 -115 -210t-311 -98zM1514 1088q63 0 63 -64q0 -61 -63 -61
q-64 0 -64 61q0 64 64 64zM1504 215q63 0 63 -64q0 -61 -63 -61q-64 0 -64 61q0 64 64 64zM1914 668q63 0 63 -64q0 -61 -63 -61q-64 0 -64 61q0 64 64 64zM1114 668q63 0 63 -64q0 -61 -63 -61q-64 0 -64 61q0 64 64 64zM1794 938q63 0 63 -64q0 -61 -63 -61q-64 0 -64 61
q0 64 64 64zM1234 938q63 0 63 -64q0 -61 -63 -61q-64 0 -64 61q0 64 64 64zM1794 398q63 0 63 -64q0 -61 -63 -61q-64 0 -64 61q0 64 64 64zM1234 398q63 0 63 -64q0 -61 -63 -61q-64 0 -64 61q0 64 64 64zM2070 850q59 125 164 196.5t224 71.5q195 0 311.5 -130
t116.5 -330q0 -219 -103 -349.5t-276 -130.5q-65 0 -117 37t-52 92q0 125 109 216l67 -51q-43 -43 -43 -95q0 -43 26 -64.5t66 -21.5q93 0 158 104t65 256q0 139 -87 223t-238 84q-111 0 -194 -40t-123 -114z" />
    <glyph glyph-name="uni1B42" unicode="&#x1b42;" 
d="M-1301 1656q187 297 356 415t401 118q112 0 216.5 -61t177.5 -171l-794 -329l-36 64l609 260q-53 45 -102.5 61t-113.5 16q-170 0 -328.5 -97t-339.5 -309zM-1243 1270q-273 228 -412 402l89 92q132 -170 366 -441z" />
    <glyph glyph-name="uni1B43" unicode="&#x1b43;" horiz-adv-x="916" 
d="M-1301 1656q187 297 356 415t401 118q112 0 216.5 -61t177.5 -171l-794 -329l-36 64l609 260q-53 45 -102.5 61t-113.5 16q-170 0 -328.5 -97t-339.5 -309zM-1243 1270q-273 228 -412 402l89 92q132 -170 366 -441zM0 850q59 125 164 196.5t224 71.5q195 0 311.5 -130
t116.5 -330q0 -219 -103 -349.5t-276 -130.5q-65 0 -117 37t-52 92q0 125 109 216l67 -51q-43 -43 -43 -95q0 -43 26 -64.5t66 -21.5q93 0 158 104t65 256q0 139 -87 223t-238 84q-111 0 -194 -40t-123 -114z" />
    <glyph glyph-name="uni1B44" unicode="&#x1b44;" horiz-adv-x="712" 
d="M280 -1118q-208 382 -208 838q0 391 185 893t185 860q0 244 -132.5 395t-353.5 151q-233 0 -353.5 -122t-162.5 -378q-29 -8 -44 -8l-36 6q9 296 170 484t423 188q276 0 442.5 -199.5t166.5 -570.5q0 -236 -36.5 -451t-142 -528t-138.5 -513t-33 -401q0 -120 26.5 -247
t117.5 -332z" />
    <glyph glyph-name="uni1B45" unicode="&#x1b45;" horiz-adv-x="2485" 
d="M738 770v-155l121 -5v44q0 219 130.5 341.5t358.5 122.5q237 0 359.5 -129t122.5 -374v-250q0 -134 22.5 -184.5t86.5 -50.5q38 0 59.5 44t21.5 109v817h47q105 0 169 -43t91.5 -132.5t27.5 -289.5v-635h-80v626q0 304 -149 304h-26v-709q0 -111 -44 -176t-120 -65
q-95 0 -140.5 83t-45.5 309v240q0 178 -97.5 257t-301.5 79q-203 0 -307.5 -88t-104.5 -257q314 -28 463 -125.5t149 -274.5q0 -103 -73.5 -163t-198.5 -60q-153 0 -286.5 121t-133.5 312v29q-39 3 -121 3v-449q0 -155 87 -250.5t232 -95.5t231 62t103 178l66 -20
q-22 -189 -125.5 -289.5t-274.5 -100.5q-185 0 -292 136t-107 369v458l-121 -8v-63q0 -204 -56 -298t-167 -94q-77 0 -126 60.5t-49 148.5q0 144 84.5 249t233.5 148v74q0 145 -35.5 216.5t-112.5 71.5q-73 0 -109.5 -49.5t-39.5 -210.5q-29 -8 -44 -8l-36 6q0 230 59.5 331
t180.5 101q105 0 161 -97t56 -368v-51l121 11v157h80zM939 437v-30q0 -156 111 -241.5t240 -85.5q69 0 115 25t46 69q0 106 -141.5 177t-370.5 86zM457 365v56q-112 -27 -170 -84.5t-58 -136.5q0 -120 89 -120q139 0 139 285z" />
    <glyph glyph-name="uni1B46" unicode="&#x1b46;" horiz-adv-x="3705" 
d="M3495 0v626q0 304 -149 304h-26v-591q0 -197 -36.5 -278t-119.5 -81q-89 0 -132.5 70.5t-43.5 272.5v293q0 197 -50.5 264.5t-209.5 67.5q-143 0 -201.5 -72.5t-58.5 -263.5v-148q0 -237 -113 -360.5t-328 -123.5q-228 0 -342.5 127.5t-114.5 374.5v130q0 336 -429 336
q-219 0 -315.5 -76t-96.5 -235v-29q288 -15 450 -119.5t162 -285.5q0 -103 -73.5 -163t-198.5 -60q-153 0 -286.5 121t-133.5 312v26q-72 0 -112 -4v-63q0 -204 -56 -298t-167 -94q-77 0 -126 60.5t-49 148.5q0 144 84.5 249t233.5 148v74q0 145 -35.5 216.5t-112.5 71.5
q-73 0 -109.5 -49.5t-39.5 -210.5q-29 -8 -44 -8l-36 6q0 230 59.5 331t180.5 101q105 0 161 -97t56 -368v-50q40 7 112 7v44q0 219 130.5 341.5t358.5 122.5q243 0 377.5 -131.5t134.5 -371.5v-133q0 -168 89 -250t289 -82q188 0 274 79t86 257v129q0 275 79 389t262 114
q184 0 261.5 -114.5t77.5 -387.5v-251q0 -145 20 -190t79 -45q73 0 73 211v759h47q105 0 169 -43t91.5 -132.5t27.5 -289.5v-635h-80zM729 407q0 -156 111 -241.5t240 -85.5q69 0 115 25t46 69q0 106 -141.5 177t-370.5 86v-30zM457 421q-112 -27 -170 -84.5t-58 -136.5
q0 -120 89 -120q139 0 139 285v56z" />
    <glyph glyph-name="uni1B47" unicode="&#x1b47;" horiz-adv-x="2465" 
d="M2255 0v626q0 304 -149 304h-26v-709q0 -111 -44 -176t-120 -65q-95 0 -140.5 83t-45.5 309v244q0 165 -103 248.5t-331 83.5q-379 0 -379 -189q0 -81 120 -99.5t181 -43.5t98.5 -86.5t37.5 -164.5q0 -168 -139 -276.5t-358 -108.5q-84 0 -149 13q0 -153 87.5 -248
t231.5 -95q145 0 231 62t103 178l66 -20q-22 -189 -125.5 -289.5t-274.5 -100.5q-185 0 -292 136t-107 369v31q-213 84 -213 394v249q0 155 -28.5 222t-88.5 67q-70 0 -102.5 -46t-35.5 -214q-29 -8 -44 -8l-36 6q0 251 61 341.5t168 90.5q93 0 139.5 -107.5t46.5 -358.5
v-213q0 -179 133 -246v577h80v-605q63 -15 149 -15q183 0 290 56.5t107 159.5q0 57 -38.5 86.5t-133.5 41t-152.5 39.5t-85 89t-27.5 143q0 151 132 252t347 101q245 0 379.5 -131t134.5 -371v-251q0 -134 22.5 -184.5t86.5 -50.5q38 0 59.5 44t21.5 109v817h47
q105 0 169 -43t91.5 -132.5t27.5 -289.5v-635h-80z" />
    <glyph glyph-name="uni1B48" unicode="&#x1b48;" horiz-adv-x="1653" 
d="M768 770v-617l70 -3q187 0 268.5 81t81.5 251v618h47q105 0 169 -43t91.5 -132.5t27.5 -289.5v-635h-80v626q0 304 -149 304h-26v-448q0 -245 -107.5 -373.5t-321.5 -128.5q-37 0 -71 4q3 -147 88.5 -240.5t230.5 -93.5t231 62t103 178l66 -20q-22 -189 -125.5 -289.5
t-274.5 -100.5q-185 0 -292 136t-107 369v14q-280 76 -280 465v196q0 165 -26.5 226.5t-92.5 61.5q-50 0 -77.5 -23t-38.5 -66.5t-13 -170.5q-29 -8 -44 -8l-36 6q0 234 52.5 333t153.5 99t151.5 -94t50.5 -371v-167q0 -142 48 -217.5t152 -102.5v604h80z" />
    <glyph glyph-name="uni1B49" unicode="&#x1b49;" horiz-adv-x="1625" 
d="M768 770v-617l70 -3q187 0 268.5 81t81.5 251v53q0 167 -81.5 281t-226.5 114q87 188 277 188q167 0 252.5 -122.5t85.5 -360.5v-635h-80v626q0 151 -56 236.5t-165 85.5q-46 0 -79 -14q78 -64 115.5 -151t37.5 -224v-77q0 -245 -107.5 -373.5t-321.5 -128.5q-37 0 -71 4
q3 -147 88.5 -240.5t230.5 -93.5t231 62t103 178l66 -20q-22 -189 -125.5 -289.5t-274.5 -100.5q-185 0 -292 136t-107 369v14q-280 76 -280 465v196q0 165 -26.5 226.5t-92.5 61.5q-50 0 -77.5 -23t-38.5 -66.5t-13 -170.5q-29 -8 -44 -8l-36 6q0 234 52.5 333t153.5 99
t151.5 -94t50.5 -371v-167q0 -142 48 -217.5t152 -102.5v604h80z" />
    <glyph glyph-name="uni1B4A" unicode="&#x1b4a;" horiz-adv-x="1655" 
d="M788 770v-387l68 -83q60 -82 98 -116t69 -34q82 0 124.5 68.5t42.5 256.5v625h47q105 0 169 -43t91.5 -132.5t27.5 -289.5v-635h-80v626q0 304 -149 304h-26v-503q0 -447 -244 -447q-57 0 -111.5 31t-126.5 118v-133q0 -155 87 -250.5t232 -95.5t231 62t103 178l66 -20
q-22 -189 -125.5 -289.5t-274.5 -100.5q-185 0 -292 136t-107 369v247q-94 122 -171 154v-14q0 -204 -56 -298t-167 -94q-77 0 -126 60.5t-49 148.5q0 163 89 267.5t229 112.5v91q0 145 -35.5 216.5t-112.5 71.5q-73 0 -109.5 -49.5t-39.5 -210.5q-29 -8 -44 -8l-36 6
q0 230 59.5 331t180.5 101q105 0 161 -97t56 -368v-90q87 -20 171 -97v304h80zM457 365v34q-228 -5 -228 -199q0 -120 89 -120q139 0 139 285z" />
    <glyph glyph-name="uni1B4B" unicode="&#x1b4b;" horiz-adv-x="2994" 
d="M2784 0v626q0 157 -44 230.5t-115 73.5h-46v-520q0 -208 -68.5 -319t-197.5 -111q-226 0 -301 408q-75 -408 -301 -408q-130 0 -198 111.5t-68 318.5v216q0 304 -149 304h-26v-503q0 -447 -244 -447q-134 0 -265 184.5t-224 221.5v-14q0 -204 -56 -298t-167 -94
q-77 0 -126 60.5t-49 148.5q0 163 89 267.5t229 112.5v91q0 145 -35.5 216.5t-112.5 71.5q-73 0 -109.5 -49.5t-39.5 -210.5q-29 -8 -44 -8l-36 6q0 230 59.5 331t180.5 101q105 0 161 -97t56 -368v-90q80 -18 157 -83.5t175.5 -197.5t153.5 -132q82 0 124.5 68.5
t42.5 256.5v625h47q105 0 169 -43t91.5 -132.5t27.5 -289.5v-196q0 -150 47.5 -219.5t144.5 -69.5q117 0 181 184t70 524l2 152h84q5 -388 37 -544t84.5 -236t131.5 -80q103 0 147.5 74.5t44.5 214.5v661h67q150 0 224 -91.5t74 -373.5v-635h-80zM457 365v34
q-228 -5 -228 -199q0 -120 89 -120q139 0 139 285z" />
    <glyph glyph-name="uni1B50" unicode="&#x1b50;" horiz-adv-x="966" 
d="M747.5 833.5q98.5 -126.5 98.5 -330.5q0 -203 -98.5 -325.5t-260.5 -122.5q-163 0 -265 124t-102 324q0 201 102 329t265 128q162 0 260.5 -126.5zM674 300.5q72 75.5 72 207.5t-71 207t-192 75q-120 0 -191.5 -74.5t-71.5 -207.5t72 -208t191 -75t191 75.5z" />
    <glyph glyph-name="uni1B51" unicode="&#x1b51;" horiz-adv-x="2420" 
d="M2420 1280q-13 -171 -95 -273.5t-203 -105.5v-436q0 -203 -26 -290.5t-90.5 -131t-168.5 -43.5h-137v616q0 172 -52 252t-178 80q-85 0 -145.5 -58t-69.5 -157h-69q0 84 -64.5 149.5t-150.5 65.5q-126 0 -178.5 -80t-52.5 -252v-616h-47q-103 0 -167.5 43t-91 131.5
t-26.5 290.5v195q0 165 -26.5 226.5t-92.5 61.5q-50 0 -77.5 -23t-38.5 -66.5t-13 -170.5q-29 -8 -44 -8l-36 6q0 234 52.5 333t153.5 99t151.5 -94t50.5 -371v-236q0 -121 38.5 -184t107.5 -63h26v446q0 274 72 388t239 114q183 0 249 -206q67 206 250 206q168 0 239 -114
t71 -388v-446h116q70 0 108 63t38 184v486q-144 21 -231 114t-87 229q0 85 45.5 134.5t124.5 49.5q96 0 159.5 -102.5t68.5 -255.5q88 0 153.5 67t75.5 184zM1873.5 1126q59.5 -45 168.5 -54q-4 112 -46.5 185t-97.5 73q-84 0 -84 -83q0 -76 59.5 -121z" />
    <glyph glyph-name="uni1B52" unicode="&#x1b52;" horiz-adv-x="1940" 
d="M2090 -432q-55 -37 -132 -56.5t-150 -19.5l-51 1q-65 -310 -177 -613l-80 20l10 32q-4 67 -101.5 117t-348.5 107t-391.5 110.5t-214.5 129.5t-74 176q0 120 102 204t261 84q208 0 493 -117.5t441 -140.5q63 353 63 656q0 690 -270 690q-85 0 -145.5 -58t-69.5 -157h-69
q0 84 -64.5 149.5t-150.5 65.5q-126 0 -178.5 -80t-52.5 -252v-616h-47q-103 0 -167.5 43t-91 131.5t-26.5 290.5v195q0 165 -26.5 226.5t-92.5 61.5q-50 0 -77.5 -23t-38.5 -66.5t-13 -170.5q-29 -8 -44 -8l-36 6q0 234 52.5 333t153.5 99t151.5 -94t50.5 -371v-236
q0 -121 38.5 -184t107.5 -63h26v446q0 274 72 388t239 114q183 0 249 -206q67 206 250 206q179 0 274.5 -217.5t95.5 -632.5q0 -336 -63 -675l21 -1q174 0 259 47zM1551 -935q69 238 108 436q-193 22 -501 115.5t-477 93.5q-201 0 -201 -142q0 -99 134 -174t497.5 -157.5
t439.5 -171.5z" />
    <glyph glyph-name="uni1B53" unicode="&#x1b53;" horiz-adv-x="2014" 
d="M1934 -1118v292q0 177 -92.5 257.5t-297.5 80.5q-206 0 -298 -82t-92 -252v-296h-47q-171 0 -268.5 116t-97.5 326q0 169 98.5 322.5t377 376t377.5 376t99 322.5q0 106 -59.5 166.5t-163.5 60.5q-85 0 -145.5 -58t-69.5 -157h-69q0 84 -64.5 149.5t-150.5 65.5
q-126 0 -178.5 -80t-52.5 -252v-616h-47q-103 0 -167.5 43t-91 131.5t-26.5 290.5v195q0 165 -26.5 226.5t-92.5 61.5q-50 0 -77.5 -23t-38.5 -66.5t-13 -170.5q-29 -8 -44 -8l-36 6q0 234 52.5 333t153.5 99t151.5 -94t50.5 -371v-236q0 -121 38.5 -184t107.5 -63h26v446
q0 274 72 388t239 114q183 0 249 -206q67 206 250 206q153 0 238 -105.5t85 -298.5q0 -179 -62.5 -335.5t-195.5 -295t-344 -294t-280.5 -261.5t-69.5 -211q0 -99 60.5 -182t146.5 -83h26v126q0 245 119.5 374.5t349.5 129.5q226 0 348.5 -124.5t122.5 -380.5v-295h-80z" />
    <glyph glyph-name="uni1B54" unicode="&#x1b54;" horiz-adv-x="1040" 
d="M440 726q34 105 99.5 169.5t144.5 64.5q88 0 148 -55.5t60 -140.5q0 -151 -119 -228q80 -25 123.5 -82t43.5 -133q0 -152 -98.5 -246.5t-261.5 -94.5q-204 0 -342 178t-138 439q0 139 44 260t130 211l77 -43q-69 -77 -110 -184.5t-41 -235.5q0 -221 98.5 -338t281.5 -117
q139 0 199.5 46t60.5 136q0 65 -54.5 104t-160.5 39h-92l10 80h77q73 8 122.5 49.5t49.5 86.5t-37 72t-90 27q-70 0 -115 -21.5t-74 -68.5z" />
    <glyph glyph-name="uni1B55" unicode="&#x1b55;" horiz-adv-x="1340" 
d="M1173 -1118q-43 54 -105 252t-62 363q0 247 62 530t62 552q0 254 -111.5 392.5t-327.5 138.5q-207 0 -349 -139.5t-142 -365.5q0 -221 98.5 -338t281.5 -117q139 0 199.5 46t60.5 136q0 65 -54.5 104t-160.5 39h-92l10 80h77q73 8 122.5 49.5t49.5 86.5t-37 72t-90 27
q-70 0 -115 -21.5t-74 -68.5l-36 26q34 105 99.5 169.5t144.5 64.5q88 0 148 -55.5t60 -140.5q0 -151 -119 -228q80 -25 123.5 -82t43.5 -133q0 -152 -98.5 -246.5t-261.5 -94.5q-204 0 -342 178t-138 439q0 175 73.5 312t215 219t300.5 82q256 0 398.5 -167t142.5 -476
q0 -195 -62 -528.5t-62 -551.5q0 -123 34 -264.5t88 -269.5l12 -32z" />
    <glyph glyph-name="uni1B56" unicode="&#x1b56;" horiz-adv-x="1471" 
d="M1249 -20l2 32v32q0 180 -116 283.5t-313 103.5q-199 0 -314 -111t-115 -295v-49q-129 77 -201 227.5t-72 333.5q0 175 73.5 312t215 219t300.5 82q61 0 127 -11l-23 -96q-56 7 -102 7q-207 0 -349 -139.5t-142 -365.5q0 -240 109 -360q41 188 175.5 302t314.5 114
q236 0 384 -155t148 -394v-26l-1 -25z" />
    <glyph glyph-name="uni1B57" unicode="&#x1b57;" horiz-adv-x="2238" 
d="M2238 1280q-13 -171 -95 -273.5t-203 -105.5v-418q0 -277 -79 -390t-262 -113q-184 0 -261.5 114.5t-77.5 387.5v130q0 192 -58 264t-202 72q-111 0 -163 -29t-74.5 -96.5t-22.5 -206.5v-616h-47q-103 0 -167.5 43t-91 131.5t-26.5 290.5v195q0 165 -26.5 226.5
t-92.5 61.5q-50 0 -77.5 -23t-38.5 -66.5t-13 -170.5q-29 -8 -44 -8l-36 6q0 234 52.5 333t153.5 99t151.5 -94t50.5 -371v-236q0 -121 38.5 -184t107.5 -63h26v446q0 275 78 388.5t261 113.5q184 0 262.5 -114.5t78.5 -388.5v-133q0 -197 50.5 -264.5t209.5 -67.5
q143 0 201.5 72.5t58.5 263.5v417q-144 21 -231 114t-87 229q0 85 45.5 134.5t124.5 49.5q96 0 159.5 -102.5t68.5 -255.5q88 0 153.5 67t75.5 184zM1860 1072q-4 112 -46.5 185t-97.5 73q-84 0 -84 -83q0 -76 59.5 -121t168.5 -54z" />
    <glyph glyph-name="uni1B58" unicode="&#x1b58;" horiz-adv-x="1566" 
d="M1566 1280q-13 -171 -95 -273.5t-203 -105.5v-419q0 -245 -107.5 -373.5t-321.5 -128.5q-215 0 -323 123.5t-108 360.5v196q0 165 -26.5 226.5t-92.5 61.5q-50 0 -77.5 -23t-38.5 -66.5t-13 -170.5q-29 -8 -44 -8l-36 6q0 234 52.5 333t153.5 99t151.5 -94t50.5 -371
v-167q0 -180 82 -258t268 -78q187 0 268.5 81t81.5 251v421q-144 21 -231 114t-87 229q0 85 45.5 134.5t124.5 49.5q96 0 159.5 -102.5t68.5 -255.5q88 0 153.5 67t75.5 184zM1188 1072q-4 112 -46.5 185t-97.5 73q-84 0 -84 -83q0 -76 59.5 -121t168.5 -54z" />
    <glyph glyph-name="uni1B59" unicode="&#x1b59;" horiz-adv-x="1847" 
d="M1847 1280q-13 -171 -95 -273.5t-203 -105.5v-491q0 -208 -68.5 -319t-197.5 -111q-226 0 -301 408q-75 -408 -301 -408q-130 0 -198 111.5t-68 318.5v249q0 155 -28.5 222t-88.5 67q-70 0 -102.5 -46t-35.5 -214q-29 -8 -44 -8l-36 6q0 251 61 341.5t168 90.5
q93 0 139.5 -107.5t46.5 -358.5v-213q0 -150 47.5 -219.5t144.5 -69.5q117 0 181 184t70 524l2 152h84q0 -454 65.5 -657t187.5 -203q103 0 147.5 74.5t44.5 214.5v464q-144 21 -231 114t-87 229q0 85 45.5 134.5t124.5 49.5q96 0 159.5 -102.5t68.5 -255.5q88 0 153.5 67
t75.5 184zM1469 1072q-4 112 -46.5 185t-97.5 73q-84 0 -84 -83q0 -76 59.5 -121t168.5 -54z" />
    <glyph glyph-name="uni1B5A" unicode="&#x1b5a;" horiz-adv-x="2396" 
d="M1408 486v129q0 282 66.5 392.5t224.5 110.5t223.5 -111t65.5 -391v-478q0 -165 26.5 -226.5t92.5 -61.5q54 0 81.5 33t36.5 86t11 171q29 8 44 8l36 -6q0 -245 -53 -353.5t-153 -108.5q-101 0 -151.5 94t-50.5 371v471q0 188 -39 260t-171 72q-114 0 -162 -69t-48 -267
v-129q0 -284 -66.5 -393.5t-224.5 -109.5t-223.5 111t-65.5 391v130q0 201 -49.5 268.5t-160.5 67.5q-133 0 -171.5 -71.5t-38.5 -260.5v-171q0 -276 -51 -370.5t-151 -94.5t-153 108t-53 354l36 6q15 0 44 -8q2 -140 14.5 -188.5t39.5 -75t75 -26.5q66 0 92.5 61t26.5 227
v178q0 279 65.5 390.5t223.5 111.5q159 0 225 -109.5t66 -393.5v-133q0 -188 39 -260t171 -72q113 0 161.5 68.5t48.5 267.5z" />
    <glyph glyph-name="uni1B5B" unicode="&#x1b5b;" horiz-adv-x="2645" 
d="M2203 -1088v878q-76 58 -175 83v-537q0 -219 -74 -336.5t-218 -117.5q-140 0 -223.5 154t-180.5 154q-65 0 -110 -54.5t-79 -115t-90 -99.5t-124 -39q-172 0 -260.5 110.5t-88.5 313.5q0 289 156 569l84 -16q-66 -99 -103 -233.5t-37 -263.5q0 -147 66.5 -228.5
t190.5 -81.5q69 0 125.5 39t123 154t147.5 115q60 0 103.5 -54.5t79.5 -116.5t90.5 -99.5t121.5 -37.5q220 0 220 287v548q-40 4 -81 4q-113 0 -113 -60q0 -32 39 -101.5t39 -134.5q0 -93 -65.5 -154.5t-167.5 -61.5t-188.5 104.5t-102.5 249.5l38 26q25 -112 90.5 -171
t164.5 -59q68 0 107 32t39 80q0 39 -39 103.5t-39 116.5q0 84 61 132t163 48l55 -3v1062h47q105 0 169 -43t91.5 -132.5t27.5 -289.5v-776q68 -76 127 -187.5t135 -357.5l-63 -24q-39 129 -85.5 236t-113.5 187v-801h-80zM1700 100v516q0 172 -52 252t-178 80
q-85 0 -145.5 -58t-69.5 -157h-69q0 84 -64.5 149.5t-150.5 65.5q-126 0 -178.5 -80t-52.5 -252v-516h-47q-111 0 -172 42t-87 121t-26 282v115q0 165 -26.5 226.5t-92.5 61.5q-50 0 -77.5 -23t-38.5 -66.5t-13 -170.5q-29 -8 -44 -8l-36 6q0 234 52.5 333t153.5 99
t151.5 -94t50.5 -371v-156q0 -227 146 -227h26v346q0 274 72 388t239 114q183 0 249 -206q67 206 250 206q168 0 239 -114t71 -388v-516h-80zM2028 23q94 -26 175 -88v691q0 304 -149 304h-26v-907z" />
    <glyph glyph-name="uni1B5C" unicode="&#x1b5c;" horiz-adv-x="757" 
d="M550 1136q77 -103 77 -279q0 -173 -76.5 -274t-208.5 -101q-135 0 -213.5 101t-78.5 274q0 174 79.5 278t212.5 104q131 0 208 -103zM492 707q55 55 55 154t-55 153.5t-154 54.5t-153.5 -54.5t-54.5 -153.5q0 -98 55 -153.5t153 -55.5q99 0 154 55z" />
    <glyph glyph-name="uni1B5D" unicode="&#x1b5d;" horiz-adv-x="937" 
d="M807 885q-51 -131 -164.5 -218t-242.5 -87q-114 0 -192 60.5t-78 155.5q0 75 40.5 120.5t110.5 45.5q38 0 70 -20t50 -51l-55 -78q-32 29 -81 29q-24 0 -39.5 -13t-15.5 -38q0 -38 50 -59.5t138 -21.5q114 0 196.5 38.5t172.5 161.5zM807 415q-51 -131 -164.5 -218
t-242.5 -87q-114 0 -192 60.5t-78 155.5q0 75 40.5 120.5t110.5 45.5q38 0 70 -20t50 -51l-55 -78q-32 29 -81 29q-24 0 -39.5 -13t-15.5 -38q0 -38 50 -59.5t138 -21.5q114 0 196.5 38.5t172.5 161.5z" />
    <glyph glyph-name="uni1B5E" unicode="&#x1b5e;" horiz-adv-x="805" 
d="M80 877q32 117 78 220t79 103q37 0 61.5 -14t81.5 -107.5t132 -341.5t169 -632t124 -586l-73 -14q-107 529 -245.5 948.5t-250.5 524.5q-24 -6 -48.5 -38t-57.5 -109z" />
    <glyph glyph-name="uni1B5F" unicode="&#x1b5f;" horiz-adv-x="1315" 
d="M80 877q32 117 78 220t79 103q37 0 61.5 -14t81.5 -107.5t132 -341.5t169 -632t124 -586l-73 -14q-107 529 -245.5 948.5t-250.5 524.5q-24 -6 -48.5 -38t-57.5 -109zM590 877q32 117 78 220t79 103q37 0 61.5 -14t81.5 -107.5t132 -341.5t169 -632t124 -586l-73 -14
q-117 568 -251.5 968.5t-244.5 504.5q-24 -6 -48.5 -38t-57.5 -109z" />
    <glyph glyph-name="uni1B60" unicode="&#x1b60;" horiz-adv-x="883" 
d="M162 435q6 -145 73 -215t211 -70q112 0 174.5 51.5t62.5 147.5q0 91 -72 144.5t-199 53.5h-94l20 78h44q120 0 171 44t51 138q0 66 -41 103.5t-118 37.5q-64 0 -115 -26.5t-104 -98.5l-41 27q44 133 116.5 200.5t163.5 67.5q105 0 172 -81t67 -214q0 -157 -119 -223
q94 -22 146 -94.5t52 -180.5q0 -144 -96 -244.5t-244 -100.5q-156 0 -244.5 114.5t-98.5 326.5z" />
    <glyph glyph-name="uni1B61" unicode="&#x1b61;" horiz-adv-x="1139" 
d="M50 806q72 149 195 230.5t272 81.5q231 0 376.5 -154.5t145.5 -401.5q0 -260 -123 -421t-339 -161q-73 0 -131 43t-58 111q0 130 135 245l61 -51q-51 -53 -51 -119q0 -58 35.5 -86.5t90.5 -28.5q119 0 199.5 132.5t80.5 327.5q0 183 -113.5 288.5t-305.5 105.5
q-141 0 -245.5 -48.5t-153.5 -138.5z" />
    <glyph glyph-name="uni1B62" unicode="&#x1b62;" horiz-adv-x="990" 
d="M60 686q0 173 107 302.5t296 129.5q206 0 316.5 -151t110.5 -434q0 -373 -157 -743t-157 -603q0 -136 35 -234l9 -32l-67 -39q-30 41 -53.5 146t-23.5 169q0 217 118.5 511t157 477.5t38.5 354.5q0 408 -324 408q-146 0 -235 -71t-91 -189q-29 -8 -44 -8z" />
    <glyph glyph-name="uni1B63" unicode="&#x1b63;" horiz-adv-x="860" 
d="M544 977q-16 -135 -76 -262t-179 -273.5t-119 -231.5q0 -110 117 -110q93 0 178 96.5t135 265.5t50 372v294h80v-294q0 -408 -117.5 -651t-305.5 -243q-106 0 -166.5 66t-60.5 179q0 124 134.5 287t193 285t80.5 246z" />
    <glyph glyph-name="uni1B64" unicode="&#x1b64;" horiz-adv-x="982" 
d="M818 -21l-217 541q-77 192 -145 290t-135 98q-61 0 -99.5 -54t-41.5 -140l-80 7q0 148 52.5 272.5t146.5 124.5q81 0 162.5 -103.5t194.5 -380.5l246 -616z" />
    <glyph glyph-name="uni1B65" unicode="&#x1b65;" horiz-adv-x="1246" 
d="M1162 -20q-261 5 -502.5 169t-403.5 444t-176 541l196 -44q40 -291 170.5 -531t320 -370t419.5 -149z" />
    <glyph glyph-name="uni1B66" unicode="&#x1b66;" horiz-adv-x="1359" 
d="M463 -20q-156 58 -244.5 206t-88.5 358q0 258 151.5 416t401.5 158q247 0 396.5 -159t149.5 -415q0 -201 -88.5 -353t-241.5 -211l-37 89q127 52 197 177t70 301q0 189 -119.5 295t-334.5 106q-202 0 -323.5 -108t-121.5 -293q0 -179 72 -305t196 -170z" />
    <glyph glyph-name="uni1B67" unicode="&#x1b67;" horiz-adv-x="1925" 
d="M480 413q175 280 318.5 425t299 212.5t336.5 67.5q120 0 233 -64t178 -162l-994 -476l-37 70l783 385q-53 45 -102.5 61t-113.5 16q-214 0 -420.5 -138.5t-434.5 -429.5zM550 -7q-103 70 -245.5 212t-224.5 262l89 92q143 -192 424 -513z" />
    <glyph glyph-name="uni1B68" unicode="&#x1b68;" horiz-adv-x="792" 
d="M370 1137q-34 -112 -58.5 -244t-24.5 -207q0 -67 28.5 -117.5t90.5 -92.5l69 -47q106 -74 146.5 -161.5t40.5 -210.5q0 -255 -121 -502.5t-369 -505.5l-42 61q191 203 301 413t110 393q0 99 -49 174.5t-145.5 142t-139.5 124.5t-43 130q0 215 138 668z" />
    <glyph glyph-name="uni1B69" unicode="&#x1b69;" horiz-adv-x="2669" 
d="M2459 -1088v1714q0 304 -149 304h-26v-1578q0 -231 -79.5 -350.5t-234.5 -119.5q-112 0 -175 55.5t-101 163t-63 207t-78.5 146t-148.5 46.5q-146 0 -198 -77t-52 -235v-306h-47q-171 0 -268.5 116t-97.5 326q0 169 98.5 322.5t377 376t377.5 376t99 322.5
q0 106 -59.5 166.5t-163.5 60.5q-85 0 -145.5 -58t-69.5 -157h-69q0 84 -64.5 149.5t-150.5 65.5q-126 0 -178.5 -80t-52.5 -252v-616h-47q-103 0 -167.5 43t-91 131.5t-26.5 290.5v195q0 165 -26.5 226.5t-92.5 61.5q-50 0 -77.5 -23t-38.5 -66.5t-13 -170.5q-29 -8 -44 -8
l-36 6q0 234 52.5 333t153.5 99t151.5 -94t50.5 -371v-236q0 -121 38.5 -184t107.5 -63h26v446q0 274 72 388t239 114q183 0 249 -206q67 206 250 206q153 0 238 -105.5t85 -298.5q0 -179 -62.5 -335.5t-195.5 -295t-344 -294t-280.5 -261.5t-69.5 -211q0 -99 60.5 -182
t146.5 -83h26v146q0 472 329 472q128 0 201.5 -77t104 -246.5t89.5 -232t175 -62.5q139 0 185 75.5t46 224.5v1748h47q105 0 169 -43t91.5 -132.5t27.5 -289.5v-1723h-80z" />
    <glyph glyph-name="uni1B6A" unicode="&#x1b6a;" horiz-adv-x="843" 
d="M202 449h53q343 0 343 272q0 107 -58 167t-154 60q-104 0 -164 -67.5t-62 -192.5q-29 -8 -44 -8l-36 6q0 197 78.5 314.5t224.5 117.5q143 0 229 -108.5t86 -295.5q0 -92 -56.5 -173.5t-156.5 -131.5q258 -108 258 -381q0 -242 -133.5 -491t-133.5 -399q0 -128 27 -193
l7 -24l-51 -39q-31 42 -57 147t-26 168q0 245 133.5 467.5t133.5 430.5q0 132 -110 203t-299 71h-42z" />
    <glyph glyph-name="uni1B6B" unicode="&#x1b6b;" 
d="M-325 1527q-29 22 -68 34.5t-68 12.5q-42 0 -60 -18.5t-18 -44.5q0 -40 36 -70.5t92 -30.5q130 0 173 66l38 -26q-27 -79 -89.5 -129.5t-131.5 -50.5q-91 0 -144.5 64t-53.5 170q0 92 40 151t108 59q52 0 102.5 -35.5t85.5 -114.5z" />
    <glyph glyph-name="uni1B6C" unicode="&#x1b6c;" 
d="M-325 -473q-29 22 -68 34.5t-68 12.5q-42 0 -60 -18.5t-18 -44.5q0 -40 36 -70.5t92 -30.5q130 0 173 66l38 -26q-27 -79 -89.5 -129.5t-131.5 -50.5q-91 0 -144.5 64t-53.5 170q0 92 40 151t108 59q52 0 102.5 -35.5t85.5 -114.5z" />
    <glyph glyph-name="uni1B6D" unicode="&#x1b6d;" 
d="M-949 1687q155 -54 306 -67q10 90 10 130q0 70 -21 99t-62 31l-72 -62l-35 45q77 89 109.5 115t51.5 26q56 0 88.5 -57t32.5 -149q0 -85 -16 -181q200 0 377 50l26 -65q-201 -73 -421 -92q-15 -86 -54 -252l-66 25q16 78 37 223h-17q-190 0 -372 50z" />
    <glyph glyph-name="uni1B6E" unicode="&#x1b6e;" 
d="M-949 1687q199 -70 391 -70q197 0 378 50l26 -65q-121 -44 -264.5 -70t-256.5 -26q-190 0 -372 50z" />
    <glyph glyph-name="uni1B6F" unicode="&#x1b6f;" 
d="M-535 1944q-17 -41 -53 -113q50 -118 174 -276.5t234 -232.5l-34 -62q-251 151 -447 446q-179 -279 -453 -446l-34 62q306 213 448 599z" />
    <glyph glyph-name="uni1B70" unicode="&#x1b70;" 
d="M-823 1863q77 89 109.5 115t51.5 26q56 0 88.5 -57t32.5 -149q0 -55 -6 -111q201 2 367 50l26 -65q-175 -64 -359 -86q52 -75 130.5 -151.5t132.5 -112.5l-34 -62q-162 97 -292 244l-53 -246l-66 25q15 76 37 224q-61 -63 -146 -132t-160 -115l-34 62q150 106 269 255
q-166 6 -318 49l98 131q156 -55 313 -67l3 60q0 70 -21 99t-62 31l-72 -62z" />
    <glyph glyph-name="uni1B71" unicode="&#x1b71;" 
d="M-949 1887q199 -70 391 -70q197 0 378 50l26 -65q-175 -64 -372 -87q76 -124 172.5 -232.5t173.5 -160.5l-34 -62q-250 150 -446 446q-182 -280 -454 -446l-34 62q218 152 352 389q-128 11 -251 45z" />
    <glyph glyph-name="uni1B72" unicode="&#x1b72;" 
d="M-936 1783q51 -122 115 -233t157 -200q165 313 474 527l10 -163q-309 -193 -458 -479q-254 176 -415 446z" />
    <glyph glyph-name="uni1B73" unicode="&#x1b73;" 
d="M-274.5 1877.5q104.5 -107.5 104.5 -250.5q0 -145 -104.5 -251t-249.5 -106t-251 106t-106 251q0 143 105.5 250.5t251.5 107.5q145 0 249.5 -107.5zM-329.5 1434q78.5 81 78.5 193q0 113 -79 194.5t-194 81.5t-195.5 -80.5t-80.5 -195.5q0 -113 80.5 -193.5t195.5 -80.5
q116 0 194.5 81zM-461 1694.5q26 -26.5 26 -63.5t-26 -63.5t-63 -26.5t-63.5 26.5t-26.5 63.5t26.5 63.5t63.5 26.5t63 -26.5z" />
    <glyph glyph-name="uni1B74" unicode="&#x1b74;" horiz-adv-x="1231" 
d="M669 1118l492 -1019q10 -21 10 -40q0 -28 -26 -49.5t-58 -21.5q-40 0 -61 46l-410 852l-411 -852q-23 -46 -61 -46q-31 0 -57.5 21t-26.5 50q0 19 10 40l492 1019h107z" />
    <glyph glyph-name="uni1B75" unicode="&#x1b75;" horiz-adv-x="1170" 
d="M914.5 960.5q125.5 -157.5 125.5 -417.5q0 -255 -123 -408.5t-327 -153.5q-206 0 -333 154.5t-127 407.5q0 250 128.5 412.5t331.5 162.5q199 0 324.5 -157.5zM844 256.5q96 105.5 96 290.5q0 184 -94 292.5t-259 108.5t-261 -109.5t-96 -291.5q0 -180 96 -288t261 -108
q161 0 257 105.5z" />
    <glyph glyph-name="uni1B76" unicode="&#x1b76;" horiz-adv-x="1231" 
d="M153 1147l276 -305l133 276h107l492 -1019q10 -21 10 -40q0 -28 -26 -49.5t-58 -21.5q-40 0 -61 46l-410 852l-79 -163l113 -124q25 -28 25 -51q0 -33 -24.5 -56t-53.5 -23q-31 0 -56 28l-74 81l-262 -544q-23 -46 -61 -46q-31 0 -57.5 21t-26.5 50q0 19 10 40l289 598
l-316 348q-23 25 -23 43q0 37 24 62t55 25q28 0 54 -28z" />
    <glyph glyph-name="uni1B77" unicode="&#x1b77;" horiz-adv-x="1170" 
d="M203 1147l115 -127q115 98 272 98q199 0 324.5 -157.5t125.5 -417.5q0 -255 -123 -408.5t-327 -153.5q-206 0 -333 154.5t-127 407.5q0 208 91 360l-128 142q-23 25 -23 43q0 37 24 62t55 25q28 0 54 -28zM844 256.5q96 105.5 96 290.5q0 184 -94 292.5t-259 108.5
q-93 0 -169 -38l282 -311q25 -28 25 -51q0 -33 -24.5 -56t-53.5 -23q-31 0 -56 28l-287 315q-74 -104 -74 -265q0 -180 96 -288t261 -108q161 0 257 105.5z" />
    <glyph glyph-name="uni1B78" unicode="&#x1b78;" horiz-adv-x="1209" 
d="M1054 655q75 0 75 -87q0 -39 -19.5 -61t-55.5 -22h-899q-36 0 -55.5 22.5t-19.5 60.5q0 87 75 87h899z" />
    <glyph glyph-name="uni1B79" unicode="&#x1b79;" horiz-adv-x="1277" 
d="M100 167l915 926q23 25 52 25q28 0 54 -24t26 -53q0 -28 -28 -56l-805 -815h758q75 0 75 -87q0 -39 -19.5 -61t-55.5 -22h-899z" />
    <glyph glyph-name="uni1B7A" unicode="&#x1b7a;" horiz-adv-x="1209" 
d="M429 973l290 -318h335q75 0 75 -87q0 -39 -19.5 -61t-55.5 -22h-180l103 -113q25 -27 25 -51q0 -33 -24.5 -56t-53.5 -23q-31 0 -56 28l-197 215h-516q-36 0 -55.5 22.5t-19.5 60.5q0 87 75 87h361l-197 216q-23 25 -23 43q0 37 24 62t55 25q28 0 54 -28z" />
    <glyph glyph-name="uni1B7B" unicode="&#x1b7b;" horiz-adv-x="1297" 
d="M323 1147l357 -393l335 339q23 25 52 25q28 0 54 -24t26 -53q0 -28 -28 -56l-337 -342l86 -93q29 -32 29 -49l-1 -6q0 -33 -24.5 -56t-53.5 -23q-32 0 -56 28l-85 93l-363 -367h758q75 0 75 -87q0 -39 -19.5 -61t-55.5 -22h-899l-73 167l475 481l-362 397q-23 25 -23 43
q0 37 24 62t55 25q28 0 54 -28z" />
    <glyph glyph-name="uni1B7C" unicode="&#x1b7c;" horiz-adv-x="824" 
d="M562 706.5q62 -61.5 62 -150.5q0 -88 -61.5 -150t-150.5 -62q-88 0 -150 61.5t-62 150.5q0 88 61.5 150t150.5 62q88 0 150 -61.5z" />
    <glyph glyph-name="uni200B" unicode="&#x200b;" 
 />
    <glyph glyph-name="uni200C" unicode="&#x200c;" 
d="M36 1667v-1484h-72v1484h72z" />
    <glyph glyph-name="uni200D" unicode="&#x200d;" 
d="M36 183h-72v1185l-134 -136l-49 49l171 169l-171 168l49 49l170 -171l170 171l49 -49l-171 -168l171 -169l-49 -49l-134 136v-1185z" />
    <glyph glyph-name="uni25CC" unicode="&#x25cc;" horiz-adv-x="1127" 
d="M564 1088q63 0 63 -64q0 -61 -63 -61q-64 0 -64 61q0 64 64 64zM554 215q63 0 63 -64q0 -61 -63 -61q-64 0 -64 61q0 64 64 64zM964 668q63 0 63 -64q0 -61 -63 -61q-64 0 -64 61q0 64 64 64zM164 668q63 0 63 -64q0 -61 -63 -61q-64 0 -64 61q0 64 64 64zM844 938
q63 0 63 -64q0 -61 -63 -61q-64 0 -64 61q0 64 64 64zM284 938q63 0 63 -64q0 -61 -63 -61q-64 0 -64 61q0 64 64 64zM844 398q63 0 63 -64q0 -61 -63 -61q-64 0 -64 61q0 64 64 64zM284 398q63 0 63 -64q0 -61 -63 -61q-64 0 -64 61q0 64 64 64z" />
    <glyph glyph-name="uni1B44_uni1B13.ccmp" 
d="M-210 -1098v474q0 167 -85.5 241.5t-268.5 74.5q-173 0 -267.5 -64.5t-107.5 -187.5q247 -13 383.5 -108t136.5 -258q0 -84 -67 -138t-168 -54q-160 0 -260 106.5t-106 283.5h-56l-57 -1v-17q0 -197 -55 -284.5t-168 -87.5q-77 0 -126 60.5t-49 148.5q0 279 318 337
q0 137 -33.5 200.5t-114.5 63.5q-69 0 -98 -44t-31 -136q-29 -8 -44 -8l-36 6q0 154 57.5 253t162.5 99q109 0 163 -101t54 -322q33 3 113 3q6 194 128 307t325 113q224 0 330.5 -120t106.5 -363v-477h-80zM-940 -731q6 -137 88 -212t212 -75q121 0 121 64q0 88 -116 149
t-305 74zM-1213 -733q-121 -10 -174.5 -50t-53.5 -115q0 -120 89 -120q73 0 106 65t33 200v20z" />
    <glyph glyph-name="uni1B44_uni1B14.ccmp" 
d="M50 -1255q-25 74 -100.5 110.5t-245.5 36.5q-177 0 -260.5 96t-83.5 364q0 191 -85.5 265.5t-268.5 74.5q-173 0 -267.5 -64.5t-107.5 -187.5q247 -13 383.5 -108t136.5 -258q0 -84 -67 -138t-168 -54q-160 0 -260 106.5t-106 283.5h-56l-57 -1v-17q0 -197 -55 -284.5
t-168 -87.5q-77 0 -126 60.5t-49 148.5q0 279 318 337q0 137 -33.5 200.5t-114.5 63.5q-69 0 -98 -44t-31 -136q-29 -8 -44 -8l-36 6q0 154 57.5 253t162.5 99q109 0 163 -101t54 -322q33 3 113 3q6 194 128 307t325 113q224 0 330.5 -120t106.5 -363v-53
q3 -159 72.5 -211.5t219 -53.5t253.5 -73t134 -222zM-1370 -731q6 -137 88 -212t212 -75q121 0 121 64q0 88 -116 149t-305 74zM-1643 -733q-121 -10 -174.5 -50t-53.5 -115q0 -120 89 -120q73 0 106 65t33 200v20z" />
    <glyph glyph-name="uni1B44_uni1B15.ccmp" 
d="M-210 -1098v474q0 168 -89.5 242t-280.5 74q-194 0 -282 -77.5t-88 -234.5v-478q-102 0 -165 42.5t-90 129.5t-27 293v57q0 157 -24.5 212.5t-94.5 55.5q-65 0 -95.5 -41t-32.5 -138q-29 -8 -44 -8l-36 6q0 159 55 255t150 96q73 0 116 -41.5t64.5 -122.5t21.5 -281v-98
q0 -128 34 -187.5t88 -59.5v308q0 232 117 357t332 125q234 0 342.5 -117.5t108.5 -365.5v-477h-80z" />
    <glyph glyph-name="uni1B44_uni1B16.ccmp" 
d="M-1632 -601q0 202 26.5 281.5t88 121.5t173.5 42h47v-479q0 -172 32 -242.5t129 -70.5q48 0 88 23t61 67t47.5 84.5t72.5 40.5q72 0 122 -107.5t148 -107.5q73 0 109 41t47.5 161.5t-24 216.5t-107.5 149.5t-173 53.5q87 188 277 188q338 0 338 -463v-497h-80v488
q0 149 -54.5 230.5t-166.5 81.5q-46 0 -79 -14q74 -61 111 -137.5t42 -198.5v-16q-2 -258 -50.5 -356t-169.5 -98q-100 0 -151.5 103t-138.5 103t-138.5 -103t-150.5 -103q-118 0 -167 93t-53 338h-1v361h-26q-77 0 -113 -68.5t-36 -215.5v-488q-102 0 -165 42.5t-90 129.5
t-27 293v57q0 157 -24.5 212.5t-94.5 55.5q-65 0 -95.5 -41t-32.5 -138q-29 -8 -44 -8l-36 6q0 159 55 255t150 96q73 0 116 -41.5t64.5 -122.5t21.5 -281v-98q0 -128 34 -187.5t88 -59.5v327z" />
    <glyph glyph-name="uni1B44_uni1B17.ccmp" 
d="M-1292 -681q0 -128 34 -187.5t88 -59.5v258q0 306 63 419t218 113q95 0 151 -53.5t88 -152.5q32 99 88 152.5t152 53.5q154 0 217 -113t63 -419v-448h-80v448q0 202 -42.5 282t-147.5 80q-91 0 -148.5 -53.5t-66.5 -146.5h-69q0 83 -63.5 141.5t-151.5 58.5
q-105 0 -148 -81.5t-43 -280.5v-428q-102 0 -165 42.5t-90 129.5t-27 293v57q0 157 -24.5 212.5t-94.5 55.5q-65 0 -95.5 -41t-32.5 -138q-29 -8 -44 -8l-36 6q0 159 55 255t150 96q73 0 116 -41.5t64.5 -122.5t21.5 -281v-98z" />
    <glyph glyph-name="uni1B44_uni1B18.ccmp" 
d="M-210 -1098v468q0 156 -58.5 244t-162.5 88q-46 0 -79 -14q68 -55 110 -156.5t42 -209.5q0 -211 -97 -325.5t-267 -114.5q-167 0 -254 123t-87 360v479h80v-470q0 -322 261 -322q152 0 218 65.5t66 198.5q0 154 -86 256t-221 102q87 188 277 188q167 0 252.5 -122.5
t85.5 -360.5v-477h-80zM-1569 -948q161 38 231 144.5t70 300.5v347h80v-356q0 -246 -100.5 -405.5t-280.5 -200.5v170z" />
    <glyph glyph-name="uni1B44_uni1B19.ccmp" 
d="M-130 -616q0 -248 -99 -375t-291 -127q-370 0 -370 487q0 185 -74 254t-229 69q-152 0 -224.5 -77.5t-72.5 -237.5v-57q0 -157 24.5 -212.5t94.5 -55.5t98 43.5t30 135.5q29 8 44 8l36 -6q0 -159 -55 -255t-150 -96q-74 0 -117 42.5t-64 123t-21 307.5q0 256 101.5 381.5
t279.5 125.5q185 0 282 -115t97 -378q0 -317 289 -317q168 0 239.5 81.5t71.5 250.5v460h80v-460z" />
    <glyph glyph-name="uni1B44_uni1B1A.ccmp" 
d="M-210 -1098v118q0 136 -85 213.5t-241 83.5q65 -57 65 -142q0 -137 -136 -215t-369 -78q-219 0 -346 113t-127 316q0 199 178 357.5t443 193.5l16 -78q-239 -38 -388 -166.5t-149 -290.5q0 -132 94 -203.5t279 -71.5t295 40t110 105q0 66 -86.5 101.5t-254.5 35.5v50
q61 37 154 59.5t169 22.5q213 0 336 -121t123 -331v-112h-80z" />
    <glyph glyph-name="uni1B44_uni1B1B.ccmp" horiz-adv-x="658" 
d="M478 706v38q0 93 -27.5 140t-61.5 65.5t-122 33.5l-57 9v-1608q0 -283 -61.5 -392.5t-219.5 -109.5q-100 0 -151.5 103t-138.5 103t-138.5 -103t-150.5 -103q-150 0 -237 116.5t-87 323.5q0 346 149 540l59 -60q-118 -166 -118 -446q0 -141 67 -222.5t187 -81.5
q98 0 151 107.5t118 107.5q74 0 129 -107.5t141 -107.5q138 0 179.5 71.5t41.5 260.5v1624q-149 43 -233.5 141t-84.5 227q0 83 47.5 138.5t127.5 55.5q112 0 167.5 -89t55.5 -288v-39q188 -20 268 -110t80 -291v-47h-80zM130 1200q0 136 -33.5 203t-105.5 67
q-48 0 -68.5 -25.5t-20.5 -79.5q0 -70 58.5 -121.5t169.5 -76.5v33z" />
    <glyph glyph-name="uni1B44_uni1B1C.ccmp" 
d="M-647 -995q23 -11 65 -17t76 -6q136 0 206 103t70 288q0 152 -91 235.5t-259 83.5q-155 0 -240.5 -91.5t-85.5 -281.5q0 -239 -72 -328t-220 -89v428q0 202 -42.5 282t-147.5 80q-91 0 -148.5 -53.5t-66.5 -146.5h-69q0 83 -63.5 141.5t-151.5 58.5q-105 0 -148 -81.5
t-43 -280.5v-428q-102 0 -165 42.5t-90 129.5t-27 293v57q0 157 -24.5 212.5t-94.5 55.5q-65 0 -95.5 -41t-32.5 -138q-29 -8 -44 -8l-36 6q0 159 55 255t150 96q73 0 116 -41.5t64.5 -122.5t21.5 -281v-98q0 -128 34 -187.5t88 -59.5v258q0 306 63 419t218 113
q95 0 151 -53.5t88 -152.5q32 99 88 152.5t152 53.5q154 0 217 -113t63 -419v-258q61 0 96.5 66t35.5 195q0 256 107.5 392.5t293.5 136.5q219 0 337 -125.5t118 -355.5q0 -244 -102.5 -371.5t-284.5 -127.5q-110 0 -181 43z" />
    <glyph glyph-name="uni1B44_uni1B1D.ccmp" 
d="M24 -788q-114 -122 -298 -122q-90 0 -184 44q-101 -61 -236 -97.5t-266 -36.5q-269 0 -456.5 162t-187.5 443q0 72 11 142l85 -12l-5 -93q0 -231 137 -351.5t429 -120.5q226 0 376 39q-103 96 -103 240q0 74 62 123.5t151 49.5q109 0 161 -44.5t52 -120.5
q0 -146 -118 -255q46 -12 87 -12q90 0 159 27.5t108 77.5zM-574 -616q0 -81 107 -141q129 55 129 134q0 95 -121 95q-115 0 -115 -88z" />
    <glyph glyph-name="uni1B44_uni1B1E.ccmp" 
d="M-182 -422.5q52 -44.5 52 -120.5q0 -130 -96.5 -233.5t-272.5 -163.5t-343 -60q-796 0 -796 611q0 68 10 146l85 -12q-5 -42 -5 -95q0 -167 72 -274.5t216 -156.5t431 -49q216 0 376 39q-103 96 -103 240q0 74 62 123.5t151 49.5q109 0 161 -44.5zM-456 -616
q0 -81 107 -141q129 55 129 134q0 95 -121 95q-115 0 -115 -88z" />
    <glyph glyph-name="uni1B44_uni1B1F.ccmp" 
d="M-1197 -198q-63 -79 -98 -186.5t-35 -223.5q0 -176 38.5 -258t127.5 -82q95 0 148 107.5t121 107.5q72 0 122 -107.5t148 -107.5q102 0 131 77t29 255v460h47q118 0 179 -46t85 -124.5t24 -274.5v-497h-80v488q0 146 -36 215t-113 69h-26v-290q0 -294 -48 -398t-172 -104
q-100 0 -151.5 103t-138.5 103t-138.5 -103t-150.5 -103q-107 0 -171.5 133.5t-64.5 373.5q0 117 41 238.5t123 234.5z" />
    <glyph glyph-name="uni1B44_uni1B20.ccmp" 
d="M-294 -138q104 -155 134 -255.5t30 -200.5q0 -250 -62.5 -387t-168.5 -137q-100 0 -151.5 103t-138.5 103t-138.5 -103t-150.5 -103q-111 0 -173 137t-62 387q0 112 45 235.5t119 220.5l59 -60q-64 -88 -98.5 -194.5t-34.5 -206.5q0 -185 38 -267t127 -82q95 0 149 107.5
t120 107.5t119 -107.5t151 -107.5q86 0 122.5 86.5t36.5 283.5q0 84 -30.5 177t-76.5 165l-24 38z" />
    <glyph glyph-name="uni1B44_uni1B21.ccmp" 
d="M-130 -158v-721q0 -241 -144 -241q-88 0 -127 78t-39 314v133q0 154 -37 220.5t-133 66.5q-111 0 -157.5 -134t-137.5 -134q-92 0 -141.5 134t-154.5 134q-82 0 -133.5 -40.5t-95 -160t-94 -157t-126.5 -37.5q-91 0 -145.5 102t-54.5 249l36 6q15 0 44 -8
q2 -92 28.5 -135.5t93.5 -43.5q72 0 117.5 39t79 153t90.5 158.5t152 44.5q119 0 162 -134t141 -134q100 0 141.5 134t162.5 134q129 0 185.5 -107.5t56.5 -346.5v-143q0 -127 18 -181t66 -54q66 0 66 153v659h80z" />
    <glyph glyph-name="uni1B44_uni1B22.ccmp" 
d="M-210 -1098v458q0 176 -83.5 254t-290.5 78q-157 0 -243 -49.5t-86 -139.5q0 -62 127.5 -77.5t183.5 -72.5t56 -166q0 -116 -122 -210.5t-305 -94.5q-229 0 -320.5 107t-91.5 323v112q0 157 -24.5 212.5t-94.5 55.5q-65 0 -95.5 -41t-32.5 -138q-29 -8 -44 -8l-36 6
q0 159 55 255t150 96q73 0 116 -41.5t64.5 -122.5t21.5 -281v-76q0 -156 79 -222.5t253 -66.5q147 0 237 37.5t90 98.5q0 63 -121.5 77t-183.5 69.5t-62 174.5q0 149 121.5 251t307.5 102q240 0 347 -121t107 -381v-458h-80z" />
    <glyph glyph-name="uni1B44_uni1B23.ccmp" 
d="M-278 -1198l-62 135q-100 -55 -239 -55q-225 0 -356 130t-131 354q0 106 49 193t168.5 177t162.5 136l47 -48q-36 -58 -191.5 -171.5t-155.5 -264.5q0 -159 106.5 -247.5t299.5 -88.5q100 0 175 23q-65 141 -110.5 222t-99.5 81q-41 0 -64 -31t-25 -82l-66 5
q0 107 37 193t103 86q93 0 192.5 -211t107.5 -228q120 81 120 274v744h80v-744q0 -272 -142 -399l66 -145z" />
    <glyph glyph-name="uni1B44_uni1B24.ccmp" 
d="M-230 -1118q0 174 -111 277.5t-293 103.5q-185 0 -297 -107.5t-117 -283.5q-131 78 -193 191.5t-62 270.5q0 245 160 386.5t396 141.5q61 0 127 -11l-23 -96q-56 7 -102 7q-211 0 -334.5 -115.5t-123.5 -322.5q0 -175 96 -277q30 170 162 278t308 108q234 0 370.5 -149.5
t136.5 -393.5z" />
    <glyph glyph-name="uni1B44_uni1B25.ccmp" 
d="M-1167 -198q-61 -73 -97 -184.5t-36 -236.5q0 -174 39 -251.5t125 -77.5q101 0 152 107.5t117 107.5q72 0 122 -107.5t148 -107.5q90 0 125 59.5t35 213.5t-85 251.5t-223 97.5q87 188 277 188q338 0 338 -463v-497h-80v488q0 149 -54.5 230.5t-166.5 81.5q-46 0 -79 -14
q79 -65 116 -147t37 -205q0 -258 -49.5 -356t-170.5 -98q-100 0 -151.5 103t-138.5 103t-138.5 -103t-150.5 -103q-104 0 -169 136.5t-65 362.5q0 129 40 246t124 235z" />
    <glyph glyph-name="uni1B44_uni1B26.ccmp" 
d="M128 -430q-55 -37 -132 -56.5t-150 -19.5l-44 1q-67 -309 -184 -615l-80 20l7 17l4 16q0 65 -65.5 115t-203.5 92.5t-275 96t-212 137t-75 200.5q0 120 102 204t261 84q122 0 326 -114t325 -142q41 207 57 414l90 8q-16 -226 -56 -433l13 -1q174 0 259 47zM-408 -933
q75 243 118 435q-198 23 -405.5 116.5t-285.5 93.5q-201 0 -201 -142q0 -97 91 -171.5t357 -159t326 -172.5z" />
    <glyph glyph-name="uni1B44_uni1B27.ccmp" horiz-adv-x="1315" 
d="M146 389q34 -239 354 -239q187 0 268.5 81t81.5 251v618h47q105 0 169 -43t91.5 -132.5t27.5 -289.5v-635h-80v626q0 304 -149 304h-26v-448q0 -249 -110.5 -375.5t-328.5 -126.5q-179 0 -284 99.5t-127 289.5z" />
    <glyph glyph-name="uni1B44_uni1B28.ccmp" horiz-adv-x="1228" 
d="M1228 1280q-13 -171 -95 -273.5t-203 -105.5v-419q0 -249 -110.5 -375.5t-328.5 -126.5q-179 0 -284 99.5t-127 289.5l66 20q34 -239 354 -239q187 0 268.5 81t81.5 251v421q-144 21 -231 114t-87 229q0 85 45.5 134.5t124.5 49.5q96 0 159.5 -102.5t68.5 -255.5
q88 0 153.5 67t75.5 184zM850 1072q-4 112 -46.5 185t-97.5 73q-84 0 -84 -83q0 -76 59.5 -121t168.5 -54z" />
    <glyph glyph-name="uni1B44_uni1B29.ccmp" 
d="M-130 -879q0 -121 -41 -181t-113 -60q-90 0 -133 74.5t-43 290.5v85q0 202 -42.5 282t-147.5 80q-91 0 -148.5 -53.5t-66.5 -146.5h-69q0 83 -63.5 141.5t-151.5 58.5q-105 0 -148 -81.5t-43 -280.5v-428q-103 0 -166 42.5t-89.5 131.5t-26.5 291v57q0 157 -24.5 212.5
t-94.5 55.5q-65 0 -95.5 -41t-32.5 -138q-29 -8 -44 -8l-36 6q0 159 55 255t150 96q73 0 116 -41.5t64.5 -122.5t21.5 -281v-98q0 -128 34 -187.5t88 -59.5v258q0 306 63 419t218 113q95 0 151 -53.5t88 -152.5q32 99 88 152.5t152 53.5q154 0 217 -113t63 -451
q0 -178 20 -223t79 -45q71 0 71 153v89h80v-151z" />
    <glyph glyph-name="uni1B44_uni1B2A.ccmp" 
d="M-210 -1098v434q0 201 -84 278.5t-265 77.5q-178 0 -267 -87t-102 -259q25 6 55 6q139 0 221 -73.5t82 -201.5q0 -85 -54 -140t-138 -55q-97 0 -165 68.5t-80 177.5q-31 -22 -158.5 -134t-245.5 -112q-142 0 -230 140.5t-88 358.5q0 205 114 333t298 128q82 0 168 -39
l-20 -81q-75 34 -144 34q-150 0 -233 -96.5t-83 -262.5q0 -159 59 -251t162 -92q86 0 206 112t192 149q0 260 119 403.5t331 143.5q223 0 326.5 -125t103.5 -398v-437h-80zM-930 -832q7 -90 52.5 -138t124.5 -48q39 0 66 23t27 57q0 55 -51.5 87t-146.5 32q-35 0 -72 -13z
" />
    <glyph glyph-name="uni1B44_uni1B2B.ccmp" 
d="M50 -869q-100 -102 -298.5 -175.5t-388.5 -73.5q-295 0 -491 142.5t-196 355.5q0 217 156 349.5t403 132.5q154 0 239 -62.5t85 -172.5q0 -56 -27.5 -103.5t-75.5 -70.5l-61 51q65 46 65 85q0 48 -66 75.5t-203 27.5q-173 0 -294 -88t-121 -220q0 -157 166.5 -244.5
t458.5 -87.5q148 0 333.5 40t274.5 109z" />
    <glyph glyph-name="uni1B44_uni1B2C.ccmp" horiz-adv-x="595" 
d="M-130 -24q0 -96 -40.5 -171t-123.5 -130t-190 -104.5t-159.5 -108.5t-52.5 -138q0 -132 105.5 -202t300.5 -70q203 0 311.5 106t108.5 306v1636h47q118 0 179 -46t85 -124.5t24 -274.5v-1753h-80v1744q0 146 -36 215t-113 69h-26v-1499q0 -264 -129.5 -406.5
t-369.5 -142.5q-218 0 -352.5 122t-134.5 324q0 117 65.5 202t228.5 164.5t217.5 142t54.5 143.5v120h80v-124z" />
    <glyph glyph-name="uni1B44_uni1B2D.ccmp" 
d="M-767 -198q-61 -71 -99.5 -179.5t-38.5 -212.5q0 -358 345 -358q179 0 264.5 88t85.5 264v696h80v-696q0 -252 -111 -387t-318 -135q-198 0 -317.5 138t-119.5 374q0 245 170 468z" />
    <glyph glyph-name="uni1B44_uni1B2E.ccmp" 
d="M-210 -1098v488q0 146 -36 215t-113 69h-26v-290q0 -248 -99 -375t-291 -127q-370 0 -370 487q0 153 -22 208t-73.5 85t-142.5 30q-121 0 -172.5 -72t-51.5 -243v-103q0 -221 -38.5 -306.5t-116.5 -85.5q-74 0 -114.5 61t-40.5 180v301q0 157 -24.5 212.5t-94.5 55.5
q-65 0 -95.5 -41t-32.5 -138q-29 -8 -44 -8q-26 0 -56 6q0 146 63.5 248.5t161.5 102.5q73 0 116 -41.5t64.5 -122.5t21.5 -281v-232q0 -86 17.5 -119.5t54.5 -33.5q49 0 63.5 42.5t14.5 192.5v116q0 240 81.5 359.5t226.5 119.5q112 0 181 -49t101 -145t32 -299
q0 -317 289 -317q168 0 239.5 81.5t71.5 250.5v460h47q118 0 179 -46t85 -124.5t24 -274.5v-497h-80z" />
    <glyph glyph-name="uni1B44_uni1B2F.ccmp" 
d="M-639 -176q-36 -58 -191.5 -171.5t-155.5 -264.5q0 -159 106.5 -247.5t299.5 -88.5q194 0 282 83t88 249v744h80v-744q0 -241 -115 -371.5t-334 -130.5q-225 0 -356 130t-131 354q0 106 49 193t168.5 177t162.5 136z" />
    <glyph glyph-name="uni1B44_uni1B30.ccmp" 
d="M-210 -1098v474q0 168 -89.5 242t-280.5 74q-194 0 -282 -77.5t-88 -234.5v-478q-102 0 -165 42.5t-90 129.5t-27 293v57q0 157 -24.5 212.5t-94.5 55.5q-65 0 -95.5 -41t-32.5 -138q-29 -8 -44 -8l-36 6q0 159 55 255t150 96q73 0 116 -41.5t64.5 -122.5t21.5 -281v-98
q0 -128 34 -187.5t88 -59.5v308q0 232 117 357t332 125q234 0 342.5 -117.5t108.5 -365.5v-477h-80zM-469 -1138l-27 177q-25 165 -57.5 226.5t-87.5 61.5q-32 0 -55.5 -24t-34.5 -68l-61 15q15 101 65 171.5t111 70.5q67 0 112 -83t77 -295l37 -232z" />
    <glyph glyph-name="uni1B44_uni1B31.ccmp" horiz-adv-x="1315" 
d="M859 -133l-81 200q-106 -87 -287 -87q-179 0 -284 99.5t-127 289.5l66 20q34 -239 354 -239q146 0 226 48l-37 92q-54 136 -96 192.5t-89 56.5q-41 0 -64 -31t-25 -82l-66 5q0 107 37 193t103 86q59 0 119 -76t131 -255l50 -124q61 80 61 227v618h47q105 0 169 -43
t91.5 -132.5t27.5 -289.5v-635h-80v626q0 304 -149 304h-26v-448q0 -228 -91 -351l92 -226z" />
    <glyph glyph-name="uni1B44_uni1B32.ccmp" horiz-adv-x="1315" 
d="M146 389q34 -239 354 -239q187 0 268.5 81t81.5 251v618h47q105 0 169 -43t91.5 -132.5t27.5 -289.5v-635h-80v626q0 304 -149 304h-26v-448q0 -249 -110.5 -375.5t-328.5 -126.5q-179 0 -284 99.5t-127 289.5zM-316 -121q-15 -134 -74 -254t-179.5 -254t-120.5 -219
q0 -110 117 -110q93 0 178 96.5t135 265.5t50 372v254h80v-254q0 -408 -117.5 -651t-305.5 -243q-106 0 -166.5 66t-60.5 179q0 125 136 274.5t193.5 266t78.5 237.5z" />
    <glyph glyph-name="uni1B44_uni1B33.ccmp" 
d="M-210 -1098v458q0 197 -57 264.5t-203 67.5q-141 0 -200.5 -69t-59.5 -256q0 -247 -97.5 -366t-283.5 -119q-199 0 -289 120t-90 402q0 177 -24.5 232.5t-94.5 55.5q-65 0 -95.5 -41t-32.5 -138q-29 -8 -44 -8l-36 6q0 159 55 255t150 96q73 0 116 -42t64.5 -122.5
t21.5 -296.5q0 -188 66.5 -268.5t233.5 -80.5q161 0 229.5 74t70.5 245v17q0 239 81 356.5t260 117.5q180 0 259.5 -117t79.5 -385v-458h-80z" />
    <glyph glyph-name="uni1B44_uni1B45.ccmp" 
d="M-1103 -436v-122h83q6 194 128 307t325 113q224 0 330.5 -120t106.5 -363v-477h-80v474q0 167 -85.5 241.5t-268.5 74.5q-173 0 -267.5 -64.5t-107.5 -187.5q247 -13 383.5 -108t136.5 -258q0 -84 -67 -138t-168 -54q-160 0 -260 106.5t-106 283.5h-83v-294
q0 -141 75 -222.5t207 -81.5q224 0 309 148l54 -20q-34 -128 -134 -208t-229 -80q-169 0 -265.5 121.5t-96.5 332.5v304h-47l-33 -1v-17q0 -197 -55 -284.5t-168 -87.5q-77 0 -126 60.5t-49 148.5q0 279 318 337q0 137 -33.5 200.5t-114.5 63.5q-69 0 -98 -44t-31 -136
q-29 -8 -44 -8l-36 6q0 154 57.5 253t162.5 99q109 0 163 -101t54 -322l80 2v123h80zM-940 -731q6 -137 88 -212t212 -75q121 0 121 64q0 88 -116 149t-305 74zM-1343 -733q-121 -10 -174.5 -50t-53.5 -115q0 -120 89 -120q73 0 106 65t33 200v20z" />
    <glyph glyph-name="uni1B44_uni1B46.ccmp" 
d="M-210 -1098v458q0 197 -57 264.5t-203 67.5q-141 0 -200.5 -69t-59.5 -256q0 -247 -97.5 -366t-283.5 -119q-197 0 -287 117t-92 369v16q-2 166 -88 237t-266 71q-173 0 -267.5 -64.5t-107.5 -187.5q247 -13 383.5 -108t136.5 -258q0 -84 -67 -138t-168 -54
q-160 0 -260 106.5t-106 283.5h-56l-57 -1v-17q0 -197 -55 -284.5t-168 -87.5q-77 0 -126 60.5t-49 148.5q0 279 318 337q0 137 -33.5 200.5t-114.5 63.5q-69 0 -98 -44t-31 -136q-29 -8 -44 -8l-36 6q0 154 57.5 253t162.5 99q109 0 163 -101t54 -322q33 3 113 3
q6 194 128 307t325 113q437 0 437 -479q0 -177 68 -254t232 -77q161 0 229.5 74t70.5 245v17q0 239 81 356.5t260 117.5q180 0 259.5 -117t79.5 -385v-458h-80zM-2220 -731q6 -137 88 -212t212 -75q121 0 121 64q0 88 -116 149t-305 74zM-2493 -733q-121 -10 -174.5 -50
t-53.5 -115q0 -120 89 -120q73 0 106 65t33 200v20z" />
    <glyph glyph-name="uni1B44_uni1B47.ccmp" 
d="M-1103 -506v-430q55 -12 130 -12q147 0 237 37.5t90 98.5q0 63 -121.5 77t-183.5 69.5t-62 174.5q0 149 121.5 251t307.5 102q240 0 347 -121t107 -381v-458h-80v458q0 176 -83.5 254t-290.5 78q-157 0 -243 -49.5t-86 -139.5q0 -62 127.5 -77.5t183.5 -72.5t56 -166
q0 -116 -122 -210.5t-305 -94.5q-64 0 -121 9q21 -103 92 -160t181 -57q224 0 309 148l54 -20q-34 -128 -134 -208t-229 -80q-156 0 -251 105t-109 294q-103 39 -153.5 136.5t-50.5 262.5v112q0 157 -24.5 212.5t-94.5 55.5q-65 0 -95.5 -41t-32.5 -138q-29 -8 -44 -8l-36 6
q0 159 55 255t150 96q73 0 116 -41.5t64.5 -122.5t21.5 -281v-76q0 -90 27 -153t95 -97v403h80z" />
    <glyph glyph-name="uni1B44_uni1B48.ccmp" horiz-adv-x="1315" 
d="M448 770v-619l26 -1h26q187 0 268.5 81t81.5 251v618h47q105 0 169 -43t91.5 -132.5t27.5 -289.5v-635h-80v626q0 304 -149 304h-26v-448q0 -249 -110.5 -375.5t-328.5 -126.5l-43 2q5 -152 91.5 -242t227.5 -90q145 0 231 62t103 178l66 -20q-22 -189 -125.5 -289.5
t-274.5 -100.5q-185 0 -292 136t-107 369v9q-251 62 -288 375l66 20q25 -184 222 -226v607h80z" />
    <glyph glyph-name="uni1B44_uni1B49.ccmp" 
d="M-553 -506v-441q178 5 260.5 88t82.5 243v744h80v-744q0 -232 -106 -361t-306 -140q24 -101 93.5 -155t177.5 -54q224 0 309 148l54 -20q-34 -128 -134 -208t-229 -80q-153 0 -245.5 99t-111.5 271q-205 15 -321.5 143.5t-116.5 338.5q0 106 49 193t168.5 177t162.5 136
l47 -48q-36 -58 -191.5 -171.5t-155.5 -264.5q0 -147 92.5 -235t260.5 -99v440h80z" />
    <glyph glyph-name="uni1B44_uni1B4A.ccmp" horiz-adv-x="1315" 
d="M448 770v-619l26 -1h26q187 0 268.5 81t81.5 251v618h47q105 0 169 -43t91.5 -132.5t27.5 -289.5v-635h-80v626q0 304 -149 304h-26v-448q0 -249 -110.5 -375.5t-328.5 -126.5l-43 2q5 -152 91.5 -242t227.5 -90q145 0 231 62t103 178l66 -20q-22 -189 -125.5 -289.5
t-274.5 -100.5q-185 0 -292 136t-107 369v9q-251 62 -288 375l66 20q25 -184 222 -226v607h80zM-316 -121q-15 -134 -74 -254t-179.5 -254t-120.5 -219q0 -110 117 -110q93 0 178 96.5t135 265.5t50 372v254h80v-254q0 -408 -117.5 -651t-305.5 -243q-106 0 -166.5 66
t-60.5 179q0 125 136 274.5t193.5 266t78.5 237.5z" />
    <glyph glyph-name="uni1B44_uni1B4B.ccmp" 
d="M-130 -690q0 -215 -57.5 -321.5t-178.5 -106.5q-104 0 -166.5 88t-104.5 320q-43 -232 -105.5 -320t-165.5 -88q-121 0 -178.5 106t-57.5 322v60q0 158 -35.5 231t-113.5 73h-26v-347q0 -226 -59 -335.5t-169 -109.5q-64 0 -130.5 47t-150 150.5t-134.5 116.5
q-6 -148 -64.5 -231t-158.5 -83q-85 0 -130 45.5t-45 123.5q0 135 90 229.5t228 98.5v61q0 144 -24.5 198t-94.5 54q-65 0 -95.5 -41t-32.5 -138q-29 -8 -44 -8l-36 6q0 159 55 255t150 96q71 0 114 -40.5t65.5 -118.5t22.5 -263v-67q56 -6 116.5 -51.5t122 -123.5
t101.5 -112t75 -34q75 0 111.5 66.5t36.5 256.5v469h47q106 0 170 -43.5t91 -133t27 -308.5q0 -186 37 -246.5t125 -60.5q210 0 221 558l2 140h84l2 -151q3 -281 58.5 -414t162.5 -133q89 0 125.5 60.5t36.5 226.5v505h80v-534zM-2042 -791q-108 0 -168 -43t-60 -112
q0 -36 20 -54t69 -18q56 0 97.5 66.5t41.5 160.5z" />
    <glyph glyph-name="uni1B44_uni1B0B.ccmp" horiz-adv-x="1315" 
d="M700 -217q-59 37 -157 37q-60 0 -101 -19t-41 -51q0 -48 137.5 -77.5t214.5 -79t77 -137.5q0 -96 -74.5 -161t-189.5 -65q-109 0 -218 69t-140 160l38 26q27 -42 121.5 -74t178.5 -32q78 0 138.5 25t60.5 66q0 40 -43.5 67t-170.5 55t-171 62t-44 83q0 71 66.5 117
t165.5 46q67 0 110.5 -13t80.5 -33zM146 389q34 -239 354 -239q187 0 268.5 81t81.5 251v618h47q105 0 169 -43t91.5 -132.5t27.5 -289.5v-635h-80v626q0 304 -149 304h-26v-448q0 -249 -110.5 -375.5t-328.5 -126.5q-179 0 -284 99.5t-127 289.5z" />
    <glyph glyph-name="glyph170" 
d="M-130 -628q0 -247 -79 -368.5t-245 -121.5q-172 0 -254 113t-82 358q0 189 -51.5 258t-178.5 69q-138 0 -184 -73.5t-46 -258.5v-225q0 -111 -44 -176t-120 -65q-82 0 -124 71t-42 321v118q0 152 -23.5 220t-75.5 68t-72 -46t-22 -171q-29 -8 -44 -8q-6 0 -36 6
q0 217 44 303t127 86q89 0 135.5 -97t46.5 -368v-118q0 -155 16.5 -195t72.5 -40q38 0 59.5 44t21.5 109v163q0 263 74 382.5t235 119.5q170 0 240.5 -106.5t70.5 -385.5q0 -170 59 -238t200 -68q128 0 184.5 79.5t56.5 240.5v658h80v-658z" />
    <glyph glyph-name="uni1B44_uni1B27.ccmp_uni1B3E.ccmp" horiz-adv-x="2255" 
d="M60 686q0 173 107 302.5t296 129.5q206 0 316.5 -151t110.5 -434q0 -373 -157 -743t-157 -603q0 -136 35 -234l9 -32l-67 -39q-30 41 -53.5 146t-23.5 169q0 217 118.5 511t157 477.5t38.5 354.5q0 408 -324 408q-146 0 -235 -71t-91 -189q-29 -8 -44 -8zM1086 389
q34 -239 354 -239q187 0 268.5 81t81.5 251v618h47q105 0 169 -43t91.5 -132.5t27.5 -289.5v-635h-80v626q0 304 -149 304h-26v-448q0 -249 -110.5 -375.5t-328.5 -126.5q-179 0 -284 99.5t-127 289.5z" />
    <glyph glyph-name="uni1B44_uni1B27.ccmp_uni1B3F.ccmp" horiz-adv-x="2255" 
d="M60 686q0 173 107 302.5t296 129.5q206 0 316.5 -151t110.5 -434q0 -373 -157 -743t-157 -603q0 -136 35 -234l9 -32l-67 -39q-30 41 -53.5 146t-23.5 169q0 217 118.5 511t157 477.5t38.5 354.5q0 408 -324 408q-146 0 -235 -71t-91 -189q-29 -8 -44 -8zM272 1352
q161 9 252.5 60t91.5 127q0 47 -76.5 62t-139 36.5t-95 76.5t-32.5 130q0 119 108 208.5t282 109.5l-7 -99q-108 -14 -195.5 -71.5t-87.5 -120.5q0 -38 27.5 -58.5t104.5 -36t121 -39t67 -69t23 -106.5q0 -128 -115 -210t-311 -98zM1086 389q34 -239 354 -239
q187 0 268.5 81t81.5 251v618h47q105 0 169 -43t91.5 -132.5t27.5 -289.5v-635h-80v626q0 304 -149 304h-26v-448q0 -249 -110.5 -375.5t-328.5 -126.5q-179 0 -284 99.5t-127 289.5z" />
    <glyph glyph-name="uni1B44_uni1B28.ccmp_uni1B3E.ccmp" horiz-adv-x="2168" 
d="M60 686q0 173 107 302.5t296 129.5q206 0 316.5 -151t110.5 -434q0 -373 -157 -743t-157 -603q0 -136 35 -234l9 -32l-67 -39q-30 41 -53.5 146t-23.5 169q0 217 118.5 511t157 477.5t38.5 354.5q0 408 -324 408q-146 0 -235 -71t-91 -189q-29 -8 -44 -8zM2168 1280
q-13 -171 -95 -273.5t-203 -105.5v-419q0 -249 -110.5 -375.5t-328.5 -126.5q-179 0 -284 99.5t-127 289.5l66 20q34 -239 354 -239q187 0 268.5 81t81.5 251v421q-144 21 -231 114t-87 229q0 85 45.5 134.5t124.5 49.5q96 0 159.5 -102.5t68.5 -255.5q88 0 153.5 67
t75.5 184zM1790 1072q-4 112 -46.5 185t-97.5 73q-84 0 -84 -83q0 -76 59.5 -121t168.5 -54z" />
    <glyph glyph-name="uni1B44_uni1B28.ccmp_uni1B3F.ccmp" horiz-adv-x="2168" 
d="M60 686q0 173 107 302.5t296 129.5q206 0 316.5 -151t110.5 -434q0 -373 -157 -743t-157 -603q0 -136 35 -234l9 -32l-67 -39q-30 41 -53.5 146t-23.5 169q0 217 118.5 511t157 477.5t38.5 354.5q0 408 -324 408q-146 0 -235 -71t-91 -189q-29 -8 -44 -8zM272 1352
q161 9 252.5 60t91.5 127q0 47 -76.5 62t-139 36.5t-95 76.5t-32.5 130q0 119 108 208.5t282 109.5l-7 -99q-108 -14 -195.5 -71.5t-87.5 -120.5q0 -38 27.5 -58.5t104.5 -36t121 -39t67 -69t23 -106.5q0 -128 -115 -210t-311 -98zM2168 1280q-13 -171 -95 -273.5
t-203 -105.5v-419q0 -249 -110.5 -375.5t-328.5 -126.5q-179 0 -284 99.5t-127 289.5l66 20q34 -239 354 -239q187 0 268.5 81t81.5 251v421q-144 21 -231 114t-87 229q0 85 45.5 134.5t124.5 49.5q96 0 159.5 -102.5t68.5 -255.5q88 0 153.5 67t75.5 184zM1790 1072
q-4 112 -46.5 185t-97.5 73q-84 0 -84 -83q0 -76 59.5 -121t168.5 -54z" />
    <glyph glyph-name="uni1B44_uni1B31.ccmp_uni1B3E.ccmp" horiz-adv-x="2255" 
d="M60 686q0 173 107 302.5t296 129.5q206 0 316.5 -151t110.5 -434q0 -373 -157 -743t-157 -603q0 -136 35 -234l9 -32l-67 -39q-30 41 -53.5 146t-23.5 169q0 217 118.5 511t157 477.5t38.5 354.5q0 408 -324 408q-146 0 -235 -71t-91 -189q-29 -8 -44 -8zM1799 -133
l-81 200q-106 -87 -287 -87q-179 0 -284 99.5t-127 289.5l66 20q34 -239 354 -239q146 0 226 48l-37 92q-54 136 -96 192.5t-89 56.5q-41 0 -64 -31t-25 -82l-66 5q0 107 37 193t103 86q59 0 119 -76t131 -255l50 -124q61 80 61 227v618h47q105 0 169 -43t91.5 -132.5
t27.5 -289.5v-635h-80v626q0 304 -149 304h-26v-448q0 -228 -91 -351l92 -226z" />
    <glyph glyph-name="uni1B44_uni1B31.ccmp_uni1B3F.ccmp" horiz-adv-x="2255" 
d="M60 686q0 173 107 302.5t296 129.5q206 0 316.5 -151t110.5 -434q0 -373 -157 -743t-157 -603q0 -136 35 -234l9 -32l-67 -39q-30 41 -53.5 146t-23.5 169q0 217 118.5 511t157 477.5t38.5 354.5q0 408 -324 408q-146 0 -235 -71t-91 -189q-29 -8 -44 -8zM272 1352
q161 9 252.5 60t91.5 127q0 47 -76.5 62t-139 36.5t-95 76.5t-32.5 130q0 119 108 208.5t282 109.5l-7 -99q-108 -14 -195.5 -71.5t-87.5 -120.5q0 -38 27.5 -58.5t104.5 -36t121 -39t67 -69t23 -106.5q0 -128 -115 -210t-311 -98zM1799 -133l-81 200q-106 -87 -287 -87
q-179 0 -284 99.5t-127 289.5l66 20q34 -239 354 -239q146 0 226 48l-37 92q-54 136 -96 192.5t-89 56.5q-41 0 -64 -31t-25 -82l-66 5q0 107 37 193t103 86q59 0 119 -76t131 -255l50 -124q61 80 61 227v618h47q105 0 169 -43t91.5 -132.5t27.5 -289.5v-635h-80v626
q0 304 -149 304h-26v-448q0 -228 -91 -351l92 -226z" />
    <glyph glyph-name="uni1B44_uni1B48.ccmp_uni1B3E.ccmp" horiz-adv-x="2255" 
d="M60 686q0 173 107 302.5t296 129.5q206 0 316.5 -151t110.5 -434q0 -373 -157 -743t-157 -603q0 -136 35 -234l9 -32l-67 -39q-30 41 -53.5 146t-23.5 169q0 217 118.5 511t157 477.5t38.5 354.5q0 408 -324 408q-146 0 -235 -71t-91 -189q-29 -8 -44 -8zM1388 770v-619
l26 -1h26q187 0 268.5 81t81.5 251v618h47q105 0 169 -43t91.5 -132.5t27.5 -289.5v-635h-80v626q0 304 -149 304h-26v-448q0 -249 -110.5 -375.5t-328.5 -126.5l-43 2q5 -152 91.5 -242t227.5 -90q145 0 231 62t103 178l66 -20q-22 -189 -125.5 -289.5t-274.5 -100.5
q-185 0 -292 136t-107 369v9q-251 62 -288 375l66 20q25 -184 222 -226v607h80z" />
    <glyph glyph-name="uni1B44_uni1B48.ccmp_uni1B3F.ccmp" horiz-adv-x="2255" 
d="M60 686q0 173 107 302.5t296 129.5q206 0 316.5 -151t110.5 -434q0 -373 -157 -743t-157 -603q0 -136 35 -234l9 -32l-67 -39q-30 41 -53.5 146t-23.5 169q0 217 118.5 511t157 477.5t38.5 354.5q0 408 -324 408q-146 0 -235 -71t-91 -189q-29 -8 -44 -8zM272 1352
q161 9 252.5 60t91.5 127q0 47 -76.5 62t-139 36.5t-95 76.5t-32.5 130q0 119 108 208.5t282 109.5l-7 -99q-108 -14 -195.5 -71.5t-87.5 -120.5q0 -38 27.5 -58.5t104.5 -36t121 -39t67 -69t23 -106.5q0 -128 -115 -210t-311 -98zM1388 770v-619l26 -1h26q187 0 268.5 81
t81.5 251v618h47q105 0 169 -43t91.5 -132.5t27.5 -289.5v-635h-80v626q0 304 -149 304h-26v-448q0 -249 -110.5 -375.5t-328.5 -126.5l-43 2q5 -152 91.5 -242t227.5 -90q145 0 231 62t103 178l66 -20q-22 -189 -125.5 -289.5t-274.5 -100.5q-185 0 -292 136t-107 369v9
q-251 62 -288 375l66 20q25 -184 222 -226v607h80z" />
    <glyph glyph-name="uni1B44_uni1B0B.ccmp_uni1B3E.ccmp" horiz-adv-x="2255" 
d="M60 686q0 173 107 302.5t296 129.5q206 0 316.5 -151t110.5 -434q0 -373 -157 -743t-157 -603q0 -136 35 -234l9 -32l-67 -39q-30 41 -53.5 146t-23.5 169q0 217 118.5 511t157 477.5t38.5 354.5q0 408 -324 408q-146 0 -235 -71t-91 -189q-29 -8 -44 -8zM1640 -217
q-59 37 -157 37q-60 0 -101 -19t-41 -51q0 -48 137.5 -77.5t214.5 -79t77 -137.5q0 -96 -74.5 -161t-189.5 -65q-109 0 -218 69t-140 160l38 26q27 -42 121.5 -74t178.5 -32q78 0 138.5 25t60.5 66q0 40 -43.5 67t-170.5 55t-171 62t-44 83q0 71 66.5 117t165.5 46
q67 0 110.5 -13t80.5 -33zM1086 389q34 -239 354 -239q187 0 268.5 81t81.5 251v618h47q105 0 169 -43t91.5 -132.5t27.5 -289.5v-635h-80v626q0 304 -149 304h-26v-448q0 -249 -110.5 -375.5t-328.5 -126.5q-179 0 -284 99.5t-127 289.5z" />
    </font>
</defs>
</svg>
