<?xml version="1.0" standalone="no"?>
<!DOCTYPE svg PUBLIC "-//W3C//DTD SVG 1.1//EN" "http://www.w3.org/Graphics/SVG/1.1/DTD/svg11.dtd" >
<svg xmlns="http://www.w3.org/2000/svg" xmlns:xlink="http://www.w3.org/1999/xlink" version="1.1">
<metadata>
Created by FontForge 20190801 at Mon Apr 13 04:12:59 2020
 By www-data
Copyright 2017 Google Inc. All Rights Reserved.
</metadata>
<defs>
<font id="NotoSansChamVF" horiz-adv-x="0" >
  <font-face 
    font-family="NotoSansChamVF"
    font-weight="400"
    font-stretch="normal"
    units-per-em="1000"
    panose-1="2 11 5 2 4 5 4 2 2 4"
    ascent="800"
    descent="-200"
    bbox="-455 -494 1522 1242"
    underline-thickness="50"
    underline-position="-125"
    unicode-range="U+000D-AA5F"
  />
<missing-glyph horiz-adv-x="600" 
d="M94 714h411v-714h-411v714zM454 51v612h-309v-612h309z" />
    <glyph glyph-name="laMedial_waMedial_cham" unicode="&#xaa35;&#xaa36;" 
d="M-140 150q-10 -49 -32 -76t-58 -27q-16 0 -29.5 4t-26.5 8t-29 4q-33 0 -50 -29t-17 -79q0 -51 19 -73.5t41 -22.5q17 0 26 10.5t9 28.5q0 27 -20.5 41.5t-55.5 14.5q-28 0 -54 -15l-6 60q14 5 28 6.5t29 1.5q62 0 102.5 -28.5t40.5 -81.5q0 -45 -27.5 -70.5t-68.5 -25.5
q-34 0 -63 16.5t-46.5 51t-17.5 87.5q0 50 13.5 89.5t40 62.5t65.5 23q16 0 28.5 -3.5t24.5 -7.5t24 -4q20 0 30 15t15 41zM-61 97q44 -37 67.5 -81.5t23.5 -91.5q0 -55 -29.5 -89t-76.5 -34t-76.5 36.5t-29.5 94.5q0 63 42.5 125t124.5 102l34 -49q-50 -26 -80.5 -56.5
t-44 -61t-13.5 -58.5q0 -34 12.5 -53t31.5 -19t29.5 16t10.5 45q0 31 -16 64t-54 64z" />
    <glyph glyph-name="laMedial_uSign_cham" unicode="&#xaa35;&#xaa2d;" 
d="M47 9q2 -61 -19.5 -87.5t-50.5 -26.5q-23 0 -38 12.5t-27.5 25t-28.5 12.5q-10 0 -20.5 -10t-10.5 -44h-50q-2 62 20.5 88.5t50.5 26.5q23 0 38.5 -12.5t28.5 -25.5t28 -13q11 0 20 10.5t9 43.5h50zM-140 150q-10 -49 -32 -76t-58 -27q-16 0 -29.5 4t-26.5 8t-29 4
q-33 0 -50 -29t-17 -79q0 -51 19 -73.5t41 -22.5q17 0 26 10.5t9 28.5q0 27 -20.5 41.5t-55.5 14.5q-28 0 -54 -15l-6 60q14 5 28 6.5t29 1.5q62 0 102.5 -28.5t40.5 -81.5q0 -45 -27.5 -70.5t-68.5 -25.5q-34 0 -63 16.5t-46.5 51t-17.5 87.5q0 50 13.5 89.5t40 62.5
t65.5 23q16 0 28.5 -3.5t24.5 -7.5t24 -4q20 0 30 15t15 41z" />
    <glyph glyph-name="laMedial_ueSign_cham" unicode="&#xaa35;&#xaa32;" 
d="M-134 150q-10 -49 -32 -76t-58 -27q-16 0 -29.5 4t-26.5 8t-29 4q-33 0 -50 -29t-17 -79q0 -51 19 -73.5t41 -22.5q17 0 26 10.5t9 28.5q0 27 -20.5 41.5t-55.5 14.5q-28 0 -54 -15l-6 60q14 5 28 6.5t29 1.5q62 0 102.5 -28.5t40.5 -81.5q0 -45 -27.5 -70.5t-68.5 -25.5
q-34 0 -63 16.5t-46.5 51t-17.5 87.5q0 50 13.5 89.5t40 62.5t65.5 23q16 0 28.5 -3.5t24.5 -7.5t24 -4q20 0 30 15t15 41zM-59 108q14 -17 23 -47t9 -67q0 -47 -14.5 -95t-36.5 -89l-71 24q20 38 32 78t12 77q0 26 -6 49.5t-17 41.5z" />
    <glyph glyph-name="waMedial_uSign_cham" unicode="&#xaa36;&#xaa2d;" 
d="M40 14q2 -61 -19.5 -87.5t-50.5 -26.5q-23 0 -38 12.5t-27.5 25t-28.5 12.5q-10 0 -20.5 -10t-10.5 -44h-50q-2 62 20.5 88.5t50.5 26.5q23 0 38.5 -12.5t28.5 -25.5t28 -13q11 0 20 10.5t9 43.5h50zM-334 97q44 -37 67.5 -81.5t23.5 -91.5q0 -55 -29.5 -89t-76.5 -34
t-76.5 36.5t-29.5 94.5q0 63 42.5 125t124.5 102l34 -49q-50 -26 -80.5 -56.5t-44 -61t-13.5 -58.5q0 -34 12.5 -53t31.5 -19t29.5 16t10.5 45q0 31 -16 64t-54 64z" />
    <glyph glyph-name="waMedial_ueSign_cham" unicode="&#xaa36;&#xaa32;" 
d="M96 108q14 -17 23 -47t9 -67q0 -47 -14.5 -95t-36.5 -89l-71 24q20 38 32 78t12 77q0 26 -6 49.5t-17 41.5zM-138 97q44 -37 67.5 -81.5t23.5 -91.5q0 -55 -29.5 -89t-76.5 -34t-76.5 36.5t-29.5 94.5q0 63 42.5 125t124.5 102l34 -49q-50 -26 -80.5 -56.5t-44 -61
t-13.5 -58.5q0 -34 12.5 -53t31.5 -19t29.5 16t10.5 45q0 31 -16 64t-54 64z" />
    <glyph glyph-name="laMed_waMed_uSign_cham" unicode="&#xaa35;&#xaa36;&#xaa2d;" 
d="M307 34q2 -61 -19.5 -87.5t-50.5 -26.5q-23 0 -38 12.5t-27.5 25t-28.5 12.5q-10 0 -20.5 -10t-10.5 -44h-50q-2 62 20.5 88.5t50.5 26.5q23 0 38.5 -12.5t28.5 -25.5t28 -13q11 0 20 10.5t9 43.5h50zM-140 150q-10 -49 -32 -76t-58 -27q-16 0 -29.5 4t-26.5 8t-29 4
q-33 0 -50 -29t-17 -79q0 -51 19 -73.5t41 -22.5q17 0 26 10.5t9 28.5q0 27 -20.5 41.5t-55.5 14.5q-28 0 -54 -15l-6 60q14 5 28 6.5t29 1.5q62 0 102.5 -28.5t40.5 -81.5q0 -45 -27.5 -70.5t-68.5 -25.5q-34 0 -63 16.5t-46.5 51t-17.5 87.5q0 50 13.5 89.5t40 62.5
t65.5 23q16 0 28.5 -3.5t24.5 -7.5t24 -4q20 0 30 15t15 41zM-61 97q44 -37 67.5 -81.5t23.5 -91.5q0 -55 -29.5 -89t-76.5 -34t-76.5 36.5t-29.5 94.5q0 63 42.5 125t124.5 102l34 -49q-50 -26 -80.5 -56.5t-44 -61t-13.5 -58.5q0 -34 12.5 -53t31.5 -19t29.5 16t10.5 45
q0 31 -16 64t-54 64z" />
    <glyph glyph-name="laMed_waMed_ueSign_cham" unicode="&#xaa35;&#xaa36;&#xaa32;" 
d="M155 108q14 -17 23 -47t9 -67q0 -47 -14.5 -95t-36.5 -89l-71 24q20 38 32 78t12 77q0 26 -6 49.5t-17 41.5zM-140 150q-10 -49 -32 -76t-58 -27q-16 0 -29.5 4t-26.5 8t-29 4q-33 0 -50 -29t-17 -79q0 -51 19 -73.5t41 -22.5q17 0 26 10.5t9 28.5q0 27 -20.5 41.5
t-55.5 14.5q-28 0 -54 -15l-6 60q14 5 28 6.5t29 1.5q62 0 102.5 -28.5t40.5 -81.5q0 -45 -27.5 -70.5t-68.5 -25.5q-34 0 -63 16.5t-46.5 51t-17.5 87.5q0 50 13.5 89.5t40 62.5t65.5 23q16 0 28.5 -3.5t24.5 -7.5t24 -4q20 0 30 15t15 41zM-61 97q44 -37 67.5 -81.5
t23.5 -91.5q0 -55 -29.5 -89t-76.5 -34t-76.5 36.5t-29.5 94.5q0 63 42.5 125t124.5 102l34 -49q-50 -26 -80.5 -56.5t-44 -61t-13.5 -58.5q0 -34 12.5 -53t31.5 -19t29.5 16t10.5 45q0 31 -16 64t-54 64z" />
    <glyph glyph-name=".notdef" horiz-adv-x="600" 
d="M94 714h411v-714h-411v714zM454 51v612h-309v-612h309z" />
    <glyph glyph-name=".null" 
 />
    <glyph glyph-name="nonmarkingreturn" horiz-adv-x="333" 
 />
    <glyph glyph-name="NULL" 
 />
    <glyph glyph-name="NULL" 
 />
    <glyph glyph-name="CR" unicode="&#xd;" horiz-adv-x="260" 
 />
    <glyph glyph-name="space" unicode=" " horiz-adv-x="260" 
 />
    <glyph glyph-name="exclam" unicode="!" horiz-adv-x="269" 
d="M106 201l-25 513h107l-25 -513h-57zM72 54q0 37 18 52t44 15q25 0 43.5 -15t18.5 -52q0 -36 -18.5 -52t-43.5 -16q-26 0 -44 16t-18 52z" />
    <glyph glyph-name="quotedbl" unicode="&#x22;" horiz-adv-x="408" 
d="M140 456h-55l-20 258h95zM323 456h-55l-20 258h95z" />
    <glyph glyph-name="quotesingle" unicode="'" horiz-adv-x="225" 
d="M140 456h-55l-20 258h95z" />
    <glyph glyph-name="parenleft" unicode="(" horiz-adv-x="300" 
d="M40 274q0 82 15.5 160t48.5 149t83 131h83q-70 -94 -105.5 -207t-35.5 -232q0 -77 16 -153t47 -146.5t77 -133.5h-82q-50 59 -83 128.5t-48.5 146.5t-15.5 157z" />
    <glyph glyph-name="parenright" unicode=")" horiz-adv-x="300" 
d="M260 274q0 -80 -15.5 -157t-48 -146.5t-83.5 -128.5h-82q46 63 77 133.5t47 146.5t16 153q0 119 -35.5 232t-105.5 207h83q51 -60 83.5 -131t48 -149t15.5 -160z" />
    <glyph glyph-name="comma" unicode="," horiz-adv-x="268" 
d="M192 105q-9 -35 -23 -76t-30.5 -81.5t-32.5 -76.5h-65q10 38 19.5 81.5t17.5 86t13 77.5h94z" />
    <glyph glyph-name="hyphen" unicode="-" horiz-adv-x="322" 
d="M40 307h242v-78h-242v78z" />
    <glyph glyph-name="period" unicode="." horiz-adv-x="268" 
d="M72 54q0 37 18 52t43 15q26 0 44.5 -15t18.5 -52q0 -36 -18.5 -52t-44.5 -16q-25 0 -43 16t-18 52z" />
    <glyph glyph-name="slash" unicode="/" horiz-adv-x="372" 
d="M96 0h-86l266 714h86z" />
    <glyph glyph-name="colon" unicode=":" horiz-adv-x="268" 
d="M72 54q0 37 18 52t43 15q26 0 44.5 -15t18.5 -52q0 -36 -18.5 -52t-44.5 -16q-25 0 -43 16t-18 52zM72 482q0 38 18 53t43 15q26 0 44.5 -15t18.5 -53q0 -36 -18.5 -52t-44.5 -16q-25 0 -43 16t-18 52z" />
    <glyph glyph-name="semicolon" unicode=";" horiz-adv-x="268" 
d="M183 105q-9 -35 -23 -76t-30.5 -81.5t-32.5 -76.5h-66q10 38 19.5 81.5t18 86t13.5 77.5h94zM70 482q0 38 18 53t43 15q26 0 44.5 -15t18.5 -53q0 -36 -18.5 -52t-44.5 -16q-25 0 -43 16t-18 52z" />
    <glyph glyph-name="question" unicode="?" horiz-adv-x="434" 
d="M140 228q0 38 7.5 65.5t26 52.5t50.5 52q39 33 60.5 55t30.5 43t9 51q0 48 -31 74t-90 26q-49 0 -87 -12.5t-73 -29.5l-31 70q40 21 88.5 35t108.5 14q95 0 147 -47t52 -128q0 -45 -14.5 -76.5t-41 -58t-62.5 -56.5q-34 -28 -51 -49t-23 -41.5t-6 -49.5v-17h-70v27z
M117 54q0 37 17.5 52t44.5 15q25 0 43 -15t18 -52q0 -36 -18 -52t-43 -16q-27 0 -44.5 16t-17.5 52z" />
    <glyph glyph-name="nbspace" unicode="&#xa0;" horiz-adv-x="260" 
 />
    <glyph glyph-name="softhyphen" unicode="&#xad;" horiz-adv-x="322" 
d="M40 183h242v-78h-242v78z" />
    <glyph glyph-name="uni200C" unicode="&#x200c;" 
d="M-21 628h42v-761h-42v761z" />
    <glyph glyph-name="uni200D" unicode="&#x200d;" 
d="M-21 535l-62 -62l-26 27l82 82l-82 81l26 27l83 -83l83 83l26 -27l-82 -81l82 -82l-26 -27l-62 62v-668h-42v668z" />
    <glyph glyph-name="hyphentwo" unicode="&#x2010;" horiz-adv-x="322" 
d="M40 183h242v-78h-242v78z" />
    <glyph glyph-name="uni25CC" unicode="&#x25cc;" horiz-adv-x="594" 
d="M213 519q11 0 18.5 -7.5t7.5 -18.5q0 -10 -7.5 -18t-18.5 -8q-10 0 -18 8t-8 18q0 11 8 18.5t18 7.5zM381 519q11 0 18.5 -7.5t7.5 -18.5q0 -10 -7.5 -18t-18.5 -8q-10 0 -18 8t-8 18q0 11 8 18.5t18 7.5zM213 109q11 0 18.5 -7.5t7.5 -18.5q0 -10 -7.5 -18t-18.5 -8
q-10 0 -18 8t-8 18q0 11 8 18.5t18 7.5zM381 109q11 0 18.5 -7.5t7.5 -18.5q0 -10 -7.5 -18t-18.5 -8q-10 0 -18 8t-8 18q0 11 8 18.5t18 7.5zM297 537q11 0 18.5 -7.5t7.5 -18.5q0 -10 -7.5 -18t-18.5 -8q-10 0 -18 8t-8 18q0 11 8 18.5t18 7.5zM297 91q11 0 18.5 -7.5
t7.5 -18.5q0 -10 -7.5 -18t-18.5 -8q-10 0 -18 8t-8 18q0 11 8 18.5t18 7.5zM48 288q0 11 8 18.5t18 7.5q11 0 18.5 -7.5t7.5 -18.5q0 -10 -7.5 -18t-18.5 -8q-10 0 -18 8t-8 18zM494 288q0 11 8 18.5t18 7.5q11 0 18.5 -7.5t7.5 -18.5q0 -10 -7.5 -18t-18.5 -8q-10 0 -18 8
t-8 18zM113 130q0 11 8 18.5t18 7.5q11 0 18.5 -7.5t7.5 -18.5q0 -10 -7.5 -18t-18.5 -8q-10 0 -18 8t-8 18zM113 446q0 11 8 18.5t18 7.5q11 0 18.5 -7.5t7.5 -18.5q0 -10 -7.5 -18t-18.5 -8q-10 0 -18 8t-8 18zM429 130q0 11 8 18.5t18 7.5q11 0 18.5 -7.5t7.5 -18.5
q0 -10 -7.5 -18t-18.5 -8q-10 0 -18 8t-8 18zM429 446q0 11 8 18.5t18 7.5q11 0 18.5 -7.5t7.5 -18.5q0 -10 -7.5 -18t-18.5 -8q-10 0 -18 8t-8 18zM66 204q0 11 8 18.5t18 7.5q11 0 18.5 -7.5t7.5 -18.5q0 -10 -7.5 -18t-18.5 -8q-10 0 -18 8t-8 18zM66 372q0 11 8 18.5
t18 7.5q11 0 18.5 -7.5t7.5 -18.5q0 -10 -7.5 -18t-18.5 -8q-10 0 -18 8t-8 18zM476 204q0 11 8 18.5t18 7.5q11 0 18.5 -7.5t7.5 -18.5q0 -10 -7.5 -18t-18.5 -8q-10 0 -18 8t-8 18zM476 372q0 11 8 18.5t18 7.5q11 0 18.5 -7.5t7.5 -18.5q0 -10 -7.5 -18t-18.5 -8
q-10 0 -18 8t-8 18z" />
    <glyph glyph-name="a_cham" unicode="&#xaa00;" horiz-adv-x="1121" 
d="M519 397q0 -33 -12 -68t-38.5 -64.5t-69.5 -46.5v33q41 -16 65 -38t34.5 -47t10.5 -52q0 -35 -17 -65t-52.5 -48.5t-89.5 -18.5q-64 0 -100.5 22.5t-36.5 59.5q0 32 24 52t62 20q32 0 53.5 -13t32.5 -35t11 -48q0 -6 -0.5 -13.5t-2.5 -15.5l-48 -8q6 20 6 38
q0 25 -12 38.5t-37 13.5q-19 0 -28.5 -8t-9.5 -21q0 -17 19 -26.5t61 -9.5q44 0 69 23t25 62q0 34 -22 61.5t-65 45.5v36q44 18 63 55.5t19 75.5q0 67 -42.5 102.5t-110.5 35.5q-70 0 -111 -39t-41 -101q0 -55 23.5 -88.5t60.5 -33.5q20 0 30.5 11t10.5 27q0 18 -11.5 26.5
t-27.5 8.5q-25 0 -40.5 -20.5t-20.5 -54.5l-34 31q11 38 36 61t62 23q35 0 57 -20.5t22 -54.5q0 -35 -24.5 -57t-65.5 -22q-42 0 -76.5 22t-55 60.5t-20.5 89.5q0 60 28.5 105t80 70t120.5 25q71 0 124 -23.5t82.5 -67.5t29.5 -106zM1068 421q0 -41 -16 -77t-48 -70l-63 47
q20 20 31.5 46t11.5 54q0 50 -29.5 77t-79.5 27t-78.5 -26t-28.5 -70q0 -26 6.5 -53.5t6.5 -56.5q0 -50 -39 -88t-107 -59l-26 27q2 8 2.5 16t0.5 16q0 52 -30.5 84.5t-80.5 35.5l-3 73q56 -6 94 -32.5t57 -67t16 -89.5l-9 6q26 15 36 35t10 44q0 23 -8 54t-8 62
q0 71 50.5 114.5t138.5 43.5q58 0 101.5 -21.5t67.5 -60.5t24 -91z" />
    <glyph glyph-name="i_cham" unicode="&#xaa01;" horiz-adv-x="938" 
d="M858 345q0 -116 -47.5 -208t-163.5 -159q-64 -37 -102.5 -64t-56 -48.5t-17.5 -43.5q0 -19 12 -32.5t34 -13.5q20 0 36 15t31.5 37t34 44t44 37t62.5 15q29 0 52 -13t36 -34.5t13 -48.5q0 -17 -6.5 -39.5t-20.5 -41.5l-68 31q14 20 14 39q0 16 -9 25t-26 9q-19 0 -34 -15
t-30 -37.5t-33.5 -45t-44 -37.5t-62.5 -15q-32 0 -59.5 14.5t-43.5 40.5t-16 58q0 23 8 46.5t29.5 48.5t61.5 55t104 67q70 40 109.5 87.5t56 104t16.5 122.5q0 54 -16.5 92.5t-43.5 59.5t-59 21q-31 0 -51 -12t-37.5 -28.5t-39.5 -28.5t-55 -12t-55 12t-39.5 28.5
t-37.5 28.5t-51 12q-52 0 -86.5 -55t-34.5 -155q0 -89 20 -150t53.5 -92t74.5 -31q26 0 41 13t15 35q0 25 -15.5 36.5t-38.5 11.5t-39.5 -11.5t-27 -30t-14.5 -41.5h-52q10 61 45 97.5t89 36.5q48 0 79 -27t31 -73q0 -44 -31.5 -72.5t-86.5 -28.5q-66 0 -117.5 39.5
t-81.5 113t-30 174.5q0 89 24 153t67 98.5t100 34.5q43 0 71 -12t48.5 -28.5t39 -28.5t40.5 -12q23 0 40.5 12t38 28.5t49 28.5t71.5 12q55 0 97.5 -31t67 -86.5t24.5 -131.5z" />
    <glyph glyph-name="u_cham" unicode="&#xaa02;" horiz-adv-x="592" 
d="M539 395q0 -60 -26 -98.5t-69 -64.5t-94 -49q-63 -28 -92.5 -47t-29.5 -45q0 -22 19.5 -33.5t55.5 -11.5q41 0 58.5 20.5t17.5 55.5h80q0 -63 -42 -101t-116 -38q-47 0 -82.5 11.5t-55 35t-19.5 58.5q0 34 18.5 57t52 42.5t78.5 40.5q46 22 82.5 43.5t57.5 50.5t21 71
q0 62 -42 97t-118 35q-81 0 -123.5 -35.5t-42.5 -98.5q0 -19 8 -45t21 -51l-69 -33q-20 32 -31 66.5t-11 60.5q0 63 31 109t87 71t131 25t129.5 -25t84.5 -69.5t30 -104.5z" />
    <glyph glyph-name="e_cham" unicode="&#xaa03;" horiz-adv-x="943" 
d="M890 692q0 -32 -13.5 -62.5t-39.5 -53.5l-56 48q12 14 19.5 30.5t7.5 36.5q0 44 -29.5 69t-78.5 25q-48 0 -77.5 -25.5t-29.5 -68.5q0 -37 18.5 -68t46 -60t54.5 -60.5t45.5 -69t18.5 -84.5t-22 -82t-59.5 -54t-84.5 -19q-63 0 -100.5 26.5t-37.5 63.5q0 32 25.5 55.5
t69.5 23.5q32 0 57 -13t39 -36t14 -52q0 -55 -27 -81.5t-73 -45.5q-27 -11 -42.5 -20t-21.5 -17.5t-6 -20.5q0 -13 9 -24t28 -25l-18 -44q-11 -1 -24.5 -1h-27.5q-63 0 -111 23.5t-74.5 65.5t-26.5 97q0 38 13.5 69.5t32 59.5t32 57t13.5 63q0 48 -28 77.5t-78 29.5
q-49 0 -79.5 -28t-30.5 -77q0 -28 11.5 -53t27.5 -42l-62 -49q-31 27 -46 65.5t-15 75.5q0 54 24.5 93.5t69 61.5t102.5 22q56 0 98.5 -21t66.5 -59.5t24 -89.5q0 -41 -13.5 -73.5t-32 -61.5t-32 -58.5t-13.5 -64.5q0 -34 14.5 -61t42.5 -42.5t67 -15.5h6h6l25 -51
q-28 10 -47.5 28.5t-19.5 49.5q0 36 21.5 56.5t70.5 40.5q28 12 47.5 23.5t30 28t10.5 42.5q0 23 -14 39t-42 16q-22 0 -32.5 -10.5t-10.5 -25.5q0 -20 19.5 -32.5t58.5 -12.5q36 0 59 13t34.5 35t11.5 50q0 41 -20 75.5t-49 65.5t-58 63t-49 69t-20 83q0 48 23.5 84
t66.5 56t99 20q58 0 101 -21t67 -57t24 -83z" />
    <glyph glyph-name="ai_cham" unicode="&#xaa04;" horiz-adv-x="938" 
d="M858 345q0 -99 -32 -176t-99.5 -137.5t-174.5 -111.5q-46 -22 -72.5 -39.5t-37.5 -33t-11 -31.5q0 -23 19.5 -37.5t56.5 -14.5q41 0 58 20.5t17 56.5h80q0 -63 -42 -101.5t-116 -38.5q-47 0 -82.5 13.5t-55 39t-19.5 60.5q0 53 39.5 91t108.5 72q74 36 127 73.5t86 80.5
t48.5 95.5t15.5 118.5q0 54 -16.5 92.5t-43.5 59.5t-59 21q-31 0 -51 -12t-37.5 -28.5t-39.5 -28.5t-55 -12t-55 12t-39.5 28.5t-37.5 28.5t-51 12q-52 0 -86.5 -53.5t-34.5 -150.5q0 -64 11.5 -112.5t32 -81.5t47 -50t57.5 -17q26 0 41 13t15 35q0 25 -15.5 36.5
t-38.5 11.5t-39.5 -11.5t-27 -30t-14.5 -41.5h-52q10 61 45 97.5t89 36.5q48 0 79 -27t31 -73q0 -44 -31.5 -72.5t-86.5 -28.5q-66 0 -117.5 38t-81.5 108.5t-30 168.5q0 87 24 149.5t67 96.5t100 34q43 0 71 -12t48.5 -28.5t39 -28.5t40.5 -12q23 0 40.5 12t38 28.5
t49 28.5t71.5 12q55 0 97.5 -31t67 -86.5t24.5 -131.5z" />
    <glyph glyph-name="o_cham" unicode="&#xaa05;" horiz-adv-x="588" 
d="M519 397q0 -33 -12 -68t-38.5 -64.5t-69.5 -46.5v33q41 -16 65 -38t34.5 -47t10.5 -52q0 -35 -17 -65t-52.5 -48.5t-89.5 -18.5q-64 0 -100.5 22.5t-36.5 59.5q0 32 24 52t62 20q32 0 53.5 -13t32.5 -35t11 -48q0 -6 -0.5 -13.5t-2.5 -15.5l-48 -8q6 20 6 38
q0 25 -12 38.5t-37 13.5q-19 0 -28.5 -8t-9.5 -21q0 -17 19 -26.5t61 -9.5q44 0 69 23t25 62q0 34 -22 61.5t-65 45.5v36q44 18 63 55.5t19 75.5q0 67 -42.5 102.5t-110.5 35.5q-70 0 -111 -39t-41 -101q0 -55 23.5 -88.5t60.5 -33.5q20 0 30.5 11t10.5 27q0 18 -11.5 26.5
t-27.5 8.5q-25 0 -40.5 -20.5t-20.5 -54.5l-34 31q11 38 36 61t62 23q35 0 57 -20.5t22 -54.5q0 -35 -24.5 -57t-65.5 -22q-42 0 -76.5 22t-55 60.5t-20.5 89.5q0 60 28.5 105t80 70t120.5 25q71 0 124 -23.5t82.5 -67.5t29.5 -106z" />
    <glyph glyph-name="ka_cham" unicode="&#xaa06;" horiz-adv-x="855" 
d="M802 417q0 -40 -13.5 -75t-45.5 -68l-63 46q19 20 28.5 45t9.5 53q0 50 -29 78.5t-80 28.5t-85 -36t-33 -110h-74q2 74 -30.5 110t-84.5 36q-50 0 -79.5 -29t-29.5 -76q0 -28 9.5 -57.5t21.5 -60t21.5 -64t9.5 -70.5q0 -84 -51 -141t-140 -72l-16 72q56 11 89 48.5
t33 97.5q0 31 -9.5 61t-21.5 60t-21.5 62.5t-9.5 67.5q0 50 23 88.5t64 60t94 21.5q56 0 99 -24.5t68 -70t25 -109.5h-54q0 64 24.5 109.5t68.5 70t100 24.5q55 0 95.5 -22t63.5 -62t23 -93z" />
    <glyph glyph-name="kha_cham" unicode="&#xaa07;" horiz-adv-x="1309" 
d="M1256 417q0 -40 -13.5 -75t-44.5 -68l-64 46q20 20 29 45t9 53q0 50 -28.5 78.5t-78.5 28.5q-42 0 -67.5 -27.5t-34.5 -79.5q-9 -55 -30.5 -86t-61.5 -47.5t-108 -29.5q-74 -13 -116.5 -34.5t-60.5 -48.5t-18 -57q0 -28 12.5 -46t37.5 -18q51 0 82.5 68.5t31.5 187.5
q0 108 -32 163t-93 55q-49 0 -82.5 -35t-31.5 -111h-75q2 74 -30.5 110t-85.5 36q-50 0 -79 -29t-29 -76q0 -28 9.5 -57.5t21.5 -60t21.5 -64t9.5 -70.5q0 -84 -51.5 -141t-140.5 -72l-16 72q56 11 89 48.5t33 97.5q0 31 -9.5 61t-21.5 60t-21.5 62.5t-9.5 67.5
q0 50 23 88.5t63.5 60t94.5 21.5q57 0 100 -24.5t67.5 -70.5t24.5 -110h-51q0 65 24 110.5t66.5 70t97.5 24.5q92 0 145 -74.5t53 -213.5q0 -97 -24.5 -170t-69 -113t-104.5 -40q-61 0 -97 34t-36 95q0 53 29.5 93.5t83.5 67.5t127 39q41 7 69.5 14.5t47.5 21.5t30.5 38
t18.5 63q14 76 62.5 110.5t118.5 34.5q56 0 97.5 -22t64 -62t22.5 -93z" />
    <glyph glyph-name="ga_cham" unicode="&#xaa08;" horiz-adv-x="879" 
d="M826 418q0 -40 -14 -75t-44 -70l-64 45q19 22 29 46.5t10 53.5q0 49 -30.5 78t-82.5 29q-55 0 -89 -37.5t-33 -110.5h-74q2 72 -32 110t-90 38q-67 0 -106.5 -57t-39.5 -159q0 -89 24 -150.5t64.5 -92.5t89.5 -31q26 0 41 13t15 35q0 25 -15.5 36.5t-38.5 11.5
t-39.5 -11.5t-27 -30t-14.5 -41.5h-52q10 61 45 97.5t89 36.5q48 0 79 -27t31 -73q0 -44 -31.5 -72.5t-86.5 -28.5q-74 0 -133 39.5t-92.5 113t-33.5 174.5q0 89 27.5 153t78 98.5t119.5 34.5q59 0 102 -25.5t67 -72t24 -110.5h-54q0 64 24.5 110.5t69 72t102.5 25.5
q57 0 98.5 -22t64.5 -61.5t23 -92.5z" />
    <glyph glyph-name="gha_cham" unicode="&#xaa09;" horiz-adv-x="1356" 
d="M1303 418q0 -41 -13.5 -76t-45.5 -69l-64 47q20 20 29 44.5t9 53.5q0 49 -29 78t-80 29q-50 0 -84 -35.5t-32 -110.5h-74q2 74 -30.5 110t-85.5 36q-50 0 -78 -26.5t-28 -70.5q0 -24 6.5 -46.5t6.5 -46.5q0 -41 -16 -67t-39.5 -44t-47.5 -33t-40 -33.5t-16 -46.5
q0 -22 8.5 -37.5t26.5 -36.5l-22 -53q-13 -1 -30 -1h-35q-64 0 -112 24t-74 66t-26 97q0 35 10 65.5t23 59.5t23 58t10 61q0 50 -27.5 80.5t-77.5 30.5t-80.5 -27.5t-30.5 -76.5q0 -28 11.5 -53t29.5 -44l-62 -48q-31 30 -47 67.5t-16 75.5q0 53 24.5 92.5t69 61t102.5 21.5
q56 0 99 -21.5t67 -61t24 -94.5q0 -37 -10 -69t-23 -61t-23 -58t-10 -59q0 -52 30 -85t81 -33h10h9v-13q-21 21 -28 39.5t-7 43.5q0 36 16 59t39 40t46 33t39 37.5t16 54.5q0 17 -6.5 41.5t-6.5 51.5q0 46 22 81t62 54.5t95 19.5q57 0 100 -24.5t67.5 -70.5t23.5 -110h-51
q0 64 24 110t67 70.5t98 24.5q56 0 97 -22t64 -61.5t23 -92.5z" />
    <glyph glyph-name="ngue_cham" unicode="&#xaa0a;" horiz-adv-x="1076" 
d="M1023 400q0 -42 -18 -83.5t-54 -75.5l-62 48q23 21 36.5 50.5t13.5 62.5q0 57 -37.5 90t-98.5 33t-96 -33.5t-35 -94.5q0 -57 24 -89.5t59 -32.5q18 0 29 10.5t11 27.5t-11 25.5t-28 8.5q-21 0 -35 -15t-16 -41q-1 -19 2 -44.5t2 -47.5q-3 -56 -22 -96t-58.5 -67.5
t-103 -47t-155.5 -34.5l-20 51q25 30 40.5 55.5t23 50.5t7.5 51q0 47 -25.5 72t-64.5 25q-10 0 -22 -2t-23 -5l-15 50q41 17 62.5 49.5t21.5 70.5q0 45 -29 74t-79 29q-49 0 -79.5 -28t-30.5 -76q0 -28 12 -54t31 -44l-63 -48q-32 30 -48 68t-16 77q0 52 24.5 91t68.5 61
t102 22q56 0 99.5 -21t68.5 -58.5t25 -88.5q0 -52 -30 -97t-86 -65l-21 45q14 3 27 5t26 2q43 0 76.5 -17t53.5 -48.5t20 -75.5q0 -51 -25 -100t-78 -93l16 61q102 16 153 48.5t58 103.5q2 17 2 40.5t1 48.5q2 52 34.5 80.5t87.5 28.5q41 0 64.5 -21.5t23.5 -57.5
q0 -38 -25.5 -61.5t-69.5 -23.5t-80 22t-56.5 61t-20.5 89q0 58 27 101t76 67.5t113 24.5t112 -24.5t75.5 -68t27.5 -101.5z" />
    <glyph glyph-name="nga_cham" unicode="&#xaa0b;" horiz-adv-x="1078" 
d="M1025 400q0 -42 -18 -83.5t-54 -75.5l-62 48q23 21 36.5 50.5t13.5 62.5q0 57 -37.5 90t-98.5 33q-58 0 -93.5 -33.5t-35.5 -94.5q0 -57 24.5 -89t60.5 -32q18 0 29 10.5t11 26.5q0 17 -11 25.5t-28 8.5q-22 0 -35.5 -15t-15.5 -41q-1 -18 -0.5 -38t-0.5 -43
q-2 -61 -12 -100t-32 -62.5t-60 -39.5q-32 -13 -67 -22t-71 -19.5t-73 -30.5q-50 -28 -67.5 -57t-17.5 -51q0 -19 12 -35.5t34 -16.5q20 0 36 15t31.5 37t34 44t44 37t62.5 15q29 0 52 -13t36 -34.5t13 -48.5q0 -17 -6.5 -39.5t-20.5 -41.5l-68 31q7 10 10.5 20t3.5 19
q0 16 -9 25t-26 9q-19 0 -34 -15t-30 -37.5t-33.5 -45t-44 -37.5t-62.5 -15q-32 0 -59.5 15t-43.5 41t-16 60q0 30 11 56t33.5 51.5t56.5 52.5q54 44 74 91.5t20 93.5q0 47 -25.5 72t-64.5 25q-10 0 -22 -2t-23 -5l-15 50q41 17 62.5 49t21.5 71q0 45 -29 74t-79 29
q-49 0 -79.5 -28t-30.5 -76q0 -28 12 -54t31 -44l-63 -48q-32 30 -48 68t-16 77q0 52 24.5 91t68.5 61t102 22q56 0 99.5 -21t68.5 -58.5t25 -88.5q0 -52 -30 -97t-86 -65l-21 45q14 3 27 4.5t26 1.5q43 0 77 -17t53.5 -48t19.5 -74q0 -30 -9 -63t-28 -63.5t-50 -53.5l5 28
q27 10 56 19t55 18t44 18q22 12 33.5 30.5t15.5 47.5t4 74q0 11 1.5 25.5t2.5 27.5q3 53 35.5 82t89.5 29q41 0 65.5 -22t24.5 -59q0 -39 -26 -62.5t-71 -23.5q-46 0 -82.5 22.5t-57.5 61.5t-21 89q0 58 27 101t76 67.5t113 24.5t112 -24.5t75.5 -68t27.5 -101.5z" />
    <glyph glyph-name="cha_cham" unicode="&#xaa0c;" horiz-adv-x="981" 
d="M928 417q0 -40 -13.5 -75t-45.5 -68l-63 46q19 20 28.5 45t9.5 53q0 50 -27.5 78.5t-77.5 28.5q-44 0 -70.5 -27.5t-34.5 -79.5q-9 -55 -30 -86t-61.5 -47.5t-108.5 -29.5q-74 -13 -116.5 -34.5t-60.5 -48.5t-18 -57q0 -28 12.5 -46t37.5 -18q51 0 82.5 64t31.5 175
q0 114 -41 174.5t-111 60.5q-51 0 -80 -26t-29 -70q0 -25 9.5 -46t22.5 -36l-56 -45q-25 23 -41 57t-16 76q0 46 22.5 82t65 56.5t100.5 20.5q72 0 125.5 -36.5t83 -105t29.5 -166.5q0 -91 -24.5 -159.5t-69 -106t-104.5 -37.5q-61 0 -97 34t-36 95q0 53 29.5 93.5
t83.5 67.5t127 39q41 7 69.5 14.5t47.5 21.5t30.5 38t18.5 63q14 76 63 110.5t119 34.5q56 0 97 -22t64 -62t23 -93z" />
    <glyph glyph-name="chha_cham" unicode="&#xaa0d;" horiz-adv-x="1575" 
d="M1522 421q0 -41 -16 -77t-48 -70l-64 47q20 20 32 46t12 54q0 50 -28.5 77t-76.5 27q-49 0 -78 -26t-29 -72q0 -24 7.5 -49t15 -50.5t7.5 -50.5q0 -40 -21 -70t-56.5 -46.5t-77.5 -16.5q-58 0 -94.5 25t-36.5 67q0 37 25 57t63 20q34 0 61 -16.5t43 -47t16 -72.5
q0 -91 -54 -142.5t-148 -51.5q-65 0 -112 23.5t-72.5 66t-25.5 97.5q0 35 12 66t27 60t27 58.5t12 60.5q0 51 -27 80.5t-78 29.5q-44 0 -70 -27.5t-35 -79.5q-9 -55 -30.5 -86t-61.5 -47.5t-108 -29.5q-74 -13 -116.5 -34.5t-60.5 -48.5t-18 -57q0 -28 12.5 -46t37.5 -18
q51 0 82.5 64t31.5 175q0 114 -41 174.5t-110 60.5q-51 0 -80 -26.5t-29 -70.5q0 -25 9 -46t22 -35l-55 -45q-25 23 -41.5 56.5t-16.5 76.5q0 46 22.5 82t65 56.5t101.5 20.5q72 0 125.5 -36.5t82.5 -105t29 -166.5q0 -91 -24.5 -159.5t-69 -106t-104.5 -37.5q-61 0 -97 34
t-36 95q0 53 29.5 93.5t83.5 67.5t127 39q41 7 69.5 14.5t47.5 21.5t30.5 38t18.5 63q14 76 63 110.5t119 34.5q55 0 97 -21.5t65.5 -60t23.5 -90.5q0 -38 -12 -71t-27 -62t-27 -57t-12 -57q0 -55 35.5 -90t98.5 -35q60 0 95 33.5t35 97.5q0 43 -15 66t-44 23
q-16 0 -26.5 -8t-10.5 -25q0 -22 20.5 -35t54.5 -13q25 0 45 11t32 30t12 44q0 24 -9.5 50.5t-19 56t-9.5 61.5q0 46 23 80t65 53t99 19t99.5 -21.5t66 -60.5t23.5 -91z" />
    <glyph glyph-name="ja_cham" unicode="&#xaa0e;" horiz-adv-x="1330" 
d="M1277 418q0 -41 -13.5 -76t-45.5 -68l-63 46q19 20 28.5 44.5t9.5 53.5q0 49 -29.5 78t-79.5 29q-51 0 -84.5 -35t-32.5 -110h-73q2 73 -31.5 109t-84.5 36q-50 0 -79.5 -29t-29.5 -76q0 -37 10.5 -71l21 -68t10.5 -73q0 -47 -24.5 -87t-70 -72.5t-108.5 -55.5t-140 -37
l-17 45q24 30 40 56t23.5 52t7.5 53q0 47 -25.5 72t-65.5 25q-10 0 -21.5 -2t-23.5 -5l-15 50q41 17 62.5 49.5t21.5 70.5q0 45 -29 74t-79 29q-49 0 -79.5 -28t-30.5 -76q0 -28 12 -54t31 -44l-62 -48q-33 30 -49 68t-16 77q0 52 24.5 91t68.5 61t102 22q57 0 100.5 -21
t68 -58.5t24.5 -88.5q0 -52 -30 -97t-85 -65l-22 45q14 3 27 5t26 2q43 0 76.5 -17t53 -49t19.5 -76q0 -49 -24 -97.5t-74 -92.5v49q104 17 160.5 61.5t56.5 112.5q0 33 -10 65.5t-20.5 69.5t-10.5 81q0 51 22.5 89.5t63.5 60t94 21.5q56 0 99.5 -24.5t68.5 -70t25 -109.5
h-53q0 64 24 109.5t67 70t98 24.5q56 0 97.5 -22t64 -61.5t22.5 -92.5z" />
    <glyph glyph-name="jha_cham" unicode="&#xaa0f;" horiz-adv-x="1485" 
d="M820 421q0 -37 -12.5 -70t-29 -63t-29 -59t-12.5 -58l-63 -10q0 38 9 70.5t21 62.5t21 59t9 59q0 50 -30 81.5t-85 31.5q-56 0 -89 -29.5t-33 -78.5q0 -35 11 -69t21.5 -72t10.5 -85q0 -63 -28 -109.5t-80.5 -72.5t-127.5 -26q-76 0 -132.5 23t-87.5 64t-31 95
q0 43 19.5 77.5t55.5 54.5t86 20q71 0 115.5 -41.5t44.5 -112.5q0 -37 -10.5 -69t-20.5 -51h-67q11 21 19 51.5t8 57.5q0 47 -23 73t-63 26t-62.5 -23.5t-22.5 -61.5q0 -52 43.5 -85t116.5 -33q77 0 120 38t43 110q0 41 -10.5 76.5t-21.5 72t-11 79.5q0 50 25.5 88.5t71 60
t106.5 21.5t107 -21.5t72 -60t26 -91.5zM1432 415q0 -39 -14.5 -77t-45.5 -66l-62 48q17 18 27 43.5t10 53.5q0 50 -29.5 79t-83.5 29q-53 0 -83 -29.5t-30 -77.5q0 -37 10 -71.5t20 -71.5t10 -84q0 -63 -28 -109.5t-80.5 -72.5t-127.5 -26q-76 0 -132.5 23t-87.5 64t-31 95
q0 43 19.5 77.5t55.5 54.5t86 20q71 0 115.5 -41.5t44.5 -112.5q0 -37 -10.5 -69t-20.5 -51h-67q11 21 19 51.5t8 57.5q0 47 -23 73t-63 26t-62.5 -23.5t-22.5 -61.5q0 -52 43.5 -85t116.5 -33q77 0 120 38t43 110q0 41 -10 76.5t-20 72t-10 79.5q0 51 24.5 89.5t69 59.5
t103.5 21q60 0 105 -22.5t69.5 -62.5t24.5 -94z" />
    <glyph glyph-name="nhue_cham" unicode="&#xaa10;" horiz-adv-x="1352" 
d="M1299 417q0 -40 -13.5 -75t-45.5 -68l-63 46q19 20 28.5 45t9.5 53q0 50 -28 78.5t-77 28.5q-44 0 -70 -27.5t-35 -79.5q-9 -55 -30.5 -86t-61.5 -47.5t-108 -29.5q-74 -13 -116.5 -34.5t-60.5 -48.5t-18 -57q0 -28 12.5 -46t37.5 -18q51 0 82.5 64t31.5 175
q0 110 -36 169t-85 59q-31 0 -51 -12t-37.5 -28.5t-39.5 -28.5t-55 -12t-55 12t-39.5 28.5t-37.5 28.5t-51 12q-52 0 -86.5 -55t-34.5 -155q0 -89 20 -150t53.5 -92t74.5 -31q26 0 41 13t15 35q0 25 -15.5 36.5t-38.5 11.5t-39.5 -11.5t-27 -30t-14.5 -41.5h-52
q10 61 45 97.5t89 36.5q48 0 79 -27t31 -73q0 -44 -31.5 -72.5t-86.5 -28.5q-66 0 -117.5 39.5t-81.5 113t-30 174.5q0 89 24 153t67 98.5t100 34.5q43 0 71 -12t48.5 -28.5t39 -28.5t40.5 -12q23 0 40.5 12t38 28.5t49 28.5t71.5 12q55 0 97.5 -36.5t67 -105t24.5 -166.5
q0 -91 -24.5 -159.5t-69 -106t-104.5 -37.5q-61 0 -97 34t-36 95q0 53 29.5 93.5t83.5 67.5t127 39q41 7 69.5 14.5t47.5 21.5t30.5 38t18.5 63q14 76 63 110.5t119 34.5q56 0 97.5 -22t64 -62t22.5 -93z" />
    <glyph glyph-name="nha_cham" unicode="&#xaa11;" horiz-adv-x="1351" 
d="M1298 417q0 -40 -13.5 -75t-44.5 -68l-64 46q19 20 28.5 45t9.5 53q0 50 -28 78.5t-76 28.5q-44 0 -70 -27.5t-35 -79.5q-9 -55 -30.5 -86t-61.5 -47.5t-108 -29.5q-74 -13 -116.5 -34.5t-60.5 -48.5t-18 -57q0 -28 12.5 -46t37.5 -18q51 0 82.5 64t31.5 175
q0 110 -36 169t-85 59q-31 0 -51 -12t-37.5 -28.5t-39.5 -28.5t-55 -12t-55 12t-39.5 28.5t-37.5 28.5t-51 12q-52 0 -86.5 -55t-34.5 -155q0 -89 20 -150t53.5 -92t74.5 -31q26 0 41 13t15 35q0 25 -15.5 36.5t-38.5 11.5t-39.5 -11.5t-27 -30t-14.5 -41.5h-52
q10 61 45 97.5t89 36.5q48 0 79 -27t31 -73q0 -44 -31.5 -72.5t-86.5 -28.5q-66 0 -117.5 39.5t-81.5 113t-30 174.5q0 89 24 153t67 98.5t100 34.5q43 0 71 -12t48.5 -28.5t39 -28.5t40.5 -12q23 0 40.5 12t38 28.5t49 28.5t71.5 12q55 0 97.5 -36.5t67 -105t24.5 -166.5
q0 -61 -11.5 -114.5t-39 -98t-76.5 -78.5q-68 -47 -104 -78.5t-49 -53t-13 -40.5t12 -33t34 -14q20 0 36 15t31.5 37t34 44t44 37t62.5 15q29 0 52 -13t36 -34.5t13 -48.5q0 -17 -6.5 -39.5t-20.5 -41.5l-68 31q14 20 14 39q0 16 -9 25t-26 9q-19 0 -34 -15t-30 -37.5
t-33.5 -45t-44 -37.5t-62.5 -15q-32 0 -59.5 15t-43.5 41t-16 59q0 22 8.5 45t28.5 48.5t54 55.5t84 66l45 -44q-10 -2 -20 -3t-21 -1q-61 0 -97 34t-36 95q0 53 29.5 93.5t83.5 67.5t127 39q41 7 69.5 14.5t47.5 21.5t30.5 38t18.5 63q14 76 63 110.5t119 34.5q56 0 97 -22
t63.5 -62t22.5 -93z" />
    <glyph glyph-name="nhja_cham" unicode="&#xaa12;" horiz-adv-x="1351" 
d="M1298 417q0 -40 -13.5 -75t-44.5 -68l-64 46q19 20 28.5 45t9.5 53q0 50 -28 78.5t-76 28.5q-44 0 -70 -27.5t-35 -79.5q-9 -55 -30.5 -86t-61.5 -47.5t-108 -29.5q-55 -10 -93 -24.5t-60 -33t-32 -39t-10 -43.5q0 -28 12.5 -46t37.5 -18q51 0 82.5 64t31.5 175
q0 110 -36 169t-85 59q-31 0 -51 -12t-37.5 -28.5t-39.5 -28.5t-55 -12t-55 12t-39.5 28.5t-37.5 28.5t-51 12q-52 0 -86.5 -55t-34.5 -155q0 -89 20 -150t53.5 -92t74.5 -31q26 0 41 13t15 35q0 25 -15.5 36.5t-38.5 11.5t-39.5 -11.5t-27 -30t-14.5 -41.5h-52
q10 61 45 97.5t89 36.5q48 0 79 -27t31 -73q0 -44 -31.5 -72.5t-86.5 -28.5q-66 0 -117.5 39.5t-81.5 113t-30 174.5q0 89 24 153t67 98.5t100 34.5q43 0 71 -12t48.5 -28.5t39 -28.5t40.5 -12q23 0 40.5 12t38 28.5t49 28.5t71.5 12q55 0 97.5 -36.5t67 -105t24.5 -166.5
q0 -61 -11.5 -114.5t-39 -98t-76.5 -78.5q-68 -47 -104 -78.5t-49 -53t-13 -40.5t12 -33t34 -14q20 0 36 15t31.5 37t34 44t44 37t62.5 15q29 0 52 -13t36 -34.5t13 -48.5q0 -17 -6.5 -39.5t-20.5 -41.5l-68 31q14 20 14 39q0 16 -9 25t-26 9q-19 0 -34 -15t-30 -37.5
t-33.5 -45t-44 -37.5t-62.5 -15q-32 0 -59.5 15t-43.5 41t-16 59q0 29 17.5 60.5t57 69t106.5 85.5l39 -34q-10 -2 -20 -3t-21 -1q-55 0 -88.5 31t-33.5 85q0 52 27.5 93t79 69t122.5 40q41 7 69.5 15t47.5 22t30.5 38t18.5 63q14 76 63 110.5t119 34.5q56 0 97 -22
t63.5 -62t22.5 -93zM639 -39h-103q-41 0 -62 -9t-31.5 -33.5t-20.5 -72.5q-10 -46 -22 -74.5t-30 -44t-46 -21t-70 -5.5h-42v53h21q42 0 63.5 9t32 33.5t20.5 72.5q10 46 21.5 74.5t29.5 44t46 21t70 5.5h123v-53z" />
    <glyph glyph-name="ta_cham" unicode="&#xaa13;" horiz-adv-x="865" 
d="M812 417q0 -40 -13.5 -75t-45.5 -68l-63 46q19 20 28.5 45t9.5 53q0 50 -29 78.5t-80 28.5q-52 0 -85.5 -36t-32.5 -110h-74q2 73 -31 109.5t-84 36.5q-69 0 -107.5 -57t-38.5 -158q0 -128 40.5 -196.5t114.5 -68.5q43 0 67 25t24 70q0 50 -29 74.5t-74 24.5t-80.5 -22
t-58.5 -66l-40 52q33 47 79.5 72.5t104.5 25.5q50 0 89.5 -19.5t62 -55.5t22.5 -85q0 -70 -45.5 -114t-124.5 -44q-72 0 -125.5 39.5t-83 112.5t-29.5 173q0 89 27 153t77.5 98.5t119.5 34.5q56 0 98 -24.5t65.5 -70t22.5 -109.5h-52q0 64 24.5 109.5t68 70t99.5 24.5
q55 0 95.5 -22t63.5 -62t23 -93z" />
    <glyph glyph-name="tha_cham" unicode="&#xaa14;" horiz-adv-x="1097" 
d="M1044 421q0 -41 -16 -77t-48 -70l-64 47q20 20 32 46t12 54q0 50 -28.5 77t-76.5 27q-49 0 -78 -26t-29 -72q0 -24 7.5 -49t15 -50.5t7.5 -50.5q0 -40 -21 -70t-56 -46.5t-78 -16.5q-58 0 -94.5 25t-36.5 67q-1 36 25 56.5t63 20.5q34 0 61 -16.5t43 -47t16 -72.5
q0 -91 -54 -142.5t-148 -51.5q-64 0 -111.5 23.5t-73 66t-25.5 97.5q0 35 10 66t22.5 60t22.5 58.5t10 60.5q0 51 -28 80.5t-78 29.5q-51 0 -80.5 -28t-29.5 -77q0 -27 11.5 -52.5t27.5 -42.5l-62 -49q-31 27 -46 66t-15 76q0 54 24.5 93.5t69 61t102.5 21.5
q57 0 99.5 -21.5t66.5 -60t24 -90.5q0 -38 -10 -71t-22.5 -62t-22.5 -57t-10 -57q0 -55 35.5 -90t98.5 -35q60 0 95.5 33.5t35.5 97.5q0 43 -15.5 66t-44.5 23q-16 0 -27 -8.5t-10 -25.5q1 -21 21 -34t54 -13q25 0 45 10.5t32.5 30t12.5 44.5q0 24 -9.5 50.5t-19.5 56
t-10 61.5q0 46 23 80t65 53t99 19t99.5 -21.5t66 -60.5t23.5 -91z" />
    <glyph glyph-name="da_cham" unicode="&#xaa15;" horiz-adv-x="1021" 
d="M968 421q0 -40 -16 -77.5t-48 -68.5l-62 49q19 19 30.5 44t11.5 53q0 49 -29.5 76.5t-79.5 27.5t-78 -27t-28 -74q0 -36 10.5 -71.5t21 -72.5t10.5 -78q0 -44 -24.5 -83t-70 -71t-108.5 -55t-140 -37l-17 45q24 30 40 56t23.5 52t7.5 53q0 47 -26 72t-65 25q-11 0 -22 -2
t-23 -5l-15 50q41 17 62.5 49.5t21.5 70.5q0 45 -29 74t-79 29q-49 0 -79.5 -28t-30.5 -76q0 -28 12 -54t31 -44l-63 -48q-32 30 -48 68t-16 77q0 52 24.5 91t68.5 61t102 22q57 0 100.5 -21t68 -58.5t24.5 -88.5q0 -52 -30 -97t-86 -65l-21 45q14 3 27 5t26 2
q43 0 76.5 -17.5t53 -48.5t19.5 -75q0 -50 -24 -98.5t-74 -92.5v49q103 17 160 60.5t57 104.5q0 36 -10.5 72.5t-21 75.5t-10.5 80q0 52 24 89.5t67.5 58t101.5 20.5t101 -21.5t67 -60.5t24 -91z" />
    <glyph glyph-name="dha_cham" unicode="&#xaa16;" horiz-adv-x="1047" 
d="M994 421q0 -40 -15.5 -77.5t-47.5 -67.5l-63 48q19 20 30.5 44.5t11.5 52.5q0 49 -29 76.5t-79 27.5t-77.5 -26.5t-27.5 -70.5q0 -24 6.5 -46.5t6.5 -46.5q0 -41 -16 -67t-39.5 -44t-47.5 -33t-40 -33.5t-16 -46.5q0 -22 8.5 -37.5t26.5 -36.5l-22 -53q-13 -1 -30 -1h-35
q-64 0 -112 24t-74 66t-26 97q0 35 10 65.5t23 59.5t23 58t10 61q0 50 -27.5 80.5t-77.5 30.5t-80.5 -27.5t-30.5 -76.5q0 -28 11.5 -53t29.5 -45l-62 -48q-31 31 -47 68.5t-16 75.5q0 53 24.5 92.5t69 61t102.5 21.5q56 0 99 -21.5t67 -61t24 -94.5q0 -37 -10 -69t-23 -61
t-23 -58t-10 -59q0 -52 30 -85t81 -33h10h9v-13q-21 21 -28 39.5t-7 43.5q0 36 16 59t39 40t46 33t39 37.5t16 54.5q0 17 -6.5 41.5t-6.5 51.5q0 46 23.5 81t66.5 54.5t102 19.5q58 0 100.5 -21.5t66.5 -60.5t24 -91z" />
    <glyph glyph-name="nue_cham" unicode="&#xaa17;" horiz-adv-x="1064" 
d="M1011 421q0 -41 -16.5 -78t-48.5 -69l-63 47q20 20 32 46t12 54q0 50 -29.5 77t-76.5 27q-49 0 -76.5 -27t-27.5 -74q0 -35 9 -69t17.5 -70t8.5 -80q0 -70 -38.5 -128.5t-98.5 -93.5l-41 32q6 77 -16.5 131.5t-64.5 83t-94 28.5q-51 0 -87 -19t-54.5 -48.5t-18.5 -63.5
q0 -35 15.5 -55.5t41.5 -20.5q47 0 77.5 62.5t30.5 170.5q0 119 -41 180t-112 61q-50 0 -79 -26t-29 -70q0 -25 9 -46t22 -36l-56 -45q-25 23 -41 57t-16 76q0 46 22.5 82t65 56.5t100.5 20.5q72 0 126 -36.5t83.5 -106.5t29.5 -171q0 -89 -24.5 -156t-68 -104t-101.5 -37
q-59 0 -98.5 37.5t-39.5 103.5q0 58 31 103t83.5 71.5t117.5 26.5q63 0 113 -24t83.5 -67t47.5 -100.5t5 -123.5l-50 37q24 14 42.5 38.5t29.5 54.5t11 59q0 37 -9.5 72.5t-19 74t-9.5 80.5q0 50 22.5 88t65 59t100.5 21q57 0 100 -22t67 -60.5t24 -90.5z" />
    <glyph glyph-name="na_cham" unicode="&#xaa18;" horiz-adv-x="1064" 
d="M488 280q0 -89 -24.5 -156t-68 -104t-101.5 -37q-59 0 -98.5 37.5t-39.5 103.5q0 58 31 103t83.5 71.5t117.5 26.5q63 0 113 -24t83.5 -67t47.5 -100.5t5 -123.5l-63 5q6 77 -16.5 131.5t-64.5 83t-94 28.5q-51 0 -87 -19t-54.5 -48.5t-18.5 -63.5q0 -35 15.5 -55.5
t41.5 -20.5q47 0 77.5 62.5t30.5 170.5q0 119 -41 180t-112 61q-50 0 -79 -26t-29 -70q0 -25 9 -46t22 -36l-56 -45q-25 23 -41 57t-16 76q0 46 22.5 82t65 56.5t100.5 20.5q72 0 126 -36.5t83.5 -106.5t29.5 -171zM1011 421q0 -41 -16.5 -78t-48.5 -69l-63 47q20 20 32 46
t12 54q0 50 -29.5 77t-76.5 27q-49 0 -76.5 -27t-27.5 -74q0 -35 9 -69t17.5 -70t8.5 -80q0 -69 -38.5 -129t-121.5 -108q-58 -34 -89.5 -59.5t-43 -46t-11.5 -39.5t12 -33t34 -14q20 0 36 15t31.5 37t34 44t44 37t62.5 15q29 0 52 -13t36 -34.5t13 -48.5q0 -17 -6.5 -39.5
t-20.5 -41.5l-68 31q14 20 14 39q0 16 -9 25t-26 9q-19 0 -34 -15t-30 -37.5t-33.5 -45t-44 -37.5t-62.5 -15q-32 0 -59.5 15t-43.5 41t-16 59q0 22 9 44t30.5 46.5t58.5 52t92 60.5q62 36 89 84.5t27 95.5q0 37 -9.5 72.5t-19 74t-9.5 80.5q0 50 22.5 88t65 59t100.5 21
q57 0 100 -22t67 -60.5t24 -90.5z" />
    <glyph glyph-name="dda_cham" unicode="&#xaa19;" horiz-adv-x="1064" 
d="M1011 421q0 -41 -16.5 -78t-48.5 -69l-63 47q20 20 32 46t12 54q0 50 -29.5 77t-76.5 27q-49 0 -76.5 -27t-27.5 -74q0 -35 9 -69t17.5 -70t8.5 -80q0 -70 -38.5 -128.5t-98.5 -93.5l-41 32q6 77 -16.5 131.5t-64.5 83t-94 28.5q-51 0 -87 -19t-54.5 -48.5t-18.5 -63.5
q0 -35 15.5 -55.5t41.5 -20.5q47 0 77.5 62.5t30.5 170.5q0 119 -41 180t-112 61q-50 0 -79 -26t-29 -70q0 -25 9 -46t22 -36l-56 -45q-25 23 -41 57t-16 76q0 46 22.5 82t65 56.5t100.5 20.5q72 0 126 -36.5t83.5 -106.5t29.5 -171q0 -86 -25.5 -159t-101.5 -126
q-68 -47 -104 -78.5t-48.5 -53t-12.5 -40.5t12 -33t34 -14q20 0 36 15t31.5 37t34 44t44 37t62.5 15q29 0 52 -13t36 -34.5t13 -48.5q0 -17 -6.5 -39.5t-20.5 -41.5l-68 31q14 20 14 39q0 16 -9 25t-26 9q-19 0 -34 -15t-30 -37.5t-33.5 -45t-44 -37.5t-62.5 -15
q-32 0 -59.5 15t-43.5 41t-16 59q0 22 8.5 45t28.5 48.5t54 55.5t84 66l45 -44q-8 -2 -17.5 -3t-20.5 -1q-59 0 -98.5 37.5t-39.5 103.5q0 58 31 103t83.5 71.5t117.5 26.5q63 0 113 -24t83.5 -67t47.5 -100.5t5 -123.5l-50 37q24 14 42.5 38.5t29.5 54.5t11 59
q0 37 -9.5 72.5t-19 74t-9.5 80.5q0 50 22.5 88t65 59t100.5 21q57 0 100 -22t67 -60.5t24 -90.5z" />
    <glyph glyph-name="pa_cham" unicode="&#xaa1a;" horiz-adv-x="1162" 
d="M1109 417q0 -40 -13.5 -75t-45.5 -68l-64 46q19 20 28.5 45t9.5 53q0 50 -29 78.5t-80 28.5t-85 -35.5t-33 -109.5h-73q2 73 -31 109t-85 36q-50 0 -79 -29t-29 -76q0 -38 10 -73t20 -72t10 -84q0 -63 -28 -109.5t-80.5 -72.5t-127.5 -26q-76 0 -132.5 23t-87.5 64
t-31 95q0 43 19.5 77.5t55.5 54.5t86 20q71 0 115.5 -41.5t44.5 -112.5q0 -37 -10.5 -69t-20.5 -51h-67q11 21 19 51.5t8 57.5q0 47 -23 73t-63 26t-62.5 -23.5t-22.5 -61.5q0 -52 43.5 -85t116.5 -33q77 0 120 38t43 110q0 41 -10 76.5t-20.5 72t-10.5 79.5q0 50 22.5 88.5
t63.5 60t94 21.5q57 0 100 -24.5t68 -70t24 -109.5h-51q0 64 24.5 109.5t67.5 70t98 24.5q56 0 97 -22t64 -62t23 -93z" />
    <glyph glyph-name="ppa_cham" unicode="&#xaa1b;" horiz-adv-x="1021" 
d="M968 421q0 -40 -16 -77.5t-48 -67.5l-62 48q19 20 30.5 45t11.5 53q0 48 -29 75.5t-79 27.5t-78.5 -27.5t-28.5 -75.5q0 -27 9 -57.5t21.5 -64t21.5 -69.5t9 -74q0 -75 -39.5 -119t-106.5 -44q-34 0 -63.5 9.5t-56.5 24t-52 29t-49 24t-49 9.5q-22 0 -36.5 -10t-14.5 -30
q0 -17 15 -26.5t35 -9.5q33 0 57 20t37.5 54t13.5 74q0 47 -25.5 72t-64.5 25q-10 0 -22 -2t-23 -5l-15 50q41 17 62.5 49.5t21.5 70.5q0 45 -29 74t-79 29q-49 0 -79.5 -28t-30.5 -76q0 -28 12 -54t31 -44l-63 -48q-32 30 -48 68t-16 77q0 52 24.5 91t68.5 61t102 22
q56 0 99.5 -21t68.5 -58.5t25 -88.5q0 -52 -30 -97t-86 -65l-21 45q14 3 27 5t26 2q43 0 76.5 -17t53 -49t19.5 -76q0 -41 -14.5 -77.5t-40.5 -65t-60.5 -45t-74.5 -16.5q-26 0 -49 9t-37 27.5t-14 44.5q0 37 27.5 59.5t68.5 22.5q33 0 64.5 -11t61.5 -25.5t59.5 -25.5
t58.5 -11q31 0 50 13.5t28.5 37.5t9.5 54q0 31 -9 64t-21.5 66t-21.5 65.5t-9 62.5q0 54 24 92t67.5 58.5t101.5 20.5t101 -21.5t67 -60.5t24 -91z" />
    <glyph glyph-name="pha_cham" unicode="&#xaa1c;" horiz-adv-x="1483" 
d="M1430 421q0 -41 -16 -77t-48 -70l-64 47q21 20 32.5 46t11.5 54q0 50 -28.5 77t-76.5 27q-49 0 -78 -26t-29 -72q0 -24 7.5 -49t15 -50.5t7.5 -50.5q0 -40 -21 -70t-56.5 -46.5t-77.5 -16.5q-58 0 -94.5 25t-36.5 67q-1 36 24.5 56.5t63.5 20.5q34 0 61 -16.5t43 -47
t16 -72.5q0 -91 -54 -142.5t-148 -51.5q-65 0 -112 23.5t-72.5 65t-25.5 96.5q0 36 9 67.5t21 60.5t21 57.5t9 58.5q0 50 -30 81.5t-85 31.5q-56 0 -89 -29.5t-33 -78.5q0 -36 11 -70t21.5 -71.5t10.5 -84.5q0 -63 -28 -109.5t-80.5 -72.5t-127.5 -26q-76 0 -132.5 23
t-87.5 64t-31 95q0 43 19.5 77.5t55.5 54.5t86 20q71 0 115.5 -41.5t44.5 -112.5q0 -37 -10.5 -69t-20.5 -51h-67q11 21 19 51.5t8 57.5q0 47 -23 73t-63 26t-62.5 -23.5t-22.5 -61.5q0 -52 43.5 -85t116.5 -33q77 0 120 38t43 110q0 41 -10.5 76.5t-21.5 72t-11 79.5
q0 50 25.5 88.5t71 60t106.5 21.5t107 -21.5t72 -60t26 -91.5q0 -37 -9 -69.5t-21 -62t-21 -58t-9 -57.5q0 -54 35.5 -89t98.5 -35q60 0 95 33.5t35 97.5q0 43 -15.5 66t-43.5 23q-16 0 -27 -8.5t-10 -25.5q1 -21 21 -34t54 -13q25 0 45 11t32 30t12 44q0 23 -9.5 49.5
t-19 56.5t-9.5 62q0 46 23 80t65 53t99 19t99.5 -21.5t66 -60.5t23.5 -91z" />
    <glyph glyph-name="ba_cham" unicode="&#xaa1d;" horiz-adv-x="1003" 
d="M950 418q0 -37 -15 -76t-46 -66l-62 49q17 17 28 42.5t11 52.5q0 49 -29.5 77t-80.5 28q-50 0 -77.5 -29.5t-27.5 -80.5q0 -31 10 -60.5t22.5 -58.5t22.5 -60t10 -66q0 -83 -57 -135t-156 -52q-66 0 -114.5 23.5t-74.5 66t-26 97.5q0 35 10 66t22.5 60t22.5 58.5t10 60.5
q0 51 -28 80.5t-78 29.5q-51 0 -80.5 -28t-29.5 -77q0 -27 11.5 -52.5t27.5 -42.5l-62 -49q-30 27 -45.5 66t-15.5 76q0 54 24.5 93.5t68.5 61t103 21.5q56 0 98.5 -21.5t66.5 -60t24 -90.5q0 -39 -9 -72.5t-21.5 -63.5t-21.5 -58.5t-9 -57.5q0 -54 33.5 -86.5t91.5 -32.5
q59 0 91.5 32.5t32.5 86.5q0 29 -9 57.5t-21.5 58.5t-21.5 63.5t-9 72.5q0 52 24 90.5t66.5 60t98.5 21.5q59 0 103 -21.5t68.5 -61t24.5 -93.5z" />
    <glyph glyph-name="bha_cham" unicode="&#xaa1e;" horiz-adv-x="1310" 
d="M1257 417q0 -40 -13.5 -75t-45.5 -68l-63 46q19 20 28.5 45t9.5 53q0 50 -29 78.5t-81 28.5q-50 0 -83.5 -35t-31.5 -110h-75q2 74 -31 109.5t-85 35.5q-53 0 -81.5 -27.5t-28.5 -73.5q0 -28 9.5 -56.5t22.5 -59t22.5 -64t9.5 -71.5q0 -86 -55 -138t-153 -52
q-66 0 -114.5 23.5t-75 66t-26.5 97.5q0 35 10 66t22.5 60t22.5 58.5t10 60.5q0 51 -27.5 80.5t-77.5 29.5q-52 0 -81 -28t-29 -77q0 -27 11.5 -52.5t27.5 -42.5l-63 -49q-30 27 -45 66t-15 76q0 54 24.5 93.5t68.5 61t103 21.5q56 0 98.5 -21.5t66.5 -60t24 -90.5
q0 -39 -9 -72.5t-21.5 -63.5t-21.5 -58.5t-9 -57.5q0 -54 33.5 -86.5t91.5 -32.5q57 0 88.5 33t31.5 90q0 32 -9 62.5t-21.5 61t-21.5 62.5t-9 66q0 51 22.5 89t63.5 58.5t96 20.5q57 0 101 -24t69 -69.5t25 -110.5h-55q0 65 24.5 110.5t67.5 69.5t99 24q55 0 96 -22t64 -62
t23 -93z" />
    <glyph glyph-name="mue_cham" unicode="&#xaa1f;" horiz-adv-x="1047" 
d="M502 326l199 -166l-39 -50l-200 165zM994 421q0 -40 -15.5 -77.5t-47.5 -67.5l-63 48q19 20 30.5 44.5t11.5 52.5q0 49 -29 76.5t-79 27.5t-78.5 -26.5t-28.5 -70.5q0 -24 6.5 -46t6.5 -46q0 -42 -18 -68t-44.5 -42.5t-53.5 -31.5t-45 -34t-18 -50q0 -22 10 -41t30 -41
l-18 -44q-10 -1 -24 -1h-28q-64 0 -112 24t-74 66t-26 97q0 35 10 65.5t23 59.5t23 58t10 61q0 50 -27.5 80.5t-77.5 30.5t-80.5 -27.5t-30.5 -76.5q0 -28 11.5 -53t29.5 -45l-62 -48q-31 31 -47 68.5t-16 75.5q0 53 24.5 92.5t69 61t102.5 21.5q56 0 99 -21.5t67 -61
t24 -94.5q0 -37 -10 -69t-23.5 -61t-23.5 -58t-10 -59q0 -53 30.5 -87t81.5 -34h6h6l5 -20q-20 22 -28.5 41.5t-8.5 42.5q0 36 16.5 58.5t41 39t48.5 32t40.5 36.5t16.5 55q0 20 -7 47.5t-7 57.5q0 46 23 81t65.5 54.5t101.5 19.5q58 0 100.5 -21.5t66.5 -60.5t24 -91z" />
    <glyph glyph-name="ma_cham" unicode="&#xaa20;" horiz-adv-x="1047" 
d="M917 -172q0 -17 -6.5 -39.5t-20.5 -41.5l-68 31q14 20 14 39q0 16 -9 25t-26 9q-19 0 -34 -15t-29 -37.5t-31.5 -45t-42.5 -37.5t-61 -15q-32 0 -59.5 14t-43.5 39.5t-16 59.5q0 27 11.5 55.5t28.5 60t34 65t28.5 70t11.5 76.5q0 39 -17.5 69t-47 49t-65.5 25l12 50
q55 -9 95.5 -35t62.5 -66t22 -90q0 -45 -14 -91.5t-32 -89.5t-32 -78.5t-14 -60.5q0 -19 12 -33t34 -14q20 0 35 15t29.5 37t32.5 44t43 37t62 15q29 0 52 -13t36 -34.5t13 -48.5zM994 421q0 -40 -15.5 -77.5t-47.5 -67.5l-63 48q19 20 30.5 44.5t11.5 52.5q0 49 -29 76.5
t-79 27.5t-78.5 -26.5t-28.5 -70.5q0 -24 6.5 -45.5t6.5 -44.5q0 -43 -18 -69t-44.5 -43t-53.5 -33.5t-45 -39.5t-18 -61q0 -14 3 -28t10 -36l-18 -44q-5 -1 -11.5 -1h-13.5q-64 0 -112 24t-74 66t-26 97q0 35 10 65.5t23 59.5t23 58t10 61q0 50 -27.5 80.5t-77.5 30.5
t-80.5 -27.5t-30.5 -76.5q0 -28 11.5 -53t29.5 -45l-62 -48q-31 31 -47 68.5t-16 75.5q0 53 24.5 92.5t69 61t102.5 21.5q56 0 99 -21.5t67 -61t24 -94.5q0 -37 -10 -69t-23.5 -61t-23.5 -58t-10 -59q0 -53 30.5 -87t81.5 -34h6h6l-20 -20q-6 23 -9 36.5t-3 30.5
q0 42 16.5 69t41 45t48.5 35t40.5 39t16.5 57q0 18 -7 43t-7 55q0 46 23 81t65.5 54.5t101.5 19.5q58 0 100.5 -21.5t66.5 -60.5t24 -91z" />
    <glyph glyph-name="bba_cham" unicode="&#xaa21;" horiz-adv-x="1047" 
d="M781 -113q0 -89 -34.5 -137.5t-95.5 -48.5q-58 0 -91.5 41t-33.5 110q0 80 52.5 173.5t163.5 211.5l47 -47q-70 -76 -112.5 -138t-61 -111.5t-18.5 -86.5q0 -40 14 -64.5t39 -24.5q27 0 43 30t16 94q0 45 -11 92.5t-36.5 95.5t-71 94.5t-114.5 89.5l37 59
q133 -95 200.5 -202.5t67.5 -230.5zM994 421q0 -40 -15.5 -77.5t-47.5 -67.5l-63 48q19 20 30.5 44.5t11.5 52.5q0 49 -29 76.5t-79 27.5t-78.5 -26.5t-28.5 -70.5q0 -24 6.5 -45.5t6.5 -44.5q0 -43 -18 -69t-44.5 -43t-53.5 -33.5t-45 -39.5t-18 -61q0 -14 3 -28t10 -36
l-18 -44q-5 -1 -11.5 -1h-13.5q-64 0 -112 24t-74 66t-26 97q0 35 10 65.5t23 59.5t23 58t10 61q0 50 -27.5 80.5t-77.5 30.5t-80.5 -27.5t-30.5 -76.5q0 -28 11.5 -53t29.5 -45l-62 -48q-31 31 -47 68.5t-16 75.5q0 53 24.5 92.5t69 61t102.5 21.5q56 0 99 -21.5t67 -61
t24 -94.5q0 -37 -10 -69t-23.5 -61t-23.5 -58t-10 -59q0 -53 30.5 -87t81.5 -34h6h6l-20 -20q-6 23 -9 36.5t-3 30.5q0 42 16.5 69t41 45t48.5 35t40.5 39t16.5 57q0 18 -7 43t-7 55q0 46 23 81t65.5 54.5t101.5 19.5q58 0 100.5 -21.5t66.5 -60.5t24 -91z" />
    <glyph glyph-name="ya_cham" unicode="&#xaa22;" horiz-adv-x="1298" 
d="M1245 418q0 -41 -13.5 -76t-45.5 -69l-63 47q19 20 28.5 45t9.5 54q0 48 -29.5 77t-79.5 29q-51 0 -84.5 -35.5t-32.5 -109.5h-73q2 73 -31 109t-85 36q-50 0 -79.5 -29t-29.5 -75q0 -38 10.5 -72l21 -68t10.5 -74q0 -64 -45 -113.5t-130.5 -84t-206.5 -53.5l-14 41
q26 55 45 117.5t29.5 124t10.5 110.5q0 84 -31.5 130t-88.5 46q-50 0 -80.5 -27.5t-30.5 -76.5q0 -28 11.5 -53t29.5 -45l-62 -48q-31 31 -47 68.5t-16 75.5q0 53 25 92.5t69.5 61t102.5 21.5q61 0 106.5 -27.5t71.5 -81.5t26 -132q0 -67 -19 -155.5t-57 -178.5l-2 22
q104 22 160.5 64.5t56.5 105.5q0 31 -10 62.5t-20.5 68.5t-10.5 81q0 51 23 89.5t63.5 60t94.5 21.5q56 0 99.5 -24.5t68.5 -70t24 -109.5h-53q0 64 24 109.5t67 70t98 24.5q56 0 97.5 -22t64 -61.5t22.5 -92.5z" />
    <glyph glyph-name="ra_cham" unicode="&#xaa23;" horiz-adv-x="864" 
d="M811 415q0 -39 -14.5 -77t-45.5 -66l-62 48q17 18 27 43.5t10 53.5q0 50 -29.5 79t-83.5 29q-53 0 -83 -29.5t-30 -77.5q0 -37 10 -71.5t20 -71.5t10 -84q0 -63 -28 -109.5t-80.5 -72.5t-127.5 -26q-76 0 -132.5 23t-87.5 64t-31 95q0 43 19.5 77.5t55.5 54.5t86 20
q71 0 115.5 -41.5t44.5 -112.5q0 -37 -10.5 -69t-20.5 -51h-67q11 21 19 51.5t8 57.5q0 47 -23 73t-63 26t-62.5 -23.5t-22.5 -61.5q0 -52 43.5 -85t116.5 -33q77 0 120 38t43 110q0 41 -10 76.5t-20 72t-10 79.5q0 51 24.5 89.5t69 59.5t103.5 21q60 0 105 -22.5
t69.5 -62.5t24.5 -94z" />
    <glyph glyph-name="la_cham" unicode="&#xaa24;" horiz-adv-x="881" 
d="M828 421q0 -40 -13.5 -77t-45.5 -70l-63 46q38 41 38 96q0 49 -26.5 75.5t-64.5 26.5q-31 0 -51 -12t-37.5 -28.5t-39.5 -28.5t-55 -12t-55 12t-39.5 28.5t-37.5 28.5t-51 12q-52 0 -86.5 -54.5t-34.5 -154.5q0 -89 24 -150.5t64.5 -92.5t89.5 -31q26 0 41 13t15 35
q0 25 -15.5 36.5t-38.5 11.5t-39.5 -11.5t-27 -30t-14.5 -41.5h-52q10 61 45 97.5t89 36.5q48 0 79 -27t31 -73q0 -44 -31.5 -72.5t-86.5 -28.5q-74 0 -133 39.5t-92.5 113t-33.5 174.5q0 89 24 153t67 98.5t100 34.5q43 0 71 -12t48.5 -28.5t39 -28.5t40.5 -12
q23 0 40.5 12t37.5 28.5t48 28.5t71 12q48 0 84.5 -20.5t56.5 -59.5t20 -93z" />
    <glyph glyph-name="va_cham" unicode="&#xaa25;" horiz-adv-x="1047" 
d="M781 -113q0 -89 -34.5 -137.5t-95.5 -48.5q-58 0 -91.5 41t-33.5 110q0 80 52.5 173.5t163.5 211.5l47 -47q-70 -76 -112.5 -138t-61 -111.5t-18.5 -86.5q0 -40 14 -64.5t39 -24.5q27 0 43 30t16 94q0 50 -13.5 102.5t-46 106t-91.5 103.5l51 40q86 -79 129 -167.5
t43 -186.5zM994 421q0 -40 -15.5 -77.5t-47.5 -67.5l-63 48q19 20 30.5 44.5t11.5 52.5q0 49 -29 76.5t-79 27.5t-78.5 -26.5t-28.5 -70.5q0 -24 6.5 -45.5t6.5 -44.5q0 -43 -18 -69t-44.5 -43t-53.5 -33.5t-45 -39.5t-18 -61q0 -14 3 -28t10 -36l-18 -44q-5 -1 -11.5 -1
h-13.5q-64 0 -112 24t-74 66t-26 97q0 35 10 65.5t23 59.5t23 58t10 61q0 50 -27.5 80.5t-77.5 30.5t-80.5 -27.5t-30.5 -76.5q0 -28 11.5 -53t29.5 -45l-62 -48q-31 31 -47 68.5t-16 75.5q0 53 24.5 92.5t69 61t102.5 21.5q56 0 99 -21.5t67 -61t24 -94.5q0 -37 -10 -69
t-23.5 -61t-23.5 -58t-10 -59q0 -53 30.5 -87t81.5 -34h6h6l-20 -20q-6 23 -9 36.5t-3 30.5q0 42 16.5 69t41 45t48.5 35t40.5 39t16.5 57q0 18 -7 43t-7 55q0 46 23 81t65.5 54.5t101.5 19.5q58 0 100.5 -21.5t66.5 -60.5t24 -91z" />
    <glyph glyph-name="ssa_cham" unicode="&#xaa26;" horiz-adv-x="1074" 
d="M1021 421q0 -40 -15.5 -77.5t-47.5 -67.5l-63 48q19 20 30.5 44.5t11.5 52.5q0 49 -29 76.5t-79 27.5t-77.5 -26.5t-27.5 -70.5q0 -24 6.5 -46.5t6.5 -46.5q0 -41 -16 -67t-39.5 -44t-47.5 -33t-40 -33.5t-16 -46.5q0 -22 8.5 -37.5t26.5 -36.5l-22 -53q-13 -1 -30 -1
h-35q-64 0 -112 24t-74 66t-26 97q0 35 10 65.5t23 59t23 57t10 59.5q0 52 -33 83t-90 31q-59 0 -95 -32.5t-36 -94.5q0 -55 23.5 -87.5t57.5 -32.5q19 0 27 9.5t8 22.5q0 16 -10 23t-24 7q-23 0 -39 -18t-25.5 -50t-12.5 -74l-47 4q4 53 19.5 93t43 63t64.5 23
q34 0 53.5 -19.5t19.5 -48.5q0 -34 -22 -55t-60 -21q-40 0 -74 20.5t-54.5 58t-20.5 89.5q0 58 25.5 100t72.5 65.5t109 23.5q61 0 107.5 -22.5t72.5 -62.5t26 -95q0 -36 -10 -67t-23 -60t-23 -58t-10 -59q0 -52 30 -85t81 -33h10h9v-13q-21 21 -28 39.5t-7 43.5q0 36 16 59
t39 40t46 33t39 37.5t16 54.5q0 17 -6.5 41.5t-6.5 51.5q0 46 23.5 81t66.5 54.5t102 19.5q58 0 100.5 -21.5t66.5 -60.5t24 -91z" />
    <glyph glyph-name="sa_cham" unicode="&#xaa27;" horiz-adv-x="1185" 
d="M1132 421q0 -40 -13.5 -77t-45.5 -70l-63 46q38 41 38 96q0 49 -26.5 75.5t-64.5 26.5q-31 0 -51 -12t-37.5 -28.5t-39.5 -28.5t-55 -12t-55 12t-39.5 28.5t-37.5 28.5t-51 12q-38 0 -65 -25.5t-27 -72.5q0 -36 10.5 -71t20.5 -73t10 -85q0 -63 -28 -109.5t-80.5 -72.5
t-127.5 -26q-76 0 -132.5 23t-87.5 64t-31 95q0 43 19.5 77.5t55.5 54.5t86 20q71 0 115.5 -41.5t44.5 -112.5q0 -37 -10.5 -69t-20.5 -51h-67q11 21 19 51.5t8 57.5q0 47 -23 73t-63 26t-62.5 -23.5t-22.5 -61.5q0 -52 43.5 -85t116.5 -33q77 0 120 38t43 110
q0 41 -10 77.5t-20.5 75t-10.5 83.5q0 50 21 86.5t58 56t84 19.5q42 0 70 -12t48 -28.5t38.5 -28.5t40.5 -12q23 0 40.5 12t37.5 28.5t48 28.5t71 12q48 0 84.5 -20.5t56.5 -59.5t20 -93z" />
    <glyph glyph-name="ha_cham" unicode="&#xaa28;" horiz-adv-x="1165" 
d="M1112 403q0 -55 -19 -98.5t-56.5 -69t-94.5 -25.5q-54 0 -84.5 24t-30.5 62q0 35 25.5 56.5t65.5 21.5q42 0 75 -26.5t53 -73.5l-44 -27q-13 39 -33.5 61.5t-49.5 22.5q-19 0 -30.5 -9.5t-11.5 -26.5q0 -18 15 -28.5t43 -10.5q55 0 79 38t24 104q0 61 -30.5 94t-85.5 33
q-54 0 -90 -35t-35 -110h-73q2 73 -31 109t-85 36q-50 0 -79 -29t-29 -76q0 -38 10 -72.5t20 -72t10 -84.5q0 -63 -28 -109.5t-80.5 -72.5t-127.5 -26q-76 0 -132.5 23t-87.5 64t-31 95q0 43 19.5 77.5t55.5 54.5t86 20q71 0 115.5 -41.5t44.5 -112.5q0 -37 -10.5 -69
t-20.5 -51h-67q11 21 19 51.5t8 57.5q0 47 -23 73t-63 26t-62.5 -23.5t-22.5 -61.5q0 -52 43.5 -85t116.5 -33q77 0 120 38t43 110q0 41 -10 76.5t-20.5 72t-10.5 79.5q0 50 22.5 88.5t63.5 60t94 21.5q57 0 100.5 -24.5t68.5 -70t24 -109.5h-53q0 64 25 109.5t69 70
t100 24.5t97.5 -24t64 -67t22.5 -100z" />
    <glyph glyph-name="aaSign_cham" unicode="&#xaa29;" 
d="M127 876q0 -26 -9 -51.5t-26 -46.5l-63 38q9 12 15 28t6 34q0 35 -26 57.5t-67 22.5t-66 -22.5t-25 -59.5q0 -30 16 -54.5t39.5 -47.5t47.5 -47t40 -53t16 -67q0 -29 -12.5 -56.5t-39 -47.5t-68.5 -29l-16 64q30 9 43.5 28.5t13.5 42.5q0 29 -16 53.5t-39.5 48.5
t-47.5 49t-40 54t-16 64q0 43 21 75.5t59.5 51t89.5 18.5t89 -18.5t59.5 -51.5t21.5 -77z" />
    <glyph glyph-name="iSign_cham" unicode="&#xaa2a;" 
d="M61 821q0 -80 -41.5 -159t-118.5 -154l-53 47q37 34 48.5 54t11.5 45q0 22 -16.5 35t-52.5 13h-35q-73 0 -114 39t-41 103q0 53 25 93t71 63t108 23q59 0 106 -25t74.5 -70.5t27.5 -106.5zM-19 821q0 44 -16.5 74.5t-45.5 46.5t-67 16q-58 0 -91 -30.5t-33 -77.5
q0 -40 23.5 -62.5t68.5 -22.5h43q44 0 68 -22.5t24 -66.5v-16h-21q24 38 35.5 80.5t11.5 80.5z" />
    <glyph glyph-name="iiSign_cham" unicode="&#xaa2b;" 
d="M-146 811q-21 0 -33 12.5t-12 32.5q0 22 12 34t33 12t33 -12t12 -34q0 -20 -12 -32.5t-33 -12.5zM61 820q0 -79 -41.5 -158t-118.5 -154l-53 47q37 34 48.5 54t11.5 45q0 22 -16.5 35t-52.5 13h-35q-72 0 -113 39.5t-41 102.5q0 54 24.5 94t70 62.5t107.5 22.5
q60 0 107 -25t74.5 -70.5t27.5 -107.5zM-16 820q0 45 -17 76t-47 47.5t-69 16.5q-59 0 -93 -30.5t-34 -78.5q0 -40 25 -64t71 -24h43q44 0 68 -22.5t24 -66.5v-16l-18 2q24 31 35.5 74.5t11.5 85.5z" />
    <glyph glyph-name="eiSign_cham" unicode="&#xaa2c;" 
d="M61 821q0 -80 -41.5 -159t-118.5 -154l-53 47q37 34 48.5 54t11.5 45q0 22 -16.5 35t-52.5 13h-35q-73 0 -114 39t-41 103q0 53 25 93t71 63t108 23q59 0 106 -25t74.5 -70.5t27.5 -106.5zM-11 824q0 45 -18 75.5t-49.5 45.5t-70.5 15q-59 0 -93 -30.5t-34 -78.5
q0 -40 25 -64t71 -24h43q44 0 68 -22.5t24 -66.5v-16l-18 2q24 31 38 77t14 87zM-150 882q68 -9 120.5 -6.5t96.5 14.5t85 31l22 -51q-43 -21 -88.5 -34t-102 -16t-133.5 5v57z" />
    <glyph glyph-name="uSign_cham" unicode="&#xaa2d;" 
d="M11 120q-6 -58 -34 -93t-75 -35q-21 0 -41 8.5t-39.5 20t-37 20t-34.5 8.5q-24 0 -36 -14.5t-19 -43.5h-51q6 59 34.5 93.5t75.5 34.5q22 0 42.5 -8.5t39.5 -20t36.5 -20t33.5 -8.5q23 0 35.5 14.5t19.5 43.5h50z" />
    <glyph glyph-name="oeSign_cham" unicode="&#xaa2e;" 
d="M-6 911q0 -42 -16 -80t-45 -67.5t-70 -46.5t-92 -17q-46 0 -90 11.5t-69 33.5l44 50q19 -14 49 -22.5t62 -8.5q43 0 76.5 18t53.5 51.5t20 77.5h77z" />
    <glyph glyph-name="oSign_cham" unicode="&#xaa2f;" horiz-adv-x="538" 
d="M498 444l-73 -22q-12 48 -46.5 75.5t-84.5 27.5q-65 0 -106 -46.5t-41 -126.5q0 -60 18 -101.5t47.5 -63t64.5 -21.5q24 0 40 13.5t16 33.5q0 24 -16 35.5t-39 11.5q-32 0 -52.5 -24t-25.5 -56h-43q8 55 41.5 90.5t83.5 35.5q45 0 73 -25t28 -67q0 -43 -29.5 -69.5
t-79.5 -26.5q-55 0 -102 28t-76 81.5t-29 127.5q0 73 28.5 126.5t80 83t118.5 29.5q80 0 134 -40t70 -110z" />
    <glyph glyph-name="aiSign_cham" unicode="&#xaa30;" horiz-adv-x="538" 
d="M498 444l-73 -22q-12 48 -46.5 75.5t-84.5 27.5q-65 0 -106 -46.5t-41 -126.5q0 -60 18 -101.5t47.5 -63t64.5 -21.5q24 0 40 13.5t16 33.5q0 24 -16 35.5t-39 11.5q-32 0 -52.5 -24t-25.5 -56h-43q8 55 41.5 90.5t83.5 35.5q45 0 73 -25t28 -67q0 -43 -29.5 -69.5
t-79.5 -26.5q-55 0 -102 28t-76 81.5t-29 127.5q0 73 28.5 126.5t80 83t118.5 29.5q80 0 134 -40t70 -110zM464 12q-6 -58 -34 -93t-75 -35q-21 0 -41 8.5t-39.5 20t-37 20t-34.5 8.5q-24 0 -36 -14.5t-19 -43.5h-51q6 59 34.5 93.5t75.5 34.5q22 0 42.5 -8.5t39.5 -20
t36.5 -20t33.5 -8.5q23 0 35.5 14.5t19.5 43.5h50z" />
    <glyph glyph-name="auSign_cham" unicode="&#xaa31;" 
d="M189 999q-17 -64 -53.5 -99.5t-82.5 -35.5q-33 0 -66 14t-63.5 27.5t-56.5 13.5q-28 0 -46.5 -15t-18.5 -39q0 -26 20 -44.5t63 -44.5q32 -20 56.5 -40t38.5 -45t14 -61q0 -45 -27 -80.5t-71 -60.5l-47 46q38 24 54 46.5t16 47.5q0 33 -22 53.5t-66 48.5
q-31 20 -54.5 38.5t-36.5 41.5t-13 55q0 33 18.5 60t49 42.5t67.5 15.5q33 0 66.5 -13.5t63.5 -27t52 -13.5q27 0 46 24.5t31 65.5z" />
    <glyph glyph-name="ueSign_cham" unicode="&#xaa32;" 
d="M-98 108q14 -17 23 -47t9 -67q0 -47 -14.5 -95t-36.5 -89l-71 24q20 38 32 78t12 77q0 26 -6 49.5t-17 41.5z" />
    <glyph glyph-name="yaMedial_cham" unicode="&#xaa33;" horiz-adv-x="542" 
d="M489 421q0 -41 -16 -77t-48 -70l-63 47q20 20 31.5 46t11.5 54q0 50 -29.5 77t-79.5 27t-78.5 -26t-28.5 -70q0 -26 6.5 -53.5t6.5 -56.5q0 -50 -39 -88t-107 -59l-26 27q2 8 2.5 16t0.5 16q0 52 -30.5 84.5t-80.5 35.5l-3 73q56 -6 94 -32.5t57 -67t16 -89.5l-9 6
q26 15 36 35t10 44q0 23 -8 54t-8 62q0 71 50.5 114.5t138.5 43.5q58 0 101.5 -21.5t67.5 -60.5t24 -91z" />
    <glyph glyph-name="raMedial_cham" unicode="&#xaa34;" horiz-adv-x="400" 
d="M887 -334q-75 50 -130 73t-96 23q-36 0 -62 -20t-38 -55l-62 -21q-75 39 -141 103.5t-116.5 148.5t-79 184t-28.5 211q0 160 65.5 302.5t195.5 266.5l32 -42h-230q-50 0 -78 -21t-28 -51q0 -16 4.5 -28.5t14.5 -29.5l-65 -39q-20 28 -27 49.5t-7 48.5q0 41 23.5 72t65 49
t96.5 18h231l32 -58q-117 -118 -176.5 -253t-59.5 -284q0 -102 25.5 -194.5t70.5 -170.5t102 -136t120 -93l-37 -16q14 62 56.5 94.5t98.5 32.5q51 0 119 -27t144 -79z" />
    <glyph glyph-name="laMedial_cham" unicode="&#xaa35;" 
d="M54 151q-8 -53 -35 -82t-68 -29q-27 0 -48 6t-40 11.5t-42 5.5q-41 0 -64.5 -29t-23.5 -79q0 -51 19.5 -73.5t41.5 -22.5q16 0 25.5 10.5t9.5 28.5q0 27 -21 41.5t-56 14.5q-27 0 -53 -15l-6 60q14 5 27.5 6.5t29.5 1.5q62 0 102.5 -28.5t40.5 -81.5q0 -45 -28.5 -70.5
t-69.5 -25.5q-35 0 -63.5 16t-45.5 50.5t-17 88.5q0 50 16.5 90t48 63t77.5 23q25 0 45 -5t38 -10.5t37 -5.5q25 0 39.5 16t20.5 45z" />
    <glyph glyph-name="waMedial_cham" unicode="&#xaa36;" 
d="M-45 156l26 -52q-57 -23 -92.5 -53t-52 -62t-16.5 -61q0 -28 12.5 -48t35.5 -20t35.5 20t12.5 48q0 29 -16.5 61t-52.5 62t-94 53l25 53q66 -24 112 -61t70 -80.5t24 -87.5q0 -54 -31.5 -90t-84.5 -36q-52 0 -83.5 36t-31.5 90q0 43 23.5 86.5t69 80.5t109.5 61z" />
    <glyph glyph-name="kFinal_cham" unicode="&#xaa40;" horiz-adv-x="898" 
d="M818 327q0 -85 -29 -168.5t-82 -155.5t-126 -125l-58 56q65 47 111.5 110t72 135.5t25.5 148.5q0 93 -32 145t-93 52q-49 0 -82.5 -35t-31.5 -111h-75q2 74 -30.5 110t-85.5 36q-50 0 -79 -29t-29 -76q0 -28 9.5 -57.5t21.5 -60t21.5 -64t9.5 -70.5q0 -84 -51.5 -141
t-140.5 -72l-16 72q56 11 89 48.5t33 97.5q0 31 -9.5 61t-21.5 60t-21.5 62.5t-9.5 67.5q0 50 23 88.5t63.5 60t94.5 21.5q57 0 100.5 -24.5t68.5 -70t25 -109.5h-55q0 64 24.5 109.5t67.5 70t98 24.5q63 0 107.5 -32.5t68.5 -92t24 -142.5z" />
    <glyph glyph-name="gFinal_cham" unicode="&#xaa41;" horiz-adv-x="941" 
d="M861 329q0 -84 -27.5 -165.5t-78.5 -155t-123 -132.5l-60 53q62 50 107.5 114.5t70.5 137.5t25 147q0 94 -37 145.5t-105 51.5q-55 0 -90.5 -37t-34.5 -111h-74q2 71 -32 109.5t-90 38.5q-68 0 -107 -57.5t-39 -158.5q0 -89 24 -150.5t64.5 -92.5t89.5 -31q26 0 41 13
t15 35q0 25 -15.5 36.5t-38.5 11.5t-39.5 -11.5t-27 -30t-14.5 -41.5h-52q10 61 45 97.5t89 36.5q48 0 79 -27t31 -73q0 -44 -31.5 -72.5t-86.5 -28.5q-74 0 -133 39.5t-92.5 113t-33.5 174.5q0 89 27.5 153t78 98.5t119.5 34.5q59 0 102 -25.5t67 -72t24 -110.5h-54
q0 64 25 110.5t69.5 72t103.5 25.5q69 0 118 -32t75 -91.5t26 -141.5z" />
    <glyph glyph-name="ngFinal_cham" unicode="&#xaa42;" horiz-adv-x="1101" 
d="M1048 392q0 -62 -26.5 -111t-81.5 -84l-42 -26q-22 -14 -29 -26.5t-7 -35.5v-391h-88v400q0 20 3 34.5t12.5 27t30.5 25.5l48 29q53 32 74 71.5t21 81.5q0 68 -41 103t-107 35q-67 0 -108 -33.5t-41 -94.5q0 -58 23 -90.5t56 -32.5q20 0 31 10.5t11 27.5t-11 26.5
t-30 9.5q-23 0 -37 -16t-16 -43q-1 -19 -1.5 -44t-1.5 -47q-2 -53 -19.5 -92t-55 -67.5t-98 -48.5t-149.5 -34l-17 45q24 29 40 55.5t23.5 52.5t7.5 53q0 47 -25.5 72t-65.5 25q-10 0 -21.5 -2t-23.5 -5l-15 50q41 17 62.5 49.5t21.5 70.5q0 45 -29 74t-79 29
q-49 0 -79.5 -28t-30.5 -76q0 -28 12 -54t31 -44l-63 -48q-32 30 -48 68t-16 77q0 52 24.5 91t68.5 61t102 22q57 0 100.5 -21t68 -58.5t24.5 -88.5q0 -52 -30 -97t-85 -65l-22 45q14 3 27 5t26 2q43 0 76.5 -17.5t53 -49t19.5 -75.5q0 -49 -24 -98t-74 -93v50
q104 16 156 51.5t59 108.5q2 16 3.5 41t2.5 50q3 51 34 79t83 28q40 0 63.5 -21.5t23.5 -56.5q0 -37 -25 -59.5t-67 -22.5q-43 0 -77 22t-54 60.5t-20 87.5q0 58 28.5 101t80.5 67.5t120 24.5t119.5 -24t80.5 -69.5t29 -108.5z" />
    <glyph glyph-name="ngSignFinal_cham" unicode="&#xaa43;" 
d="M-51 864l-325 -170l-30 60l334 154z" />
    <glyph glyph-name="chFinal_cham" unicode="&#xaa44;" horiz-adv-x="1025" 
d="M945 327q0 -85 -29 -168.5t-82 -155.5t-127 -126l-57 57q64 47 111 110t72.5 135.5t25.5 148.5q0 93 -30.5 145t-88.5 52q-45 0 -71 -27.5t-35 -79.5q-9 -55 -30.5 -86t-61.5 -47.5t-108 -29.5q-74 -13 -116.5 -34.5t-60.5 -48.5t-18 -57q0 -28 12.5 -46t37.5 -18
q51 0 82.5 64t31.5 175q0 114 -41 174.5t-111 60.5q-50 0 -79 -26t-29 -70q0 -25 9 -46t22 -36l-56 -45q-25 23 -41 57t-16 76q0 46 22.5 82t65 56.5t100.5 20.5q72 0 125.5 -36.5t83 -105t29.5 -166.5q0 -91 -24.5 -159.5t-69 -106t-104.5 -37.5q-61 0 -97 34t-36 95
q0 53 29.5 93.5t83.5 67.5t127 39q41 7 69.5 14.5t47.5 21.5t30.5 38t18.5 63q14 76 62.5 110.5t118.5 34.5q63 0 108.5 -32.5t69.5 -92t24 -142.5z" />
    <glyph glyph-name="tFinal_cham" unicode="&#xaa45;" horiz-adv-x="916" 
d="M836 327q0 -85 -29 -168t-81.5 -155t-125.5 -126l-58 56q65 47 111.5 109.5t72 135.5t25.5 149q0 93 -33 145t-94 52q-52 0 -87.5 -35t-34.5 -111h-74q2 73 -31 109.5t-85 36.5q-69 0 -107.5 -57t-38.5 -158q0 -128 40.5 -196.5t114.5 -68.5q43 0 67 25t24 70
q0 50 -29 74.5t-74 24.5t-80.5 -22t-58.5 -66l-40 52q33 47 79.5 72.5t104.5 25.5q50 0 89.5 -19.5t62 -55.5t22.5 -85q0 -70 -45.5 -114t-124.5 -44q-72 0 -125.5 39.5t-83 112.5t-29.5 173q0 89 27 153t77.5 98.5t119.5 34.5q56 0 98.5 -24.5t66.5 -70.5t23 -110h-54
q0 65 25.5 110.5t69.5 70t101 24.5q63 0 108.5 -32.5t69.5 -92t24 -142.5z" />
    <glyph glyph-name="nFinal_cham" unicode="&#xaa46;" horiz-adv-x="1113" 
d="M1033 327q0 -85 -29 -168.5t-82 -155.5t-126 -125l-58 56q65 47 112 110t72.5 135.5t25.5 148.5q0 93 -34 145t-96 52q-47 0 -74 -27t-27 -74q0 -35 9 -69t17.5 -70t8.5 -80q0 -70 -38.5 -128.5t-98.5 -93.5l-41 32q6 77 -16.5 131.5t-64.5 83t-94 28.5q-51 0 -87 -19
t-54.5 -48.5t-18.5 -63.5q0 -35 15.5 -55.5t41.5 -20.5q47 0 77.5 62.5t30.5 170.5q0 119 -41 180t-112 61q-50 0 -79 -26t-29 -70q0 -25 9 -46t22 -36l-56 -45q-25 23 -41 57t-16 76q0 46 22.5 82t65 56.5t100.5 20.5q72 0 126 -36.5t83.5 -106.5t29.5 -171
q0 -89 -24.5 -156t-68 -104t-101.5 -37q-59 0 -98.5 37.5t-39.5 103.5q0 58 31 103t83.5 71.5t117.5 26.5q63 0 113 -24t83.5 -67t47.5 -100.5t5 -123.5l-50 37q24 14 42.5 38.5t29.5 54.5t11 59q0 37 -9.5 72.5t-19.5 74t-10 80.5q0 50 23 88t64.5 59t98.5 21
q104 0 160 -71.5t56 -195.5z" />
    <glyph glyph-name="pFinal_cham" unicode="&#xaa47;" horiz-adv-x="1204" 
d="M1124 327q0 -86 -29 -169t-82 -155t-126 -126l-58 57q65 47 111.5 110t72 135.5t25.5 148.5q0 93 -32.5 145t-92.5 52q-48 0 -82 -35t-33 -111h-73q2 74 -31.5 110t-85.5 36q-50 0 -79.5 -29t-29.5 -76q0 -38 10.5 -72.5t20.5 -72t10 -84.5q0 -63 -28 -109.5t-80.5 -72.5
t-127.5 -26q-76 0 -132.5 23t-87.5 64t-31 95q0 43 19.5 77.5t55.5 54.5t86 20q71 0 115.5 -41.5t44.5 -112.5q0 -37 -10.5 -69t-20.5 -51h-67q11 21 19 51.5t8 57.5q0 47 -23 73t-63 26t-62.5 -23.5t-22.5 -61.5q0 -52 43.5 -85t116.5 -33q77 0 120 38t43 110
q0 41 -10.5 76.5t-21 72t-10.5 79.5q0 50 23 88.5t64 60t94 21.5q57 0 101 -24.5t68.5 -70t24.5 -109.5h-53q0 64 24.5 109.5t67 70t96.5 24.5q63 0 108 -32.5t69 -92t24 -142.5z" />
    <glyph glyph-name="yFinal_cham" unicode="&#xaa48;" horiz-adv-x="1349" 
d="M1269 327q0 -85 -29 -168.5t-82 -155.5t-126 -125l-58 56q65 47 111.5 110t72 135.5t25.5 148.5q0 93 -32.5 145t-94.5 52q-52 0 -87.5 -35t-34.5 -111h-73q2 74 -31 110t-84 36q-50 0 -79.5 -29t-29.5 -75q0 -38 10.5 -72t21 -68.5t10.5 -73.5q0 -64 -45 -113.5
t-130.5 -84t-206.5 -53.5l-14 41q27 55 46 117.5t29 123.5t10 111q0 84 -31.5 130t-88.5 46q-51 0 -81 -27.5t-30 -76.5q0 -28 11.5 -53t29.5 -44l-62 -48q-31 30 -47 67.5t-16 75.5q0 53 25 92.5t69.5 61t102.5 21.5q61 0 106.5 -27.5t71.5 -81.5t26 -132q0 -67 -19 -156
t-57 -178l-2 22q104 22 160.5 64.5t56.5 105.5q0 31 -10 62.5t-20.5 68.5t-10.5 81q0 51 23 89.5t63.5 60t94.5 21.5q56 0 99.5 -24.5t68 -70t23.5 -109.5h-53q0 64 25 109.5t69 70t101 24.5q64 0 109 -32.5t69.5 -92t24.5 -142.5z" />
    <glyph glyph-name="rFinal_cham" unicode="&#xaa49;" horiz-adv-x="908" 
d="M828 327q0 -86 -29 -169t-82 -155t-126 -126l-58 57q65 47 111.5 110t72 135.5t25.5 148.5q0 93 -32 145t-100 52q-51 0 -80.5 -29.5t-29.5 -77.5q0 -37 10 -71.5t20 -71.5t10 -84q0 -63 -28 -109.5t-80.5 -72.5t-127.5 -26q-76 0 -132.5 23t-87.5 64t-31 95
q0 43 19.5 77.5t55.5 54.5t86 20q71 0 115.5 -41.5t44.5 -112.5q0 -37 -10.5 -69t-20.5 -51h-67q11 21 19 51.5t8 57.5q0 47 -23 73t-63 26t-62.5 -23.5t-22.5 -61.5q0 -52 43.5 -85t116.5 -33q77 0 120 38t43 110q0 41 -10 76.5t-20.5 72t-10.5 79.5q0 51 24.5 89.5
t68.5 59.5t101 21q109 0 164.5 -71.5t55.5 -195.5z" />
    <glyph glyph-name="lFinal_cham" unicode="&#xaa4a;" horiz-adv-x="938" 
d="M858 325q0 -86 -29 -169t-82.5 -155t-127.5 -124l-56 56q64 47 111 109t72.5 134.5t25.5 148.5q0 92 -35.5 142.5t-83.5 50.5q-31 0 -51 -12t-37.5 -28.5t-39.5 -28.5t-55 -12t-55 12t-39.5 28.5t-37.5 28.5t-51 12q-52 0 -86.5 -55t-34.5 -155q0 -89 24 -150t64.5 -92
t89.5 -31q26 0 41 13t15 35q0 25 -15.5 36.5t-38.5 11.5t-39.5 -11.5t-27 -30t-14.5 -41.5h-52q10 61 45 97.5t89 36.5q48 0 79 -27t31 -73q0 -44 -31.5 -72.5t-86.5 -28.5q-74 0 -133 39.5t-92.5 113t-33.5 174.5q0 89 24 153t67 98.5t100 34.5q43 0 71 -12t48.5 -28.5
t39 -28.5t40.5 -12q23 0 40.5 12t38 28.5t49 28.5t71.5 12q55 0 97.5 -32.5t67 -92.5t24.5 -144z" />
    <glyph glyph-name="ssFinal_cham" unicode="&#xaa4b;" horiz-adv-x="1117" 
d="M1037 327q0 -85 -29 -168t-82 -155t-126 -126l-58 56q65 47 112 110t72.5 135.5t25.5 148.5q0 93 -33.5 145t-94.5 52q-46 0 -73.5 -26.5t-27.5 -70.5q0 -24 6.5 -46.5t6.5 -46.5q0 -41 -16 -67t-39.5 -44t-47.5 -33t-40 -33.5t-16 -46.5q0 -22 8.5 -37.5t26.5 -36.5
l-22 -53q-13 -1 -30 -1h-35q-64 0 -112 24t-74 66t-26 97q0 34 10 64t23.5 58.5t23.5 57t10 58.5q0 54 -33 85.5t-90 31.5q-59 0 -95 -32.5t-36 -94.5q0 -55 23.5 -87.5t57.5 -32.5q19 0 27 9.5t8 22.5q0 16 -10 23t-24 7q-23 0 -39 -18t-25.5 -50t-12.5 -74l-47 4
q4 53 19.5 93t43 63t64.5 23q34 0 53.5 -19.5t19.5 -48.5q0 -34 -22 -55t-60 -21q-40 0 -74 20.5t-54.5 58t-20.5 89.5q0 58 25.5 100t72.5 65.5t109 23.5q61 0 107 -22t72 -62.5t26 -95.5q0 -36 -10 -67.5t-23 -60.5t-23 -57.5t-10 -58.5q0 -52 30 -85t81 -33h10h9v-13
q-21 21 -28 39.5t-7 43.5q0 36 16 59t39 40t46 33t39 37.5t16 54.5q0 17 -6.5 41.5t-6.5 51.5q0 46 23.5 81t65.5 54.5t98 19.5q101 0 157 -71.5t56 -195.5z" />
    <glyph glyph-name="mSignFinal_cham" unicode="&#xaa4c;" 
d="M-229 725q-28 0 -45 17t-17 45q0 29 17 46t45 17q29 0 46 -17t17 -46q0 -28 -17 -45t-46 -17z" />
    <glyph glyph-name="hSignFinal_cham" unicode="&#xaa4d;" horiz-adv-x="565" 
d="M512 392q0 -62 -26.5 -110.5t-81.5 -83.5l-42 -27q-22 -14 -29 -26.5t-7 -35.5v-391h-87v400q0 20 2.5 34.5t12 27t30.5 25.5l47 29q53 32 74 71.5t21 81.5q0 68 -41 103t-107 35q-67 0 -107.5 -33.5t-40.5 -95.5q0 -58 19.5 -89.5t51.5 -31.5q20 0 29 10t9 26
q0 17 -11.5 26t-28.5 9q-23 0 -38.5 -18.5t-21.5 -48.5l-33 32q12 33 37.5 53t59.5 20q35 0 57.5 -19.5t22.5 -53.5t-24.5 -55.5t-62.5 -21.5q-40 0 -72.5 20.5t-51.5 58t-19 88.5q0 58 29 101t81 67.5t120 24.5q67 0 118.5 -24t81 -69.5t29.5 -108.5z" />
    <glyph glyph-name="zero_cham" unicode="&#xaa50;" horiz-adv-x="634" 
d="M580 288q0 -91 -29.5 -160t-88 -107.5t-145.5 -38.5q-82 0 -140.5 38t-90 107t-31.5 161q0 144 71 225t196 81q84 0 141.5 -38.5t87 -107.5t29.5 -160zM143 288q0 -72 18.5 -125t57.5 -82.5t99 -29.5q62 0 100 29.5t56 83t18 124.5q0 70 -17 123.5t-54.5 83.5t-99.5 30
q-88 0 -133 -62t-45 -175z" />
    <glyph glyph-name="one_cham" unicode="&#xaa51;" horiz-adv-x="565" 
d="M512 392q0 -62 -26.5 -110.5t-81.5 -83.5l-42 -27q-22 -14 -29 -26.5t-7 -35.5v-391h-87v400q0 20 2.5 34.5t12 27t30.5 25.5l47 29q53 32 74 71.5t21 81.5q0 68 -41 103t-107 35q-67 0 -107.5 -33.5t-40.5 -95.5q0 -58 19.5 -89.5t51.5 -31.5q20 0 29 10t9 26
q0 17 -11.5 26t-28.5 9q-23 0 -38.5 -18.5t-21.5 -48.5l-33 32q12 33 37.5 53t59.5 20q35 0 57.5 -19.5t22.5 -53.5t-24.5 -55.5t-62.5 -21.5q-40 0 -72.5 20.5t-51.5 58t-19 88.5q0 58 29 101t81 67.5t120 24.5q67 0 118.5 -24t81 -69.5t29.5 -108.5z" />
    <glyph glyph-name="two_cham" unicode="&#xaa52;" horiz-adv-x="956" 
d="M876 294q0 -98 -45.5 -167.5t-133 -106.5t-214.5 -37q-125 0 -215.5 33.5t-139 98t-48.5 158.5v374q0 85 32.5 143t89 88t128.5 30q44 0 79.5 -10t67 -22.5t62 -22.5t64.5 -10q33 0 61.5 12t52 39.5t40.5 73.5l72 -30q-21 -59 -54 -97.5t-74 -57t-89 -18.5
q-39 0 -72.5 10t-65 22.5t-64.5 22.5t-71 10q-49 0 -88.5 -19.5t-62.5 -61.5t-23 -108v-365q0 -76 39 -125.5t111 -73t169 -23.5q152 0 229.5 61t77.5 182v114q0 54 -21 81.5t-60 27.5q-21 0 -36.5 -10t-34.5 -27q-18 -16 -33.5 -25.5t-37.5 -9.5t-38 10t-33 25
q-18 15 -33 26t-37 11q-39 0 -60.5 -33t-21.5 -95q0 -57 12.5 -91.5t35 -50.5t52.5 -16q22 0 37 13t15 35q0 23 -14.5 35t-36.5 12q-21 0 -36 -11t-24.5 -31t-12.5 -47l-41 5q7 59 38 94t79 35q43 0 71 -24.5t28 -65.5q0 -42 -31 -68.5t-75 -26.5q-53 0 -93.5 25t-63 74
t-22.5 121q0 55 17 96.5t49 65t78 23.5q29 0 51.5 -10t44.5 -27q20 -16 33.5 -26.5t31.5 -10.5q19 0 32.5 10.5t32.5 26.5q21 17 43.5 27t54.5 10q66 0 105.5 -46t39.5 -129v-125z" />
    <glyph glyph-name="three_cham" unicode="&#xaa53;" horiz-adv-x="938" 
d="M858 345q0 -116 -47.5 -208t-163.5 -159q-64 -37 -102.5 -64t-56 -48.5t-17.5 -43.5q0 -19 12 -32.5t34 -13.5q20 0 36 15t31.5 37t34 44t44 37t62.5 15q29 0 52 -13t36 -34.5t13 -48.5q0 -17 -6.5 -39.5t-20.5 -41.5l-68 31q14 20 14 39q0 16 -9 25t-26 9q-19 0 -34 -15
t-30 -37.5t-33.5 -45t-44 -37.5t-62.5 -15q-32 0 -59.5 14.5t-43.5 40.5t-16 58q0 23 8 46.5t29.5 48.5t61.5 55t104 67q70 40 109.5 87.5t56 104t16.5 122.5q0 54 -16.5 92.5t-43.5 59.5t-59 21q-31 0 -51 -12t-37.5 -28.5t-39.5 -28.5t-55 -12t-55 12t-39.5 28.5
t-37.5 28.5t-51 12q-52 0 -86.5 -55t-34.5 -155q0 -89 20 -150t53.5 -92t74.5 -31q26 0 41 13t15 35q0 25 -15.5 36.5t-38.5 11.5t-39.5 -11.5t-27 -30t-14.5 -41.5h-52q10 61 45 97.5t89 36.5q48 0 79 -27t31 -73q0 -44 -31.5 -72.5t-86.5 -28.5q-66 0 -117.5 39.5
t-81.5 113t-30 174.5q0 89 24 153t67 98.5t100 34.5q43 0 71 -12t48.5 -28.5t39 -28.5t40.5 -12q23 0 40.5 12t38 28.5t49 28.5t71.5 12q55 0 97.5 -31t67 -86.5t24.5 -131.5z" />
    <glyph glyph-name="four_cham" unicode="&#xaa54;" horiz-adv-x="841" 
d="M792 626q-20 -59 -52 -96.5t-69.5 -55t-77.5 -17.5q-43 0 -77.5 10t-65 22.5t-60.5 22.5t-65 10q-73 0 -116 -55.5t-43 -156.5q0 -128 40.5 -196.5t114.5 -68.5q43 0 67 25t24 70q0 50 -29 74.5t-74 24.5t-80.5 -22t-58.5 -66l-40 52q33 47 79.5 72.5t104.5 25.5
q50 0 89.5 -19.5t62 -55.5t22.5 -85q0 -70 -45.5 -114t-124.5 -44q-72 0 -125.5 39.5t-83 112.5t-29.5 173q0 87 28.5 151.5t81 99.5t122.5 35q41 0 74.5 -10t64 -22.5t62.5 -22.5t69 -10q29 0 55.5 12.5t49.5 40t40 71.5z" />
    <glyph glyph-name="five_cham" unicode="&#xaa55;" horiz-adv-x="588" 
d="M519 394q0 -36 -14.5 -73t-43 -66.5t-70.5 -44.5l8 41q40 -15 63.5 -37t34 -47.5t10.5 -51.5q0 -36 -18 -66t-54 -48.5t-91 -18.5q-60 0 -95 22.5t-35 61.5q0 31 23.5 50.5t62.5 19.5q32 0 53.5 -13t32 -35t10.5 -48q0 -6 -0.5 -13.5t-2.5 -15.5l-48 -8q3 10 4.5 20
t1.5 18q0 25 -12.5 38.5t-36.5 13.5q-19 0 -28.5 -8t-9.5 -21q0 -16 19 -26t61 -10q44 0 69 22.5t25 61.5q0 35 -22 62.5t-64 45.5v35q43 20 62.5 57t19.5 76q0 62 -39.5 99.5t-108.5 37.5q-66 0 -107 -36.5t-41 -98.5q0 -33 13 -63t33 -50l-66 -44q-31 32 -47.5 73.5
t-16.5 81.5q0 62 29.5 108.5t82 72t121.5 25.5q68 0 120 -24.5t82 -69.5t30 -106z" />
    <glyph glyph-name="six_cham" unicode="&#xaa56;" horiz-adv-x="864" 
d="M811 415q0 -39 -14.5 -77t-45.5 -66l-62 48q17 18 27 43.5t10 53.5q0 50 -29.5 79t-83.5 29q-53 0 -83 -29.5t-30 -77.5q0 -37 10 -71.5t20 -71.5t10 -84q0 -63 -28 -109.5t-80.5 -72.5t-127.5 -26q-76 0 -132.5 23t-87.5 64t-31 95q0 43 19.5 77.5t55.5 54.5t86 20
q71 0 115.5 -41.5t44.5 -112.5q0 -37 -10.5 -69t-20.5 -51h-67q11 21 19 51.5t8 57.5q0 47 -23 73t-63 26t-62.5 -23.5t-22.5 -61.5q0 -52 43.5 -85t116.5 -33q77 0 120 38t43 110q0 41 -10 76.5t-20 72t-10 79.5q0 51 24.5 89.5t69 59.5t103.5 21q60 0 105 -22.5
t69.5 -62.5t24.5 -94z" />
    <glyph glyph-name="seven_cham" unicode="&#xaa57;" horiz-adv-x="914" 
d="M829 333q0 -83 -17.5 -147.5t-61 -116.5t-121.5 -97q-60 -35 -88.5 -63.5t-37.5 -50t-9 -35.5q0 -19 12 -33t34 -14q20 0 36 15t31.5 37t34 44t44 37t62.5 15q29 0 52 -13t36 -34.5t13 -48.5q0 -17 -6.5 -39.5t-20.5 -41.5l-68 31q14 20 14 39q0 16 -9 25t-26 9
q-19 0 -34 -15t-30 -37.5t-33.5 -45t-44 -37.5t-62.5 -15q-32 0 -59.5 15t-43.5 41t-16 59q0 32 13.5 63.5t49 66.5t101.5 75q61 37 98 77.5t54 96t17 136.5q0 91 -32.5 142.5t-99.5 51.5q-52 0 -81.5 -29.5t-29.5 -77.5q0 -37 10 -71.5t20 -71.5t10 -84q0 -63 -28 -109.5
t-80.5 -72.5t-127.5 -26q-76 0 -132.5 23t-87.5 64t-31 95q0 43 19.5 77.5t55.5 54.5t86 20q71 0 115.5 -41.5t44.5 -112.5q0 -37 -10.5 -69t-20.5 -51h-67q11 21 19 51.5t8 57.5q0 47 -23 73t-63 26t-62.5 -23.5t-22.5 -61.5q0 -52 43.5 -85t116.5 -33q77 0 120 38t43 110
q0 41 -10 76.5t-20 72t-10 79.5q0 51 24.5 89.5t68.5 59.5t101 21q108 0 164 -71t56 -190z" />
    <glyph glyph-name="eight_cham" unicode="&#xaa58;" horiz-adv-x="1018" 
d="M938 362q0 -72 -23.5 -138t-73.5 -123t-131 -103q-64 -36 -100 -68t-50.5 -59t-14.5 -49q0 -19 12 -32.5t34 -13.5q20 0 36 15t31.5 37t34 44t44 37t62.5 15q29 0 52 -13t36 -34.5t13 -48.5q0 -17 -6.5 -39.5t-20.5 -41.5l-68 31q14 20 14 39q0 16 -9 25t-26 9
q-19 0 -34 -15t-30 -37.5t-33.5 -45t-44 -37.5t-62.5 -15q-32 0 -59.5 14.5t-43.5 40.5t-16 58q0 31 13 67.5t54 79t125 90.5q68 39 112 85.5t65.5 102.5t21.5 123q0 83 -29 123t-80 40q-46 0 -73 -27.5t-36 -79.5q-9 -55 -30.5 -86t-61.5 -47.5t-108 -29.5
q-74 -13 -116.5 -34.5t-60.5 -48.5t-18 -57q0 -28 12.5 -46t37.5 -18q51 0 82.5 64t31.5 175q0 114 -41 174.5t-111 60.5q-50 0 -79 -26t-29 -70q0 -25 9 -46t22 -36l-56 -45q-25 23 -41 57t-16 76q0 46 22.5 82t65 56.5t100.5 20.5q72 0 125.5 -36.5t83 -105t29.5 -166.5
q0 -91 -24.5 -159.5t-69 -106t-104.5 -37.5q-61 0 -97 34t-36 95q0 53 29.5 93.5t83.5 67.5t127 39q41 7 70 14.5t48 21t30.5 37.5t18.5 63q14 76 63 111t116 35q61 0 104.5 -27t67.5 -79t24 -126z" />
    <glyph glyph-name="nine_cham" unicode="&#xaa59;" horiz-adv-x="1058" 
d="M973 333q0 -83 -17.5 -147.5t-61 -116.5t-121.5 -97q-60 -35 -88.5 -63.5t-37.5 -50t-9 -35.5q0 -19 12 -33t34 -14q20 0 36 15t31.5 37t34 44t44 37t62.5 15q29 0 52 -13t36 -34.5t13 -48.5q0 -17 -6.5 -39.5t-20.5 -41.5l-68 31q14 20 14 39q0 16 -9 25t-26 9
q-19 0 -34 -15t-30 -37.5t-33.5 -45t-44 -37.5t-62.5 -15q-32 0 -59.5 15t-43.5 41t-16 59q0 32 13.5 64t49 67t101.5 74q62 37 99 77.5t53.5 96t16.5 136.5q0 91 -32 142.5t-99 51.5q-50 0 -78 -29.5t-28 -80.5q0 -31 9 -60t21.5 -58.5t21.5 -60.5t9 -66q0 -55 -25 -97
t-72 -66.5t-113 -24.5q-65 0 -112.5 24t-73.5 66.5t-26 97.5q0 35 9.5 66t22 60t22 58.5t9.5 60.5q0 51 -27.5 80.5t-77.5 29.5q-52 0 -81 -28t-29 -77q0 -27 11.5 -52.5t27.5 -42.5l-62 -49q-31 27 -46 66t-15 76q0 54 24.5 93.5t68.5 61t103 21.5q56 0 98.5 -21.5
t66.5 -60t24 -90.5q0 -39 -9.5 -72t-22 -63t-22 -58.5t-9.5 -58.5q0 -52 33.5 -85.5t92.5 -33.5t92 33.5t33 85.5q0 30 -9 58.5t-21.5 58.5t-21.5 63t-9 72q0 52 23.5 90.5t66.5 60t99 21.5q108 0 163.5 -71t55.5 -190z" />
    <glyph glyph-name="spiral_cham" unicode="&#xaa5c;" horiz-adv-x="950" 
d="M896 303q0 -124 -51 -214t-145.5 -139t-225.5 -49q-138 0 -238 53.5t-153.5 152.5t-53.5 236h79q0 -117 44 -201t126 -129t196 -45q107 0 184 40t118 115t41 179q0 96 -34.5 165t-98.5 106t-155 37q-121 0 -190 -67.5t-69 -187.5q0 -109 55.5 -170.5t152.5 -61.5
q86 0 134.5 47.5t48.5 130.5q0 71 -35.5 112.5t-100.5 41.5q-54 0 -84.5 -30t-30.5 -81q0 -43 20.5 -67.5t55.5 -24.5q26 0 39.5 11.5t13.5 31.5q0 19 -11 29.5t-30 10.5q-28 0 -46.5 -22.5t-21.5 -63.5l-37 25q8 48 38 75t72 27q38 0 60.5 -21.5t22.5 -58.5q0 -40 -27 -65
t-74 -25q-59 0 -94 39t-35 103q0 77 47.5 122t127.5 45q93 0 146 -57.5t53 -155.5q0 -111 -67.5 -175.5t-185.5 -64.5q-87 0 -150.5 36t-97.5 102.5t-34 157.5q0 99 40.5 170t116 109.5t179.5 38.5q113 0 195 -45t126 -128.5t44 -199.5z" />
    <glyph glyph-name="danda_cham" unicode="&#xaa5d;" horiz-adv-x="426" 
d="M269 331q0 -97 -20.5 -216t-58.5 -240l-85 22q35 113 54 225t19 205q0 71 -10.5 130t-30.5 99l80 35q25 -46 38.5 -113.5t13.5 -146.5z" />
    <glyph glyph-name="doubleDanda_cham" unicode="&#xaa5e;" horiz-adv-x="658" 
d="M264 337q0 -79 -17.5 -178t-49.5 -203l-81 20q31 95 47 188.5t16 171.5q0 58 -9 106.5t-26 81.5l75 34q21 -42 33 -99t12 -122zM501 330q0 -97 -20 -215.5t-58 -239.5l-85 22q35 113 54 225t19 206q0 70 -10.5 129t-30.5 98l79 36q25 -46 38.5 -114t13.5 -147zM162 642
q-31 0 -48 17t-17 48q0 30 17 47t48 17t48 -17t17 -47q0 -31 -17 -48t-48 -17zM365 679q-30 0 -47.5 17.5t-17.5 48.5q0 30 17.5 47t47.5 17q31 0 48.5 -17t17.5 -47q0 -31 -17.5 -48.5t-48.5 -17.5zM225 839q-30 0 -47 17.5t-17 47.5t17 47t47 17q31 0 48 -17t17 -47
t-17 -47.5t-48 -17.5z" />
    <glyph glyph-name="tripleDanda_cham" unicode="&#xaa5f;" horiz-adv-x="867" 
d="M238 347q0 -64 -15 -145t-41 -167l-77 20q26 79 40 154t14 133q0 93 -31 150l72 33q18 -32 28 -78.5t10 -99.5zM472 337q0 -79 -17.5 -178t-49.5 -203l-80 20q30 95 46 188.5t16 171.5q0 58 -9 106.5t-26 81.5l76 34q21 -41 32.5 -98.5t11.5 -122.5zM710 331
q0 -97 -20.5 -216t-58.5 -240l-84 22q35 113 54 225t19 205q0 71 -10.5 130t-30.5 99l79 35q25 -46 38.5 -113.5t13.5 -146.5z" />
    <glyph glyph-name="comma.cham" horiz-adv-x="268" 
d="M192 470q-9 -35 -23 -76t-30.5 -81.5t-32.5 -76.5h-65q10 38 19.5 81.5t17.5 86t13 77.5h94z" />
    <glyph glyph-name="period.cham" horiz-adv-x="268" 
d="M72 419q0 37 18 52t43 15q26 0 44.5 -15t18.5 -52q0 -36 -18.5 -52t-44.5 -16q-25 0 -43 16t-18 52z" />
    <glyph glyph-name="hyphen.cham" horiz-adv-x="322" 
d="M40 457h242v-78h-242v78z" />
    <glyph glyph-name="laMedial_cham.narrow" 
d="M-134 150q-10 -49 -32 -76t-58 -27q-16 0 -29.5 4t-26.5 8t-29 4q-33 0 -50 -29t-17 -79q0 -51 19 -73.5t41 -22.5q17 0 26 10.5t9 28.5q0 27 -20.5 41.5t-55.5 14.5q-28 0 -54 -15l-6 60q14 5 28 6.5t29 1.5q62 0 102.5 -28.5t40.5 -81.5q0 -45 -27.5 -70.5t-68.5 -25.5
q-34 0 -63 16.5t-46.5 51t-17.5 87.5q0 50 13.5 89.5t40 62.5t65.5 23q16 0 28.5 -3.5t24.5 -7.5t24 -4q20 0 30 15t15 41z" />
    <glyph glyph-name="waMedial_cham.narrow" 
d="M-35 97q44 -37 67.5 -81.5t23.5 -91.5q0 -55 -29.5 -89t-76.5 -34t-76.5 36.5t-29.5 94.5q0 63 42.5 125t124.5 102l34 -49q-50 -26 -80.5 -56.5t-44 -61t-13.5 -58.5q0 -34 12.5 -53t31.5 -19t29.5 16t10.5 45q0 31 -16 64t-54 64z" />
    <glyph glyph-name="aaSign_oeSign_cham" 
d="M127 876q0 -26 -10.5 -52t-36.5 -50l-51 42q9 12 15 28t6 34q0 35 -26 57.5t-67 22.5t-66 -22.5t-25 -59.5q0 -30 16 -54.5t39.5 -47.5t47.5 -47t40 -53t16 -67q0 -29 -12.5 -56.5t-39 -47.5t-68.5 -29l-16 64q30 9 43.5 28.5t13.5 42.5q0 29 -16 53.5t-39.5 48.5
t-47.5 49t-40 54t-16 64q0 43 21 75.5t59.5 51t89.5 18.5t89 -18.5t59.5 -51.5t21.5 -77zM328 1023q2 -49 -12.5 -93.5t-44 -79.5t-71.5 -55.5t-93 -20.5h-27l6 53h22q42 0 75.5 24.5t52.5 68.5t15 103h77z" />
    <glyph glyph-name="uSign_cham.narrow" 
d="M66 114q3 -61 -19.5 -87.5t-57.5 -26.5q-25 0 -43 12.5t-33 25t-32 12.5q-15 0 -26 -10t-10 -44h-48q-3 62 20 88.5t57 26.5q25 0 43 -13t33.5 -25.5t31.5 -12.5q15 0 26 10.5t11 43.5h47z" />
    <glyph glyph-name="oeSign_auSign_cham" 
d="M189 999q-17 -64 -53.5 -99.5t-82.5 -35.5q-33 0 -66 14t-63.5 27.5t-56.5 13.5q-28 0 -46.5 -15t-18.5 -39q0 -26 20 -44.5t63 -44.5q32 -20 56.5 -40t38.5 -45t14 -61q0 -45 -27 -80.5t-71 -60.5l-47 46q38 24 54 46.5t16 47.5q0 33 -22 53.5t-66 48.5
q-31 20 -54.5 38.5t-36.5 41.5t-13 55q0 33 18.5 60t49 42.5t67.5 15.5q33 0 66.5 -13.5t63.5 -27t52 -13.5q27 0 46 24.5t31 65.5zM131 1242q0 -42 -16 -80t-45 -67.5t-70 -46.5t-92 -17q-46 0 -90 11.5t-69 33.5l44 50q19 -14 49 -22.5t62 -8.5q43 0 76.5 18t53.5 51.5
t20 77.5h77z" />
    <glyph glyph-name="auSign_mSignFinal_cham" 
d="M189 999q-17 -64 -53.5 -99.5t-82.5 -35.5q-33 0 -66 14t-63.5 27.5t-56.5 13.5q-28 0 -46.5 -15t-18.5 -39q0 -26 20 -44.5t63 -44.5q32 -20 56.5 -40t38.5 -45t14 -61q0 -45 -27 -80.5t-71 -60.5l-47 46q38 24 54 46.5t16 47.5q0 33 -22 53.5t-66 48.5
q-31 20 -54.5 38.5t-36.5 41.5t-13 55q0 33 18.5 60t49 42.5t67.5 15.5q33 0 66.5 -13.5t63.5 -27t52 -13.5q27 0 46 24.5t31 65.5zM-42 1056q-28 0 -45 17t-17 45q0 29 17 46t45 17q29 0 46 -17t17 -46q0 -28 -17 -45t-46 -17z" />
    <glyph glyph-name="oeSign_ngSignFinal_cham" 
d="M-51 1027l-325 -170l-30 60l334 154zM-6 899q0 -42 -16 -80t-45 -67.5t-70 -46.5t-92 -17q-46 0 -90 11.5t-69 33.5l44 50q19 -14 49 -22.5t62 -8.5q43 0 76.5 18t53.5 51.5t20 77.5h77z" />
    <glyph glyph-name="oeSign_mSignFinal_cham" 
d="M-1 899q0 -42 -16 -80t-45 -67.5t-70 -46.5t-92 -17q-46 0 -90 11.5t-69 33.5l44 50q19 -14 49 -22.5t62 -8.5q43 0 76.5 18t53.5 51.5t20 77.5h77zM-234 853q-28 0 -45 17t-17 45q0 29 17 46t45 17q29 0 46 -17t17 -46q0 -28 -17 -45t-46 -17z" />
    <glyph glyph-name="iSign_mSignFinal_cham" 
d="M61 821q0 -80 -41.5 -159t-118.5 -154l-53 47q37 34 48.5 54t11.5 45q0 22 -16.5 35t-52.5 13h-35q-73 0 -114 39t-41 103q0 53 25 93t71 63t108 23q59 0 106 -25t74.5 -70.5t27.5 -106.5zM-19 821q0 44 -16.5 74.5t-45.5 46.5t-67 16q-58 0 -91 -30.5t-33 -77.5
q0 -40 23.5 -62.5t68.5 -22.5h43q44 0 68 -22.5t24 -66.5v-16h-21q24 38 35.5 80.5t11.5 80.5zM168 725q-28 0 -45 17t-17 45q0 29 17 46t45 17q29 0 46 -17t17 -46q0 -28 -17 -45t-46 -17z" />
    <glyph glyph-name="na_cham.calt" horiz-adv-x="1164" 
d="M488 280q0 -89 -24.5 -156t-68 -104t-101.5 -37q-59 0 -98.5 37.5t-39.5 103.5q0 58 31 103t83.5 71.5t117.5 26.5q63 0 113 -24t83.5 -67t47.5 -100.5t5 -123.5l-63 5q6 77 -16.5 131.5t-64.5 83t-94 28.5q-51 0 -87 -19t-54.5 -48.5t-18.5 -63.5q0 -35 15.5 -55.5
t41.5 -20.5q47 0 77.5 62.5t30.5 170.5q0 119 -41 180t-112 61q-50 0 -79 -26t-29 -70q0 -25 9 -46t22 -36l-56 -45q-25 23 -41 57t-16 76q0 46 22.5 82t65 56.5t100.5 20.5q72 0 126 -36.5t83.5 -106.5t29.5 -171zM1011 421q0 -41 -16.5 -78t-48.5 -69l-63 47q20 20 32 46
t12 54q0 50 -29.5 77t-76.5 27q-49 0 -76.5 -27t-27.5 -74q0 -35 9 -69t17.5 -70t8.5 -80q0 -69 -38.5 -129t-121.5 -108q-58 -34 -89.5 -59.5t-43 -46t-11.5 -39.5t12 -33t34 -14q20 0 36 15t31.5 37t34 44t44 37t62.5 15q29 0 52 -13t36 -34.5t13 -48.5q0 -17 -6.5 -39.5
t-20.5 -41.5l-68 31q14 20 14 39q0 16 -9 25t-26 9q-19 0 -34 -15t-30 -37.5t-33.5 -45t-44 -37.5t-62.5 -15q-32 0 -59.5 15t-43.5 41t-16 59q0 22 9 44t30.5 46.5t58.5 52t92 60.5q62 36 89 84.5t27 95.5q0 37 -9.5 72.5t-19 74t-9.5 80.5q0 50 22.5 88t65 59t100.5 21
q57 0 100 -22t67 -60.5t24 -90.5z" />
    <glyph glyph-name="ma_cham.calt" horiz-adv-x="1147" 
d="M917 -172q0 -17 -6.5 -39.5t-20.5 -41.5l-68 31q14 20 14 39q0 16 -9 25t-26 9q-19 0 -34 -15t-29 -37.5t-31.5 -45t-42.5 -37.5t-61 -15q-32 0 -59.5 14t-43.5 39.5t-16 59.5q0 27 11.5 55.5t28.5 60t34 65t28.5 70t11.5 76.5q0 39 -17.5 69t-47 49t-65.5 25l12 50
q55 -9 95.5 -35t62.5 -66t22 -90q0 -45 -14 -91.5t-32 -89.5t-32 -78.5t-14 -60.5q0 -19 12 -33t34 -14q20 0 35 15t29.5 37t32.5 44t43 37t62 15q29 0 52 -13t36 -34.5t13 -48.5zM994 421q0 -40 -15.5 -77.5t-47.5 -67.5l-63 48q19 20 30.5 44.5t11.5 52.5q0 49 -29 76.5
t-79 27.5t-78.5 -26.5t-28.5 -70.5q0 -24 6.5 -45.5t6.5 -44.5q0 -43 -18 -69t-44.5 -43t-53.5 -33.5t-45 -39.5t-18 -61q0 -14 3 -28t10 -36l-18 -44q-5 -1 -11.5 -1h-13.5q-64 0 -112 24t-74 66t-26 97q0 35 10 65.5t23 59.5t23 58t10 61q0 50 -27.5 80.5t-77.5 30.5
t-80.5 -27.5t-30.5 -76.5q0 -28 11.5 -53t29.5 -45l-62 -48q-31 31 -47 68.5t-16 75.5q0 53 24.5 92.5t69 61t102.5 21.5q56 0 99 -21.5t67 -61t24 -94.5q0 -37 -10 -69t-23.5 -61t-23.5 -58t-10 -59q0 -53 30.5 -87t81.5 -34h6h6l-20 -20q-6 23 -9 36.5t-3 30.5
q0 42 16.5 69t41 45t48.5 35t40.5 39t16.5 57q0 18 -7 43t-7 55q0 46 23 81t65.5 54.5t101.5 19.5q58 0 100.5 -21.5t66.5 -60.5t24 -91z" />
    <glyph glyph-name="bba_cham.calt" horiz-adv-x="1147" 
d="M781 -113q0 -89 -34.5 -137.5t-95.5 -48.5q-58 0 -91.5 41t-33.5 110q0 80 52.5 173.5t163.5 211.5l47 -47q-70 -76 -112.5 -138t-61 -111.5t-18.5 -86.5q0 -40 14 -64.5t39 -24.5q27 0 43 30t16 94q0 45 -11 92.5t-36.5 95.5t-71 94.5t-114.5 89.5l37 59
q133 -95 200.5 -202.5t67.5 -230.5zM994 421q0 -40 -15.5 -77.5t-47.5 -67.5l-63 48q19 20 30.5 44.5t11.5 52.5q0 49 -29 76.5t-79 27.5t-78.5 -26.5t-28.5 -70.5q0 -24 6.5 -45.5t6.5 -44.5q0 -43 -18 -69t-44.5 -43t-53.5 -33.5t-45 -39.5t-18 -61q0 -14 3 -28t10 -36
l-18 -44q-5 -1 -11.5 -1h-13.5q-64 0 -112 24t-74 66t-26 97q0 35 10 65.5t23 59.5t23 58t10 61q0 50 -27.5 80.5t-77.5 30.5t-80.5 -27.5t-30.5 -76.5q0 -28 11.5 -53t29.5 -45l-62 -48q-31 31 -47 68.5t-16 75.5q0 53 24.5 92.5t69 61t102.5 21.5q56 0 99 -21.5t67 -61
t24 -94.5q0 -37 -10 -69t-23.5 -61t-23.5 -58t-10 -59q0 -53 30.5 -87t81.5 -34h6h6l-20 -20q-6 23 -9 36.5t-3 30.5q0 42 16.5 69t41 45t48.5 35t40.5 39t16.5 57q0 18 -7 43t-7 55q0 46 23 81t65.5 54.5t101.5 19.5q58 0 100.5 -21.5t66.5 -60.5t24 -91z" />
    <glyph glyph-name="va_cham.calt" horiz-adv-x="1147" 
d="M781 -113q0 -89 -34.5 -137.5t-95.5 -48.5q-58 0 -91.5 41t-33.5 110q0 80 52.5 173.5t163.5 211.5l47 -47q-70 -76 -112.5 -138t-61 -111.5t-18.5 -86.5q0 -40 14 -64.5t39 -24.5q27 0 43 30t16 94q0 50 -13.5 102.5t-46 106t-91.5 103.5l51 40q86 -79 129 -167.5
t43 -186.5zM994 421q0 -40 -15.5 -77.5t-47.5 -67.5l-63 48q19 20 30.5 44.5t11.5 52.5q0 49 -29 76.5t-79 27.5t-78.5 -26.5t-28.5 -70.5q0 -24 6.5 -45.5t6.5 -44.5q0 -43 -18 -69t-44.5 -43t-53.5 -33.5t-45 -39.5t-18 -61q0 -14 3 -28t10 -36l-18 -44q-5 -1 -11.5 -1
h-13.5q-64 0 -112 24t-74 66t-26 97q0 35 10 65.5t23 59.5t23 58t10 61q0 50 -27.5 80.5t-77.5 30.5t-80.5 -27.5t-30.5 -76.5q0 -28 11.5 -53t29.5 -45l-62 -48q-31 31 -47 68.5t-16 75.5q0 53 24.5 92.5t69 61t102.5 21.5q56 0 99 -21.5t67 -61t24 -94.5q0 -37 -10 -69
t-23.5 -61t-23.5 -58t-10 -59q0 -53 30.5 -87t81.5 -34h6h6l-20 -20q-6 23 -9 36.5t-3 30.5q0 42 16.5 69t41 45t48.5 35t40.5 39t16.5 57q0 18 -7 43t-7 55q0 46 23 81t65.5 54.5t101.5 19.5q58 0 100.5 -21.5t66.5 -60.5t24 -91z" />
    <glyph glyph-name="raMedial_cham_pre" horiz-adv-x="400" 
d="M887 -334q-75 50 -130 73t-96 23q-36 0 -62 -20t-38 -55l-62 -21q-75 39 -141 103.5t-116.5 148.5t-79 184t-28.5 211q0 160 65.5 302.5t195.5 266.5l32 -42h-230q-50 0 -78 -21t-28 -51q0 -16 4.5 -28.5t14.5 -29.5l-65 -39q-20 28 -27 49.5t-7 48.5q0 41 23.5 72t65 49
t96.5 18h231l32 -58q-117 -118 -176.5 -253t-59.5 -284q0 -102 25.5 -194.5t70.5 -170.5t102 -136t120 -93l-37 -16q14 62 56.5 94.5t98.5 32.5q51 0 119 -27t144 -79z" />
    <glyph glyph-name="raMedial_cham_pre.low" horiz-adv-x="400" 
d="M887 -494q-75 50 -130 73t-96 23q-36 0 -62 -20t-38 -55l-62 -21q-75 39 -141 104t-116.5 151.5t-79 193t-28.5 228.5q0 129 16.5 231t49 185t81.5 152t114 131l32 -42h-230q-50 0 -78 -21t-28 -51q0 -16 4.5 -28.5t14.5 -29.5l-65 -39q-20 28 -27 49.5t-7 48.5
q0 41 23.5 72t65 49t96.5 18h231l32 -58q-78 -78 -130.5 -170t-79 -212t-26.5 -285q0 -114 25.5 -212.5t70.5 -178.5t102 -139t120 -94l-37 -16q14 62 56.5 94.5t98.5 32.5q51 0 119 -27t144 -79z" />
    <glyph glyph-name="raMedial_cham_pre.low.alt" horiz-adv-x="400" 
d="M887 -424q-75 50 -130 73t-96 23q-36 0 -62 -20t-38 -55l-62 -21q-75 39 -141 104t-116.5 153t-79 196t-28.5 234q0 132 29 241t87 202.5t145 175.5l32 -42h-230q-50 0 -78 -21t-28 -51q0 -16 4.5 -28.5t14.5 -29.5l-65 -39q-20 28 -27 49.5t-7 48.5q0 41 23.5 72t65 49
t96.5 18h231l32 -58q-78 -78 -130.5 -166.5t-79 -192t-26.5 -228.5q0 -117 25.5 -218t70.5 -182t102 -140t120 -94l-37 -16q14 62 56.5 94.5t98.5 32.5q51 0 119 -27t144 -79z" />
    </font>
</defs>
</svg>
