<?xml version="1.0" standalone="no"?>
<!DOCTYPE svg PUBLIC "-//W3C//DTD SVG 1.1//EN" "http://www.w3.org/Graphics/SVG/1.1/DTD/svg11.dtd" >
<svg>
<metadata>
Created by FontForge 20090622 at Fri May  8 19:16:13 2020
 By deploy user
Copyright 2019 Google Inc. All Rights Reserved.
</metadata>
<defs>
<font id="NotoSansHebrew-Light" horiz-adv-x="0" >
  <font-face 
    font-family="Noto Sans Hebrew Light"
    font-weight="100"
    font-stretch="normal"
    units-per-em="1000"
    panose-1="0 0 0 0 0 0 0 0 0 0"
    ascent="800"
    descent="-200"
    bbox="-210 -251 768 795"
    underline-thickness="50"
    underline-position="-75"
    unicode-range="U+000D-U+FB4F"
  />
<missing-glyph horiz-adv-x="600" 
d="M94 0v714h411v-714h-411zM145 51h309v612h-309v-612z" />
    <glyph glyph-name=".notdef" horiz-adv-x="600" 
d="M94 0v714h411v-714h-411zM145 51h309v612h-309v-612z" />
    <glyph glyph-name="CR" unicode="&#xd;" horiz-adv-x="260" 
 />
    <glyph glyph-name="NULL" 
 />
    <glyph glyph-name="NULL" 
 />
    <glyph glyph-name="uni05D0" unicode="&#x5d0;" horiz-adv-x="588" 
d="M508 0q-43 75 -93.5 148.5l-99.5 139t-89 113.5l-53 65.5l-40.5 48.5l-31.5 37.5l-27 31.5h36l37 -43.5l46 -54l67 -81.5q40 -49 89.5 -115.5l100 -141t93.5 -148.5h-35zM45 0l24 171q9 62 26 109.5t46.5 83.5t75.5 62l16 -22q-42 -24 -68.5 -57t-41 -75.5t-22.5 -97.5
l-24 -174h-32zM372 248l-16 22q42 24 71.5 56t46.5 74.5t21 97.5l7 86h32l-7 -83q-5 -62 -24 -109t-52 -82t-79 -62z" />
    <glyph glyph-name="uniFB30" unicode="&#xfb30;" horiz-adv-x="588" 
d="M508 0q-43 75 -93.5 148.5l-99.5 139t-89 113.5l-53 65.5l-40.5 48.5l-31.5 37.5l-27 31.5h36l37 -43.5l46 -54l67 -81.5q40 -49 89.5 -115.5l100 -141t93.5 -148.5h-35zM45 0l24 171q9 62 26 109.5t46.5 83.5t75.5 62l16 -22q-42 -24 -68.5 -57t-41 -75.5t-22.5 -97.5
l-24 -174h-32zM372 248l-16 22q42 24 71.5 56t46.5 74.5t21 97.5l7 86h32l-7 -83q-5 -62 -24 -109t-52 -82t-79 -62zM266 104q-10 0 -16.5 6.5t-6.5 16.5q0 9 6.5 15.5t16.5 6.5q9 0 15.5 -6.5t6.5 -15.5q0 -10 -6.5 -16.5t-15.5 -6.5z" />
    <glyph glyph-name="uniFB4F" unicode="&#xfb4f;" horiz-adv-x="569" 
d="M493 0q-43 75 -94 148.5l-100 138.5l-88 114l-77 95t-52 61h-67v198l32 5v-176h48l37 -43.5l46 -54l67 -81.5l48.5 -61l52.5 -71q41 24 69 56t44.5 73.5t20.5 95.5l7 86h32l-7 -83q-5 -61 -23.5 -107.5t-50 -81t-76.5 -61.5q43 -58 86 -122.5t80 -128.5h-35z" />
    <glyph glyph-name="uniFB2E" unicode="&#xfb2e;" horiz-adv-x="588" 
d="M508 0q-43 75 -93.5 148.5l-99.5 139t-89 113.5l-53 65.5l-40.5 48.5l-31.5 37.5l-27 31.5h36l37 -43.5l46 -54l67 -81.5q40 -49 89.5 -115.5l100 -141t93.5 -148.5h-35zM45 0l24 171q9 62 26 109.5t46.5 83.5t75.5 62l16 -22q-42 -24 -68.5 -57t-41 -75.5t-22.5 -97.5
l-24 -174h-32zM372 248l-16 22q42 24 71.5 56t46.5 74.5t21 97.5l7 86h32l-7 -83q-5 -62 -24 -109t-52 -82t-79 -62zM207 -107v25h148v-25h-148z" />
    <glyph glyph-name="uniFB2F" unicode="&#xfb2f;" horiz-adv-x="588" 
d="M508 0q-43 75 -93.5 148.5l-99.5 139t-89 113.5l-53 65.5l-40.5 48.5l-31.5 37.5l-27 31.5h36l37 -43.5l46 -54l67 -81.5q40 -49 89.5 -115.5l100 -141t93.5 -148.5h-35zM45 0l24 171q9 62 26 109.5t46.5 83.5t75.5 62l16 -22q-42 -24 -68.5 -57t-41 -75.5t-22.5 -97.5
l-24 -174h-32zM372 248l-16 22q42 24 71.5 56t46.5 74.5t21 97.5l7 86h32l-7 -83q-5 -62 -24 -109t-52 -82t-79 -62zM268 -198v91h-62v25h149v-25h-62v-91h-25z" />
    <glyph glyph-name="uniFB29" unicode="&#xfb29;" horiz-adv-x="570" 
d="M297 365h218v-24h-460v24h218v218h24v-218z" />
    <glyph glyph-name="uni05A2" unicode="&#x5a2;" 
d="M101 -202v42q-22 4 -32.5 18.5t-10.5 42.5v17h25v-17q0 -20 7.5 -29t24.5 -9t24 9t7 29v17h25v-17q0 -28 -10.5 -42.5t-33.5 -18.5v-42h-26z" />
    <glyph glyph-name="uni05E2" unicode="&#x5e2;" horiz-adv-x="556" 
d="M46 -33l-1 27l166 43q53 14 95.5 35.5t74 64t50.5 118t25 197.5l6 132h32l-5 -128q-4 -104 -18.5 -176t-38.5 -119t-56.5 -76t-73.5 -46t-89 -29zM218 27l-148 554l30 6l130 -485q3 -9 4 -20.5t0.5 -25t-2.5 -29.5h-14z" />
    <glyph glyph-name="uniFB20" unicode="&#xfb20;" horiz-adv-x="542" 
d="M41 -1l-1 27l166 1q54 0 97 21.5t74 69.5t49.5 130t24.5 204l6 132h32l-5 -128q-4 -104 -18 -180.5t-37.5 -129.5t-56 -85t-73.5 -46.5t-91 -14.5zM214 22l-149 559l30 6l130 -485q4 -14 5 -35.5t-2 -44.5h-14z" />
    <glyph glyph-name="uni05D1" unicode="&#x5d1;" horiz-adv-x="549" 
d="M395 0v416q0 71 -33 106t-103 35h-179l5 27h179q80 0 121.5 -42t41.5 -123v-402q0 -6 -2.5 -9t-7.5 -8h-22zM50 0v27h449l-5 -27h-444z" />
    <glyph glyph-name="uniFB31" unicode="&#xfb31;" horiz-adv-x="549" 
d="M395 0v416q0 71 -33 106t-103 35h-179l5 27h179q80 0 121.5 -42t41.5 -123v-402q0 -6 -2.5 -9t-7.5 -8h-22zM50 0v27h449l-5 -27h-444zM223 273q-10 0 -16.5 6.5t-6.5 16.5q0 9 6.5 15.5t16.5 6.5q9 0 15.5 -6.5t6.5 -15.5q0 -10 -6.5 -16.5t-15.5 -6.5z" />
    <glyph glyph-name="uniFB4C" unicode="&#xfb4c;" horiz-adv-x="539" 
d="M395 0v416q0 71 -33 106t-103 35h-179l5 27h179q80 0 121.5 -42t41.5 -123v-402q0 -6 -2.5 -9t-7.5 -8h-22zM50 0v27h449l-5 -27h-444zM127 667v25h164v-25h-164z" />
    <glyph glyph-name="uni05BC" unicode="&#x5bc;" 
d="M72 273q-10 0 -16.5 6.5t-6.5 16.5q0 9 6.5 15.5t16.5 6.5q9 0 15.5 -6.5t6.5 -15.5q0 -10 -6.5 -16.5t-15.5 -6.5z" />
    <glyph glyph-name="uni05D3" unicode="&#x5d3;" horiz-adv-x="513" 
d="M40 557v27h433l-5 -27h-428zM346 0v509q0 10 1.5 19.5t4.5 17.5t7 11h24q-2 -7 -3.5 -20.5t-1.5 -27.5v-509h-32z" />
    <glyph glyph-name="uniFB33" unicode="&#xfb33;" horiz-adv-x="513" 
d="M40 557v27h433l-5 -27h-428zM346 0v509q0 10 1.5 19.5t4.5 17.5t7 11h24q-2 -7 -3.5 -20.5t-1.5 -27.5v-509h-32zM182 273q-10 0 -16.5 6.5t-6.5 16.5q0 9 6.5 15.5t16.5 6.5q9 0 15.5 -6.5t6.5 -15.5q0 -10 -6.5 -16.5t-15.5 -6.5z" />
    <glyph glyph-name="uni05A7" unicode="&#x5a7;" 
d="M61 -219v19l76 13l-79 100l107 21v-23l-69 -13l77 -98z" />
    <glyph glyph-name="uni05AD" unicode="&#x5ad;" 
d="M159 -188q-57 0 -83 28t-26 78h29q0 -37 17.5 -57t62.5 -20v-29z" />
    <glyph glyph-name="uni0591" unicode="&#x591;" 
d="M58 -202v17q0 29 10.5 43t32.5 18v42h26v-42q23 -4 33.5 -18t10.5 -43v-17h-25v17q0 20 -7 29t-24 9t-24.5 -9t-7.5 -29v-17h-25z" />
    <glyph glyph-name="uni05DA" unicode="&#x5da;" horiz-adv-x="519" 
d="M410 -198v580q0 83 -35.5 129t-98.5 46h-229l5 27h224q80 0 123 -53.5t43 -148.5v-577z" />
    <glyph glyph-name="uniFB3A" unicode="&#xfb3a;" horiz-adv-x="519" 
d="M410 -198v580q0 83 -35.5 129t-98.5 46h-229l5 27h224q80 0 123 -53.5t43 -148.5v-577zM213 273q-10 0 -16.5 6.5t-6.5 16.5q0 9 6.5 15.5t16.5 6.5q9 0 15.5 -6.5t6.5 -15.5q0 -10 -6.5 -16.5t-15.5 -6.5z" />
    <glyph glyph-name="uni05DD" unicode="&#x5dd;" horiz-adv-x="666" 
d="M418 584q80 0 121.5 -42t41.5 -123v-419h-454v509q0 10 1.5 19.5t4.5 17.5t7 11h-83l5 27h356zM549 27v389q0 71 -33 106t-103 35h-249q-2 -7 -3.5 -20.5t-1.5 -27.5v-482h390z" />
    <glyph glyph-name="uni05DF" unicode="&#x5df;" horiz-adv-x="303" 
d="M150 -198v782h32v-779zM50 557l5 27h115v-27h-120z" />
    <glyph glyph-name="uni05E3" unicode="&#x5e3;" horiz-adv-x="587" 
d="M472 -198v495q0 127 -55.5 198.5t-153.5 71.5q-82 0 -127.5 -47t-45.5 -121q0 -59 28 -101t89 -48q8 -1 13.5 -1.5t9.5 -0.5l-1 -28q-5 0 -12 0.5t-19 1.5q-73 9 -107.5 57t-34.5 120q0 57 25 101t71.5 69t110.5 25q114 0 177.5 -79t63.5 -218v-492z" />
    <glyph glyph-name="uniFB43" unicode="&#xfb43;" horiz-adv-x="587" 
d="M472 -198v495q0 127 -55.5 198.5t-153.5 71.5q-82 0 -127.5 -47t-45.5 -121q0 -59 28 -101t89 -48q8 -1 13.5 -1.5t9.5 -0.5l-1 -28q-5 0 -12 0.5t-19 1.5q-73 9 -107.5 57t-34.5 120q0 57 25 101t71.5 69t110.5 25q114 0 177.5 -79t63.5 -218v-492zM333 246
q-10 0 -16.5 6.5t-6.5 16.5q0 9 6.5 15.5t16.5 6.5q9 0 15.5 -6.5t6.5 -15.5q0 -10 -6.5 -16.5t-15.5 -6.5z" />
    <glyph glyph-name="uni05E5" unicode="&#x5e5;" horiz-adv-x="471" 
d="M311 -200l-38 160q-27 112 -61 212.5t-72 191.5q-27 66 -55 126t-48 94h37q11 -18 28 -53.5l36 -78t36 -84.5q39 -93 74 -195t62 -213l38 -155zM225 217l-9 25q44 18 72.5 51.5t45 73t24.5 76.5t11 61l10 80h32l-10 -88q-3 -25 -12.5 -64t-29.5 -81t-52.5 -78t-81.5 -56z
" />
    <glyph glyph-name="uniFB26" unicode="&#xfb26;" horiz-adv-x="758" 
d="M543 584q80 0 121.5 -42t41.5 -123v-419h-604v509q0 10 1.5 19.5t4.5 17.5t7 11h-83l5 27h506zM674 27v389q0 71 -33 106t-103 35h-399q-2 -7 -3.5 -20.5t-1.5 -27.5v-482h540z" />
    <glyph glyph-name="uni05F3" unicode="&#x5f3;" horiz-adv-x="149" 
d="M23 339q12 26 22 57.5t18.5 64.5t14 64.5t8.5 58.5h28v-9q-6 -41 -16 -82t-23 -80t-29 -74h-23z" />
    <glyph glyph-name="uni059C" unicode="&#x59c;" 
d="M50 650q0 50 26 78t83 28v-29q-45 0 -62.5 -20t-17.5 -57h-29z" />
    <glyph glyph-name="uni059D" unicode="&#x59d;" 
d="M50 650q0 50 26 78t83 28v-29q-45 0 -62.5 -20t-17.5 -57h-29z" />
    <glyph glyph-name="uni05F4" unicode="&#x5f4;" horiz-adv-x="287" 
d="M23 339q12 26 22 57.5t18.5 64.5t14 64.5t8.5 58.5h28v-9q-6 -41 -16 -82t-23 -80t-29 -74h-23zM163 339q16 35 28.5 78.5t22 87t12.5 79.5h28v-9q-6 -41 -16 -82t-23 -80t-29 -74h-23z" />
    <glyph glyph-name="uni059E" unicode="&#x59e;" 
d="M159 650q0 50 26 78t83 28v-29q-45 0 -62.5 -20t-17.5 -57h-29zM50 650q0 50 26 78t83 28v-29q-45 0 -62.5 -20t-17.5 -57h-29z" />
    <glyph glyph-name="uni05D2" unicode="&#x5d2;" horiz-adv-x="336" 
d="M284 -5l-48 136h-3q-19 -27 -41 -50.5t-48 -42t-54 -28.5t-59 -10h-6v27h3q32 0 64 15t60 39.5t48.5 51.5t29.5 51v292q0 40 -18.5 60.5t-56.5 20.5h-67l5 27h67q32 0 55 -12t35 -35t12 -58v-333l51 -139z" />
    <glyph glyph-name="uniFB32" unicode="&#xfb32;" horiz-adv-x="336" 
d="M284 -5l-48 136h-3q-19 -27 -41 -50.5t-48 -42t-54 -28.5t-59 -10h-6v27h3q32 0 64 15t60 39.5t48.5 51.5t29.5 51v292q0 40 -18.5 60.5t-56.5 20.5h-67l5 27h67q32 0 55 -12t35 -35t12 -58v-333l51 -139zM113 293q-10 0 -16.5 6.5t-6.5 16.5q0 9 6.5 15.5t16.5 6.5
q9 0 15.5 -6.5t6.5 -15.5q0 -10 -6.5 -16.5t-15.5 -6.5z" />
    <glyph glyph-name="uni05B2" unicode="&#x5b2;" 
d="M50 -107v25h146v-25h-146zM254 -116q-10 0 -16.5 6.5t-6.5 16.5q0 9 6.5 15.5t16.5 6.5q9 0 15.5 -6.5t6.5 -15.5q0 -10 -6.5 -16.5t-15.5 -6.5zM254 -206q-10 0 -16.5 6.5t-6.5 16.5q0 9 6.5 15.5t16.5 6.5q9 0 15.5 -6.5t6.5 -15.5q0 -10 -6.5 -16.5t-15.5 -6.5z" />
    <glyph glyph-name="hatafpatah_zerowidthjoiner_siluqlefthb" 
d="M50 -107v25h146v-25h-146zM231 -211v145h25v-145h-25zM314 -116q-10 0 -16.5 6.5t-6.5 16.5q0 9 6.5 15.5t16.5 6.5q9 0 15.5 -6.5t6.5 -15.5q0 -10 -6.5 -16.5t-15.5 -6.5zM314 -206q-10 0 -16.5 6.5t-6.5 16.5q0 9 6.5 15.5t16.5 6.5q9 0 15.5 -6.5t6.5 -15.5
q0 -10 -6.5 -16.5t-15.5 -6.5z" />
    <glyph glyph-name="uni05B3" unicode="&#x5b3;" 
d="M111 -196v90h-61v25h148v-25h-62v-90h-25zM255 -116q-10 0 -16.5 6.5t-6.5 16.5q0 9 6.5 15.5t16.5 6.5q9 0 15.5 -6.5t6.5 -15.5q0 -10 -6.5 -16.5t-15.5 -6.5zM255 -206q-10 0 -16.5 6.5t-6.5 16.5q0 9 6.5 15.5t16.5 6.5q9 0 15.5 -6.5t6.5 -15.5q0 -10 -6.5 -16.5
t-15.5 -6.5z" />
    <glyph glyph-name="hatafqamats_zerowidthjoiner_siluqlefthb" 
d="M114 -196v90h-61v25h148v-25h-62v-90h-25zM236 -211v145h25v-145h-25zM318 -116q-10 0 -16.5 6.5t-6.5 16.5q0 9 6.5 15.5t16.5 6.5q9 0 15.5 -6.5t6.5 -15.5q0 -10 -6.5 -16.5t-15.5 -6.5zM318 -206q-10 0 -16.5 6.5t-6.5 16.5q0 9 6.5 15.5t16.5 6.5q9 0 15.5 -6.5
t6.5 -15.5q0 -10 -6.5 -16.5t-15.5 -6.5z" />
    <glyph glyph-name="uni05B1" unicode="&#x5b1;" 
d="M119 -206q-10 0 -16.5 6.5t-6.5 16.5q0 9 6.5 15.5t16.5 6.5q9 0 15.5 -6.5t6.5 -15.5q0 -10 -6.5 -16.5t-15.5 -6.5zM72 -116q-10 0 -16.5 6.5t-6.5 16.5q0 9 6.5 15.5t16.5 6.5q9 0 15.5 -6.5t6.5 -15.5q0 -10 -6.5 -16.5t-15.5 -6.5zM168 -116q-10 0 -16.5 6.5
t-6.5 16.5q0 9 6.5 15.5t16.5 6.5q9 0 15.5 -6.5t6.5 -15.5q0 -10 -6.5 -16.5t-15.5 -6.5zM249 -116q-10 0 -16.5 6.5t-6.5 16.5q0 9 6.5 15.5t16.5 6.5q9 0 15.5 -6.5t6.5 -15.5q0 -10 -6.5 -16.5t-15.5 -6.5zM249 -206q-10 0 -16.5 6.5t-6.5 16.5q0 9 6.5 15.5t16.5 6.5
q9 0 15.5 -6.5t6.5 -15.5q0 -10 -6.5 -16.5t-15.5 -6.5z" />
    <glyph glyph-name="hatafsegol_zerowidthjoiner_siluqlefthb" 
d="M227 -211v145h25v-145h-25zM75 -116q-10 0 -16.5 6.5t-6.5 16.5q0 9 6.5 15.5t16.5 6.5q9 0 15.5 -6.5t6.5 -15.5q0 -10 -6.5 -16.5t-15.5 -6.5zM171 -116q-10 0 -16.5 6.5t-6.5 16.5q0 9 6.5 15.5t16.5 6.5q9 0 15.5 -6.5t6.5 -15.5q0 -10 -6.5 -16.5t-15.5 -6.5z
M122 -206q-10 0 -16.5 6.5t-6.5 16.5q0 9 6.5 15.5t16.5 6.5q9 0 15.5 -6.5t6.5 -15.5q0 -10 -6.5 -16.5t-15.5 -6.5zM310 -116q-10 0 -16.5 6.5t-6.5 16.5q0 9 6.5 15.5t16.5 6.5q9 0 15.5 -6.5t6.5 -15.5q0 -10 -6.5 -16.5t-15.5 -6.5zM310 -206q-10 0 -16.5 6.5
t-6.5 16.5q0 9 6.5 15.5t16.5 6.5q9 0 15.5 -6.5t6.5 -15.5q0 -10 -6.5 -16.5t-15.5 -6.5z" />
    <glyph glyph-name="uni05D4" unicode="&#x5d4;" horiz-adv-x="596" 
d="M479 0v416q0 71 -33 106t-103 35h-288l5 27h288q80 0 121.5 -42t41.5 -123v-419h-32zM74 0v350l32 5v-355h-32z" />
    <glyph glyph-name="uniFB34" unicode="&#xfb34;" horiz-adv-x="596" 
d="M479 0v416q0 71 -33 106t-103 35h-288l5 27h288q80 0 121.5 -42t41.5 -123v-419h-32zM74 0v350l32 5v-355h-32zM279 273q-10 0 -16.5 6.5t-6.5 16.5q0 9 6.5 15.5t16.5 6.5q9 0 15.5 -6.5t6.5 -15.5q0 -10 -6.5 -16.5t-15.5 -6.5z" />
    <glyph glyph-name="uni05D7" unicode="&#x5d7;" horiz-adv-x="637" 
d="M389 584q80 0 121.5 -42t41.5 -123v-419h-32v416q0 71 -33 106t-103 35h-218q-6 -10 -16 -42t-10 -94v-421h-32v421q0 50 10.5 88t21.5 48h-32v27h281zM55 557l5 27h158v-27h-163z" />
    <glyph glyph-name="uni05B4" unicode="&#x5b4;" 
d="M72 -116q-10 0 -16.5 6.5t-6.5 16.5q0 9 6.5 15.5t16.5 6.5q9 0 15.5 -6.5t6.5 -15.5q0 -10 -6.5 -16.5t-15.5 -6.5z" />
    <glyph glyph-name="uni05B9" unicode="&#x5b9;" 
d="M72 656q-10 0 -16.5 6.5t-6.5 16.5q0 9 6.5 15.5t16.5 6.5q9 0 15.5 -6.5t6.5 -15.5q0 -10 -6.5 -16.5t-15.5 -6.5z" />
    <glyph glyph-name="uni05BA" unicode="&#x5ba;" 
d="M72 656q-10 0 -16.5 6.5t-6.5 16.5q0 9 6.5 15.5t16.5 6.5q9 0 15.5 -6.5t6.5 -15.5q0 -10 -6.5 -16.5t-15.5 -6.5z" />
    <glyph glyph-name="hyphen" unicode="-" horiz-adv-x="322" 
d="M40 259v25h242v-25h-242z" />
    <glyph glyph-name="uni2010" unicode="&#x2010;" horiz-adv-x="322" 
d="M40 259v25h242v-25h-242z" />
    <glyph glyph-name="uni05AC" unicode="&#x5ac;" 
d="M59 650v26h106v101h26v-127h-132z" />
    <glyph glyph-name="uniFB1E" unicode="&#xfb1e;" 
d="M261 759q0 -49 -27.5 -79t-77.5 -30t-78 30t-28 79h21q0 -44 22.5 -66t62.5 -22q41 0 63.5 26.5t22.5 61.5h19z" />
    <glyph glyph-name="uni05DB" unicode="&#x5db;" horiz-adv-x="501" 
d="M57 0v27h149q101 0 152.5 67.5t51.5 197.5q0 131 -51.5 198t-152.5 67h-149l5 27h144q117 0 177.5 -74t60.5 -218t-60.5 -218t-177.5 -74h-149z" />
    <glyph glyph-name="uniFB3B" unicode="&#xfb3b;" horiz-adv-x="501" 
d="M57 0v27h149q101 0 152.5 67.5t51.5 197.5q0 131 -51.5 198t-152.5 67h-149l5 27h144q117 0 177.5 -74t60.5 -218t-60.5 -218t-177.5 -74h-149zM195 273q-10 0 -16.5 6.5t-6.5 16.5q0 9 6.5 15.5t16.5 6.5q9 0 15.5 -6.5t6.5 -15.5q0 -10 -6.5 -16.5t-15.5 -6.5z" />
    <glyph glyph-name="uniFB4D" unicode="&#xfb4d;" horiz-adv-x="501" 
d="M57 0v27h149q101 0 152.5 67.5t51.5 197.5q0 131 -51.5 198t-152.5 67h-149l5 27h144q117 0 177.5 -74t60.5 -218t-60.5 -218t-177.5 -74h-149zM88 667v25h164v-25h-164z" />
    <glyph glyph-name="uni05DC" unicode="&#x5dc;" horiz-adv-x="489" 
d="M74 584h373l-8 -27l-180 -557h-32l180 557h-365v198l32 5v-176z" />
    <glyph glyph-name="uniFB3C" unicode="&#xfb3c;" horiz-adv-x="489" 
d="M74 584h373l-8 -27l-180 -557h-32l180 557h-365v198l32 5v-176zM143 311q-10 0 -16.5 6.5t-6.5 16.5q0 9 6.5 15.5t16.5 6.5q9 0 15.5 -6.5t6.5 -15.5q0 -10 -6.5 -16.5t-15.5 -6.5z" />
    <glyph glyph-name="uni05C5" unicode="&#x5c5;" 
d="M72 -117q-10 0 -16.5 6.5t-6.5 16.5q0 9 6.5 15.5t16.5 6.5q9 0 15.5 -6.5t6.5 -15.5q0 -10 -6.5 -16.5t-15.5 -6.5z" />
    <glyph glyph-name="uni05A4" unicode="&#x5a4;" 
d="M125 -229l-75 76l71 71h30l-71 -72l74 -75h-29z" />
    <glyph glyph-name="uni05BE" unicode="&#x5be;" horiz-adv-x="322" 
d="M40 557v27h242v-27h-242z" />
    <glyph glyph-name="uni05AF" unicode="&#x5af;" 
d="M107 650q-24 0 -40.5 16.5t-16.5 40.5q0 23 17 40t40 17t40 -17t17 -40q0 -24 -16.5 -40.5t-40.5 -16.5zM107 674q14 0 23 10t9 23q0 14 -9.5 23t-22.5 9t-22.5 -9t-9.5 -23q0 -13 9.5 -23t22.5 -10z" />
    <glyph glyph-name="uni05DE" unicode="&#x5de;" horiz-adv-x="618" 
d="M70 0l71 356l-81 228h32l61 -179h1q7 28 20 60.5t36 61.5t59.5 47.5t88.5 18.5q62 0 109 -28t74 -88.5t27 -158.5v-15q0 -93 -26.5 -161t-78 -105t-127.5 -37h-105l4 27h100q98 0 149.5 75t51.5 201v15q0 89 -23.5 143.5t-63.5 79.5t-91 25q-49 0 -82.5 -19t-54 -48.5
t-32 -62.5t-16.5 -60l-71 -376h-32z" />
    <glyph glyph-name="uniFB3E" unicode="&#xfb3e;" horiz-adv-x="618" 
d="M70 0l71 356l-81 228h32l61 -179h1q7 28 20 60.5t36 61.5t59.5 47.5t88.5 18.5q62 0 109 -28t74 -88.5t27 -158.5v-15q0 -93 -26.5 -161t-78 -105t-127.5 -37h-105l4 27h100q98 0 149.5 75t51.5 201v15q0 89 -23.5 143.5t-63.5 79.5t-91 25q-49 0 -82.5 -19t-54 -48.5
t-32 -62.5t-16.5 -60l-71 -376h-32zM331 273q-10 0 -16.5 6.5t-6.5 16.5q0 9 6.5 15.5t16.5 6.5q9 0 15.5 -6.5t6.5 -15.5q0 -10 -6.5 -16.5t-15.5 -6.5z" />
    <glyph glyph-name="uni05A6" unicode="&#x5a6;" 
d="M159 -222v29q45 0 62.5 20t17.5 57h29q0 -50 -26 -78t-83 -28zM50 -222v29q45 0 62.5 20t17.5 57h29q0 -50 -26 -78t-83 -28z" />
    <glyph glyph-name="uni05A5" unicode="&#x5a5;" 
d="M50 -188v29q45 0 62.5 20t17.5 57h29q0 -50 -26 -78t-83 -28z" />
    <glyph glyph-name="uni05A3" unicode="&#x5a3;" 
d="M50 -213v26h109v105h26v-131h-135z" />
    <glyph glyph-name="uni00A0" unicode="&#xa0;" horiz-adv-x="260" 
 />
    <glyph glyph-name="uni05E0" unicode="&#x5e0;" horiz-adv-x="353" 
d="M236 0v476q0 27 -8 45t-22.5 27t-34.5 9h-80l5 27h80q41 0 66.5 -26.5t25.5 -78.5v-479h-32zM55 0v27h196v-27h-196z" />
    <glyph glyph-name="uniFB40" unicode="&#xfb40;" horiz-adv-x="353" 
d="M236 0v476q0 27 -8 45t-22.5 27t-34.5 9h-80l5 27h80q41 0 66.5 -26.5t25.5 -78.5v-479h-32zM55 0v27h196v-27h-196zM121 273q-10 0 -16.5 6.5t-6.5 16.5q0 9 6.5 15.5t16.5 6.5q9 0 15.5 -6.5t6.5 -15.5q0 -10 -6.5 -16.5t-15.5 -6.5z" />
    <glyph glyph-name="uni05C6" unicode="&#x5c6;" horiz-adv-x="350" 
d="M85 0v419q0 84 42 124.5t118 40.5h35v-27h-30q-66 0 -102.5 -32t-36.5 -109v-389h204v-27h-230z" />
    <glyph glyph-name="uni05AB" unicode="&#x5ab;" 
d="M125 647l-75 76l71 71h30l-71 -72l74 -75h-29z" />
    <glyph glyph-name="uni05C0" unicode="&#x5c0;" horiz-adv-x="535" 
d="M253 763h25v-1014h-25v1014z" />
    <glyph glyph-name="uni0599" unicode="&#x599;" 
d="M130 650q0 37 -17.5 57t-62.5 20v29q57 0 83 -28t26 -78h-29z" />
    <glyph glyph-name="uni05B7" unicode="&#x5b7;" 
d="M50 -107v25h148v-25h-148z" />
    <glyph glyph-name="uni05A1" unicode="&#x5a1;" 
d="M58 620v114h25v-26q0 -38 32 -38q17 0 24 9t7 29v26h25v-26q0 -32 -14 -46.5t-43 -15.5q-9 0 -17 2t-14 5v-33h-25z" />
    <glyph glyph-name="uni05E4" unicode="&#x5e4;" horiz-adv-x="574" 
d="M82 0v27h154q76 0 130.5 34.5t84 95.5t29.5 140q0 127 -53.5 198.5t-151.5 71.5q-82 0 -128.5 -47t-46.5 -121q0 -59 28 -101t89 -48q8 -1 13.5 -1.5t9.5 -0.5l-1 -28q-5 0 -12 0.5t-19 1.5q-73 9 -107.5 57t-34.5 120q0 57 25.5 101t72.5 69t111 25q114 0 176.5 -79
t62.5 -218q0 -87 -33.5 -154t-95.5 -105t-149 -38h-154z" />
    <glyph glyph-name="uniFB44" unicode="&#xfb44;" horiz-adv-x="574" 
d="M82 0v27h154q76 0 130.5 34.5t84 95.5t29.5 140q0 127 -53.5 198.5t-151.5 71.5q-82 0 -128.5 -47t-46.5 -121q0 -59 28 -101t89 -48q8 -1 13.5 -1.5t9.5 -0.5l-1 -28q-5 0 -12 0.5t-19 1.5q-73 9 -107.5 57t-34.5 120q0 57 25.5 101t72.5 69t111 25q114 0 176.5 -79
t62.5 -218q0 -87 -33.5 -154t-95.5 -105t-149 -38h-154zM338 247q-10 0 -16.5 6.5t-6.5 16.5q0 9 6.5 15.5t16.5 6.5q9 0 15.5 -6.5t6.5 -15.5q0 -10 -6.5 -16.5t-15.5 -6.5z" />
    <glyph glyph-name="uniFB4E" unicode="&#xfb4e;" horiz-adv-x="574" 
d="M82 0v27h154q76 0 130.5 34.5t84 95.5t29.5 140q0 127 -53.5 198.5t-151.5 71.5q-82 0 -128.5 -47t-46.5 -121q0 -59 28 -101t89 -48q8 -1 13.5 -1.5t9.5 -0.5l-1 -28q-5 0 -12 0.5t-19 1.5q-73 9 -107.5 57t-34.5 120q0 57 25.5 101t72.5 69t111 25q114 0 176.5 -79
t62.5 -218q0 -87 -33.5 -154t-95.5 -105t-149 -38h-154zM165 667v25h164v-25h-164z" />
    <glyph glyph-name="uni05A8" unicode="&#x5a8;" 
d="M130 650q0 37 -17.5 57t-62.5 20v29q57 0 83 -28t26 -78h-29z" />
    <glyph glyph-name="uni05B8" unicode="&#x5b8;" 
d="M112 -198v91h-62v25h149v-25h-62v-91h-25z" />
    <glyph glyph-name="uni05C7" unicode="&#x5c7;" 
d="M83 -161v54h-33v25h91v-25h-33v-54h-25z" />
    <glyph glyph-name="uni059F" unicode="&#x59f;" 
d="M232 650l-22 22l24 24q-8 13 -8 29q0 24 17 40.5t41 16.5t41 -16.5t17 -40.5t-16.5 -41t-41.5 -17q-16 0 -28 6zM160 650l-24 23q-12 -6 -28 -6q-25 0 -41.5 17t-16.5 41t17 40.5t41 16.5t41 -16.5t17 -40.5q0 -16 -8 -29l24 -24zM109 692q13 0 22.5 9.5t9.5 23.5
t-9.5 23.5t-22.5 9.5t-23.5 -10t-10.5 -23t10 -23t24 -10zM283 692q14 0 24 10t10 23t-10 23t-24 10q-13 0 -22.5 -9.5t-9.5 -23.5t9.5 -23.5t22.5 -9.5z" />
    <glyph glyph-name="uni05E7" unicode="&#x5e7;" horiz-adv-x="600" 
d="M338 0l180 557h-436l5 27h471l-8 -27l-180 -557h-32zM117 -198v593l32 5v-595z" />
    <glyph glyph-name="uniFB47" unicode="&#xfb47;" horiz-adv-x="600" 
d="M338 0l180 557h-436l5 27h471l-8 -27l-180 -557h-32zM117 -198v593l32 5v-595zM261 273q-10 0 -16.5 6.5t-6.5 16.5q0 9 6.5 15.5t16.5 6.5q9 0 15.5 -6.5t6.5 -15.5q0 -10 -6.5 -16.5t-15.5 -6.5z" />
    <glyph glyph-name="uni05BB" unicode="&#x5bb;" 
d="M72 -116q-10 0 -16.5 6.5t-6.5 16.5q0 9 6.5 15.5t16.5 6.5q9 0 15.5 -6.5t6.5 -15.5q0 -10 -6.5 -16.5t-15.5 -6.5zM130 -162q-10 0 -16.5 6.5t-6.5 16.5q0 9 6.5 15.5t16.5 6.5q9 0 15.5 -6.5t6.5 -15.5q0 -10 -6.5 -16.5t-15.5 -6.5zM188 -206q-10 0 -16.5 6.5
t-6.5 16.5q0 9 6.5 15.5t16.5 6.5q9 0 15.5 -6.5t6.5 -15.5q0 -10 -6.5 -16.5t-15.5 -6.5z" />
    <glyph glyph-name="uni05BF" unicode="&#x5bf;" 
d="M50 667v25h164v-25h-164z" />
    <glyph glyph-name="uni05E8" unicode="&#x5e8;" horiz-adv-x="505" 
d="M386 0v416q0 71 -33 106t-103 35h-207l5 27h207q80 0 121.5 -42t41.5 -123v-419h-32z" />
    <glyph glyph-name="uniFB48" unicode="&#xfb48;" horiz-adv-x="505" 
d="M386 0v416q0 71 -33 106t-103 35h-207l5 27h207q80 0 121.5 -42t41.5 -123v-419h-32zM197 273q-10 0 -16.5 6.5t-6.5 16.5q0 9 6.5 15.5t16.5 6.5q9 0 15.5 -6.5t6.5 -15.5q0 -10 -6.5 -16.5t-15.5 -6.5z" />
    <glyph glyph-name="uni0597" unicode="&#x597;" 
d="M93 650l-38 42l38 43l38 -43z" />
    <glyph glyph-name="uni05E1" unicode="&#x5e1;" horiz-adv-x="607" 
d="M310 -10q-113 0 -166.5 75t-53.5 230v13q0 67 18.5 131t44.5 113v10l46 10l-17 -20q-26 -53 -43 -121t-17 -136q0 -143 45.5 -211.5t142.5 -68.5q106 0 155.5 79.5t49.5 233.5q0 113 -38 171t-122 58h-305l5 27h304q98 0 143 -64t45 -189q0 -168 -57.5 -254.5
t-179.5 -86.5z" />
    <glyph glyph-name="uniFB41" unicode="&#xfb41;" horiz-adv-x="607" 
d="M310 -10q-113 0 -166.5 75t-53.5 230v13q0 67 18.5 131t44.5 113v10l46 10l-17 -20q-26 -53 -43 -121t-17 -136q0 -143 45.5 -211.5t142.5 -68.5q106 0 155.5 79.5t49.5 233.5q0 113 -38 171t-122 58h-305l5 27h304q98 0 143 -64t45 -189q0 -168 -57.5 -254.5
t-179.5 -86.5zM311 273q-10 0 -16.5 6.5t-6.5 16.5q0 9 6.5 15.5t16.5 6.5q9 0 15.5 -6.5t6.5 -15.5q0 -10 -6.5 -16.5t-15.5 -6.5z" />
    <glyph glyph-name="uni05B6" unicode="&#x5b6;" 
d="M72 -116q-10 0 -16.5 6.5t-6.5 16.5q0 9 6.5 15.5t16.5 6.5q9 0 15.5 -6.5t6.5 -15.5q0 -10 -6.5 -16.5t-15.5 -6.5zM168 -116q-10 0 -16.5 6.5t-6.5 16.5q0 9 6.5 15.5t16.5 6.5q9 0 15.5 -6.5t6.5 -15.5q0 -10 -6.5 -16.5t-15.5 -6.5zM119 -206q-10 0 -16.5 6.5
t-6.5 16.5q0 9 6.5 15.5t16.5 6.5q9 0 15.5 -6.5t6.5 -15.5q0 -10 -6.5 -16.5t-15.5 -6.5z" />
    <glyph glyph-name="uni0592" unicode="&#x592;" 
d="M120 744q-10 0 -16.5 6.5t-6.5 16.5q0 9 6.5 15.5t16.5 6.5q9 0 15.5 -6.5t6.5 -15.5q0 -10 -6.5 -16.5t-15.5 -6.5zM73 655q-10 0 -16.5 6.5t-6.5 16.5q0 9 6.5 15.5t16.5 6.5q9 0 15.5 -6.5t6.5 -15.5q0 -10 -6.5 -16.5t-15.5 -6.5zM168 655q-10 0 -16.5 6.5t-6.5 16.5
q0 9 6.5 15.5t16.5 6.5q9 0 15.5 -6.5t6.5 -15.5q0 -10 -6.5 -16.5t-15.5 -6.5z" />
    <glyph glyph-name="uni0593" unicode="&#x593;" 
d="M50 650l45 23l-40 23l40 23l-40 23l40 23h37l-40 -23l40 -23l-40 -23l40 -23l-46 -23h-36z" />
    <glyph glyph-name="uni20AA" unicode="&#x20aa;" horiz-adv-x="721" 
d="M263 0v434h26v-407h182q44 0 75 14t47.5 45t16.5 82v416h26v-419q0 -56 -19 -92.5t-54.5 -54.5t-86.5 -18h-213zM90 0v584h213q51 0 86.5 -18t54.5 -54.5t19 -92.5v-269h-26v266q0 77 -36.5 109t-102.5 32h-182v-557h-26z" />
    <glyph glyph-name="uni05B0" unicode="&#x5b0;" 
d="M71 -116q-10 0 -16.5 6.5t-6.5 16.5q0 9 6.5 15.5t16.5 6.5q9 0 15.5 -6.5t6.5 -15.5q0 -10 -6.5 -16.5t-15.5 -6.5zM71 -206q-10 0 -16.5 6.5t-6.5 16.5q0 9 6.5 15.5t16.5 6.5q9 0 15.5 -6.5t6.5 -15.5q0 -10 -6.5 -16.5t-15.5 -6.5z" />
    <glyph glyph-name="uni05E9" unicode="&#x5e9;" horiz-adv-x="674" 
d="M326 0q-84 0 -141 39.5t-86 113.5t-29 178v253h32v-256q0 -95 25.5 -163t75.5 -104t123 -36h15q76 0 127 36t77 104t26 163v256h32v-253q0 -104 -30 -178t-88 -113.5t-144 -39.5h-15zM96 224l-4 26q68 -3 119.5 20.5t80 71.5t28.5 116v126h32v-123q0 -57 -18.5 -102
t-52.5 -75.5t-81 -45.5t-104 -14z" />
    <glyph glyph-name="uniFB49" unicode="&#xfb49;" horiz-adv-x="674" 
d="M326 0q-84 0 -141 39.5t-86 113.5t-29 178v253h32v-256q0 -95 25.5 -163t75.5 -104t123 -36h15q76 0 127 36t77 104t26 163v256h32v-253q0 -104 -30 -178t-88 -113.5t-144 -39.5h-15zM96 224l-4 26q68 -3 119.5 20.5t80 71.5t28.5 116v126h32v-123q0 -57 -18.5 -102
t-52.5 -75.5t-81 -45.5t-104 -14zM426 190q-10 0 -16.5 6.5t-6.5 16.5q0 9 6.5 15.5t16.5 6.5q9 0 15.5 -6.5t6.5 -15.5q0 -10 -6.5 -16.5t-15.5 -6.5z" />
    <glyph glyph-name="uniFB2C" unicode="&#xfb2c;" horiz-adv-x="674" 
d="M326 0q-84 0 -141 39.5t-86 113.5t-29 178v253h32v-256q0 -95 25.5 -163t75.5 -104t123 -36h15q76 0 127 36t77 104t26 163v256h32v-253q0 -104 -30 -178t-88 -113.5t-144 -39.5h-15zM96 224l-4 26q68 -3 119.5 20.5t80 71.5t28.5 116v126h32v-123q0 -57 -18.5 -102
t-52.5 -75.5t-81 -45.5t-104 -14zM426 190q-10 0 -16.5 6.5t-6.5 16.5q0 9 6.5 15.5t16.5 6.5q9 0 15.5 -6.5t6.5 -15.5q0 -10 -6.5 -16.5t-15.5 -6.5zM589 655q-10 0 -16.5 6.5t-6.5 16.5q0 9 6.5 15.5t16.5 6.5q9 0 15.5 -6.5t6.5 -15.5q0 -10 -6.5 -16.5t-15.5 -6.5z" />
    <glyph glyph-name="uniFB2D" unicode="&#xfb2d;" horiz-adv-x="674" 
d="M326 0q-84 0 -141 39.5t-86 113.5t-29 178v253h32v-256q0 -95 25.5 -163t75.5 -104t123 -36h15q76 0 127 36t77 104t26 163v256h32v-253q0 -104 -30 -178t-88 -113.5t-144 -39.5h-15zM96 224l-4 26q68 -3 119.5 20.5t80 71.5t28.5 116v126h32v-123q0 -57 -18.5 -102
t-52.5 -75.5t-81 -45.5t-104 -14zM426 190q-10 0 -16.5 6.5t-6.5 16.5q0 9 6.5 15.5t16.5 6.5q9 0 15.5 -6.5t6.5 -15.5q0 -10 -6.5 -16.5t-15.5 -6.5zM88 656q-10 0 -16.5 6.5t-6.5 16.5q0 9 6.5 15.5t16.5 6.5q9 0 15.5 -6.5t6.5 -15.5q0 -10 -6.5 -16.5t-15.5 -6.5z" />
    <glyph glyph-name="uni05C1" unicode="&#x5c1;" 
d="M73 655q-10 0 -16.5 6.5t-6.5 16.5q0 9 6.5 15.5t16.5 6.5q9 0 15.5 -6.5t6.5 -15.5q0 -10 -6.5 -16.5t-15.5 -6.5z" />
    <glyph glyph-name="uniFB2A" unicode="&#xfb2a;" horiz-adv-x="674" 
d="M326 0q-84 0 -141 39.5t-86 113.5t-29 178v253h32v-256q0 -95 25.5 -163t75.5 -104t123 -36h15q76 0 127 36t77 104t26 163v256h32v-253q0 -104 -30 -178t-88 -113.5t-144 -39.5h-15zM96 224l-4 26q68 -3 119.5 20.5t80 71.5t28.5 116v126h32v-123q0 -57 -18.5 -102
t-52.5 -75.5t-81 -45.5t-104 -14zM589 655q-10 0 -16.5 6.5t-6.5 16.5q0 9 6.5 15.5t16.5 6.5q9 0 15.5 -6.5t6.5 -15.5q0 -10 -6.5 -16.5t-15.5 -6.5z" />
    <glyph glyph-name="uniFB2B" unicode="&#xfb2b;" horiz-adv-x="674" 
d="M326 0q-84 0 -141 39.5t-86 113.5t-29 178v253h32v-256q0 -95 25.5 -163t75.5 -104t123 -36h15q76 0 127 36t77 104t26 163v256h32v-253q0 -104 -30 -178t-88 -113.5t-144 -39.5h-15zM96 224l-4 26q68 -3 119.5 20.5t80 71.5t28.5 116v126h32v-123q0 -57 -18.5 -102
t-52.5 -75.5t-81 -45.5t-104 -14zM88 656q-10 0 -16.5 6.5t-6.5 16.5q0 9 6.5 15.5t16.5 6.5q9 0 15.5 -6.5t6.5 -15.5q0 -10 -6.5 -16.5t-15.5 -6.5z" />
    <glyph glyph-name="uni05BD" unicode="&#x5bd;" 
d="M50 -211v145h25v-145h-25z" />
    <glyph glyph-name="uni05C2" unicode="&#x5c2;" 
d="M72 656q-10 0 -16.5 6.5t-6.5 16.5q0 9 6.5 15.5t16.5 6.5q9 0 15.5 -6.5t6.5 -15.5q0 -10 -6.5 -16.5t-15.5 -6.5z" />
    <glyph glyph-name="uni05C3" unicode="&#x5c3;" horiz-adv-x="220" 
d="M85 23q0 12 5 21.5t20 9.5q18 0 22.5 -9.5t4.5 -21.5q0 -13 -4.5 -22t-22.5 -9q-15 0 -20 9t-5 22zM85 501q0 12 5 21.5t20 9.5q18 0 22.5 -9.5t4.5 -21.5q0 -13 -4.5 -22t-22.5 -9q-15 0 -20 9t-5 22z" />
    <glyph glyph-name="space" unicode=" " horiz-adv-x="270" 
 />
    <glyph glyph-name="uni05EA" unicode="&#x5ea;" horiz-adv-x="648" 
d="M531 0v416q0 71 -33 106t-103 35h-240v27h245q80 0 121.5 -42t41.5 -123v-419h-32zM35 0l5 27h36q28 0 45 11.5t25.5 35t8.5 60.5v438h32v-452q0 -57 -29 -88.5t-82 -31.5h-41zM60 557l5 27h95v-27h-100z" />
    <glyph glyph-name="uniFB4A" unicode="&#xfb4a;" horiz-adv-x="648" 
d="M531 0v416q0 71 -33 106t-103 35h-240v27h245q80 0 121.5 -42t41.5 -123v-419h-32zM35 0l5 27h36q28 0 45 11.5t25.5 35t8.5 60.5v438h32v-452q0 -57 -29 -88.5t-82 -31.5h-41zM60 557l5 27h95v-27h-100zM353 273q-10 0 -16.5 6.5t-6.5 16.5q0 9 6.5 15.5t16.5 6.5
q9 0 15.5 -6.5t6.5 -15.5q0 -10 -6.5 -16.5t-15.5 -6.5z" />
    <glyph glyph-name="uni05A0" unicode="&#x5a0;" 
d="M72 650l-22 22l24 24q-8 13 -8 29q0 24 17 40.5t41 16.5t41 -16.5t17 -40.5t-16.5 -41t-41.5 -17q-7 0 -14.5 1.5t-13.5 4.5zM123 692q14 0 24 10t10 23t-10 23t-24 10q-13 0 -22.5 -9.5t-9.5 -23.5t9.5 -23.5t22.5 -9.5z" />
    <glyph glyph-name="uni05A9" unicode="&#x5a9;" 
d="M160 650l-24 23q-6 -3 -13 -4.5t-15 -1.5q-25 0 -41.5 17t-16.5 41t17 40.5t41 16.5t41 -16.5t17 -40.5q0 -16 -8 -29l24 -24zM109 692q13 0 22.5 9.5t9.5 23.5t-9.5 23.5t-22.5 9.5t-23.5 -10t-10.5 -23t10 -23t24 -10z" />
    <glyph glyph-name="uni05D8" unicode="&#x5d8;" horiz-adv-x="607" 
d="M300 -10q-109 0 -169.5 83.5t-60.5 246.5v264h32v-264q0 -150 52.5 -227.5t145.5 -77.5q101 0 158 77.5t57 227.5q0 117 -33.5 180t-116.5 60q-21 -1 -42 -3.5t-42 -6.5v27q22 4 44 6.5t44 3.5q98 3 138 -67t40 -200q0 -163 -65 -246.5t-182 -83.5z" />
    <glyph glyph-name="uniFB38" unicode="&#xfb38;" horiz-adv-x="607" 
d="M300 -10q-109 0 -169.5 83.5t-60.5 246.5v264h32v-264q0 -150 52.5 -227.5t145.5 -77.5q101 0 158 77.5t57 227.5q0 117 -33.5 180t-116.5 60q-21 -1 -42 -3.5t-42 -6.5v27q22 4 44 6.5t44 3.5q98 3 138 -67t40 -200q0 -163 -65 -246.5t-182 -83.5zM300 293
q-10 0 -16.5 6.5t-6.5 16.5q0 9 6.5 15.5t16.5 6.5q9 0 15.5 -6.5t6.5 -15.5q0 -10 -6.5 -16.5t-15.5 -6.5z" />
    <glyph glyph-name="uni059B" unicode="&#x59b;" 
d="M50 -188v29q45 0 62.5 20t17.5 57h29q0 -50 -26 -78t-83 -28zM74 -123q-9 0 -15.5 6.5t-6.5 16.5t6.5 16.5t15.5 6.5q10 0 16.5 -6.5t6.5 -16.5t-6.5 -16.5t-16.5 -6.5z" />
    <glyph glyph-name="uni0596" unicode="&#x596;" 
d="M159 -188q-57 0 -83 28t-26 78h29q0 -37 17.5 -57t62.5 -20v-29z" />
    <glyph glyph-name="uni05E6" unicode="&#x5e6;" horiz-adv-x="520" 
d="M425 8l-363 576h37l212 -339l137 -218zM45 0v27h386h17l-6 -27h-397zM296 228l-10 27q36 14 60.5 45t39.5 69.5t22.5 74.5t10.5 60l9 80h32l-9 -88q-3 -25 -12 -63.5t-26.5 -79.5t-46 -75t-70.5 -50z" />
    <glyph glyph-name="uniFB46" unicode="&#xfb46;" horiz-adv-x="520" 
d="M425 8l-363 576h37l212 -339l137 -218zM45 0v27h386h17l-6 -27h-397zM296 228l-10 27q36 14 60.5 45t39.5 69.5t22.5 74.5t10.5 60l9 80h32l-9 -88q-3 -25 -12 -63.5t-26.5 -79.5t-46 -75t-70.5 -50zM162 143q-10 0 -16.5 6.5t-6.5 16.5q0 9 6.5 15.5t16.5 6.5
q9 0 15.5 -6.5t6.5 -15.5q0 -10 -6.5 -16.5t-15.5 -6.5z" />
    <glyph glyph-name="uni05B5" unicode="&#x5b5;" 
d="M71 -116q-10 0 -16.5 6.5t-6.5 16.5q0 9 6.5 15.5t16.5 6.5q9 0 15.5 -6.5t6.5 -15.5q0 -10 -6.5 -16.5t-15.5 -6.5zM159 -116q-10 0 -16.5 6.5t-6.5 16.5q0 9 6.5 15.5t16.5 6.5q9 0 15.5 -6.5t6.5 -15.5q0 -10 -6.5 -16.5t-15.5 -6.5z" />
    <glyph glyph-name="uni200C" unicode="&#x200c;" 
d="M18 679v-724h-36v724h36z" />
    <glyph glyph-name="uni200D" unicode="&#x200d;" 
d="M18 -45h-36v578l-65 -66l-24 24l84 82l-84 82l24 24l83 -83l83 83l24 -24l-84 -82l84 -82l-24 -24l-65 66v-578z" />
    <glyph glyph-name="uni200E" unicode="&#x200e;" 
d="M210 574l-106 -104l-24 24l67 63h-130v-602h-35v637h165l-67 63l24 24z" />
    <glyph glyph-name="uni200F" unicode="&#x200f;" 
d="M17 -45h-35v602h-129l66 -63l-23 -24l-106 104l106 105l23 -24l-66 -63h164v-637z" />
    <glyph glyph-name="uni25CC" unicode="&#x25cc;" horiz-adv-x="594" 
d="M480 448q0 -26 -25 -26q-27 0 -27 26q0 27 27 27q25 0 25 -27zM408 496q0 -26 -25 -26q-28 0 -28 26q0 27 28 27q25 0 25 -27zM529 376q0 -27 -27 -27q-26 0 -26 27q0 26 27 26q26 0 26 -26zM546 291q0 -26 -25 -26q-27 0 -27 26t27 26q25 0 25 -26zM323 514
q0 -27 -26 -27t-26 27q0 26 26 26t26 -26zM239 496q0 -26 -27 -26q-26 0 -26 26q0 27 26 27q27 0 27 -27zM529 206q0 -26 -27 -26q-26 0 -26 26q0 27 26 27q27 0 27 -27zM167 448q0 -26 -27 -26q-26 0 -26 25q0 28 26 28q27 0 27 -27zM480 133q0 -26 -25 -26q-27 0 -27 26
q0 27 27 27q25 0 25 -27zM408 85q0 -25 -25 -25q-28 0 -28 25q0 27 28 27q25 0 25 -27zM118 376q0 -27 -25 -27q-28 0 -28 27q0 26 27 26q26 0 26 -26zM101 291q0 -26 -26 -26q-27 0 -27 26t27 26q26 0 26 -26zM323 69q0 -27 -26 -27t-26 27q0 26 26 26t26 -26zM118 206
q0 -26 -26 -26q-27 0 -27 26q0 27 27 27q26 0 26 -27zM239 87q0 -27 -27 -27q-26 0 -26 25q0 27 26 27q27 0 27 -25zM167 133q0 -26 -27 -26q-26 0 -26 26q0 27 26 27q27 0 27 -27z" />
    <glyph glyph-name="uni05C4" unicode="&#x5c4;" 
d="M72 656q-10 0 -16.5 6.5t-6.5 16.5q0 9 6.5 15.5t16.5 6.5q9 0 15.5 -6.5t6.5 -15.5q0 -10 -6.5 -16.5t-15.5 -6.5z" />
    <glyph glyph-name="uni05D5" unicode="&#x5d5;" horiz-adv-x="264" 
d="M140 0v584h32v-584h-32zM40 557l5 27h115v-27h-120z" />
    <glyph glyph-name="uniFB35" unicode="&#xfb35;" horiz-adv-x="264" 
d="M140 0v584h32v-584h-32zM40 557l5 27h115v-27h-120zM45 273q-10 0 -16.5 6.5t-6.5 16.5q0 9 6.5 15.5t16.5 6.5q9 0 15.5 -6.5t6.5 -15.5q0 -10 -6.5 -16.5t-15.5 -6.5z" />
    <glyph glyph-name="uniFB4B" unicode="&#xfb4b;" horiz-adv-x="264" 
d="M140 0v584h32v-584h-32zM40 557l5 27h115v-27h-120zM156 656q-10 0 -16.5 6.5t-6.5 16.5q0 9 6.5 15.5t16.5 6.5q9 0 15.5 -6.5t6.5 -15.5q0 -10 -6.5 -16.5t-15.5 -6.5z" />
    <glyph glyph-name="uni05F0" unicode="&#x5f0;" horiz-adv-x="508" 
d="M394 0v584h32v-584h-32zM294 557l5 27h115v-27h-120zM140 0v584h32v-584h-32zM40 557l5 27h115v-27h-120z" />
    <glyph glyph-name="uni05F1" unicode="&#x5f1;" horiz-adv-x="501" 
d="M387 0v584h32v-584h-32zM287 557l5 27h115v-27h-120zM140 270v314h32v-314h-32zM40 557l5 27h115v-27h-120z" />
    <glyph glyph-name="uniFB21" unicode="&#xfb21;" horiz-adv-x="683" 
d="M608 0q-56 75 -119.5 148.5l-124 139l-108.5 113.5l-64.5 65.5l-48.5 48.5l-38 37.5l-33 31.5h38l32.5 -32l37 -36l47.5 -47l64 -64q49 -49 109.5 -115.5l124.5 -141t120 -148.5h-37zM36 0l31 191q8 46 20 84.5t30.5 69.5t45 56t61.5 45l15 -22q-43 -24 -71 -57
t-44 -75.5t-25 -97.5l-31 -194h-32zM445 228l-15 22q43 24 73.5 56t49 74.5t24.5 97.5l10 106h32l-10 -103q-6 -62 -27 -109t-55.5 -82t-81.5 -62z" />
    <glyph glyph-name="uniFB22" unicode="&#xfb22;" horiz-adv-x="632" 
d="M471 0v509q0 10 1.5 19.5t4.5 17.5t7 11h24q-2 -7 -3.5 -20.5t-1.5 -27.5v-509h-32zM25 557v27h573l-5 -27h-568z" />
    <glyph glyph-name="uniFB23" unicode="&#xfb23;" horiz-adv-x="766" 
d="M649 0v416q0 77 -33.5 109t-99.5 32h-471l5 27h471q76 0 118 -40.5t42 -124.5v-419h-32zM69 0v350l32 5v-355h-32z" />
    <glyph glyph-name="uniFB24" unicode="&#xfb24;" horiz-adv-x="650" 
d="M32 0v27h339q101 0 152.5 67.5t51.5 197.5q0 131 -51.5 198t-152.5 67h-339l5 27h334q117 0 177.5 -74t60.5 -218t-60.5 -218t-177.5 -74h-339z" />
    <glyph glyph-name="uniFB25" unicode="&#xfb25;" horiz-adv-x="601" 
d="M345 0l190 557h-525v198l26 5v-176h525v-27l-190 -557h-26z" />
    <glyph glyph-name="uniFB27" unicode="&#xfb27;" horiz-adv-x="637" 
d="M569 0v416q0 77 -33.5 109t-99.5 32h-391l5 27h391q76 0 118 -40.5t42 -124.5v-419h-32z" />
    <glyph glyph-name="uniFB28" unicode="&#xfb28;" horiz-adv-x="782" 
d="M736 0v416q0 71 -33 106t-103 35h-440v27h445q80 0 121.5 -42t41.5 -123v-419h-32zM40 0l5 27h36q41 0 60 26t19 81v438h32v-452q0 -57 -29 -88.5t-82 -31.5h-41zM70 557l5 27h95v-27h-100z" />
    <glyph glyph-name="uni05AA" unicode="&#x5aa;" 
d="M101 -202v42q-22 4 -32.5 18.5t-10.5 42.5v17h25v-17q0 -20 7.5 -29t24.5 -9t24 9t7 29v17h25v-17q0 -28 -10.5 -42.5t-33.5 -18.5v-42h-26z" />
    <glyph glyph-name="uni059A" unicode="&#x59a;" 
d="M125 -229l-75 76l71 71h30l-71 -72l74 -75h-29z" />
    <glyph glyph-name="uni05D9" unicode="&#x5d9;" horiz-adv-x="257" 
d="M140 270v314h32v-314h-32zM40 557l5 27h115v-27h-120z" />
    <glyph glyph-name="uniFB39" unicode="&#xfb39;" horiz-adv-x="257" 
d="M140 270v314h32v-314h-32zM40 557l5 27h115v-27h-120zM50 404q-10 0 -16.5 6.5t-6.5 16.5q0 9 6.5 15.5t16.5 6.5q9 0 15.5 -6.5t6.5 -15.5q0 -10 -6.5 -16.5t-15.5 -6.5z" />
    <glyph glyph-name="uniFB1D" unicode="&#xfb1d;" horiz-adv-x="257" 
d="M140 270v314h32v-314h-32zM40 557l5 27h115v-27h-120zM154 125q-10 0 -16.5 6.5t-6.5 16.5q0 9 6.5 15.5t16.5 6.5q9 0 15.5 -6.5t6.5 -15.5q0 -10 -6.5 -16.5t-15.5 -6.5z" />
    <glyph glyph-name="uni05F2" unicode="&#x5f2;" horiz-adv-x="494" 
d="M387 270v314h32v-314h-32zM287 557l5 27h115v-27h-120zM140 270v314h32v-314h-32zM40 557l5 27h115v-27h-120z" />
    <glyph glyph-name="uniFB1F" unicode="&#xfb1f;" horiz-adv-x="514" 
d="M397 270v314h32v-314h-32zM297 557l5 27h115v-27h-120zM140 270v314h32v-314h-32zM40 557l5 27h115v-27h-120zM199 120v25h148v-25h-148z" />
    <glyph glyph-name="uni0595" unicode="&#x595;" 
d="M50 650v145h25v-145h-25zM132 744q-10 0 -16.5 6.5t-6.5 16.5q0 9 6.5 15.5t16.5 6.5q9 0 15.5 -6.5t6.5 -15.5q0 -10 -6.5 -16.5t-15.5 -6.5zM133 655q-10 0 -16.5 6.5t-6.5 16.5q0 9 6.5 15.5t16.5 6.5q9 0 15.5 -6.5t6.5 -15.5q0 -10 -6.5 -16.5t-15.5 -6.5z" />
    <glyph glyph-name="uni0594" unicode="&#x594;" 
d="M72 744q-10 0 -16.5 6.5t-6.5 16.5q0 9 6.5 15.5t16.5 6.5q9 0 15.5 -6.5t6.5 -15.5q0 -10 -6.5 -16.5t-15.5 -6.5zM73 655q-10 0 -16.5 6.5t-6.5 16.5q0 9 6.5 15.5t16.5 6.5q9 0 15.5 -6.5t6.5 -15.5q0 -10 -6.5 -16.5t-15.5 -6.5z" />
    <glyph glyph-name="uni0598" unicode="&#x598;" 
d="M81 650q-31 10 -31 45q0 19 11.5 30.5t30.5 11.5q14 0 25 -8t26 -28q11 -16 19 -23t17 -7q8 0 13.5 5.5t5.5 16.5q0 16 -17 24l8 21q31 -12 31 -45q0 -19 -11.5 -30.5t-29.5 -11.5q-14 0 -25.5 7.5t-26.5 27.5q-13 18 -19.5 24.5t-16.5 6.5q-8 0 -13.5 -5.5t-5.5 -16.5
q0 -17 17 -25z" />
    <glyph glyph-name="uni05D6" unicode="&#x5d6;" horiz-adv-x="289" 
d="M131 0l-12.5 104.5t-11.5 109t-8 97.5t-3 71q0 30 9.5 65t30.5 65t54 45h53q-49 -14 -73.5 -44t-33 -65t-8.5 -66q0 -27 3 -70.5t8 -96.5t11.5 -108.5l12.5 -106.5h-32zM45 557v27h203l-5 -27h-198z" />
    <glyph glyph-name="uniFB36" unicode="&#xfb36;" horiz-adv-x="289" 
d="M131 0l-12.5 104.5t-11.5 109t-8 97.5t-3 71q0 30 9.5 65t30.5 65t54 45h53q-49 -14 -73.5 -44t-33 -65t-8.5 -66q0 -27 3 -70.5t8 -96.5t11.5 -108.5l12.5 -106.5h-32zM45 557v27h203l-5 -27h-198zM26 273q-10 0 -16.5 6.5t-6.5 16.5q0 9 6.5 15.5t16.5 6.5
q9 0 15.5 -6.5t6.5 -15.5q0 -10 -6.5 -16.5t-15.5 -6.5z" />
    <glyph glyph-name="uni05AE" unicode="&#x5ae;" 
d="M81 650q-31 10 -31 45q0 19 11.5 30.5t30.5 11.5q14 0 25 -8t26 -28q11 -16 19 -23t17 -7q8 0 13.5 5.5t5.5 16.5q0 16 -17 24l8 21q31 -12 31 -45q0 -19 -11.5 -30.5t-29.5 -11.5q-14 0 -25.5 7.5t-26.5 27.5q-13 18 -19.5 24.5t-16.5 6.5q-8 0 -13.5 -5.5t-5.5 -16.5
q0 -17 17 -25z" />
  </font>
</defs>
</svg>
