<?xml version="1.0" standalone="no"?>
<!DOCTYPE svg PUBLIC "-//W3C//DTD SVG 1.1//EN" "http://www.w3.org/Graphics/SVG/1.1/DTD/svg11.dtd" >
<svg xmlns="http://www.w3.org/2000/svg" xmlns:xlink="http://www.w3.org/1999/xlink" version="1.1">
<metadata>
Created by FontForge 20190801 at Tue May 31 20:57:09 2016
 By www-data
Copyright 2016 Google Inc. All Rights Reserved.
</metadata>
<defs>
<font id="NotoSerifDevanagariRegular" horiz-adv-x="0" >
  <font-face 
    font-family="NotoSerifDevanagariRegular"
    font-weight="400"
    font-stretch="normal"
    units-per-em="2048"
    panose-1="2 2 5 2 4 5 4 2 2 4"
    ascent="1638"
    descent="-410"
    bbox="-1075 -1255 2647 2143"
    underline-thickness="102"
    underline-position="-205"
    unicode-range="U+000D-A8FB"
  />
<missing-glyph horiz-adv-x="1229" 
d="M193 1462h841v-1462h-841v1462zM930 104v1254h-633v-1254h633z" />
    <glyph glyph-name=".notdef" horiz-adv-x="1229" 
d="M193 1462h841v-1462h-841v1462zM930 104v1254h-633v-1254h633z" />
    <glyph glyph-name=".null" 
 />
    <glyph glyph-name="nonmarkingreturn" unicode="&#xd;" horiz-adv-x="532" 
 />
    <glyph glyph-name="NULL" 
 />
    <glyph glyph-name="NULL" 
 />
    <glyph glyph-name="space" unicode=" " horiz-adv-x="532" 
 />
    <glyph glyph-name="space" unicode="&#xa0;" horiz-adv-x="532" 
 />
    <glyph glyph-name="exclam" unicode="!" horiz-adv-x="682" 
d="M221 1462h238l-72 -1050h-94zM211 125q0 139 129 139t129 -139t-129 -139t-129 139z" />
    <glyph glyph-name="quotedbl" unicode="&#x22;" horiz-adv-x="836" 
d="M117 1462h217l-62 -481h-94zM502 1462h217l-62 -481h-94z" />
    <glyph glyph-name="numbersign" unicode="#" horiz-adv-x="1145" 
d="M240 416h-189v121h211l78 401h-223v121h245l74 403h125l-76 -403h285l76 403h123l-76 -403h201v-121h-224l-75 -401h233v-121h-258l-78 -416h-123l78 416h-285l-77 -416h-123zM672 537l76 401h-285l-76 -401h285z" />
    <glyph glyph-name="percent" unicode="%" horiz-adv-x="1835" 
d="M92 1030q0 214 83 333.5t255 119.5q164 0 249 -121t85 -332q0 -212 -85.5 -334.5t-250.5 -122.5q-170 0 -253 121.5t-83 335.5zM1212 1462h134l-730 -1462h-135zM578 1030q0 183 -34 275t-114 92q-82 0 -118 -93t-36 -274q0 -184 36 -278.5t116 -94.5q81 0 115.5 94
t34.5 279zM1071 436q0 215 82.5 334t255.5 119q164 0 249 -121t85 -332t-85.5 -333.5t-250.5 -122.5q-171 0 -253.5 121t-82.5 335zM1556 436q0 183 -33.5 275t-113.5 92q-82 0 -118 -93t-36 -274q0 -184 36 -278.5t116 -94.5q81 0 115 93.5t34 279.5z" />
    <glyph glyph-name="quotesingle" unicode="'" horiz-adv-x="451" 
d="M117 1462h217l-62 -481h-94z" />
    <glyph glyph-name="parenleft" unicode="(" horiz-adv-x="709" 
d="M117 649q0 374 122.5 584.5t403.5 322.5v-92q-132 -80 -201 -205t-90.5 -271t-21.5 -339q0 -192 21.5 -339t90.5 -272.5t201 -205.5v-94q-279 111 -402.5 323.5t-123.5 587.5z" />
    <glyph glyph-name="parenright" unicode=")" horiz-adv-x="709" 
d="M66 -168q132 80 200.5 206t90.5 272.5t22 338.5t-22 338.5t-90.5 271.5t-200.5 205v92q279 -111 402.5 -322t123.5 -585q0 -373 -123.5 -586.5t-402.5 -324.5v94z" />
    <glyph glyph-name="asterisk" unicode="*" horiz-adv-x="1024" 
d="M469 1098l-313 -195l-72 160l344 102l-344 103l72 162l315 -199l-53 325h178l-57 -323l317 192l72 -159l-346 -101l346 -100l-72 -158l-317 191l57 -324h-178z" />
    <glyph glyph-name="plus" unicode="+" horiz-adv-x="1145" 
d="M510 672h-377v121h377v378h123v-378h379v-121h-379v-379h-123v379z" />
    <glyph glyph-name="comma" unicode="," horiz-adv-x="512" 
d="M61 -229q195 63 195 184q0 25 -15.5 39t-47.5 32q-54 30 -70.5 56t-16.5 61q0 57 37.5 89t96.5 32q68 0 112.5 -49t44.5 -129q0 -140 -81 -245t-255 -156v86z" />
    <glyph glyph-name="hyphen" unicode="-" horiz-adv-x="635" 
d="M51 635h533v-154h-533v154z" />
    <glyph glyph-name="period" unicode="." horiz-adv-x="512" 
d="M127 125q0 139 129 139t129 -139t-129 -139t-129 139z" />
    <glyph glyph-name="slash" unicode="/" horiz-adv-x="590" 
d="M471 1556h119l-469 -1804h-121z" />
    <glyph glyph-name="zero" unicode="0" horiz-adv-x="1145" 
d="M92 735q0 354 118.5 551t364.5 197q229 0 353.5 -195.5t124.5 -554.5q0 -360 -126 -556.5t-354 -196.5q-244 0 -362.5 200t-118.5 555zM840 733q0 318 -61 478.5t-204 160.5q-145 0 -207.5 -160.5t-62.5 -478.5t62.5 -480.5t205.5 -162.5q144 0 205.5 162t61.5 481z" />
    <glyph glyph-name="one" unicode="1" horiz-adv-x="1145" 
d="M197 86h137q96 0 132 35.5t36 111.5v1076q-92 -111 -150 -162t-114 -51q-45 0 -74 30.5t-29 79.5q66 17 134.5 52t164.5 106l144 106h131v-1237q0 -76 36.5 -111.5t131.5 -35.5h100v-86h-780v86z" />
    <glyph glyph-name="two" unicode="2" horiz-adv-x="1145" 
d="M104 150l342 395q169 197 230 318.5t61 256.5q0 121 -52 190.5t-157 69.5q-128 0 -176.5 -82t-48.5 -223q-82 0 -129 30t-47 103q0 127 107 201t294 74q192 0 304 -93t112 -249q0 -117 -69.5 -244t-272.5 -350l-346 -383h473q59 0 94 21t52.5 56.5t33.5 112.5h86
l-10 -354h-881v150z" />
    <glyph glyph-name="three" unicode="3" horiz-adv-x="1145" 
d="M119 207q0 61 35 96t94 35q0 -113 71 -180.5t189 -67.5q135 0 220 79t85 251q0 131 -100 208t-271 77h-65v104h65q142 0 232 89t90 228q0 254 -219 254q-129 0 -177.5 -82t-48.5 -223q-82 0 -129 30t-47 103q0 127 108 201t294 74q199 0 314.5 -87.5t115.5 -238.5
q0 -135 -91.5 -239t-236.5 -138q184 -20 281.5 -115t97.5 -247q0 -155 -77 -253t-195.5 -141.5t-247.5 -43.5q-180 0 -283.5 61t-103.5 166z" />
    <glyph glyph-name="four" unicode="4" horiz-adv-x="1145" 
d="M440 86h58q96 0 132 35.5t36 111.5v168h-631v84l633 977h194v-946h254v-115h-254v-168q0 -76 36.5 -111.5t131.5 -35.5h27v-86h-617v86zM666 516v379q0 248 14 424q-20 -40 -83.5 -149t-100.5 -166l-314 -488h484z" />
    <glyph glyph-name="five" unicode="5" horiz-adv-x="1145" 
d="M113 186q0 121 129 121q0 -95 66.5 -151t180.5 -56q293 0 293 346q0 158 -83 239t-228 81q-94 0 -148 -11.5t-104 -33.5l-49 14l66 725h684l10 -309h-86l-8 61q-7 51 -30 67.5t-81 16.5h-397l-39 -450q97 33 239 33q216 0 341.5 -116.5t125.5 -316.5q0 -214 -133 -340
t-362 -126q-181 0 -284 54.5t-103 151.5z" />
    <glyph glyph-name="six" unicode="6" horiz-adv-x="1145" 
d="M125 737q0 201 59.5 371t180 272.5t294.5 102.5q152 0 245 -60t93 -155q0 -59 -40.5 -91t-116.5 -32q0 108 -43.5 173.5t-137.5 65.5q-302 0 -323 -602q128 107 293 107q189 0 300 -113t111 -307q0 -225 -119 -357t-321 -132q-231 0 -353 197t-122 560zM831 449
q0 335 -243 335q-74 0 -140 -34.5t-114 -83.5q6 -574 272 -574q225 0 225 357z" />
    <glyph glyph-name="seven" unicode="7" horiz-adv-x="1145" 
d="M872 1296h-538q-110 0 -119 -104l-8 -102h-86l10 370h916v-59l-504 -1401h-154z" />
    <glyph glyph-name="eight" unicode="8" horiz-adv-x="1145" 
d="M94 367q0 93 39 161t105 116t168 97q-126 71 -195.5 162t-69.5 213q0 100 46.5 183t146 133.5t250.5 50.5q184 0 293.5 -96.5t109.5 -256.5q0 -109 -57.5 -187t-218.5 -159q164 -78 252 -172.5t88 -220.5q0 -191 -131.5 -301t-360.5 -110q-213 0 -339 105t-126 282z
M805 1135q0 118 -62 184.5t-172 66.5q-109 0 -173 -66.5t-64 -178.5q0 -97 58.5 -166.5t217.5 -143.5q107 53 151 119.5t44 184.5zM864 346q0 105 -82 183t-278 163q-211 -114 -211 -334q0 -131 71 -207.5t205 -76.5q131 0 213 75t82 197z" />
    <glyph glyph-name="nine" unicode="9" horiz-adv-x="1145" 
d="M168 154q0 36 18.5 63t42.5 35q70 -162 238 -162t249.5 150t92.5 462q-50 -61 -126 -100t-175 -39q-191 0 -297.5 110.5t-106.5 305.5q0 228 120 366t319 138q230 0 353.5 -180.5t123.5 -507.5q0 -226 -58 -411t-182.5 -296t-314.5 -111q-160 0 -228.5 51t-68.5 126z
M811 850q-4 264 -75 392t-193 128q-109 0 -168.5 -96t-59.5 -275q0 -166 58.5 -240.5t179.5 -74.5q94 1 161 48t97 118z" />
    <glyph glyph-name="colon" unicode=":" horiz-adv-x="586" 
d="M166 969q0 139 129 139t129 -139q0 -140 -129 -140t-129 140zM166 125q0 139 129 139t129 -139t-129 -139t-129 139z" />
    <glyph glyph-name="semicolon" unicode=";" horiz-adv-x="586" 
d="M166 969q0 139 129 139t129 -139q0 -140 -129 -140t-129 140zM98 -229q195 63 195 184q0 25 -15.5 39t-47.5 32q-54 31 -70.5 56.5t-16.5 60.5q0 57 37.5 89t95.5 32q70 0 114 -49.5t44 -128.5q0 -140 -81 -245t-255 -156v86z" />
    <glyph glyph-name="less" unicode="&#x3c;" horiz-adv-x="1145" 
d="M133 696v72l879 473v-137l-688 -373l688 -369v-137z" />
    <glyph glyph-name="equal" unicode="=" horiz-adv-x="1145" 
d="M133 993h879v-121h-879v121zM133 590h879v-121h-879v121z" />
    <glyph glyph-name="greater" unicode="&#x3e;" horiz-adv-x="1145" 
d="M133 362l688 369l-688 373v137l879 -473v-72l-879 -471v137z" />
    <glyph glyph-name="question" unicode="?" horiz-adv-x="1024" 
d="M397 723q167 67 240.5 178t73.5 246q0 111 -55 173t-169 62q-120 0 -174.5 -72.5t-54.5 -189.5q-76 0 -123 34.5t-47 98.5q0 109 100 169.5t283 60.5q203 0 326 -102t123 -269q0 -163 -100 -275t-298 -194v-231h-125v311zM328 125q0 139 129 139t129 -139
q0 -74 -36 -106.5t-93 -32.5q-129 0 -129 139z" />
    <glyph glyph-name="bracketleft" unicode="[" horiz-adv-x="737" 
d="M205 1556h457v-86h-89q-95 0 -131 -35.5t-36 -111.5v-1352q0 -75 36 -111t131 -36h89v-86h-457v1818z" />
    <glyph glyph-name="backslash" unicode="\" horiz-adv-x="590" 
d="M0 1556h119l471 -1804h-121z" />
    <glyph glyph-name="bracketright" unicode="]" horiz-adv-x="737" 
d="M76 -176h88q96 0 132 35.5t36 111.5v1352q0 76 -36.5 111.5t-131.5 35.5h-88v86h456v-1818h-456v86z" />
    <glyph glyph-name="asciicircum" unicode="^" horiz-adv-x="1145" 
d="M535 1462h71l432 -917h-137l-332 729l-327 -729h-138z" />
    <glyph glyph-name="underscore" unicode="_" horiz-adv-x="940" 
d="M-10 -170h960v-121h-960v121z" />
    <glyph glyph-name="braceleft" unicode="{" horiz-adv-x="877" 
d="M344 33v356q0 117 -63.5 164.5t-178.5 52.5v86q114 3 178 51t64 164v357q0 140 75.5 216t219.5 76h135v-88h-61q-89 0 -128.5 -53t-39.5 -162v-350q0 -102 -58 -168t-170 -84v-2q115 -19 171.5 -84.5t56.5 -169.5v-354q0 -107 40 -161t128 -54h61v-88h-135
q-142 0 -218.5 79t-76.5 216z" />
    <glyph glyph-name="bar" unicode="|" horiz-adv-x="1145" 
d="M510 1556h123v-2048h-123v2048z" />
    <glyph glyph-name="braceright" unicode="}" horiz-adv-x="877" 
d="M102 -174h62q88 0 128 54t40 161v354q0 104 56.5 169.5t170.5 84.5v2q-111 18 -169 84t-58 168v350q0 109 -39.5 162t-128.5 53h-62v88h136q143 0 218.5 -76t75.5 -216v-357q0 -116 64.5 -164t177.5 -51v-86q-114 -5 -178 -52.5t-64 -164.5v-356q0 -137 -76 -216
t-218 -79h-136v88z" />
    <glyph glyph-name="asciitilde" unicode="~" horiz-adv-x="1145" 
d="M360 909q67 0 122 -31t134 -104q57 -52 93.5 -77t74.5 -25q54 0 82.5 58.5t42.5 178.5h123q-17 -150 -69.5 -254t-180.5 -104q-67 0 -124 33t-121 96q-61 58 -97.5 83t-79.5 25q-58 0 -87.5 -57t-41.5 -180h-120q14 155 66.5 256.5t182.5 101.5z" />
    <glyph glyph-name="macron" unicode="&#xaf;" horiz-adv-x="940" 
d="M-10 1677h960v-121h-960v121z" />
    <glyph glyph-name="multiply" unicode="&#xd7;" horiz-adv-x="1145" 
d="M145 395l340 340l-340 338l86 86l340 -340l340 342l86 -88l-340 -340l340 -340l-86 -86l-340 340l-340 -340z" />
    <glyph glyph-name="divide" unicode="&#xf7;" horiz-adv-x="1145" 
d="M469 1120q0 113 104 113q105 0 105 -113q0 -112 -105 -112q-104 0 -104 112zM133 793h879v-121h-879v121zM469 344q0 113 104 113q105 0 105 -113q0 -59 -29 -86t-76 -27q-104 0 -104 113z" />
    <glyph glyph-name="uni02BC" unicode="&#x2bc;" horiz-adv-x="512" 
d="M61 969q195 63 195 184q0 25 -15 39t-48 33q-42 22 -64.5 46.5t-22.5 69.5q0 57 37.5 89t96.5 32q68 0 112.5 -49t44.5 -129q0 -140 -81 -245t-255 -156v86z" />
    <glyph glyph-name="dvCandrabinduinverted" unicode="&#x900;" 
d="M145 1475l-72 -25q-87 252 -310 252q-218 0 -266 -273l-134 36q30 171 131.5 267t255.5 96q82 0 163.5 -41.5t143.5 -121.5t88 -190zM-141 1496q0 -95 -88 -95q-87 0 -87 95q0 94 87 94q88 0 88 -94z" />
    <glyph glyph-name="dvCandrabindu" unicode="&#x901;" 
d="M-351 1733q0 95 88 95q87 0 87 -95q0 -94 -87 -94q-88 0 -88 94zM-637 1754l72 25q87 -252 310 -252q218 0 266 273l134 -36q-30 -171 -131.5 -267t-255.5 -96q-82 0 -163.5 41.5t-143.5 121.5t-88 190z" />
    <glyph glyph-name="dvAnusvara" unicode="&#x902;" 
d="M-342 1581q0 109 101 109q100 0 100 -109q0 -108 -100 -108q-101 0 -101 108z" />
    <glyph glyph-name="dvVisarga" unicode="&#x903;" horiz-adv-x="502" 
d="M138 890q0 125 116 125q115 0 115 -125q0 -124 -115 -124q-116 0 -116 124zM138 235q0 125 116 125q115 0 115 -125q0 -124 -115 -124q-116 0 -116 124z" />
    <glyph glyph-name="dvAshort" unicode="&#x904;" horiz-adv-x="1382" 
d="M1449 1142h-237v-1152h-19l-124 93v509q-61 -23 -122 -23q-119 0 -234 77q70 -95 70 -217q0 -114 -76.5 -183.5t-203.5 -69.5q-161 0 -283.5 131t-199.5 337l82 33q68 -170 158.5 -262t211.5 -92q77 0 128 48t51 119q0 61 -25 120.5t-71 100.5q-44 -18 -134 -45l-70 140
q177 46 246 94.5t69 119.5q0 58 -38.5 91t-98.5 33q-105 0 -255 -68l-75 145q132 63 256 63q95 0 168.5 -51.5t113 -124.5t39.5 -147q0 -71 -34 -122.5t-109 -91.5q110 -50 218 -50q129 0 218 69v376h-171l-77 112v20h305q-26 124 -64.5 173t-112.5 49l-154 -5
q-108 1 -179 70.5t-116 225.5l73 23q21 -73 60 -114t109 -41l178 7q119 0 182.5 -93t97.5 -295h172l77 -112v-20z" />
    <glyph glyph-name="dvA" unicode="&#x905;" horiz-adv-x="1382" 
d="M1449 1142h-237v-1152h-19l-124 93v509q-61 -23 -122 -23q-119 0 -234 77q70 -95 70 -217q0 -114 -76.5 -183.5t-203.5 -69.5q-161 0 -283.5 131t-199.5 337l82 33q68 -170 158.5 -262t211.5 -92q77 0 128 48t51 119q0 61 -25 120.5t-71 100.5q-44 -18 -134 -45l-70 140
q177 46 246 94.5t69 119.5q0 58 -38.5 91t-98.5 33q-105 0 -255 -68l-75 145q132 63 256 63q95 0 168.5 -51.5t113 -124.5t39.5 -147q0 -71 -34 -122.5t-109 -91.5q110 -50 218 -50q129 0 218 69v376h-171l-77 112v20h551l77 -112v-20z" />
    <glyph glyph-name="dvAA" unicode="&#x906;" horiz-adv-x="1865" 
d="M1932 1142h-237v-1152h-19l-124 93v1059h-340v-1152h-19l-124 93v509q-61 -23 -122 -23q-119 0 -234 77q70 -95 70 -217q0 -114 -76.5 -183.5t-203.5 -69.5q-161 0 -283.5 131t-199.5 337l82 33q68 -170 158.5 -262t211.5 -92q77 0 128 48t51 119q0 61 -25 120.5
t-71 100.5q-44 -18 -134 -45l-70 140q177 46 246 94.5t69 119.5q0 58 -38.5 91t-98.5 33q-105 0 -255 -68l-75 145q132 63 256 63q95 0 168.5 -51.5t113 -124.5t39.5 -147q0 -71 -34 -122.5t-109 -91.5q110 -50 218 -50q129 0 218 69v376h-171l-77 112v20h1034l77 -112v-20z
" />
    <glyph glyph-name="dvI" unicode="&#x907;" horiz-adv-x="920" 
d="M222 672q0 -73 70 -120q65 40 132 59.5t119 19.5q89 0 150.5 -38t111.5 -114t50 -157q0 -133 -111 -218t-286 -87q124 -112 317 -196l-99 -118q-73 49 -160.5 137t-158.5 177q-110 5 -174 44.5t-64 100.5q0 40 27 62.5t72 22.5q86 0 164 -98q159 0 260 62t101 157
q0 61 -39 92.5t-97 31.5q-115 0 -266 -95q-108 65 -175 159.5t-67 183.5q0 104 75.5 161.5t215.5 57.5q67 0 177 -11v194h-577l-77 112v20h997l77 -112v-20h-275v-304q-103 9 -157 9q-173 0 -253 -48t-80 -127z" />
    <glyph glyph-name="dvII" unicode="&#x908;" horiz-adv-x="920" 
d="M222 672q0 -73 70 -120q65 40 132 59.5t119 19.5q89 0 150.5 -38t111.5 -114t50 -157q0 -133 -111 -218t-286 -87q124 -112 317 -196l-99 -118q-73 49 -160.5 137t-158.5 177q-110 5 -174 44.5t-64 100.5q0 40 27 62.5t72 22.5q86 0 164 -98q159 0 260 62t101 157
q0 61 -39 92.5t-97 31.5q-115 0 -266 -95q-108 65 -175 159.5t-67 183.5q0 104 75.5 161.5t215.5 57.5q67 0 177 -11v194h-577l-77 112v20h692q-69 91 -103 166t-34 156q0 98 61 158.5t160 60.5q156 0 249 -159l-41 -35q-61 59 -140 59q-71 0 -113 -44t-42 -120
q0 -111 84 -242h224l77 -112v-20h-275v-304q-103 9 -157 9q-173 0 -253 -48t-80 -127z" />
    <glyph glyph-name="dvU" unicode="&#x909;" horiz-adv-x="984" 
d="M1051 1142h-311q85 -102 85 -235q0 -138 -130 -230q88 -75 137.5 -168t49.5 -181q0 -136 -85 -217t-230 -81q-146 0 -287.5 126t-255.5 408l82 33q76 -170 182 -290t242 -120q96 0 153 52t57 138q0 72 -31 140t-86 118q-80 -39 -187 -62l-75 149q164 34 253 96.5
t89 152.5q0 98 -71 171h-642l-77 112v20h1061l77 -112v-20z" />
    <glyph glyph-name="dvUU" unicode="&#x90a;" horiz-adv-x="1394" 
d="M1461 1142h-721q85 -102 85 -235q0 -138 -130 -230q47 -39 83 -86q144 104 252 104q81 0 153 -49.5t111.5 -123t39.5 -156.5q0 -79 -49.5 -182t-123.5 -185l-138 86q87 88 139 184.5t52 188.5q0 48 -29.5 80t-86.5 32q-59 0 -116.5 -28t-127.5 -79q28 -72 28 -135
q0 -136 -85 -217t-230 -81q-146 0 -287.5 126t-255.5 408l82 33q76 -170 182 -290t242 -120q96 0 153 52t57 138q0 72 -31 140t-86 118q-80 -39 -187 -62l-75 149q164 34 253 96.5t89 152.5q0 98 -71 171h-642l-77 112v20h1471l77 -112v-20z" />
    <glyph glyph-name="dvvR" unicode="&#x90b;" horiz-adv-x="1629" 
d="M916 1142v-508q93 4 158 36.5t100 81.5q-20 36 -20 81q0 59 35 95t91 36q57 0 96 -44.5t39 -109.5q0 -82 -70 -131l158 -195q-152 -65 -223 -132t-71 -125q0 -43 28 -69t74 -26q139 0 246 83l75 -125q-90 -74 -206 -74q-93 0 -162 37t-116.5 99.5t-47.5 146.5t64 141.5
t165 108.5l-72 83q-51 -35 -133.5 -60t-175.5 -25l-32 2v-559h-19l-124 93v206l3 182l-498 -312l-112 132l554 303q-85 107 -146.5 144.5t-141.5 37.5q-100 0 -257 -88l-101 157q170 88 298 88q118 0 202 -57.5t199 -209.5v476h-783l-77 112v20h1706l77 -112v-20h-780z" />
    <glyph glyph-name="dvvL" unicode="&#x90c;" horiz-adv-x="1324" 
d="M1022 1142v-310q57 -26 103 -75t72.5 -102.5t26.5 -120.5q0 -66 -33.5 -131t-131.5 -165q-83 -87 -107.5 -131.5t-24.5 -86.5q0 -121 132 -121q104 0 211 79l85 -134q-67 -38 -115.5 -54t-106.5 -16q-78 0 -157.5 48t-132.5 125t-53 138q0 58 21 106t51.5 84.5t79.5 85.5
q85 85 112.5 137t27.5 108q0 63 -38.5 106t-98.5 43q-96 0 -156 -76t-60 -201l4 -77l-161 32q-5 37 -5 75q0 87 31 160q-68 41 -138 41q-90 0 -147.5 -60t-57.5 -156q0 -110 62 -212.5t220 -232.5l-62 -69q-382 317 -382 592q0 129 74.5 207t198.5 78q141 0 275 -113
q87 112 238 118v281h-889l-77 112v20h1401l77 -112v-20h-369z" />
    <glyph glyph-name="dvEcandra" unicode="&#x90d;" horiz-adv-x="1038" 
d="M736 767v375h-434v-532q0 -88 11.5 -130t47.5 -76t127 -92l202 -128q108 -69 161.5 -138t53.5 -152q0 -96 -71 -212l-157 64q75 111 75 193q0 50 -29.5 88t-133.5 104l-206 129q-97 61 -143.5 104t-65.5 96t-19 142v540h-165l-77 112v20h1115l77 -112v-20h-222v-409
q0 -173 -107 -298l-131 84q48 40 69.5 97.5t21.5 150.5zM139 1709l74 28q45 -106 115 -158t180 -52q98 0 167 59.5t94 176.5l131 -43q-33 -150 -134 -234.5t-245 -84.5q-127 0 -229 82.5t-153 225.5z" />
    <glyph glyph-name="dvEshort" unicode="&#x90e;" horiz-adv-x="1038" 
d="M736 767v375h-434v-532q0 -88 11.5 -130t47.5 -76t127 -92l202 -128q108 -69 161.5 -138t53.5 -152q0 -96 -71 -212l-157 64q75 111 75 193q0 50 -29.5 88t-133.5 104l-206 129q-97 61 -143.5 104t-65.5 96t-19 142v540h-165l-77 112v20h884q-26 124 -64.5 173t-112.5 49
l-154 -5q-108 1 -179 70.5t-116 225.5l73 23q21 -73 60 -114t109 -41l178 7q119 0 182.5 -93t97.5 -295h157l77 -112v-20h-222v-409q0 -173 -107 -298l-131 84q48 40 69.5 97.5t21.5 150.5z" />
    <glyph glyph-name="dvE" unicode="&#x90f;" horiz-adv-x="1038" 
d="M736 767v375h-434v-532q0 -88 11.5 -130t47.5 -76t127 -92l202 -128q108 -69 161.5 -138t53.5 -152q0 -96 -71 -212l-157 64q75 111 75 193q0 50 -29.5 88t-133.5 104l-206 129q-97 61 -143.5 104t-65.5 96t-19 142v540h-165l-77 112v20h1115l77 -112v-20h-222v-409
q0 -173 -107 -298l-131 84q48 40 69.5 97.5t21.5 150.5z" />
    <glyph glyph-name="dvAI" unicode="&#x910;" horiz-adv-x="1038" 
d="M736 767v375h-434v-532q0 -88 11.5 -130t47.5 -76t127 -92l202 -128q108 -69 161.5 -138t53.5 -152q0 -96 -71 -212l-157 64q75 111 75 193q0 50 -29.5 88t-133.5 104l-206 129q-97 61 -143.5 104t-65.5 96t-19 142v540h-165l-77 112v20h862q-46 92 -119 199
t-128.5 142.5t-139.5 35.5q-79 0 -157 -37l-93 176q95 30 173 30q164 0 291.5 -128.5t263.5 -417.5h162l77 -112v-20h-222v-409q0 -173 -107 -298l-131 84q48 40 69.5 97.5t21.5 150.5z" />
    <glyph glyph-name="dvOcandra" unicode="&#x911;" horiz-adv-x="1865" 
d="M1932 1142h-237v-1152h-19l-124 93v1059h-340v-1152h-19l-124 93v509q-61 -23 -122 -23q-119 0 -234 77q70 -95 70 -217q0 -114 -76.5 -183.5t-203.5 -69.5q-161 0 -283.5 131t-199.5 337l82 33q68 -170 158.5 -262t211.5 -92q77 0 128 48t51 119q0 61 -25 120.5
t-71 100.5q-44 -18 -134 -45l-70 140q177 46 246 94.5t69 119.5q0 58 -38.5 91t-98.5 33q-105 0 -255 -68l-75 145q132 63 256 63q95 0 168.5 -51.5t113 -124.5t39.5 -147q0 -71 -34 -122.5t-109 -91.5q110 -50 218 -50q129 0 218 69v376h-171l-77 112v20h1034l77 -112v-20z
M1001 1709l74 28q45 -106 115 -158t180 -52q98 0 167 59.5t94 176.5l131 -43q-33 -150 -134 -234.5t-245 -84.5q-127 0 -229 82.5t-153 225.5z" />
    <glyph glyph-name="dvOshort" unicode="&#x912;" horiz-adv-x="1865" 
d="M1932 1142h-237v-1152h-19l-124 93v1059h-340v-1152h-19l-124 93v509q-61 -23 -122 -23q-119 0 -234 77q70 -95 70 -217q0 -114 -76.5 -183.5t-203.5 -69.5q-161 0 -283.5 131t-199.5 337l82 33q68 -170 158.5 -262t211.5 -92q77 0 128 48t51 119q0 61 -25 120.5
t-71 100.5q-44 -18 -134 -45l-70 140q177 46 246 94.5t69 119.5q0 58 -38.5 91t-98.5 33q-105 0 -255 -68l-75 145q132 63 256 63q95 0 168.5 -51.5t113 -124.5t39.5 -147q0 -71 -34 -122.5t-109 -91.5q110 -50 218 -50q129 0 218 69v376h-171l-77 112v20h788
q-26 124 -64.5 173t-112.5 49l-154 -5q-108 1 -179 70.5t-116 225.5l73 23q21 -73 60 -114t109 -41l178 7q119 0 182.5 -93t97.5 -295h172l77 -112v-20z" />
    <glyph glyph-name="dvO" unicode="&#x913;" horiz-adv-x="1865" 
d="M1932 1142h-237v-1152h-19l-124 93v1059h-340v-1152h-19l-124 93v509q-61 -23 -122 -23q-119 0 -234 77q70 -95 70 -217q0 -114 -76.5 -183.5t-203.5 -69.5q-161 0 -283.5 131t-199.5 337l82 33q68 -170 158.5 -262t211.5 -92q77 0 128 48t51 119q0 61 -25 120.5
t-71 100.5q-44 -18 -134 -45l-70 140q177 46 246 94.5t69 119.5q0 58 -38.5 91t-98.5 33q-105 0 -255 -68l-75 145q132 63 256 63q95 0 168.5 -51.5t113 -124.5t39.5 -147q0 -71 -34 -122.5t-109 -91.5q110 -50 218 -50q129 0 218 69v376h-171l-77 112v20h766
q-46 92 -119 199t-128.5 142.5t-139.5 35.5q-79 0 -157 -37l-93 176q95 30 173 30q164 0 291.5 -128.5t263.5 -417.5h177l77 -112v-20z" />
    <glyph glyph-name="dvAU" unicode="&#x914;" horiz-adv-x="1865" 
d="M1932 1142h-237v-1152h-19l-124 93v1059h-340v-1152h-19l-124 93v509q-61 -23 -122 -23q-119 0 -234 77q70 -95 70 -217q0 -114 -76.5 -183.5t-203.5 -69.5q-161 0 -283.5 131t-199.5 337l82 33q68 -170 158.5 -262t211.5 -92q77 0 128 48t51 119q0 61 -25 120.5
t-71 100.5q-44 -18 -134 -45l-70 140q177 46 246 94.5t69 119.5q0 58 -38.5 91t-98.5 33q-105 0 -255 -68l-75 145q132 63 256 63q95 0 168.5 -51.5t113 -124.5t39.5 -147q0 -71 -34 -122.5t-109 -91.5q110 -50 218 -50q129 0 218 69v376h-171l-77 112v20h723
q-59 81 -123.5 122.5t-143.5 41.5q-65 0 -140 -28l-51 140q64 23 139 23q189 0 342 -224l8 3q-59 170 -134 256t-177 86q-56 0 -119 -25l-54 138q71 29 147 29q93 0 162.5 -48.5t135.5 -169t144 -344.5h175l77 -112v-20z" />
    <glyph glyph-name="dvKA" unicode="&#x915;" horiz-adv-x="1436" 
d="M840 1142v-401q105 90 211 90q128 0 220.5 -95.5t92.5 -249.5q0 -80 -40 -169.5t-99 -157.5l-136 98q66 82 109.5 161t43.5 161q0 58 -31 93t-83 35q-69 0 -141.5 -52t-146.5 -132v-533h-19l-124 93v279q-44 -45 -105 -72.5t-131 -27.5q-88 0 -148.5 29t-121.5 85
q-119 111 -119 253q0 125 91 209t224 84q171 0 310 -110v330h-707l-77 112v20h1513l77 -112v-20h-663zM697 578v140q-59 38 -111.5 54.5t-117.5 16.5q-81 0 -141.5 -34.5t-92 -88t-31.5 -110.5q0 -73 49.5 -118t133.5 -45q86 0 166.5 49.5t144.5 135.5z" />
    <glyph glyph-name="dvKHA" unicode="&#x916;" horiz-adv-x="1493" 
d="M1560 1142h-237v-1152h-19l-124 93v54q-155 -112 -397 -112q-171 0 -327.5 94.5t-268.5 265.5t-112 295q0 55 30.5 87t77.5 32q42 0 73.5 -20t67.5 -60q114 61 114 236q0 100 -49 187h-399l-77 112v20h1570l77 -112v-20zM1180 1142h-682q67 -140 67 -261
q0 -256 -310 -415q140 -300 506 -300q256 0 419 133v126q-72 -56 -171 -56q-88 0 -172.5 45t-140.5 124.5t-56 168.5q0 114 84.5 186.5t214.5 72.5q62 0 125 -24t116 -65v265zM1180 798q-76 33 -160 33q-108 0 -177.5 -51.5t-69.5 -135.5q0 -73 48 -113.5t121 -40.5
q62 0 127 31t111 80v197z" />
    <glyph glyph-name="dvGA" unicode="&#x917;" horiz-adv-x="1053" 
d="M1120 1142h-237v-1152h-19l-124 93v1059h-379q50 -300 50 -568q0 -186 -106 -186q-81 0 -161 89t-80 177q0 92 98 92q44 0 87 -5q8 64 8 133q0 129 -13 268h-254l-77 112v20h1130l77 -112v-20z" />
    <glyph glyph-name="dvGHA" unicode="&#x918;" horiz-adv-x="1102" 
d="M1169 1142h-237v-1152h-19l-124 93v258q-48 -46 -117.5 -78t-151.5 -32q-161 0 -274.5 119.5t-113.5 224.5q0 142 158 219q-207 90 -207 267q0 40 14 81h-107l-77 112v20h1179l77 -112v-20zM789 1142h-509q-30 -46 -30 -99q0 -124 125 -215q68 19 144 27l103 -142
q-158 -11 -251.5 -69.5t-93.5 -145.5q0 -59 41.5 -92.5t125.5 -33.5q95 0 186.5 51.5t158.5 133.5v585z" />
    <glyph glyph-name="dvNGA" unicode="&#x919;" horiz-adv-x="1134" 
d="M1201 1162v-20h-383v-304q-103 9 -157 9q-173 0 -253 -48t-80 -127q0 -73 70 -120q65 40 132 59.5t119 19.5q89 0 150.5 -38t111.5 -114t50 -157q0 -83 -40.5 -153.5t-120.5 -112.5t-192 -42q-163 0 -310.5 91.5t-269.5 268.5l74 53q92 -133 204.5 -204.5t227.5 -71.5
q137 0 226 61t89 156q0 61 -39 92.5t-97 31.5q-115 0 -266 -95q-108 65 -175 159.5t-67 183.5q0 104 75.5 161.5t215.5 57.5q67 0 177 -11v194h-683l-77 112v20h1211zM1095 722q0 -108 -100 -108q-101 0 -101 108q0 109 101 109q100 0 100 -109z" />
    <glyph glyph-name="dvCA" unicode="&#x91a;" horiz-adv-x="1151" 
d="M1218 1142h-237v-1152h-19l-124 93v252q-97 -90 -225 -90q-81 0 -139.5 25t-124.5 83.5t-95 117.5t-29 125q0 112 86 175h-185l-86 112v21h606l86 -114v-23h-77q-127 0 -214.5 -68.5t-87.5 -163.5q0 -70 51 -114.5t134 -44.5q82 0 159.5 45.5t140.5 125.5v595h-848
l-77 112v20h1228l77 -112v-20z" />
    <glyph glyph-name="dvCHA" unicode="&#x91b;" horiz-adv-x="1252" 
d="M973 1142v-174q91 -38 147 -135t56 -219q0 -158 -78 -297t-216.5 -223t-308.5 -84q-94 0 -185 45t-150.5 121t-59.5 153q0 111 84 183q-84 32 -134 99t-50 157q0 100 67.5 162t173.5 62q60 0 116.5 -22.5t93.5 -65.5l-22 -47q-41 20 -89 20q-78 0 -129.5 -42t-51.5 -113
q0 -43 24 -88.5t68 -77.5q84 44 195 44h13l54 -120q-120 0 -199 -48.5t-79 -136.5q0 -78 49 -121t144 -43q137 0 254 61t194 165q-158 72 -243.5 172t-85.5 222q0 93 55 157t150 77v157h-840l-77 112v20h1329l77 -112v-20h-346zM913 871q-67 0 -110.5 -43t-43.5 -117
q0 -92 70 -165t168 -122q68 124 68 266q0 86 -43 133.5t-109 47.5z" />
    <glyph glyph-name="dvJA" unicode="&#x91c;" horiz-adv-x="1319" 
d="M1386 1142h-237v-1152h-19l-124 93v686h-274q-81 0 -104 4q166 -168 166 -347q0 -116 -62.5 -181t-171.5 -65q-166 0 -296.5 163.5t-216.5 466.5l87 28q83 -260 177.5 -384t191.5 -124q144 0 144 148q0 98 -52.5 193t-133.5 157l35 72h510v242h-1016l-77 112v20h1396
l77 -112v-20z" />
    <glyph glyph-name="dvJHA" unicode="&#x91d;" horiz-adv-x="1400" 
d="M1467 1142h-237v-1152h-19l-124 93v388q-56 -22 -115 -22q-91 0 -174 41q57 -81 57 -168q0 -133 -111 -218t-286 -87q124 -112 317 -196l-99 -118q-73 49 -160.5 137t-158.5 177q-110 5 -174 44.5t-64 100.5q0 40 27 62.5t72 22.5q86 0 164 -98q159 0 260 62t101 157
q0 61 -39 92.5t-97 31.5q-115 0 -266 -95q-108 65 -175 159.5t-67 183.5q0 104 75.5 161.5t215.5 57.5q67 0 177 -11v194h-577l-77 112v20h1477l77 -112v-20zM1087 1142h-375v-304q-103 9 -157 9q-173 0 -253 -48t-80 -127q0 -73 70 -120q65 40 132 59.5t119 19.5
q45 0 77.5 -8t74.5 -24q47 -17 85 -26t94 -9q61 0 118 16t95 44v518z" />
    <glyph glyph-name="dvNYA" unicode="&#x91e;" horiz-adv-x="1361" 
d="M1428 1142h-237v-1152h-19l-124 93v450q-56 -14 -124 -14l-50 4q-15 -125 -105 -193t-230 -68q-162 0 -290 121t-209 340l83 40q66 -178 153.5 -271.5t207.5 -93.5t190 67t70 181q0 73 -35 105.5t-107 32.5q-49 0 -95.5 -14.5t-106.5 -45.5l-73 154q124 56 220 56
q83 0 147.5 -42.5t116.5 -124t63 -150.5q99 11 174 70v455h-1058l-77 112v20h1438l77 -112v-20z" />
    <glyph glyph-name="dvTTA" unicode="&#x91f;" horiz-adv-x="930" 
d="M236 466q0 -119 81 -190t218 -71q91 0 154 19t130 57l86 -136q-138 -86 -309 -86q-128 0 -243 67t-185 178.5t-70 236.5q0 154 119 247.5t312 93.5q48 0 106 -5v265h-645l-77 112v20h1007l77 -112v-20h-219v-379l-84 2q-204 0 -331 -83.5t-127 -215.5z" />
    <glyph glyph-name="dvTTHA" unicode="&#x920;" horiz-adv-x="1081" 
d="M706 1142v-282q137 -50 215 -163t78 -260q0 -178 -111.5 -282.5t-301.5 -104.5q-129 0 -242 63t-181.5 173t-68.5 245q0 106 54 188.5t143.5 127.5t191.5 45q37 0 80 -6v256h-575l-77 112v20h1160l77 -112v-20h-442zM638 804q-126 -1 -216.5 -49.5t-136.5 -127.5
t-46 -171q0 -127 79 -210t201 -83q144 0 238.5 92t94.5 234q0 93 -53.5 179t-160.5 136z" />
    <glyph glyph-name="dvDDA" unicode="&#x921;" horiz-adv-x="1043" 
d="M328 672q0 -73 70 -120q65 40 132 59.5t119 19.5q89 0 150.5 -38t111.5 -114t50 -157q0 -83 -40.5 -153.5t-120.5 -112.5t-192 -42q-163 0 -310.5 91.5t-269.5 268.5l74 53q92 -133 204.5 -204.5t227.5 -71.5q137 0 226 61t89 156q0 61 -39 92.5t-97 31.5
q-115 0 -266 -95q-108 65 -175 159.5t-67 183.5q0 104 75.5 161.5t215.5 57.5q67 0 177 -11v194h-683l-77 112v20h1120l77 -112v-20h-292v-304q-103 9 -157 9q-173 0 -253 -48t-80 -127z" />
    <glyph glyph-name="dvDDHA" unicode="&#x922;" horiz-adv-x="1033" 
d="M249 421q0 -126 86 -209.5t222 -86.5q-49 46 -78.5 114t-29.5 133q0 99 63.5 159t170.5 60q119 0 202 -94.5t83 -205.5q0 -128 -95.5 -209.5t-249.5 -81.5q-116 0 -226 55.5t-200.5 183.5t-90.5 267q0 173 124.5 275.5t334.5 102.5l108 -4v262h-683l-77 112v20h1110
l77 -112v-20h-279v-373q-83 5 -143 5q-201 0 -315 -94.5t-114 -258.5zM587 294q0 -86 52 -161q87 19 142.5 80t55.5 134q0 55 -28 86.5t-74 31.5q-67 0 -107.5 -49t-40.5 -122z" />
    <glyph glyph-name="dvNNA" unicode="&#x923;" horiz-adv-x="1405" 
d="M1472 1142h-237v-1152h-19l-124 93v1059h-306v-484q0 -169 -69 -254.5t-203 -85.5q-75 0 -156 51t-141 133.5t-60 181.5v458h-167l-77 112v20h1482l77 -112v-20zM638 1142h-334v-493q0 -108 40 -158.5t125 -50.5q169 0 169 242v460z" />
    <glyph glyph-name="dvTA" unicode="&#x924;" horiz-adv-x="1076" 
d="M1143 1142h-237v-1152h-19l-124 93v648q-114 14 -244 14q-128 0 -201 -68.5t-73 -186.5q0 -117 78.5 -233.5t200.5 -215.5l-59 -66q-150 118 -260 263.5t-110 309.5q0 150 108.5 243t281.5 93q105 0 278 -26v284h-773l-77 112v20h1153l77 -112v-20z" />
    <glyph glyph-name="dvTHA" unicode="&#x925;" horiz-adv-x="1182" 
d="M1249 1142h-237v-1152h-19l-124 93v286q-51 -57 -129.5 -90.5t-160.5 -33.5q-175 0 -297 111.5t-200 293.5q165 59 213.5 80t88.5 44q-255 130 -255 300q0 90 58.5 148t147.5 58q97 0 178.5 -58t119.5 -127t38 -152q0 -122 -86.5 -212t-295.5 -173q-22 -9 -22 -33
q0 -54 72.5 -98.5t168.5 -44.5q106 0 201.5 55t159.5 149v556h-106l-77 112v20h486l77 -112v-20zM455 824q87 76 87 181q0 68 -39.5 110t-100.5 42q-51 0 -86.5 -31.5t-35.5 -91.5q0 -68 48 -118.5t127 -91.5z" />
    <glyph glyph-name="dvDA" unicode="&#x926;" horiz-adv-x="930" 
d="M209 494q0 -100 65 -165t167 -65q93 0 140 29q-14 36 -14 80q0 46 31 78t79 32q68 0 120.5 -52.5t52.5 -122.5q0 -41 -27.5 -80t-89.5 -63q77 -122 246 -274l-162 -67q-106 157 -172 320q-39 -11 -111 -11q-118 0 -224.5 58t-171.5 158.5t-65 207.5q0 144 113.5 234
t298.5 90q54 0 112 -6v267h-607l-77 112v20h1007l77 -112v-20h-257v-367l-96 2q-204 0 -319.5 -75.5t-115.5 -207.5z" />
    <glyph glyph-name="dvDHA" unicode="&#x927;" horiz-adv-x="1136" 
d="M1203 1142h-237v-1152h-19l-124 93v246q-48 -46 -118 -79t-153 -33q-161 0 -274.5 119.5t-113.5 224.5q0 124 130 196q-131 108 -162.5 147t-47.5 79.5t-16 91.5q0 100 63 161.5t166 61.5q95 0 180.5 -86t85.5 -185q0 -81 -51 -126t-128 -45q-62 0 -112 18
q27 -23 120 -78q76 22 172 28l102 -138q-163 -7 -260 -59t-97 -143q0 -59 41.5 -92.5t125.5 -33.5q95 0 187.5 52.5t159.5 135.5v596h-80l-77 112v20h460l77 -112v-20zM211 1010q0 -52 19 -87q17 -5 37 -5q83 0 137 44.5t54 123.5q0 95 -89 95q-66 0 -112 -50t-46 -121z" />
    <glyph glyph-name="dvNA" unicode="&#x928;" horiz-adv-x="1028" 
d="M1095 1142h-237v-1152h-19l-124 93v514q-180 9 -290 9l-70 -1q10 -54 10 -120q0 -43 -21.5 -71t-67.5 -28q-84 0 -158 77t-74 161q0 59 41.5 95.5t127.5 36.5q139 0 288.5 -15t213.5 -27v428h-725l-77 112v20h1105l77 -112v-20z" />
    <glyph glyph-name="dvNxA" unicode="&#x929;" horiz-adv-x="1028" 
d="M1095 1142h-237v-1152h-19l-124 93v514q-180 9 -290 9l-70 -1q10 -54 10 -120q0 -43 -21.5 -71t-67.5 -28q-84 0 -158 77t-74 161q0 59 41.5 95.5t127.5 36.5q139 0 288.5 -15t213.5 -27v428h-725l-77 112v20h1105l77 -112v-20zM155 78q0 107 104 107q103 0 103 -107
q0 -106 -103 -106q-104 0 -104 106z" />
    <glyph glyph-name="dvPA" unicode="&#x92a;" horiz-adv-x="1057" 
d="M1124 1142h-237v-1152h-19l-124 93v325q-41 -34 -96.5 -57t-112.5 -23q-68 0 -132 30t-131 96.5t-89.5 129t-22.5 209.5v349h-170l-77 112v20h1134l77 -112v-20zM744 1142h-437v-498q0 -103 42.5 -142t109.5 -39q71 0 147.5 39t137.5 108v532z" />
    <glyph glyph-name="dvPHA" unicode="&#x92b;" horiz-adv-x="1463" 
d="M857 1142v-400q107 89 221 89q128 0 220.5 -95.5t92.5 -249.5q0 -80 -40 -169.5t-99 -157.5l-136 98q66 82 109.5 161t43.5 161q0 58 -31 93t-83 35q-71 0 -146.5 -52t-151.5 -131v-534h-19l-124 93v339q-89 -58 -179 -58q-68 0 -132 30t-131 96.5t-89.5 129t-22.5 209.5
v313h-170l-77 112v20h1540l77 -112v-20h-673zM714 1142h-407v-462q0 -103 42.5 -142t109.5 -39q63 0 130 30.5t125 85.5v527z" />
    <glyph glyph-name="dvBA" unicode="&#x92c;" horiz-adv-x="1024" 
d="M1091 1142h-237v-1152h-19l-124 93v219q-90 -77 -210 -77q-100 0 -168.5 31.5t-135.5 94.5q-125 119 -125 270q0 90 46.5 158.5t122 105.5t160.5 37q170 0 310 -110v330h-721l-77 112v20h1101l77 -112v-20zM711 504v215q-60 38 -114 55.5t-117 17.5q-53 0 -98 -14
l250 -350q46 36 79 76zM547 377l-252 356q-45 -35 -69.5 -83.5t-24.5 -98.5q0 -90 62.5 -145t162.5 -55q61 0 121 26z" />
    <glyph glyph-name="dvBHA" unicode="&#x92d;" horiz-adv-x="1321" 
d="M1388 1142h-237v-1152h-19l-125 93v427q-189 8 -354 8h-38v-93q0 -90 -82 -90q-74 0 -141 73.5t-67 156.5q0 57 39 78t108 24v89q-101 8 -190.5 51.5t-144.5 116.5t-55 163q0 89 62.5 148t160.5 59q88 0 159 -47t111 -125t40 -166v-292q194 -8 392 -36v514h-173l-77 112
v20h554l77 -112v-20zM472 837v233q0 102 -91 102q-60 0 -99 -34t-39 -91q0 -77 61.5 -133t167.5 -77z" />
    <glyph glyph-name="dvMA" unicode="&#x92e;" horiz-adv-x="1120" 
d="M1187 1142h-237v-1152h-19l-125 93v426q-243 9 -386 9h-38v-93q0 -90 -82 -90q-74 0 -141 73.5t-67 156.5q0 57 39 78t107 24v475h-248l-77 112v20h1197l77 -112v-20zM806 1142h-424v-478q130 -5 249 -18.5t175 -23.5v520z" />
    <glyph glyph-name="dvYA" unicode="&#x92f;" horiz-adv-x="1123" 
d="M1190 1142h-237v-1152h-19l-125 93v309q-51 -42 -119 -66.5t-137 -24.5q-175 0 -297 111.5t-200 293.5q134 44 207 114.5t73 151.5q0 86 -71 170h-275l-77 112v20h1200l77 -112v-20zM809 1142h-437q108 -133 108 -240q0 -61 -23 -106.5t-66 -84t-121 -93.5
q-25 -18 -25 -44q0 -52 71.5 -94t165.5 -42q92 0 177.5 42t149.5 117v545z" />
    <glyph glyph-name="dvRA" unicode="&#x930;" horiz-adv-x="744" 
d="M811 1142h-268q64 -134 64 -268q0 -125 -89.5 -235t-246.5 -180q122 -180 408 -362l-114 -117q-192 163 -335.5 369.5t-143.5 322.5q0 55 29 87.5t76 32.5q45 0 75 -19t70 -61q70 32 107 97t37 139q0 111 -46 194h-444l-77 112v20h821l77 -112v-20z" />
    <glyph glyph-name="dvRxA" unicode="&#x931;" horiz-adv-x="744" 
d="M811 1142h-268q64 -134 64 -268q0 -125 -89.5 -235t-246.5 -180q122 -180 408 -362l-114 -117q-192 163 -335.5 369.5t-143.5 322.5q0 55 29 87.5t76 32.5q45 0 75 -19t70 -61q70 32 107 97t37 139q0 111 -46 194h-444l-77 112v20h821l77 -112v-20zM54 72q0 107 104 107
q103 0 103 -107q0 -106 -103 -106q-104 0 -104 106z" />
    <glyph glyph-name="dvLA" unicode="&#x932;" horiz-adv-x="1294" 
d="M1361 1142h-217v-1152h-19l-124 93v734l-24 1q-120 0 -191 -80t-71 -211l5 -97l-161 45q-6 50 -6 96q0 104 47 185q-62 39 -130 39q-93 0 -152 -59.5t-59 -156.5q0 -148 92 -276.5t256 -247.5l-61 -69q-93 65 -196.5 170.5t-178 237.5t-74.5 263q0 128 79 206.5t204 78.5
q145 0 270 -121q50 51 118 78.5t143 27.5q50 0 90 -7v222h-1011l-77 112v20h1371l77 -112v-20z" />
    <glyph glyph-name="dvLLA" unicode="&#x933;" horiz-adv-x="1396" 
d="M1074 1142v-276q64 -26 124.5 -85t93 -130t32.5 -165q0 -148 -94 -250.5t-231 -102.5q-86 0 -164.5 42t-140.5 127q-46 -80 -106.5 -124.5t-146.5 -44.5q-99 0 -184 58t-134.5 143.5t-49.5 200.5q0 148 93.5 250.5t230.5 102.5q86 0 164.5 -42.5t140.5 -126.5
q43 74 97.5 118t131.5 50v255h-941l-77 112v20h1473l77 -112v-20h-389zM1024 778q-62 0 -106.5 -38.5t-73.5 -96.5t-68 -156l-47 -114q50 -60 101.5 -87.5t112.5 -27.5q100 0 168 92t68 224q0 104 -43.5 154t-111.5 50zM667 648q-50 60 -101.5 87.5t-112.5 27.5
q-100 0 -168 -92t-68 -224q0 -104 43.5 -154t111.5 -50q62 0 106.5 38.5t73.5 96.5t68 156z" />
    <glyph glyph-name="dvLLxA" unicode="&#x934;" horiz-adv-x="1396" 
d="M1074 1142v-276q64 -26 124.5 -85t93 -130t32.5 -165q0 -148 -94 -250.5t-231 -102.5q-86 0 -164.5 42t-140.5 127q-46 -80 -106.5 -124.5t-146.5 -44.5q-99 0 -184 58t-134.5 143.5t-49.5 200.5q0 148 93.5 250.5t230.5 102.5q86 0 164.5 -42.5t140.5 -126.5
q43 74 97.5 118t131.5 50v255h-941l-77 112v20h1473l77 -112v-20h-389zM1024 778q-62 0 -106.5 -38.5t-73.5 -96.5t-68 -156l-47 -114q50 -60 101.5 -87.5t112.5 -27.5q100 0 168 92t68 224q0 104 -43.5 154t-111.5 50zM667 648q-50 60 -101.5 87.5t-112.5 27.5
q-100 0 -168 -92t-68 -224q0 -104 43.5 -154t111.5 -50q62 0 106.5 38.5t73.5 96.5t68 156zM85 -1q0 107 104 107q103 0 103 -107q0 -106 -103 -106q-104 0 -104 106z" />
    <glyph glyph-name="dvVA" unicode="&#x935;" horiz-adv-x="1010" 
d="M1077 1142h-237v-1152h-19l-124 93v252q-97 -90 -225 -90q-82 0 -141 25.5t-125 84.5t-100 128.5t-34 145.5q0 125 91 209t224 84q171 0 310 -110v330h-707l-77 112v20h1087l77 -112v-20zM697 547v171q-59 38 -111.5 54.5t-117.5 16.5q-81 0 -141.5 -34.5t-92 -88
t-31.5 -110.5q0 -79 53 -129.5t141 -50.5q82 0 159.5 45.5t140.5 125.5z" />
    <glyph glyph-name="dvSHA" unicode="&#x936;" horiz-adv-x="1274" 
d="M768 66l-128 -75l-170 217q-92 122 -143 182q-40 -11 -96 -11q-67 0 -117 42.5t-50 102.5q0 54 36.5 84.5t89.5 30.5q37 0 69.5 -16t84.5 -59q83 30 147 132q-181 64 -277 160.5t-96 215.5q0 99 63 159.5t164 60.5q142 0 249.5 -122.5t107.5 -270.5q0 -318 -284 -476
q281 -291 350 -357zM1341 1142h-237v-1152h-19l-124 93v1059h-137l-77 112v20h517l77 -112v-20zM527 767q42 100 42 205q0 101 -40.5 150.5t-104.5 49.5q-70 0 -115.5 -45.5t-45.5 -114.5q0 -141 264 -245z" />
    <glyph glyph-name="dvSSA" unicode="&#x937;" horiz-adv-x="1087" 
d="M1154 1142h-237v-1152h-19l-124 93v352q-43 -44 -108 -75.5t-131 -31.5q-68 0 -132 30t-131 96.5t-89.5 129t-22.5 209.5v349h-170l-77 112v20h1164l77 -112v-20zM774 1142h-467l467 -507v507zM709 568l-285 309l-117 138v-371q0 -103 42.5 -142t109.5 -39q129 0 250 105
z" />
    <glyph glyph-name="dvSA" unicode="&#x938;" horiz-adv-x="1314" 
d="M1381 1142h-237v-1152h-19l-124 93v456q-72 -25 -163 -25q-96 0 -186.5 27.5t-157.5 70.5q-85 -91 -223 -153q122 -180 408 -362l-114 -117q-192 163 -335.5 369.5t-143.5 322.5q0 55 29 87.5t76 32.5q45 0 75 -19t70 -61q70 32 107 97t37 139q0 111 -46 194h-444
l-77 112v20h1391l77 -112v-20zM1001 1142h-458q64 -134 64 -268q0 -97 -55 -186q98 -48 206 -48q134 0 243 63v439z" />
    <glyph glyph-name="dvHA" unicode="&#x939;" horiz-adv-x="943" 
d="M252 682q0 -59 50 -103q95 54 207 54q167 0 274.5 -106.5t107.5 -221.5q0 -68 -27.5 -120.5t-88.5 -113.5l-136 96q119 98 119 198q0 70 -50 105t-124 35q-136 0 -221 -77t-85 -199q0 -111 85 -210.5t281 -165.5l-49 -75q-218 76 -340.5 210.5t-122.5 305.5q0 134 99 231
q-116 97 -116 209q0 114 86 169.5t225 55.5q99 0 214 -12v195h-650l-77 112v20h1020l77 -112v-20h-225v-305q-102 10 -229 10q-163 0 -233.5 -45t-70.5 -120z" />
    <glyph glyph-name="dvmOE" unicode="&#x93a;" 
d="M-170 1514v-300h-143v393h19z" />
    <glyph glyph-name="dvmOOE" unicode="&#x93b;" horiz-adv-x="483" 
d="M550 1142h-237v-1152h-19l-124 93v1059h-180l-77 112v20h257v333h19l124 -93v-240h160l77 -112v-20z" />
    <glyph glyph-name="dvNukta" unicode="&#x93c;" 
d="M-626 -268q0 107 104 107q103 0 103 -107q0 -106 -103 -106q-104 0 -104 106z" />
    <glyph glyph-name="dvAvagraha" unicode="&#x93d;" horiz-adv-x="947" 
d="M23 456l70 44q185 -270 403 -270q92 0 145 47.5t53 128.5q0 54 -30.5 105t-75 95t-122.5 112q-86 75 -137 126t-87 114.5t-36 132.5q0 82 60.5 132.5t162.5 50.5h283l81 -113v-20h-292q-74 0 -107 -25t-33 -75q0 -43 27.5 -86.5t69 -83t113.5 -100.5q91 -77 148 -133.5
t97 -127.5t40 -150q0 -122 -89.5 -196.5t-236.5 -74.5q-137 0 -273 98.5t-234 268.5z" />
    <glyph glyph-name="dvmAA" unicode="&#x93e;" horiz-adv-x="483" 
d="M550 1142h-237v-1152h-19l-124 93v1059h-180l-77 112v20h560l77 -112v-20z" />
    <glyph glyph-name="dvmI" unicode="&#x93f;" horiz-adv-x="483" 
d="M169 84v1058h-179l-77 112v20h286q-50 51 -79.5 121.5t-29.5 140.5q0 131 101.5 214t257.5 83q182 0 343.5 -93.5t280.5 -225.5t199 -268l-76 -41q-136 226 -317 354.5t-367 128.5q-125 0 -202.5 -67.5t-77.5 -176.5q0 -87 46 -170h195l77 -112v-20h-238v-1151h-18z" />
    <glyph glyph-name="dvmII" unicode="&#x940;" horiz-adv-x="483" 
d="M550 1142h-237v-1152h-19l-124 93v1059h-180l-77 112v20h303q-59 196 -144.5 303.5t-189.5 107.5q-80 0 -124.5 -45.5t-44.5 -131.5q0 -62 31 -134t82 -122h-77q-75 54 -123.5 144t-48.5 178q0 114 68 186.5t180 72.5q318 0 477 -559h171l77 -112v-20z" />
    <glyph glyph-name="dvmU" unicode="&#x941;" 
d="M-840 -187l95 81q97 -155 199.5 -246t226.5 -91q102 0 177 67.5t75 158.5q0 98 -102 98q-46 0 -89.5 -16t-102.5 -58l-95 124q111 79 210 79q73 0 140 -41t108.5 -112t41.5 -143q0 -119 -85.5 -191t-227.5 -72q-167 0 -308 101t-263 261z" />
    <glyph glyph-name="dvmUU" unicode="&#x942;" 
d="M-223 -133q-93 0 -144.5 -46t-51.5 -125q0 -64 32 -97.5t87 -33.5q53 0 101.5 13.5t113.5 58.5l49 -146q-57 -25 -98 -35.5t-92 -10.5q-67 0 -140 44.5t-129.5 117.5t-56.5 153q0 108 75.5 179.5t191.5 71.5q87 0 166 -47t148.5 -119.5t181.5 -207.5l116 -137l-89 -61
q-122 161 -191 243.5t-137 133.5t-133 51z" />
    <glyph glyph-name="dvmvR" unicode="&#x943;" 
d="M-529 -289q0 179 241 256l118 -107q-119 -39 -178 -87.5t-59 -116.5t46 -102.5t112 -34.5q51 0 106.5 23t100.5 58l113 -103q-132 -103 -263 -103q-127 0 -232 105t-105 212z" />
    <glyph glyph-name="dvmvRR" unicode="&#x944;" 
d="M172 -712q-130 -103 -263 -103q-67 0 -127 36.5t-102 90t-42 119.5q0 23 5 48q-58 22 -115 86t-57 146q0 179 241 256l118 -107q-118 -38 -177.5 -87t-59.5 -117q0 -35 24.5 -58t72.5 -28q50 56 189 117l118 -107q-91 -41 -137.5 -67.5t-73 -59t-26.5 -77.5
q0 -34 28.5 -51.5t68.5 -17.5q51 0 107.5 23t99.5 58z" />
    <glyph glyph-name="dvmEcandra" unicode="&#x945;" 
d="M-658 1709l74 28q45 -106 115 -158t180 -52q98 0 167 59.5t94 176.5l131 -43q-33 -150 -134 -234.5t-245 -84.5q-127 0 -229 82.5t-153 225.5z" />
    <glyph glyph-name="dvmEshort" unicode="&#x946;" 
d="M-430 1496q-40 0 -78 -2.5t-76 -2.5q-108 1 -179 70.5t-116 225.5l73 23q21 -73 60 -114t109 -41q45 0 89 3.5t89 3.5q120 0 184 -96.5t98 -306.5h-73q-29 139 -67.5 188t-112.5 49z" />
    <glyph glyph-name="dvmE" unicode="&#x947;" 
d="M-661 1651q-74 0 -157 -37l-93 176q90 30 173 30q167 0 295 -131.5t267 -429.5h-91q-43 92 -107 187.5t-103 133.5t-81 54.5t-103 16.5z" />
    <glyph glyph-name="dvmAI" unicode="&#x948;" 
d="M-580 1438q-65 0 -140 -28l-51 140q64 23 139 23q186 2 342 -224l8 3q-59 170 -134 256t-177 86q-56 0 -119 -25l-54 138q71 29 147 29q94 0 164 -49.5t136.5 -173.5t146.5 -354h-130q-62 88 -128.5 133.5t-149.5 45.5z" />
    <glyph glyph-name="dvmOcandra" unicode="&#x949;" horiz-adv-x="483" 
d="M550 1142h-237v-1152h-19l-124 93v1059h-180l-77 112v20h560l77 -112v-20zM-176 1709l74 28q45 -106 115 -158t180 -52q98 0 167 59.5t94 176.5l131 -43q-33 -150 -134 -234.5t-245 -84.5q-127 0 -229 82.5t-153 225.5z" />
    <glyph glyph-name="dvmOshort" unicode="&#x94a;" horiz-adv-x="483" 
d="M550 1142h-237v-1152h-19l-124 93v1059h-180l-77 112v20h322q-26 124 -64.5 173t-112.5 49l-154 -5q-108 1 -179 70.5t-116 225.5l73 23q21 -73 60 -114t109 -41l178 7q119 0 182.5 -93t97.5 -295h164l77 -112v-20z" />
    <glyph glyph-name="dvmO" unicode="&#x94b;" horiz-adv-x="483" 
d="M550 1142h-237v-1152h-19l-124 93v1059h-180l-77 112v20h295q-46 92 -119 199t-128.5 142.5t-139.5 35.5q-79 0 -157 -37l-93 176q95 30 173 30q164 0 291.5 -128.5t263.5 -417.5h174l77 -112v-20z" />
    <glyph glyph-name="dvmAU" unicode="&#x94c;" horiz-adv-x="483" 
d="M550 1142h-237v-1152h-19l-124 93v1059h-180l-77 112v20h260q-59 81 -123.5 122.5t-143.5 41.5q-65 0 -140 -28l-51 140q64 23 139 23q189 0 342 -224l8 3q-59 170 -134 256t-177 86q-56 0 -119 -25l-54 138q71 29 147 29q93 0 162.5 -48.5t135.5 -169t144 -344.5h164
l77 -112v-20z" />
    <glyph glyph-name="dvVirama" unicode="&#x94d;" 
d="M-209 -233q-73 0 -124 -16l-47 144q75 15 121 15q87 0 150 -30t139 -111t213 -258l-62 -32q-107 124 -175.5 186t-115.5 82t-99 20z" />
    <glyph glyph-name="dvmEprishthamatra" unicode="&#x94e;" horiz-adv-x="560" 
d="M627 1142h-237v-1152h-19l-124 93v1059l-77 112v20h380l77 -112v-20z" />
    <glyph glyph-name="dvmAW" unicode="&#x94f;" horiz-adv-x="483" 
d="M550 1142h-237v-1152h-19l-124 93v1059h-180l-77 112v20h246v2q0 60 -47.5 92.5t-124.5 32.5q-41 0 -105 -12q-58 -12 -99 -12q-117 0 -180.5 65t-83.5 189l72 17q18 -71 58.5 -101t114.5 -30q26 0 57.5 5t40.5 6q67 13 111 13q118 0 184 -62t66 -173l-1 -32h39
q12 56 12 102q0 76 -36.5 129t-116.5 92q-111 54 -163 119.5t-52 162.5q0 52 13 111l74 -10l-3 -35q0 -61 42.5 -107.5t149.5 -100.5q187 -98 187 -276q0 -84 -43 -187h148l77 -112v-20z" />
    <glyph glyph-name="dvOm" unicode="&#x950;" horiz-adv-x="1861" 
d="M1074 1603q0 95 88 95q87 0 87 -95q0 -94 -87 -94q-88 0 -88 94zM788 1624l72 25q87 -252 310 -252q218 0 266 273l134 -36q-30 -171 -131.5 -267t-255.5 -96q-82 0 -163.5 41.5t-143.5 121.5t-88 190zM1765 616q0 -95 -34 -184.5t-106 -148t-180 -58.5q-82 0 -179.5 64
t-169.5 161l54 46q62 -66 122.5 -104t132.5 -38q103 0 162.5 89t59.5 242q0 129 -44 208.5t-114 79.5q-41 0 -79 -33.5t-104 -146.5q-48 -80 -84.5 -129t-89 -84t-119.5 -35q-52 0 -95 16q46 -57 70 -124.5t24 -129.5q0 -137 -87.5 -221.5t-231.5 -84.5q-175 0 -328.5 162.5
t-248.5 450.5l88 37q175 -502 439 -502q110 0 173.5 59.5t63.5 164.5q0 74 -36 144.5t-99 118.5q-65 -31 -152 -61l-78 134q162 49 252 127.5t90 168.5q0 68 -42.5 99t-113.5 31q-62 0 -133 -20t-131 -51l-75 145q147 75 283 75q93 0 172.5 -61.5t119 -135.5t39.5 -151
q0 -81 -37.5 -144t-117.5 -114q44 -16 81 -16q75 0 127.5 31.5t86.5 76.5t77 119q38 67 66.5 105.5t69.5 65t98 26.5q91 0 175.5 -69t133.5 -168t49 -233z" />
    <glyph glyph-name="udatta" unicode="&#x951;" 
d="M-296 1795h109v-401h-109v401z" />
    <glyph glyph-name="anudatta" unicode="&#x952;" 
d="M-1045 -157h872v-138h-872v138z" />
    <glyph glyph-name="dvGrave" unicode="&#x953;" 
d="M-512 1719l84 70l273 -321l-84 -70z" />
    <glyph glyph-name="dvAcute" unicode="&#x954;" 
d="M-322 1468l273 321l84 -70l-273 -321z" />
    <glyph glyph-name="dvmEcandralong" unicode="&#x955;" 
d="M-658 1934l74 28q45 -106 115 -158t180 -52q98 0 167 59.5t94 176.5l131 -43q-33 -150 -134 -234.5t-245 -84.5q-127 0 -229 82.5t-153 225.5zM-600 1501v20h640l77 -112v-20h-640z" />
    <glyph glyph-name="dvmUE" unicode="&#x956;" 
d="M-879 -129q64 -47 152 -71.5t179 -24.5q178 0 319 109l111 -103q-182 -132 -397 -132q-124 0 -233 42.5t-194 118.5z" />
    <glyph glyph-name="dvmUUE" unicode="&#x957;" 
d="M-942 -190l63 61q64 -47 152 -71.5t179 -24.5q178 0 319 109l111 -103q-182 -132 -397 -132q-124 0 -233 42.5t-194 118.5zM-942 -476l63 61q64 -47 152 -71.5t179 -24.5q178 0 319 109l111 -103q-182 -132 -397 -132q-124 0 -233 42.5t-194 118.5z" />
    <glyph glyph-name="dvKxA" unicode="&#x958;" horiz-adv-x="1436" 
d="M840 1142v-401q105 90 211 90q128 0 220.5 -95.5t92.5 -249.5q0 -80 -40 -169.5t-99 -157.5l-136 98q66 82 109.5 161t43.5 161q0 58 -31 93t-83 35q-69 0 -141.5 -52t-146.5 -132v-533h-19l-124 93v279q-44 -45 -105 -72.5t-131 -27.5q-88 0 -148.5 29t-121.5 85
q-119 111 -119 253q0 125 91 209t224 84q171 0 310 -110v330h-707l-77 112v20h1513l77 -112v-20h-663zM697 578v140q-59 38 -111.5 54.5t-117.5 16.5q-81 0 -141.5 -34.5t-92 -88t-31.5 -110.5q0 -73 49.5 -118t133.5 -45q86 0 166.5 49.5t144.5 135.5zM239 15
q0 107 104 107q103 0 103 -107q0 -106 -103 -106q-104 0 -104 106z" />
    <glyph glyph-name="dvKHxA" unicode="&#x959;" horiz-adv-x="1493" 
d="M1560 1142h-237v-1152h-19l-124 93v54q-155 -112 -397 -112q-171 0 -327.5 94.5t-268.5 265.5t-112 295q0 55 30.5 87t77.5 32q42 0 73.5 -20t67.5 -60q114 61 114 236q0 100 -49 187h-399l-77 112v20h1570l77 -112v-20zM1180 1142h-682q67 -140 67 -261
q0 -256 -310 -415q140 -300 506 -300q256 0 419 133v126q-72 -56 -171 -56q-88 0 -172.5 45t-140.5 124.5t-56 168.5q0 114 84.5 186.5t214.5 72.5q62 0 125 -24t116 -65v265zM1180 798q-76 33 -160 33q-108 0 -177.5 -51.5t-69.5 -135.5q0 -73 48 -113.5t121 -40.5
q62 0 127 31t111 80v197zM117 -34q0 107 104 107q103 0 103 -107q0 -106 -103 -106q-104 0 -104 106z" />
    <glyph glyph-name="dvGxA" unicode="&#x95a;" horiz-adv-x="1053" 
d="M1120 1142h-237v-1152h-19l-124 93v1059h-379q50 -300 50 -568q0 -186 -106 -186q-81 0 -161 89t-80 177q0 92 98 92q44 0 87 -5q8 64 8 133q0 129 -13 268h-254l-77 112v20h1130l77 -112v-20zM154 140q0 107 104 107q103 0 103 -107q0 -106 -103 -106q-104 0 -104 106z
" />
    <glyph glyph-name="dvJxA" unicode="&#x95b;" horiz-adv-x="1319" 
d="M1386 1142h-237v-1152h-19l-124 93v686h-274q-81 0 -104 4q166 -168 166 -347q0 -116 -62.5 -181t-171.5 -65q-166 0 -296.5 163.5t-216.5 466.5l87 28q83 -260 177.5 -384t191.5 -124q144 0 144 148q0 98 -52.5 193t-133.5 157l35 72h510v242h-1016l-77 112v20h1396
l77 -112v-20zM425 -67q0 107 104 107q103 0 103 -107q0 -106 -103 -106q-104 0 -104 106z" />
    <glyph glyph-name="dvDDxA" unicode="&#x95c;" horiz-adv-x="1043" 
d="M328 672q0 -73 70 -120q65 40 132 59.5t119 19.5q89 0 150.5 -38t111.5 -114t50 -157q0 -83 -40.5 -153.5t-120.5 -112.5t-192 -42q-163 0 -310.5 91.5t-269.5 268.5l74 53q92 -133 204.5 -204.5t227.5 -71.5q137 0 226 61t89 156q0 61 -39 92.5t-97 31.5
q-115 0 -266 -95q-108 65 -175 159.5t-67 183.5q0 104 75.5 161.5t215.5 57.5q67 0 177 -11v194h-683l-77 112v20h1120l77 -112v-20h-292v-304q-103 9 -157 9q-173 0 -253 -48t-80 -127zM429 -233q0 107 104 107q103 0 103 -107q0 -106 -103 -106q-104 0 -104 106z" />
    <glyph glyph-name="dvDDHxA" unicode="&#x95d;" horiz-adv-x="1033" 
d="M249 421q0 -126 86 -209.5t222 -86.5q-49 46 -78.5 114t-29.5 133q0 99 63.5 159t170.5 60q119 0 202 -94.5t83 -205.5q0 -128 -95.5 -209.5t-249.5 -81.5q-116 0 -226 55.5t-200.5 183.5t-90.5 267q0 173 124.5 275.5t334.5 102.5l108 -4v262h-683l-77 112v20h1110
l77 -112v-20h-279v-373q-83 5 -143 5q-201 0 -315 -94.5t-114 -258.5zM587 294q0 -86 52 -161q87 19 142.5 80t55.5 134q0 55 -28 86.5t-74 31.5q-67 0 -107.5 -49t-40.5 -122zM474 -247q0 107 104 107q103 0 103 -107q0 -106 -103 -106q-104 0 -104 106z" />
    <glyph glyph-name="dvPHxA" unicode="&#x95e;" horiz-adv-x="1463" 
d="M857 1142v-400q107 89 221 89q128 0 220.5 -95.5t92.5 -249.5q0 -80 -40 -169.5t-99 -157.5l-136 98q66 82 109.5 161t43.5 161q0 58 -31 93t-83 35q-71 0 -146.5 -52t-151.5 -131v-534h-19l-124 93v339q-89 -58 -179 -58q-68 0 -132 30t-131 96.5t-89.5 129t-22.5 209.5
v313h-170l-77 112v20h1540l77 -112v-20h-673zM714 1142h-407v-462q0 -103 42.5 -142t109.5 -39q63 0 130 30.5t125 85.5v527zM149 164q0 107 104 107q103 0 103 -107q0 -106 -103 -106q-104 0 -104 106z" />
    <glyph glyph-name="dvYxA" unicode="&#x95f;" horiz-adv-x="1123" 
d="M1190 1142h-237v-1152h-19l-125 93v309q-51 -42 -119 -66.5t-137 -24.5q-175 0 -297 111.5t-200 293.5q134 44 207 114.5t73 151.5q0 86 -71 170h-275l-77 112v20h1200l77 -112v-20zM809 1142h-437q108 -133 108 -240q0 -61 -23 -106.5t-66 -84t-121 -93.5
q-25 -18 -25 -44q0 -52 71.5 -94t165.5 -42q92 0 177.5 42t149.5 117v545zM259 54q0 107 104 107q103 0 103 -107q0 -106 -103 -106q-104 0 -104 106z" />
    <glyph glyph-name="dvvRR" unicode="&#x960;" horiz-adv-x="1644" 
d="M916 1142v-508q93 4 158 36.5t100 81.5q-20 36 -20 81q0 59 35 95t91 36q57 0 96 -44.5t39 -109.5q0 -79 -72 -130l160 -197q-152 -58 -220.5 -108.5t-68.5 -113.5q0 -62 64 -85q62 72 222 122l66 -124q-104 -36 -161 -76t-57 -89q0 -27 19 -41t49 -14q55 0 120.5 27.5
t98.5 55.5l66 -131q-115 -70 -222 -70q-81 0 -162 74.5t-81 149.5q0 28 7 49q-68 31 -105.5 82.5t-37.5 116.5q0 85 62 141.5t165 101.5l-68 78q-50 -34 -133.5 -58t-177.5 -24l-32 2v-559h-19l-124 93v206l3 182l-498 -312l-112 132l554 303q-85 107 -146.5 144.5
t-141.5 37.5q-100 0 -257 -88l-101 157q170 88 298 88q118 0 202 -57.5t199 -209.5v476h-783l-77 112v20h1721l77 -112v-20h-795z" />
    <glyph glyph-name="dvvLL" unicode="&#x961;" horiz-adv-x="1327" 
d="M1447 -192q-115 -70 -222 -70q-81 0 -162 74.5t-81 149.5q0 28 8 55q-34 15 -69 44t-55 69t-20 87q0 43 17 80t41 65t65 68q39 38 61 63t37 57t15 68q0 59 -38.5 98t-98.5 39q-96 0 -156 -76t-60 -201l4 -77l-161 32q-5 37 -5 75q0 87 31 160q-68 41 -138 41
q-90 0 -147.5 -60t-57.5 -156q0 -110 62 -212.5t220 -232.5l-62 -69q-382 317 -382 592q0 129 74.5 207t198.5 78q141 0 275 -113q87 112 238 118v281h-889l-77 112v20h1404l77 -112v-20h-372v-310q79 -37 140.5 -121.5t61.5 -166.5q0 -44 -20 -84t-48 -72t-73 -76
q-54 -52 -80.5 -87t-26.5 -71q0 -51 53 -71q63 69 217 117l66 -124q-104 -36 -161 -76t-57 -89q0 -27 19 -41t49 -14q55 0 120.5 27.5t98.5 55.5z" />
    <glyph glyph-name="dvmvL" unicode="&#x962;" 
d="M239 -564q-62 -79 -143 -79q-63 0 -137.5 60.5t-74.5 131.5q0 39 20.5 71.5t59.5 74.5q37 41 55 69t18 61q0 35 -20.5 56.5t-54.5 21.5q-56 0 -92 -43t-36 -120q0 -31 5 -59l-118 23q-5 31 -5 68q0 44 14 86q-37 21 -74 21q-49 0 -82 -34.5t-33 -90.5q0 -57 26.5 -103.5
t77.5 -99.5l-57 -54q-171 164 -171 314q0 84 49 135t129 51q89 0 173 -69q59 72 161 72q80 0 155.5 -68.5t75.5 -150.5q0 -48 -24.5 -88t-69.5 -90q-35 -40 -51 -63.5t-16 -48.5q0 -37 37 -37q53 0 117 62z" />
    <glyph glyph-name="dvmvLL" unicode="&#x963;" 
d="M372 -687q-62 -79 -143 -79q-60 0 -131.5 56t-71.5 124v5q-119 71 -119 163q0 34 17 62.5t51 65.5q31 36 46.5 61t15.5 54q0 35 -20.5 56.5t-54.5 21.5q-56 0 -92 -43t-36 -120q0 -31 5 -59l-118 23q-5 31 -5 68q0 44 14 86q-37 21 -74 21q-49 0 -82 -34.5t-33 -90.5
q0 -57 26.5 -103.5t77.5 -99.5l-57 -54q-171 164 -171 314q0 84 49 135t129 51q89 0 173 -69q59 72 161 72q80 0 155.5 -68.5t75.5 -150.5q0 -42 -21.5 -77t-61.5 -79q-31 -35 -45 -56t-14 -42q0 -38 38 -42q46 52 121 76l88 -92q-62 -21 -95 -52t-33 -61q0 -25 32 -25
q53 0 117 62z" />
    <glyph glyph-name="uni0964" unicode="&#x964;" horiz-adv-x="756" 
d="M398 83v1191h19l124 -93v-1191h-19z" />
    <glyph glyph-name="uni0965" unicode="&#x965;" horiz-adv-x="1205" 
d="M398 83v1191h19l124 -93v-1191h-19zM847 83v1191h19l124 -93v-1191h-19z" />
    <glyph glyph-name="dvZero" unicode="&#x966;" horiz-adv-x="1042" 
d="M110 630q0 177 117 294t294 117q147 0 279 -132t132 -279q0 -177 -117 -294t-294 -117q-102 0 -194.5 65t-154.5 156.5t-62 189.5zM801 708q0 92 -56.5 143t-145.5 51q-85 0 -168.5 -51t-136.5 -130.5t-53 -159.5q0 -93 56 -149.5t146 -56.5q80 0 164 51.5t139 133.5
t55 168z" />
    <glyph glyph-name="dvOne" unicode="&#x967;" horiz-adv-x="818" 
d="M633 53q0 -89 -82 -180l-144 109q26 31 37.5 53t11.5 48q0 54 -57 128t-210 201l-76 66q18 18 55 46l167 130q-246 178 -246 379q0 64 30.5 122.5t93 95.5t153.5 37q78 0 138.5 -33.5t118 -97t81 -116.5t23.5 -124q0 -94 -94.5 -213.5t-315.5 -288.5l35 -25
q78 -55 135 -102t101.5 -108.5t44.5 -126.5zM405 714q181 164 181 288q0 64 -40.5 103.5t-107.5 39.5q-85 0 -140 -56.5t-55 -141.5q0 -66 42 -128t120 -105z" />
    <glyph glyph-name="dvTwo" unicode="&#x968;" horiz-adv-x="1035" 
d="M520 428q228 -427 249 -470l-177 -59q-52 156 -125 360l-52 149q-29 -4 -66 -4q-84 0 -143 47.5t-59 119.5q0 49 36 84t101 35q81 0 148 -95q148 50 234.5 139t86.5 190q0 88 -62 144t-158 56q-65 0 -135 -25.5t-120 -61.5l-109 140q63 50 142 79.5t153 29.5
q108 0 211 -78.5t164.5 -180.5t61.5 -220q0 -120 -107 -226t-274 -153z" />
    <glyph glyph-name="dvThree" unicode="&#x969;" horiz-adv-x="982" 
d="M519 132q70 -106 151 -250l-170 -55l-93 303q-128 10 -206 63t-78 134q0 45 33 75.5t85 30.5q101 0 190 -153q132 5 198.5 61.5t66.5 149.5q0 53 -29.5 107t-82.5 97q-110 -43 -239 -64l-116 153q185 34 311 87.5t126 138.5q0 61 -41 96t-109 35q-65 0 -137.5 -21.5
t-127.5 -57.5l-108 147q62 41 139.5 65t150.5 24q95 0 180 -59t143 -145t58 -166q0 -110 -139 -190q100 -80 143.5 -155t43.5 -153q0 -119 -95.5 -200.5t-247.5 -97.5z" />
    <glyph glyph-name="dvFour" unicode="&#x96a;" horiz-adv-x="1108" 
d="M954 244q0 -78 -40 -135.5t-103 -87.5t-130 -30q-134 0 -247.5 60.5t-172 133.5t-58.5 177q0 150 188 306q-129 78 -201 156.5t-72 178.5q0 125 81.5 194.5t169.5 100.5l118 -124q-89 -45 -143 -94t-54 -122q0 -60 48.5 -112t140.5 -111l119 81q97 64 152.5 106t92.5 88
t37 91q0 30 -9 55t-20 41t-12 16l58 51q140 -85 140 -217q0 -69 -44 -129.5t-108.5 -109.5t-173.5 -119l-74 -49q181 -111 249 -203t68 -193zM791 313q0 72 -63 132.5t-181 130.5q-172 -130 -172 -260q0 -83 56 -137t141 -54q92 0 155.5 54.5t63.5 133.5z" />
    <glyph glyph-name="dvFive" unicode="&#x96b;" horiz-adv-x="1043" 
d="M941 -83q-36 65 -107 231t-102 263q-79 -41 -173 -41q-128 0 -220.5 63t-156.5 164.5t-64 228.5q0 98 52.5 223t160.5 250l156 -91q-211 -245 -211 -485q0 -98 60.5 -162.5t148.5 -64.5q54 0 103.5 18.5t80.5 56.5q-34 59 -34 126q0 71 36.5 107t87.5 36q59 0 100 -48.5
t41 -122.5q0 -114 -85 -199q129 -249 288 -464z" />
    <glyph glyph-name="dvSix" unicode="&#x96c;" horiz-adv-x="1030" 
d="M1009 -83l-150 -87q-28 51 -73 166.5t-60 175.5q-64 -23 -131 -23q-88 0 -159.5 27.5t-142 90.5t-110.5 126t-40 147q0 142 134 233q-69 52 -108 118t-39 140q0 122 88 193t242 71q110 0 212 -23l63 -164q-142 28 -256 28q-84 0 -139.5 -43t-55.5 -122q0 -77 78 -155
q113 45 256 46l59 -158q-81 -2 -168.5 -25.5t-149.5 -76.5t-62 -136q0 -81 56.5 -132t140.5 -51q41 0 93 13t92 42q-11 38 -11 67q0 71 36.5 107t87.5 36q64 0 112.5 -50.5t48.5 -120.5q0 -61 -39 -107.5t-105 -74.5q33 -59 92.5 -141.5t107.5 -136.5z" />
    <glyph glyph-name="dvSeven" unicode="&#x96d;" horiz-adv-x="1228" 
d="M1108 601q0 -180 -60 -302t-150.5 -180t-180.5 -58q-188 0 -329.5 129.5t-221.5 401.5t-80 684l94 20q23 -387 92.5 -628t169.5 -347t223 -106q97 0 170 81.5t99 220.5q-110 3 -228 51.5t-198 142t-80 224.5q0 114 65 180t174 66q153 0 297 -157t144 -423zM945 608l2 56
q0 183 -58 285.5t-160 102.5q-56 0 -92.5 -43t-36.5 -111q0 -111 95.5 -191t249.5 -99z" />
    <glyph glyph-name="dvEight" unicode="&#x96e;" horiz-adv-x="1068" 
d="M114 509q0 75 48 152.5t132 162t263 249.5l225 208l130 -125l-203 -186q-177 -162 -259.5 -244t-128 -156.5t-45.5 -148.5q0 -97 62.5 -155t168.5 -58q107 0 205.5 68.5t173.5 160.5l129 -120q0 -8 -64 -75.5t-162.5 -124.5t-216.5 -57q-82 0 -151 34t-152 110.5
t-119 152t-36 152.5z" />
    <glyph glyph-name="dvNine" unicode="&#x96f;" horiz-adv-x="878" 
d="M784 142q0 -53 -29.5 -105.5t-101.5 -112.5l-148 103q94 84 94 153q0 44 -24.5 86.5t-62.5 82t-110 105.5q-117 106 -189 186q-121 137 -121 299q0 85 41 160.5t115 121t169 45.5q103 0 182 -45t137.5 -128t58.5 -181q0 -120 -107.5 -206t-284.5 -110q30 -30 68 -60
l78 -69q83 -71 129.5 -117.5t76 -98.5t29.5 -109zM266 878q0 -78 33 -146q157 16 254.5 84t97.5 163q0 68 -43.5 112.5t-110.5 44.5q-74 0 -126 -39.5t-78.5 -99t-26.5 -119.5z" />
    <glyph glyph-name="dvAbbreviationsign" unicode="&#x970;" horiz-adv-x="872" 
d="M147 850q0 118 85.5 206t201.5 88q129 0 209.5 -77t80.5 -200q0 -119 -88 -206.5t-197 -87.5q-130 0 -211 77.5t-81 199.5zM621 861q0 90 -53 148.5t-136 58.5q-80 0 -130 -58.5t-50 -149.5q0 -90 54 -148.5t138 -58.5q79 0 128 58.5t49 149.5z" />
    <glyph glyph-name="dvHighspacingdot" unicode="&#x971;" horiz-adv-x="651" 
d="M225 1206q0 109 101 109q100 0 100 -109q0 -108 -100 -108q-101 0 -101 108z" />
    <glyph glyph-name="dvAcandra" unicode="&#x972;" horiz-adv-x="1382" 
d="M1449 1142h-237v-1152h-19l-124 93v509q-61 -23 -122 -23q-119 0 -234 77q70 -95 70 -217q0 -114 -76.5 -183.5t-203.5 -69.5q-161 0 -283.5 131t-199.5 337l82 33q68 -170 158.5 -262t211.5 -92q77 0 128 48t51 119q0 61 -25 120.5t-71 100.5q-44 -18 -134 -45l-70 140
q177 46 246 94.5t69 119.5q0 58 -38.5 91t-98.5 33q-105 0 -255 -68l-75 145q132 63 256 63q95 0 168.5 -51.5t113 -124.5t39.5 -147q0 -71 -34 -122.5t-109 -91.5q110 -50 218 -50q129 0 218 69v376h-171l-77 112v20h551l77 -112v-20zM761 1709l74 28q45 -106 115 -158
t180 -52q98 0 167 59.5t94 176.5l131 -43q-33 -150 -134 -234.5t-245 -84.5q-127 0 -229 82.5t-153 225.5z" />
    <glyph glyph-name="dvOE" unicode="&#x973;" horiz-adv-x="1382" 
d="M1449 1142h-237v-1152h-19l-124 93v509q-61 -23 -122 -23q-119 0 -234 77q70 -95 70 -217q0 -114 -76.5 -183.5t-203.5 -69.5q-161 0 -283.5 131t-199.5 337l82 33q68 -170 158.5 -262t211.5 -92q77 0 128 48t51 119q0 61 -25 120.5t-71 100.5q-44 -18 -134 -45l-70 140
q177 46 246 94.5t69 119.5q0 58 -38.5 91t-98.5 33q-105 0 -255 -68l-75 145q132 63 256 63q95 0 168.5 -51.5t113 -124.5t39.5 -147q0 -71 -34 -122.5t-109 -91.5q110 -50 218 -50q129 0 218 69v376h-171l-77 112v20h248v333h19l124 -93v-240h160l77 -112v-20z" />
    <glyph glyph-name="dvOOE" unicode="&#x974;" horiz-adv-x="1865" 
d="M1932 1142h-237v-1152h-19l-124 93v1059h-340v-1152h-19l-124 93v509q-61 -23 -122 -23q-119 0 -234 77q70 -95 70 -217q0 -114 -76.5 -183.5t-203.5 -69.5q-161 0 -283.5 131t-199.5 337l82 33q68 -170 158.5 -262t211.5 -92q77 0 128 48t51 119q0 61 -25 120.5
t-71 100.5q-44 -18 -134 -45l-70 140q177 46 246 94.5t69 119.5q0 58 -38.5 91t-98.5 33q-105 0 -255 -68l-75 145q132 63 256 63q95 0 168.5 -51.5t113 -124.5t39.5 -147q0 -71 -34 -122.5t-109 -91.5q110 -50 218 -50q129 0 218 69v376h-171l-77 112v20h731v333h19
l124 -93v-240h160l77 -112v-20z" />
    <glyph glyph-name="dvAW" unicode="&#x975;" horiz-adv-x="1865" 
d="M1932 1142h-237v-1152h-19l-124 93v1059h-340v-1152h-19l-124 93v509q-61 -23 -122 -23q-119 0 -234 77q70 -95 70 -217q0 -114 -76.5 -183.5t-203.5 -69.5q-161 0 -283.5 131t-199.5 337l82 33q68 -170 158.5 -262t211.5 -92q77 0 128 48t51 119q0 61 -25 120.5
t-71 100.5q-44 -18 -134 -45l-70 140q177 46 246 94.5t69 119.5q0 58 -38.5 91t-98.5 33q-105 0 -255 -68l-75 145q132 63 256 63q95 0 168.5 -51.5t113 -124.5t39.5 -147q0 -71 -34 -122.5t-109 -91.5q110 -50 218 -50q129 0 218 69v376h-171l-77 112v20h720v2
q0 60 -47.5 92.5t-124.5 32.5q-41 0 -105 -12q-58 -12 -99 -12q-117 0 -180.5 65t-83.5 189l72 17q18 -71 58.5 -101t114.5 -30q26 0 57.5 5t40.5 6q67 13 111 13q118 0 184 -62t66 -173l-1 -32h39q12 56 12 102q0 76 -36.5 129t-116.5 92q-111 54 -163 119.5t-52 162.5
q0 52 13 111l74 -10l-3 -35q0 -61 42.5 -107.5t149.5 -100.5q187 -98 187 -276q0 -84 -43 -187h148l77 -112v-20z" />
    <glyph glyph-name="dvUE" unicode="&#x976;" horiz-adv-x="1382" 
d="M1449 1142h-237v-1152h-19l-124 93v509q-61 -23 -122 -23q-119 0 -234 77q70 -95 70 -217q0 -114 -76.5 -183.5t-203.5 -69.5q-161 0 -283.5 131t-199.5 337l82 33q68 -170 158.5 -262t211.5 -92q77 0 128 48t51 119q0 61 -25 120.5t-71 100.5q-44 -18 -134 -45l-70 140
q177 46 246 94.5t69 119.5q0 58 -38.5 91t-98.5 33q-105 0 -255 -68l-75 145q132 63 256 63q95 0 168.5 -51.5t113 -124.5t39.5 -147q0 -71 -34 -122.5t-109 -91.5q110 -50 218 -50q129 0 218 69v376h-171l-77 112v20h551l77 -112v-20zM411 -129q64 -47 152 -71.5t179 -24.5
q178 0 319 109l111 -103q-182 -132 -397 -132q-124 0 -233 42.5t-194 118.5z" />
    <glyph glyph-name="dvUUE" unicode="&#x977;" horiz-adv-x="1382" 
d="M1449 1142h-237v-1152h-19l-124 93v509q-61 -23 -122 -23q-119 0 -234 77q70 -95 70 -217q0 -114 -76.5 -183.5t-203.5 -69.5q-161 0 -283.5 131t-199.5 337l82 33q68 -170 158.5 -262t211.5 -92q77 0 128 48t51 119q0 61 -25 120.5t-71 100.5q-44 -18 -134 -45l-70 140
q177 46 246 94.5t69 119.5q0 58 -38.5 91t-98.5 33q-105 0 -255 -68l-75 145q132 63 256 63q95 0 168.5 -51.5t113 -124.5t39.5 -147q0 -71 -34 -122.5t-109 -91.5q110 -50 218 -50q129 0 218 69v376h-171l-77 112v20h551l77 -112v-20zM348 -190l63 61q64 -47 152 -71.5
t179 -24.5q178 0 319 109l111 -103q-182 -132 -397 -132q-124 0 -233 42.5t-194 118.5zM348 -476l63 61q64 -47 152 -71.5t179 -24.5q178 0 319 109l111 -103q-182 -132 -397 -132q-124 0 -233 42.5t-194 118.5z" />
    <glyph glyph-name="dvDDAmarwari" unicode="&#x978;" horiz-adv-x="1120" 
d="M382 1142v-347q52 6 102 6q116 0 224.5 -50.5t177 -142t68.5 -185.5q0 -115 -101 -231t-276 -212l-127 114q173 86 271 189.5t98 209.5q0 76 -66.5 125t-167.5 49q-105 0 -203 -48v-114q0 -90 -82 -90q-74 0 -136 67t-62 147q0 85 136 134v379h-248l-77 112v20h1197
l77 -112v-20h-805z" />
    <glyph glyph-name="dvZHA" unicode="&#x979;" horiz-adv-x="1319" 
d="M1386 1142h-237v-1152h-19l-124 93v686h-274q-81 0 -104 4q166 -168 166 -347q0 -116 -62.5 -181t-171.5 -65q-166 0 -296.5 163.5t-216.5 466.5l87 28q83 -260 177.5 -384t191.5 -124q144 0 144 148q0 98 -52.5 193t-133.5 157l35 72h510v242h-1016l-77 112v20h1396
l77 -112v-20zM383 -49q0 -101 -98 -101q-99 0 -99 101q0 102 99 102q98 0 98 -102zM820 -49q0 -101 -98 -101q-99 0 -99 101q0 102 99 102q98 0 98 -102zM601 -298q0 -101 -98 -101q-99 0 -99 101q0 102 99 102q98 0 98 -102z" />
    <glyph glyph-name="dvYAheavy" unicode="&#x97a;" horiz-adv-x="1123" 
d="M1190 1142h-237v-1152h-19l-125 93v309q-51 -42 -119 -66.5t-137 -24.5q-175 0 -297 111.5t-200 293.5q134 44 207 114.5t73 151.5q0 86 -71 170h-275l-77 112v20h1200l77 -112v-20zM809 1142h-436l436 -542v542zM741 532l-264 331q-9 -60 -47.5 -109.5t-159.5 -135.5
q-25 -18 -25 -44q0 -52 71.5 -94t165.5 -42q142 0 259 94z" />
    <glyph glyph-name="dvGAbar" unicode="&#x97b;" horiz-adv-x="1053" 
d="M883 1142v-1038l72 -104v-20h-825l-72 104v20h682v1038h-379q50 -300 50 -568q0 -186 -106 -186q-81 0 -161 89t-80 177q0 92 98 92q44 0 87 -5q8 64 8 133q0 129 -13 268h-254l-77 112v20h1130l77 -112v-20h-237z" />
    <glyph glyph-name="dvJAbar" unicode="&#x97c;" horiz-adv-x="1319" 
d="M1149 1142v-1038l72 -104v-20h-1110l-72 104v20h967v665h-274q-81 0 -104 4q98 -110 98 -248q0 -102 -64 -162.5t-171 -60.5q-143 0 -256 131.5t-188 376.5l87 28q69 -203 148 -294.5t162 -91.5q60 0 97 36.5t37 100.5q0 67 -33 132.5t-84 106.5l35 72h510v242h-1016
l-77 112v20h1396l77 -112v-20h-237z" />
    <glyph glyph-name="dvGlottalstop" unicode="&#x97d;" horiz-adv-x="961" 
d="M365 92v443q0 77 25.5 134.5t84.5 116.5q126 125 157 166t31 89t-34.5 77t-92.5 29q-122 0 -275 -108l-101 126q57 45 134 75.5t155 30.5q88 0 156 -38t126 -106t58 -152q0 -56 -33.5 -109t-140.5 -164q-43 -43 -63.5 -71t-32 -70.5t-11.5 -112.5v-448h-19z" />
    <glyph glyph-name="dvDDAbar" unicode="&#x97e;" horiz-adv-x="1043" 
d="M1110 1162v-20h-292v-304q-103 9 -157 9q-173 0 -253 -45.5t-80 -121.5q0 -29 18.5 -55.5t51.5 -44.5q65 40 132 59.5t119 19.5q85 0 145 -35t113.5 -109t53.5 -153q0 -129 -97.5 -209t-255.5 -80q-163 0 -310.5 91.5t-269.5 268.5l74 53q92 -133 204.5 -204.5
t227.5 -71.5q138 0 226.5 56t88.5 142q0 55 -39 83.5t-97 28.5q-117 0 -266 -95q-109 62 -175.5 150.5t-66.5 172.5q0 100 75.5 155.5t215.5 55.5q67 0 177 -11v194h-683l-77 112v20h1120zM938 -75l72 -104v-20h-866l-72 104v20h866z" />
    <glyph glyph-name="dvBAbar" unicode="&#x97f;" horiz-adv-x="1024" 
d="M854 1142v-1038l72 -104v-20h-784l-72 104v20h651v276q-96 -85 -220 -85q-100 0 -168.5 31.5t-135.5 94.5q-125 119 -125 270q0 90 46.5 158.5t122 105.5t160.5 37q170 0 310 -110v260h-721l-77 112v20h1101l77 -112v-20h-237zM711 574v215q-60 38 -114 55.5t-117 17.5
q-53 0 -98 -14l250 -350q46 36 79 76zM547 447l-252 356q-45 -35 -69.5 -83.5t-24.5 -98.5q0 -90 62.5 -145t162.5 -55q61 0 121 26z" />
    <glyph glyph-name="uni1CD0" unicode="&#x1cd0;" 
d="M-44 1551l-290 342l-297 -350l-141 101l381 456l407 -491z" />
    <glyph glyph-name="uni1CD1" unicode="&#x1cd1;" 
d="M-24 1609l-60 -58l-290 342l-297 -350l-141 101l381 456zM-414 1800l111 -83v-343h-19l-111 83v343h19z" />
    <glyph glyph-name="uni1CD2" unicode="&#x1cd2;" 
d="M7 1754h-660l-87 126v20h660l87 -126v-20z" />
    <glyph glyph-name="uni1CD3" unicode="&#x1cd3;" horiz-adv-x="562" 
d="M212 1350h-110l60 486h110zM437 1350h-110l60 486h110z" />
    <glyph glyph-name="uni1CD4" unicode="&#x1cd4;" 
d="M66 537h-583l-87 126v20h583l87 -126v-20z" />
    <glyph glyph-name="uni1CD5" unicode="&#x1cd5;" 
d="M-78 -279q0 -95 -58.5 -152.5t-156.5 -57.5q-108 0 -183 78q-32 -36 -78.5 -56.5t-99.5 -20.5q-119 0 -208.5 79.5t-89.5 185.5q0 88 69 186l147 -93q-71 -97 -71 -169q0 -43 29 -67.5t68 -24.5q62 0 103 47.5t41 122.5v118l142 -60v-110q0 -36 -11 -69q46 -33 111 -33
q59 0 97 37.5t38 95.5q0 78 -62 150l62 50q111 -118 111 -237z" />
    <glyph glyph-name="uni1CD6" unicode="&#x1cd6;" 
d="M-137 -455v-20h-660l-87 126v315h19l124 -93v-202h517z" />
    <glyph glyph-name="uni1CD7" unicode="&#x1cd7;" 
d="M-804 -335q0 -45 50 -45h513l87 -126v-20h-510q-63 0 -125 40.5t-101 102.5t-39 120q0 90 78.5 150t211.5 70l51 -152q-88 0 -152 -42t-64 -98z" />
    <glyph glyph-name="uni1CD8" unicode="&#x1cd8;" 
d="M-658 -221l74 28q45 -106 115 -158t180 -52q98 0 167 59.5t94 176.5l131 -43q-33 -150 -134 -234.5t-245 -84.5q-127 0 -229 82.5t-153 225.5z" />
    <glyph glyph-name="uni1CD9" unicode="&#x1cd9;" 
d="M70 -440l-267 223l-280 -221l-131 111l361 269l377 -324z" />
    <glyph glyph-name="uni1CDA" unicode="&#x1cda;" 
d="M-458 1785h139v-411h-139v411zM-212 1785h139v-411h-139v411z" />
    <glyph glyph-name="uni1CDB" unicode="&#x1cdb;" 
d="M-554 1785h130v-411h-130v411zM-331 1785h130v-411h-130v411zM-108 1785h130v-411h-130v411z" />
    <glyph glyph-name="uni1CDC" unicode="&#x1cdc;" 
d="M-337 -434v380h19l124 -93v-380h-19z" />
    <glyph glyph-name="uni1CDD" unicode="&#x1cdd;" 
d="M-420 -356l161 169l161 -169l-161 -169z" />
    <glyph glyph-name="uni1CDE" unicode="&#x1cde;" 
d="M-656 -255q0 47 31.5 80t75.5 33t75.5 -33t31.5 -80t-31.5 -80t-75.5 -33t-75.5 33t-31.5 80zM-366 -255q0 47 31.5 80t75.5 33q45 0 76 -33t31 -80t-31.5 -80t-75.5 -33t-75.5 33t-31.5 80z" />
    <glyph glyph-name="uni1CDF" unicode="&#x1cdf;" 
d="M-946 -255q0 47 31.5 80t75.5 33q45 0 76 -33t31 -80t-31.5 -80t-75.5 -33q-45 0 -76 33t-31 80zM-656 -255q0 47 31.5 80t75.5 33t75.5 -33t31.5 -80t-31.5 -80t-75.5 -33t-75.5 33t-31.5 80zM-366 -255q0 47 31.5 80t75.5 33q45 0 76 -33t31 -80t-31.5 -80t-75.5 -33
t-75.5 33t-31.5 80z" />
    <glyph glyph-name="uni1CE0" unicode="&#x1ce0;" horiz-adv-x="905" 
d="M386 1486q-88 0 -145 -35t-57 -89q0 -80 116 -80q65 0 133 29l38 -160q-44 -16 -93 -16q-114 0 -206.5 83t-92.5 186q0 101 77.5 164.5t196.5 63.5h455l87 -126v-20h-509z" />
    <glyph glyph-name="uni1CE1" unicode="&#x1ce1;" horiz-adv-x="811" 
d="M574 1753q111 0 183.5 -79.5t119.5 -221.5l-74 -31q-35 70 -82 105t-96 35q-88 0 -128 -63t-40 -231q0 -105 10 -218.5t31 -295.5q24 -206 36.5 -354t12.5 -299q0 -194 -88.5 -312t-233.5 -118t-306 123l47 80q111 -48 187 -48q205 0 205 335q0 129 -11.5 260t-34.5 326
q-22 193 -33 318.5t-11 248.5q0 209 69.5 324.5t236.5 115.5z" />
    <glyph glyph-name="uni1CE2" unicode="&#x1ce2;" 
d="M35 512v-20h-549l-87 126v20h549z" />
    <glyph glyph-name="uni1CE3" unicode="&#x1ce3;" horiz-adv-x="419" 
d="M354 741q0 -109 -82 -178.5t-209 -69.5h-288l-87 126v20h308q197 0 197 144q0 149 -277 344l59 72q171 -113 275 -223.5t104 -234.5z" />
    <glyph glyph-name="uni1CE4" unicode="&#x1ce4;" horiz-adv-x="409" 
d="M210 705q0 -35 19.5 -50.5t61.5 -15.5h344l87 -126v-20h-378q-106 0 -191.5 78.5t-85.5 179.5q0 111 104 235t265 211l91 -140q-141 -61 -229 -158.5t-88 -193.5z" />
    <glyph glyph-name="uni1CE5" unicode="&#x1ce5;" horiz-adv-x="420" 
d="M74 391q0 109 82 178.5t209 69.5h288l87 -126v-20h-308q-197 0 -197 -144q0 -149 277 -344l-59 -72q-171 113 -275 223.5t-104 234.5z" />
    <glyph glyph-name="uni1CE6" unicode="&#x1ce6;" horiz-adv-x="429" 
d="M207 427q0 35 -19.5 50.5t-61.5 15.5h-344l-87 126v20h378q106 0 193 -79.5t87 -180.5q0 -111 -103.5 -233.5t-268.5 -212.5l-110 142q143 62 239.5 161.5t96.5 190.5z" />
    <glyph glyph-name="uni1CE7" unicode="&#x1ce7;" horiz-adv-x="559" 
d="M280 753q0 42 -26 85t-122 136l-61 58q-65 60 -101.5 100.5t-62 90.5t-25.5 107q0 97 64.5 160.5t164.5 63.5q110 0 197 -68t166 -222l-76 -36q-105 208 -239 208q-64 0 -101 -41t-37 -108q0 -46 23 -85.5t102 -109.5q153 -142 221 -228.5t68 -164.5q0 -92 -81.5 -145.5
t-215.5 -53.5h-333l-77 112v20h379q84 0 128.5 31t44.5 90z" />
    <glyph glyph-name="uni1CE8" unicode="&#x1ce8;" horiz-adv-x="430" 
d="M-62 -95l70 47q104 -150 168 -195t144 -45q77 0 128 42t51 107t-28.5 119.5t-69.5 96t-110 101.5q-64 55 -100.5 92t-62 83.5t-25.5 99.5q0 86 59 135.5t154 49.5h337l74 -110v-18h-341q-55 0 -88.5 -26t-33.5 -76q0 -48 30.5 -96.5t130.5 -134.5q71 -62 115.5 -110
t76 -113t31.5 -145q0 -116 -80.5 -177t-209.5 -61q-97 0 -174.5 47.5t-133.5 118.5t-112 168z" />
    <glyph glyph-name="uni1CE9" unicode="&#x1ce9;" horiz-adv-x="1657" 
d="M802 986q0 -107 -99 -179.5t-267 -97.5l-53 167q126 9 210 67.5t84 138.5q0 91 -96 91q-94 0 -166.5 -73.5t-112.5 -193t-40 -252.5q0 -256 132.5 -394t386.5 -138q186 0 335 93t232.5 243t83.5 313q0 202 -54.5 289.5t-154.5 87.5q-66 0 -109.5 -41t-43.5 -104
q0 -82 77.5 -133t202.5 -60l-6 -81q-109 1 -208 47.5t-160 126.5t-61 175q0 96 61.5 151t172.5 55q186 0 297 -163.5t111 -440.5q0 -313 -193.5 -501.5t-514.5 -188.5q-208 0 -379.5 100t-270.5 273.5t-99 384.5q0 146 50.5 268.5t146 195t225.5 72.5q123 0 201.5 -83.5
t78.5 -214.5z" />
    <glyph glyph-name="uni1CEA" unicode="&#x1cea;" horiz-adv-x="1513" 
d="M166 442q0 65 24.5 115t59.5 85.5t96 86.5q62 50 99.5 88t63 92t25.5 124q0 56 -29.5 85.5t-85.5 29.5q-79 0 -134 -46.5t-55 -111.5q0 -40 26 -78.5t79 -67.5l-35 -50q-108 47 -165.5 124t-57.5 159q0 95 70.5 153t185.5 58q78 0 159 -53t134.5 -135t53.5 -163
q0 -67 -28 -124t-68 -101.5t-106 -105.5q-58 -54 -91.5 -90.5t-56 -80t-22.5 -90.5q0 -219 422 -219q201 0 308.5 75t107.5 209q0 68 -30 134t-123 173q-49 58 -78.5 98.5t-49.5 90.5t-20 107q0 128 86.5 206t226.5 78q114 0 201 -84t87 -196q0 -82 -66.5 -136.5
t-186.5 -76.5l-70 153q84 9 143 50t59 92q0 30 -22.5 51t-65.5 21q-97 0 -161 -58t-64 -146q0 -52 18 -98t44 -84t73 -97q53 -65 85 -112.5t54.5 -109.5t22.5 -136q0 -94 -62 -171.5t-181.5 -123t-283.5 -45.5q-155 0 -297.5 57.5t-230.5 161t-88 233.5z" />
    <glyph glyph-name="uni1CEB" unicode="&#x1ceb;" horiz-adv-x="1538" 
d="M203 442q0 65 22.5 115t55 86t88.5 86q57 51 91 89t57.5 91.5t23.5 123.5q0 56 -29.5 85.5t-85.5 29.5q-78 0 -133 -46t-55 -111q0 -87 106 -147l-39 -63q-108 50 -165 129.5t-57 161.5q0 96 71 156t186 60q78 0 159 -53t134.5 -135t53.5 -163q0 -69 -26 -127.5
t-63.5 -103.5t-98.5 -106q-54 -54 -83.5 -88.5t-50 -77t-20.5 -89.5q0 -101 101 -159t273 -58q169 0 309 83t220.5 228t80.5 321q0 278 -184 278q-73 0 -125.5 -46.5t-52.5 -115.5q0 -85 73.5 -125.5t199.5 -60.5l-13 -74q-188 17 -301 102t-113 214q0 110 65.5 176
t170.5 66q183 0 296.5 -142t113.5 -375q0 -192 -83 -344t-231.5 -237.5t-337.5 -85.5q-166 0 -304.5 62t-219 166t-80.5 224z" />
    <glyph glyph-name="uni1CEC" unicode="&#x1cec;" horiz-adv-x="1696" 
d="M1663 255q0 -82 -38 -153.5t-99 -111.5l-150 121q62 33 98.5 87.5t36.5 108.5q0 70 -33 114t-100 77q-55 -236 -219 -373t-393 -137q-155 0 -284.5 64.5t-204 169t-74.5 220.5q0 65 22.5 115t55 86t88.5 86q57 51 91 89t57.5 91.5t23.5 123.5q0 56 -29.5 85.5t-85.5 29.5
q-78 0 -133 -46t-55 -111q0 -87 106 -147l-39 -63q-108 50 -165 129.5t-57 161.5q0 96 71 156t186 60q78 0 159 -53t134.5 -135t53.5 -163q0 -63 -25.5 -119t-61.5 -100t-96 -106q-97 -100 -128 -156t-31 -111q0 -97 89.5 -158.5t229.5 -61.5q195 0 346 115t219 314
q-201 69 -313.5 158.5t-112.5 219.5q0 110 65.5 176t170.5 66q164 0 262.5 -130t98.5 -342q0 -65 -7 -118q137 -62 203.5 -140.5t66.5 -188.5zM1252 638q19 83 19 178q0 222 -136 222q-70 0 -119 -49t-49 -117t59 -121t226 -113z" />
    <glyph glyph-name="uni1CED" unicode="&#x1ced;" 
d="M-283 -69l524 -390l-59 -63l-524 390z" />
    <glyph glyph-name="uni1CEE" unicode="&#x1cee;" horiz-adv-x="1002" 
d="M957 228q0 -73 -55 -127t-138.5 -82.5t-164.5 -28.5q-121 0 -228 57.5t-171.5 155t-64.5 210.5q0 151 146 250q-166 145 -166 299q0 146 100 234t260 88q89 0 182 -30l53 -169q-112 38 -203 38q-106 0 -169 -50.5t-63 -155.5q0 -65 21.5 -114t65.5 -96q130 55 281 55h19
l59 -169h-20q-102 0 -199.5 -29.5t-161 -92t-63.5 -149.5q0 -90 60.5 -141.5t154.5 -51.5t191 50q-15 39 -15 74q0 63 41.5 99t103.5 36q68 0 106 -42t38 -118zM1037 703q0 -108 -100 -108q-101 0 -101 108q0 109 101 109q100 0 100 -109z" />
    <glyph glyph-name="uni1CEF" unicode="&#x1cef;" horiz-adv-x="943" 
d="M827 188q0 -86 -75 -142.5t-185 -56.5q-99 0 -189 47t-145.5 131t-55.5 190q0 77 43.5 153t126.5 129q-100 54 -160 137.5t-60 177.5q0 160 134 252t367 92l66 -2l74 -164q-34 5 -84 5q-106 0 -207 -29.5t-166 -86t-65 -132.5q0 -80 80 -120.5t214 -40.5q66 0 143 13.5
t136 37.5l45 -167q-99 -36 -209 -42q-87 -11 -175 -50t-145.5 -97.5t-57.5 -125.5q0 -75 64 -110t166 -35q86 0 154.5 31.5t68.5 71.5q0 48 -87 48q-48 0 -110 -16l-45 154q48 11 93 11q105 0 175.5 -76.5t70.5 -187.5zM704 925q0 -101 -108 -101q-109 0 -109 101
q0 100 109 100q108 0 108 -100z" />
    <glyph glyph-name="uni1CF0" unicode="&#x1cf0;" horiz-adv-x="1098" 
d="M998 307q0 -145 -114 -231t-307 -86q-128 0 -243 56t-184.5 153t-69.5 212q0 132 121 217t304 85h16q-12 44 -40.5 79.5t-79.5 84.5q-43 41 -69 70.5t-43.5 67.5t-17.5 83q0 92 58 144.5t161 52.5q110 0 184 -67t132 -193l-71 -31q-48 82 -94 115t-105 33
q-52 0 -81 -26.5t-29 -76.5q0 -41 16.5 -67.5t53.5 -65.5q46 -46 73.5 -91t36.5 -120q172 -29 282 -140.5t110 -257.5zM800 830q0 109 101 109q100 0 100 -109q0 -108 -100 -108q-101 0 -101 108zM844 394q0 96 -74.5 153.5t-193.5 57.5q-149 0 -249 -81.5t-100 -203.5
q0 -98 83 -162t204 -64q136 0 233 88t97 212z" />
    <glyph glyph-name="uni1CF1" unicode="&#x1cf1;" horiz-adv-x="1031" 
d="M608 639q81 0 159.5 -42t128 -112.5t49.5 -150.5q0 -111 -93 -207.5t-273 -193.5l-110 151q135 52 242.5 151.5t107.5 178.5q0 40 -30.5 59.5t-82.5 19.5h-290q-81 0 -159.5 42t-128 112.5t-49.5 150.5q0 111 93 207.5t273 193.5l110 -151q-135 -52 -242.5 -151.5
t-107.5 -178.5q0 -40 30.5 -59.5t82.5 -19.5h290zM605 861q0 109 101 109q100 0 100 -109q0 -108 -100 -108q-101 0 -101 108zM231 272q0 109 101 109q100 0 100 -109q0 -108 -100 -108q-101 0 -101 108z" />
    <glyph glyph-name="uni1CF2" unicode="&#x1cf2;" horiz-adv-x="993" 
d="M80 987l74 28q45 -129 128.5 -194.5t216.5 -65.5q117 0 196 73.5t105 202.5l133 -44q-34 -164 -147.5 -261t-273.5 -97q-149 0 -265 96t-167 262zM923 163l-74 -28q-45 129 -129 194.5t-217 65.5q-117 0 -196 -73.5t-105 -202.5l-132 46q34 164 147 260t273 96
q150 0 266 -96t167 -262z" />
    <glyph glyph-name="uni1CF3" unicode="&#x1cf3;" horiz-adv-x="1111" 
d="M126 112l-52 158q141 29 212.5 111.5t71.5 201.5q0 132 -62.5 216t-189.5 138l33 89q171 -60 270.5 -183.5t99.5 -275.5q0 -172 -102 -293.5t-281 -161.5zM997 1016l52 -158q-141 -29 -212.5 -111.5t-71.5 -201.5q0 -132 62.5 -216t189.5 -138l-33 -89
q-171 60 -270.5 183.5t-99.5 275.5q0 172 102 293.5t281 161.5z" />
    <glyph glyph-name="uni1CF4" unicode="&#x1cf4;" 
d="M-658 2009l74 28q45 -106 115 -158t180 -52q98 0 167 59.5t94 176.5l131 -43q-33 -150 -134 -234.5t-245 -84.5q-127 0 -229 82.5t-153 225.5z" />
    <glyph glyph-name="uni1CF5" unicode="&#x1cf5;" horiz-adv-x="1043" 
d="M626 556l333 -436l-73 -46l-315 413l-355 -435l-136 100l385 473l-321 421l73 46l304 -399l316 388l136 -100z" />
    <glyph glyph-name="uni1CF6" unicode="&#x1cf6;" horiz-adv-x="1060" 
d="M98 861q0 88 69 186l147 -93q-71 -97 -71 -169q0 -43 29 -67.5t68 -24.5q62 0 103 47.5t41 122.5v118l142 -60v-110q0 -36 -11 -69q47 -33 111 -33q60 0 97.5 38t37.5 95q0 78 -62 150l62 50q111 -118 111 -237q0 -95 -58.5 -152.5t-156.5 -57.5q-108 0 -183 78
q-32 -36 -78.5 -56.5t-99.5 -20.5q-119 0 -208.5 79.5t-89.5 185.5zM972 271q0 -88 -69 -186l-147 93q71 97 71 169q0 43 -29 67.5t-68 24.5q-62 0 -103 -47.5t-41 -122.5v-118l-142 60v110q0 36 11 69q-46 33 -111 33q-59 0 -97 -37.5t-38 -95.5q0 -78 62 -150l-62 -50
q-111 118 -111 237q0 95 58.5 152.5t156.5 57.5q108 0 183 -78q32 36 78.5 56.5t99.5 20.5q119 0 208.5 -79.5t89.5 -185.5z" />
    <glyph glyph-name="uni200B" unicode="&#x200b;" 
 />
    <glyph glyph-name="uni200B" unicode="&#xfeff;" 
 />
    <glyph glyph-name="uni200C" unicode="&#x200c;" 
d="M-43 1286h86v-1558h-86v1558z" />
    <glyph glyph-name="uni200D" unicode="&#x200d;" 
d="M-43 1096l-127 -127l-53 55l168 168l-168 166l53 55l170 -170l170 170l53 -55l-168 -166l168 -168l-53 -55l-127 127v-1368h-86v1368z" />
    <glyph glyph-name="endash" unicode="&#x2013;" horiz-adv-x="1024" 
d="M-10 610h1044v-121h-1044v121z" />
    <glyph glyph-name="emdash" unicode="&#x2014;" horiz-adv-x="2048" 
d="M-10 610h2068v-121h-2068v121z" />
    <glyph glyph-name="quoteleft" unicode="&#x2018;" horiz-adv-x="512" 
d="M115 1063q0 140 81 245t255 156v-86q-195 -63 -195 -184q0 -25 15 -39t48 -33q42 -22 64.5 -46.5t22.5 -69.5q0 -57 -37.5 -89t-96.5 -32q-69 0 -113 49t-44 129z" />
    <glyph glyph-name="quoteright" unicode="&#x2019;" horiz-adv-x="512" 
d="M61 969q195 63 195 184q0 25 -15 39t-48 33q-42 22 -64.5 46.5t-22.5 69.5q0 57 37.5 89t96.5 32q68 0 112.5 -49t44.5 -129q0 -140 -81 -245t-255 -156v86z" />
    <glyph glyph-name="quotedblleft" unicode="&#x201c;" horiz-adv-x="922" 
d="M115 1063q0 140 81 245t255 156v-86q-195 -63 -195 -184q0 -25 15 -39t48 -33q42 -22 64.5 -46.5t22.5 -69.5q0 -57 -37.5 -89t-96.5 -32q-69 0 -113 49t-44 129zM524 1063q0 140 81 245t255 156v-86q-194 -63 -194 -184q0 -25 15 -39t48 -33q41 -22 63.5 -46.5
t22.5 -69.5q0 -57 -37 -89t-96 -32q-70 0 -114 49.5t-44 128.5z" />
    <glyph glyph-name="quotedblright" unicode="&#x201d;" horiz-adv-x="922" 
d="M61 969q195 63 195 184q0 25 -15 39t-48 33q-42 22 -64.5 46.5t-22.5 69.5q0 57 37.5 89t96.5 32q69 0 113 -49t44 -129q0 -140 -81 -245t-255 -156v86zM471 969q195 63 195 184q0 25 -15 39t-48 33q-42 22 -64.5 46.5t-22.5 69.5q0 57 37 89t96 32q70 0 114 -49.5
t44 -128.5q0 -140 -81 -245t-255 -156v86z" />
    <glyph glyph-name="ellipsis" unicode="&#x2026;" horiz-adv-x="1757" 
d="M164 125q0 139 129 139t129 -139q0 -74 -36 -106.5t-93 -32.5q-129 0 -129 139zM750 125q0 139 129 139t129 -139q0 -74 -36 -106.5t-93 -32.5q-129 0 -129 139zM1335 125q0 139 129 139t129 -139t-129 -139t-129 139z" />
    <glyph glyph-name="uni20B9" unicode="&#x20b9;" horiz-adv-x="1145" 
d="M121 690v58h170q182 0 258.5 62t87.5 208h-516v96h516q-9 135 -82 193.5t-233 58.5h-201v96h964v-96h-352q113 -88 125 -252h227v-96h-229q-32 -350 -479 -367l235 -401q51 -85 101.5 -124.5t113.5 -39.5h27v-86h-49q-133 0 -201.5 13.5t-111 51t-89.5 119.5z" />
    <glyph glyph-name="minus" unicode="&#x2212;" horiz-adv-x="1145" 
d="M133 793h879v-121h-879v121z" />
    <glyph glyph-name="uni25CC" unicode="&#x25cc;" horiz-adv-x="1217" 
d="M555 1053q0 21 16 37t37 16q22 0 38 -16t16 -37q0 -22 -16 -38t-38 -16q-21 0 -37 16t-16 38zM383 1016q0 21 16 37t37 16q22 0 37.5 -16t15.5 -37q0 -22 -15.5 -37.5t-37.5 -15.5q-21 0 -37 15.5t-16 37.5zM727 1016q0 21 16 37t37 16q22 0 38 -16t16 -37
q0 -22 -16 -37.5t-38 -15.5q-21 0 -37 15.5t-16 37.5zM231 920q0 21 16 37t38 16q21 0 37 -16t16 -37q0 -22 -16 -38t-37 -16q-22 0 -38 16t-16 38zM879 920q0 21 15.5 37t37.5 16t37.5 -16t15.5 -37q0 -22 -15.5 -38t-37.5 -16t-37.5 16t-15.5 38zM135 768q0 22 16 37.5
t37 15.5q22 0 38 -15.5t16 -37.5t-16 -37.5t-38 -15.5q-21 0 -37 15.5t-16 37.5zM975 768q0 22 15.5 37.5t37.5 15.5t37.5 -15.5t15.5 -37.5t-15.5 -37.5t-37.5 -15.5t-37.5 15.5t-15.5 37.5zM98 596q0 22 16 37.5t38 15.5q21 0 37 -15.5t16 -37.5t-16 -37.5t-37 -15.5
q-22 0 -38 15.5t-16 37.5zM1012 596q0 22 15.5 37.5t37.5 15.5t37.5 -15.5t15.5 -37.5t-15.5 -37.5t-37.5 -15.5t-37.5 15.5t-15.5 37.5zM135 424q0 22 16 37.5t37 15.5q22 0 38 -15.5t16 -37.5t-16 -37.5t-38 -15.5q-21 0 -37 15.5t-16 37.5zM975 424q0 22 15.5 37.5
t37.5 15.5t37.5 -15.5t15.5 -37.5t-15.5 -37.5t-37.5 -15.5t-37.5 15.5t-15.5 37.5zM231 272q0 22 16 38t38 16q21 0 37 -16t16 -38q0 -21 -16 -37t-37 -16q-22 0 -38 16t-16 37zM879 272q0 22 15.5 38t37.5 16t37.5 -16t15.5 -38q0 -21 -15.5 -37t-37.5 -16t-37.5 16
t-15.5 37zM383 176q0 22 16 37.5t37 15.5q22 0 37.5 -15.5t15.5 -37.5t-15.5 -37.5t-37.5 -15.5q-21 0 -37 15.5t-16 37.5zM727 176q0 22 16 37.5t37 15.5q22 0 38 -15.5t16 -37.5t-16 -37.5t-38 -15.5q-21 0 -37 15.5t-16 37.5zM555 139q0 22 16 38t37 16q22 0 38 -16
t16 -38q0 -21 -16 -37t-38 -16q-21 0 -37 16t-16 37z" />
    <glyph glyph-name="uniA830" unicode="&#xa830;" horiz-adv-x="443" 
d="M150 83v1191h19l124 -93v-1191h-19z" />
    <glyph glyph-name="uniA831" unicode="&#xa831;" horiz-adv-x="826" 
d="M150 83v1191h19l124 -93v-1191h-19zM533 83v1191h19l124 -93v-1191h-19z" />
    <glyph glyph-name="uniA832" unicode="&#xa832;" horiz-adv-x="1209" 
d="M150 83v1191h19l124 -93v-1191h-19zM533 83v1191h19l124 -93v-1191h-19zM916 83v1191h19l124 -93v-1191h-19z" />
    <glyph glyph-name="uniA833" unicode="&#xa833;" horiz-adv-x="1278" 
d="M205 892l-130 130l998 252l130 -130z" />
    <glyph glyph-name="uniA834" unicode="&#xa834;" horiz-adv-x="1278" 
d="M205 892l-130 130l998 252l130 -130zM205 462l-130 130l998 252l130 -130z" />
    <glyph glyph-name="uniA835" unicode="&#xa835;" horiz-adv-x="1278" 
d="M205 892l-130 130l998 252l130 -130zM205 462l-130 130l998 252l130 -130zM205 32l-130 130l998 252l130 -130z" />
    <glyph glyph-name="uniA836" unicode="&#xa836;" horiz-adv-x="892" 
d="M130 647q0 136 90 226t226 90q77 0 150.5 -47.5t119.5 -121.5t46 -147q0 -136 -90 -226t-226 -90q-74 0 -148 48t-121 122t-47 146zM642 724q0 52 -33.5 82.5t-83.5 30.5q-97 0 -186 -83.5t-89 -176.5q0 -56 36.5 -89t87.5 -33q96 0 182 87t86 182z" />
    <glyph glyph-name="uniA837" unicode="&#xa837;" horiz-adv-x="1042" 
d="M885 1274l110 -105l-206 -168q-129 -105 -282 -215q113 -21 184 -102t71 -187q0 -136 -90 -226t-226 -90q-115 0 -215.5 104t-100.5 225q0 80 36 140t115 125zM642 574q0 52 -33.5 82.5t-83.5 30.5q-105 0 -190 -80t-85 -180q0 -56 36.5 -89t87.5 -33q103 0 185.5 83.5
t82.5 185.5z" />
    <glyph glyph-name="uniA838" unicode="&#xa838;" horiz-adv-x="628" 
d="M-123 -383q-90 0 -190 21l33 170q128 -30 234 -30q445 0 445 530q0 193 -59 432t-167 495l161 61q171 -461 171 -855q0 -388 -166.5 -606t-461.5 -218z" />
    <glyph glyph-name="uniA839" unicode="&#xa839;" horiz-adv-x="691" 
d="M-170 -497q-89 0 -177 13l30 182q104 -23 202 -23q145 0 263.5 47.5t188.5 141.5t70 228q0 91 -29 177t-86 211q-73 158 -96 241.5t-23 161.5q0 162 115 270t354 144l49 -172q-192 -19 -302.5 -83.5t-110.5 -203.5q0 -73 26 -149.5t80 -199.5q74 -168 98.5 -259
t24.5 -169q0 -176 -87.5 -302t-241 -191t-348.5 -65z" />
    <glyph glyph-name="uniA8E0" unicode="&#xa8e0;" 
d="M-464 1799q0 88 58.5 147t147.5 59q74 0 139.5 -66.5t65.5 -139.5q0 -87 -59 -146t-146 -59q-73 0 -139.5 67.5t-66.5 137.5zM-125 1831q0 46 -28 71.5t-73 25.5q-62 0 -113.5 -49t-51.5 -108q0 -49 29 -76t72 -27q59 0 112 52t53 111z" />
    <glyph glyph-name="uniA8E1" unicode="&#xa8e1;" 
d="M-136 1486q0 -46 -41 -91l-76 55q25 31 25 51q0 34 -35.5 73t-96.5 90l-41 35l111 88q-121 89 -121 189q0 55 39 92t100 37q46 0 83.5 -25.5t67.5 -67.5t30 -94q0 -58 -58.5 -121.5t-140.5 -126.5q45 -32 74 -55.5t54.5 -58t25.5 -70.5zM-252 1820q86 79 86 136
q0 32 -20 52t-54 20q-41 0 -65.5 -26.5t-24.5 -65.5q0 -32 20.5 -63t57.5 -53z" />
    <glyph glyph-name="uniA8E2" unicode="&#xa8e2;" 
d="M-235 1699l9 -15q55 -97 111 -205l-88 -28l-87 237l-33 -2q-38 0 -67.5 22.5t-29.5 61.5q0 23 18 40t51 17q38 0 69 -42q66 22 107 60.5t41 87.5q0 39 -28.5 64t-75.5 25q-58 0 -117 -44l-54 76q67 51 141 51q73 0 141 -74t68 -155q0 -60 -50.5 -108t-125.5 -69z" />
    <glyph glyph-name="uniA8E3" unicode="&#xa8e3;" 
d="M-221 1520q33 -47 75 -122l-87 -27l-45 148q-55 5 -99.5 30t-44.5 72q0 22 17 37.5t43 15.5q52 0 95 -74q65 2 97.5 30.5t32.5 72.5q0 57 -54 101q-49 -19 -118 -32l-59 81q94 18 154.5 42.5t60.5 64.5q0 30 -20.5 46.5t-54.5 16.5q-71 0 -128 -38l-54 77q68 44 145 44
q69 0 130 -63.5t61 -121.5q0 -54 -68 -94q93 -71 93 -153q0 -64 -50 -104t-122 -50z" />
    <glyph glyph-name="uniA8E4" unicode="&#xa8e4;" 
d="M-83 1614q0 -54 -40 -90t-96 -36q-71 0 -129.5 33t-84 68.5t-25.5 83.5q0 76 90 148q-63 37 -98 73.5t-35 82.5q0 56 42 92t84 50l62 -66q-99 -47 -99 -103q0 -26 22 -48.5t65 -48.5l66 43q70 45 103 73.5t33 58.5q0 16 -6.5 32t-13.5 24l32 28q70 -42 70 -108
q0 -38 -33 -76t-127 -95l-41 -26q75 -43 117 -87t42 -106zM-167 1649q0 36 -30.5 65t-89.5 62q-82 -63 -82 -126q0 -40 28.5 -65.5t66.5 -25.5q41 0 74 25t33 65z" />
    <glyph glyph-name="uniA8E5" unicode="&#xa8e5;" 
d="M-96 1426q-18 31 -53 112t-52 132q-40 -20 -86 -20q-63 0 -110.5 33t-80.5 84.5t-33 112.5q0 49 26.5 111.5t80.5 125.5l81 -46q-106 -122 -106 -242q0 -49 31.5 -80t73.5 -31q58 0 90 38q-17 29 -17 60q0 36 19 53.5t45 17.5q31 0 51 -24t20 -61q0 -59 -43 -102
q65 -124 144 -230z" />
    <glyph glyph-name="uniA8E6" unicode="&#xa8e6;" 
d="M-20 1416l-77 -44q-15 26 -37.5 83t-29.5 87q-33 -11 -64 -11q-57 0 -102.5 25t-84.5 72t-39 99q0 72 67 116q-74 57 -74 130q0 59 43.5 95.5t121.5 36.5q55 0 106 -12l32 -85q-66 14 -128 14q-42 0 -68.5 -20.5t-26.5 -58.5q0 -39 38 -77q51 20 126 22l30 -82
q-82 -2 -134.5 -34t-52.5 -82q0 -43 28 -66t67 -23q57 0 93 27q-6 18 -6 34q0 35 18 52t44 17q31 0 56 -24.5t25 -60.5q0 -58 -71 -91q46 -78 100 -139z" />
    <glyph glyph-name="uniA8E7" unicode="&#xa8e7;" 
d="M-31 1772q0 -91 -30.5 -151.5t-76 -89.5t-92.5 -29q-154 0 -236 158t-82 449l50 10q17 -284 82 -410.5t160 -126.5q45 0 81.5 39t50.5 109q-55 2 -114 26t-98.5 71t-39.5 112q0 58 33 90.5t88 32.5q92 0 158 -87.5t66 -202.5zM-119 1776l1 27q0 93 -27.5 142t-77.5 49
q-28 0 -46.5 -21t-18.5 -53q0 -57 47.5 -96.5t121.5 -47.5z" />
    <glyph glyph-name="uniA8E8" unicode="&#xa8e8;" 
d="M-474 1717q0 41 27.5 84.5t77 93t153.5 143.5l73 67l66 -63q-196 -179 -236 -223t-57 -77.5t-17 -65.5q0 -54 33.5 -81t82.5 -27q52 0 101.5 34t86.5 80l69 -63q0 -4 -33 -38.5t-83 -63.5t-110 -29q-61 0 -117 42t-86.5 89t-30.5 98z" />
    <glyph glyph-name="uniA8E9" unicode="&#xa8e9;" 
d="M-84 1543q0 -52 -66 -109l-78 52q47 43 47 76q0 30 -23 59t-76 78q-92 82 -121 133t-29 110q0 67 47 115t115 48q79 0 134.5 -55.5t55.5 -121.5q0 -64 -56.5 -104.5t-136.5 -52.5l33 -29q95 -81 124.5 -117.5t29.5 -81.5zM-340 1911q0 -39 17 -73q73 8 120.5 42t47.5 80
q0 35 -22.5 56.5t-55.5 21.5q-47 0 -77 -37t-30 -90z" />
    <glyph glyph-name="uniA8EA" unicode="&#xa8ea;" 
d="M87 2030h-122v-572h-10l-65 50v247q-27 -10 -58 -10q-58 0 -117 41q35 -48 35 -108q0 -59 -39.5 -93t-100.5 -34q-80 0 -141.5 65.5t-99.5 168.5l43 17q69 -174 183 -174q37 0 61.5 22.5t24.5 54.5q0 69 -48 113q-25 -11 -66 -22l-35 73q83 22 120.5 45.5t37.5 58.5
q0 27 -19.5 43t-49.5 16q-50 0 -125 -34l-38 76q66 31 128 31q65 0 113 -49.5t48 -111.5q0 -69 -73 -107q57 -25 110 -25q63 0 106 32v186h-82l-42 60v10h279l42 -60v-10z" />
    <glyph glyph-name="uniA8EB" unicode="&#xa8eb;" 
d="M26 2030h-156q40 -49 40 -113q0 -71 -64 -116q43 -37 67.5 -83.5t24.5 -90.5q0 -71 -44.5 -110t-112.5 -39q-73 0 -143.5 63t-128.5 204l44 18q90 -202 209 -202q50 0 76 26.5t26 66.5q0 71 -56 125q-38 -18 -91 -30l-42 78q171 35 171 122q0 48 -29 81h-325l-42 60v10
h534l42 -60v-10z" />
    <glyph glyph-name="uniA8EC" unicode="&#xa8ec;" 
d="M-229 2030v-195q52 44 104 44q62 0 108 -46t48 -127q0 -40 -20 -84.5t-49 -78.5l-70 49q76 93 76 161q0 27 -15 44.5t-40 17.5q-59 0 -142 -91v-266h-9l-66 50v135q-51 -49 -116 -49q-75 0 -135 57t-60 127q0 62 46 104t112 42q85 0 153 -54v160h-352l-42 60v10h760
l42 -60v-10h-333zM-304 1750v71q-55 34 -113 34q-55 0 -92 -33.5t-37 -80.5q0 -32 23 -55t65 -23q86 0 154 87z" />
    <glyph glyph-name="uniA8ED" unicode="&#xa8ed;" 
d="M-4 2030h-122v-572h-9l-66 50v254l-140 4h-35q5 -35 5 -60q0 -50 -48 -50q-43 0 -80 39t-37 80q0 30 21 49t65 19q69 0 142.5 -7t106.5 -13v207h-361l-42 60v10h558l42 -60v-10z" />
    <glyph glyph-name="uniA8EE" unicode="&#xa8ee;" 
d="M24 2030h-121v-572h-10l-65 50v157q-50 -38 -102 -38q-35 0 -68 16t-67 51t-45 67.5t-11 98.5v170h-82l-42 60v10h571l42 -60v-10zM-172 2030h-216v-242q0 -90 76 -90q34 0 72 19t68 52v261z" />
    <glyph glyph-name="uniA8EF" unicode="&#xa8ef;" 
d="M-42 2030h-133q31 -65 31 -130q0 -62 -46 -118t-124 -91q61 -91 203 -179l-60 -59q-99 85 -170 187t-71 159q0 29 16 45.5t41 16.5q22 0 37 -9.5t35 -30.5q35 17 53.5 48.5t18.5 67.5q0 53 -20 93h-225l-42 60v10h414l42 -60v-10z" />
    <glyph glyph-name="uniA8F0" unicode="&#xa8f0;" 
d="M46 1898h-85v-400h-7l-46 35v83q-34 -30 -77 -30q-32 0 -54 11.5t-45 33.5q-41 39 -41 91q0 46 33 74.5t77 28.5q58 0 107 -37v110h-290v-400h-7l-46 35v365h-63l-29 42v7h104q-17 19 -27.5 43.5t-10.5 48.5q0 48 36.5 76t89.5 28q90 0 164 -59.5t121 -136.5h67l29 -42
v-7zM-87 1947q-43 64 -101.5 104.5t-124.5 40.5q-44 0 -71 -23.5t-27 -62.5q0 -29 16 -59h308zM-92 1693v58q-20 13 -38.5 18.5t-40.5 5.5q-41 0 -65.5 -24.5t-24.5 -54.5q0 -24 17.5 -42.5t48.5 -18.5q28 0 54.5 15.5t48.5 42.5z" />
    <glyph glyph-name="uniA8F1" unicode="&#xa8f1;" 
d="M-490 1691l37 24q91 -133 199 -133q44 0 70 23.5t26 60.5q0 38 -28.5 73t-84.5 83q-76 65 -102.5 106.5t-26.5 80.5q0 38 28.5 64.5t83.5 26.5h142l42 -60v-10h-147q-70 0 -70 -48q0 -30 25.5 -59t79.5 -74q46 -39 74.5 -67t48.5 -64t20 -75q0 -61 -45 -98t-119 -37
q-78 0 -144.5 55.5t-108.5 127.5z" />
    <glyph glyph-name="uniA8F2" unicode="&#xa8f2;" horiz-adv-x="972" 
d="M386 1073q0 95 88 95q87 0 87 -95q0 -94 -87 -94q-88 0 -88 94zM100 1094l72 25q87 -252 310 -252q218 0 266 273l134 -36q-30 -171 -131.5 -267t-255.5 -96q-82 0 -163.5 41.5t-143.5 121.5t-88 190z" />
    <glyph glyph-name="uniA8F3" unicode="&#xa8f3;" horiz-adv-x="992" 
d="M396 1073q0 95 88 95q87 0 87 -95q0 -94 -87 -94q-88 0 -88 94zM110 1094l72 25q87 -252 310 -252q218 0 266 273l134 -36q-30 -171 -131.5 -267t-255.5 -96q-82 0 -163.5 41.5t-143.5 121.5t-88 190zM432 425q-73 0 -124 -16l-47 144q75 15 121 15q87 0 150 -30
t139 -111t213 -258l-62 -32q-107 124 -175.5 186t-115.5 82t-99 20z" />
    <glyph glyph-name="uniA8F4" unicode="&#xa8f4;" horiz-adv-x="992" 
d="M396 1073q0 95 88 95q87 0 87 -95q0 -94 -87 -94q-88 0 -88 94zM110 1094l72 25q87 -252 310 -252q218 0 266 273l134 -36q-30 -171 -131.5 -267t-255.5 -96q-82 0 -163.5 41.5t-143.5 121.5t-88 190zM432 -143q-73 0 -124 -16l-47 144q75 15 121 15q87 0 150 -30
t139 -111t213 -258l-62 -32q-107 124 -175.5 186t-115.5 82t-99 20zM396 501q0 95 88 95q87 0 87 -95q0 -94 -87 -94q-88 0 -88 94zM110 522l72 25q87 -252 310 -252q218 0 266 273l134 -36q-30 -171 -131.5 -267t-255.5 -96q-82 0 -163.5 41.5t-143.5 121.5t-88 190z" />
    <glyph glyph-name="uniA8F5" unicode="&#xa8f5;" horiz-adv-x="1002" 
d="M406 1073q0 95 88 95q87 0 87 -95q0 -94 -87 -94q-88 0 -88 94zM120 1094l72 25q87 -252 310 -252q218 0 266 273l134 -36q-30 -171 -131.5 -267t-255.5 -96q-82 0 -163.5 41.5t-143.5 121.5t-88 190zM871 204q0 -99 -89 -191.5t-220 -131.5l209 -378l-162 -49l-151 407
l-30 -1q-83 0 -137.5 44t-54.5 110q0 40 32.5 69.5t88.5 29.5q66 0 119 -73q110 40 183.5 111t73.5 150q0 64 -47.5 105.5t-120.5 41.5q-54 0 -112.5 -21t-100.5 -51l-106 133q52 41 125 66t136 25q123 0 243.5 -126.5t120.5 -269.5z" />
    <glyph glyph-name="uniA8F6" unicode="&#xa8f6;" horiz-adv-x="1002" 
d="M406 1073q0 95 88 95q87 0 87 -95q0 -94 -87 -94q-88 0 -88 94zM120 1094l72 25q87 -252 310 -252q218 0 266 273l134 -36q-30 -171 -131.5 -267t-255.5 -96q-82 0 -163.5 41.5t-143.5 121.5t-88 190zM860 -99q0 -93 -76 -157t-203 -81l129 -209l-159 -46l-78 254
q-103 11 -165.5 56t-62.5 107q0 37 27.5 62.5t70.5 25.5q95 0 168 -126q93 7 143 52t50 112q0 80 -85 161q-85 -31 -189 -49l-97 142q364 67 364 164q0 42 -33.5 63.5t-91.5 21.5q-54 0 -114 -18t-107 -48l-101 137q52 34 121.5 54.5t131.5 20.5q76 0 146.5 -48
t120.5 -117.5t50 -133.5q0 -86 -116 -151q76 -56 116 -120.5t40 -128.5z" />
    <glyph glyph-name="uniA8F7" unicode="&#xa8f7;" horiz-adv-x="1002" 
d="M406 1073q0 95 88 95q87 0 87 -95q0 -94 -87 -94q-88 0 -88 94zM120 1094l72 25q87 -252 310 -252q218 0 266 273l134 -36q-30 -171 -131.5 -267t-255.5 -96q-82 0 -163.5 41.5t-143.5 121.5t-88 190zM112 -82l64 40q76 -112 156.5 -165t174.5 -53q76 0 120.5 37.5
t44.5 99.5q0 51 -38.5 107t-154.5 153q-71 61 -115 104.5t-74 96t-30 110.5q0 67 48 111.5t143 44.5h236l70 -103v-17h-246q-117 0 -117 -78q0 -36 23 -72t58 -68.5t96 -84.5q77 -64 125 -111.5t82 -106.5t34 -125q0 -103 -75.5 -166.5t-201.5 -63.5q-112 0 -226.5 84.5
t-196.5 225.5z" />
    <glyph glyph-name="uniA8F8" unicode="&#xa8f8;" horiz-adv-x="1328" 
d="M1208 614q0 -158 -78 -297t-216.5 -223t-308.5 -84q-94 0 -185 45t-150.5 121t-59.5 153q0 111 84 183q-84 32 -134 99t-50 157q0 100 67.5 162t173.5 62q60 0 116.5 -22.5t93.5 -65.5l-22 -47q-41 20 -89 20q-78 0 -129.5 -42t-51.5 -113q0 -43 24 -88.5t68 -77.5
q84 44 195 44h13l54 -120q-120 0 -199 -48.5t-79 -136.5q0 -78 49 -121t144 -43q137 0 254 61t194 165q-158 72 -243.5 172t-85.5 222q0 106 68.5 171.5t178.5 65.5q128 0 216 -108t88 -266zM1097 690q0 86 -43 133.5t-109 47.5q-67 0 -110.5 -43t-43.5 -117q0 -92 70 -165
t168 -122q68 124 68 266z" />
    <glyph glyph-name="uniA8F9" unicode="&#xa8f9;" horiz-adv-x="1344" 
d="M523 462q-117 0 -197.5 -49t-80.5 -126q0 -80 61.5 -117t167.5 -37q160 0 304 69.5t232 188.5t88 261q0 112 -46 160.5t-119 48.5q-75 0 -123 -41t-48 -106q0 -72 54.5 -110t148.5 -58l-12 -77q-149 22 -247.5 99.5t-98.5 206.5q0 98 70.5 158.5t183.5 60.5
q157 0 260 -124t103 -315q0 -151 -86.5 -278.5t-236 -202.5t-329.5 -75q-217 0 -339.5 102t-122.5 230q0 130 98 210.5t255 80.5h6z" />
    <glyph glyph-name="uniA8FA" unicode="&#xa8fa;" 
d="M411 1753l-381 -456l-414 493l67 54l290 -340l297 350z" />
    <glyph glyph-name="uniA8FB" unicode="&#xa8fb;" horiz-adv-x="1425" 
d="M1325 1148v-20h-1108l-87 126v20h1108z" />
    <glyph glyph-name="dvK_SSA" horiz-adv-x="1399" 
d="M1466 1142h-237v-1152h-19l-124 93v507q-87 -27 -190 -27q-193 0 -361 84q-84 -55 -133 -94.5t-83.5 -91.5t-34.5 -115q0 -76 47 -123.5t123 -47.5q73 0 115 24q-14 36 -14 80q0 46 31 78t79 32q68 0 120.5 -52.5t52.5 -122.5q0 -41 -27.5 -80t-89.5 -63
q77 -122 246 -274l-162 -67q-106 157 -172 320q-45 -9 -85 -9q-152 0 -278 125q-75 73 -107 130t-32 120q0 73 34.5 130.5t86.5 100t132 94.5q-191 144 -191 304q0 103 64.5 166t169.5 63q87 0 167 -61t127.5 -138t47.5 -158q0 -58 -35.5 -106.5t-100.5 -97.5
q79 -17 158 -17q166 0 295 61v385h-150l-77 112v20h530l77 -112v-20zM459 790q79 52 121 102t42 113q0 55 -33 93t-90 38q-61 0 -101 -41t-40 -104q0 -123 101 -201z" />
    <glyph glyph-name="dvJ_NYA" horiz-adv-x="1182" 
d="M1249 1142h-237v-1152h-19l-124 93v647h-398q141 -123 141 -270q0 -104 -75 -173.5t-197 -80.5q111 -142 259 -219l-108 -118q-144 128 -247 344q-79 18 -135.5 68.5t-56.5 112.5q0 47 31 73t70 26q88 0 142 -127q86 0 132 45.5t46 115.5q0 62 -32.5 115t-88.5 88h-158
l-77 112v20h752v280h-879l-77 112v20h1259l77 -112v-20z" />
    <glyph glyph-name="dvA_Nukta" horiz-adv-x="1382" 
d="M1449 1142h-237v-1152h-19l-124 93v509q-61 -23 -122 -23q-119 0 -234 77q70 -95 70 -217q0 -114 -76.5 -183.5t-203.5 -69.5q-161 0 -283.5 131t-199.5 337l82 33q68 -170 158.5 -262t211.5 -92q77 0 128 48t51 119q0 61 -25 120.5t-71 100.5q-44 -18 -134 -45l-70 140
q177 46 246 94.5t69 119.5q0 58 -38.5 91t-98.5 33q-105 0 -255 -68l-75 145q132 63 256 63q95 0 168.5 -51.5t113 -124.5t39.5 -147q0 -71 -34 -122.5t-109 -91.5q110 -50 218 -50q129 0 218 69v376h-171l-77 112v20h551l77 -112v-20zM381 -71q0 107 104 107
q103 0 103 -107q0 -106 -103 -106q-104 0 -104 106z" />
    <glyph glyph-name="dvAA_Nukta" horiz-adv-x="1865" 
d="M1932 1142h-237v-1152h-19l-124 93v1059h-340v-1152h-19l-124 93v509q-61 -23 -122 -23q-119 0 -234 77q70 -95 70 -217q0 -114 -76.5 -183.5t-203.5 -69.5q-161 0 -283.5 131t-199.5 337l82 33q68 -170 158.5 -262t211.5 -92q77 0 128 48t51 119q0 61 -25 120.5
t-71 100.5q-44 -18 -134 -45l-70 140q177 46 246 94.5t69 119.5q0 58 -38.5 91t-98.5 33q-105 0 -255 -68l-75 145q132 63 256 63q95 0 168.5 -51.5t113 -124.5t39.5 -147q0 -71 -34 -122.5t-109 -91.5q110 -50 218 -50q129 0 218 69v376h-171l-77 112v20h1034l77 -112v-20z
M381 -71q0 107 104 107q103 0 103 -107q0 -106 -103 -106q-104 0 -104 106z" />
    <glyph glyph-name="dvI_Nukta" horiz-adv-x="920" 
d="M222 672q0 -73 70 -120q65 40 132 59.5t119 19.5q89 0 150.5 -38t111.5 -114t50 -157q0 -133 -111 -218t-286 -87q124 -112 317 -196l-99 -118q-73 49 -160.5 137t-158.5 177q-110 5 -174 44.5t-64 100.5q0 40 27 62.5t72 22.5q86 0 164 -98q159 0 260 62t101 157
q0 61 -39 92.5t-97 31.5q-115 0 -266 -95q-108 65 -175 159.5t-67 183.5q0 104 75.5 161.5t215.5 57.5q67 0 177 -11v194h-577l-77 112v20h997l77 -112v-20h-275v-304q-103 9 -157 9q-173 0 -253 -48t-80 -127zM107 -228q0 107 104 107q103 0 103 -107q0 -106 -103 -106
q-104 0 -104 106z" />
    <glyph glyph-name="dvII_Nukta" horiz-adv-x="920" 
d="M222 672q0 -73 70 -120q65 40 132 59.5t119 19.5q89 0 150.5 -38t111.5 -114t50 -157q0 -133 -111 -218t-286 -87q124 -112 317 -196l-99 -118q-73 49 -160.5 137t-158.5 177q-110 5 -174 44.5t-64 100.5q0 40 27 62.5t72 22.5q86 0 164 -98q159 0 260 62t101 157
q0 61 -39 92.5t-97 31.5q-115 0 -266 -95q-108 65 -175 159.5t-67 183.5q0 104 75.5 161.5t215.5 57.5q67 0 177 -11v194h-577l-77 112v20h692q-69 91 -103 166t-34 156q0 98 61 158.5t160 60.5q156 0 249 -159l-41 -35q-61 59 -140 59q-71 0 -113 -44t-42 -120
q0 -111 84 -242h224l77 -112v-20h-275v-304q-103 9 -157 9q-173 0 -253 -48t-80 -127zM107 -228q0 107 104 107q103 0 103 -107q0 -106 -103 -106q-104 0 -104 106z" />
    <glyph glyph-name="dvU_Nukta" horiz-adv-x="984" 
d="M1051 1142h-311q85 -102 85 -235q0 -138 -130 -230q88 -75 137.5 -168t49.5 -181q0 -136 -85 -217t-230 -81q-146 0 -287.5 126t-255.5 408l82 33q76 -170 182 -290t242 -120q96 0 153 52t57 138q0 72 -31 140t-86 118q-80 -39 -187 -62l-75 149q164 34 253 96.5
t89 152.5q0 98 -71 171h-642l-77 112v20h1061l77 -112v-20zM477 -217q0 107 104 107q103 0 103 -107q0 -106 -103 -106q-104 0 -104 106z" />
    <glyph glyph-name="dvUU_Nukta" horiz-adv-x="1394" 
d="M1461 1142h-721q85 -102 85 -235q0 -138 -130 -230q47 -39 83 -86q144 104 252 104q81 0 153 -49.5t111.5 -123t39.5 -156.5q0 -79 -49.5 -182t-123.5 -185l-138 86q87 88 139 184.5t52 188.5q0 48 -29.5 80t-86.5 32q-59 0 -116.5 -28t-127.5 -79q28 -72 28 -135
q0 -136 -85 -217t-230 -81q-146 0 -287.5 126t-255.5 408l82 33q76 -170 182 -290t242 -120q96 0 153 52t57 138q0 72 -31 140t-86 118q-80 -39 -187 -62l-75 149q164 34 253 96.5t89 152.5q0 98 -71 171h-642l-77 112v20h1471l77 -112v-20zM477 -217q0 107 104 107
q103 0 103 -107q0 -106 -103 -106q-104 0 -104 106z" />
    <glyph glyph-name="dvvR_Nukta" horiz-adv-x="1629" 
d="M916 1142v-508q93 4 158 36.5t100 81.5q-20 36 -20 81q0 59 35 95t91 36q57 0 96 -44.5t39 -109.5q0 -82 -70 -131l158 -195q-152 -65 -223 -132t-71 -125q0 -43 28 -69t74 -26q139 0 246 83l75 -125q-90 -74 -206 -74q-93 0 -162 37t-116.5 99.5t-47.5 146.5t64 141.5
t165 108.5l-72 83q-51 -35 -133.5 -60t-175.5 -25l-32 2v-559h-19l-124 93v206l3 182l-498 -312l-112 132l554 303q-85 107 -146.5 144.5t-141.5 37.5q-100 0 -257 -88l-101 157q170 88 298 88q118 0 202 -57.5t199 -209.5v476h-783l-77 112v20h1706l77 -112v-20h-780z
M393 -11q0 107 104 107q103 0 103 -107q0 -106 -103 -106q-104 0 -104 106z" />
    <glyph glyph-name="dvvRR_Nukta" horiz-adv-x="1644" 
d="M916 1142v-508q93 4 158 36.5t100 81.5q-20 36 -20 81q0 59 35 95t91 36q57 0 96 -44.5t39 -109.5q0 -79 -72 -130l160 -197q-152 -58 -220.5 -108.5t-68.5 -113.5q0 -62 64 -85q62 72 222 122l66 -124q-104 -36 -161 -76t-57 -89q0 -27 19 -41t49 -14q55 0 120.5 27.5
t98.5 55.5l66 -131q-115 -70 -222 -70q-81 0 -162 74.5t-81 149.5q0 28 7 49q-68 31 -105.5 82.5t-37.5 116.5q0 85 62 141.5t165 101.5l-68 78q-50 -34 -133.5 -58t-177.5 -24l-32 2v-559h-19l-124 93v206l3 182l-498 -312l-112 132l554 303q-85 107 -146.5 144.5
t-141.5 37.5q-100 0 -257 -88l-101 157q170 88 298 88q118 0 202 -57.5t199 -209.5v476h-783l-77 112v20h1721l77 -112v-20h-795zM393 -11q0 107 104 107q103 0 103 -107q0 -106 -103 -106q-104 0 -104 106z" />
    </font>
</defs>
</svg>
