<?xml version="1.0" standalone="no"?>
<!DOCTYPE svg PUBLIC "-//W3C//DTD SVG 1.1//EN" "http://www.w3.org/Graphics/SVG/1.1/DTD/svg11.dtd" >
<svg xmlns="http://www.w3.org/2000/svg" xmlns:xlink="http://www.w3.org/1999/xlink" version="1.1">
<metadata>
Created by FontForge 20190801 at Tue Sep 19 21:59:41 2017
 By www-data
Copyright 2017 Google Inc. All Rights Reserved.
</metadata>
<defs>
<font id="NotoSansBuhidRegular" horiz-adv-x="0" >
  <font-face 
    font-family="NotoSansBuhidRegular"
    font-weight="400"
    font-stretch="normal"
    units-per-em="1000"
    panose-1="2 11 5 2 4 5 4 2 2 4"
    ascent="800"
    descent="-200"
    bbox="-553 -250 1003 750"
    underline-thickness="50"
    underline-position="-125"
    unicode-range="U+000D-25CC"
  />
<missing-glyph horiz-adv-x="600" 
d="M94 0v714h411v-714h-411zM145 51h309v612h-309v-612z" />
    <glyph glyph-name=".notdef" horiz-adv-x="600" 
d="M94 0v714h411v-714h-411zM145 51h309v612h-309v-612z" />
    <glyph glyph-name=".null" 
 />
    <glyph glyph-name="nonmarkingreturn" horiz-adv-x="333" 
 />
    <glyph glyph-name="NULL" 
 />
    <glyph glyph-name="NULL" 
 />
    <glyph glyph-name="CR" unicode="&#xd;" horiz-adv-x="260" 
 />
    <glyph glyph-name="space" unicode=" " horiz-adv-x="260" 
 />
    <glyph glyph-name="uni00A0" unicode="&#xa0;" horiz-adv-x="260" 
 />
    <glyph glyph-name="uni1735" unicode="&#x1735;" horiz-adv-x="329" 
d="M18 -139l204 889h70l-205 -889h-69z" />
    <glyph glyph-name="uni1736" unicode="&#x1736;" horiz-adv-x="488" 
d="M18 -139l204 889h70l-205 -889h-69zM177 -139l204 889h70l-205 -889h-69z" />
    <glyph glyph-name="uni1740" unicode="&#x1740;" horiz-adv-x="828" 
d="M143 0l108 468h-198l16 68h277l-109 -468h206l285 646h85l-316 -714h-354z" />
    <glyph glyph-name="uni1741" unicode="&#x1741;" horiz-adv-x="828" 
d="M143 0l109 468h-200l17 68h277l-108 -468h206l284 646h85l-316 -714h-354zM100 -184l16 68h355l-16 -68h-355z" />
    <glyph glyph-name="uni1742" unicode="&#x1742;" horiz-adv-x="625" 
d="M374 0l77 234h-244l65 234h-219l16 68h302l-65 -234h250l-101 -302h-81z" />
    <glyph glyph-name="uni1743" unicode="&#x1743;" horiz-adv-x="619" 
d="M163 468l16 68h353l-16 -68h-353zM55 0l16 68h354l-16 -68h-354z" />
    <glyph glyph-name="uni1744" unicode="&#x1744;" horiz-adv-x="599" 
d="M310 0l58 254h-275l72 314h80l-57 -246h275l-75 -322h-78z" />
    <glyph glyph-name="uni1745" unicode="&#x1745;" horiz-adv-x="805" 
d="M55 0l16 68h272l99 432h-272l16 68h354l-58 -250h272l-15 -68h-273l-57 -250h-354z" />
    <glyph glyph-name="uni1746" unicode="&#x1746;" horiz-adv-x="1025" 
d="M50 0l124 536h79l-109 -468h124l111 254h256l-43 -254h123l203 468h85l-234 -536h-265l43 254h-114l-111 -254h-272z" />
    <glyph glyph-name="uni1747" unicode="&#x1747;" horiz-adv-x="817" 
d="M143 0l80 350h-220l17 68h220l68 296h79l-150 -646h207l284 646h85l-316 -714h-354z" />
    <glyph glyph-name="uni1748" unicode="&#x1748;" horiz-adv-x="438" 
d="M105 0l149 646h-167l16 68h393l-16 -68h-147l-150 -646h-78z" />
    <glyph glyph-name="uni1749" unicode="&#x1749;" horiz-adv-x="828" 
d="M159 0l108 468h-198l16 68h277l-109 -468h183l161 468h277l-16 -68h-202l-163 -468h-334z" />
    <glyph glyph-name="uni174A" unicode="&#x174a;" horiz-adv-x="619" 
d="M55 0l16 68h272l99 432h-272l16 68h354l-131 -568h-354z" />
    <glyph glyph-name="uni174B" unicode="&#x174b;" horiz-adv-x="734" 
d="M50 0l131 568h79l-9 -36h336l63 182h83l-249 -714h-434zM144 68h283l136 396h-327z" />
    <glyph glyph-name="uni174C" unicode="&#x174c;" horiz-adv-x="881" 
d="M119 0l108 468h-158l16 68h237l-109 -468h139l161 468h282l-124 -536h-79l108 468h-128l-163 -468h-290z" />
    <glyph glyph-name="uni174D" unicode="&#x174d;" horiz-adv-x="613" 
d="M68 295l16 68h471l-16 -68h-471z" />
    <glyph glyph-name="uni174E" unicode="&#x174e;" horiz-adv-x="867" 
d="M195 -250l86 250h-231l92 398h79l-76 -330h160l175 508h374l-235 -576h-258l-86 -250h-80zM385 68h180l178 440h-205z" />
    <glyph glyph-name="uni174F" unicode="&#x174f;" horiz-adv-x="817" 
d="M50 0l124 536h79l-109 -468h391l113 280h-183l-57 -173h-80l78 241h353l-170 -416h-539z" />
    <glyph glyph-name="uni1750" unicode="&#x1750;" horiz-adv-x="758" 
d="M523 -56l77 234h-238l78 234h-240l77 234h-204l16 68h293l-79 -234h241l-78 -234h239l-101 -302h-81z" />
    <glyph glyph-name="uni1751" unicode="&#x1751;" horiz-adv-x="574" 
d="M50 0l124 536h79l-109 -468h311l-16 -68h-389z" />
    <glyph glyph-name="uni1752" unicode="&#x1752;" 
d="M-356 648l16 68h355l-16 -68h-355z" />
    <glyph glyph-name="uni1753" unicode="&#x1753;" 
d="M-553 -184l16 68h355l-16 -68h-355z" />
    <glyph glyph-name="uni200B" unicode="&#x200b;" 
 />
    <glyph glyph-name="uni200C" unicode="&#x200c;" 
 />
    <glyph glyph-name="uni200D" unicode="&#x200d;" 
 />
    <glyph glyph-name="uni25CC" unicode="&#x25cc;" horiz-adv-x="594" 
d="M323 514q0 -27 -26 -27t-26 27q0 26 26 26t26 -26zM408 496q0 -26 -25 -26q-28 0 -28 26q0 27 28 27q25 0 25 -27zM239 496q0 -26 -27 -26q-26 0 -26 26q0 27 26 27q27 0 27 -27zM480 448q0 -26 -25 -26q-27 0 -27 26q0 27 27 27q25 0 25 -27zM167 448q0 -26 -27 -26
q-26 0 -26 25q0 28 26 28q27 0 27 -27zM529 376q0 -27 -27 -27q-26 0 -26 27q0 26 27 26q26 0 26 -26zM118 376q0 -27 -25 -27q-28 0 -28 27q0 26 27 26q26 0 26 -26zM546 291q0 -26 -25 -26q-27 0 -27 26t27 26q25 0 25 -26zM101 291q0 -26 -26 -26q-27 0 -27 26t27 26
q26 0 26 -26zM529 206q0 -26 -27 -26q-26 0 -26 26q0 27 26 27q27 0 27 -27zM118 206q0 -26 -26 -26q-27 0 -27 26q0 27 27 27q26 0 26 -27zM480 133q0 -26 -25 -26q-27 0 -27 26q0 27 27 27q25 0 25 -27zM167 133q0 -26 -27 -26q-26 0 -26 26q0 27 26 27q27 0 27 -27z
M408 85q0 -25 -25 -25q-28 0 -28 25q0 27 28 27q25 0 25 -27zM239 87q0 -27 -27 -27q-26 0 -26 25q0 27 26 27q27 0 27 -25zM323 69q0 -27 -26 -27t-26 27q0 26 26 26t26 -26z" />
    <glyph glyph-name="uni1743_i" horiz-adv-x="619" 
d="M201 15l55 239h-186l16 68h186l48 207h77l-47 -207h178l-16 -68h-178l-56 -239h-77z" />
    <glyph glyph-name="uni1744_u" horiz-adv-x="671" 
d="M310 0l58 254h-275l72 314h80l-57 -246h275l-26 -112h186l-17 -68h-185l-33 -142h-78z" />
    <glyph glyph-name="uni1745_i" horiz-adv-x="826" 
d="M55 0l16 68h272l99 432h-272l16 68h354l-58 -250h272l-15 -68h-273l-57 -250h-354zM551 370l16 68h213l-16 -68h-213z" />
    <glyph glyph-name="uni1745_u" horiz-adv-x="805" 
d="M55 0l16 68h272l99 432h-272l16 68h354l-58 -250h272l-15 -68h-273l-57 -250h-354zM494 120l16 68h213l-16 -68h-213z" />
    <glyph glyph-name="uni1747_i" horiz-adv-x="817" 
d="M143 0l148 646h-220l17 68h299l-150 -646h207l254 578h-212l17 68h310l-316 -714h-354z" />
    <glyph glyph-name="uni1748_u" horiz-adv-x="516" 
d="M299 0l58 254h-193l90 392h-167l16 68h393l-16 -68h-147l-75 -324h194l-75 -322h-78z" />
    <glyph glyph-name="uni1749_u" horiz-adv-x="828" 
d="M159 0l108 468h-198l16 68h277l-109 -468h183l161 468h277l-16 -68h-202l-62 -178h193l-16 -68h-201l-77 -222h-334z" />
    <glyph glyph-name="uni174B_i" horiz-adv-x="881" 
d="M50 0l131 568h79l-9 -36h336l63 182h275l-16 -68h-200l-225 -646h-434zM144 68h283l136 396h-327z" />
    <glyph glyph-name="uni174C_u" horiz-adv-x="969" 
d="M119 0l108 468h-158l16 68h237l-109 -468h139l161 468h282l-108 -468h194l-16 -68h-273l108 468h-128l-163 -468h-290z" />
    <glyph glyph-name="uni174D_i" horiz-adv-x="613" 
d="M193 0l59 254h-193l16 68h193l57 246h253l-16 -68h-175l-42 -178h201l-16 -68h-200l-59 -254h-78z" />
    <glyph glyph-name="uni174D_u" horiz-adv-x="613" 
d="M193 0l59 254h-193l16 68h193l57 246h77l-57 -246h201l-16 -68h-200l-44 -186h191l-17 -68h-267z" />
    <glyph glyph-name="uni174E_i" horiz-adv-x="867" 
d="M195 -250l86 250h-231l167 716h355l-16 -68h-275l-136 -580h160l175 508h374l-235 -576h-258l-86 -250h-80zM385 68h180l178 440h-205z" />
    <glyph glyph-name="uni1750_u" horiz-adv-x="758" 
d="M523 -56l77 234h-238l78 234h-240l77 234h-204l16 68h293l-79 -234h241l-78 -234h239l-101 -302h-81zM374 556l21 68h193l-16 -68h-198z" />
  </font>
</defs>
</svg>
