<?xml version="1.0" standalone="no"?>
<!DOCTYPE svg PUBLIC "-//W3C//DTD SVG 1.1//EN" "http://www.w3.org/Graphics/SVG/1.1/DTD/svg11.dtd" >
<svg xmlns="http://www.w3.org/2000/svg" xmlns:xlink="http://www.w3.org/1999/xlink" version="1.1">
<metadata>
Created by FontForge 20190801 at Tue Sep 19 22:01:52 2017
 By www-data
Copyright 2017 Google Inc. All Rights Reserved.
</metadata>
<defs>
<font id="NotoSerifEthiopicBold" horiz-adv-x="600" >
  <font-face 
    font-family="NotoSerifEthiopicBold"
    font-weight="700"
    font-stretch="normal"
    units-per-em="1000"
    panose-1="2 2 8 2 6 5 5 2 2 4"
    ascent="800"
    descent="-200"
    bbox="-317 -119 1755 959"
    underline-thickness="50"
    underline-position="-125"
    unicode-range="U+000D-AB2E"
  />
<missing-glyph 
d="M94 0v714h411v-714h-411zM145 51h309v612h-309v-612z" />
    <glyph glyph-name=".notdef" 
d="M94 0v714h411v-714h-411zM145 51h309v612h-309v-612z" />
    <glyph glyph-name=".null" horiz-adv-x="0" 
 />
    <glyph glyph-name="nonmarkingreturn" horiz-adv-x="333" 
 />
    <glyph glyph-name="NULL" horiz-adv-x="0" 
 />
    <glyph glyph-name="NULL" horiz-adv-x="0" 
 />
    <glyph glyph-name="CR" unicode="&#xd;" horiz-adv-x="260" 
 />
    <glyph glyph-name="space" unicode=" " horiz-adv-x="260" 
 />
    <glyph glyph-name="hyphen" unicode="-" horiz-adv-x="310" 
d="M25 220v105h260v-105h-260z" />
    <glyph glyph-name="uni00A0" unicode="&#xa0;" horiz-adv-x="260" 
 />
    <glyph glyph-name="uni0308" unicode="&#x308;" horiz-adv-x="0" 
d="M102 622q-26 0 -45.5 14.5t-19.5 51.5q0 38 19.5 52t45.5 14q24 0 44 -14t20 -52q0 -37 -20 -51.5t-44 -14.5zM-104 622q-26 0 -45 14.5t-19 51.5q0 38 19 52t45 14q25 0 45 -14t20 -52q0 -37 -20 -51.5t-45 -14.5z" />
    <glyph glyph-name="uni030E" unicode="&#x30e;" horiz-adv-x="0" 
d="M-113 587v173h77v-173h-77zM37 587v173h76v-173h-76z" />
    <glyph glyph-name="uni1200" unicode="&#x1200;" horiz-adv-x="680" 
d="M309 -12q-83 0 -130.5 27t-67 79t-19.5 127q0 35 1 94t2 128.5t1 137.5q0 44 -14 58.5t-45 14.5v53l196 13q21 -28 21 -98q0 -76 -1 -157t-2 -153.5t-1 -124.5q0 -71 18.5 -104.5t59.5 -33.5q56 0 89 58t33 199v275q0 44 -14 58.5t-45 14.5v53l196 13q11 -15 16 -40.5
t5 -57.5v-325q0 -94 -35 -163.5t-102 -107.5t-162 -38z" />
    <glyph glyph-name="uni1201" unicode="&#x1201;" horiz-adv-x="828" 
d="M309 -12q-83 0 -130.5 27t-67 79t-19.5 127q0 35 1 94t2 128.5t1 137.5q0 44 -14 58.5t-45 14.5v53l196 13q21 -28 21 -98q0 -76 -1 -157t-2 -153.5t-1 -124.5q0 -71 18.5 -104.5t59.5 -33.5q56 0 89 58t33 199v275q0 44 -14 58.5t-45 14.5v53l196 13q11 -15 16 -40.5
t5 -57.5v-325q0 -94 -35 -163.5t-102 -107.5t-162 -38zM781 237q-47 0 -73.5 25t-26.5 69q0 9 0.5 14.5t1.5 10.5h-138v60h272q-4 -14 -7 -32t-3 -37q0 -56 29 -98q-22 -12 -55 -12z" />
    <glyph glyph-name="uni1202" unicode="&#x1202;" horiz-adv-x="646" 
d="M205 0q-7 10 -7 31q0 13 4 30t12 37l103 248q-15 -3 -37.5 -5.5t-47.5 -2.5q-82 0 -119 40t-37 103q0 25 2.5 57t2.5 58q0 33 -14 45.5t-45 12.5v53l196 13q21 -28 21 -83q0 -22 -1.5 -49.5t-2.5 -54t-1 -44.5q0 -40 17 -60t48 -20q29 0 44 6l40 98q12 31 18.5 56t6.5 42
q0 43 -39 43v53l198 13q4 -8 7 -21t3 -33q0 -29 -8.5 -71t-29.5 -95l-152 -379q-10 -20 -10 -36q0 -25 33 -25h65q7 31 31 54.5t70 23.5q18 0 33.5 -4t24.5 -9q-16 -17 -25 -41t-9 -55t10 -55.5t24 -39.5q-20 -13 -58 -13q-46 0 -70 23.5t-31 55.5h-270z" />
    <glyph glyph-name="uni1203" unicode="&#x1203;" horiz-adv-x="616" 
d="M205 -6q-7 8 -7 34q0 14 3.5 32.5t12.5 38.5l103 247q-15 -3 -37.5 -5.5t-47.5 -2.5q-82 0 -119 40t-37 103q0 25 2.5 57t2.5 58q0 34 -14 46.5t-45 12.5v52l196 13q21 -28 21 -83q0 -22 -1.5 -49.5t-2.5 -54t-1 -44.5q0 -40 17 -60t48 -20q29 0 44 6l40 98
q12 31 18.5 56t6.5 43q0 43 -39 43v52l198 13q4 -8 7 -21t3 -33q0 -29 -8.5 -71t-29.5 -95l-152 -379q-10 -21 -10 -38q0 -26 33 -26v-51z" />
    <glyph glyph-name="uni1204" unicode="&#x1204;" horiz-adv-x="683" 
d="M267 0q-49 17 -49 81q0 17 4 37t14 43l81 185q-15 -3 -38.5 -5.5t-46.5 -2.5q-82 0 -119 40t-37 103q0 25 2.5 57t2.5 58q0 34 -14 46.5t-45 12.5v52l196 13q21 -28 21 -83q0 -22 -1.5 -49.5t-2.5 -54t-1 -44.5q0 -40 17 -60t48 -20t46 6l41 98q26 64 26 98q0 44 -40 44
v52l196 13q4 -9 8 -24.5t4 -37.5q0 -29 -8.5 -70t-30.5 -93l-102 -240h69q78 0 115.5 -27t37.5 -85q0 -60 -42.5 -101.5t-127.5 -41.5h-224zM415 56h19q41 0 63 22t22 61q0 29 -15 45t-52 16h-36l-30 -70q-10 -23 -10 -41q0 -33 39 -33z" />
    <glyph glyph-name="uni1205" unicode="&#x1205;" horiz-adv-x="755" 
d="M385 -12q-83 0 -131 27t-67.5 79t-19.5 127q0 26 0.5 60.5t1.5 69.5t1 63q0 32 -15.5 46.5t-35.5 14.5h-43v122q0 60 -46 60v50l174 13q15 -10 22 -30t7 -46v-98h20q35 0 55.5 -23.5t20.5 -64.5q0 -26 -0.5 -63t-1 -77.5t-1 -75.5t-0.5 -55q0 -71 18 -104.5t59 -33.5
q56 0 89 58t33 199v275q0 44 -14 58.5t-45 14.5v53l197 13q11 -15 15.5 -40.5t4.5 -57.5v-325q0 -94 -35 -163.5t-101.5 -107.5t-161.5 -38z" />
    <glyph glyph-name="uni1206" unicode="&#x1206;" horiz-adv-x="882" 
d="M309 -12q-83 0 -130.5 27t-67 79t-19.5 127q0 35 1 94t2 128.5t1 137.5q0 44 -14 58.5t-45 14.5v53l196 13q21 -28 21 -98q0 -76 -1 -157t-2 -153.5t-1 -124.5q0 -71 18.5 -104.5t59.5 -33.5q56 0 89 58t33 199v407h267q78 0 115.5 -27t37.5 -85q0 -60 -42 -101.5
t-127 -41.5h-61q-15 0 -32 5v-166q0 -94 -35 -163.5t-102 -107.5t-162 -38zM660 512q32 0 50 22.5t18 59.5q0 31 -15 47.5t-52 16.5h-53v-79q0 -36 12.5 -51.5t39.5 -15.5z" />
    <glyph glyph-name="uni1207" unicode="&#x1207;" horiz-adv-x="1035" 
d="M462 -12q-83 0 -130.5 27t-67 79t-19.5 127q0 35 1 94t2 128.5t1 137.5q0 44 -14 58.5t-45 14.5v53l196 13q21 -28 21 -98q0 -76 -1 -157t-2 -153.5t-1 -124.5q0 -71 18.5 -104.5t59.5 -33.5q56 0 89 58t33 199v407h267q78 0 115.5 -27t37.5 -85q0 -60 -42 -101.5
t-127 -41.5h-61q-15 0 -32 5v-166q0 -94 -35 -163.5t-102 -107.5t-162 -38zM813 512q32 0 50 22.5t18 59.5q0 31 -15 47.5t-52 16.5h-53v-79q0 -36 12.5 -51.5t39.5 -15.5zM55 223q-38 0 -58 13q14 15 24 39.5t10 55.5t-9 55t-25 41q9 5 24.5 9t33.5 4q46 0 70 -23.5
t31 -54.5h133v-60h-133q-7 -32 -31 -55.5t-70 -23.5z" />
    <glyph glyph-name="uni1208" unicode="&#x1208;" horiz-adv-x="725" 
d="M109 -6q-19 22 -34.5 60t-15.5 99q0 122 60.5 226t170.5 179l-61 156h164l219 -565q20 -50 41 -71t53 -21v-50l-165 -13q-20 13 -37 36.5t-38 78.5l-130 346q-56 -51 -90.5 -122.5t-34.5 -161.5q0 -111 78 -114v-50z" />
    <glyph glyph-name="uni1209" unicode="&#x1209;" horiz-adv-x="804" 
d="M109 -6q-19 22 -34.5 60t-15.5 99q0 122 60.5 226t170.5 179l-61 156h164l219 -565q20 -50 41 -71t53 -21v-50l-165 -13q-20 13 -37 36.5t-38 78.5l-130 346q-56 -51 -90.5 -122.5t-34.5 -161.5q0 -111 78 -114v-50zM747 194q-47 0 -73.5 25t-26.5 69q0 9 0.5 14.5
t1.5 10.5h-138v60h272q-4 -14 -7 -32t-3 -37q0 -56 29 -98q-22 -12 -55 -12z" />
    <glyph glyph-name="uni120A" unicode="&#x120a;" horiz-adv-x="942" 
d="M109 -6q-19 22 -34.5 60t-15.5 99q0 122 61.5 226t170.5 179l-62 156h164l219 -565q20 -50 40 -69.5t52 -19.5h66q8 31 31.5 54.5t69.5 23.5q18 0 33.5 -4t24.5 -9q-16 -17 -25 -41t-9 -55t10 -55.5t24 -39.5q-19 -13 -58 -13q-46 0 -69.5 23.5t-31.5 55.5h-236
q-18 13 -33 35.5t-35 73.5l-131 346q-55 -51 -89.5 -122.5t-34.5 -161.5q0 -111 78 -114v-50z" />
    <glyph glyph-name="uni120B" unicode="&#x120b;" horiz-adv-x="707" 
d="M525 -6q-21 13 -37.5 36.5t-37.5 78.5l-133 348q-55 -26 -89 -66t-34 -94q0 -38 18.5 -58t51.5 -21v-51l-171 -12q-21 23 -35.5 56t-14.5 76q0 86 59.5 153.5t170.5 117.5l-63 156h166l220 -565q20 -50 40 -71t52 -21v-50z" />
    <glyph glyph-name="uni120C" unicode="&#x120c;" horiz-adv-x="883" 
d="M109 -6q-19 22 -34.5 60t-15.5 99q0 122 60.5 226t170.5 179l-61 156h164l177 -459h137q79 0 116.5 -27t37.5 -85q0 -61 -41.5 -102t-127.5 -41h-106q-79 0 -120 109l-130 346q-56 -51 -90.5 -122.5t-34.5 -161.5q0 -111 78 -114v-50zM680 55q24 0 36.5 21.5t12.5 57.5
t-16 51t-44 15h-77l27 -68q17 -43 29 -60t32 -17z" />
    <glyph glyph-name="uni120D" unicode="&#x120d;" horiz-adv-x="770" 
d="M588 -6q-21 13 -37.5 36.5t-37.5 78.5l-133 348q-58 -36 -99.5 -86.5t-58.5 -115.5h60q78 0 115.5 -27t37.5 -85q0 -61 -41.5 -102t-126.5 -41h-126q-32 9 -57 44t-25 108q0 130 74 235t203 171l-60 156h163l219 -565q20 -50 41 -71t52 -21v-50zM251 54q52 0 52 82
q0 34 -15.5 49t-41.5 15h-37q-2 -12 -3 -25t-1 -27q0 -56 13.5 -74t32.5 -20z" />
    <glyph glyph-name="uni120E" unicode="&#x120e;" horiz-adv-x="1018" 
d="M109 -6q-19 22 -34.5 60t-15.5 99q0 122 60.5 226t170.5 179l-61 156h164l219 -565q20 -50 41 -71t53 -21v-50l-165 -13q-20 13 -37 36.5t-38 78.5l-130 346q-56 -51 -90.5 -122.5t-34.5 -161.5q0 -111 78 -114v-50zM719 238q-52 0 -80 33t-28 82q0 16 2 30h-156v60h181
q18 25 50 39.5t80 14.5h111q48 0 75.5 -16.5t39.5 -43.5t12 -58q0 -38 -16.5 -70t-46.5 -51.5t-70 -19.5h-154zM801 292q32 0 49 25.5t17 62.5q0 28 -14 45t-39 17q-30 0 -47 -23.5t-17 -63.5q0 -29 13.5 -46t37.5 -17z" />
    <glyph glyph-name="uni120F" unicode="&#x120f;" horiz-adv-x="828" 
d="M219 -119q-33 0 -55 12q29 42 29 98q0 19 -3 37t-7 32h286l-152 397q-55 -26 -89 -66t-34 -94q0 -38 18.5 -58t51.5 -21v-51l-171 -12q-21 23 -35.5 56t-14.5 76q0 86 59.5 153.5t170.5 117.5l-63 156h166l255 -654h166q-4 -14 -7 -32t-3 -37q0 -55 28 -98
q-21 -12 -54 -12q-47 0 -73.5 25.5t-26.5 68.5q0 9 0.5 15t1.5 10h-347q1 -4 1.5 -10t0.5 -15q0 -43 -26 -68.5t-73 -25.5z" />
    <glyph glyph-name="uni1210" unicode="&#x1210;" horiz-adv-x="896" 
d="M87 -6q-9 15 -19 49t-10 95q0 83 32 149t98 109.5t170 57.5v144q0 59 -46 59v50l174 13q14 -8 21.5 -28t7.5 -43v-191q115 -7 178.5 -37.5t89 -78t25.5 -104.5q0 -14 -0.5 -34t-1 -41t-0.5 -34q0 -41 13.5 -56t42.5 -16v-51l-190 -12q-22 29 -22 87q0 22 0.5 50.5t1 55.5
t0.5 46q0 66 -30 107t-107 53v-269q0 -40 13 -53.5t36 -13.5v-51l-177 -12q-13 13 -21 31.5t-8 46.5v317q-78 -20 -111 -78t-33 -153q0 -58 15.5 -79t43.5 -22v-51z" />
    <glyph glyph-name="uni1211" unicode="&#x1211;" horiz-adv-x="1059" 
d="M87 -6q-9 15 -19 49t-10 95q0 83 32 149t98 109.5t170 57.5v144q0 59 -46 59v50l174 13q14 -8 21.5 -28t7.5 -43v-191q115 -7 178.5 -37.5t89 -78t25.5 -104.5q0 -14 -0.5 -34t-1 -41t-0.5 -34q0 -41 13.5 -56t42.5 -16v-51l-190 -12q-22 29 -22 87q0 22 0.5 50.5t1 55.5
t0.5 46q0 66 -30 107t-107 53v-269q0 -40 13 -53.5t36 -13.5v-51l-177 -12q-13 13 -21 31.5t-8 46.5v317q-78 -20 -111 -78t-33 -153q0 -58 15.5 -79t43.5 -22v-51zM992 113q-47 0 -73.5 25t-26.5 69q0 9 0.5 14.5t1.5 10.5h-138v60h272q-4 -14 -7 -32t-3 -37q0 -56 29 -98
q-22 -12 -55 -12z" />
    <glyph glyph-name="uni1212" unicode="&#x1212;" horiz-adv-x="1089" 
d="M87 -6q-9 15 -19 49t-10 95q0 83 32.5 150t99.5 110t172 57v143q0 59 -46 59v50l174 13q14 -8 21.5 -28t7.5 -43v-191q113 -7 176 -38t88 -78t25 -104q0 -14 -0.5 -34t-1 -41t-0.5 -34q0 -41 13.5 -55t42.5 -14h56q8 31 31.5 54.5t69.5 23.5q18 0 33.5 -4t24.5 -9
q-16 -17 -25 -41t-9 -55t10 -55.5t24 -39.5q-19 -13 -58 -13q-46 0 -69.5 23.5t-31.5 55.5h-249q-9 15 -14 33.5t-5 47.5q0 22 0.5 50.5t1 55.5t0.5 46q0 65 -29 106t-104 53v-268q0 -40 13 -53.5t36 -13.5v-51l-177 -12q-13 13 -21 31.5t-8 46.5v318q-80 -19 -114 -77.5
t-34 -154.5q0 -58 15.5 -79t43.5 -22v-51z" />
    <glyph glyph-name="uni1213" unicode="&#x1213;" horiz-adv-x="845" 
d="M620 -6q-22 29 -22 87q0 22 0.5 50.5t1 55.5t0.5 46q0 66 -29 107t-102 53v-121q0 -40 13 -53.5t36 -13.5v-50l-166 -12q-14 13 -21.5 31t-7.5 47v169q-70 -13 -99 -46.5t-29 -80.5q0 -54 59 -56v-53l-200 -12q-6 16 -10.5 34t-4.5 44q0 56 30.5 105t93.5 83.5t160 46.5
v144q0 59 -46 59v49l163 13q14 -8 21.5 -28t7.5 -43v-190q111 -6 174 -37t88.5 -78.5t25.5 -105.5q0 -14 -1 -34t-1.5 -41t-0.5 -34q0 -40 13.5 -54.5t42.5 -15.5v-53z" />
    <glyph glyph-name="uni1214" unicode="&#x1214;" horiz-adv-x="1092" 
d="M87 -6q-9 15 -19 49t-10 95q0 83 32 149.5t98.5 109.5t170.5 57v144q0 59 -46 59v50l174 13q13 -8 21 -28t8 -43v-191q103 -6 165 -32t91.5 -69.5t33.5 -101.5h112q78 0 115 -27t37 -85q0 -60 -42 -101.5t-127 -41.5h-120q-60 7 -94.5 39.5t-34.5 98.5v95
q0 65 -29.5 106.5t-106.5 53.5v-269q0 -40 13 -53.5t36 -13.5v-51l-177 -12q-14 13 -21.5 31.5t-7.5 46.5v316q-76 -19 -110.5 -77t-34.5 -153q0 -58 15.5 -79t43.5 -22v-51zM860 54q32 0 50 22.5t18 59.5q0 31 -15 47.5t-52 16.5h-53v-79q0 -36 13 -51.5t39 -15.5z" />
    <glyph glyph-name="uni1215" unicode="&#x1215;" horiz-adv-x="896" 
d="M87 -6q-9 15 -19 49t-10 95q0 84 32 150.5t99 109.5t171 56v144q0 29 -10 42.5t-36 13.5h-187q4 14 7 32t3 37q0 55 -28 98q21 12 54 12q47 0 73.5 -25.5t26.5 -68.5q0 -9 -0.5 -15t-1.5 -10h227q14 -8 21.5 -27.5t7.5 -43.5v-185q114 -7 177 -37.5t88.5 -78t25.5 -104.5
q0 -14 -0.5 -34t-1 -41t-0.5 -34q0 -41 13.5 -56t42.5 -16v-51l-190 -12q-22 29 -22 87q0 22 0.5 50.5t1 55.5t0.5 46q0 65 -29 105.5t-106 52.5v-268q0 -41 13 -54t36 -13v-50l-177 -12q-13 13 -21 31.5t-8 46.5v314q-78 -19 -112 -76.5t-34 -151.5q0 -58 15.5 -79
t43.5 -22v-51z" />
    <glyph glyph-name="uni1216" unicode="&#x1216;" horiz-adv-x="844" 
d="M87 -6q-9 15 -19 49t-10 95q0 123 71 208.5t215 106.5v146q0 59 -46 59v49l162 13q14 -8 21.5 -28t7.5 -43v-190q111 -5 173.5 -30t88 -63t25.5 -84v-34q0 -22 12.5 -31t41.5 -11v-51l-191 -12q-11 14 -15 34t-4 37v55q0 49 -28.5 83t-102.5 43v-123q0 -40 13 -53.5
t36 -13.5v-50l-165 -12q-13 13 -21 31t-8 47v164q-67 -22 -98.5 -79.5t-31.5 -144.5q0 -59 15.5 -80.5t43.5 -22.5v-52z" />
    <glyph glyph-name="uni1217" unicode="&#x1217;" horiz-adv-x="1019" 
d="M411 -119q-33 0 -55 12q29 42 29 98q0 19 -3 37t-7 32h224q-1 9 -1 21q0 22 0.5 50.5t1 55.5t0.5 46q0 66 -29 107t-102 53v-121q0 -40 13 -53.5t36 -13.5v-50l-166 -12q-14 13 -21.5 31t-7.5 47v169q-70 -13 -99 -46.5t-29 -80.5q0 -54 59 -56v-53l-200 -12
q-6 16 -10.5 34t-4.5 44q0 56 30.5 105t93.5 83.5t160 46.5v144q0 59 -46 59v49l163 13q14 -8 21.5 -28t7.5 -43v-190q111 -6 174 -37t88.5 -78.5t25.5 -105.5q0 -14 -1 -34t-1.5 -41t-0.5 -34q0 -40 13.5 -54t42.5 -15h179q-4 -14 -7 -32t-3 -37q0 -55 28 -98
q-21 -12 -54 -12q-47 0 -73.5 25.5t-26.5 68.5q0 9 0.5 15t1.5 10h-347q1 -4 1.5 -10t0.5 -15q0 -43 -26 -68.5t-73 -25.5z" />
    <glyph glyph-name="uni1218" unicode="&#x1218;" horiz-adv-x="1069" 
d="M285 132q-117 0 -179 70t-62 195q0 96 35 167t102 110.5t163 39.5h444q112 0 179.5 -58.5t67.5 -184.5q0 -81 -29.5 -142.5t-86.5 -95.5t-141 -34h-179v456h-98v-472q-31 -15 -87 -33t-129 -18zM307 194q26 0 44 9v452h-11q-62 0 -101 -67.5t-39 -181.5t29 -163t78 -49z
M749 258h25q57 0 81.5 56t24.5 152q0 83 -23.5 136t-78.5 53h-29v-397z" />
    <glyph glyph-name="uni1219" unicode="&#x1219;" horiz-adv-x="1268" 
d="M285 132q-117 0 -179 70t-62 195q0 96 35 167t102 110.5t163 39.5h444q112 0 179.5 -58.5t67.5 -184.5q0 -81 -29.5 -142.5t-86.5 -95.5t-141 -34h-179v456h-98v-472q-31 -15 -87 -33t-129 -18zM307 194q26 0 44 9v452h-11q-62 0 -101 -67.5t-39 -181.5t29 -163t78 -49z
M749 258h25q57 0 81.5 56t24.5 152q0 83 -23.5 136t-78.5 53h-29v-397zM1207 355q-46 0 -70 23.5t-31 55.5h-133v60h133q7 31 31 54.5t70 23.5q18 0 33.5 -4t24.5 -9q-16 -17 -25 -41t-9 -55t10 -55.5t24 -39.5q-20 -13 -58 -13z" />
    <glyph glyph-name="uni121A" unicode="&#x121a;" horiz-adv-x="1076" 
d="M642 0q-10 17 -10 42q0 14 3.5 31t12.5 37l100 236h-32q-88 0 -127 40t-39 128q0 32 4 69t11 72h-97v-315q-39 -33 -96.5 -58.5t-130.5 -25.5q-98 0 -156 53t-58 152q0 119 74.5 186t213.5 67h461q101 0 147.5 -41t46.5 -109q0 -34 -12 -75.5t-41 -107.5l-106 -251
q-12 -28 -12 -44q0 -26 36 -26h70q7 31 31 54.5t70 23.5q18 0 33.5 -4t24.5 -9q-16 -17 -25 -41t-9 -55t10 -55.5t24 -39.5q-20 -13 -58 -13q-46 0 -70 23.5t-31 55.5h-263zM257 321q21 0 37 6t28 15v313h-14q-64 0 -100.5 -49.5t-36.5 -147.5q0 -70 23 -103.5t63 -33.5z
M764 417h15l17 43q10 25 19 54t9 59q0 41 -20 61.5t-51 20.5h-50q-7 -37 -10.5 -69t-3.5 -63q0 -57 15 -81.5t60 -24.5z" />
    <glyph glyph-name="uni121B" unicode="&#x121b;" horiz-adv-x="1010" 
d="M637 -6q-4 7 -6.5 16t-2.5 20q0 16 5 36t15 44l100 236h-32q-88 0 -127 40t-39 128q0 32 4 69t11 72h-97v-315q-39 -33 -96.5 -58.5t-130.5 -25.5q-98 0 -156 53t-58 152q0 119 74.5 186t213.5 67h461q101 0 147.5 -41t46.5 -109q0 -34 -12 -75.5t-41 -107.5l-106 -251
q-7 -14 -9.5 -25.5t-2.5 -20.5q0 -28 36 -28v-50zM257 321q21 0 37 6t28 15v313h-14q-64 0 -100.5 -49.5t-36.5 -147.5q0 -70 23 -103.5t63 -33.5zM764 417h15l17 43q10 25 19 54t9 59q0 41 -20 61.5t-51 20.5h-50q-7 -37 -10.5 -69t-3.5 -63q0 -57 15 -81.5t60 -24.5z" />
    <glyph glyph-name="uni121C" unicode="&#x121c;" horiz-adv-x="1108" 
d="M700 0q-22 8 -35.5 29t-13.5 52q0 36 19 80l78 185h-32q-88 0 -127 40t-39 128q0 32 4 69t11 72h-97v-315q-39 -33 -96.5 -58.5t-130.5 -25.5q-98 0 -156 53t-58 152q0 119 74.5 186t213.5 67h461q101 0 147.5 -41t46.5 -109q0 -34 -12 -75.5t-41 -107.5l-52 -126h68
q78 0 115.5 -27t37.5 -85q0 -60 -42.5 -101.5t-127.5 -41.5h-216zM257 321q21 0 37 6t28 15v313h-14q-64 0 -100.5 -49.5t-36.5 -147.5q0 -70 23 -103.5t63 -33.5zM764 417h15l17 43q10 25 19 54t9 59q0 41 -20 61.5t-51 20.5h-50q-7 -37 -10.5 -69t-3.5 -63q0 -57 15 -81.5
t60 -24.5zM840 56h19q41 0 62.5 22t21.5 61q0 29 -14.5 45t-52.5 16h-35l-30 -70q-10 -23 -10 -41q0 -33 39 -33z" />
    <glyph glyph-name="uni121D" unicode="&#x121d;" horiz-adv-x="1013" 
d="M219 -6q-8 14 -8 37q0 16 4.5 35.5t14.5 43.5l66 150q-27 -4 -55 -4q-96 0 -155 53t-59 152q0 119 75 186t213 67h444q113 0 172 -44t59 -130t-56 -139.5t-182 -53.5h-186v307h-98v-334l-81 -190q-12 -28 -12 -46q0 -28 37 -28v-50zM261 321q20 0 35 4t26 9v320h-13
q-65 0 -101.5 -49t-36.5 -147q0 -70 24 -103.5t66 -33.5zM718 411h29q48 0 68.5 34.5t20.5 92.5q0 47 -19 81.5t-66 34.5h-33v-243z" />
    <glyph glyph-name="uni121E" unicode="&#x121e;" horiz-adv-x="1013" 
d="M351 -6q-13 13 -21 31.5t-8 46.5v192q-18 -4 -37.5 -6t-40.5 -2q-100 0 -158.5 53t-58.5 152q0 119 75 186t213 67h444q113 0 172 -44t59 -130t-56 -139.5t-182 -53.5h-186v307h-98v-531q0 -41 13 -54t36 -13v-50zM261 321q20 0 35 4t26 9v320h-13q-65 0 -101.5 -49
t-36.5 -147q0 -70 24 -103.5t66 -33.5zM718 411h29q48 0 68.5 34.5t20.5 92.5q0 47 -19 81.5t-66 34.5h-33v-243z" />
    <glyph glyph-name="uni121F" unicode="&#x121f;" horiz-adv-x="1058" 
d="M450 -119q-33 0 -55 12q29 42 29 98q0 19 -3 37t-7 32h218q4 22 18 54l98 232h-32q-88 0 -127 40t-39 128q0 32 4 69t11 72h-97v-315q-39 -33 -96.5 -58.5t-130.5 -25.5q-98 0 -156 53t-58 152q0 119 74.5 186t213.5 67h461q101 0 147.5 -41t46.5 -109q0 -34 -12 -75.5
t-41 -107.5l-106 -251q-11 -23 -11 -41q0 -29 35 -29h193q-4 -14 -7 -32t-3 -37q0 -55 28 -98q-21 -12 -54 -12q-47 0 -73.5 25.5t-26.5 68.5q0 9 0.5 15t1.5 10h-347q1 -4 1.5 -10t0.5 -15q0 -43 -26 -68.5t-73 -25.5zM257 321q21 0 37 6t28 15v313h-14q-64 0 -100.5 -49.5
t-36.5 -147.5q0 -70 23 -103.5t63 -33.5zM764 417h15l17 43q10 25 19 54t9 59q0 41 -20 61.5t-51 20.5h-50q-7 -37 -10.5 -69t-3.5 -63q0 -57 15 -81.5t60 -24.5z" />
    <glyph glyph-name="uni1220" unicode="&#x1220;" horiz-adv-x="957" 
d="M301 -9q-83 0 -129.5 28t-65 80.5t-18.5 124.5q0 41 0.5 102t1.5 129.5t1 130.5q0 43 -13.5 56.5t-40.5 13.5v52l190 13q11 -14 16.5 -35.5t5.5 -54.5q0 -69 -1 -151t-2 -161t-1 -140q0 -59 18.5 -92t59.5 -33q49 0 67.5 46t18.5 125v361q0 43 -13.5 56.5t-41.5 13.5v52
l190 13q22 -28 22 -90v-348q0 -67 18 -95t57 -28q51 0 68.5 44t17.5 142v240q0 43 -13.5 56.5t-41.5 13.5v52l191 13q21 -29 21 -90v-263q0 -75 -28 -136.5t-82 -97.5t-132 -36q-52 0 -84.5 12t-48.5 26q-9 -35 -31 -68.5t-65 -55t-112 -21.5z" />
    <glyph glyph-name="uni1221" unicode="&#x1221;" horiz-adv-x="1123" 
d="M301 -9q-83 0 -129.5 28t-65 80.5t-18.5 124.5q0 41 0.5 102t1.5 129.5t1 130.5q0 43 -13.5 56.5t-40.5 13.5v52l190 13q11 -14 16.5 -35.5t5.5 -54.5q0 -69 -1 -151t-2 -161t-1 -140q0 -59 18.5 -92t59.5 -33q49 0 67.5 46t18.5 125v361q0 43 -13.5 56.5t-41.5 13.5v52
l190 13q22 -28 22 -90v-348q0 -67 18 -95t57 -28q51 0 68.5 44t17.5 142v240q0 43 -13.5 56.5t-41.5 13.5v52l191 13q21 -29 21 -90v-263q0 -75 -28 -136.5t-82 -97.5t-132 -36q-52 0 -84.5 12t-48.5 26q-9 -35 -31 -68.5t-65 -55t-112 -21.5zM1062 304q-46 0 -70 23.5
t-31 55.5h-133v60h133q7 31 31 54.5t70 23.5q18 0 33.5 -4t24.5 -9q-16 -17 -25 -41t-9 -55t10 -55.5t24 -39.5q-20 -13 -58 -13z" />
    <glyph glyph-name="uni1222" unicode="&#x1222;" horiz-adv-x="961" 
d="M528 0q-7 11 -7 33q0 15 3.5 33.5t13.5 43.5l96 240q-16 -3 -30 -3q-40 0 -69 12.5t-43 25.5q-8 -35 -30 -68t-63 -55t-107 -22q-78 0 -122.5 27.5t-63 77.5t-18.5 117q0 4 0.5 20t1 36.5t1 39t0.5 28.5q0 43 -13.5 56.5t-40.5 13.5v52l190 13q11 -14 16.5 -35.5
t5.5 -54.5q0 -15 -0.5 -42.5t-1.5 -59t-1.5 -58.5t-0.5 -42q0 -60 16.5 -92.5t53.5 -32.5q43 0 60 43.5t17 122.5v116q0 43 -13.5 56.5t-41.5 13.5v52l190 13q22 -28 22 -90v-99q0 -67 17 -95t49 -28q45 0 61.5 43.5t16.5 112.5v21q0 43 -13.5 56.5t-41.5 13.5v52l191 13
q21 -29 21 -90v-17q0 -32 -5 -62.5t-15 -58.5l-135 -363q-11 -30 -11 -44q0 -26 35 -26h71q8 31 31.5 54.5t69.5 23.5q18 0 33.5 -4t24.5 -9q-16 -17 -25 -41t-9 -55t10 -55.5t24 -39.5q-19 -13 -58 -13q-46 0 -69.5 23.5t-31.5 55.5h-262z" />
    <glyph glyph-name="uni1223" unicode="&#x1223;" horiz-adv-x="890" 
d="M292 240q-78 0 -122.5 27.5t-63 77.5t-18.5 117q0 4 0.5 20t1 36.5t1 39t0.5 28.5q0 43 -13.5 56.5t-40.5 13.5v52l190 13q11 -14 16.5 -35.5t5.5 -54.5q0 -15 -0.5 -42.5t-1.5 -59t-1.5 -58.5t-0.5 -42q0 -60 16.5 -92.5t53.5 -32.5q43 0 60 43.5t17 122.5v116
q0 43 -13.5 56.5t-41.5 13.5v52l190 13q22 -28 22 -90v-99q0 -67 17 -95t49 -28q45 0 61.5 43.5t16.5 112.5v21q0 43 -13.5 56.5t-41.5 13.5v52l191 13q21 -29 21 -90v-17q0 -62 -19 -114h1l-138 -370q-11 -31 -11 -47q0 -27 36 -27v-50l-193 -12q-7 14 -7 34q0 31 19 82
l88 237h-10q-46 0 -77 12.5t-47 25.5q-8 -35 -30 -68t-63 -55t-107 -22z" />
    <glyph glyph-name="uni1224" unicode="&#x1224;" horiz-adv-x="973" 
d="M292 240q-78 0 -122.5 27.5t-63 77.5t-18.5 117q0 4 0.5 20t1 36.5t1 39t0.5 28.5q0 43 -13.5 56.5t-40.5 13.5v52l190 13q11 -14 16.5 -35.5t5.5 -54.5q0 -15 -0.5 -42.5t-1.5 -59t-1.5 -58.5t-0.5 -42q0 -60 16.5 -92.5t53.5 -32.5q43 0 60 43.5t17 122.5v116
q0 43 -13.5 56.5t-41.5 13.5v52l190 13q22 -28 22 -90v-99q0 -67 17 -95t49 -28q45 0 61.5 43.5t16.5 112.5v21q0 43 -13.5 56.5t-41.5 13.5v52l191 13q21 -29 21 -90v-17q0 -75 -27 -134h1l-94 -225h68q78 0 115.5 -27t37.5 -85q0 -60 -42.5 -101.5t-127.5 -41.5h-216
q-23 8 -36 29t-13 52q0 36 19 80l79 186q-45 0 -75.5 12.5t-46.5 25.5q-8 -35 -30 -68t-63 -55t-107 -22zM705 56h19q41 0 63 22t22 61q0 29 -15 45t-52 16h-36l-30 -70q-10 -23 -10 -41q0 -33 39 -33z" />
    <glyph glyph-name="uni1225" unicode="&#x1225;" horiz-adv-x="1001" 
d="M40 -6q-4 6 -5 14t-1 18q0 32 21 84l127 302q-3 23 -3 50q0 4 0.5 20t1 36.5t1 39t0.5 28.5q0 43 -13.5 56.5t-40.5 13.5v52l190 13q11 -14 16.5 -35.5t5.5 -54.5q0 -15 -0.5 -42.5t-1.5 -59t-1.5 -58.5t-0.5 -42q0 -60 16 -92.5t54 -32.5q43 0 60 43.5t17 122.5v116
q0 43 -13.5 56.5t-41.5 13.5v52l190 13q22 -28 22 -90v-99q0 -67 17 -95t49 -28q45 0 61.5 43.5t16.5 112.5v21q0 43 -13.5 56.5t-41.5 13.5v52l191 13q21 -29 21 -90v-17q0 -76 -28 -136.5t-80.5 -95.5t-125.5 -35q-46 0 -77 12.5t-47 25.5q-9 -35 -31 -68t-62.5 -55
t-106.5 -22q-69 0 -114 23l-57 -133q-7 -16 -10.5 -28t-3.5 -20q0 -26 34 -26v-50z" />
    <glyph glyph-name="uni1226" unicode="&#x1226;" horiz-adv-x="909" 
d="M271 -6q-3 7 -5 16t-2 20q0 16 4 36t14 45l53 132q-21 -3 -43 -3q-78 0 -122.5 27.5t-63 77.5t-18.5 117q0 4 0.5 20t1 36.5t1 39t0.5 28.5q0 43 -13.5 56.5t-40.5 13.5v52l190 13q11 -14 16.5 -35.5t5.5 -54.5q0 -15 -0.5 -42.5t-1.5 -59t-1.5 -58.5t-0.5 -42
q0 -60 16.5 -92.5t53.5 -32.5q43 0 60 43.5t17 122.5v116q0 43 -13.5 56.5t-41.5 13.5v52l190 13q22 -28 22 -90v-99q0 -67 17 -95t49 -28q45 0 61.5 43.5t16.5 112.5v21q0 43 -13.5 56.5t-41.5 13.5v52l191 13q21 -29 21 -90v-17q0 -76 -28 -136.5t-80 -95.5t-126 -35
q-27 0 -48.5 4.5t-38.5 11.5l-90 -233q-11 -31 -11 -47q0 -27 36 -27v-50z" />
    <glyph glyph-name="uni1227" unicode="&#x1227;" horiz-adv-x="955" 
d="M347 -119q-33 0 -55 12q29 42 29 98q0 19 -3 37t-7 32h212q4 23 15 50l96 240q-16 -3 -30 -3q-40 0 -69 12.5t-43 25.5q-8 -35 -30 -68t-63 -55t-107 -22q-78 0 -122.5 27.5t-63 77.5t-18.5 117q0 4 0.5 20t1 36.5t1 39t0.5 28.5q0 43 -13.5 56.5t-40.5 13.5v52l190 13
q11 -14 16.5 -35.5t5.5 -54.5q0 -15 -0.5 -42.5t-1.5 -59t-1.5 -58.5t-0.5 -42q0 -60 16.5 -92.5t53.5 -32.5q43 0 60 43.5t17 122.5v116q0 43 -13.5 56.5t-41.5 13.5v52l190 13q22 -28 22 -90v-99q0 -67 17 -95t49 -28q45 0 61.5 43.5t16.5 112.5v21q0 43 -13.5 56.5
t-41.5 13.5v52l191 13q21 -29 21 -90v-17q0 -32 -5 -62.5t-15 -58.5l-135 -363q-11 -30 -11 -44q0 -26 35 -26h206q-4 -14 -7 -32t-3 -37q0 -55 28 -98q-21 -12 -54 -12q-47 0 -73.5 25.5t-26.5 68.5q0 9 0.5 15t1.5 10h-347q1 -4 1.5 -10t0.5 -15q0 -43 -26 -68.5
t-73 -25.5z" />
    <glyph glyph-name="uni1228" unicode="&#x1228;" horiz-adv-x="584" 
d="M297 0q-121 0 -187 47t-66 153q0 63 25 110.5t64.5 84.5t82.5 70q44 33 72 56t41 43.5t13 44.5q0 47 -47 47v51l185 13q7 -10 14.5 -30t7.5 -52q0 -49 -17 -88t-54.5 -76.5t-98.5 -83.5q-49 -37 -79.5 -67.5t-45 -63t-14.5 -76.5q0 -53 29.5 -88t88.5 -35h74
q7 31 31 54.5t71 23.5q18 0 33.5 -4t23.5 -9q-16 -17 -25 -41t-9 -55t10 -55.5t24 -39.5q-18 -13 -57 -13q-47 0 -71 23.5t-31 55.5h-88z" />
    <glyph glyph-name="uni1229" unicode="&#x1229;" horiz-adv-x="649" 
d="M282 -6q-11 15 -15.5 40.5t-4.5 57.5v100h-52q-108 0 -152 36t-44 101q0 43 17 71.5t49 53t76 56.5q41 29 62.5 47t29.5 30.5t8 27.5q0 19 -11.5 30t-44.5 11v51l192 13q16 -23 21.5 -43.5t5.5 -40.5q0 -36 -14 -65t-48.5 -60t-96.5 -74q-36 -25 -58 -42t-32.5 -34
t-10.5 -42q0 -67 78 -67h110v1h272q-4 -14 -7 -32t-3 -37q0 -56 29 -98q-22 -12 -55 -12q-47 0 -73.5 25t-26.5 69q0 9 0.5 14.5t1.5 10.5h-71v-1h-9v-60q0 -44 14 -58.5t45 -14.5v-53z" />
    <glyph glyph-name="uni122A" unicode="&#x122a;" horiz-adv-x="597" 
d="M303 -6q-123 0 -191 48.5t-68 161.5q0 62 25.5 108.5t65 83.5t81.5 69q45 34 72.5 58t40.5 44.5t13 44.5q0 21 -10 31.5t-35 10.5v53l183 13q7 -10 14.5 -30t7.5 -52q0 -48 -17 -86.5t-54 -77t-99 -84.5q-49 -38 -79.5 -68t-44.5 -63t-14 -81q0 -52 26 -88t86 -36
q55 0 84 31t29 92q0 27 -10.5 37t-35.5 10v53l184 13q6 -12 11 -33t5 -44q0 -102 -71 -160.5t-199 -58.5z" />
    <glyph glyph-name="uni122B" unicode="&#x122b;" horiz-adv-x="726" 
d="M297 0q-121 0 -187 47t-66 156q0 61 25.5 108t65 84.5t81.5 69.5q45 34 72.5 58t40.5 44.5t13 44.5q0 21 -10 31.5t-35 10.5v53l183 13q7 -10 14.5 -31t7.5 -53q0 -47 -17 -85t-54 -76.5t-99 -84.5q-49 -38 -79.5 -68t-44.5 -62t-14 -75q0 -56 27 -91t82 -35h10
q1 251 231 251h156q-3 -13 -5.5 -27.5t-2.5 -30.5q0 -50 22 -91q-8 -2 -19 -5t-28 -3q-40 0 -61.5 23t-21.5 61v6t1 8h-16q-59 0 -82 -51.5t-23 -148.5v-51h-167z" />
    <glyph glyph-name="uni122C" unicode="&#x122c;" horiz-adv-x="698" 
d="M297 0q-121 0 -187 47t-66 153q0 63 25 110.5t64.5 84.5t82.5 70q44 33 72 56t41 43.5t13 44.5q0 47 -47 47v51l185 13q7 -10 14.5 -30t7.5 -52q0 -49 -17 -88t-54.5 -76.5t-98.5 -83.5q-49 -37 -79.5 -67.5t-45 -63t-14.5 -76.5q0 -46 22.5 -79t67.5 -41q-10 23 -10 52
q0 60 38 102t123 42h112q48 0 76.5 -16.5t41 -43.5t12.5 -58q0 -39 -17.5 -71t-49 -51t-73.5 -19h-239zM467 54q33 0 50.5 25.5t17.5 62.5q0 28 -14 44.5t-41 16.5q-30 0 -48 -23.5t-18 -62.5q0 -29 14 -46t39 -17z" />
    <glyph glyph-name="uni122D" unicode="&#x122d;" horiz-adv-x="619" 
d="M532 -76q-48 0 -73 23.5t-33 52.5h-86q-89 0 -150.5 22t-93.5 77t-32 154v83q0 129 43 212.5t118 124.5t170 41h169q-4 -13 -7 -29t-3 -33q0 -31 8.5 -56.5t21.5 -42.5q-20 -10 -49 -10q-49 0 -76 26.5t-27 67.5v9t1 9h-23q-54 0 -97 -32.5t-68 -103.5t-25 -185v-101
q0 -70 19 -107.5t54 -52t84 -14.5h49q8 31 33 54t73 23q28 0 48 -10q-14 -16 -22.5 -41t-8.5 -55t8.5 -55t22.5 -41q-20 -10 -48 -10z" />
    <glyph glyph-name="uni122E" unicode="&#x122e;" horiz-adv-x="710" 
d="M574 -76q-48 0 -73 23.5t-32 52.5h-129q-89 0 -150.5 22t-93.5 77t-32 154v83q0 129 43 212.5t118 124.5t170 41h182q41 0 65.5 -15.5t35 -40t10.5 -52.5q0 -36 -14.5 -65.5t-41 -47.5t-61.5 -18h-134q-46 0 -70 30.5t-24 76.5q0 41 17 72q-62 -16 -101 -86t-39 -211
v-124q0 -70 18 -107.5t53.5 -52t87.5 -14.5h90q7 31 32 54t73 23q29 0 49 -10q-13 -16 -22 -41t-9 -55t9 -55t22 -41q-20 -10 -49 -10zM509 528q27 0 42 23t15 56q0 24 -12 38.5t-34 14.5q-26 0 -40.5 -21t-14.5 -56q0 -25 11.5 -40t32.5 -15z" />
    <glyph glyph-name="uni122F" unicode="&#x122f;" horiz-adv-x="743" 
d="M297 0q-121 0 -187 47t-66 156q0 61 25.5 108t65 84.5t81.5 69.5q45 34 72.5 57.5t40.5 43.5t13 44q0 22 -10 33t-35 11h-199q4 14 7.5 32t3.5 37q0 56 -29 98q10 5 24 8.5t30 3.5q48 0 74 -25.5t26 -68.5q0 -9 -0.5 -15t-1.5 -10h347q-1 4 -1.5 10t-0.5 15q0 43 26 68.5
t74 25.5q17 0 30.5 -3.5t23.5 -8.5q-29 -42 -29 -98q0 -19 3 -37t8 -32h-212q1 -9 1 -18q0 -47 -17 -85t-54 -76.5t-99 -84.5q-49 -38 -79.5 -68t-44.5 -62t-14 -75q0 -56 27 -91t82 -35h10q1 251 231 251h156q-3 -13 -5.5 -27.5t-2.5 -30.5q0 -50 22 -91q-8 -2 -19 -5
t-28 -3q-40 0 -61.5 23t-21.5 61v6t1 8h-16q-59 0 -82 -51.5t-23 -148.5v-51h-167z" />
    <glyph glyph-name="uni1230" unicode="&#x1230;" horiz-adv-x="670" 
d="M92 -6q-11 15 -15.5 40.5t-4.5 57.5v215q0 111 51 188t145 104v42q0 33 -12 48t-34 16v49l163 12q15 -10 22 -30t7 -46v-81q95 -11 131 -69.5t36 -159.5q0 -34 -1 -78t-2 -88.5t-1 -81.5q0 -44 14 -58.5t45 -14.5v-53l-197 -12q-21 28 -21 98q0 45 1 100.5t2 113.5t1 108
q0 70 -18 103.5t-56 33.5q-54 0 -86 -57t-32 -196v-166q0 -44 14 -58.5t45 -14.5v-53z" />
    <glyph glyph-name="uni1231" unicode="&#x1231;" horiz-adv-x="835" 
d="M92 -6q-11 15 -15.5 40.5t-4.5 57.5v215q0 111 51 188t145 104v42q0 33 -12 48t-34 16v49l163 12q15 -10 22 -30t7 -46v-81q95 -11 131 -69.5t36 -159.5q0 -34 -1 -78t-2 -88.5t-1 -81.5q0 -44 14 -58.5t45 -14.5v-53l-197 -12q-21 28 -21 98q0 45 1 100.5t2 113.5t1 108
q0 70 -18 103.5t-56 33.5q-54 0 -86 -57t-32 -196v-166q0 -44 14 -58.5t45 -14.5v-53zM775 202q-46 0 -70 23.5t-31 55.5h-133v60h133q7 31 31 54.5t70 23.5q18 0 33.5 -4t24.5 -9q-16 -17 -25 -41t-9 -55t10 -55.5t24 -39.5q-20 -13 -58 -13z" />
    <glyph glyph-name="uni1232" unicode="&#x1232;" horiz-adv-x="853" 
d="M92 -6q-11 15 -16 40.5t-5 57.5v215q0 113 52.5 190t148.5 103v41q0 33 -12 48t-34 16v49l162 12q15 -10 22 -30t7 -46v-81q93 -12 128 -70.5t35 -158.5q0 -34 -1 -77.5t-2 -88t-1 -81.5q0 -44 14 -58.5t45 -14.5h46q7 31 31 54.5t70 23.5q18 0 33.5 -4t24.5 -9
q-16 -17 -25 -41t-9 -55t10 -55.5t24 -39.5q-20 -13 -58 -13q-46 0 -70 23.5t-31 55.5h-242q-21 28 -21 98q0 45 1 99t2 110.5t1 106.5q0 70 -18 103.5t-56 33.5q-54 0 -86.5 -57t-32.5 -196v-166q0 -44 14 -58.5t45 -14.5v-53z" />
    <glyph glyph-name="uni1233" unicode="&#x1233;" horiz-adv-x="653" 
d="M421 -6q-21 28 -21 98q0 45 1 101t2 113.5t1 109.5q0 69 -18 102t-58 33q-54 0 -85 -45.5t-31 -134.5v-23q0 -28 14 -39.5t45 -11.5v-53l-197 -13q-11 15 -15.5 38t-4.5 52v33q0 88 50 154.5t143 91.5v41q0 33 -11.5 48t-34.5 16v49l163 12q15 -10 22 -30t7 -46v-81
q97 -11 133.5 -69t36.5 -156q0 -36 -1 -80.5l-2 -89t-1 -81.5q0 -44 14 -58.5t45 -14.5v-53z" />
    <glyph glyph-name="uni1234" unicode="&#x1234;" horiz-adv-x="862" 
d="M92 -6q-11 15 -16 40.5t-5 57.5v215q0 113 52.5 190.5t147.5 103.5v40q0 33 -12 48t-34 16v49l163 12q14 -10 21 -30t7 -46v-81q93 -11 128.5 -70t35.5 -160q0 -16 -0.5 -39.5t-1 -46.5t-0.5 -38h109q78 0 115.5 -27t37.5 -85q0 -60 -42 -101.5t-128 -41.5h-168
q-39 10 -61 35t-22 76q0 37 0.5 81.5t1 88.5t1 79t0.5 53q0 71 -18 104.5t-56 33.5q-54 0 -86.5 -57t-32.5 -196v-166q0 -44 14 -58.5t45 -14.5v-53zM630 54q32 0 50 22.5t18 59.5q0 31 -15 47.5t-52 16.5h-53v-97q0 -28 13 -38.5t39 -10.5z" />
    <glyph glyph-name="uni1235" unicode="&#x1235;" horiz-adv-x="670" 
d="M92 -6q-11 15 -15.5 40.5t-4.5 57.5v215q0 110 50.5 186.5t142.5 104.5l-35 68q-12 26 -12 47q0 29 17 46l171 5v-49q-34 -3 -34 -33q0 -13 8 -29l22 -42q102 -9 140.5 -68t38.5 -163q0 -34 -1 -78t-2 -88.5t-1 -81.5q0 -44 14 -58.5t45 -14.5v-53l-197 -12
q-21 28 -21 98q0 45 1 100.5t2 113.5t1 108q0 70 -18 103.5t-56 33.5q-54 0 -86 -57t-32 -196v-166q0 -44 14 -58.5t45 -14.5v-53z" />
    <glyph glyph-name="uni1236" unicode="&#x1236;" horiz-adv-x="647" 
d="M92 -6q-11 15 -15.5 40.5t-4.5 57.5v215q0 110 50 186.5t141 104.5v43q0 33 -12 48t-34 16v49l163 12q14 -10 21.5 -30t7.5 -46v-80q65 -7 102.5 -33.5t53 -66.5t15.5 -89q0 -14 -0.5 -30.5t-0.5 -27.5q0 -37 13 -50.5t44 -13.5v-53l-196 -12q-21 28 -21 98q0 20 1 50.5
t1 56.5q0 53 -17.5 82.5t-55.5 29.5q-54 0 -86 -57t-32 -196v-165q0 -44 14 -58.5t45 -14.5v-53z" />
    <glyph glyph-name="uni1237" unicode="&#x1237;" horiz-adv-x="771" 
d="M67 -119q-33 0 -55 12q29 42 29 98q0 19 -3 37t-7 32h383q-1 15 -1 35q0 41 0.5 96.5t1.5 114t1 110.5q0 69 -18 102t-58 33q-54 0 -85 -45.5t-31 -134.5v-23q0 -28 14 -39.5t45 -11.5v-53l-197 -13q-11 15 -15.5 38t-4.5 52v33q0 90 52 157t148 90v40q0 33 -12 48
t-34 16v49l162 12q15 -10 22 -30t7 -46v-81q93 -12 128.5 -70t35.5 -155q0 -36 -1 -83t-2 -92t-1 -76q0 -44 14 -58.5t45 -14.5h111q-5 -14 -8 -32t-3 -37q0 -56 29 -98q-10 -5 -23.5 -8.5t-30.5 -3.5q-48 0 -74 25.5t-26 68.5q0 9 0.5 15t1.5 10h-443q1 -4 1.5 -10t0.5 -15
q0 -43 -26 -68.5t-73 -25.5z" />
    <glyph glyph-name="uni1238" unicode="&#x1238;" horiz-adv-x="714" 
d="M110 -6q-11 15 -15.5 40.5t-4.5 57.5v215q0 113 53 190.5t149 103.5v99h-81q-7 -31 -31 -55t-69 -24q-18 0 -33 4.5t-24 9.5q16 17 25 41t9 54q0 32 -10 56.5t-24 38.5q9 6 24 10t33 4q45 0 69 -23.5t31 -55.5h292q7 31 31.5 55t69.5 24q18 0 32.5 -4.5t23.5 -9.5
q-16 -17 -25 -41t-9 -55t10 -55.5t24 -38.5q-9 -6 -23.5 -10t-32.5 -4q-45 0 -69.5 23.5t-31.5 55.5h-74v-90q96 -11 133 -70t37 -160q0 -34 -1 -78t-2 -88.5t-1 -81.5q0 -44 14 -58.5t45 -14.5v-53l-197 -12q-21 28 -21 98q0 45 1 100.5t2 113.5t1 108q0 70 -18 103.5
t-56 33.5q-54 0 -86 -57t-32 -196v-166q0 -44 14 -58.5t45 -14.5v-53z" />
    <glyph glyph-name="uni1239" unicode="&#x1239;" horiz-adv-x="831" 
d="M110 -6q-11 15 -15.5 40.5t-4.5 57.5v215q0 113 53 190.5t149 103.5v99h-81q-7 -31 -31 -55t-69 -24q-18 0 -33 4.5t-24 9.5q16 17 25 41t9 54q0 32 -10 56.5t-24 38.5q9 6 24 10t33 4q45 0 69 -23.5t31 -55.5h292q7 31 31.5 55t69.5 24q18 0 32.5 -4.5t23.5 -9.5
q-16 -17 -25 -41t-9 -55t10 -55.5t24 -38.5q-9 -6 -23.5 -10t-32.5 -4q-45 0 -69.5 23.5t-31.5 55.5h-74v-90q96 -11 133 -70t37 -160q0 -34 -1 -78t-2 -88.5t-1 -81.5q0 -44 14 -58.5t45 -14.5v-53l-197 -12q-21 28 -21 98q0 45 1 100.5t2 113.5t1 108q0 70 -18 103.5
t-56 33.5q-54 0 -86 -57t-32 -196v-166q0 -44 14 -58.5t45 -14.5v-53zM770 215q-46 0 -70 23.5t-31 55.5h-133v60h133q7 31 31 54.5t70 23.5q18 0 33.5 -4t24.5 -9q-16 -17 -25 -41t-9 -55t10 -55.5t24 -39.5q-20 -13 -58 -13z" />
    <glyph glyph-name="uni123A" unicode="&#x123a;" horiz-adv-x="869" 
d="M116 -6q-11 15 -15.5 40.5t-4.5 57.5v215q0 111 51 188t144 104v101h-80q-7 -31 -31 -55t-69 -24q-18 0 -33 4.5t-24 9.5q16 17 25 41t9 54q0 32 -10 56.5t-24 38.5q9 6 24 10t33 4q45 0 69 -23.5t31 -55.5h292q7 31 31.5 55t69.5 24q18 0 32.5 -4.5t23.5 -9.5
q-16 -17 -25 -41t-9 -55t10 -55.5t24 -38.5q-9 -6 -23.5 -10t-32.5 -4q-45 0 -69.5 23.5t-31.5 55.5h-76v-90q101 -8 139.5 -67t38.5 -163q0 -34 -1 -78t-2 -88.5t-1 -81.5q0 -44 14 -58t45 -14h38q7 31 30.5 54.5t70.5 23.5q18 0 33.5 -4t24.5 -9q-16 -17 -25 -41t-9 -55
t10 -55.5t24 -39.5q-19 -13 -58 -13q-47 0 -70 23.5t-31 55.5h-236q-10 15 -15 37t-5 58q0 45 1 100t2 112t1 107q0 70 -18 103.5t-56 33.5q-36 0 -62.5 -24.5t-41 -80.5t-14.5 -148v-166q0 -44 14 -58.5t45 -14.5v-53z" />
    <glyph glyph-name="uni123B" unicode="&#x123b;" horiz-adv-x="706" 
d="M450 -6q-21 28 -21 98q0 45 1 101t2 113.5t1 109.5q0 69 -18 102t-58 33q-54 0 -85 -45.5t-31 -134.5v-23q0 -28 14 -39.5t45 -11.5v-53l-197 -13q-11 15 -15.5 38t-4.5 52v33q0 89 51 156t146 91v99h-79q-7 -31 -31 -55t-69 -24q-18 0 -33 4.5t-24 9.5q16 17 25 41t9 54
q0 32 -10 56.5t-24 38.5q9 6 24 10t33 4q45 0 69 -23.5t31 -55.5h292q7 31 31.5 55t69.5 24q18 0 32.5 -4.5t23.5 -9.5q-16 -17 -25 -41t-9 -55t10 -55.5t24 -38.5q-9 -6 -23.5 -10t-32.5 -4q-45 0 -69.5 23.5t-31.5 55.5h-76v-90q100 -10 137.5 -68t37.5 -158
q0 -36 -1 -80.5l-2 -89t-1 -81.5q0 -44 14 -58.5t45 -14.5v-53z" />
    <glyph glyph-name="uni123C" unicode="&#x123c;" horiz-adv-x="858" 
d="M99 -6q-11 15 -15.5 40.5t-4.5 57.5v215q0 116 55 194t155 102v97h-78q-7 -31 -31 -55t-69 -24q-18 0 -33 4.5t-24 9.5q16 17 25 41t9 54q0 32 -10 56.5t-24 38.5q9 6 24 10t33 4q45 0 69 -23.5t31 -55.5h292q7 31 31.5 55t69.5 24q18 0 32.5 -4.5t23.5 -9.5
q-16 -17 -25 -41t-9 -55t10 -55.5t24 -38.5q-9 -6 -23.5 -10t-32.5 -4q-45 0 -69.5 23.5t-31.5 55.5h-77v-92q86 -13 116.5 -71t30.5 -157v-125h110q78 0 115.5 -27t37.5 -85q0 -60 -42.5 -101.5t-127.5 -41.5h-120q-117 15 -117 126v129v0q0 43 0.5 78t0.5 81
q0 70 -18.5 103.5t-56.5 33.5q-54 0 -86 -57t-32 -196v-166q0 -44 14 -58.5t45 -14.5v-53zM625 54q32 0 50 22.5t18 59.5q0 31 -14.5 47.5t-52.5 16.5h-53v-79q0 -36 12.5 -51.5t39.5 -15.5z" />
    <glyph glyph-name="uni123D" unicode="&#x123d;" horiz-adv-x="708" 
d="M111 -6q-11 15 -15.5 40.5t-4.5 57.5v215q0 110 50.5 186.5t142.5 104.5l-35 68q-12 26 -12 47q0 29 17 46l171 5v-49q-34 -3 -34 -33q0 -13 8 -29l22 -42q102 -9 140.5 -68t38.5 -163q0 -34 -1 -78t-2 -88.5t-1 -81.5q0 -44 14 -58.5t45 -14.5v-53l-197 -12
q-21 28 -21 98q0 45 1 100.5t2 113.5t1 108q0 70 -18 103.5t-56 33.5q-54 0 -86 -57t-32 -196v-166q0 -44 14 -58.5t45 -14.5v-53zM81 636q-18 0 -33 4.5t-24 9.5q16 17 25 41t9 54q0 32 -10 56.5t-24 38.5q9 6 24 10t33 4q45 0 69 -23.5t31 -55.5h292q7 31 31.5 55t69.5 24
q18 0 32.5 -4.5t23.5 -9.5q-16 -17 -25 -41t-9 -55t10 -55.5t24 -38.5q-9 -6 -23.5 -10t-32.5 -4q-45 0 -69.5 23.5t-31.5 55.5h-292q-7 -31 -31 -55t-69 -24z" />
    <glyph glyph-name="uni123E" unicode="&#x123e;" horiz-adv-x="714" 
d="M108 -6q-11 15 -15.5 40.5t-4.5 57.5v215q0 113 53 190.5t149 103.5v99h-79q-7 -31 -31 -55t-69 -24q-18 0 -33 4.5t-24 9.5q16 17 25 41t9 54q0 32 -10 56.5t-24 38.5q9 6 24 10t33 4q45 0 69 -23.5t31 -55.5h292q7 31 31.5 55t69.5 24q18 0 32.5 -4.5t23.5 -9.5
q-16 -17 -25 -41t-9 -55t10 -55.5t24 -38.5q-9 -6 -23.5 -10t-32.5 -4q-45 0 -69.5 23.5t-31.5 55.5h-76v-90q64 -8 101 -34t52.5 -66.5t15.5 -88.5q0 -14 -0.5 -30.5t-0.5 -27.5q0 -37 13 -50.5t44 -13.5v-53l-196 -12q-21 28 -21 98q0 20 1 50.5t1 56.5q0 53 -17.5 82.5
t-55.5 29.5q-54 0 -86 -57t-32 -196v-165q0 -44 14 -58.5t45 -14.5v-53z" />
    <glyph glyph-name="uni123F" unicode="&#x123f;" horiz-adv-x="771" 
d="M67 -119q-33 0 -55 12q29 42 29 98q0 19 -3 37t-7 32h383q-1 15 -1 35q0 41 0.5 96.5t1.5 114t1 110.5q0 69 -18 102t-58 33q-54 0 -85 -45.5t-31 -134.5v-23q0 -28 14 -39.5t45 -11.5v-53l-197 -13q-11 15 -15.5 38t-4.5 52v33q0 94 56.5 163t161.5 88v95h-80
q-7 -31 -31 -55t-69 -24q-18 0 -33 4.5t-24 9.5q16 17 25 41t9 54q0 32 -10 56.5t-24 38.5q9 6 24 10t33 4q45 0 69 -23.5t31 -55.5h292q7 31 31.5 55t69.5 24q18 0 32.5 -4.5t23.5 -9.5q-16 -17 -25 -41t-9 -55t10 -55.5t24 -38.5q-9 -6 -23.5 -10t-32.5 -4q-45 0 -69 23.5
t-32 55.5h-75v-93q87 -14 120.5 -71.5t33.5 -151.5q0 -36 -1 -83t-2 -92t-1 -76q0 -44 14 -58.5t45 -14.5h111q-5 -14 -8 -32t-3 -37q0 -56 29 -98q-10 -5 -23.5 -8.5t-30.5 -3.5q-48 0 -74 25.5t-26 68.5q0 9 0.5 15t1.5 10h-443q1 -4 1.5 -10t0.5 -15q0 -43 -26 -68.5
t-73 -25.5z" />
    <glyph glyph-name="uni1240" unicode="&#x1240;" horiz-adv-x="680" 
d="M288 228q-102 0 -162 18.5t-86 54t-26 85.5t26 85.5t86 54t162 18.5h104q102 0 162 -18t85.5 -53t25.5 -87q0 -49 -26 -84.5t-85.5 -54.5t-161.5 -19h-104zM301 287h76q79 0 108.5 26.5t29.5 73.5q0 29 -11 51.5t-41 34.5t-86 12h-76q-79 0 -107.5 -26.5t-28.5 -73.5
q0 -29 11.5 -51t41 -34.5t83.5 -12.5zM289 -6q-13 13 -21 31.5t-8 46.5v526q0 59 -46 59v50l174 13q14 -8 21.5 -28t7.5 -43v-525q0 -40 13 -53.5t36 -13.5v-51z" />
    <glyph glyph-name="uni1241" unicode="&#x1241;" horiz-adv-x="684" 
d="M288 254q-102 0 -162 18.5t-86 54t-26 85.5t26 85.5t86 54t162 18.5h104q102 0 162 -18t85.5 -53t25.5 -87q0 -49 -26 -84.5t-85.5 -54.5t-161.5 -19h-104zM301 313h76q79 0 108.5 26.5t29.5 73.5q0 29 -11 51.5t-41 34.5t-86 12h-76q-79 0 -107.5 -26.5t-28.5 -73.5
q0 -29 11.5 -51t41 -34.5t83.5 -12.5zM289 -6q-13 13 -21 31.5t-8 46.5v526q0 59 -46 59v50l174 13q14 -8 21.5 -28t7.5 -43v-525q0 -40 13 -53.5t36 -13.5v-51zM610 45q-46 0 -70 23.5t-31 55.5h-133v60h133q7 31 31 54.5t70 23.5q18 0 33.5 -4t24.5 -9q-16 -17 -25 -41
t-9 -55t10 -55.5t24 -39.5q-20 -13 -58 -13z" />
    <glyph glyph-name="uni1242" unicode="&#x1242;" horiz-adv-x="690" 
d="M279 0q-11 15 -15.5 38.5t-4.5 59.5v143q-91 3 -144.5 22t-77 53.5t-23.5 82.5q0 72 54.5 113t190.5 45v41q0 59 -46 59v50l174 13q13 -8 21.5 -28t8.5 -43v-92q92 -2 146.5 -20.5t78 -53t23.5 -84.5q0 -47 -23.5 -81.5t-78 -54t-146.5 -22.5v-108q0 -44 14 -58.5
t45 -14.5h41q7 31 31 54.5t70 23.5q18 0 33.5 -4t24.5 -9q-16 -17 -25 -41t-9 -55t10 -55.5t24 -39.5q-20 -13 -58 -13q-46 0 -70 23.5t-31 55.5h-238zM515 400q0 38 -19.5 64t-78.5 32v-194q56 7 77 32t21 66zM165 398q0 -37 19.5 -62.5t74.5 -33.5v194q-54 -7 -74 -32.5
t-20 -65.5z" />
    <glyph glyph-name="uni1243" unicode="&#x1243;" horiz-adv-x="697" 
d="M305 231q-102 0 -162 18.5t-86 54t-26 85.5t26 85.5t86 54t162 18.5h104q102 0 162 -18t85.5 -53t25.5 -87q0 -49 -26 -84.5t-85.5 -54.5t-161.5 -19h-104zM318 290h76q79 0 108.5 26.5t29.5 73.5q0 29 -11 51.5t-41 34.5t-86 12h-76q-79 0 -107.5 -26.5t-28.5 -73.5
q0 -29 11.5 -51t41 -34.5t83.5 -12.5zM63 -116q-17 0 -29.5 2.5t-21.5 6.5q24 44 24 100q0 17 -2.5 33t-6.5 31h87q86 0 125.5 44.5t39.5 138.5v354q0 34 -12.5 48t-34.5 14v50l175 12q29 -21 29 -74v-406q0 -110 -70 -175t-201 -65h-7q1 -5 1.5 -9.5t0.5 -12.5
q0 -41 -26 -66.5t-71 -25.5z" />
    <glyph glyph-name="uni1244" unicode="&#x1244;" horiz-adv-x="680" 
d="M370 0q-114 8 -114 112v182q-134 4 -188 40t-54 102q0 67 54 103.5t188 40.5v18q0 59 -46 59v50l174 13q14 -8 21.5 -28t7.5 -43v-69q133 -4 186.5 -39.5t53.5 -104.5q0 -64 -54 -101t-186 -41v-70h104q76 0 112 -23.5t36 -73.5q0 -53 -41 -90t-124 -37h-130zM158 435
q0 -32 20.5 -54t77.5 -27v166q-55 -5 -76.5 -27t-21.5 -58zM508 437q0 33 -19 55t-76 27v-164q53 5 74 26t21 56zM461 50q31 0 47.5 19t16.5 51q0 26 -14 39.5t-48 13.5h-50v-66q0 -31 12 -44t36 -13z" />
    <glyph glyph-name="uni1245" unicode="&#x1245;" horiz-adv-x="685" 
d="M295 -6q-13 13 -21 31.5t-8 46.5v160q-91 3 -145 22t-77.5 53.5t-23.5 82.5q0 72 55 113t191 45v50q0 29 -10 42.5t-36 13.5h-187q4 14 7 32t3 37q0 56 -29 98q22 12 55 12q47 0 73 -25.5t26 -68.5q0 -9 -0.5 -15t-1.5 -10h228q16 -10 22.5 -28t6.5 -38v-100
q92 -2 146.5 -20.5t78 -53t23.5 -84.5q0 -47 -23.5 -81.5t-78 -54t-146.5 -22.5v-109q0 -41 13 -54t36 -13v-50zM521 391q0 38 -19.5 64t-78.5 32v-194q56 7 77 32t21 66zM171 389q0 -37 19.5 -63t75.5 -33v194q-54 -7 -74.5 -32.5t-20.5 -65.5z" />
    <glyph glyph-name="uni1246" unicode="&#x1246;" horiz-adv-x="680" 
d="M291 -6q-13 13 -21 31.5t-8 46.5v370q0 37 19 56q-38 6 -69 20.5t-49 41t-18 68.5q0 67 50.5 104.5t147.5 37.5q101 0 147.5 -35t46.5 -97q0 -37 -13 -61t-34.5 -41t-47.5 -32q-15 -9 -19 -20.5t-4 -33.5v-327q0 -41 13 -54t36 -13v-50zM345 535q23 13 41 34t18 65
q0 40 -16.5 61t-44.5 21q-27 0 -46 -20t-19 -66q0 -47 20 -67.5t47 -27.5zM288 112q-102 0 -162 18.5t-86 54t-26 85.5t26 85.5t86 54t162 18.5h104q102 0 162 -18t85.5 -53t25.5 -87q0 -49 -26 -84.5t-85.5 -54.5t-161.5 -19h-104zM301 171h76q79 0 108.5 26.5t29.5 73.5
q0 29 -11 51.5t-41 34.5t-86 12h-76q-79 0 -107.5 -26.5t-28.5 -73.5q0 -29 11.5 -51t41 -34.5t83.5 -12.5z" />
    <glyph glyph-name="uni1247" unicode="&#x1247;" horiz-adv-x="667" 
d="M100 -79q-38 0 -58 13q14 15 24 39.5t10 55.5t-9 55t-25 41q9 5 24.5 9t33.5 4q46 0 70 -23.5t31 -54.5h21q40 0 40 56v62q-137 3 -192.5 39t-55.5 103t55.5 104t192.5 40v10q0 18 5 30.5t14 22.5q-53 8 -89 35t-36 81q0 60 46 93.5t134 33.5q92 0 135.5 -32t43.5 -87
q0 -47 -24.5 -74t-59.5 -46q-15 -9 -19 -19t-4 -30v-18q136 -3 190.5 -39t54.5 -105q0 -64 -55 -101.5t-190 -40.5v-107q0 -24 -8 -43.5t-21 -27.5h-178q-7 -32 -31 -55.5t-70 -23.5zM340 564q23 12 37.5 31t14.5 54q0 70 -56 70t-56 -75q0 -39 16 -56t44 -24zM158 319
q0 -33 22 -55t82 -26v166q-58 -4 -81 -26t-23 -59zM508 321q0 34 -20 56t-80 27v-166q56 5 78 26t22 57z" />
    <glyph glyph-name="uni1248" unicode="&#x1248;" horiz-adv-x="946" 
d="M283 -6q-13 13 -21 31.5t-8 46.5v526q0 59 -46 59v50l174 13q14 -8 21.5 -28t7.5 -43v-525q0 -40 13 -53.5t36 -13.5v-51zM636 24q-52 0 -80 33t-28 82q0 16 2 30h-156v60h181q18 25 50 39.5t80 14.5h111q48 0 75.5 -16.5t39.5 -43.5t12 -58q0 -38 -16.5 -70t-46.5 -51.5
t-70 -19.5h-154zM718 78q32 0 49 25.5t17 62.5q0 28 -14 45t-39 17q-30 0 -47 -23.5t-17 -63.5q0 -29 13.5 -46t37.5 -17zM282 293q-99 0 -157.5 16.5t-84.5 48t-26 77.5t26 78.5t84.5 49t157.5 16.5h104q99 0 157.5 -16t84 -48t25.5 -80q0 -44 -25.5 -76t-84.5 -49
t-157 -17h-104zM289 352h88q74 0 102.5 21.5t28.5 62.5q0 25 -10.5 44t-39 29.5t-81.5 10.5h-88q-74 0 -102.5 -22.5t-28.5 -63.5q0 -37 27 -59.5t104 -22.5z" />
    <glyph glyph-name="uni124A" unicode="&#x124a;" horiz-adv-x="1057" 
d="M288 228q-102 0 -162 18.5t-86 54t-26 85.5t26 85.5t86 54t162 18.5h104q102 0 162 -18t85.5 -53t25.5 -87q0 -49 -26 -84.5t-85.5 -54.5t-161.5 -19h-104zM301 287h76q79 0 108.5 26.5t29.5 73.5q0 29 -11 51.5t-41 34.5t-86 12h-76q-79 0 -107.5 -26.5t-28.5 -73.5
q0 -29 11.5 -51t41 -34.5t83.5 -12.5zM289 -6q-13 13 -21 31.5t-8 46.5v526q0 59 -46 59v50l174 13q14 -8 21.5 -28t7.5 -43v-525q0 -40 13 -53.5t36 -13.5v-51zM746 251v99h-177v60h177v114h116v-213h174q-4 -13 -7 -31t-3 -38q0 -54 29 -98q-22 -12 -55 -12
q-47 0 -73.5 26t-26.5 69q0 8 0.5 13.5t1.5 10.5h-156z" />
    <glyph glyph-name="uni124B" unicode="&#x124b;" horiz-adv-x="698" 
d="M89 14q-33 0 -55 12q29 42 29 98q0 19 -3 37t-7 32h222v84q-93 2 -147.5 21.5t-78.5 54t-24 82.5t24 82.5t79 54t147 21.5v20q0 52 -46 52v43l174 11q13 -7 21 -24.5t8 -38.5v-63q91 -3 144.5 -21.5t76.5 -53t23 -83.5q0 -47 -23.5 -81t-77 -54t-143.5 -23v-85h187v-69
q0 -41 13 -54t36 -13v-50l-177 -12q-13 13 -21 31.5t-8 46.5v60h-198v1h-78q1 -5 1.5 -10.5t0.5 -14.5q0 -44 -26 -69t-73 -25zM176 434q0 -38 20.5 -64t78.5 -32v194q-57 -6 -78 -31.5t-21 -66.5zM526 436q0 38 -19 63t-75 33v-193q53 7 73.5 32t20.5 65z" />
    <glyph glyph-name="uni124C" unicode="&#x124c;" horiz-adv-x="680" 
d="M92 -119q-16 0 -30 3.5t-24 8.5q29 42 29 98q0 19 -3.5 37t-7.5 32h210q-10 22 -10 52v182q-134 4 -188 40t-54 102q0 67 54 103.5t188 40.5v18q0 59 -46 59v50l174 13q14 -8 21.5 -28t7.5 -43v-69q133 -4 186.5 -39.5t53.5 -104.5q0 -64 -54 -101t-186 -41v-70h104
q76 0 112 -23.5t36 -73.5q0 -53 -41 -90t-124 -37h-310q1 -4 1.5 -10t0.5 -15q0 -43 -26 -68.5t-74 -25.5zM158 435q0 -32 20.5 -54t77.5 -27v166q-55 -5 -76.5 -27t-21.5 -58zM508 437q0 33 -19 55t-76 27v-164q53 5 74 26t21 56zM461 50q31 0 47.5 19t16.5 51
q0 26 -14 39.5t-48 13.5h-50v-66q0 -31 12 -44t36 -13z" />
    <glyph glyph-name="uni124D" unicode="&#x124d;" horiz-adv-x="1021" 
d="M288 228q-102 0 -162 18.5t-86 54t-26 85.5t26 85.5t86 54t162 18.5h104q102 0 162 -18t85.5 -53t25.5 -87q0 -49 -26 -84.5t-85.5 -54.5t-161.5 -19h-104zM301 287h76q79 0 108.5 26.5t29.5 73.5q0 29 -11 51.5t-41 34.5t-86 12h-76q-79 0 -107.5 -26.5t-28.5 -73.5
q0 -29 11.5 -51t41 -34.5t83.5 -12.5zM289 -6q-13 13 -21 31.5t-8 46.5v526q0 59 -46 59v50l174 13q14 -8 21.5 -28t7.5 -43v-525q0 -40 13 -53.5t36 -13.5v-51zM595 354v59h133v1h2v190h116v-190h154q-4 -14 -7 -32t-3 -37q0 -56 29 -98q-22 -12 -55 -12q-47 0 -73.5 25.5
t-26.5 68.5q0 9 0.5 14.5t1.5 10.5h-271z" />
    <glyph glyph-name="uni1250" unicode="&#x1250;" horiz-adv-x="700" 
d="M301 -6q-13 13 -21 31.5t-8 46.5v188q-92 3 -146.5 22t-78 53.5t-23.5 82.5t24 82.5t78 53.5t146 22v124h-68q-7 -31 -31 -55t-69 -24q-18 0 -33 4.5t-24 9.5q16 17 25 41t9 54q0 32 -10 56.5t-24 38.5q9 6 24 10t33 4q45 0 69 -23.5t31 -55.5h292q7 31 31.5 55t69.5 24
q18 0 32.5 -4.5t23.5 -9.5q-16 -17 -25 -41t-9 -55t10 -55.5t24 -38.5q-9 -6 -23.5 -10t-32.5 -4q-45 0 -69 23.5t-32 55.5h-67v-124q92 -3 145.5 -21.5t77 -52.5t23.5 -84q0 -47 -23.5 -81.5t-77.5 -54t-145 -22.5v-137q0 -41 13 -54t36 -13v-50zM175 417q0 -38 20 -63.5
t77 -32.5v194q-55 -6 -76 -31.5t-21 -66.5zM525 419q0 38 -19 63.5t-77 32.5v-194q55 7 75.5 32.5t20.5 65.5z" />
    <glyph glyph-name="uni1251" unicode="&#x1251;" horiz-adv-x="710" 
d="M301 -6q-13 13 -21 31.5t-8 46.5v188q-92 3 -146.5 22t-78 53.5t-23.5 82.5t24 82.5t78 53.5t146 22v124h-68q-7 -31 -31 -55t-69 -24q-18 0 -33 4.5t-24 9.5q16 17 25 41t9 54q0 32 -10 56.5t-24 38.5q9 6 24 10t33 4q45 0 69 -23.5t31 -55.5h292q7 31 31.5 55t69.5 24
q18 0 32.5 -4.5t23.5 -9.5q-16 -17 -25 -41t-9 -55t10 -55.5t24 -38.5q-9 -6 -23.5 -10t-32.5 -4q-45 0 -69 23.5t-32 55.5h-67v-124q92 -3 145.5 -21.5t77 -52.5t23.5 -84q0 -47 -23.5 -81.5t-77.5 -54t-145 -22.5v-137q0 -41 13 -54t36 -13v-50zM175 417q0 -38 20 -63.5
t77 -32.5v194q-55 -6 -76 -31.5t-21 -66.5zM525 419q0 38 -19 63.5t-77 32.5v-194q55 7 75.5 32.5t20.5 65.5zM627 38q-46 0 -70 23.5t-31 55.5h-133v60h133q7 31 31 54.5t70 23.5q18 0 33.5 -4t24.5 -9q-16 -17 -25 -41t-9 -55t10 -55.5t24 -39.5q-20 -13 -58 -13z" />
    <glyph glyph-name="uni1252" unicode="&#x1252;" horiz-adv-x="702" 
d="M292 0q-11 15 -15.5 38.5t-4.5 59.5v162q-92 3 -146.5 22t-78 53.5t-23.5 82.5t24 82.5t78 53.5t146 22v124h-68q-7 -31 -31 -55t-69 -24q-18 0 -33 4.5t-24 9.5q16 17 25 41t9 54q0 32 -10 56.5t-24 38.5q9 6 24 10t33 4q45 0 69 -23.5t31 -55.5h292q7 31 31.5 55
t69.5 24q18 0 32.5 -4.5t23.5 -9.5q-16 -17 -25 -41t-9 -55t10 -55.5t24 -38.5q-9 -6 -23.5 -10t-32.5 -4q-45 0 -69 23.5t-32 55.5h-67v-124q92 -3 145.5 -21.5t77 -52.5t23.5 -84q0 -47 -23.5 -81.5t-77.5 -54t-145 -22.5v-127q0 -44 14 -58.5t45 -14.5h28q8 31 31.5 54.5
t69.5 23.5q18 0 33.5 -4t24.5 -9q-16 -17 -25 -41t-9 -55t10 -55.5t24 -39.5q-19 -13 -58 -13q-46 0 -69.5 23.5t-31.5 55.5h-224zM175 417q0 -38 20 -63.5t77 -32.5v194q-55 -6 -76 -31.5t-21 -66.5zM525 419q0 38 -19 63.5t-77 32.5v-194q55 7 75.5 32.5t20.5 65.5z" />
    <glyph glyph-name="uni1253" unicode="&#x1253;" horiz-adv-x="707" 
d="M63 -116q-17 0 -29.5 2.5t-21.5 6.5q24 44 24 100q0 17 -2.5 33t-6.5 31h87q88 0 128.5 42t42.5 132q-94 2 -150 21t-80 53.5t-24 83.5t24.5 83.5t80 53.5t149.5 21v153h-76q-7 -31 -31 -55t-69 -24q-18 0 -33 4.5t-24 9.5q16 17 25 41t9 54q0 32 -10 56.5t-24 38.5
q9 6 24 10t33 4q45 0 69 -23.5t31 -55.5h292q7 31 31.5 55t69.5 24q18 0 32.5 -4.5t23.5 -9.5q-16 -17 -25 -41t-9 -55t10 -55.5t24 -38.5q-9 -6 -23.5 -10t-32.5 -4q-45 0 -69.5 23.5t-31.5 55.5h-71v-153q94 -2 149 -20.5t79 -53t24 -84.5q0 -47 -24 -82t-79.5 -54.5
t-148.5 -21.5q-2 -106 -71 -169.5t-194 -63.5h-7q1 -5 1.5 -9.5t0.5 -12.5q0 -41 -26 -66.5t-71 -25.5zM182 388q0 -39 21 -65t82 -32v196q-59 -6 -81 -31.5t-22 -67.5zM532 390q0 39 -20.5 65t-81.5 31v-194q58 6 80 31.5t22 66.5z" />
    <glyph glyph-name="uni1254" unicode="&#x1254;" horiz-adv-x="698" 
d="M380 0q-114 8 -114 112v184q-134 4 -188 40t-54 102q0 67 54 103.5t188 40.5v118h-70q-7 -31 -31 -55t-69 -24q-18 0 -33 4.5t-24 9.5q16 17 25 41t9 54q0 32 -10 56.5t-24 38.5q9 6 24 10t33 4q45 0 69 -23.5t31 -55.5h292q7 31 31.5 55t69.5 24q18 0 32.5 -4.5
t23.5 -9.5q-16 -17 -25 -41t-9 -55t10 -55.5t24 -38.5q-9 -6 -23.5 -10t-32.5 -4q-45 0 -69 23.5t-32 55.5h-65v-118q133 -4 186.5 -39.5t53.5 -104.5q0 -64 -54 -101t-186 -41v-72h104q76 0 112 -23.5t36 -73.5q0 -53 -41.5 -90t-123.5 -37h-130zM168 437q0 -32 20.5 -54
t77.5 -27v166q-55 -5 -76.5 -27t-21.5 -58zM518 439q0 33 -19 55t-76 27v-164q53 5 74 26t21 56zM471 50q30 0 47 19t17 51q0 26 -14 39.5t-48 13.5h-50v-66q0 -31 12 -44t36 -13z" />
    <glyph glyph-name="uni1255" unicode="&#x1255;" horiz-adv-x="741" 
d="M332 -6q-14 12 -22 30t-8 47q0 11 2 28t5 38q-121 6 -170.5 42t-49.5 99q0 46 25.5 78.5t84.5 49t158 16.5h4q1 11 1 18q0 34 -18 46t-52 12h-85v202h-37q-9 -34 -33 -57t-68 -23q-18 0 -33 4t-24 10q15 15 24.5 39.5t9.5 55.5q0 62 -34 96q22 14 57 14q45 0 69.5 -24
t31.5 -55h228q7 31 31.5 55t69.5 24q19 0 33 -4t24 -10q-35 -35 -35 -95q0 -61 35 -96q-9 -6 -24 -10t-33 -4q-44 0 -68 23t-33 57h-34v-131h58q52 0 75 -23t23 -64q0 -9 -2 -25t-5 -36q118 -6 166.5 -42t48.5 -101q0 -44 -25.5 -76t-84 -49t-157.5 -17v0q-2 -15 -2 -24
q0 -30 13 -43t39 -13v-50zM233 277q0 -31 18.5 -52t68.5 -27q8 41 16.5 84.5t15.5 80.5q-67 -2 -93 -24.5t-26 -61.5zM583 279q0 31 -16.5 52.5t-64.5 28.5q-8 -41 -16.5 -84.5t-15.5 -80.5q64 3 88.5 24.5t24.5 59.5z" />
    <glyph glyph-name="uni1256" unicode="&#x1256;" horiz-adv-x="716" 
d="M306 -6q-14 13 -21.5 31.5t-7.5 46.5v30q-135 3 -189.5 39.5t-54.5 102.5q0 67 55 104t191 40q3 19 17 33q-52 8 -90 35.5t-38 83.5q0 100 118 123v36h-104q-9 -33 -33 -56t-68 -23q-18 0 -33 4t-24 10q15 15 24.5 38.5t9.5 55.5q0 62 -34 96q10 8 25.5 11t31.5 3
q45 0 69.5 -23.5t31.5 -54.5h352q7 31 31 54.5t70 23.5q19 0 33 -4t23 -10q-16 -16 -25 -40t-9 -55q0 -61 34 -95q-19 -14 -56 -14q-44 0 -68 23t-33 56h-103v-36q114 -21 114 -114q0 -50 -26.5 -77.5t-61.5 -46.5q-13 -8 -17.5 -15.5t-5.5 -21.5q132 -4 185 -40t53 -104
q0 -63 -53 -100.5t-184 -41.5q3 -27 15.5 -36.5t32.5 -9.5v-50zM360 458q21 12 36.5 31.5t15.5 57.5q0 37 -15 54t-40 17t-40.5 -18.5t-15.5 -58.5q0 -41 17 -58.5t42 -24.5zM177 243q0 -33 21 -54.5t79 -26.5v166q-56 -5 -78 -26.5t-22 -58.5zM527 245q0 33 -18.5 55
t-74.5 27v-164q52 5 72.5 26t20.5 56z" />
    <glyph glyph-name="uni1258" unicode="&#x1258;" horiz-adv-x="936" 
d="M294 -6q-14 13 -21.5 31.5t-7.5 46.5v238q-133 4 -187 40t-54 102t54 103t187 41v104h-67q-7 -31 -31 -55t-69 -24q-18 0 -33 4.5t-24 9.5q16 17 25 41t9 54q0 32 -10 56.5t-24 38.5q9 6 24 10t33 4q45 0 69 -23.5t31 -55.5h292q7 31 31.5 55t69.5 24q18 0 32.5 -4.5
t23.5 -9.5q-16 -17 -25 -41t-9 -55t10 -55.5t24 -38.5q-9 -6 -23.5 -10t-32.5 -4q-45 0 -69 23.5t-32 55.5h-68v-104q134 -3 187.5 -39t53.5 -105q0 -64 -54 -101t-187 -41v-78h155q19 13 46 20t64 7h100q71 0 99 -29.5t28 -68.5q0 -49 -36.5 -83.5t-96.5 -34.5h-142
q-53 0 -81 27t-28 70q0 17 4 32h-112v-49q0 -41 13 -54t36 -13v-50zM518 453q0 34 -19 55.5t-77 27.5v-166q54 5 75 26.5t21 56.5zM168 451q0 -32 20.5 -53.5t76.5 -27.5v166q-54 -5 -75.5 -27t-21.5 -58zM715 95q31 0 48 19t17 47q0 21 -13.5 33.5t-39.5 12.5
q-29 0 -46 -17.5t-17 -46.5q0 -22 13 -35t38 -13z" />
    <glyph glyph-name="uni125A" unicode="&#x125a;" horiz-adv-x="1075" 
d="M301 -6q-13 13 -21 31.5t-8 46.5v188q-92 3 -146.5 22t-78 53.5t-23.5 82.5t24 82.5t78 53.5t146 22v124h-68q-7 -31 -31 -55t-69 -24q-18 0 -33 4.5t-24 9.5q16 17 25 41t9 54q0 32 -10 56.5t-24 38.5q9 6 24 10t33 4q45 0 69 -23.5t31 -55.5h292q7 31 31.5 55t69.5 24
q18 0 32.5 -4.5t23.5 -9.5q-16 -17 -25 -41t-9 -55t10 -55.5t24 -38.5q-9 -6 -23.5 -10t-32.5 -4q-45 0 -69 23.5t-32 55.5h-67v-124q92 -3 145.5 -21.5t77 -52.5t23.5 -84q0 -47 -23.5 -81.5t-77.5 -54t-145 -22.5v-137q0 -41 13 -54t36 -13v-50zM175 417q0 -38 20 -63.5
t77 -32.5v194q-55 -6 -76 -31.5t-21 -66.5zM525 419q0 38 -19 63.5t-77 32.5v-194q55 7 75.5 32.5t20.5 65.5zM764 285v99h-177v60h177v114h116v-213h174q-4 -13 -7 -31t-3 -38q0 -54 29 -98q-22 -12 -55 -12q-47 0 -73.5 26t-26.5 69q0 8 0.5 13.5t1.5 10.5h-156z" />
    <glyph glyph-name="uni125B" unicode="&#x125b;" horiz-adv-x="713" 
d="M101 24q-33 0 -55 12q29 42 29 98q0 19 -3 37t-7 32h212v90q-134 3 -188.5 39.5t-54.5 102.5q0 67 54.5 104t188.5 40v121h-69q-7 -31 -31 -55t-69 -24q-18 0 -33 4.5t-24 9.5q16 17 25 41t9 54q0 32 -10 56.5t-24 38.5q9 6 24 10t33 4q45 0 69 -23.5t31 -55.5h292
q7 31 31.5 55t69.5 24q18 0 32.5 -4.5t23.5 -9.5q-16 -17 -25 -41t-9 -55t10 -55.5t24 -38.5q-9 -6 -23.5 -10t-32.5 -4q-45 0 -69 23.5t-32 55.5h-66v-121q132 -4 185.5 -40t53.5 -104q0 -63 -53.5 -100.5t-185.5 -41.5v-90h195v-80q0 -41 13 -54t36 -13v-50l-154 -12
q-14 13 -21.5 31.5t-7.5 46.5v71h-297q1 -5 1.5 -10.5t0.5 -14.5q0 -44 -26 -69t-73 -25zM178 434q0 -33 21 -54.5t78 -26.5v166q-56 -5 -77.5 -27t-21.5 -58zM528 436q0 33 -19 55t-75 27v-164q53 5 73.5 26t20.5 56z" />
    <glyph glyph-name="uni125C" unicode="&#x125c;" horiz-adv-x="721" 
d="M95 -119q-33 0 -55 12q29 42 29 98q0 19 -3 37t-7 32h227q-10 22 -10 52v184q-134 4 -188 40t-54 102q0 67 54 103.5t188 40.5v118h-70q-7 -31 -31 -55t-69 -24q-18 0 -33 4.5t-24 9.5q16 17 25 41t9 54q0 32 -10 56.5t-24 38.5q9 6 24 10t33 4q45 0 69 -23.5t31 -55.5
h292q7 31 31.5 55t69.5 24q18 0 32.5 -4.5t23.5 -9.5q-16 -17 -25 -41t-9 -55t10 -55.5t24 -38.5q-9 -6 -23.5 -10t-32.5 -4q-45 0 -69 23.5t-32 55.5h-65v-118q133 -4 186.5 -39.5t53.5 -104.5q0 -64 -54 -101t-186 -41v-72h104q76 0 112 -23.5t36 -73.5q0 -53 -41.5 -90
t-123.5 -37h-328q1 -5 1.5 -10.5t0.5 -14.5q0 -43 -26 -68.5t-73 -25.5zM178 437q0 -32 20.5 -54t77.5 -27v166q-55 -5 -76.5 -27t-21.5 -58zM528 439q0 33 -19 55t-76 27v-164q53 5 74 26t21 56zM481 50q30 0 47 19t17 51q0 26 -14 39.5t-48 13.5h-50v-66q0 -31 12 -44
t36 -13z" />
    <glyph glyph-name="uni125D" unicode="&#x125d;" horiz-adv-x="1047" 
d="M301 -6q-13 13 -21 31.5t-8 46.5v188q-92 3 -146.5 22t-78 53.5t-23.5 82.5t24 82.5t78 53.5t146 22v124h-68q-7 -31 -31 -55t-69 -24q-18 0 -33 4.5t-24 9.5q16 17 25 41t9 54q0 32 -10 56.5t-24 38.5q9 6 24 10t33 4q45 0 69 -23.5t31 -55.5h292q7 31 31.5 55t69.5 24
q18 0 32.5 -4.5t23.5 -9.5q-16 -17 -25 -41t-9 -55t10 -55.5t24 -38.5q-9 -6 -23.5 -10t-32.5 -4q-45 0 -69 23.5t-32 55.5h-67v-124q92 -3 145.5 -21.5t77 -52.5t23.5 -84q0 -47 -23.5 -81.5t-77.5 -54t-145 -22.5v-137q0 -41 13 -54t36 -13v-50zM175 417q0 -38 20 -63.5
t77 -32.5v194q-55 -6 -76 -31.5t-21 -66.5zM525 419q0 38 -19 63.5t-77 32.5v-194q55 7 75.5 32.5t20.5 65.5zM621 382v59h133v1h2v190h116v-190h154q-4 -14 -7 -32t-3 -37q0 -56 29 -98q-22 -12 -55 -12q-47 0 -73.5 25.5t-26.5 68.5q0 9 0.5 14.5t1.5 10.5h-271z" />
    <glyph glyph-name="uni1260" unicode="&#x1260;" horiz-adv-x="680" 
d="M371 726q83 0 131 -27t67.5 -79t19.5 -127q0 -35 -1 -94t-2 -128.5t-1 -137.5q0 -44 14 -58.5t45 -14.5v-53l-197 -13q-21 28 -21 98q0 76 1 157t2 153.5t1 124.5q0 71 -18.5 104.5t-59.5 33.5q-56 0 -88.5 -58t-32.5 -199v-275q0 -44 14 -58.5t45 -14.5v-53l-197 -13
q-11 15 -15.5 40.5t-4.5 57.5v325q0 94 35 163.5t101.5 107.5t161.5 38z" />
    <glyph glyph-name="uni1261" unicode="&#x1261;" horiz-adv-x="825" 
d="M93 -6q-11 15 -15.5 40.5t-4.5 57.5v325q0 94 35 163.5t101.5 107.5t161.5 38q83 0 131 -27t67.5 -79t19.5 -127q0 -24 -0.5 -58.5t-1.5 -75.5h77q8 31 31.5 54.5t69.5 23.5q18 0 33.5 -4t24.5 -9q-16 -16 -25 -40.5t-9 -55.5t10 -55.5t24 -39.5q-19 -13 -58 -13
q-46 0 -69.5 24t-31.5 55h-78q0 -40 -0.5 -82.5t-0.5 -83.5q0 -44 14 -58.5t45 -14.5v-53l-197 -13q-21 28 -21 98q0 76 1 157t2 153.5t1 124.5q0 71 -18.5 104.5t-59.5 33.5q-56 0 -88.5 -58t-32.5 -199v-275q0 -44 14 -58.5t45 -14.5v-53z" />
    <glyph glyph-name="uni1262" unicode="&#x1262;" horiz-adv-x="848" 
d="M778 -79q-46 0 -70 23.5t-31 55.5h-231q-20 29 -20 92q0 76 1 157t2 153.5t1 124.5q0 71 -18.5 104.5t-59.5 33.5q-56 0 -88.5 -58t-32.5 -199v-275q0 -44 14 -58.5t45 -14.5v-53l-197 -13q-11 15 -15.5 40.5t-4.5 57.5v325q0 94 35 163.5t101.5 107.5t161.5 38
q83 0 131 -27t67.5 -79t19.5 -127q0 -35 -1 -94t-2 -128.5t-1 -137.5q0 -45 14 -59t45 -14h33q7 31 31 54.5t70 23.5q18 0 33.5 -4t24.5 -9q-16 -17 -25 -41t-9 -55t10 -55.5t24 -39.5q-20 -13 -58 -13z" />
    <glyph glyph-name="uni1263" unicode="&#x1263;" horiz-adv-x="654" 
d="M421 -6q-21 28 -21 98q0 76 1 157t2 153.5t1 124.5q0 71 -18 104.5t-56 33.5q-36 0 -62.5 -25t-41 -81.5t-14.5 -150.5v-31q0 -44 14 -58.5t45 -14.5v-53l-197 -13q-11 15 -15.5 40.5t-4.5 57.5v81q0 94 35 163.5t101 107.5t159 38q81 0 128 -27t66.5 -79t19.5 -127
q0 -35 -1 -94t-2 -128.5t-1 -137.5q0 -44 14 -58.5t45 -14.5v-53z" />
    <glyph glyph-name="uni1264" unicode="&#x1264;" horiz-adv-x="863" 
d="M93 -6q-11 15 -15.5 40.5t-4.5 57.5v325q0 94 35 163.5t100.5 107.5t158.5 38q82 0 129 -27t66.5 -79t19.5 -127q0 -35 -1 -78.5t-1.5 -86t-0.5 -73.5h109q78 0 115.5 -27t37.5 -85q0 -60 -42.5 -101.5t-127.5 -41.5h-169q-38 10 -60 35t-22 76q0 67 1 143.5t1.5 148
t0.5 124.5q0 71 -18 104.5t-56 33.5q-54 0 -86 -58t-32 -199v-275q0 -44 14 -58.5t45 -14.5v-53zM631 54q32 0 50 22.5t18 59.5q0 31 -15 47.5t-52 16.5h-53v-97q0 -28 12.5 -38.5t39.5 -10.5z" />
    <glyph glyph-name="uni1265" unicode="&#x1265;" horiz-adv-x="842" 
d="M533 726q83 0 131 -27t67.5 -79t19.5 -127q0 -35 -1 -94t-2 -128.5t-1 -137.5q0 -44 14 -58.5t45 -14.5v-53l-197 -13q-21 28 -21 98q0 76 1 157t2 153.5t1 124.5q0 71 -18.5 104.5t-59.5 33.5q-56 0 -88.5 -58t-32.5 -199v-275q0 -44 14 -58.5t45 -14.5v-53l-197 -13
q-11 15 -15.5 40.5t-4.5 57.5v325q0 94 35 163.5t101.5 107.5t161.5 38zM57 173q-33 0 -55 12q29 42 29 98q0 19 -3 37t-7 32h272v-60h-139q1 -5 1.5 -10.5t0.5 -14.5q0 -44 -26 -69t-73 -25z" />
    <glyph glyph-name="uni1266" unicode="&#x1266;" horiz-adv-x="659" 
d="M93 -6q-11 15 -15.5 40.5t-4.5 57.5v325q0 94 35 163.5t100.5 107.5t158.5 38q82 0 129 -27t66.5 -76.5t19.5 -117.5q0 -15 -1 -39.5t-1.5 -48.5t-0.5 -39q0 -44 14 -58.5t45 -14.5v-53l-197 -13q-21 28 -21 98q0 26 1 61t1.5 69.5t0.5 59.5q0 71 -18 104.5t-56 33.5
q-54 0 -86 -58t-32 -199v-275q0 -44 14 -58.5t45 -14.5v-53z" />
    <glyph glyph-name="uni1267" unicode="&#x1267;" horiz-adv-x="783" 
d="M79 -119q-33 0 -55 12q29 42 29 98q0 19 -3 37t-7 32h376v467q0 71 -17 104.5t-56 33.5q-36 0 -62.5 -25t-41 -81.5t-14.5 -150.5v-31q0 -44 14 -58.5t45 -14.5v-53l-197 -13q-11 15 -15.5 40.5t-4.5 57.5v81q0 94 35 163.5t101 107.5t159 38q81 0 127.5 -27t66 -79
t19.5 -127v-433h175q-5 -14 -8 -32t-3 -37q0 -56 29 -98q-10 -5 -23.5 -8.5t-30.5 -3.5q-48 0 -74 25.5t-26 68.5q0 9 0.5 15t1.5 10h-443q1 -4 1.5 -10t0.5 -15q0 -43 -26 -68.5t-73 -25.5z" />
    <glyph glyph-name="uni1268" unicode="&#x1268;" horiz-adv-x="691" 
d="M93 -6q-11 15 -15.5 40.5t-4.5 57.5v215q0 92 35 160.5t100.5 106.5t158.5 38q82 0 129 -27t66.5 -78.5t19.5 -126.5q0 -34 -1 -78t-2 -88.5t-1 -81.5q0 -44 14 -58.5t45 -14.5v-53l-197 -12q-21 28 -21 98q0 45 1 100.5t2 113.5t1 108q0 70 -18 103.5t-56 33.5
q-54 0 -86 -57t-32 -196v-166q0 -44 14 -58.5t45 -14.5v-53zM141 620q-18 0 -33 4t-24 10q15 15 24.5 39.5t9.5 55.5q0 62 -34 96q22 14 57 14q45 0 69.5 -24t31.5 -55h228q7 31 31.5 55t69.5 24q19 0 33 -4t24 -10q-35 -35 -35 -95q0 -61 35 -96q-9 -6 -24 -10t-33 -4
q-44 0 -68 23t-33 57h-228q-9 -34 -33 -57t-68 -23z" />
    <glyph glyph-name="uni1269" unicode="&#x1269;" horiz-adv-x="828" 
d="M93 -6q-11 15 -15.5 40.5t-4.5 57.5v215q0 92 35 160.5t100.5 106.5t158.5 38q82 0 129 -27t66.5 -78.5t19.5 -126.5q0 -34 -1 -78t-2 -88.5t-1 -81.5q0 -44 14 -58.5t45 -14.5v-53l-197 -12q-21 28 -21 98q0 45 1 100.5t2 113.5t1 108q0 70 -18 103.5t-56 33.5
q-54 0 -86 -57t-32 -196v-166q0 -44 14 -58.5t45 -14.5v-53zM141 620q-18 0 -33 4t-24 10q15 15 24.5 39.5t9.5 55.5q0 62 -34 96q22 14 57 14q45 0 69.5 -24t31.5 -55h228q7 31 31.5 55t69.5 24q19 0 33 -4t24 -10q-35 -35 -35 -95q0 -61 35 -96q-9 -6 -24 -10t-33 -4
q-44 0 -68 23t-33 57h-228q-9 -34 -33 -57t-68 -23zM767 211q-46 0 -70 23.5t-31 55.5h-133v60h133q7 31 31 54.5t70 23.5q18 0 33.5 -4t24.5 -9q-16 -17 -25 -41t-9 -55t10 -55.5t24 -39.5q-20 -13 -58 -13z" />
    <glyph glyph-name="uni126A" unicode="&#x126a;" horiz-adv-x="854" 
d="M140 620q-18 0 -33 4t-24 10q15 15 24.5 39.5t9.5 55.5q0 62 -34 96q22 14 57 14q45 0 69.5 -24t31.5 -55h228q7 31 31.5 55t69.5 24q19 0 33 -4t24 -10q-35 -35 -35 -95q0 -61 35 -96q-9 -6 -24 -10t-33 -4q-44 0 -68 23t-33 57h-228q-9 -34 -33 -57t-68 -23zM93 -6
q-11 15 -15.5 40.5t-4.5 57.5v215q0 92 35 160.5t100.5 106.5t158.5 38q82 0 129 -27t66.5 -78.5t19.5 -126.5q0 -34 -1 -77.5t-2 -88t-1 -81.5q0 -44 14 -58.5t45 -14.5h46q7 31 31 54.5t70 23.5q18 0 33.5 -4t24.5 -9q-16 -17 -25 -41t-9 -55t10 -55.5t24 -39.5
q-20 -13 -58 -13q-46 0 -70 23.5t-31 55.5h-243q-21 28 -21 98q0 45 1 99t2 110.5t1 106.5q0 70 -18 103.5t-56 33.5q-54 0 -86 -57t-32 -196v-166q0 -44 14 -58.5t45 -14.5v-53z" />
    <glyph glyph-name="uni126B" unicode="&#x126b;" horiz-adv-x="672" 
d="M421 -6q-21 28 -21 98q0 45 1 101t2 113.5t1 109.5q0 69 -18 102t-58 33q-54 0 -85 -45.5t-31 -134.5v-23q0 -28 14 -39.5t45 -11.5v-53l-197 -13q-11 15 -15.5 38t-4.5 52v33q0 73 34.5 131.5t99.5 92.5t158 34q83 0 130.5 -26.5t67 -77.5t19.5 -124q0 -36 -1 -80.5
l-2 -89t-1 -81.5q0 -44 14 -58.5t45 -14.5v-53zM122 620q-18 0 -33 4t-24 10q15 15 24.5 39.5t9.5 55.5q0 62 -34 96q22 14 57 14q45 0 69.5 -24t31.5 -55h228q7 31 31.5 55t69.5 24q19 0 33 -4t24 -10q-35 -35 -35 -95q0 -61 35 -96q-9 -6 -24 -10t-33 -4q-44 0 -68 23
t-33 57h-228q-9 -34 -33 -57t-68 -23z" />
    <glyph glyph-name="uni126C" unicode="&#x126c;" horiz-adv-x="863" 
d="M144 620q-18 0 -33 4t-24 10q15 15 24.5 39.5t9.5 55.5q0 62 -34 96q22 14 57 14q45 0 69.5 -24t31.5 -55h228q7 31 31.5 55t69.5 24q19 0 33 -4t24 -10q-35 -35 -35 -95q0 -61 35 -96q-9 -6 -24 -10t-33 -4q-44 0 -68 23t-33 57h-228q-9 -34 -33 -57t-68 -23zM93 -6
q-11 15 -15.5 40.5t-4.5 57.5v215q0 92 35 160.5t100.5 106.5t158.5 38q82 0 129 -27t66.5 -78.5t19.5 -126.5q0 -16 -1 -40t-1.5 -47t-0.5 -38h110q78 0 115 -27t37 -85q0 -60 -42 -101.5t-127 -41.5h-169q-39 10 -61 35t-22 76q0 37 0.5 81.5t1 88.5t1 79.5t0.5 53.5
q0 70 -18 103.5t-56 33.5q-54 0 -86 -57t-32 -196v-166q0 -44 14 -58.5t45 -14.5v-53zM631 54q32 0 50 22.5t18 59.5q0 31 -14.5 47.5t-52.5 16.5h-53v-97q0 -28 13 -38.5t39 -10.5z" />
    <glyph glyph-name="uni126D" unicode="&#x126d;" horiz-adv-x="857" 
d="M260 -6q-11 15 -15.5 40.5t-4.5 57.5v215q0 92 35 160.5t100.5 106.5t158.5 38q82 0 129 -27t66.5 -78.5t19.5 -126.5q0 -34 -1 -78t-2 -88.5t-1 -81.5q0 -44 14 -58.5t45 -14.5v-53l-197 -12q-21 28 -21 98q0 45 1 100.5t2 113.5t1 108q0 70 -18 103.5t-56 33.5
q-54 0 -86 -57t-32 -196v-166q0 -44 14 -58.5t45 -14.5v-53zM308 620q-18 0 -33 4t-24 10q15 15 24.5 39.5t9.5 55.5q0 62 -34 96q22 14 57 14q45 0 69.5 -24t31.5 -55h228q7 31 31.5 55t69.5 24q19 0 33 -4t24 -10q-35 -35 -35 -95q0 -61 35 -96q-9 -6 -24 -10t-33 -4
q-44 0 -68 23t-33 57h-228q-9 -34 -33 -57t-68 -23zM67 134q-33 0 -55 12q29 42 29 98q0 19 -3 37t-7 32h272v-60h-139q1 -5 1.5 -10.5t0.5 -14.5q0 -44 -26 -69t-73 -25z" />
    <glyph glyph-name="uni126E" unicode="&#x126e;" horiz-adv-x="659" 
d="M93 -6q-11 15 -15.5 40.5t-4.5 57.5v215q0 92 35 160.5t100.5 106.5t158.5 38q82 0 128.5 -25.5t66 -69t19.5 -96.5q0 -14 -0.5 -30.5t-0.5 -27.5q0 -37 13 -50.5t44 -13.5v-53l-196 -12q-21 28 -21 98q0 20 1 50.5t1 56.5q0 53 -17.5 82.5t-55.5 29.5q-54 0 -86 -57
t-32 -196v-165q0 -44 14 -58.5t45 -14.5v-53zM147 620q-18 0 -33 4t-24 10q15 15 24.5 39.5t9.5 55.5q0 62 -34 96q22 14 57 14q45 0 69.5 -24t31.5 -55h228q7 31 31.5 55t69.5 24q19 0 33 -4t24 -10q-35 -35 -35 -95q0 -61 35 -96q-9 -6 -24 -10t-33 -4q-44 0 -68 23
t-33 57h-228q-9 -34 -33 -57t-68 -23z" />
    <glyph glyph-name="uni126F" unicode="&#x126f;" horiz-adv-x="771" 
d="M103 621q-18 0 -33 4.5t-24 9.5q16 17 25 41t9 54q0 32 -10 56.5t-24 38.5q9 6 24 10t33 4q45 0 69 -23.5t31 -55.5h292q7 31 31.5 55t69.5 24q18 0 32.5 -4.5t23.5 -9.5q-16 -17 -25 -41t-9 -55t10 -55.5t24 -38.5q-9 -6 -23.5 -10t-32.5 -4q-45 0 -69.5 23.5
t-31.5 55.5h-292q-7 -31 -31 -55t-69 -24zM67 -119q-33 0 -55 12q29 42 29 98q0 19 -3 37t-7 32h379q0 34 1 81t1.5 98.5t1 99t0.5 84.5q0 64 -16 96t-60 32q-55 0 -85.5 -45.5t-30.5 -134.5v-23q0 -28 14 -39.5t45 -11.5v-53l-197 -13q-11 15 -15.5 38t-4.5 52v33
q0 73 34.5 131.5t100 92.5t157.5 34q83 0 130.5 -26.5t67 -77.5t19.5 -124q0 -24 -0.5 -64t-1 -86.5t-1.5 -92t-1 -81.5h172q-5 -14 -8 -32t-3 -37q0 -56 29 -98q-10 -5 -23.5 -8.5t-30.5 -3.5q-48 0 -74 25.5t-26 68.5q0 9 0.5 15t1.5 10h-443q1 -4 1.5 -10t0.5 -15
q0 -43 -26 -68.5t-73 -25.5z" />
    <glyph glyph-name="uni1270" unicode="&#x1270;" horiz-adv-x="657" 
d="M279 -6q-13 13 -21 31.5t-8 46.5v526q0 59 -46 59v50l174 13q14 -8 21.5 -28t7.5 -43v-525q0 -40 13 -53.5t36 -13.5v-51zM57 366q-33 0 -55 12q29 42 29 98q0 19 -3 37t-7 32h614q-4 -14 -7 -32t-3 -37q0 -55 28 -98q-21 -12 -54 -12q-47 0 -73.5 25.5t-26.5 68.5
q0 9 0.5 15t1.5 10h-347q1 -4 1.5 -10t0.5 -15q0 -43 -26 -68.5t-73 -25.5z" />
    <glyph glyph-name="uni1271" unicode="&#x1271;" horiz-adv-x="667" 
d="M279 -6q-13 13 -21 31.5t-8 46.5v526q0 59 -46 59v50l174 13q14 -8 21.5 -28t7.5 -43v-525q0 -40 13 -53.5t36 -13.5v-51zM57 366q-33 0 -55 12q29 42 29 98q0 19 -3 37t-7 32h614q-4 -14 -7 -32t-3 -37q0 -55 28 -98q-21 -12 -54 -12q-47 0 -73.5 25.5t-26.5 68.5
q0 9 0.5 15t1.5 10h-347q1 -4 1.5 -10t0.5 -15q0 -43 -26 -68.5t-73 -25.5zM593 79q-46 0 -70 23.5t-31 55.5h-133v60h133q7 31 31 54.5t70 23.5q18 0 33.5 -4t24.5 -9q-16 -17 -25 -41t-9 -55t10 -55.5t24 -39.5q-20 -13 -58 -13z" />
    <glyph glyph-name="uni1272" unicode="&#x1272;" horiz-adv-x="666" 
d="M57 367q-33 0 -55 12q29 42 29 98q0 19 -3 37t-7 32h230v52q0 59 -46 59v50l174 13q13 -8 21 -28t8 -43v-103h227q-4 -14 -7 -32t-3 -37q0 -55 28 -98q-21 -12 -54 -12q-47 0 -73.5 25.5t-26.5 68.5q0 9 0.5 15t1.5 10h-93v-360q0 -40 13 -53t36 -13h20q7 31 31 54.5
t71 23.5q18 0 33.5 -4t23.5 -9q-16 -17 -25 -41t-9 -55t10 -55.5t24 -39.5q-18 -13 -57 -13q-47 0 -71 23.5t-31 55.5h-197q-14 13 -21.5 31.5t-7.5 46.5v408h-97q1 -4 1.5 -10t0.5 -15q0 -43 -26 -68.5t-73 -25.5z" />
    <glyph glyph-name="uni1273" unicode="&#x1273;" horiz-adv-x="683" 
d="M63 -116q-17 0 -29.5 2.5t-21.5 6.5q24 44 24 100q0 17 -2.5 33t-6.5 31h87q86 0 125.5 44.5t39.5 138.5v354q0 34 -12.5 48t-34.5 14v50l175 12q29 -21 29 -74v-406q0 -110 -70 -175t-201 -65h-7q1 -5 1.5 -9.5t0.5 -12.5q0 -41 -26 -66.5t-71 -25.5zM85 366
q-33 0 -55 12q29 42 29 98q0 19 -3 37t-7 32h614q-4 -14 -7 -32t-3 -37q0 -55 28 -98q-21 -12 -54 -12q-47 0 -73.5 25.5t-26.5 68.5q0 9 0.5 15t1.5 10h-347q1 -4 1.5 -10t0.5 -15q0 -43 -26 -68.5t-73 -25.5z" />
    <glyph glyph-name="uni1274" unicode="&#x1274;" horiz-adv-x="692" 
d="M367 0q-114 8 -114 112v373h-99q1 -5 1.5 -10.5t0.5 -14.5q0 -43 -26 -68.5t-73 -25.5q-33 0 -55 12q29 42 29 98q0 19 -3 37.5t-7 31.5h232v53q0 59 -46 59v50l175 13q14 -8 21.5 -28t7.5 -43v-104h224q-4 -13 -7 -31.5t-3 -37.5q0 -55 28 -98q-21 -12 -54 -12
q-47 0 -73.5 25.5t-26.5 68.5q0 9 0.5 14.5t1.5 10.5h-90v-261h103q76 0 112.5 -23.5t36.5 -73.5q0 -53 -41.5 -90t-123.5 -37h-131zM458 50q31 0 47.5 19t16.5 51q0 26 -14 39.5t-48 13.5h-49v-66q0 -31 11.5 -44t35.5 -13z" />
    <glyph glyph-name="uni1275" unicode="&#x1275;" horiz-adv-x="678" 
d="M79 268q-33 0 -55 12q29 42 29 98q0 19 -3 37.5t-7 31.5h231v151q0 29 -10 42.5t-36 13.5h-187q4 14 7 32t3 37q0 55 -28 98q21 12 54 12q47 0 73.5 -25.5t26.5 -68.5q0 -9 -0.5 -15t-1.5 -10h227q16 -10 22.5 -28t6.5 -38v-201h226q-4 -13 -7 -31.5t-3 -37.5
q0 -55 28 -98q-21 -12 -54 -12q-47 0 -73.5 25.5t-26.5 68.5q0 9 0.5 14.5t1.5 10.5h-92v-264q0 -41 13 -54t36 -13v-50l-177 -12q-13 13 -21 31.5t-8 46.5v315h-98q1 -5 1.5 -10.5t0.5 -14.5q0 -43 -26 -68.5t-73 -25.5z" />
    <glyph glyph-name="uni1276" unicode="&#x1276;" horiz-adv-x="676" 
d="M288 -6q-13 13 -21 31.5t-8 46.5v370q0 37 19 56q-38 6 -69 20.5t-49 41t-18 68.5q0 67 50.5 104.5t147.5 37.5q101 0 147.5 -35t46.5 -97q0 -37 -13 -61t-34.5 -41t-47.5 -32q-15 -9 -19 -20.5t-4 -33.5v-327q0 -41 13 -54t36 -13v-50zM342 535q23 13 41 34t18 65
q0 40 -16.5 61t-44.5 21q-27 0 -46 -20t-19 -66q0 -47 20 -67.5t47 -27.5zM67 225q-33 0 -55 12q29 42 29 98q0 19 -3 37t-7 32h614q-4 -14 -7 -32t-3 -37q0 -55 28 -98q-21 -12 -54 -12q-47 0 -73.5 25.5t-26.5 68.5q0 9 0.5 15t1.5 10h-347q1 -4 1.5 -10t0.5 -15
q0 -43 -26 -68.5t-73 -25.5z" />
    <glyph glyph-name="uni1277" unicode="&#x1277;" horiz-adv-x="698" 
d="M79 -119q-33 0 -55 12q29 42 29 98q0 19 -3 37t-7 32h230q-1 9 -1 20v365h-98q1 -5 1.5 -10.5t0.5 -14.5q0 -43 -26 -68.5t-73 -25.5q-33 0 -55 12q29 42 29 98q0 19 -3 37.5t-7 31.5h231v93q0 59 -46 59v50l174 13q14 -8 21.5 -28t7.5 -43v-144h226q-4 -13 -7 -31.5
t-3 -37.5q0 -55 28 -98q-21 -12 -54 -12q-47 0 -73.5 25.5t-26.5 68.5q0 9 0.5 14.5t1.5 10.5h-92v-322q0 -37 13 -50t36 -13h179q-4 -14 -7 -32t-3 -37q0 -55 28 -98q-21 -12 -54 -12q-47 0 -73.5 25.5t-26.5 68.5q0 9 0.5 15t1.5 10h-347q1 -4 1.5 -10t0.5 -15
q0 -43 -26 -68.5t-73 -25.5z" />
    <glyph glyph-name="uni1278" unicode="&#x1278;" horiz-adv-x="696" 
d="M299 -6q-13 13 -21 32t-8 49v379h-96q1 -4 1.5 -10t0.5 -15q0 -43 -26 -68.5t-73 -25.5q-33 0 -55 12q29 42 29 98q0 19 -3 37t-7 32h229v186h-67q-7 -31 -31 -55t-69 -24q-18 0 -33 4.5t-24 9.5q16 17 25 41t9 54q0 32 -10 56.5t-24 38.5q9 6 24 10t33 4q45 0 69 -23.5
t31 -55.5h292q7 31 31.5 55t69.5 24q18 0 32.5 -4.5t23.5 -9.5q-16 -17 -25 -41t-9 -55t10 -55.5t24 -38.5q-9 -6 -23.5 -10t-32.5 -4q-45 0 -69.5 23.5t-31.5 55.5h-68v-186h228q-4 -14 -7 -32t-3 -37q0 -55 28 -98q-21 -12 -54 -12q-47 0 -73.5 25.5t-26.5 68.5
q0 9 0.5 15t1.5 10h-94v-326q0 -42 13 -55.5t36 -13.5v-52z" />
    <glyph glyph-name="uni1279" unicode="&#x1279;" horiz-adv-x="713" 
d="M299 -6q-13 13 -21 32t-8 49v379h-96q1 -4 1.5 -10t0.5 -15q0 -43 -26 -68.5t-73 -25.5q-33 0 -55 12q29 42 29 98q0 19 -3 37t-7 32h229v186h-67q-7 -31 -31 -55t-69 -24q-18 0 -33 4.5t-24 9.5q16 17 25 41t9 54q0 32 -10 56.5t-24 38.5q9 6 24 10t33 4q45 0 69 -23.5
t31 -55.5h292q7 31 31.5 55t69.5 24q18 0 32.5 -4.5t23.5 -9.5q-16 -17 -25 -41t-9 -55t10 -55.5t24 -38.5q-9 -6 -23.5 -10t-32.5 -4q-45 0 -69.5 23.5t-31.5 55.5h-68v-186h228q-4 -14 -7 -32t-3 -37q0 -55 28 -98q-21 -12 -54 -12q-47 0 -73.5 25.5t-26.5 68.5
q0 9 0.5 15t1.5 10h-94v-326q0 -42 13 -55.5t36 -13.5v-52zM617 74q-46 0 -70 23.5t-31 55.5h-133v60h133q7 31 31 54.5t70 23.5q18 0 33.5 -4t24.5 -9q-16 -17 -25 -41t-9 -55t10 -55.5t24 -39.5q-20 -13 -58 -13z" />
    <glyph glyph-name="uni127A" unicode="&#x127a;" horiz-adv-x="724" 
d="M87 336q-33 0 -55 12q29 42 29 98q0 19 -3 37.5t-7 31.5h230v185h-69q-7 -31 -31 -55t-69 -24q-18 0 -33 4.5t-24 9.5q16 17 25 41t9 54q0 32 -10 56.5t-24 38.5q9 6 24 10t33 4q45 0 69 -23.5t31 -55.5h292q7 31 31.5 55t69.5 24q18 0 32.5 -4.5t23.5 -9.5
q-16 -17 -25 -41t-9 -55t10 -55.5t24 -38.5q-9 -6 -23.5 -10t-32.5 -4q-45 0 -69 23.5t-32 55.5h-66v-185h227q-4 -13 -7 -31.5t-3 -37.5q0 -55 28 -98q-21 -12 -54 -12q-47 0 -73.5 25.5t-26.5 68.5q0 9 0.5 14.5t1.5 10.5h-93v-327q0 -41 13 -54.5t36 -13.5h34
q7 31 31 54.5t70 23.5q18 0 33.5 -4t24.5 -9q-16 -17 -25 -41t-9 -55t10 -55.5t24 -39.5q-20 -13 -58 -13q-46 0 -70 23.5t-31 55.5h-214q-11 14 -18.5 33t-7.5 49v373h-97q1 -5 1.5 -10.5t0.5 -14.5q0 -43 -26 -68.5t-73 -25.5z" />
    <glyph glyph-name="uni127B" unicode="&#x127b;" horiz-adv-x="714" 
d="M83 -116q-17 0 -29.5 2.5t-21.5 6.5q24 44 24 100q0 17 -2.5 33t-6.5 31h87q90 0 130.5 44.5t40.5 138.5v199h-102q1 -5 1.5 -10.5t0.5 -14.5q0 -43 -26 -68.5t-73 -25.5q-33 0 -55 12q29 42 29 98q0 19 -3 37.5t-7 31.5h235v201h-74q-7 -31 -31 -55t-69 -24
q-18 0 -33 4.5t-24 9.5q16 17 25 41t9 54q0 32 -10 56.5t-24 38.5q9 6 24 10t33 4q45 0 69 -23.5t31 -55.5h292q7 31 31.5 55t69.5 24q18 0 32.5 -4.5t23.5 -9.5q-16 -17 -25 -41t-9 -55t10 -55.5t24 -38.5q-9 -6 -23.5 -10t-32.5 -4q-45 0 -69.5 23.5t-31.5 55.5h-73v-201
h234q-4 -13 -7 -31.5t-3 -37.5q0 -55 28 -98q-21 -12 -54 -12q-47 0 -73.5 25.5t-26.5 68.5q0 9 0.5 14.5t1.5 10.5h-100v-201q0 -110 -69 -175t-196 -65h-7q1 -5 1.5 -9.5t0.5 -12.5q0 -41 -26 -66.5t-71 -25.5z" />
    <glyph glyph-name="uni127C" unicode="&#x127c;" horiz-adv-x="742" 
d="M87 335q-33 0 -55 12q29 42 29 98q0 19 -3 37t-7 32h231v187h-67q-7 -31 -31 -55t-69 -24q-18 0 -33 4.5t-24 9.5q16 16 25 40.5t9 54.5q0 31 -10 56t-24 39q9 6 24 10t33 4q45 0 69 -24t31 -55h292q7 31 31.5 55t69.5 24q18 0 32.5 -4.5t23.5 -9.5q-16 -16 -25 -40.5
t-9 -55.5t10 -55.5t24 -38.5q-9 -6 -23.5 -10t-32.5 -4q-45 0 -69.5 24t-31.5 55h-67v-187h225q-4 -14 -7 -32t-3 -37q0 -55 28 -98q-21 -12 -54 -12q-47 0 -73.5 25.5t-26.5 68.5q0 9 0.5 15t1.5 10h-91v-230h103q77 0 113 -23.5t36 -73.5q0 -53 -41 -90t-124 -37h-131
q-114 8 -114 112v342h-98q1 -4 1.5 -10t0.5 -15q0 -43 -26 -68.5t-73 -25.5zM487 50q31 0 47.5 19t16.5 51q0 26 -13.5 39.5t-48.5 13.5h-49v-66q0 -31 11.5 -44t35.5 -13z" />
    <glyph glyph-name="uni127D" unicode="&#x127d;" horiz-adv-x="756" 
d="M147 204q-33 0 -55 12q29 42 29 98q0 19 -3 37.5t-7 31.5h248q3 17 4.5 31t1.5 22q0 33 -17.5 45.5t-52.5 12.5h-85v207h-163q2 10 2 36q0 65 -37 93q12 10 28.5 14.5t35.5 4.5q42 0 67.5 -25t29.5 -63h227q8 31 32 55t69 24q19 0 33.5 -4t23.5 -10q-16 -16 -25 -40.5
t-9 -54.5q0 -62 34 -96q-9 -6 -24 -10t-33 -4q-43 0 -67.5 23t-33.5 57h-33v-144h59q52 0 74.5 -22t22.5 -59q0 -13 -3.5 -37.5t-9.5 -55.5h215q-4 -13 -7 -31.5t-3 -37.5q0 -55 28 -98q-21 -12 -54 -12q-47 0 -73.5 25.5t-26.5 68.5q0 9 0.5 14.5t1.5 10.5h-93
q-8 -42 -16 -84.5t-13.5 -76t-5.5 -50.5q0 -30 12.5 -42.5t38.5 -12.5v-50l-179 -13q-14 12 -22 30.5t-8 46.5q0 21 7 63t17 92.5t19 96.5h-104q1 -5 1.5 -10.5t0.5 -14.5q0 -43 -26 -68.5t-73 -25.5z" />
    <glyph glyph-name="uni127E" unicode="&#x127e;" horiz-adv-x="752" 
d="M122 225q-33 0 -55 12q29 42 29 98q0 19 -3 37t-7 32h228v38q0 37 19 56q-38 6 -69 20.5t-49 41t-18 68.5q0 54 33 89h-59q-7 -31 -31 -55t-70 -24q-38 0 -58 13q14 15 24 39.5t10 55.5t-9 55.5t-25 40.5q9 5 24.5 9t33.5 4q46 0 70 -23.5t31 -54.5h410q-1 5 -1.5 10.5
t-0.5 14.5q0 44 26 69t73 25q33 0 55 -12q-29 -42 -29 -98q0 -19 3 -37t7 -32h-152q27 -31 27 -79q0 -37 -13 -61t-34.5 -41t-47.5 -32q-15 -9 -19 -20.5t-4 -33.5v-46h229q-4 -14 -7 -32t-3 -37q0 -55 28 -98q-21 -12 -54 -12q-47 0 -73.5 25.5t-26.5 68.5q0 9 0.5 15
t1.5 10h-95v-221q0 -41 13 -54t36 -13v-50l-177 -12q-13 13 -21 31.5t-8 46.5v272h-95q1 -4 1.5 -10t0.5 -15q0 -43 -26 -68.5t-73 -25.5zM397 535q23 13 41 34t18 65q0 40 -16.5 61t-44.5 21q-27 0 -46 -20t-19 -66q0 -47 20 -67.5t47 -27.5z" />
    <glyph glyph-name="uni127F" unicode="&#x127f;" horiz-adv-x="706" 
d="M83 -119q-33 0 -55 12q29 42 29 98q0 19 -3 37t-7 32h229q-1 7 -1 15v378h-96q1 -5 1.5 -10.5t0.5 -14.5q0 -43 -26 -68.5t-73 -25.5q-33 0 -55 12q29 42 29 98q0 19 -3 37.5t-7 31.5h229v187h-69q-7 -31 -31 -55t-69 -24q-18 0 -33 4.5t-24 9.5q16 17 25 41t9 54
q0 32 -10 56.5t-24 38.5q9 6 24 10t33 4q45 0 69 -23.5t31 -55.5h292q7 31 31.5 55t69.5 24q18 0 32.5 -4.5t23.5 -9.5q-16 -17 -25 -41t-9 -55t10 -55.5t24 -38.5q-9 -6 -23.5 -10t-32.5 -4q-45 0 -69 23.5t-32 55.5h-66v-187h228q-4 -13 -7 -31.5t-3 -37.5q0 -55 28 -98
q-21 -12 -54 -12q-47 0 -73.5 25.5t-26.5 68.5q0 9 0.5 14.5t1.5 10.5h-94v-324q0 -42 13 -55.5t36 -13.5h180q-4 -14 -7 -32t-3 -37q0 -55 28 -98q-21 -12 -54 -12q-47 0 -73.5 25.5t-26.5 68.5q0 9 0.5 15t1.5 10h-347q1 -4 1.5 -10t0.5 -15q0 -43 -26 -68.5t-73 -25.5z
" />
    <glyph glyph-name="uni1280" unicode="&#x1280;" horiz-adv-x="618" 
d="M361 -6q-14 12 -22 30.5t-8 50.5q0 22 6.5 58t15.5 78t18 83t15.5 74t6.5 50q0 34 -17.5 46t-51.5 12h-86v121q0 60 -46 60v50l174 13q15 -10 22 -30t7 -46v-104h59q52 0 74.5 -23t22.5 -62q0 -17 -6 -51t-15 -76.5t-18 -85.5t-15 -77.5t-6 -52.5q0 -30 13 -43t39 -13
v-50zM57 428q-33 0 -55 12q29 42 29 98q0 19 -3 37t-7 32h272v-60h-139q1 -5 1.5 -10.5t0.5 -14.5q0 -44 -26 -69t-73 -25z" />
    <glyph glyph-name="uni1281" unicode="&#x1281;" horiz-adv-x="781" 
d="M361 -6q-14 12 -22 30.5t-8 50.5q0 22 6.5 58t15.5 78t18 83t15.5 74t6.5 50q0 34 -17.5 46t-51.5 12h-86v121q0 60 -46 60v50l174 13q15 -10 22 -30t7 -46v-104h59q52 0 74.5 -23t22.5 -62q0 -17 -6 -51t-15 -76.5t-18 -85.5t-15 -77.5t-6 -52.5q0 -30 13 -43t39 -13
v-50zM57 428q-33 0 -55 12q29 42 29 98q0 19 -3 37t-7 32h272v-60h-139q1 -5 1.5 -10.5t0.5 -14.5q0 -44 -26 -69t-73 -25zM714 140q-47 0 -73.5 25t-26.5 69q0 9 0.5 14.5t1.5 10.5h-138v60h272q-4 -14 -7 -32t-3 -37q0 -56 29 -98q-22 -12 -55 -12z" />
    <glyph glyph-name="uni1282" unicode="&#x1282;" horiz-adv-x="775" 
d="M366 0q-13 12 -21.5 30t-8.5 45q0 20 6 55.5t15 78t18 84t15 75t6 50.5q0 34 -17.5 46t-51.5 12h-86v121q0 60 -46 60v50l174 13q15 -10 22 -30t7 -46v-104h59q52 0 74.5 -23t22.5 -62q0 -17 -6 -51t-15 -76.5t-18 -85.5t-15 -77.5t-6 -52.5q0 -28 13 -40t39 -12h58
q7 31 31 54.5t70 23.5q18 0 33.5 -4t24.5 -9q-16 -17 -25 -41t-9 -55t10 -55.5t24 -39.5q-20 -13 -58 -13q-46 0 -70 23.5t-31 55.5h-238zM57 422q-33 0 -55 12q29 42 29 98q0 19 -3 37t-7 32h272v-60h-139q1 -5 1.5 -10.5t0.5 -14.5q0 -44 -26 -69t-73 -25z" />
    <glyph glyph-name="uni1283" unicode="&#x1283;" horiz-adv-x="614" 
d="M139 -116q-17 0 -29.5 2.5t-20.5 6.5q23 45 23 100q0 32 -8 64h86q94 0 144 51.5t50 173.5v135q0 33 -18 45.5t-52 12.5h-85v58h-75q1 -5 1.5 -10.5t0.5 -14.5q0 -44 -26 -69t-73 -25q-33 0 -55 12q29 42 29 98q0 19 -3 37t-7 32h208v4q0 60 -46 60v50l174 13
q14 -10 21.5 -30t7.5 -46v-98h58q52 0 75 -23.5t23 -64.5v-179q0 -88 -38.5 -151t-106.5 -96.5t-156 -33.5h-6q1 -5 1 -9.5v-12.5q0 -41 -25.5 -66.5t-71.5 -25.5z" />
    <glyph glyph-name="uni1284" unicode="&#x1284;" horiz-adv-x="740" 
d="M428 0q-58 7 -91.5 39.5t-33.5 93.5q0 27 9.5 58.5t23.5 65.5l27 58q13 29 23.5 56t10.5 52q0 52 -68 52h-88v122q0 60 -46 60v50l174 13q15 -10 22 -30t7 -46v-98h54q55 0 79.5 -26t24.5 -67q0 -37 -13 -74.5t-32 -78.5l-20 -45h79q78 0 113 -27t35 -85
q0 -60 -42.5 -101.5t-127.5 -41.5h-120zM506 54q32 0 51 22.5t19 60.5q0 31 -15 47t-52 16h-43q-7 -20 -12.5 -39.5t-5.5 -38.5q0 -68 58 -68zM57 428q-33 0 -55 12q29 42 29 98q0 19 -3 37t-7 32h272v-60h-139q1 -5 1.5 -10.5t0.5 -14.5q0 -44 -26 -69t-73 -25z" />
    <glyph glyph-name="uni1285" unicode="&#x1285;" horiz-adv-x="620" 
d="M38 289q-8 13 -14 37t-6 53q0 94 60 154t161 78q-5 46 -45 46v50l174 13q15 -10 22 -30t7 -46v-104h59q52 0 74.5 -23t22.5 -62q0 -17 -6 -51t-15 -76.5t-18 -85.5t-15 -77.5t-6 -52.5q0 -30 13 -43t39 -13v-50l-182 -12q-14 12 -22 30.5t-8 50.5q0 22 6.5 58t15.5 78
t18 83t15.5 74t6.5 50q0 34 -17.5 46t-51.5 12h-86v73q-41 -19 -60.5 -54t-19.5 -80q0 -34 15 -48.5t39 -14.5v-50z" />
    <glyph glyph-name="uni1286" unicode="&#x1286;" horiz-adv-x="874" 
d="M525 -6q-11 16 -17 40t-6 58v98q0 50 -19.5 72.5t-68.5 22.5h-186v40q0 135 43 221t118 127t170 41h182q41 0 65.5 -15.5t35 -40t10.5 -52.5q0 -36 -14.5 -65.5t-41 -47.5t-61.5 -18h-134q-46 0 -70 30.5t-24 76.5q0 41 17 72q-61 -16 -97.5 -83t-36.5 -197v-20h108
q70 0 114.5 -33t44.5 -105v-83q0 -44 14 -58.5t45 -14.5v-53zM673 528q27 0 42 23t15 56q0 24 -12 38.5t-34 14.5q-26 0 -40.5 -21t-14.5 -56q0 -25 11.5 -40t32.5 -15zM57 299q-33 0 -55 12q29 42 29 98q0 19 -3 37t-7 32h272v-60h-139q1 -5 1.5 -10.5t0.5 -14.5
q0 -44 -26 -69t-73 -25z" />
    <glyph glyph-name="uni1287" unicode="&#x1287;" horiz-adv-x="885" 
d="M249 -79q-38 0 -58 13q14 15 24 39.5t10 55.5t-9 55t-25 41q9 5 24.5 9t33.5 4q46 0 70 -23.5t31 -54.5h163v130q0 50 -19.5 72.5t-68.5 22.5h-185v51q0 129 43 212.5t117.5 124.5t169.5 41h182q41 0 65.5 -15.5t35 -40t10.5 -52.5q0 -36 -14.5 -65.5t-41 -47.5
t-61.5 -18h-134q-46 0 -70 30.5t-24 76.5q0 41 17 72q-61 -16 -97.5 -83.5t-36.5 -196.5v-20h109q71 0 114.5 -33t43.5 -105v-216h-318q-7 -32 -31 -55.5t-70 -23.5zM684 528q27 0 42 23t15 56q0 24 -12 38.5t-34 14.5q-26 0 -40.5 -21t-14.5 -56q0 -25 11.5 -40t32.5 -15z
M57 299q-33 0 -55 12q29 42 29 98q0 19 -3 37t-7 32h272v-60h-139q1 -5 1.5 -10.5t0.5 -14.5q0 -44 -26 -69t-73 -25z" />
    <glyph glyph-name="uni1288" unicode="&#x1288;" horiz-adv-x="1008" 
d="M361 -6q-14 12 -22 30.5t-8 50.5q0 22 6.5 58t15.5 78t18 83t15.5 74t6.5 50q0 34 -17.5 46t-51.5 12h-86v121q0 60 -46 60v50l174 13q15 -10 22 -30t7 -46v-104h59q52 0 74.5 -23t22.5 -62q0 -17 -6 -51t-15 -76.5t-18 -85.5t-15 -77.5t-6 -52.5q0 -30 13 -43t39 -13
v-50zM57 428q-33 0 -55 12q29 42 29 98q0 19 -3 37t-7 32h272v-60h-139q1 -5 1.5 -10.5t0.5 -14.5q0 -44 -26 -69t-73 -25zM721 146q-53 0 -81 27t-28 70q0 17 4 32h-125v60h168q19 13 46 20t64 7h100q71 0 99 -29.5t28 -68.5q0 -49 -36.5 -83.5t-96.5 -34.5h-142zM797 198
q32 0 48.5 19t16.5 47q0 21 -13.5 33.5t-39.5 12.5q-28 0 -45.5 -17.5t-17.5 -46.5q0 -22 13 -35t38 -13z" />
    <glyph glyph-name="uni128A" unicode="&#x128a;" horiz-adv-x="960" 
d="M361 -6q-14 12 -22 30.5t-8 50.5q0 22 6.5 58t15.5 78t18 83t15.5 74t6.5 50q0 34 -17.5 46t-51.5 12h-86v121q0 60 -46 60v50l174 13q15 -10 22 -30t7 -46v-104h59q52 0 74.5 -23t22.5 -62q0 -17 -6 -51t-15 -76.5t-18 -85.5t-15 -77.5t-6 -52.5q0 -30 13 -43t39 -13
v-50zM57 428q-33 0 -55 12q29 42 29 98q0 19 -3 37t-7 32h272v-60h-139q1 -5 1.5 -10.5t0.5 -14.5q0 -44 -26 -69t-73 -25zM639 185v99h-177v60h177v114h116v-213h174q-4 -13 -7 -31t-3 -38q0 -54 29 -98q-22 -12 -55 -12q-47 0 -73.5 26t-26.5 69q0 8 0.5 13.5t1.5 10.5
h-156z" />
    <glyph glyph-name="uni128B" unicode="&#x128b;" horiz-adv-x="717" 
d="M98 28q-33 0 -55 12q29 42 29 98q0 19 -3 37t-7 32h272v-1h21q-1 8 -1 18q0 14 6 41t14 57.5t14 56.5t6 38q0 33 -18 45.5t-52 12.5h-85v72h-85q1 -5 1.5 -10.5t0.5 -14.5q0 -44 -26 -69t-73 -25q-33 0 -55 12q29 42 29 98q0 19 -3 37t-7 32h218q-4 50 -46 50v50l174 13
q14 -10 21.5 -30t7.5 -46v-98h58q52 0 75 -23.5t23 -64.5q0 -12 -6 -39t-14 -58.5t-14 -58.5t-6 -40q0 -30 13 -43t39 -13h95v-90q0 -60 46 -60v-50l-134 -12q-15 10 -22 30t-7 46v76h-288v1h-59q1 -5 1.5 -10.5t0.5 -14.5q0 -44 -26 -69t-73 -25z" />
    <glyph glyph-name="uni128C" unicode="&#x128c;" horiz-adv-x="740" 
d="M140 -119q-33 0 -55 12q29 42 29 98q0 19 -3 37t-7 32h217q-18 30 -18 73q0 27 9.5 58.5t23.5 65.5l27 58q13 29 23.5 56t10.5 52q0 52 -68 52h-88v72h-87q1 -5 1.5 -10.5t0.5 -14.5q0 -44 -26 -69t-73 -25q-33 0 -55 12q29 42 29 98q0 19 -3 37t-7 32h220q-4 50 -46 50
v50l174 13q15 -10 22 -30t7 -46v-98h54q55 0 79.5 -26t24.5 -67q0 -37 -13 -74.5t-32 -78.5l-20 -45h79q78 0 113 -27t35 -85q0 -60 -42.5 -101.5t-127.5 -41.5h-311q1 -5 1.5 -10.5t0.5 -14.5q0 -43 -26 -68.5t-73 -25.5zM506 54q32 0 51 22.5t19 60.5q0 31 -15 47t-52 16
h-43q-8 -20 -13 -39.5t-5 -38.5q0 -68 58 -68z" />
    <glyph glyph-name="uni128D" unicode="&#x128d;" horiz-adv-x="918" 
d="M361 -6q-14 12 -22 30.5t-8 50.5q0 22 6.5 58t15.5 78t18 83t15.5 74t6.5 50q0 34 -17.5 46t-51.5 12h-86v121q0 60 -46 60v50l174 13q15 -10 22 -30t7 -46v-104h59q52 0 74.5 -23t22.5 -62q0 -17 -6 -51t-15 -76.5t-18 -85.5t-15 -77.5t-6 -52.5q0 -30 13 -43t39 -13
v-50zM57 428q-33 0 -55 12q29 42 29 98q0 19 -3 37t-7 32h272v-60h-139q1 -5 1.5 -10.5t0.5 -14.5q0 -44 -26 -69t-73 -25zM482 241v59h133v1h2v190h116v-190h154q-4 -14 -7 -32t-3 -37q0 -56 29 -98q-22 -12 -55 -12q-47 0 -73.5 25.5t-26.5 68.5q0 9 0.5 14.5t1.5 10.5
h-271z" />
    <glyph glyph-name="uni1290" unicode="&#x1290;" horiz-adv-x="440" 
d="M183 -6q-14 12 -22 30.5t-8 50.5q0 22 6.5 58t15.5 78t18 83t15.5 74t6.5 50q0 34 -17.5 46t-51.5 12h-86v121q0 60 -46 60v50l174 13q15 -10 22 -30t7 -46v-104h59q52 0 74.5 -23t22.5 -62q0 -17 -6 -51t-15 -76.5t-18 -85.5t-15 -77.5t-6 -52.5q0 -30 13 -43t39 -13
v-50z" />
    <glyph glyph-name="uni1291" unicode="&#x1291;" horiz-adv-x="593" 
d="M183 -6q-14 12 -22 30.5t-8 50.5q0 22 6.5 58t15.5 78t18 83t15.5 74t6.5 50q0 34 -17.5 46t-51.5 12h-86v121q0 60 -46 60v50l174 13q15 -10 22 -30t7 -46v-104h59q52 0 74.5 -23t22.5 -62q0 -17 -6 -51t-15 -76.5t-18 -85.5t-15 -77.5t-6 -52.5q0 -30 13 -43t39 -13
v-50zM536 169q-47 0 -73.5 25t-26.5 69q0 9 0.5 14.5t1.5 10.5h-138v60h272q-4 -14 -7 -32t-3 -37q0 -56 29 -98q-22 -12 -55 -12z" />
    <glyph glyph-name="uni1292" unicode="&#x1292;" horiz-adv-x="594" 
d="M185 0q-13 12 -21.5 30t-8.5 45q0 20 6 55.5t15 78t18 84t15 75t6 50.5q0 34 -17.5 46t-51.5 12h-86v121q0 60 -46 60v50l174 13q15 -10 22 -30t7 -46v-104h59q52 0 74.5 -23t22.5 -62q0 -17 -6 -51t-15 -76.5t-18 -85.5t-15 -77.5t-6 -52.5q0 -28 13 -40t39 -12h58
q7 31 31 54.5t70 23.5q18 0 33.5 -4t24.5 -9q-16 -17 -25 -41t-9 -55t10 -55.5t24 -39.5q-20 -13 -58 -13q-46 0 -70 23.5t-31 55.5h-238z" />
    <glyph glyph-name="uni1293" unicode="&#x1293;" horiz-adv-x="551" 
d="M319 -6q-11 15 -17.5 36.5t-6.5 52.5v96q0 55 -20.5 81t-69.5 26h-187v31q0 137 42 224.5t119.5 130t184.5 42.5h151q-4 -15 -6.5 -31t-2.5 -33q0 -28 5.5 -52t18.5 -47q-9 -4 -21.5 -7t-29.5 -3q-45 0 -71 25t-26 66q0 8 0.5 12.5t1.5 9.5h-12q-86 0 -138 -73.5
t-53 -229.5h107q76 0 119.5 -38t43.5 -111v-73q0 -43 13.5 -57t41.5 -14v-52z" />
    <glyph glyph-name="uni1294" unicode="&#x1294;" horiz-adv-x="559" 
d="M247 0q-58 7 -91.5 39.5t-33.5 93.5q0 27 9.5 58.5t23.5 65.5l27 58q13 29 23.5 56t10.5 52q0 52 -68 52h-88v122q0 60 -46 60v50l174 13q15 -10 22 -30t7 -46v-98h54q55 0 79.5 -26t24.5 -67q0 -37 -13 -74.5t-32 -78.5l-20 -45h79q78 0 113 -27t35 -85
q0 -60 -42.5 -101.5t-127.5 -41.5h-120zM325 54q32 0 51 22.5t19 60.5q0 31 -15 47t-52 16h-43q-7 -20 -12.5 -39.5t-5.5 -38.5q0 -68 58 -68z" />
    <glyph glyph-name="uni1295" unicode="&#x1295;" horiz-adv-x="621" 
d="M367 -6q-14 12 -22 30t-8 47q0 20 6 55.5t15 78.5t18 85t15 76t6 51q0 35 -17.5 47t-52.5 12h-85v100q0 44 -16 61t-47 17h-15q1 -4 1.5 -10t0.5 -15q0 -43 -26 -68.5t-73 -25.5q-33 0 -55 12q29 42 29 98q0 19 -3 37t-7 32h215q82 0 117.5 -33.5t35.5 -89.5v-51h59
q51 0 74 -23t23 -62q0 -18 -6 -52t-15.5 -76.5t-18.5 -85t-15 -77t-6 -52.5q0 -30 13 -43t39 -13v-50z" />
    <glyph glyph-name="uni1296" unicode="&#x1296;" horiz-adv-x="664" 
d="M315 -6q-11 16 -17 40t-6 58v98q0 50 -19.5 72.5t-68.5 22.5h-186v40q0 135 43 221t118 127t170 41h182q41 0 65.5 -15.5t35 -40t10.5 -52.5q0 -36 -14.5 -65.5t-41 -47.5t-61.5 -18h-134q-46 0 -70 30.5t-24 76.5q0 41 17 72q-61 -16 -97.5 -83t-36.5 -197v-20h108
q70 0 114.5 -33t44.5 -105v-83q0 -44 14 -58.5t45 -14.5v-53zM463 528q27 0 42 23t15 56q0 24 -12 38.5t-34 14.5q-26 0 -40.5 -21t-14.5 -56q0 -25 11.5 -40t32.5 -15z" />
    <glyph glyph-name="uni1297" unicode="&#x1297;" horiz-adv-x="697" 
d="M89 -119q-33 0 -55 12q29 42 29 98q0 19 -3 37t-7 32h252v116q0 62 -20.5 85.5t-67.5 23.5h-162v32q0 199 83 298t257 99h153q-3 -15 -5.5 -31t-2.5 -33q0 -28 5.5 -52t18.5 -47q-9 -4 -21.5 -7t-29.5 -3q-46 0 -71.5 25t-25.5 66q0 8 0.5 12.5t1.5 9.5h-16
q-89 0 -137.5 -74.5t-49.5 -225.5h86q72 0 115.5 -37.5t43.5 -113.5v-143h207q-4 -14 -7 -32t-3 -37q0 -55 28 -98q-21 -12 -54 -12q-47 0 -73.5 25.5t-26.5 68.5q0 9 0.5 15t1.5 10h-347q1 -4 1.5 -10t0.5 -15q0 -43 -26 -68.5t-73 -25.5z" />
    <glyph glyph-name="uni1298" unicode="&#x1298;" horiz-adv-x="650" 
d="M364 -6q-14 12 -22.5 30t-8.5 47q0 20 6 53.5t15 73t18 78.5t15 71t6 49q0 33 -17.5 45.5t-51.5 12.5h-86v200h-69q-7 -31 -31 -55t-69 -24q-18 0 -33 4.5t-24 9.5q16 17 25 41t9 54q0 32 -10 56.5t-24 38.5q9 6 24 10t33 4q45 0 69 -23.5t31 -55.5h292q7 31 31.5 55
t69.5 24q18 0 32.5 -4.5t23.5 -9.5q-16 -17 -25 -41t-9 -55t10 -55.5t24 -38.5q-9 -6 -23.5 -10t-32.5 -4q-45 0 -69.5 23.5t-31.5 55.5h-65v-137h58q52 0 75 -22t23 -59q0 -16 -6 -48.5t-15 -72t-18.5 -79.5t-15.5 -73t-6 -51q0 -30 13 -42.5t39 -12.5v-50z" />
    <glyph glyph-name="uni1299" unicode="&#x1299;" horiz-adv-x="751" 
d="M364 -6q-14 12 -22.5 30t-8.5 47q0 20 6 53.5t15 73t18 78.5t15 71t6 49q0 33 -17.5 45.5t-51.5 12.5h-86v200h-69q-7 -31 -31 -55t-69 -24q-18 0 -33 4.5t-24 9.5q16 17 25 41t9 54q0 32 -10 56.5t-24 38.5q9 6 24 10t33 4q45 0 69 -23.5t31 -55.5h292q7 31 31.5 55
t69.5 24q18 0 32.5 -4.5t23.5 -9.5q-16 -17 -25 -41t-9 -55t10 -55.5t24 -38.5q-9 -6 -23.5 -10t-32.5 -4q-45 0 -69.5 23.5t-31.5 55.5h-65v-137h58q52 0 75 -22t23 -59q0 -16 -6 -48.5t-15 -72t-18.5 -79.5t-15.5 -73t-6 -51q0 -30 13 -42.5t39 -12.5v-50zM694 148
q-47 0 -73.5 25t-26.5 69q0 9 0.5 14.5t1.5 10.5h-138v60h272q-4 -14 -7 -32t-3 -37q0 -56 29 -98q-22 -12 -55 -12z" />
    <glyph glyph-name="uni129A" unicode="&#x129a;" horiz-adv-x="762" 
d="M362 0q-14 12 -22 30t-8 47q0 19 6 52t15 71.5l18 77t15 70t6 48.5q0 33 -17.5 45.5t-51.5 12.5h-86v200h-68q-7 -31 -31 -55t-69 -24q-18 0 -33 4.5t-24 9.5q16 17 25 41t9 54q0 32 -10 56.5t-24 38.5q9 6 24 10t33 4q45 0 69 -23.5t31 -55.5h292q7 31 31.5 55t69.5 24
q18 0 32.5 -4.5t23.5 -9.5q-16 -17 -25 -41t-9 -55t10 -55.5t24 -38.5q-9 -6 -23.5 -10t-32.5 -4q-45 0 -69.5 23.5t-31.5 55.5h-67v-137h59q52 0 74.5 -22t22.5 -59q0 -16 -6 -48.5t-15 -72t-18 -79.5t-15 -73t-6 -51q0 -28 13 -40t39 -12h49q7 31 31 54.5t70 23.5
q18 0 33.5 -4t24.5 -9q-16 -17 -25 -41t-9 -55t10 -55.5t24 -39.5q-20 -13 -58 -13q-46 0 -70 23.5t-31 55.5h-229z" />
    <glyph glyph-name="uni129B" unicode="&#x129b;" horiz-adv-x="636" 
d="M323 -6q-11 14 -16.5 35.5t-5.5 53.5v42q0 37 -19 59t-64 22h-187v30q0 105 56 183.5t166 107.5v127h-78q-7 -31 -31 -55t-69 -24q-18 0 -33 4.5t-24 9.5q16 17 25 41t9 54q0 32 -10 56.5t-24 38.5q9 6 24 10t33 4q45 0 69 -23.5t31 -55.5h292q7 31 31.5 55t69.5 24
q18 0 32.5 -4.5t23.5 -9.5q-16 -17 -25 -41t-9 -55t10 -55.5t24 -38.5q-9 -6 -23.5 -10t-32.5 -4q-45 0 -69.5 23.5t-31.5 55.5h-77v-113h138q-4 -14 -6.5 -30.5t-2.5 -32.5q0 -58 24 -100q-9 -4 -22 -7t-29 -3q-45 0 -71 25.5t-26 66.5q0 8 0.5 12t1.5 9h-16
q-59 0 -100.5 -30t-63.5 -77.5t-23 -102.5h106q70 0 114 -33.5t44 -88.5v-32q0 -34 13.5 -46.5t41.5 -12.5v-52z" />
    <glyph glyph-name="uni129C" unicode="&#x129c;" horiz-adv-x="736" 
d="M424 0q-58 7 -91.5 40t-33.5 97q0 25 9.5 55.5t24.5 64.5l26 58q13 29 23.5 53.5t10.5 48.5q0 28 -16.5 40t-50.5 12h-89v185h-68q-7 -31 -31 -55t-69 -24q-18 0 -33 4.5t-24 9.5q16 17 25 41t9 54q0 32 -10 56.5t-24 38.5q9 6 24 10t33 4q45 0 69 -23.5t31 -55.5h292
q7 31 31.5 55t69.5 24q18 0 32.5 -4.5t23.5 -9.5q-16 -17 -25 -41t-9 -55t10 -55.5t24 -38.5q-9 -6 -23.5 -10t-32.5 -4q-45 0 -69.5 23.5t-31.5 55.5h-66v-114h54q55 0 79 -25.5t24 -66.5q0 -38 -13 -73t-32 -75l-20 -45h80q78 0 112.5 -27t34.5 -85q0 -60 -42 -101.5
t-128 -41.5h-120zM502 54q33 0 52 22.5t19 60.5q0 31 -15.5 47t-52.5 16h-43q-8 -20 -13 -39.5t-5 -38.5q0 -68 58 -68z" />
    <glyph glyph-name="uni129D" unicode="&#x129d;" horiz-adv-x="637" 
d="M391 -6q-13 12 -21.5 29t-8.5 45q0 19 6.5 46t15 56t15 54t6.5 41q0 32 -18 44.5t-52 12.5h-85v74q0 44 -16 61t-47 17h-15q1 -4 1.5 -10t0.5 -14q0 -44 -26 -69.5t-74 -25.5q-17 0 -30.5 3.5t-23.5 8.5q29 42 29 98q0 19 -3 37t-8 32h157v120h-163q4 14 7 32t3 37
q0 56 -29 98q22 12 55 12q47 0 73 -25.5t26 -68.5q0 -9 -0.5 -15t-1.5 -10h203q-1 4 -1.5 10t-0.5 15q0 43 26.5 68.5t73.5 25.5q33 0 54 -12q-28 -43 -28 -98q0 -19 3 -37t7 -32h-164v-134q36 -14 52.5 -42t16.5 -66v-27h58q52 0 75 -20.5t23 -58.5q0 -20 -6.5 -47.5
t-15 -57t-15 -55t-6.5 -40.5q0 -50 52 -50v-50z" />
    <glyph glyph-name="uni129E" unicode="&#x129e;" horiz-adv-x="692" 
d="M315 -6q-11 16 -17 40t-6 58v29q0 34 -13.5 49.5t-47.5 15.5h-213v31q0 133 62.5 220.5t202.5 110.5v152h-77q-7 -31 -31 -55t-69 -24q-18 0 -33 4.5t-24 9.5q16 17 25 41t9 54q0 32 -10 56.5t-24 38.5q9 6 24 10t33 4q45 0 69 -23.5t31 -55.5h292q7 31 31.5 55t69.5 24
q18 0 32.5 -4.5t23.5 -9.5q-16 -17 -25 -41t-9 -55t10 -55.5t24 -38.5q-9 -6 -23.5 -10t-32.5 -4q-45 0 -69 23.5t-32 55.5h-72v-144h133q41 0 65.5 -15.5t35 -40t10.5 -52.5q0 -36 -14.5 -65.5t-41 -47.5t-61.5 -18h-134q-46 0 -70 30.5t-24 76.5q0 36 13 63
q-65 -8 -99 -43.5t-46.5 -86t-12.5 -103.5h159q57 0 82.5 -25t25.5 -77v-31q0 -35 14 -48t45 -13v-53zM491 370q27 0 42 23t15 56q0 24 -12 38.5t-34 14.5q-26 0 -40.5 -21t-14.5 -56q0 -25 11.5 -40t32.5 -15z" />
    <glyph glyph-name="uni129F" unicode="&#x129f;" horiz-adv-x="696" 
d="M87 -119q-33 0 -55 12q29 42 29 98q0 19 -3 37t-7 32h271q-2 14 -2 31v26q0 89 -86 89h-186v30q0 112 55.5 192.5t165.5 109.5v162h-77q-7 -31 -31 -55t-69 -24q-18 0 -33 4.5t-24 9.5q16 17 25 41t9 54q0 32 -10 56.5t-24 38.5q9 6 24 10t33 4q45 0 69 -23.5t31 -55.5
h292q7 31 31.5 55t69.5 24q18 0 32.5 -4.5t23.5 -9.5q-16 -17 -25 -41t-9 -55t10 -55.5t24 -38.5q-9 -6 -23.5 -10t-32.5 -4q-45 0 -69 23.5t-32 55.5h-77v-147h137q-4 -15 -6 -31t-2 -33q0 -55 23 -100q-8 -4 -20.5 -6.5t-29.5 -2.5q-46 0 -71.5 25t-25.5 66v12t1 10h-15
q-60 0 -101.5 -30.5t-63 -80.5t-22.5 -111h100q73 0 119.5 -34.5t46.5 -95.5v-22q0 -35 13.5 -47t41.5 -12h133q-4 -14 -7 -32t-3 -37q0 -55 28 -98q-21 -12 -54 -12q-47 0 -73.5 25.5t-26.5 68.5q0 9 0.5 15t1.5 10h-347q1 -4 1.5 -10t0.5 -15q0 -43 -26 -68.5t-73 -25.5z
" />
    <glyph glyph-name="uni12A0" unicode="&#x12a0;" horiz-adv-x="632" 
d="M93 -6q-10 16 -15 34.5t-5 42.5q0 30 8.5 61.5t22.5 67.5l56 144q10 27 18.5 49.5t8.5 44.5q0 20 -12.5 29.5t-42.5 9.5h-55v114q0 35 -11 50.5t-40 15.5v50l185 13q13 -16 17.5 -36t4.5 -48v-94h35q35 0 57 -20t22 -54q0 -16 -5 -35.5t-15 -47.5q62 -9 102.5 -26
t65 -46.5t38.5 -74t22 -109.5q5 -41 19 -57.5t42 -16.5v-49l-177 -12q-14 17 -22.5 40t-12.5 59q-9 76 -19 122t-28 70t-54 34l-49 -135q-11 -32 -16.5 -51.5t-5.5 -34.5q0 -23 12 -33t32 -10v-49z" />
    <glyph glyph-name="uni12A1" unicode="&#x12a1;" horiz-adv-x="783" 
d="M93 -6q-10 16 -15 34.5t-5 42.5q0 30 8.5 61.5t22.5 67.5l56 144q10 27 18.5 49.5t8.5 44.5q0 20 -12.5 29.5t-42.5 9.5h-55v114q0 35 -11 50.5t-40 15.5v50l185 13q13 -16 17.5 -36t4.5 -48v-94h35q35 0 57 -20t22 -54q0 -16 -5 -35.5t-15 -47.5q62 -9 102.5 -26
t65 -46.5t38.5 -74t22 -109.5q5 -41 19 -57.5t42 -16.5v-49l-177 -12q-14 17 -22.5 40t-12.5 59q-9 76 -19 122t-28 70t-54 34l-49 -135q-11 -32 -16.5 -51.5t-5.5 -34.5q0 -23 12 -33t32 -10v-49zM716 109q-47 0 -73.5 25t-26.5 69q0 9 0.5 14.5t1.5 10.5h-138v60h272
q-4 -14 -7 -32t-3 -37q0 -56 29 -98q-22 -12 -55 -12z" />
    <glyph glyph-name="uni12A2" unicode="&#x12a2;" horiz-adv-x="808" 
d="M89 -6q-9 16 -14 34.5t-5 42.5q0 30 8.5 61.5t22.5 67.5l55 144q10 27 19 49.5t9 44.5q0 20 -13 29.5t-42 9.5h-60v114q0 35 -11.5 50.5t-39.5 15.5v50l184 13q13 -16 17.5 -36t4.5 -48v-94h35q35 0 57.5 -20t22.5 -54q0 -16 -5.5 -35.5t-15.5 -47.5q78 -12 122.5 -39
t66.5 -79t32 -138q5 -38 19 -53.5t42 -15.5h37q7 31 31 54.5t70 23.5q18 0 33.5 -4t24.5 -9q-16 -17 -25 -41t-9 -55t10 -55.5t24 -39.5q-20 -13 -58 -13q-46 0 -70 23.5t-31 55.5h-210q-11 16 -19 36.5t-13 56.5q-9 77 -19 123t-28 69.5t-54 33.5l-49 -135
q-11 -32 -16.5 -51.5t-5.5 -34.5q0 -23 12.5 -33t31.5 -10v-49z" />
    <glyph glyph-name="uni12A3" unicode="&#x12a3;" horiz-adv-x="631" 
d="M109 135q-7 16 -10.5 31t-3.5 35q0 31 15 66t37 72q20 35 31 56.5t11 42.5q0 20 -13 29.5t-42 9.5h-57v114q0 35 -11 50.5t-40 15.5v50l185 13q13 -16 17.5 -36t4.5 -48v-94h35q35 0 57 -20t22 -54q0 -35 -23 -84q65 -9 106 -26.5t65 -46.5t37.5 -73.5t21.5 -108.5
q5 -41 18.5 -57.5t42.5 -16.5v-49l-177 -12q-14 17 -22 40t-13 59q-9 76 -19 122t-30.5 70t-62.5 35q-17 -31 -26.5 -51.5t-9.5 -36.5q0 -36 40 -36v-49z" />
    <glyph glyph-name="uni12A4" unicode="&#x12a4;" horiz-adv-x="824" 
d="M89 -6q-9 16 -14 34.5t-5 42.5q0 30 8.5 61.5t22.5 67.5l55 144q10 27 19 49.5t9 44.5q0 20 -13 29.5t-42 9.5h-60v114q0 35 -11.5 50.5t-39.5 15.5v50l184 13q13 -16 17.5 -36t4.5 -48v-94h35q35 0 57.5 -20t22.5 -54q0 -16 -5 -35t-15 -48q86 -12 129 -41.5t66 -88.5
h135q78 0 115.5 -27t37.5 -85q0 -60 -42 -101.5t-128 -41.5h-190q-18 14 -30 39.5t-17 69.5q-9 70 -18.5 112.5t-28 65t-54.5 32.5l-49 -135q-11 -32 -16.5 -51.5t-5.5 -34.5q0 -23 12.5 -33t31.5 -10v-49zM598 54q30 0 46 22.5t16 59.5q0 31 -15 47.5t-52 16.5h-67
q4 -16 7 -34.5t7 -43.5q5 -36 18.5 -52t39.5 -16z" />
    <glyph glyph-name="uni12A5" unicode="&#x12a5;" horiz-adv-x="607" 
d="M83 -6q-11 16 -17.5 38t-6.5 44q0 30 9 62t23 64l104 247h-92l44 93h-101l28 57q11 23 3 40.5t-39 17.5v50l157 13q11 -14 11 -34.5t-8 -40.5l-9 -26h95v-43l-30 -67h95v-47l-33 -77q76 -13 118.5 -40t63 -79t32.5 -137q5 -41 18.5 -57.5t42.5 -16.5v-49l-170 -12
q-14 17 -22.5 40t-12.5 59q-9 75 -18.5 121t-27.5 70t-52 35l-54 -135q-13 -32 -17.5 -49t-4.5 -32q0 -26 15 -37t34 -11v-49z" />
    <glyph glyph-name="uni12A6" unicode="&#x12a6;" horiz-adv-x="629" 
d="M98 -6q-9 16 -14 34t-5 41q0 31 9.5 63t23.5 68l55 144q11 27 19 49.5t8 44.5q0 20 -12.5 29.5t-41.5 9.5h-61v114q0 35 -11 50.5t-40 15.5v50l185 13q13 -16 17.5 -36t4.5 -48v-94h35q35 0 57.5 -20t22.5 -54q0 -16 -5.5 -35.5t-14.5 -46.5q113 -7 164.5 -43t68.5 -104
q5 -18 15 -30.5t36 -12.5v-49l-173 -12q-11 13 -17 29t-10 36q-10 56 -32 84t-76 36l-50 -136q-11 -32 -16.5 -51.5t-5.5 -34.5q0 -23 12 -33t32 -10v-49z" />
    <glyph glyph-name="uni12A7" unicode="&#x12a7;" horiz-adv-x="762" 
d="M222 -6q-9 16 -14 34.5t-5 42.5q0 30 8.5 61.5t22.5 67.5l56 144q10 27 18.5 49.5t8.5 44.5q0 20 -13 29.5t-42 9.5h-52v179h-39q-9 -34 -33 -57t-68 -23q-18 0 -33 4t-24 10q15 15 24.5 39.5t9.5 55.5q0 62 -34 96q22 14 57 14q45 0 69.5 -24t31.5 -55h228q7 31 31.5 55
t69.5 24q19 0 33 -4t24 -10q-35 -35 -35 -95q0 -61 35 -96q-9 -6 -24 -10t-33 -4q-44 0 -68 23t-33 57h-39v-114h38q34 0 56.5 -20t22.5 -54q0 -16 -5 -35.5t-15 -47.5q62 -9 102.5 -26t65 -46.5t38.5 -74t22 -109.5q5 -41 19 -57.5t42 -16.5v-49l-177 -12q-14 17 -22.5 40
t-12.5 59q-9 76 -19 122t-28 70t-54 34l-49 -135q-11 -32 -16.5 -51.5t-5.5 -34.5q0 -23 12 -33t32 -10v-49z" />
    <glyph glyph-name="uni12A8" unicode="&#x12a8;" horiz-adv-x="761" 
d="M182 -6q-11 15 -15.5 40.5t-4.5 57.5v215q0 110 49 185q-15 -2 -30.5 -3t-30.5 -1q-35 0 -52 17.5t-17 55.5v89q0 57 -45 57v51l162 12q13 -10 20 -28t7 -47v-79q0 -32 9 -46t33 -17q36 29 83.5 44t105.5 15q82 0 129 -27t66.5 -78.5t19.5 -126.5q0 -34 -1 -78t-2 -88.5
t-1 -81.5q0 -44 14 -58.5t45 -14.5v-53l-197 -12q-21 28 -21 98q0 45 1 100.5t2 113.5t1 108q0 70 -18 103.5t-56 33.5q-54 0 -86 -57t-32 -196v-166q0 -44 14 -58.5t45 -14.5v-53z" />
    <glyph glyph-name="uni12A9" unicode="&#x12a9;" horiz-adv-x="912" 
d="M182 -6q-11 15 -15.5 40.5t-4.5 57.5v215q0 110 49 185q-15 -2 -30.5 -3t-30.5 -1q-35 0 -52 17.5t-17 55.5v89q0 57 -45 57v51l162 12q13 -10 20 -28t7 -47v-79q0 -32 9 -46t33 -17q36 29 83.5 44t105.5 15q82 0 129 -27t66.5 -78.5t19.5 -126.5q0 -34 -1 -78t-2 -88.5
t-1 -81.5q0 -44 14 -58.5t45 -14.5v-53l-197 -12q-21 28 -21 98q0 45 1 100.5t2 113.5t1 108q0 70 -18 103.5t-56 33.5q-54 0 -86 -57t-32 -196v-166q0 -44 14 -58.5t45 -14.5v-53zM852 195q-46 0 -70 23.5t-31 55.5h-133v60h133q7 31 31 54.5t70 23.5q18 0 33.5 -4t24.5 -9
q-16 -17 -25 -41t-9 -55t10 -55.5t24 -39.5q-20 -13 -58 -13z" />
    <glyph glyph-name="uni12AA" unicode="&#x12aa;" horiz-adv-x="908" 
d="M150 488q-35 0 -52 17.5t-17 55.5v89q0 57 -45 57v51l162 12q13 -10 20 -28t7 -47v-79q0 -31 9 -45.5t32 -16.5q36 28 83.5 43t105.5 15q82 0 129 -27t66.5 -78.5t19.5 -126.5q0 -34 -1 -77.5t-2.5 -88t-1.5 -81.5q0 -44 14 -58.5t45 -14.5h13q7 31 31 54.5t70 23.5
q18 0 33.5 -4t24.5 -9q-34 -34 -34 -96q0 -31 9.5 -55.5t24.5 -39.5q-20 -13 -58 -13q-46 0 -70 23.5t-31 55.5h-209q-21 28 -21 98q0 45 1 99t2 110.5t1 106.5q0 70 -18 103.5t-56 33.5q-54 0 -86.5 -57t-32.5 -196v-166q0 -44 14 -58.5t45 -14.5v-53l-196 -12
q-11 15 -16 40.5t-5 57.5v215q0 109 49 185q-14 -2 -29 -3t-30 -1z" />
    <glyph glyph-name="uni12AB" unicode="&#x12ab;" horiz-adv-x="775" 
d="M150 488q-35 0 -52 17.5t-17 55.5v89q0 57 -45 57v51l162 12q13 -10 20 -28t7 -47v-79q0 -33 10 -47t36 -16q37 28 86.5 43.5t110.5 15.5q83 0 130.5 -26.5t67 -77.5t19.5 -124q0 -36 -1 -80.5l-2 -89t-1 -81.5q0 -44 14 -58.5t45 -14.5v-53l-197 -13q-21 28 -21 98
q0 45 1 101t2 113.5t1 109.5q0 69 -18 102t-58 33q-54 0 -85 -45.5t-31 -134.5v-23q0 -28 14 -39.5t45 -11.5v-53l-197 -13q-11 15 -15.5 38t-4.5 52v33q0 78 39 139q-16 -2 -32.5 -3.5t-32.5 -1.5z" />
    <glyph glyph-name="uni12AC" unicode="&#x12ac;" horiz-adv-x="948" 
d="M178 -6q-11 15 -15.5 40.5t-4.5 57.5v212q0 111 49 188q-30 -4 -57 -4q-35 0 -52 17.5t-17 55.5v89q0 57 -45 57v51l162 12q13 -10 20 -28t7 -47v-79q0 -30 8.5 -44.5t29.5 -17.5q36 28 83.5 43.5t105.5 15.5q82 0 129 -27t66.5 -79.5t19.5 -126.5q0 -17 -1 -40.5
t-1.5 -46.5t-0.5 -38h109q78 0 115.5 -27t37.5 -85q0 -60 -42.5 -101.5t-127.5 -41.5h-169q-38 10 -60 35t-22 76q0 37 0.5 81.5t1 88.5t1 79.5t0.5 53.5q0 70 -18 103.5t-56 33.5q-36 0 -62.5 -25t-41 -81t-14.5 -150v-162q0 -44 14 -58.5t45 -14.5v-53zM715 54
q32 0 50.5 22.5t18.5 59.5q0 31 -15 47.5t-53 16.5h-52v-97q0 -28 12.5 -38.5t38.5 -10.5z" />
    <glyph glyph-name="uni12AD" unicode="&#x12ad;" horiz-adv-x="760" 
d="M181 -6q-11 15 -15.5 40.5t-4.5 57.5v61q0 62 24 102t60 59l-84 -2q0 106 47 180q-14 -2 -28.5 -3t-29.5 -1q-35 0 -52 17.5t-17 55.5v89q0 57 -45 57v51l162 12q13 -10 20 -28t7 -47v-79q0 -31 8.5 -45.5t31.5 -16.5q36 28 84 43t107 15q82 0 128.5 -27t66 -78.5
t19.5 -126.5q0 -34 -1 -78t-2 -88.5t-1 -81.5q0 -44 14 -58.5t45 -14.5v-53l-197 -12q-21 28 -21 98q0 45 1 100.5t2 113.5t1 108q0 70 -18 103.5t-56 33.5q-53 0 -85.5 -48.5t-32.5 -137.5h102v-41q-55 -14 -78.5 -49t-23.5 -95v-48q0 -44 14 -58.5t45 -14.5v-53z" />
    <glyph glyph-name="uni12AE" unicode="&#x12ae;" horiz-adv-x="746" 
d="M180 -6q-11 15 -15.5 40.5t-4.5 57.5v215q0 109 49 185q-14 -2 -29 -3t-30 -1q-35 0 -52 17.5t-17 55.5v89q0 57 -45 57v51l162 12q13 -10 20 -28t7 -47v-79q0 -31 9 -45.5t31 -16.5q37 28 84 43t105 15q82 0 128.5 -25.5t66 -69t19.5 -96.5q0 -14 -0.5 -30.5t-0.5 -27.5
q0 -37 13 -50.5t44 -13.5v-53l-196 -12q-21 28 -21 98q0 20 1 50.5t1 56.5q0 53 -17.5 82.5t-55.5 29.5q-54 0 -86 -57t-32 -196v-165q0 -44 14 -58.5t45 -14.5v-53z" />
    <glyph glyph-name="uni12AF" unicode="&#x12af;" horiz-adv-x="833" 
d="M267 -6q-11 15 -15.5 40.5t-4.5 57.5v215q0 109 49 185q-14 -2 -29 -3t-30 -1q-35 0 -52 17.5t-17 55.5v89q0 57 -45 57v51l162 12q13 -10 20 -28t7 -47v-79q0 -31 9 -45.5t31 -16.5q37 28 84 43t105 15q82 0 128.5 -25.5t66 -69t19.5 -96.5q0 -14 -0.5 -30.5t-0.5 -27.5
q0 -37 13 -50.5t44 -13.5v-53l-196 -12q-21 28 -21 98q0 20 1 50.5t1 56.5q0 53 -17.5 82.5t-55.5 29.5q-54 0 -86 -57t-32 -196v-165q0 -44 14 -58.5t45 -14.5v-53zM70 162q-38 0 -58 13q14 15 24 39.5t10 55.5t-9 55t-25 41q9 5 24.5 9t33.5 4q46 0 70 -23.5t31 -54.5h133
v-60h-133q-7 -32 -31 -55.5t-70 -23.5z" />
    </font>
</defs>
</svg>
