<?xml version="1.0" standalone="no"?>
<!DOCTYPE svg PUBLIC "-//W3C//DTD SVG 1.1//EN" "http://www.w3.org/Graphics/SVG/1.1/DTD/svg11.dtd" >
<svg>
<metadata>
Created by FontForge 20090622 at Fri May  8 19:19:54 2020
 By deploy user
Copyright 2015-2019 Google LLC. All Rights Reserved.
</metadata>
<defs>
<font id="NotoSansArmenian-Regular" horiz-adv-x="597" >
  <font-face 
    font-family="Noto Sans Armenian"
    font-weight="400"
    font-stretch="normal"
    units-per-em="1000"
    panose-1="0 0 0 0 0 0 0 0 0 0"
    ascent="800"
    descent="-200"
    bbox="-141 -245 1440 829"
    underline-thickness="50"
    underline-position="-75"
    unicode-range="U+000D-U+FB17"
  />
<missing-glyph horiz-adv-x="600" 
d="M94 0v714h411v-714h-411zM145 51h309v612h-309v-612z" />
    <glyph glyph-name="uni05480552" unicode="&#x548;&#x552;" horiz-adv-x="1316" 
d="M90 0v462q0 82 32.5 140.5t94 90t148.5 31.5t147 -31.5t91.5 -90.5t31.5 -142v-460h-90v448q0 104 -47 152t-136 48q-58 0 -98.5 -21t-62 -64t-21.5 -109v-454h-90zM807 0v714h90v-177h43q39 0 65 -6t45.5 -21t38 -43t40.5 -72q26 -50 42 -74t30.5 -31t35.5 -7h27v-76
h-37q-35 0 -62 11t-49 38t-45 73q-21 44 -36.5 70.5t-29.5 39.5t-31 17.5t-42 4.5h-35v-461h-90z" />
    <glyph glyph-name="uni05780582" unicode="&#x578;&#x582;" horiz-adv-x="905" 
d="M87 0v492h70l11 -87h5q13 27 35.5 49t54.5 35t74 13q55 0 94.5 -21t61 -62.5t21.5 -104.5v-314h-89v297q0 68 -29.5 100t-79.5 32q-42 0 -73.5 -20.5t-49 -62.5t-17.5 -105v-241h-89zM668 0v492h89v-422h131v-70h-220z" />
    <glyph glyph-name="uniFB13" unicode="&#x574;&#x576;" horiz-adv-x="1195" 
d="M509 385v-385h-70l-11 87h-5q-13 -27 -35.5 -49t-54.5 -35t-74 -13q-54 0 -94 21t-61.5 63t-21.5 104v314h89v-297q0 -67 30 -99.5t79 -32.5q42 0 73.5 20.5t49 62.5t17.5 106v130q0 33 -13.5 65t-47.5 68q-25 27 -40 48.5t-22 40t-7 35.5q0 35 15.5 62t47.5 43t82 16
h277v-70h-282q-25 0 -38 -13.5t-13 -31.5q0 -15 6 -28t19.5 -29.5t37.5 -42.5q25 -26 39.5 -51t21 -51t6.5 -58zM791 515l25 35h58v-14q-35 -59 -59 -105t-38.5 -83t-20.5 -70t-6 -66q0 -52 15 -85t43.5 -48.5t68.5 -15.5q42 0 74 21t50 63t18 105v240h89v-492h-70l-11 87
h-6q-12 -27 -34.5 -49t-54.5 -35t-74 -13q-94 0 -146.5 54t-52.5 154q0 34 6.5 68.5t21.5 72t40.5 81t63.5 95.5zM874 550l-78 -41l-62 34q-34 19 -52 45t-18 52q0 16 5 32.5t14 32.5l29 55l69 -34l-20 -34q-7 -11 -10 -21.5t-3 -19.5q0 -17 11 -31.5t32 -25.5z" />
    <glyph glyph-name="uniFB14" unicode="&#x574;&#x565;" horiz-adv-x="1218" 
d="M509 385v-385h-70l-11 87h-5q-13 -27 -35.5 -49t-54.5 -35t-74 -13q-54 0 -94 21t-61.5 63t-21.5 104v314h89v-297q0 -67 30 -99.5t79 -32.5q42 0 73.5 20.5t49 62.5t17.5 106v130q0 33 -13.5 65t-47.5 68q-25 27 -40 48.5t-22 40t-7 35.5q0 35 15.5 62t47.5 43t82 16
h300v-70h-305q-25 0 -38 -13.5t-13 -31.5q0 -15 6 -28t19.5 -29.5t37.5 -42.5q25 -26 39.5 -51t21 -51t6.5 -58zM1130 317v-317h-70l-11 87h-5q-13 -27 -35.5 -49t-54.5 -35t-74 -13q-54 0 -94 21t-61.5 63t-21.5 104v582h89v-565q0 -67 30 -99.5t79 -32.5q42 0 73.5 21
t49 63t17.5 105v65h89zM746 492h403v-70h-403v70z" />
    <glyph glyph-name="uniFB15" unicode="&#x574;&#x56b;" horiz-adv-x="1215" 
d="M509 385v-385h-70l-11 87h-5q-13 -27 -35.5 -49t-54.5 -35t-74 -13q-54 0 -94 21t-61.5 63t-21.5 104v314h89v-297q0 -67 30 -99.5t79 -32.5q42 0 73.5 20.5t49 62.5t17.5 106v130q0 33 -13.5 65t-47.5 68q-25 27 -40 48.5t-22 40t-7 35.5q0 35 15.5 62t47.5 43t82 16
h305v-70h-310q-25 0 -38 -13.5t-13 -31.5q0 -15 6 -28t19.5 -29.5t37.5 -42.5q25 -26 39.5 -51t21 -51t6.5 -58zM794 760v-268q0 -22 -1.5 -43t-3.5 -44h5q13 27 34 49t52.5 35t74.5 13q56 0 95.5 -21t60.5 -62.5t21 -104.5v-314h-89v297q0 68 -28.5 100t-80.5 32
q-64 0 -102 -46.5t-38 -141.5v-477h-89v996h89z" />
    <glyph glyph-name="uniFB16" unicode="&#x57e;&#x576;" horiz-adv-x="1187" 
d="M509 -166h131v-70h-220v237q0 23 1.5 43.5t4.5 42.5h-6q-12 -27 -34 -49t-53.5 -35t-73.5 -13q-54 0 -94 21t-61.5 63t-21.5 104v314h89v-297q0 -67 30 -99.5t79 -32.5q42 0 73.5 21t49 63t17.5 105v508h89v-926zM425 760h280v-70h-280v70zM783 523l32 49l52 -22v-17
q-34 -52 -57.5 -95.5t-38.5 -81.5t-22 -73t-7 -71q0 -52 15 -85t43.5 -48.5t68.5 -15.5q42 0 74 21t50 63t18 105v240h89v-492h-70l-11 87h-6q-12 -27 -34.5 -49t-54.5 -35t-74 -13q-94 0 -146.5 54t-52.5 154q0 34 6 69t21 73.5t40.5 83.5t64.5 99zM867 550l-86 -38l-54 31
q-34 20 -52 45.5t-18 51.5q0 16 5 32.5t14 32.5l29 55l69 -34l-20 -34q-7 -11 -10 -21.5t-3 -19.5q0 -17 11.5 -30t36.5 -27z" />
    <glyph glyph-name="uniFB17" unicode="&#x574;&#x56d;" horiz-adv-x="1527" 
d="M509 385v-385h-70l-11 87h-5q-13 -27 -35.5 -49t-54.5 -35t-74 -13q-54 0 -94 21t-61.5 63t-21.5 104v314h89v-297q0 -67 30 -99.5t79 -32.5q42 0 73.5 20.5t49 62.5t17.5 106v130q0 33 -13.5 65t-47.5 68q-25 27 -40 48.5t-22 40t-7 35.5q0 35 15.5 62t47.5 43t82 16
h288v-70h-293q-25 0 -38 -13t-13 -32q0 -15 6 -28t19.5 -29.5t37.5 -42.5q25 -26 39.5 -51t21 -51t6.5 -58zM1351 492h89v-492h-70l-11 87h-5q-13 -27 -34 -49t-51 -35t-71 -13q-53 0 -92.5 21t-60.5 63t-21 104v119q0 68 -27 100t-73 32q-62 0 -96 -46.5t-34 -141.5v-477
h-89v996h89v-268q0 -22 -1.5 -43t-3.5 -44h5q12 27 31.5 49t49.5 35t71 13q52 0 89.5 -21t57.5 -62.5t20 -104.5v-119q0 -67 29.5 -99.5t76.5 -32.5q61 0 96.5 47.5t35.5 141.5v240z" />
    <glyph glyph-name=".notdef" horiz-adv-x="600" 
d="M94 0v714h411v-714h-411zM145 51h309v612h-309v-612z" />
    <glyph glyph-name="CR" unicode="&#xd;" horiz-adv-x="260" 
 />
    <glyph glyph-name="NULL" horiz-adv-x="0" 
 />
    <glyph glyph-name="NULL" horiz-adv-x="0" 
 />
    <glyph glyph-name="uni0308" unicode="&#x308;" horiz-adv-x="0" 
d="M-141 681q0 26 14 37.5t33 11.5t33 -11.5t14 -37.5q0 -25 -14 -37.5t-33 -12.5t-33 12.5t-14 37.5zM47 681q0 26 13.5 37.5t32.5 11.5t33 -11.5t14 -37.5q0 -25 -14 -37.5t-33 -12.5t-32.5 12.5t-13.5 37.5z" />
    <glyph glyph-name="hyphen" unicode="-" horiz-adv-x="322" 
d="M40 229v78h242v-78h-242z" />
    <glyph glyph-name="uni2010" unicode="&#x2010;" horiz-adv-x="322" 
d="M40 229v78h242v-78h-242z" />
    <glyph glyph-name="space" unicode=" " horiz-adv-x="260" 
 />
    <glyph glyph-name="uni00A0" unicode="&#xa0;" horiz-adv-x="260" 
 />
    <glyph glyph-name="uni0531" unicode="&#x531;" horiz-adv-x="831" 
d="M360 -10q-86 0 -146.5 31.5t-92 90.5t-31.5 142v460h90v-447q0 -104 47.5 -152.5t135.5 -48.5q58 0 98.5 21.5t62 65t21.5 108.5v453h90v-462q0 -81 -32.5 -140t-94 -90.5t-148.5 -31.5zM622 218q8 2 17 3t17 1q74 0 113.5 -41.5t39.5 -134.5v-46h-80v41q0 62 -22 86.5
t-64 24.5q-10 0 -19 -0.5t-16 -2.5z" />
    <glyph glyph-name="uni0532" unicode="&#x532;" horiz-adv-x="696" 
d="M90 0v462q0 82 31.5 140.5t91.5 90t147 31.5q89 0 148 -32t88 -94t29 -153h-90q0 104 -43 153.5t-135 49.5q-58 0 -97.5 -21.5t-59.5 -64.5t-20 -109v-453h-90zM169 341h459v-76h-459v76z" />
    <glyph glyph-name="uni0533" unicode="&#x533;" horiz-adv-x="758" 
d="M579 0h-90v436q0 70 -19 117t-56 71t-92 24q-81 0 -122.5 -38.5t-41.5 -114.5t45 -115t143 -39h390v-76h-400q-134 0 -202.5 59.5t-68.5 170.5q0 73 30 124t87.5 78t139.5 27q83 0 140 -31.5t87 -95t30 -159.5v-438z" />
    <glyph glyph-name="uni0534" unicode="&#x534;" horiz-adv-x="764" 
d="M584 0h-90v453q0 101 -44.5 148t-128.5 47q-58 0 -96.5 -22t-57 -67t-18.5 -114h-90q0 88 29 150.5t88 95.5t147 33q83 0 141.5 -30.5t89 -89.5t30.5 -143v-461zM569 341h163v-76h-163v76z" />
    <glyph glyph-name="uni0535" unicode="&#x535;" horiz-adv-x="696" 
d="M90 714h90v-453q0 -65 20 -108.5t59.5 -65t97.5 -21.5q92 0 135 49.5t43 153.5h90q0 -91 -29 -153t-88 -94t-148 -32q-87 0 -147 31.5t-91.5 90.5t-31.5 140v462zM169 528v76h459v-76h-459z" />
    <glyph glyph-name="uni0536" unicode="&#x536;" horiz-adv-x="670" 
d="M308 287q-74 0 -128.5 28.5t-84 78.5t-29.5 114q0 66 31.5 116t89 77.5t135.5 27.5q81 0 137 -29t84.5 -81t28.5 -121q0 -39 -18.5 -76.5t-53 -68t-83.5 -48.5t-109 -18zM551 0v36q0 33 -15 45.5t-48 12.5h-336v-94h-79v227h79v-57h366q54 0 83 -25.5t29 -86.5v-58h-79z
M157 110v60q62 0 121.5 21.5t107 63t75.5 103t28 140.5h82q0 -76 -23.5 -138t-64.5 -108.5t-94 -78t-112.5 -47.5t-119.5 -16zM318 361q84 0 123.5 40.5t39.5 106.5q0 44 -16.5 77t-52 51.5t-91.5 18.5q-80 0 -122.5 -38t-42.5 -109q0 -67 40 -107t122 -40z" />
    <glyph glyph-name="uni0537" unicode="&#x537;" horiz-adv-x="629" 
d="M164 492h386v-76h-386v76zM409 0h-313v714h90v-638h233q71 0 108.5 -35.5t37.5 -104.5v-79h-90v71q0 37 -16.5 54.5t-49.5 17.5z" />
    <glyph glyph-name="uni0538" unicode="&#x538;" horiz-adv-x="696" 
d="M90 0v462q0 82 31.5 140.5t91.5 90t147 31.5q89 0 148 -32t88 -94t29 -153h-90q0 105 -43 154t-135 49q-58 0 -97.5 -21t-59.5 -64.5t-20 -109.5v-453h-90zM169 76h459v-76h-459v76z" />
    <glyph glyph-name="uni0539" unicode="&#x539;" horiz-adv-x="811" 
d="M90 0v434q0 90 36.5 155t105 100t164.5 35q152 0 226.5 -73.5t74.5 -210.5h-90q0 70 -23 116t-70 69t-121 23q-68 0 -115.5 -24t-72.5 -71t-25 -116v-437h-90zM814 485v-76h-117q0 -90 -23 -147t-66.5 -84.5t-105.5 -27.5q-55 0 -96 20.5t-63.5 58t-22.5 88.5
q0 83 54.5 125.5t159.5 42.5h280zM607 409h-72q-58 0 -90 -22t-32 -69q0 -43 23.5 -67.5t67.5 -24.5q34 0 56.5 16.5t34.5 56.5t12 110z" />
    <glyph glyph-name="uni053A" unicode="&#x53a;" horiz-adv-x="765" 
d="M595 714v-438q0 -96 -31 -159.5t-90 -95t-145 -31.5q-84 0 -143 29.5t-90 84.5t-31 133h93q0 -84 43.5 -127.5t127.5 -43.5q58 0 97 24t59 71.5t20 116.5v436h90zM336 491h400v-76h-390q-91 0 -139.5 -44.5t-48.5 -133.5h-93q0 60 18.5 107t53.5 80t85.5 50t113.5 17z
" />
    <glyph glyph-name="uni053B" unicode="&#x53b;" horiz-adv-x="702" 
d="M96 714h90v-199q0 -30 -1.5 -58t-3.5 -60h5v-397h-90v714zM175 204v153q16 88 75.5 128t151.5 40q76 0 129.5 -29.5t82 -85.5t28.5 -134v-41h-90v35q0 89 -43 134t-127 45q-58 0 -102.5 -22t-69 -65t-24.5 -107v-51h-11z" />
    <glyph glyph-name="uni053C" unicode="&#x53c;" horiz-adv-x="412" 
d="M96 0v714h90v-638h203v-76h-293z" />
    <glyph glyph-name="uni053D" unicode="&#x53d;" horiz-adv-x="819" 
d="M96 0v714h90v-714h-90zM370 526h90v-136q0 -76 27 -110.5t85 -34.5q56 0 82.5 34.5t26.5 110.5v136h90v-142q0 -105 -51 -160t-148 -55q-102 0 -152 53t-50 156v148zM135 526h296v-77h-296v77z" />
    <glyph glyph-name="uni053E" unicode="&#x53e;" horiz-adv-x="711" 
d="M68 269q0 74 33.5 141.5t92 124.5t133.5 99.5t158 66t166 23.5v-76q-71 0 -141.5 -19t-133.5 -54t-112 -82t-77 -104t-28 -119q0 -94 50.5 -149t144.5 -55q65 0 109.5 25t67.5 70.5t23 106.5q0 62 -27 111.5t-88.5 88.5t-164.5 67q-61 17 -102 34t-65 37t-35 46t-12 62
h89q1 -21 8 -36.5t24 -28t48 -24.5t80 -25q90 -24 154 -57.5t104 -75.5t59 -92t19 -107q0 -82 -35.5 -145t-100.5 -98t-155 -35q-91 0 -155 35t-97.5 97.5t-33.5 146.5z" />
    <glyph glyph-name="uni053F" unicode="&#x53f;" horiz-adv-x="709" 
d="M616 0h-90v210q0 16 0.5 35.5t2 41t2.5 42.5h-5v247h90v-576zM559 561v-102q0 -57 -17.5 -102.5t-50 -77.5t-79 -49t-103.5 -17q-75 0 -126 27.5t-77.5 83t-26.5 139.5v251h90v-232q0 -64 17 -107t53.5 -64.5t94.5 -21.5q66 0 108.5 26t63 76.5t20.5 122.5v47h33z" />
    <glyph glyph-name="uni0540" unicode="&#x540;" horiz-adv-x="575" 
d="M495 610q-25 18 -54 28t-61 10q-49 0 -82 -17.5t-54 -54.5t-33 -98l-80 -405l-88 13l80 410q16 79 48.5 129t84.5 74.5t124 24.5q45 0 86 -11.5t77 -37.5zM43 86l33 73l293 -59q53 -10 85 -30t46 -50t14 -70v-44h-90v32q0 38 -19.5 60t-54.5 29z" />
    <glyph glyph-name="uni0541" unicode="&#x541;" horiz-adv-x="649" 
d="M308 729q62 0 109.5 -21t79.5 -60t48.5 -92t16.5 -116q0 -84 -17.5 -154t-49 -125t-74.5 -93t-94.5 -58t-107.5 -20v68q53 0 98.5 26t80.5 75.5t54.5 120.5t19.5 162q0 46 -9.5 84.5t-29.5 67.5t-51 45t-74 16q-82 0 -125 -37t-43 -105q0 -67 38.5 -104t105.5 -37
q38 0 76.5 6.5t71 18t52.5 25.5v-69q-28 -15 -61.5 -26t-68.5 -17t-70 -6q-70 0 -122.5 25.5t-82 72.5t-29.5 111q0 65 31.5 113.5t89.5 75.5t137 27zM604 -15q-50 50 -100.5 87t-98.5 61.5t-91.5 36.5t-81.5 12q-48 0 -72.5 -15.5t-24.5 -47.5q0 -30 23 -45.5t61 -15.5v-68
q-84 0 -126.5 32.5t-42.5 96.5q0 63 48 97t133 34q62 0 122.5 -16.5t122.5 -54t128 -102.5v-92z" />
    <glyph glyph-name="uni0542" unicode="&#x542;" horiz-adv-x="764" 
d="M564 0h-90v453q0 102 -42.5 148.5t-120.5 46.5q-55 0 -91 -22t-53.5 -66.5t-17.5 -114.5h-90q0 88 28.5 150.5t85 95.5t140.5 33q79 0 135 -30.5t86 -89.5t30 -143v-461zM549 76h183v-76h-183v76z" />
    <glyph glyph-name="uni0543" unicode="&#x543;" horiz-adv-x="688" 
d="M622 648q-103 -15 -189 -60.5t-149 -111.5t-97.5 -142.5t-34.5 -151.5q0 -39 11.5 -62t35.5 -33.5t62 -10.5h266v133q0 70 -12.5 125.5t-41.5 97t-78 68t-121 39.5l-206 36v77l234 -41q93 -16 154.5 -51.5t96.5 -90t50 -127.5t15 -163v-179h-372q-52 0 -87.5 11.5
t-57 33.5t-31 53t-9.5 69q0 72 26 146.5t75.5 143t118.5 124.5t155 94t186 49v-76z" />
    <glyph glyph-name="uni0544" unicode="&#x544;" horiz-adv-x="804" 
d="M363 -10q-89 0 -150 32.5t-92 91.5t-31 139v461h90v-447q0 -68 20.5 -112.5t61 -66.5t100.5 -22q86 0 134.5 46.5t48.5 148.5v453h237v-76h-147v-385q0 -84 -33 -143t-93.5 -89.5t-145.5 -30.5z" />
    <glyph glyph-name="uni0545" unicode="&#x545;" horiz-adv-x="627" 
d="M548 549q0 -71 -44.5 -116.5t-116.5 -56.5v-3q90 -10 136.5 -54.5t46.5 -119.5q0 -62 -29.5 -109t-87 -73.5t-142.5 -26.5q-68 0 -126.5 11t-98.5 29v82q26 -14 62 -24.5t76 -16t76 -5.5q90 0 133.5 37.5t43.5 100.5q0 35 -13 59.5t-40 40t-69.5 23t-101.5 7.5h-209v76
h195q72 0 121 14t73.5 42.5t24.5 70.5q0 53 -36 82t-105 29q-55 0 -102.5 -16t-87.5 -48l-41 64q31 23 68.5 40t82.5 26.5t96 9.5q68 0 116 -21t73.5 -60.5t25.5 -93.5z" />
    <glyph glyph-name="uni0546" unicode="&#x546;" horiz-adv-x="628" 
d="M319 -10q-81 0 -136 31t-83 87.5t-28 133.5h90q0 -53 17.5 -93t52.5 -61.5t87 -21.5t84.5 18.5t48.5 54.5t16 88v191h90v-197q0 -74 -28.5 -126t-82 -78.5t-128.5 -26.5zM277 631l9 -14l-59 -40h-53q-61 0 -94 32t-33 105v46h90v-46q0 -32 8.5 -50t25.5 -25.5t42 -7.5h64
zM162 242h-90q0 78 19 148.5t48.5 128.5t60.5 98h86q-23 -30 -45 -73t-40 -93t-28.5 -103.5t-10.5 -105.5z" />
    <glyph glyph-name="uni0547" unicode="&#x547;" horiz-adv-x="654" 
d="M400 605q-51 -30 -95 -69.5t-77 -85t-51 -94.5t-18 -99q0 -57 20.5 -100t58.5 -67t90 -24q59 0 95 22t52.5 62t16.5 94v52h91v-57q0 -75 -29 -131t-86 -87t-140 -31q-81 0 -139 33.5t-89 93.5t-31 140q0 52 18.5 105.5t51.5 103t75.5 91t90.5 69.5zM84 724l502 -96
l-11 -76l-502 97z" />
    <glyph glyph-name="uni0548" unicode="&#x548;" horiz-adv-x="725" 
d="M90 0v462q0 82 32.5 140.5t94 90t148.5 31.5t147 -31.5t91.5 -90.5t31.5 -142v-460h-90v448q0 104 -47 152t-136 48q-58 0 -98.5 -21t-62 -64t-21.5 -109v-454h-90z" />
    <glyph glyph-name="uni0549" unicode="&#x549;" horiz-adv-x="634" 
d="M315 95l-67 43q77 56 130 109.5t80 107.5t27 110q0 54 -19.5 96t-56.5 65.5t-90 23.5q-59 0 -96 -21.5t-54 -59t-17 -87.5v-12h-90v17q0 72 29.5 126t87 83.5t140.5 29.5q82 0 139 -32.5t87 -90.5t30 -135q0 -66 -32 -132t-90 -127t-138 -114zM536 -1q-89 3 -174.5 33.5
t-164 82t-147.5 116.5l52 60q44 -42 95 -80t107 -67t114.5 -47t117.5 -20v-78z" />
    <glyph glyph-name="uni054A" unicode="&#x54a;" horiz-adv-x="793" 
d="M82 330v132q0 82 37 140.5t107 90t170 31.5q99 0 167.5 -31.5t104 -90.5t35.5 -142v-460h-90v447q0 105 -57 153t-163 48q-72 0 -121 -21t-74.5 -64.5t-25.5 -109.5v-123h-90zM347 167v510h91v-510h-91z" />
    <glyph glyph-name="uni054B" unicode="&#x54b;" horiz-adv-x="642" 
d="M510 0v36q0 33 -15 45.5t-48 12.5h-303v-94h-77v221h77v-51h339q54 0 83 -25.5t29 -86.5v-58h-85zM318 218q78 53 122.5 118.5t44.5 147.5q0 84 -41.5 125t-120.5 41t-123.5 -40t-44.5 -115q0 -46 20 -81.5t60 -68.5q37 -30 58 -58.5t25 -68.5zM196 170q5 0 15.5 2
t21.5 5t16 6q-1 20 -7.5 38t-22.5 37.5t-46 41.5q-60 44 -84.5 89.5t-24.5 107.5q0 70 32 121t90 78.5t137 27.5q77 0 133.5 -26.5t87.5 -79t31 -130.5q0 -60 -21 -113t-68.5 -103t-125.5 -102h-164z" />
    <glyph glyph-name="uni054C" unicode="&#x54c;" horiz-adv-x="805" 
d="M90 0v462q0 82 31.5 140.5t91.5 90t147 31.5t146 -31.5t89 -90.5t30 -142v-460h-90v447q0 105 -44.5 153t-133.5 48q-58 0 -97.5 -21t-59.5 -64.5t-20 -109.5v-453h-90zM610 341h163v-76h-163v76z" />
    <glyph glyph-name="uni054D" unicode="&#x54d;" horiz-adv-x="725" 
d="M635 714v-462q0 -81 -32.5 -140t-94 -90.5t-148.5 -31.5q-86 0 -146.5 31.5t-92 90.5t-31.5 142v460h90v-448q0 -104 47.5 -152t135.5 -48q58 0 98.5 21t62 64.5t21.5 108.5v454h90z" />
    <glyph glyph-name="uni054E" unicode="&#x54e;" horiz-adv-x="787" 
d="M592 0h-90v145q0 16 0.5 35.5t2 41t2.5 42.5h-5v450h90v-714zM536 528v-127q0 -57 -16 -102t-47.5 -77.5t-76.5 -49.5t-103 -17q-75 0 -125.5 27.5t-76.5 83.5t-26 140v74h90v-56q0 -64 16.5 -107t52.5 -64t94 -21q66 0 106.5 26t59 76.5t18.5 122.5v71h34zM572 76h183
v-76h-183v76z" />
    <glyph glyph-name="uni054F" unicode="&#x54f;" horiz-adv-x="571" 
d="M519 189q0 -64 -32 -108.5t-89 -67.5t-133 -23q-66 0 -118 12t-96 29v84q55 -25 108.5 -37t104.5 -12q52 0 89 13.5t57 40t20 66.5q0 36 -16.5 59.5t-53.5 43t-100 40.5q-49 17 -87 33.5t-63 38.5t-38 53.5t-13 77.5q0 62 31 105t86 65t127 22q50 0 99 -10.5t101 -33.5
l-24 -73q-52 23 -96 32t-84 9q-46 0 -80 -12.5t-52.5 -37t-18.5 -62.5q0 -37 16.5 -60.5t51.5 -40.5t90 -35q70 -22 117 -49t71.5 -65.5t24.5 -96.5z" />
    <glyph glyph-name="uni0550" unicode="&#x550;" horiz-adv-x="673" 
d="M90 0v462q0 82 30.5 140.5t89.5 90t144 31.5q87 0 144.5 -32t86 -94t28.5 -153h-90q0 105 -42 154t-130 49q-56 0 -94 -21t-57.5 -64.5t-19.5 -109.5v-453h-90z" />
    <glyph glyph-name="uni0551" unicode="&#x551;" horiz-adv-x="668" 
d="M368 405l-72 -50q-85 18 -137 45t-75.5 64.5t-23.5 85.5q0 55 32.5 93.5t90.5 59.5t133 21q121 0 188.5 -46t67.5 -128q0 -40 -18.5 -71t-52.5 -53.5t-80 -36.5v-3q58 -10 99 -36t63.5 -64t22.5 -85q0 -65 -35 -112.5t-101 -73t-159 -25.5q-43 0 -84 6t-77 16.5t-65 23.5
v81q53 -25 111 -38t113 -13q68 0 113.5 16t69 46.5t23.5 73.5q0 33 -16 57.5t-45 41.5t-69 27.5t-87 16.5l-205 -49l-22 70l267 58q44 10 76.5 26t50 39.5t17.5 55.5q0 50 -45.5 77.5t-120.5 27.5q-74 0 -120 -27.5t-46 -77.5q0 -36 21 -61t68.5 -43.5t128.5 -35.5z" />
    <glyph glyph-name="uni0552" unicode="&#x552;" horiz-adv-x="598" 
d="M96 0v714h90v-177h43q39 0 65 -6t45.5 -21t38 -43t40.5 -72q26 -50 42 -74t30.5 -31t35.5 -7h27v-76h-37q-35 0 -62 11t-49 38t-45 73q-21 44 -36.5 70.5t-29.5 39.5t-31 17.5t-42 4.5h-35v-461h-90z" />
    <glyph glyph-name="uni0553" unicode="&#x553;" horiz-adv-x="800" 
d="M442 721v-85q77 -1 135 -19.5t96.5 -52t58 -81.5t19.5 -109q0 -58 -19 -107t-57 -86t-96.5 -58t-136.5 -23v-107h-83v107q-63 1 -113 15t-87 38t-61 57.5t-36 74t-12 86.5q0 59 18.5 106.5t56.5 82.5t96.5 54.5t137.5 21.5v85h83zM359 564q-75 -2 -124.5 -25t-74 -65
t-24.5 -103q0 -64 25.5 -108t75.5 -66.5t122 -24.5v392zM441 564v-392q72 2 122 25t75.5 67.5t25.5 109.5q0 62 -24 103t-73 63t-126 24z" />
    <glyph glyph-name="uni0554" unicode="&#x554;" horiz-adv-x="617" 
d="M100 0v417q0 78 16 135.5t46.5 96t74.5 57t101 18.5q67 0 116.5 -24.5t76.5 -68.5t27 -104q0 -95 -66.5 -146.5t-195.5 -51.5h-106v-329h-90zM190 405h103q82 0 128 30.5t46 91.5q0 36 -15 63.5t-44 42.5t-71 15q-50 0 -83 -23.5t-48.5 -77t-15.5 -142.5zM12 247h548v-76
h-548v76z" />
    <glyph glyph-name="uni0555" unicode="&#x555;" horiz-adv-x="776" 
d="M715 358q0 -82 -20 -149.5t-60.5 -116.5t-102 -75.5t-144.5 -26.5t-144.5 26.5t-102 75.5t-60.5 117t-20 150q0 109 36.5 191.5t110 128.5t183.5 46q108 0 180 -44.5t108 -126.5t36 -196zM156 358q0 -87 25 -153t76.5 -102.5t131.5 -36.5q81 0 132 36.5t75.5 102
t24.5 153.5q0 138 -57 214.5t-172 76.5q-81 0 -133.5 -36.5t-77.5 -102t-25 -152.5z" />
    <glyph glyph-name="uni0556" unicode="&#x556;" horiz-adv-x="699" 
d="M335 -10q-83 0 -151.5 12t-131.5 37v82q62 -25 122.5 -39t116.5 -16v287q-81 11 -130 35t-71 62t-22 91q0 78 55.5 125.5t151.5 47.5h106v-296q98 -11 156 -36.5t83.5 -66.5t25.5 -100q0 -73 -35 -123.5t-104.5 -76t-171.5 -25.5zM381 66q59 1 98 20t58.5 52.5t19.5 75.5
q0 43 -21.5 69t-61 40t-93.5 21v-278zM291 427v211h-22q-58 0 -85 -27t-27 -71q0 -49 32 -76t102 -37z" />
    <glyph glyph-name="uni0559" unicode="&#x559;" horiz-adv-x="211" 
d="M166 438q-70 0 -107.5 41t-37.5 104q0 65 32 107t87 70l34 -45q-37 -25 -55.5 -52t-18.5 -68q0 -37 18 -58.5t48 -21.5v-77z" />
    <glyph glyph-name="uni055A" unicode="&#x55a;" horiz-adv-x="211" 
d="M45 760q71 0 108 -41t37 -104q0 -64 -31.5 -106t-87.5 -71l-34 46q38 24 56 51.5t18 68.5q0 36 -18 57.5t-48 21.5v77z" />
    <glyph glyph-name="uni055B" unicode="&#x55b;" horiz-adv-x="211" 
d="M161 814l8 -12q-6 -27 -13 -54t-16.5 -54l-19.5 -54t-22 -54h-64q14 45 24.5 87t17.5 78t10 63h75z" />
    <glyph glyph-name="uni055C" unicode="&#x55c;" horiz-adv-x="291" 
d="M43 603q0 28 5.5 47.5t20 36t42.5 33.5q24 15 37.5 26.5t19 24t5.5 30.5v13h76q0 -37 -6 -58.5t-21.5 -36.5t-45.5 -33q-35 -21 -45.5 -36.5t-10.5 -34.5v-12h-77z" />
    <glyph glyph-name="uni055D" unicode="&#x55d;" horiz-adv-x="211" 
d="M50 814h74q6 -48 18.5 -102t34.5 -126h-64q-13 29 -23.5 56.5t-19 54t-15.5 52.5t-13 53z" />
    <glyph glyph-name="uni055E" unicode="&#x55e;" horiz-adv-x="442" 
d="M61 634q3 56 28.5 99.5t69 68t99.5 24.5q59 0 92.5 -26t33.5 -71q0 -46 -35.5 -71.5t-106.5 -26.5v59q37 1 55 10t18 26q0 18 -16.5 27t-44.5 9q-52 0 -84.5 -30.5t-36.5 -97.5h-72z" />
    <glyph glyph-name="uni055F" unicode="&#x55f;" horiz-adv-x="415" 
d="M176 607q-64 0 -96 28t-32 83q0 34 16.5 59t45 38.5t65.5 13.5q19 0 38 -3.5t39 -10.5l-19 -61q-16 6 -29 8.5t-22 2.5q-30 0 -46 -11.5t-16 -32.5q0 -27 16.5 -38.5t48.5 -11.5h204v-64h-213z" />
    <glyph glyph-name="uni0560" unicode="&#x560;" horiz-adv-x="920" 
d="M664 501q80 0 126.5 -45t46.5 -135v-321h-89v304q0 63 -29.5 93.5t-75.5 30.5q-62 0 -99.5 -43t-37.5 -134v-251h-89v304q0 42 -13.5 69.5t-37 41t-54.5 13.5q-39 0 -70 -19t-48.5 -58t-17.5 -100v-251h-89v492h69l12 -80h5q12 24 33 44t52.5 32.5t74.5 12.5q55 0 96 -23
t59 -69h5q20 40 65.5 66t105.5 26z" />
    <glyph glyph-name="uni0561" unicode="&#x561;" horiz-adv-x="920" 
d="M255 -9q-79 0 -126 45t-47 135v321h89v-304q0 -63 29.5 -93.5t75.5 -30.5q62 0 99.5 43t37.5 134v251h89v-304q0 -42 13.5 -69.5t37.5 -41t54 -13.5q40 0 70.5 19t48 58.5t17.5 99.5v251h89v-492h-69l-12 80h-5q-12 -24 -33 -44t-52 -32.5t-75 -12.5q-55 0 -96 23t-59 69
h-5q-19 -40 -65 -66t-106 -26z" />
    <glyph glyph-name="uni0562" unicode="&#x562;" 
d="M87 -236v728h70l11 -87h5q13 27 35.5 49t54.5 35t74 13q55 0 94.5 -21t61 -62.5t21.5 -104.5v-124h-89v107q0 68 -29.5 100t-79.5 32q-42 0 -73.5 -20.5t-49 -62.5t-17.5 -105v-477h-89zM126 70h405v-70h-405v70z" />
    <glyph glyph-name="uni0563" unicode="&#x563;" horiz-adv-x="639" 
d="M421 -236v222q0 22 1.5 49t3.5 54h-6q-19 -46 -60 -72.5t-103 -26.5q-63 0 -108 30.5t-68.5 87.5t-23.5 137q0 77 23.5 134.5t70 90t115.5 32.5q56 0 96 -25.5t62 -67.5h4l11 83h71v-422h124v-70h-124v-236h-89zM278 63q71 0 107 44.5t36 137.5v9q0 83 -33.5 129
t-102.5 46q-43 0 -74 -21t-47 -62t-16 -102q0 -90 33 -135.5t97 -45.5z" />
    <glyph glyph-name="uni0564" unicode="&#x564;" horiz-adv-x="641" 
d="M425 -236v533q0 68 -29.5 100t-79.5 32q-66 0 -103 -46.5t-37 -141.5v-241h-89v492h70l11 -87h5q13 27 34.5 49t53.5 35t76 13q55 0 94.5 -21t61 -62.5t21.5 -104.5v-244h121v-70h-121v-236h-89z" />
    <glyph glyph-name="uni0565" unicode="&#x565;" 
d="M509 317v-317h-70l-11 87h-5q-13 -27 -35.5 -49t-54.5 -35t-74 -13q-54 0 -94 21t-61.5 63t-21.5 104v582h89v-565q0 -67 30 -99.5t79 -32.5q42 0 73.5 21t49 63t17.5 105v65h89zM126 492h403v-70h-403v70z" />
    <glyph glyph-name="uni0566" unicode="&#x566;" horiz-adv-x="600" 
d="M421 -236v222q0 22 1.5 49t3.5 54h-6q-19 -46 -60 -72.5t-103 -26.5q-63 0 -108 30.5t-68.5 87.5t-23.5 137q0 77 23.5 134.5t70 90t115.5 32.5q56 0 96 -25.5t62 -67.5h4l11 83h71v-658h128v-70h-217zM278 63q71 0 107 44.5t36 137.5v9q0 83 -33.5 129t-102.5 46
q-43 0 -74 -21t-47 -62t-16 -102q0 -90 33 -135.5t97 -45.5z" />
    <glyph glyph-name="uni0567" unicode="&#x567;" horiz-adv-x="474" 
d="M87 0v760h89v-760h-89zM128 492h298v-70h-298v70zM87 0v70h217q46 0 75 -13t42.5 -41.5t13.5 -75.5v-27h-89v13q0 40 -14 57t-49 17h-196z" />
    <glyph glyph-name="uni0568" unicode="&#x568;" 
d="M87 -236v728h70l11 -87h5q13 27 35.5 49t54.5 35t74 13q55 0 94.5 -21t61 -62.5t21.5 -104.5v-314h-89v297q0 68 -29.5 100t-79.5 32q-42 0 -73.5 -20.5t-49 -62.5t-17.5 -105v-477h-89zM126 -166h405v-70h-405v70z" />
    <glyph glyph-name="uni0569" unicode="&#x569;" horiz-adv-x="668" 
d="M87 -236v728h70l11 -87h5q15 28 40.5 49.5t61.5 34.5t80 13l-10 -73q-73 0 -121 -42.5t-48 -130.5v-492h-89zM649 173q-30 12 -67 21t-75.5 13.5t-73.5 4.5q-44 0 -69.5 -20t-25.5 -61q0 -37 18 -53t54 -16q35 0 54.5 19.5t27 59t7.5 99.5q0 69 -19 110.5t-53.5 60
t-81.5 18.5l10 73q73 0 125.5 -29.5t80.5 -87.5t28 -145q0 -83 -20 -139t-60 -83.5t-100 -27.5q-48 0 -83 17.5t-53.5 50t-18.5 76.5q0 49 23 81.5t63 49.5t92 17q39 0 80.5 -4.5t82 -14.5t75.5 -25z" />
    <glyph glyph-name="uni056A" unicode="&#x56a;" horiz-adv-x="609" 
d="M306 429q-80 0 -118 -47.5t-38 -139.5q0 -85 32 -133t101 -48q70 0 100 49.5t30 135.5v514h89v-517q0 -79 -23.5 -136t-71.5 -88t-124 -31q-75 0 -125 30.5t-74.5 87t-24.5 135.5q0 83 28 141t83 89t136 31q52 0 103 -7.5t101.5 -21.5t101.5 -36l-20 -69
q-64 26 -139 43.5t-147 17.5z" />
    <glyph glyph-name="uni056B" unicode="&#x56b;" 
d="M176 760v-268q0 -22 -1.5 -43t-3.5 -44h5q13 27 34 49t52.5 35t74.5 13q56 0 95.5 -21t60.5 -62.5t21 -104.5v-314h-89v297q0 68 -28.5 100t-80.5 32q-64 0 -102 -46.5t-38 -141.5v-477h-89v996h89z" />
    <glyph glyph-name="uni056C" unicode="&#x56c;" horiz-adv-x="265" 
d="M87 -236v729h89v-659h104v-70h-193z" />
    <glyph glyph-name="uni056D" unicode="&#x56d;" horiz-adv-x="920" 
d="M742 492h90v-492h-70l-12 87h-5q-13 -27 -34.5 -49t-52.5 -35t-73 -13q-53 0 -92.5 21t-60.5 63t-21 104v119q0 68 -28 100t-77 32q-62 0 -96 -46.5t-34 -141.5v-477h-89v996h89v-268q0 -22 -1.5 -43t-3.5 -44h5q12 27 31.5 49t49.5 35t71 13q55 0 93 -21t58.5 -62.5
t20.5 -104.5v-119q0 -67 29 -99.5t77 -32.5q63 0 99.5 47.5t36.5 141.5v240z" />
    <glyph glyph-name="uni056E" unicode="&#x56e;" horiz-adv-x="589" 
d="M331 427q-62 0 -102.5 -25t-59.5 -68.5t-19 -99.5q0 -50 15 -89.5t45.5 -61.5t78.5 -22q41 0 72.5 18t49.5 57.5t18 103.5q0 52 -15.5 103t-45 103t-73 104t-99.5 105l66 51q59 -58 106.5 -115.5t81.5 -115t52 -114.5t18 -115q0 -86 -30 -143.5t-82 -86t-119 -28.5
q-72 0 -123.5 32t-79 88.5t-27.5 129.5q0 71 28.5 130t87.5 94t151 35h247v-70h-242zM196 655l135 115l47 -59l-120 -103z" />
    <glyph glyph-name="uni056F" unicode="&#x56f;" 
d="M509 -236h-89v237q0 23 1.5 43.5t4.5 42.5h-6q-12 -27 -34 -49t-53.5 -35t-73.5 -13q-54 0 -94 21t-61.5 63t-21.5 104v582h89v-565q0 -67 30 -99.5t79 -32.5q42 0 73.5 21t49 63t17.5 105v239h89v-727z" />
    <glyph glyph-name="uni0570" unicode="&#x570;" horiz-adv-x="562" 
d="M399 0v150q0 70 -29.5 104t-87.5 34q-47 0 -82.5 -23t-53.5 -76l-84 15v73q0 120 22 212t61 154.5t90.5 94.5t109.5 32q50 0 87 -15t69 -46l-53 -58q-22 23 -47 34.5t-56 11.5q-38 0 -73 -26.5t-62 -78t-43 -127.5t-16 -175l4 -1q22 31 59 51.5t93 20.5q57 0 97.5 -22.5
t62 -66t21.5 -106.5v-166h-89z" />
    <glyph glyph-name="uni0571" unicode="&#x571;" horiz-adv-x="599" 
d="M181 760q0 -20 5.5 -33t21.5 -22t46.5 -15t79.5 -12q54 -6 89 -14.5t54.5 -19.5t27.5 -25t8 -32q0 -17 -6 -33t-25 -35.5t-57 -46t-102 -64.5q-67 -40 -107.5 -78t-58.5 -75.5t-18 -77.5q0 -56 28.5 -85t89.5 -29q45 0 91.5 18t75.5 49v-70h-3q-28 -28 -75.5 -49
t-109.5 -21q-60 0 -101.5 21t-63.5 63t-22 103q0 53 20 98t68.5 90.5t133.5 97.5q61 37 91 58t40 32.5t10 19.5t-9.5 14.5t-37 12.5t-81.5 13q-60 8 -95.5 17t-54 24.5t-24.5 40.5t-6 65h77zM321 479l85 23l117 -479l-86 -23zM438 0l66 70h75v-70h-141z" />
    <glyph glyph-name="uni0572" unicode="&#x572;" horiz-adv-x="599" 
d="M425 -236v533q0 68 -30 100t-81 32q-65 0 -101.5 -46.5t-36.5 -141.5v-241h-89v492h70l11 -87h5q13 27 34 49t52.5 35t75.5 13q56 0 96 -21t61.5 -62.5t21.5 -104.5v-480h126v-70h-215z" />
    <glyph glyph-name="uni0573" unicode="&#x573;" horiz-adv-x="576" 
d="M510 195v-195h-70l-12 77h-5q-21 -37 -60 -62t-98 -25q-61 0 -103 27t-63.5 81.5t-21.5 138.5q0 126 25.5 225t69 168t98 104.5t112.5 35.5q46 0 81 -13t65 -39l-50 -60q-21 20 -44 29.5t-52 9.5q-42 0 -81 -35.5t-69.5 -98t-48 -145.5t-17.5 -179q0 -63 13.5 -102
t40 -56.5t65.5 -17.5q41 0 71.5 15t47.5 46.5t17 81.5q0 46 -9 81.5t-32.5 61.5t-67.5 43.5t-113 27t-169 12.5v70q117 -3 200 -15t137.5 -35.5t86 -58.5t44 -84t12.5 -114z" />
    <glyph glyph-name="uni0574" unicode="&#x574;" horiz-adv-x="602" 
d="M509 389v-389h-70l-11 87h-5q-13 -27 -35.5 -49t-54.5 -35t-74 -13q-54 0 -94 21t-61.5 63t-21.5 104v314h89v-297q0 -67 30 -99.5t79 -32.5q42 0 73.5 20.5t49 62.5t17.5 106v135q0 32 -13.5 64.5t-47.5 68.5q-25 27 -40 48.5t-22 40t-7 35.5q0 36 15.5 64.5t47.5 45
t82 16.5q41 0 71 -16t46 -47.5t16 -76.5h-85q0 30 -11.5 48.5t-41.5 18.5q-25 0 -38 -13t-13 -33q0 -15 6 -28.5t19.5 -30t37.5 -42.5q25 -26 39.5 -51t21 -51.5t6.5 -58.5z" />
    <glyph glyph-name="uni0575" unicode="&#x575;" horiz-adv-x="265" 
d="M87 140v352h89v-352h-89zM87 140h89q0 -1 2 -24t6.5 -51.5t12.5 -48.5q11 -27 16 -54t5 -51q0 -67 -40.5 -109.5t-108.5 -42.5h-26v70h12q32 0 53 21.5t21 55.5q0 24 -5.5 49t-16.5 54q-10 27 -15 58.5t-5 72.5z" />
    <glyph glyph-name="uni0576" unicode="&#x576;" horiz-adv-x="599" 
d="M196 520l81 30v-22q-34 -52 -57.5 -96t-38 -82.5t-21.5 -74t-7 -71.5q0 -52 15 -83t43.5 -44.5t68.5 -13.5q42 0 74 21t50 63t18 105v240h89v-492h-70l-11 87h-6q-12 -27 -34.5 -49t-54.5 -35t-74 -13q-94 0 -146.5 54t-52.5 154q0 34 6.5 68.5t22 72.5t41 82.5
t64.5 98.5zM277 550l-81 -41l-59 34q-34 20 -52 45.5t-18 51.5q0 16 5 32.5t14 32.5l31 58l69 -34l-22 -37q-7 -11 -10 -21.5t-3 -19.5q0 -17 11 -31.5t32 -25.5z" />
    <glyph glyph-name="uni0577" unicode="&#x577;" horiz-adv-x="414" 
d="M380 -236h-290q-38 0 -53 14t-15 41q0 12 4 24.5t13 28t25 35.5l142 182q27 34 46.5 66.5t30 68t10.5 76.5q0 64 -29.5 96.5t-84.5 32.5q-37 0 -71.5 -8t-70.5 -27l-22 68q38 20 79.5 30t94.5 10q62 0 105.5 -24t66.5 -67.5t23 -103.5q0 -50 -14 -93.5t-39 -83.5t-57 -80
l-115 -144q-14 -17 -20.5 -29.5t-6.5 -22.5t5.5 -15t21.5 -5h221v-70z" />
    <glyph glyph-name="uni0578" unicode="&#x578;" 
d="M87 0v492h70l11 -87h5q13 27 35.5 49t54.5 35t74 13q55 0 94.5 -21t61 -62.5t21.5 -104.5v-314h-89v297q0 68 -29.5 100t-79.5 32q-42 0 -73.5 -20.5t-49 -62.5t-17.5 -105v-241h-89z" />
    <glyph glyph-name="uni0579" unicode="&#x579;" horiz-adv-x="344" 
d="M-24 -181q0 12 4 25.5t12 30.5t20 39l226 410l74 -36l-206 -372q-11 -20 -18 -36t-7 -26t7 -15t23 -5h200v-70h-266q-38 0 -53.5 14t-15.5 41zM312 288l-98 -40l-90 55q-36 23 -51 49.5t-15 55.5q0 20 6.5 42.5t18.5 41.5h87q-10 -15 -16 -35.5t-6 -38.5q0 -21 14.5 -37
t36.5 -29z" />
    <glyph glyph-name="uni057A" unicode="&#x57a;" horiz-adv-x="920" 
d="M743 -236v225q0 23 1.5 44t3.5 44h-5q-12 -23 -32 -42.5t-50.5 -31.5t-74.5 -12q-55 0 -95.5 23t-60.5 69h-5q-20 -43 -65.5 -67.5t-104.5 -24.5q-79 0 -126 45t-47 135v321h89v-304q0 -63 29.5 -93.5t75.5 -30.5q62 0 99.5 43t37.5 134v251h89v-304q0 -42 13.5 -69.5
t37.5 -41t54 -13.5q40 0 70.5 19t48 58.5t17.5 99.5v251h89v-728h-89z" />
    <glyph glyph-name="uni057B" unicode="&#x57b;" horiz-adv-x="517" 
d="M211 -166h268v-70h-327q-38 0 -58.5 15t-20.5 47q0 9 3 20.5t12 26.5t27 34l159 172q42 45 69 81.5t40 68.5t13 65q0 68 -34 101.5t-94 33.5q-59 0 -93.5 -35t-34.5 -100q0 -46 15 -72.5t53 -50.5q24 -15 41 -30.5t28.5 -32t17.5 -35.5l-50 -48q-6 16 -17 32t-31 33.5
t-54 36.5q-47 28 -69.5 67.5t-22.5 100.5q0 62 25.5 108.5t74.5 72.5t117 26q106 0 162.5 -54t56.5 -152q0 -43 -19 -85t-56 -89.5t-92 -105.5l-109 -115q-15 -16 -21 -26.5t-6 -20.5t5.5 -15t21.5 -5z" />
    <glyph glyph-name="uni057C" unicode="&#x57c;" horiz-adv-x="619" 
d="M454 70h144v-70h-241v58q27 36 44 65.5t27 56t13.5 54t3.5 59.5q0 68 -33.5 102t-93.5 34q-42 0 -74 -20.5t-50 -62.5t-18 -105v-241h-89v492h70l11 -87h5q13 27 35.5 49t54.5 35t74 13q63 0 107.5 -23t68 -66t23.5 -105q0 -46 -8 -84.5t-26 -75t-48 -78.5z" />
    <glyph glyph-name="uni057D" unicode="&#x57d;" 
d="M509 492v-492h-70l-11 87h-5q-13 -27 -35.5 -49t-54.5 -35t-74 -13q-54 0 -94 21t-61.5 63t-21.5 104v314h89v-297q0 -67 30 -99.5t79 -32.5q42 0 73.5 21t49 63t17.5 105v240h89z" />
    <glyph glyph-name="uni057E" unicode="&#x57e;" horiz-adv-x="598" 
d="M509 -166h104v-70h-193v237q0 23 1.5 43.5t4.5 42.5h-6q-12 -27 -34 -49t-53.5 -35t-73.5 -13q-54 0 -94 21t-61.5 63t-21.5 104v314h89v-297q0 -67 30 -99.5t79 -32.5q42 0 73.5 21t49 63t17.5 105v508h89v-926z" />
    <glyph glyph-name="uni057F" unicode="&#x57f;" horiz-adv-x="931" 
d="M670 502q55 0 95 -21t61.5 -62.5t21.5 -104.5v-314h-89v297q0 68 -30 100t-80 32q-42 0 -73.5 -20.5t-49 -62.5t-17.5 -105v-241h-70l-11 87h-5q-13 -27 -35.5 -49t-54.5 -35t-74 -13q-54 0 -94 21t-61.5 63t-21.5 104v314h89v-297q0 -67 30 -99.5t79 -32.5q42 0 73.5 21
t49 63t17.5 105v240h71l11 -87h5q13 27 35 49t54 35t74 13z" />
    <glyph glyph-name="uni0580" unicode="&#x580;" 
d="M87 -236v728h70l11 -87h5q13 27 35.5 49t54.5 35t74 13q55 0 94.5 -21t61 -62.5t21.5 -104.5v-314h-89v297q0 68 -29.5 100t-79.5 32q-42 0 -73.5 -20.5t-49 -62.5t-17.5 -105v-477h-89z" />
    <glyph glyph-name="uni0581" unicode="&#x581;" horiz-adv-x="599" 
d="M266 -245q-52 0 -90 9t-77 24v77q36 -16 76 -26.5t93 -10.5q58 0 91.5 16.5t48 46.5t14.5 70v31q0 25 1 47t4 51h-6q-20 -49 -62.5 -74t-99.5 -25q-61 0 -106 28t-69.5 84t-24.5 139q0 84 24.5 142t71 88t112.5 30q56 0 95 -23.5t62 -63.5h5l12 77h70v-510
q0 -72 -23.5 -122.5t-77 -77.5t-144.5 -27zM280 64q40 0 67 14t43.5 39t24 58.5t7.5 71.5v7q0 53 -13.5 92.5t-43 61t-79.5 21.5q-45 0 -75 -20.5t-45.5 -62.5t-15.5 -105q0 -93 34 -135t96 -42z" />
    <glyph glyph-name="uni0582" unicode="&#x582;" horiz-adv-x="321" 
d="M87 0v492h89v-422h131v-70h-220z" />
    <glyph glyph-name="uni0583" unicode="&#x583;" horiz-adv-x="931" 
d="M670 502q55 0 95 -21t61.5 -62.5t21.5 -104.5v-314h-89v297q0 68 -30 100t-80 32q-42 0 -73.5 -20.5t-49 -62.5t-17.5 -105v-477h-89v237q0 21 2 42.5t5 43.5h-7q-13 -25 -34.5 -47.5t-53 -36t-73.5 -13.5q-54 0 -94 21t-61.5 63t-21.5 104v314h89v-297q0 -67 30 -99.5
t79 -32.5q42 0 73.5 21t49 63t17.5 105v508h89v-252q0 -25 -1 -51t-4 -52h6q13 27 34.5 49t52.5 35t73 13z" />
    <glyph glyph-name="uni0584" unicode="&#x584;" 
d="M87 -236v103h-70v70h70v555h71l10 -92h4q22 45 62.5 73.5t101.5 28.5q97 0 149 -67.5t52 -186.5q0 -77 -24 -135t-69.5 -90t-110.5 -32q-59 0 -97.5 25t-58.5 68h-6q3 -31 4 -56t1 -51v-40h333v-70h-333v-103h-89zM310 64q66 0 101 47.5t35 136.5q0 58 -15 98.5t-44 61.5
t-71 21q-70 0 -105 -48t-35 -132v-5q0 -65 16 -105t46 -57.5t72 -17.5z" />
    <glyph glyph-name="uni0585" unicode="&#x585;" horiz-adv-x="584" 
d="M293 -9q-73 0 -125.5 32.5t-80.5 90.5t-28 132q0 77 29 134.5t82 89.5t125 32q75 0 126 -33.5t77.5 -91t26.5 -131.5t-27 -132t-78.5 -90.5t-126.5 -32.5zM292 64q49 0 80.5 23t46.5 64t15 96q0 54 -14.5 95t-45 64t-80.5 23q-70 0 -107 -47.5t-37 -134.5q0 -83 35 -133
t107 -50z" />
    <glyph glyph-name="uni0586" unicode="&#x586;" horiz-adv-x="640" 
d="M360 405q82 -19 131 -48.5t71.5 -71.5t22.5 -99q0 -55 -28 -98t-78.5 -68.5t-118.5 -28.5v-227h-86v227q-42 2 -82 8.5t-75.5 16.5t-66.5 22v78q38 -15 76 -27.5t75.5 -19.5t72.5 -8v284q-75 20 -121.5 47t-67.5 64t-21 84q0 51 28.5 90t82.5 61.5t129 22.5h56v-309z
M153 540q0 -40 29 -73.5t91 -49.5v227q-52 0 -86 -29t-34 -75zM360 61q44 1 74 17.5t46 45t16 62.5q0 55 -34 93t-102 54v-272z" />
    <glyph glyph-name="uni0587" unicode="&#x587;" horiz-adv-x="630" 
d="M262 -10q-57 0 -97 21.5t-61.5 63.5t-21.5 103v582h89v-564q0 -67 30 -100t82 -33q65 0 101 47.5t36 141.5v240h89v-422h116v-70h-192l-11 87h-2q-12 -27 -33 -49t-51.5 -35t-73.5 -13z" />
    <glyph glyph-name="uni0588" unicode="&#x588;" horiz-adv-x="280" 
d="M96 140v352h89v-352h-89zM96 140h89q0 -1 2 -24t6.5 -51.5t12.5 -48.5q11 -27 16 -54t5 -51q0 -67 -40.5 -109.5t-108.5 -42.5h-26v70h12q32 0 53 21.5t21 55.5q0 24 -5.5 49t-16.5 54q-7 18 -11.5 38t-6.5 43t-2 50zM6 157h269v-70h-269v70z" />
    <glyph glyph-name="uni0589" unicode="&#x589;" horiz-adv-x="254" 
d="M71 47q0 29 15.5 43.5t40.5 14.5q26 0 41.5 -14.5t15.5 -43.5q0 -28 -15.5 -43t-41.5 -15q-25 0 -40.5 15t-15.5 43zM71 442q0 29 15.5 43t40.5 14q18 0 30.5 -6t19.5 -18.5t7 -32.5q0 -29 -15.5 -43.5t-41.5 -14.5q-25 0 -40.5 14.5t-15.5 43.5z" />
    <glyph glyph-name="uni058A" unicode="&#x58a;" horiz-adv-x="441" 
d="M212 199q-55 0 -89.5 15t-50.5 45.5t-16 78.5h72q0 -21 9 -36t31.5 -22.5t61.5 -7.5q34 0 73 4.5t83 14.5v-63q-24 -9 -53 -15.5t-59.5 -10t-61.5 -3.5z" />
    <glyph glyph-name="uni058D" unicode="&#x58d;" horiz-adv-x="817" 
d="M409 -10q-37 0 -72 14t-62 39q-50 3 -91 27.5t-66 65t-27 90.5q-24 26 -38 60t-14 71q0 36 13.5 69.5t38.5 60.5q2 49 26 89.5t65 66.5t94 29q26 24 60.5 38t72.5 14t72.5 -14t60.5 -39q50 -2 91 -26.5t66 -65t27 -91.5q24 -26 38 -59.5t14 -71.5q0 -37 -13.5 -70
t-38.5 -60q-1 -49 -25.5 -90t-65.5 -66t-93 -29q-27 -24 -61 -38t-72 -14zM578 89q44 14 74 53.5t30 90.5q0 42 -20.5 77.5t-55 56.5t-77.5 21q-19 0 -37 -4.5t-34 -13.5q42 -11 75 -38t52 -65t19 -83q0 -25 -6.5 -49.5t-19.5 -45.5zM408 29q42 0 76 21t54 56t20 78
q0 50 -29 90t-75 55q14 -22 20.5 -46t6.5 -49q0 -43 -18.5 -81.5t-51 -65.5t-75.5 -38q16 -10 34.5 -15t37.5 -5zM717 290q8 15 12 32t4 35q0 42 -20.5 77t-54.5 55.5t-77 20.5q-51 0 -90 -30.5t-53 -77.5q43 25 94 25q43 0 80.5 -17t65 -48t39.5 -72zM284 81q42 0 77 20.5
t55.5 56t20.5 79.5q0 17 -4 33.5t-12 30.5q-12 -39 -39 -70.5t-64.5 -49.5t-81.5 -18q-25 0 -49 6.5t-44 18.5q14 -46 52.5 -76.5t88.5 -30.5zM396 413q12 40 39 71t65 49t81 18q26 0 49.5 -6.5t43.5 -18.5q-13 48 -52.5 77.5t-88.5 29.5q-42 0 -76.5 -20.5t-55.5 -56
t-21 -79.5q0 -16 4 -33t12 -31zM235 204q51 0 90.5 30.5t52.5 77.5q-43 -25 -94 -25q-42 0 -79.5 17t-65 48t-39.5 71q-8 -14 -12.5 -31t-4.5 -35q0 -42 20.5 -76.5t55 -55.5t76.5 -21zM362 385q-13 23 -19.5 46.5t-6.5 48.5q0 44 18 82t50.5 65.5t75.5 37.5q-16 10 -34 15
t-38 5q-41 0 -75.5 -21t-54.5 -56t-20 -78q0 -50 29.5 -90t74.5 -55zM288 326q19 0 37 4.5t34 13.5q-42 11 -75 38t-52 65.5t-19 82.5q0 26 6.5 50t18.5 45q-45 -15 -74 -54.5t-29 -89.5q0 -42 20.5 -77.5t55 -56.5t77.5 -21z" />
    <glyph glyph-name="uni058E" unicode="&#x58e;" horiz-adv-x="817" 
d="M409 -10q-38 0 -72.5 14t-60.5 38q-52 4 -93.5 29t-65.5 66t-26 90q-25 27 -38.5 60t-13.5 70q0 38 14 71.5t38 59.5q2 51 27.5 91.5t66.5 65t91 26.5q26 25 60.5 39t72.5 14t72.5 -14t60.5 -38q53 -3 94 -29t65 -66.5t25 -89.5q25 -27 38.5 -60.5t13.5 -69.5
q0 -37 -14 -71t-38 -60q-1 -50 -26.5 -90.5t-66.5 -65t-91 -27.5q-26 -25 -60.5 -39t-72.5 -14zM239 89q-13 21 -19.5 45.5t-6.5 49.5q0 45 19 83t52 65t75 38q-16 9 -34 13.5t-37 4.5q-43 0 -77.5 -21t-55 -56.5t-20.5 -77.5q0 -51 30 -90.5t74 -53.5zM408 29q20 0 38 5
t34 15q-43 11 -75.5 38t-50.5 65.5t-18 81.5q0 25 6.5 49t19.5 46q-45 -15 -74.5 -55t-29.5 -90q0 -43 20 -78t54.5 -56t75.5 -21zM99 290q13 41 40.5 72t65 48t79.5 17q51 0 94 -25q-13 47 -52.5 77.5t-90.5 30.5q-42 0 -76.5 -20.5t-55 -55.5t-20.5 -77q0 -18 4 -35
t12 -32zM533 81q50 0 89 30.5t52 76.5q-20 -12 -43.5 -18.5t-49.5 -6.5q-43 0 -81 18t-65 49.5t-39 70.5q-8 -14 -12 -30.5t-4 -33.5q0 -44 21 -79.5t55.5 -56t76.5 -20.5zM421 413q8 14 11.5 31t3.5 33q0 44 -20.5 79.5t-55 56t-76.5 20.5q-49 0 -88.5 -29.5t-53.5 -77.5
q20 12 44 18.5t49 6.5q44 0 82 -18t65 -49t39 -71zM581 204q43 0 77 21t54.5 55.5t20.5 76.5q0 18 -4 35t-12 31q-12 -40 -39.5 -71t-65 -48t-80.5 -17q-51 0 -94 25q14 -47 53 -77.5t90 -30.5zM454 385q46 15 75 55t29 90q0 43 -20 78t-54 56t-76 21q-19 0 -37.5 -5
t-34.5 -15q43 -10 75.5 -37.5t51 -65.5t18.5 -82q0 -25 -6.5 -48.5t-20.5 -46.5zM529 326q43 0 77.5 21t55 56.5t20.5 77.5q0 50 -29 89.5t-75 54.5q13 -21 19.5 -45t6.5 -50q0 -44 -19 -82.5t-52 -65.5t-75 -38q16 -9 34 -13.5t37 -4.5z" />
    <glyph glyph-name="uni058F" unicode="&#x58f;" horiz-adv-x="732" 
d="M581 0h-90v470q0 89 -43 133.5t-127 44.5q-58 0 -96.5 -22t-57 -66.5t-18.5 -114.5h-90q0 88 29 150.5t88 95.5t147 33q83 0 140.5 -30.5t87.5 -89.5t30 -143v-461zM363 392h345v-59h-345v59zM363 257h345v-60h-345v60z" />
    <glyph glyph-name="uni25CC" unicode="&#x25cc;" horiz-adv-x="594" 
d="M213 522q11 0 18.5 -7.5t7.5 -18.5q0 -10 -7.5 -18t-18.5 -8q-10 0 -18 8t-8 18q0 11 8 18.5t18 7.5zM381 522q11 0 18.5 -7.5t7.5 -18.5q0 -10 -7.5 -18t-18.5 -8q-10 0 -18 8t-8 18q0 11 8 18.5t18 7.5zM213 112q11 0 18.5 -7.5t7.5 -18.5q0 -10 -7.5 -18t-18.5 -8
q-10 0 -18 8t-8 18q0 11 8 18.5t18 7.5zM381 112q11 0 18.5 -7.5t7.5 -18.5q0 -10 -7.5 -18t-18.5 -8q-10 0 -18 8t-8 18q0 11 8 18.5t18 7.5zM297 540q11 0 18.5 -7.5t7.5 -18.5q0 -10 -7.5 -18t-18.5 -8q-10 0 -18 8t-8 18q0 11 8 18.5t18 7.5zM297 94q11 0 18.5 -7.5
t7.5 -18.5q0 -10 -7.5 -18t-18.5 -8q-10 0 -18 8t-8 18q0 11 8 18.5t18 7.5zM48 291q0 11 8 18.5t18 7.5q11 0 18.5 -7.5t7.5 -18.5q0 -10 -7.5 -18t-18.5 -8q-10 0 -18 8t-8 18zM494 291q0 11 8 18.5t18 7.5q11 0 18.5 -7.5t7.5 -18.5q0 -10 -7.5 -18t-18.5 -8q-10 0 -18 8
t-8 18zM113 133q0 11 8 18.5t18 7.5q11 0 18.5 -7.5t7.5 -18.5q0 -10 -7.5 -18t-18.5 -8q-10 0 -18 8t-8 18zM113 449q0 11 8 18.5t18 7.5q11 0 18.5 -7.5t7.5 -18.5q0 -10 -7.5 -18t-18.5 -8q-10 0 -18 8t-8 18zM429 133q0 11 8 18.5t18 7.5q11 0 18.5 -7.5t7.5 -18.5
q0 -10 -7.5 -18t-18.5 -8q-10 0 -18 8t-8 18zM429 449q0 11 8 18.5t18 7.5q11 0 18.5 -7.5t7.5 -18.5q0 -10 -7.5 -18t-18.5 -8q-10 0 -18 8t-8 18zM66 207q0 11 8 18.5t18 7.5q11 0 18.5 -7.5t7.5 -18.5q0 -10 -7.5 -18t-18.5 -8q-10 0 -18 8t-8 18zM66 375q0 11 8 18.5
t18 7.5q11 0 18.5 -7.5t7.5 -18.5q0 -10 -7.5 -18t-18.5 -8q-10 0 -18 8t-8 18zM476 207q0 11 8 18.5t18 7.5q11 0 18.5 -7.5t7.5 -18.5q0 -10 -7.5 -18t-18.5 -8q-10 0 -18 8t-8 18zM476 375q0 11 8 18.5t18 7.5q11 0 18.5 -7.5t7.5 -18.5q0 -10 -7.5 -18t-18.5 -8
q-10 0 -18 8t-8 18z" />
    </font>
</defs>
</svg>
