<?xml version="1.0" standalone="no"?>
<!DOCTYPE svg PUBLIC "-//W3C//DTD SVG 1.1//EN" "http://www.w3.org/Graphics/SVG/1.1/DTD/svg11.dtd" >
<svg xmlns="http://www.w3.org/2000/svg" xmlns:xlink="http://www.w3.org/1999/xlink" version="1.1">
<metadata>
Created by FontForge 20190801 at Mon Apr 13 04:29:36 2020
 By www-data
Copyright 2017 Google Inc. All Rights Reserved.
</metadata>
<defs>
<font id="NotoSansLaoUIVF" horiz-adv-x="0" >
  <font-face 
    font-family="NotoSansLaoUIVF"
    font-weight="400"
    font-stretch="normal"
    units-per-em="1000"
    panose-1="2 11 5 2 4 5 4 2 2 4"
    ascent="800"
    descent="-200"
    bbox="-614 -271 900 1051"
    underline-thickness="50"
    underline-position="-125"
    unicode-range="U+000D-25CC"
  />
<missing-glyph horiz-adv-x="500" 
d="M50 0v714h400v-714h-400zM98 48h304v618h-304v-618z" />
    <glyph glyph-name=".notdef" horiz-adv-x="500" 
d="M50 0v714h400v-714h-400zM98 48h304v618h-304v-618z" />
    <glyph glyph-name=".null" 
 />
    <glyph glyph-name="nonmarkingreturn" horiz-adv-x="333" 
 />
    <glyph glyph-name="NULL" 
 />
    <glyph glyph-name="NULL" 
 />
    <glyph glyph-name="CR" unicode="&#xd;" horiz-adv-x="260" 
 />
    <glyph glyph-name="space" unicode=" " horiz-adv-x="260" 
 />
    <glyph glyph-name="uni00A0" unicode="&#xa0;" horiz-adv-x="260" 
 />
    <glyph glyph-name="koKai-lao" unicode="&#xe81;" horiz-adv-x="608" 
d="M92 -10q-16 0 -35 3.5t-37 10.5l13 61q9 -2 18 -3.5t16 -1.5q17 0 28 8.5t11 29.5v245q0 51 -17 83t-38 51l64 49q14 -11 29 -32.5t24 -43.5h3q23 29 49.5 45.5t57 23.5t62.5 7q60 0 101.5 -21.5t63 -64t21.5 -106.5v-334h-88v328q0 40 -11.5 68t-37 43t-67.5 15
q-22 0 -45 -5.5t-41.5 -18.5t-30 -35.5t-11.5 -57.5v-236q0 -52 -27 -81.5t-75 -29.5z" />
    <glyph glyph-name="khoKhai-lao" unicode="&#xe82;" horiz-adv-x="609" 
d="M203 -10q-35 0 -66 12t-50 37t-19 64t19.5 65.5t51.5 44.5t71 31t78 24q47 14 83.5 26t57.5 30t21 47q0 44 -43 64t-103 20q-61 0 -104 -21t-43 -65q0 -14 5 -23.5t12 -17.5l-70 -35q-16 14 -23.5 35t-7.5 43q0 40 23.5 75.5t74.5 57.5t132 22q80 0 131 -21.5t76 -57
t25 -77.5q0 -48 -30.5 -79t-81 -52t-111.5 -39q-38 -11 -75 -23t-60.5 -28.5t-23.5 -42.5q0 -19 14.5 -33t40.5 -14q23 0 49.5 10.5t55.5 23.5t59.5 23.5t61.5 10.5q40 0 71 -23t31 -80v-24h-87v20q0 18 -8.5 26t-24.5 8q-19 0 -41.5 -9.5t-48.5 -22.5t-56.5 -22.5
t-66.5 -9.5z" />
    <glyph glyph-name="khoKhuay-lao" unicode="&#xe84;" horiz-adv-x="608" 
d="M228 -10q-58 0 -93 21t-51 54t-16 68q0 29 10 53.5t30.5 42t52.5 25.5v3q-29 9 -50 25t-32 39.5t-11 53.5q0 70 60 110.5t174 40.5q110 0 167 -44t57 -142v-340h-88v348q0 34 -14 57.5t-45 36t-83 12.5q-46 0 -77 -9.5t-47 -28t-16 -45.5q0 -40 32.5 -61.5t83.5 -21.5h20
v-63h-20q-35 0 -61 -8t-40.5 -26t-14.5 -49q0 -36 22 -58t65 -22q17 0 33 3t27 7l15 -68q-14 -6 -39 -10t-51 -4z" />
    <glyph glyph-name="ngoNgu-lao" unicode="&#xe87;" horiz-adv-x="363" 
d="M110 -103q-45 0 -81 9.5t-57 19.5v76q29 -14 59.5 -23t64.5 -9q53 0 75 23.5t22 68.5v336q0 27 -19.5 41.5t-54.5 14.5q-19 0 -38.5 -4t-35.5 -11l-19 63q27 12 57 18t60 6q43 0 73.5 -12t47.5 -35.5t17 -56.5v-367q0 -80 -45 -119t-126 -39z" />
    <glyph glyph-name="coCok-lao" unicode="&#xe88;" horiz-adv-x="557" 
d="M195 0l-32 195q-4 23 -15 31t-31 8q-9 0 -18.5 -1.5t-16.5 -3.5l-14 63q17 8 36 11t36 3q41 0 67.5 -20t36.5 -79l22 -135q43 1 72 20t44 60.5t15 107.5q0 104 -40.5 149t-133.5 45q-46 0 -90.5 -10t-85.5 -33v77q29 14 78 26t109 12q134 0 192.5 -69t58.5 -200
q0 -80 -22.5 -138t-73.5 -88.5t-138 -30.5h-56z" />
    <glyph glyph-name="soSang-lao" unicode="&#xe8a;" horiz-adv-x="609" 
d="M449 -165v185q0 18 -8.5 26t-24.5 8q-19 0 -41.5 -9.5t-48.5 -22.5t-56.5 -22.5t-66.5 -9.5q-35 0 -66 12t-50 37t-19 64t19.5 65.5t51.5 44.5t71 31t78 24q47 14 83.5 26t57.5 29.5t21 46.5q0 44 -43 64.5t-103 20.5q-61 0 -104 -21.5t-43 -65.5q0 -14 5 -23.5t12 -17.5
l-70 -35q-16 14 -23.5 35t-7.5 43q0 40 23.5 75.5t74.5 58t132 22.5q80 0 131 -22t76 -57.5t25 -77.5q0 -49 -31 -80t-81.5 -51t-110.5 -38q-38 -11 -75 -23t-60.5 -28.5t-23.5 -42.5q0 -19 14.5 -33t40.5 -14q23 0 49.5 10.5t55.5 23.5t59.5 23.5t61.5 10.5q40 0 71 -23
t31 -80v-189h-87z" />
    <glyph glyph-name="nyoNyung-lao" unicode="&#xe8d;" horiz-adv-x="608" 
d="M299 -10q-115 0 -173 43t-58 120q0 40 13.5 65.5t35 39t44.5 16.5v4q-20 6 -42 20t-36.5 38t-14.5 59q0 33 16 63t51 49t92 19q26 0 51 -4t40 -11l-15 -67q-11 4 -28.5 7t-35.5 3q-41 0 -62 -18t-21 -50q0 -31 17 -47.5t44 -23t55 -6.5h49v-63h-49q-58 0 -87 -21t-29 -66
q0 -31 15 -52.5t46.5 -33t82.5 -11.5q48 0 78.5 11t45 34.5t14.5 61.5v347h88v-337q0 -67 -26 -108.5t-76.5 -61t-124.5 -19.5z" />
    <glyph glyph-name="doDek-lao" unicode="&#xe94;" horiz-adv-x="633" 
d="M271 -10q-74 0 -120 32.5t-67 90.5t-21 133q0 98 31.5 159.5t89 91t135.5 29.5q106 0 169 -51t63 -147v-328h-88v326q0 60 -35.5 94t-109.5 34q-59 0 -96 -23t-54 -68.5t-17 -114.5q0 -62 14 -104.5t43 -63.5t74 -21q14 0 27 2t25 6l11 -66q-16 -6 -35.5 -8.5t-38.5 -2.5
z" />
    <glyph glyph-name="toTa-lao" unicode="&#xe95;" horiz-adv-x="643" 
d="M271 -10q-74 0 -120 33t-67 94t-21 145q0 93 22 151t59.5 85.5t83.5 27.5q41 0 63.5 -18t32.5 -44h4q11 27 37 44.5t68 17.5q64 0 96 -42t32 -116v-368h-88v361q0 44 -13.5 68.5t-43.5 24.5q-28 0 -43 -21t-19 -50h-57q-4 32 -17 51.5t-39 19.5q-37 0 -63.5 -46.5
t-26.5 -148.5q0 -66 13.5 -110.5t42.5 -67t75 -22.5q14 0 27 2t25 6l11 -66q-16 -6 -35.5 -8.5t-38.5 -2.5z" />
    <glyph glyph-name="thoThong-lao" unicode="&#xe96;" horiz-adv-x="613" 
d="M443 -165v493q0 40 -13.5 68t-41 43t-69.5 15q-22 0 -44 -5.5t-40.5 -18.5t-29.5 -35.5t-11 -57.5v-239q0 -20 9.5 -29.5t29.5 -9.5q8 0 17 1.5t18 4.5l13 -61q-17 -7 -35.5 -10.5t-35.5 -3.5q-49 0 -76.5 29t-27.5 81v243q0 51 -16.5 83t-37.5 51l64 49
q14 -11 28.5 -32.5t23.5 -43.5h3q24 30 51.5 46.5t57 23t58.5 6.5q59 0 102.5 -21.5t67 -64t23.5 -106.5v-499h-88z" />
    <glyph glyph-name="thoThung-lao" unicode="&#xe97;" horiz-adv-x="720" 
d="M240 -10q-88 0 -125 46.5t-37 121.5v358h88v-362q0 -43 16 -67.5t58 -24.5t58.5 24.5t16.5 67.5v204q0 50 15.5 87.5t51 59t94.5 21.5q88 0 125 -47t37 -121v-358h-88v362q0 44 -16.5 68t-58.5 24t-58 -24t-16 -68v-204q0 -50 -16 -88t-51 -59t-94 -21z" />
    <glyph glyph-name="noNok-lao" unicode="&#xe99;" horiz-adv-x="608" 
d="M115 -10l-64 48q21 20 38 52t17 83v244q0 21 -9 30.5t-29 9.5q-9 0 -18 -2t-17 -4l-13 61q18 8 38.5 11t36.5 3q51 0 75 -28.5t24 -81.5v-237q0 -36 15 -62.5t42.5 -40.5t65.5 -14q59 0 90 33t31 93v328h88v-329q0 -62 -23 -106t-66 -67.5t-105 -23.5q-51 0 -91 17.5
t-70 57.5h-3q-9 -21 -24 -42.5t-29 -32.5z" />
    <glyph glyph-name="boBae-lao" unicode="&#xe9a;" horiz-adv-x="608" 
d="M302 -10q-119 0 -171.5 54.5t-52.5 151.5v320h88v-328q0 -59 32 -92.5t104 -33.5q73 0 104.5 33.5t31.5 92.5v328h88v-320q0 -97 -52.5 -151.5t-171.5 -54.5z" />
    <glyph glyph-name="poPa-lao" unicode="&#xe9b;" horiz-adv-x="608" 
d="M302 -10q-119 0 -171.5 54.5t-52.5 151.5v320h88v-328q0 -59 32 -92.5t104 -33.5q73 0 104.5 33.5t31.5 92.5v494h88v-486q0 -97 -52.5 -151.5t-171.5 -54.5z" />
    <glyph glyph-name="phoPhueng-lao" unicode="&#xe9c;" horiz-adv-x="720" 
d="M226 -10q-76 0 -112 42.5t-36 115.5v267q0 53 27.5 82t75.5 29q17 0 35 -3.5t37 -10.5l-13 -61q-9 2 -18.5 4t-17.5 2q-16 0 -27 -9t-11 -32v-278q0 -40 18 -58t55 -18q44 0 60 23.5t16 66.5v159h86v-159q0 -43 16 -66.5t60 -23.5q37 0 55 18t18 58v186q0 40 -16 60.5
t-46 20.5h-13v59h14q35 0 48 22.5t13 59.5v8h88v-8q0 -38 -13.5 -65t-46.5 -46v-4q33 -15 46.5 -40.5t13.5 -65.5v-177q0 -48 -15.5 -83.5t-48.5 -55t-84 -19.5q-48 0 -78.5 17t-51.5 46h-4q-21 -29 -51.5 -46t-78.5 -17z" />
    <glyph glyph-name="foFon-lao" unicode="&#xe9d;" horiz-adv-x="720" 
d="M226 -10q-76 0 -112 42.5t-36 115.5v267q0 53 27.5 82t75.5 29q17 0 35 -3.5t37 -10.5l-13 -61q-9 2 -18.5 4t-17.5 2q-16 0 -27 -9t-11 -32v-278q0 -40 18 -58t55 -18q44 0 60 23.5t16 66.5v159h86v-159q0 -43 16 -66.5t60 -23.5q37 0 55 18t18 58v544h88v-534
q0 -48 -15.5 -83.5t-48.5 -55t-84 -19.5q-48 0 -78.5 17t-51.5 46h-4q-21 -29 -51.5 -46t-78.5 -17z" />
    <glyph glyph-name="phoPhu-lao" unicode="&#xe9e;" horiz-adv-x="726" 
d="M223 -10q-67 0 -106 39.5t-39 119.5v367h88v-369q0 -45 18.5 -65t55.5 -20q39 0 58.5 22t19.5 65v367h86v-367q0 -43 19.5 -65t58.5 -22q37 0 55.5 20t18.5 65v369h88v-367q0 -80 -39 -119.5t-106 -39.5q-49 0 -84 19.5t-51 47.5h-6q-16 -28 -50.5 -47.5t-84.5 -19.5z
" />
    <glyph glyph-name="foFai-lao" unicode="&#xe9f;" horiz-adv-x="726" 
d="M223 -10q-67 0 -106 39.5t-39 119.5v367h88v-369q0 -45 18.5 -65t55.5 -20q39 0 58.5 22t19.5 65v367h86v-367q0 -43 19.5 -65t58.5 -22q37 0 55.5 20t18.5 65v535h88v-533q0 -80 -39 -119.5t-106 -39.5q-49 0 -84 19.5t-51 47.5h-6q-16 -28 -50.5 -47.5t-84.5 -19.5z
" />
    <glyph glyph-name="moMa-lao" unicode="&#xea1;" horiz-adv-x="608" 
d="M95 -10q-20 0 -39 4t-36 10l13 61q9 -3 18 -4.5t16 -1.5q17 0 28 8.5t11 30.5v418h88v-336q0 -46 18 -72t46.5 -36t58.5 -10q62 0 91.5 33t29.5 93v328h88v-334q0 -63 -23 -105.5t-66 -64.5t-105 -22q-40 0 -77 12t-70 45h-37l35 30v-19q0 -33 -23.5 -50.5t-64.5 -17.5z
" />
    <glyph glyph-name="yoYa-lao" unicode="&#xea2;" horiz-adv-x="613" 
d="M300 -10q-114 0 -173 43t-59 120q0 41 14.5 66.5t36 38.5t42.5 16v4q-20 6 -42 20t-36.5 37.5t-14.5 59.5q0 34 16 63.5t51 48.5t92 19q26 0 51 -4t40 -11l-15 -68q-11 4 -28 7.5t-37 3.5q-40 0 -61 -18t-21 -50q0 -31 17 -47.5t44 -22.5t55 -6h49v-64h-49
q-57 0 -86.5 -21.5t-29.5 -65.5q0 -30 15 -51.5t47 -33t83 -11.5q49 0 80 11t46.5 35.5t15.5 62.5v511h88v-502q0 -67 -26.5 -109t-78 -62t-126.5 -20z" />
    <glyph glyph-name="roRot-lao" unicode="&#xea3;" horiz-adv-x="609" 
d="M303 -10q-83 0 -135 22t-76 57t-24 74q0 30 11 48.5t21 28.5l68 -32q-7 -7 -11 -18.5t-4 -25.5q0 -32 21 -50.5t54.5 -25.5t70.5 -7q44 0 78.5 9t54 28.5t19.5 52.5t-20 52.5t-56.5 31.5t-84.5 23q-40 9 -79.5 19t-72 24.5t-51.5 39t-19 63.5q0 45 26.5 71.5t75.5 38.5
t115 12q58 0 118.5 -9t112.5 -29v-77q-60 23 -116.5 33t-119.5 10q-65 0 -96 -11.5t-31 -39.5q0 -22 18.5 -34.5t54 -21.5t86.5 -21q37 -9 76.5 -20.5t73 -30t54 -48.5t20.5 -75q0 -69 -56 -115.5t-177 -46.5z" />
    <glyph glyph-name="loLing-lao" unicode="&#xea5;" horiz-adv-x="620" 
d="M180 -10q-65 0 -96 37.5t-31 101.5q0 46 15.5 81.5t49.5 56t87 20.5q58 0 89 -24.5t45 -66.5l39 -115q6 -17 15.5 -24t23.5 -7q17 0 25 9t8 28v246q0 41 -20.5 67.5t-59 40t-91.5 13.5q-30 0 -65 -4t-69 -13.5t-61 -24.5v76q19 10 52.5 18.5t74.5 14t81 5.5
q70 0 125.5 -20t88 -61t32.5 -105v-238q0 -58 -33.5 -85t-88.5 -27q-49 0 -74.5 20t-39.5 59l-36 106q-7 22 -23 32.5t-41 10.5q-32 0 -51 -20t-19 -67q0 -39 15 -58t47 -19q9 0 17.5 1.5t15.5 3.5l13 -60q-10 -4 -26 -6.5t-34 -2.5z" />
    <glyph glyph-name="woWi-lao" unicode="&#xea7;" horiz-adv-x="580" 
d="M265 -10q-66 0 -117 18.5t-80 54.5t-29 88q0 17 3 29.5t8 23.5l83 -23q-3 -6 -5 -14t-2 -18q0 -39 34.5 -63t98.5 -24q51 0 87 18t55.5 60.5t19.5 115.5q0 80 -22.5 122.5t-62.5 59t-94 16.5q-52 0 -97 -11.5t-86 -31.5v77q33 16 81.5 27t108.5 11q74 0 132.5 -23t93 -81
t34.5 -164q0 -102 -32.5 -160.5t-87.5 -83t-124 -24.5z" />
    <glyph glyph-name="soSeua-lao" unicode="&#xeaa;" horiz-adv-x="629" 
d="M191 -10q-70 0 -100.5 39.5t-30.5 96.5q0 37 14 69.5t46.5 52.5t88.5 20q61 0 96 -24.5t48 -65.5l32 -97q6 -17 16.5 -24t24.5 -7q33 0 33 37v239q0 49 -28 79t-73.5 44t-98.5 14q-49 0 -83 -11t-34 -34q0 -15 16.5 -24.5t42 -13.5t53.5 -4q76 0 125.5 23t74 57.5
t24.5 69.5v6h78v-7q0 -54 -37.5 -102.5t-104 -79t-155.5 -30.5q-53 0 -96.5 12t-69 36t-25.5 59q0 44 48.5 75t152.5 31q96 0 157.5 -27t91 -72t29.5 -101v-224q0 -58 -33 -85t-89 -27q-49 0 -76.5 19.5t-39.5 57.5l-28 90q-7 23 -26 35t-47 12q-33 0 -51.5 -18t-18.5 -59
q0 -35 15 -54t48 -19q9 0 16.5 1.5t15.5 3.5l14 -60q-11 -4 -25.5 -6.5t-30.5 -2.5z" />
    <glyph glyph-name="hoHaan-lao" unicode="&#xeab;" horiz-adv-x="720" 
d="M240 -10q-88 0 -125 44t-37 115v367h88v-373q0 -81 75 -81q74 0 74 81v256q0 26 -9 45.5t-35 37.5l62 44q17 -8 32 -23t21 -31h4q21 23 53 38.5t72 15.5q57 0 90 -35t33 -98v-393h-88v379q0 36 -17.5 55.5t-52.5 19.5q-28 0 -45.5 -11.5t-25.5 -31t-8 -42.5v-220
q0 -71 -36 -115t-125 -44z" />
    <glyph glyph-name="oO-lao" unicode="&#xead;" horiz-adv-x="614" 
d="M303 -10q-67 0 -120 19.5t-84 55t-31 83.5q0 20 5 32t12 22l72 -21q-4 -8 -6 -16t-2 -15q0 -27 22 -46.5t57 -30.5t75 -11q82 0 123.5 47.5t41.5 143.5q0 99 -44.5 150t-134.5 51q-60 0 -100.5 -22t-40.5 -63q0 -37 36 -57.5t99 -20.5q28 0 60 5t64 16t60 29l33 -56
q-31 -21 -67.5 -35t-75 -20.5t-77.5 -6.5q-100 0 -156 40.5t-56 107.5q0 44 25 79t74 55.5t121 20.5q75 0 136 -26.5t96.5 -86.5t35.5 -160q0 -96 -33.5 -154t-90.5 -83.5t-129 -25.5z" />
    <glyph glyph-name="hoHeuan-lao" unicode="&#xeae;" horiz-adv-x="609" 
d="M299 -10q-77 0 -128.5 20t-77 54.5t-25.5 77.5q0 29 9.5 48t22.5 30l70 -34q-9 -9 -13 -19t-4 -24q0 -27 16 -45.5t48 -27.5t80 -9q51 0 85 10t51.5 29t17.5 47t-18 44.5t-56 29t-98 28.5q-58 16 -106 34t-76.5 47.5t-28.5 79.5q0 41 19 66.5t50.5 37.5t67.5 12
q38 0 68.5 -9.5t56 -22.5t47.5 -22.5t42 -9.5q17 0 23.5 8t6.5 24v22h87v-24q0 -58 -31 -80.5t-71 -22.5q-31 0 -60.5 10t-57.5 22.5t-55 22.5t-54 10q-26 0 -40 -11.5t-14 -33.5q0 -25 18.5 -40.5t52.5 -26.5t79 -24q44 -12 85.5 -25.5t74.5 -32t53 -45.5t20 -67
q0 -42 -25 -78t-77.5 -58t-134.5 -22z" />
    <glyph glyph-name="ellipsis-lao" unicode="&#xeaf;" horiz-adv-x="572" 
d="M402 0v374h-5q-18 -17 -54.5 -31t-92.5 -14q-85 0 -133 40.5t-48 128.5v18h88v-18q0 -52 28 -74.5t82 -22.5q60 0 102 26t42 79v10h79v-516h-88z" />
    <glyph glyph-name="aVowel-lao" unicode="&#xeb0;" horiz-adv-x="366" 
d="M145 332q-61 0 -86 25.5t-25 56.5q0 9 2 19.5t5.5 20t8.5 15.5h76q-4 -7 -6.5 -16.5t-2.5 -19.5q0 -13 7 -22t25 -9h158v-70h-162zM145 40q-61 0 -86 25.5t-25 56.5q0 10 2 20t5.5 19.5t8.5 16.5h76q-4 -7 -6.5 -16.5t-2.5 -19.5q0 -13 7 -22t25 -9h158v-71h-162z" />
    <glyph glyph-name="maiKanVowel-lao" unicode="&#xeb1;" 
d="M-241 608q-53 0 -78 19.5t-25 59.5q0 18 4.5 34.5t11.5 27.5h75q-4 -9 -7 -18.5t-3 -17.5q0 -16 11 -26.5t35 -10.5h258v-68h-282z" />
    <glyph glyph-name="aaVowel-lao" unicode="&#xeb2;" horiz-adv-x="318" 
d="M148 0v398q0 32 -14.5 45.5t-45.5 13.5q-22 0 -41 -5.5t-32 -10.5l-14 64q20 9 49 15t58 6q56 0 92 -27t36 -88v-411h-88z" />
    <glyph glyph-name="amVowel-lao" unicode="&#xeb3;" horiz-adv-x="318" 
d="M148 0v398q0 32 -14.5 45.5t-45.5 13.5q-22 0 -41 -5.5t-32 -10.5l-14 64q20 9 49 15t58 6q56 0 92 -27t36 -88v-411h-88zM-138 595q-46 0 -74.5 27t-28.5 70q0 44 28.5 70t74.5 26q47 0 76 -26t29 -70q0 -43 -29 -70t-76 -27zM-138 648q21 0 33.5 12.5t12.5 32.5
t-12.5 31.5t-32.5 11.5q-21 0 -33.5 -12t-12.5 -32t12.5 -32t32.5 -12z" />
    <glyph glyph-name="iVowel-lao" unicode="&#xeb4;" 
d="M-377 598q-35 0 -66.5 11.5t-51 34t-19.5 55.5q0 40 30 67.5t79 41.5t105 14q57 0 105.5 -14t78.5 -41.5t30 -67.5q0 -33 -20.5 -55.5t-51.5 -34t-65 -11.5l-14 50q3 1 20 4.5t33 14.5t16 33q0 29 -33.5 45t-98.5 16q-64 0 -98.5 -16t-34.5 -45q0 -16 10 -26.5t23 -15.5
t24 -7.5t12 -2.5z" />
    <glyph glyph-name="iiVowel-lao" unicode="&#xeb5;" 
d="M-376 598q-35 0 -67 11.5t-51.5 34t-19.5 55.5q0 40 30 67.5t78.5 41.5t104.5 14q58 0 107 -14.5t79 -41t30 -63.5q0 -15 -6.5 -26.5t-22.5 -21.5v-2q9 3 23.5 4t23.5 1h33v-60h-189l-14 50q3 1 20 4.5t33 14.5t16 33q0 29 -33.5 45t-98.5 16q-64 0 -98.5 -16t-34.5 -45
q0 -16 10 -26.5t23 -15.5t24 -7.5t13 -2.5z" />
    <glyph glyph-name="euVowel-lao" unicode="&#xeb6;" 
d="M-377 598q-35 0 -66.5 11.5t-51 34t-19.5 55.5q0 40 30 67.5t79 41.5t105 14q57 0 105.5 -14t78.5 -41.5t30 -67.5q0 -33 -20.5 -55.5t-51.5 -34t-65 -11.5l-14 50q3 1 20 4.5t33 14.5t16 33q0 29 -33.5 45t-98.5 16q-64 0 -98.5 -16t-34.5 -45q0 -16 10 -26.5t23 -15.5
t24 -7.5t12 -2.5zM-301 652q-19 0 -30.5 11t-11.5 29q0 19 11.5 30.5t30.5 11.5t30 -11.5t11 -30.5q0 -18 -11 -29t-30 -11z" />
    <glyph glyph-name="euuVowel-lao" unicode="&#xeb7;" 
d="M-376 598q-35 0 -67 11.5t-51.5 34t-19.5 55.5q0 40 30 67.5t78.5 41.5t104.5 14q58 0 107 -14.5t79 -41t30 -63.5q0 -10 -3 -18.5t-9 -15.5t-17 -14v-2q9 3 23.5 4t23.5 1h33v-60h-189l-14 50q3 1 20 4.5t33 14.5t16 33q0 29 -33.5 45t-98.5 16q-64 0 -98.5 -16
t-34.5 -45q0 -16 10 -26.5t23 -15.5t24 -7.5t13 -2.5zM-301 652q-19 0 -30.5 11t-11.5 29q0 19 11.5 30.5t30.5 11.5t30 -11.5t11 -30.5q0 -18 -11 -29t-30 -11z" />
    <glyph glyph-name="uVowel-lao" unicode="&#xeb8;" 
d="M-155 -244v89q0 14 -6.5 20t-17.5 6q-7 0 -14.5 -1.5t-13.5 -3.5l-13 53q11 5 30.5 9t36.5 4q31 0 51 -17t20 -62v-97h-73z" />
    <glyph glyph-name="uuVowel-lao" unicode="&#xeb9;" 
d="M-211 -249q-64 0 -95 23.5t-31 63.5v14q0 10 -3.5 14.5t-13.5 4.5q-5 0 -8 -0.5t-7 -1.5l-6 55q13 5 26 6.5t23 1.5q35 0 50 -15t15 -41v-30q0 -16 10 -26.5t40 -10.5q29 0 40.5 10t11.5 27v83h77v-86q0 -43 -32 -67.5t-97 -24.5z" />
    <glyph glyph-name="maiKonVowel-lao" unicode="&#xebb;" 
d="M-329 608q-7 11 -11.5 27t-4.5 34q0 41 25 60.5t78 19.5h284v-68h-260q-24 0 -34.5 -10.5t-10.5 -26.5q0 -8 2.5 -17.5t6.5 -18.5h-75z" />
    <glyph glyph-name="loVowel-lao" unicode="&#xebc;" 
d="M-421 -178q-7 10 -11 21.5t-4 24.5q0 35 25.5 52t73.5 17q36 0 64 -7t54 -14.5t54 -7.5q21 0 42 5t40 15v-65q-19 -9 -40.5 -14t-43.5 -5q-29 0 -55.5 7.5t-51 14.5t-48.5 7q-30 0 -30 -21q0 -7 2.5 -14.5t7.5 -15.5h-79z" />
    <glyph glyph-name="nyoVowel-lao" unicode="&#xebd;" horiz-adv-x="568" 
d="M264 -236q-64 0 -114.5 18t-80 53.5t-29.5 87.5q0 21 6 39t20 34l75 -35q-7 -8 -11 -17.5t-4 -23.5q0 -39 34.5 -62t98.5 -23q66 0 106.5 26.5t40.5 75.5v170q0 36 -18 61.5t-55.5 44.5t-95.5 35q-58 17 -106 35t-76.5 47.5t-28.5 79.5q0 42 19 67.5t50 37t68 11.5
q38 0 68.5 -9.5t56 -22t47.5 -22t42 -9.5q30 0 30 32v21h87v-23q0 -58 -31 -80.5t-71 -22.5q-31 0 -60 9.5t-57 22.5t-55.5 22.5t-54.5 9.5q-26 0 -40 -11t-14 -32q0 -27 20.5 -43.5t54.5 -27.5t75 -23q47 -14 89 -30.5t74.5 -39.5t51 -56t18.5 -79v-175q0 -45 -25 -84.5
t-76 -64t-129 -24.5z" />
    <glyph glyph-name="eVowel-lao" unicode="&#xec0;" horiz-adv-x="279" 
d="M188 -10q-28 0 -53.5 10.5t-41 34t-15.5 62.5v419h88v-414q0 -21 10 -30.5t34 -9.5q10 0 19 1.5t17 3.5l13 -63q-19 -7 -36.5 -10.5t-34.5 -3.5z" />
    <glyph glyph-name="aeVowel-lao" unicode="&#xec1;" horiz-adv-x="509" 
d="M188 -10q-28 0 -53.5 10.5t-41 34t-15.5 62.5v419h88v-414q0 -21 10 -30.5t34 -9.5q10 0 19 1.5t17 3.5l13 -63q-19 -7 -36.5 -10.5t-34.5 -3.5zM418 -10q-28 0 -53.5 10.5t-41 34t-15.5 62.5v419h88v-414q0 -21 10 -30.5t34 -9.5q10 0 19 1.5t17 3.5l13 -63
q-19 -7 -36.5 -10.5t-34.5 -3.5z" />
    <glyph glyph-name="oVowel-lao" unicode="&#xec2;" horiz-adv-x="274" 
d="M185 -10q-28 0 -53.5 10.5t-41 34t-15.5 62.5v415q0 28 -11 46.5t-27 33t-32.5 29.5t-27.5 34.5t-11 48.5q0 46 33.5 75.5t101.5 29.5h153v-70h-150q-23 0 -34.5 -8t-15.5 -18t-4 -17q0 -15 11.5 -28t28.5 -27.5t33.5 -32.5t28 -43t11.5 -60v-403q0 -21 9.5 -30.5
t33.5 -9.5q10 0 19 1.5t17 3.5l13 -63q-19 -7 -36.5 -10.5t-33.5 -3.5z" />
    <glyph glyph-name="ayMaiMuanVowel-lao" unicode="&#xec3;" horiz-adv-x="274" 
d="M184 -10q-43 0 -76 24t-33 83v401q0 32 10.5 55.5t26.5 42t32 33.5t26.5 30.5t10.5 34.5q0 23 -18 37.5t-49 14.5q-30 0 -48 -14.5t-18 -40.5v-21h-83v21q0 43 22 71t56.5 42t71.5 14t71.5 -13.5t56.5 -41t22 -69.5q0 -29 -10.5 -48.5t-25.5 -34.5t-30 -29.5t-25.5 -32.5
t-10.5 -44v-403q0 -21 9.5 -30.5t33.5 -9.5q9 0 18.5 1.5t17.5 3.5l13 -63q-19 -7 -37 -10.5t-34 -3.5z" />
    <glyph glyph-name="aiMaiMayVowel-lao" unicode="&#xec4;" horiz-adv-x="318" 
d="M222 -10q-28 0 -53.5 10.5t-41 34t-15.5 62.5v418q0 66 14.5 110.5t37 71t45.5 37.5l-1 5h-230l28 70h292v-87q-43 -16 -70.5 -60t-27.5 -130v-430q0 -21 10 -30.5t34 -9.5q10 0 19 1.5t17 3.5l13 -63q-19 -7 -36.5 -10.5t-34.5 -3.5z" />
    <glyph glyph-name="koLa-lao" unicode="&#xec6;" horiz-adv-x="643" 
d="M433 -165v566q0 24 -10.5 38.5t-36.5 14.5q-28 0 -48.5 -16.5t-34.5 -39.5h-31q-15 23 -34 39.5t-49 16.5q-28 0 -42.5 -15.5t-14.5 -47.5q0 -35 16.5 -49t42.5 -14q9 0 18 1.5t17 4.5l13 -61q-13 -7 -31.5 -11t-37.5 -4q-35 0 -63.5 15t-45.5 45.5t-17 75.5q0 64 34 98
t91 34q41 0 70.5 -16t46.5 -42h3q18 28 48.5 43t67.5 15q51 0 83.5 -29t32.5 -85v-577h-88z" />
    <glyph glyph-name="maiEk-lao" unicode="&#xec8;" 
d="M-167 608v168h82v-168h-82z" />
    <glyph glyph-name="maiTho-lao" unicode="&#xec9;" 
d="M-332 608v40q38 5 60.5 22.5t22.5 42.5q0 17 -10.5 26.5t-28.5 9.5q-10 0 -19 -2.5t-16 -6.5l-18 45q14 9 34.5 14t42.5 5q43 0 65.5 -19t22.5 -53q0 -19 -6.5 -34t-18.5 -24h190v-66h-321z" />
    <glyph glyph-name="maiTi-lao" unicode="&#xeca;" 
d="M-363 605q-41 0 -64.5 23.5t-23.5 65.5q0 43 25.5 67t70.5 24l69 -35l63 35q32 0 54.5 -8.5t34.5 -23.5t12 -37q0 -13 -4 -25.5t-11 -23.5h84v-59h-176v38q17 2 26.5 15t9.5 30t-8.5 27t-22.5 12l-57 -26h-12l-58 26q-13 -1 -22 -9.5t-9 -28.5q0 -18 9 -29.5t25 -11.5
q4 0 8 1l8 2l7 -41q-6 -4 -16 -6t-22 -2z" />
    <glyph glyph-name="maiCatawa-lao" unicode="&#xecb;" 
d="M-222 608v67h-84v60h84v67h84v-67h84v-60h-84v-67h-84z" />
    <glyph glyph-name="karan-lao" unicode="&#xecc;" 
d="M-278 601q-10 13 -15 31.5t-5 37.5q0 45 26.5 69t74.5 24h164v-68h-135q-20 0 -32 -11.5t-12 -31.5q0 -10 3.5 -20.5t9.5 -19.5z" />
    <glyph glyph-name="niggahita-lao" unicode="&#xecd;" 
d="M-306 595q-46 0 -74.5 27t-28.5 70q0 44 28.5 70t74.5 26q47 0 76 -26t29 -70q0 -43 -29 -70t-76 -27zM-306 648q21 0 33.5 12.5t12.5 31.5q0 20 -13 32t-33 12q-21 0 -33 -12t-12 -32t12.5 -32t32.5 -12z" />
    <glyph glyph-name="zero-lao" unicode="&#xed0;" horiz-adv-x="610" 
d="M305 -10q-72 0 -125 27t-81.5 86.5t-28.5 154.5q0 96 28.5 155t81.5 86t125 27q73 0 125.5 -27t81 -86t28.5 -155q0 -95 -28.5 -154.5t-81 -86.5t-125.5 -27zM305 62q78 0 112.5 48.5t34.5 147.5t-34.5 147.5t-112.5 48.5q-77 0 -112 -48.5t-35 -147.5t35 -147.5
t112 -48.5z" />
    <glyph glyph-name="one-lao" unicode="&#xed1;" horiz-adv-x="580" 
d="M271 -10q-52 0 -96 11.5t-78 28.5v77q38 -19 77 -32t88 -13q57 0 91.5 21t50.5 65.5t16 113.5q0 101 -34 146.5t-114 45.5q-59 0 -87.5 -24t-28.5 -71q0 -46 26 -66.5t78 -20.5q11 0 22 1t16 2l-14 -71q-4 -1 -11.5 -1.5t-18.5 -0.5q-84 0 -135 41.5t-51 117.5
q0 55 26.5 91.5t74.5 55t110 18.5q71 0 122.5 -26t79 -84t27.5 -155q0 -73 -16 -124.5t-46.5 -84t-74.5 -47.5t-100 -15z" />
    <glyph glyph-name="two-lao" unicode="&#xed2;" horiz-adv-x="577" 
d="M292 -10q-68 0 -120 26t-81.5 82.5t-29.5 146.5q0 83 24 139t63.5 94t85.5 66q27 17 56 32t53.5 30.5t40 32.5t15.5 36v25h78v-23q0 -30 -15 -52.5t-41 -41.5t-60.5 -39.5t-73.5 -47.5q-46 -31 -77 -63t-46 -74.5t-15 -106.5q0 -106 39 -147.5t109 -41.5q66 0 94 29
t28 76t-27.5 68.5t-88.5 21.5h-9.5t-9.5 -1l19 73q95 0 149.5 -39.5t54.5 -120.5q0 -59 -28 -99t-76.5 -60.5t-110.5 -20.5z" />
    <glyph glyph-name="three-lao" unicode="&#xed3;" horiz-adv-x="589" 
d="M91 -10q-34 0 -71 14l13 62q9 -3 18 -4.5t16 -1.5q17 0 28 9t11 31v310h88v-227q0 -43 15.5 -69.5t42.5 -38.5t60 -12q55 0 81 30.5t26 89.5v151q0 30 -11.5 52.5t-30.5 41.5t-43 35q-42 29 -81.5 51t-65 45.5t-25.5 56.5q0 30 23.5 53t66.5 23q11 0 28 -2t33 -9l180 -70
v-69l-193 76q-12 5 -23 7t-17 2q-12 0 -17.5 -5t-5.5 -11q0 -12 20 -24.5t51.5 -27.5t64.5 -35q26 -15 49.5 -33t43 -40.5t30.5 -49.5t11 -60v-163q0 -65 -21.5 -107t-63 -61.5t-100.5 -19.5q-33 0 -67.5 10.5t-70.5 47.5h-36l34 21v-17q0 -31 -29.5 -46.5t-61.5 -15.5z" />
    <glyph glyph-name="four-lao" unicode="&#xed4;" horiz-adv-x="604" 
d="M251 -10q-87 0 -135 46.5t-48 143.5v116q0 66 17 109t45.5 67.5t63 37t71 16.5t68.5 6q29 2 52 6.5t38.5 17t23.5 37.5t8 67v22h79v-22q0 -68 -18.5 -108t-48 -59t-62 -25t-61.5 -8q-42 -2 -76.5 -7t-59.5 -19.5t-38.5 -47t-13.5 -90.5v-114q0 -62 26.5 -90.5t84.5 -28.5
q30 0 56 9t42 33t16 67v96q0 57 31 79.5t71 22.5q17 0 35.5 -3.5t37.5 -10.5l-14 -62l-18 4t-17 2q-16 0 -27 -8.5t-11 -31.5v-96q0 -34 8 -57.5t20.5 -39.5t26.5 -29l-64 -48q-13 11 -28.5 32.5t-24.5 43.5h-2q-35 -45 -72.5 -60.5t-81.5 -15.5z" />
    <glyph glyph-name="five-lao" unicode="&#xed5;" horiz-adv-x="604" 
d="M251 -10q-87 0 -135 46.5t-48 143.5v116q0 46 9.5 81.5t25.5 61t36.5 41.5t43.5 23.5t46 7.5h49q11 0 17 2.5t11 6t11 7t16 5.5q17 3 37.5 3t40 8t32 34.5t12.5 82.5v22h79v-22q0 -68 -18.5 -108t-48 -59t-62 -25t-61.5 -8q-42 -2 -76.5 -7t-59.5 -19.5t-38.5 -47
t-13.5 -90.5v-114q0 -62 26.5 -90.5t84.5 -28.5q30 0 56 9t42 33t16 67v96q0 57 31 79.5t71 22.5q17 0 35.5 -3.5t37.5 -10.5l-14 -62l-18 4t-17 2q-16 0 -27 -8.5t-11 -31.5v-96q0 -34 8 -57.5t20.5 -39.5t26.5 -29l-64 -48q-13 11 -28.5 32.5t-24.5 43.5h-2
q-35 -45 -72.5 -60.5t-81.5 -15.5zM275 468q-46 0 -76.5 27.5t-30.5 76.5q0 50 30.5 77t76.5 27q50 0 80 -29.5t30 -74.5t-30 -74.5t-80 -29.5zM276 527q21 0 34 12.5t13 31.5q0 20 -13.5 32.5t-33.5 12.5t-34 -12t-14 -33q0 -19 13 -31.5t35 -12.5z" />
    <glyph glyph-name="six-lao" unicode="&#xed6;" horiz-adv-x="627" 
d="M208 -10q-61 0 -95.5 42.5t-34.5 113.5v213q0 56 30.5 79t70.5 23q19 0 38 -4t36 -11l-13 -61q-9 3 -18.5 5t-17.5 2q-16 0 -27 -9t-11 -32v-215q0 -40 14.5 -56.5t39.5 -16.5t39 15.5t14 47.5v182h76v-182q0 -32 14.5 -47.5t39.5 -15.5t39.5 16.5t14.5 56.5v198
q0 22 -6.5 40.5t-18 34t-27 29.5t-33.5 26q-38 26 -78 47.5t-67 46t-27 58.5q0 31 24.5 53.5t64.5 22.5q12 0 29 -2.5t34 -9.5l179 -69v-69l-193 76q-10 4 -21 6.5t-19 2.5q-10 0 -16.5 -4.5t-6.5 -11.5q0 -12 20 -24.5t51.5 -27.5t65.5 -35q26 -15 49.5 -33t42.5 -40.5
t30 -49.5t11 -60v-195q0 -70 -34 -113t-96 -43q-44 0 -68 20t-34 44h-4q-9 -24 -33 -44t-68 -20z" />
    <glyph glyph-name="seven-lao" unicode="&#xed7;" horiz-adv-x="608" 
d="M438 -165v493q0 40 -11.5 68t-37 43t-67.5 15q-22 0 -45 -5.5t-41.5 -18.5t-30 -35.5t-11.5 -57.5v-236q0 -52 -27 -81.5t-75 -29.5q-16 0 -35 3.5t-37 10.5l13 61q9 -2 18 -3.5t16 -1.5q17 0 28 8.5t11 29.5v245q0 51 -17 83t-38 51l64 49q14 -11 29 -32.5t24 -43.5h3
q23 29 49.5 45.5t57 23.5t62.5 7q60 0 101.5 -21.5t63 -64t21.5 -106.5v-499h-88z" />
    <glyph glyph-name="eight-lao" unicode="&#xed8;" horiz-adv-x="620" 
d="M204 -179q-35 0 -57.5 20t-22.5 51q0 38 33.5 64t96.5 54l196 88v262q0 43 -13.5 68.5t-43.5 25.5q-28 0 -43 -21.5t-19 -51.5h-57q-4 34 -16.5 53.5t-41.5 19.5q-37 0 -58 -36.5t-21 -121.5q0 -60 9.5 -94t23.5 -49t28 -19t22 -4q11 0 20 2t18 5l13 -62
q-17 -7 -36 -10.5t-38 -3.5q-20 0 -45 7t-48.5 30t-39 69t-15.5 124q0 85 19.5 136.5t54.5 75t80 23.5q39 0 62 -15.5t36 -46.5h4q11 27 37 44.5t68 17.5q64 0 96 -42.5t32 -116.5v-276q0 -37 -17 -66.5t-41 -52.5q19 -10 31 -29.5t12 -40.5q0 -36 -23.5 -59t-61.5 -23
q-30 0 -53 18.5t-29 47.5q-37 -28 -77.5 -46.5t-74.5 -18.5zM210 -118q19 0 51.5 14t68 37t64.5 49t41 50l-188 -87q-29 -13 -43 -25t-14 -23q0 -15 20 -15zM438 -133q17 0 27 9.5t10 25.5q0 15 -10 24.5t-27 9.5q-16 0 -26 -9.5t-10 -24.5q0 -16 10 -25.5t26 -9.5z" />
    <glyph glyph-name="nine-lao" unicode="&#xed9;" horiz-adv-x="743" 
d="M214 -10q-49 0 -82.5 26.5t-50.5 82.5t-17 143q0 69 11 122t34.5 89t59.5 54.5t87 18.5q57 0 94 -21.5t55.5 -60t18.5 -89.5v-199q0 -43 16 -68.5t58 -25.5q43 0 60 25.5t17 68.5v360h86v-355q0 -79 -39.5 -125t-121.5 -46t-122 46t-40 125v190q0 52 -18 77.5t-61 25.5
q-41 0 -64.5 -23t-33 -70.5t-9.5 -120.5q0 -62 7.5 -102t25.5 -59.5t51 -19.5q9 0 18 1.5t18 4.5l14 -62q-13 -6 -33 -9.5t-39 -3.5z" />
    <glyph glyph-name="hoNo-lao" unicode="&#xedc;" horiz-adv-x="961" 
d="M240 -10q-79 0 -120.5 40.5t-41.5 118.5v367h88v-373q0 -81 75 -81t75 81v256q0 26 -11 46.5t-34 36.5l62 44q16 -7 30 -20.5t24 -33.5h4q23 23 53.5 38.5t72.5 15.5q59 0 91.5 -34.5t32.5 -99.5v-249q0 -40 21 -60.5t57 -20.5t54 22t18 68v364h88v-369
q0 -78 -34.5 -117.5t-100.5 -39.5q-45 0 -78.5 18t-53.5 54h-3q-8 -24 -20 -42t-26 -30l-64 48q27 25 41.5 59t14.5 76v204q0 38 -19.5 57t-54.5 19q-40 0 -59.5 -22t-19.5 -60v-222q0 -78 -41 -118.5t-121 -40.5z" />
    <glyph glyph-name="hoMo-lao" unicode="&#xedd;" horiz-adv-x="982" 
d="M240 -10q-79 0 -120.5 40.5t-41.5 118.5v367h88v-373q0 -81 75 -81t75 81v256q0 26 -11 46.5t-34 36.5l62 44q15 -7 29.5 -21t24.5 -33h4q15 15 33 27.5t42.5 19.5t55.5 7q65 0 102.5 -34t37.5 -99v-242q0 -43 21 -66t58 -23q36 0 53.5 21t17.5 61v372h88v-365
q0 -79 -34.5 -120t-102.5 -41q-41 0 -69.5 15.5t-45.5 43.5h-27l24 26v-17q0 -34 -25.5 -51t-65.5 -17q-45 0 -69.5 21.5t-31.5 61.5l64 15q5 -14 14 -22t21 -8q24 0 24 26v293q0 36 -23.5 56.5t-61.5 20.5q-43 0 -66 -23.5t-23 -59.5v-222q0 -78 -41 -118.5t-121 -40.5z
" />
    <glyph glyph-name="khmuGo-lao" unicode="&#xede;" horiz-adv-x="611" 
d="M92 -10q-16 0 -35 3.5t-37 10.5l13 61q9 -2 18 -3.5t16 -1.5q17 0 28 8.5t11 29.5v245q0 51 -17 83t-38 51l64 49q14 -11 29 -32.5t24 -43.5h3q23 29 49.5 45.5t57 23.5t62.5 7q60 0 101.5 -21.5t63 -64t21.5 -106.5v-334h-88v328q0 40 -11.5 68t-37 43t-67.5 15
q-22 0 -45 -5.5t-41.5 -18.5t-30 -35.5t-11.5 -57.5v-236q0 -52 -27 -81.5t-75 -29.5zM368 195q-56 0 -81 24.5t-25 55.5q0 14 4 30.5t11 26.5l67 -11q-2 -4 -3.5 -13t-1.5 -16q0 -13 8 -22t27 -9h207v-66h-213z" />
    <glyph glyph-name="khmuNyo-lao" unicode="&#xedf;" horiz-adv-x="612" 
d="M300 -10q-115 0 -173.5 43.5t-58.5 119.5q0 40 13.5 65.5t35 39t44.5 16.5v4q-20 6 -42 20t-36.5 38t-14.5 59q0 33 16 63t51 49t92 19q26 0 51.5 -4t39.5 -11l-15 -67q-10 4 -27.5 7t-36.5 3q-41 0 -62 -18t-21 -50q0 -30 16 -47t36.5 -23.5t34.5 -6.5h20v-63h-20
q-36 0 -61.5 -21.5t-25.5 -65.5q0 -30 15 -52t46.5 -33.5t82.5 -11.5q49 0 79.5 11t45 35t14.5 61v347h88v-337q0 -66 -26 -108t-76.5 -61.5t-124.5 -19.5zM403 224q-56 0 -81 24.5t-25 55.5q0 14 4 30.5t11 26.5l67 -11q-2 -4 -3.5 -13t-1.5 -16q0 -13 8 -22t27 -9h193v-66
h-199z" />
    <glyph glyph-name="uni200B" unicode="&#x200b;" 
 />
    <glyph glyph-name="uni200C" unicode="&#x200c;" 
d="M-21 -133v761h42v-761h-42z" />
    <glyph glyph-name="uni200D" unicode="&#x200d;" 
d="M-21 -133v668l-62 -62l-26 27l82 82l-82 81l26 27l83 -83l83 83l26 -27l-82 -81l82 -82l-26 -27l-62 62v-668h-42z" />
    <glyph glyph-name="kip" unicode="&#x20ad;" horiz-adv-x="583" 
d="M97 0v714h91v-314h43l233 314h104l-258 -333l269 -381h-107l-227 334h-57v-334h-91zM10 334v66h510v-66h-510z" />
    <glyph glyph-name="dottedCircle" unicode="&#x25cc;" horiz-adv-x="594" 
d="M502 349q-11 0 -18.5 7.5t-7.5 19.5q0 11 7.5 18.5t19.5 7.5q11 0 18.5 -7.5t7.5 -18.5q0 -12 -7.5 -19.5t-19.5 -7.5zM140 107q-11 0 -18.5 7.5t-7.5 18.5q0 12 7.5 19.5t18.5 7.5q12 0 19.5 -7.5t7.5 -19.5q0 -11 -7.5 -18.5t-19.5 -7.5zM92 180q-12 0 -19.5 7.5
t-7.5 18.5q0 12 7.5 19.5t19.5 7.5q11 0 18.5 -7.5t7.5 -19.5q0 -11 -7.5 -18.5t-18.5 -7.5zM212 60q-11 0 -18.5 7t-7.5 18q0 12 7.5 19.5t18.5 7.5q27 0 27 -25q0 -12 -7.5 -19.5t-19.5 -7.5zM75 265q-12 0 -19.5 7.5t-7.5 18.5t7.5 18.5t19.5 7.5q11 0 18.5 -7.5
t7.5 -18.5t-7.5 -18.5t-18.5 -7.5zM297 42q-11 0 -18.5 7.5t-7.5 19.5q0 11 7.5 18.5t18.5 7.5t18.5 -7.5t7.5 -18.5q0 -12 -7.5 -19.5t-18.5 -7.5zM93 349q-12 0 -20 7.5t-8 19.5q0 11 7.5 18.5t19.5 7.5q11 0 18.5 -7.5t7.5 -18.5q0 -27 -25 -27zM383 60q-12 0 -20 7
t-8 18q0 12 8 19.5t20 7.5q25 0 25 -27q0 -25 -25 -25zM455 107q-12 0 -19.5 7.5t-7.5 18.5q0 12 7.5 19.5t19.5 7.5q25 0 25 -27q0 -11 -7 -18.5t-18 -7.5zM140 422q-11 0 -18.5 7t-7.5 18q0 12 7.5 20t18.5 8q12 0 19.5 -7.5t7.5 -19.5q0 -11 -7.5 -18.5t-19.5 -7.5z
M212 470q-11 0 -18.5 7.5t-7.5 18.5q0 12 7.5 19.5t18.5 7.5q12 0 19.5 -7.5t7.5 -19.5q0 -11 -7.5 -18.5t-19.5 -7.5zM502 180q-11 0 -18.5 7.5t-7.5 18.5q0 12 7.5 19.5t18.5 7.5q12 0 19.5 -7.5t7.5 -19.5q0 -11 -7.5 -18.5t-19.5 -7.5zM297 487q-11 0 -18.5 7.5
t-7.5 19.5q0 11 7.5 18.5t18.5 7.5t18.5 -7.5t7.5 -18.5q0 -12 -7.5 -19.5t-18.5 -7.5zM521 265q-12 0 -19.5 7.5t-7.5 18.5t7.5 18.5t19.5 7.5q11 0 18 -7.5t7 -18.5t-7 -18.5t-18 -7.5zM383 470q-12 0 -20 7.5t-8 18.5q0 12 8 19.5t20 7.5q25 0 25 -27q0 -11 -7 -18.5
t-18 -7.5zM455 422q-12 0 -19.5 7.5t-7.5 18.5q0 12 7.5 19.5t19.5 7.5q25 0 25 -27q0 -11 -7 -18.5t-18 -7.5z" />
    <glyph glyph-name="amVowel-lao.narrow" horiz-adv-x="318" 
d="M148 0v398q0 32 -14.5 45.5t-45.5 13.5q-22 0 -41 -5.5t-32 -10.5l-14 64q20 9 49 15t58 6q56 0 92 -27t36 -88v-411h-88zM-336 595q-46 0 -74.5 27t-28.5 70q0 44 28.5 70t74.5 26q47 0 76 -26t29 -70q0 -43 -29 -70t-76 -27zM-336 648q21 0 33.5 12.5t12.5 32.5
t-12.5 31.5t-32.5 11.5q-21 0 -33.5 -12t-12.5 -32t12.5 -32t32.5 -12z" />
    <glyph glyph-name="niggahita_maiEk-lao" 
d="M-306 595q-46 0 -74.5 27t-28.5 70q0 44 28.5 70t74.5 26q47 0 76 -26t29 -70q0 -43 -29 -70t-76 -27zM-306 648q21 0 33.5 12.5t12.5 31.5q0 20 -13 32t-33 12q-21 0 -33 -12t-12 -32t12.5 -32t32.5 -12zM-332 824v152h71v-152h-71z" />
    <glyph glyph-name="niggahita_maiTho-lao" 
d="M-306 595q-46 0 -74.5 27t-28.5 70q0 44 28.5 70t74.5 26q47 0 76 -26t29 -70q0 -43 -29 -70t-76 -27zM-306 648q21 0 33.5 12.5t12.5 31.5q0 20 -13 32t-33 12q-21 0 -33 -12t-12 -32t12.5 -32t32.5 -12zM-442 825v41q32 5 55 14t23 29q0 13 -9.5 19t-23.5 6
q-10 0 -19.5 -2.5t-16.5 -7.5l-18 46q14 8 34.5 13.5t44.5 5.5q38 0 59.5 -14t21.5 -43q0 -16 -6.5 -26.5t-17.5 -18.5h173v-62h-300z" />
    <glyph glyph-name="niggahita_maiTi-lao" 
d="M-306 595q-46 0 -74.5 27t-28.5 70q0 44 28.5 70t74.5 26q47 0 76 -26t29 -70q0 -43 -29 -70t-76 -27zM-306 648q21 0 33.5 12.5t12.5 31.5q0 20 -13 32t-33 12q-21 0 -33 -12t-12 -32t12.5 -32t32.5 -12zM-384 821q-39 0 -59.5 24.5t-20.5 57.5q0 35 23 60.5t66 25.5
l55 -33l51 33q33 0 61 -16.5t28 -51.5q0 -11 -3.5 -22.5t-8.5 -18.5h73v-55h-157v39q16 2 26 12.5t10 26.5q0 14 -8 23.5t-23 11.5l-47 -27h-5l-48 27q-16 -1 -24 -11t-8 -24q0 -13 7.5 -23t24.5 -10q5 0 10 1t9 2l8 -43q-7 -4 -17.5 -6.5t-22.5 -2.5z" />
    <glyph glyph-name="niggahita_maiCatawa-lao" 
d="M-306 595q-46 0 -74.5 27t-28.5 70q0 44 28.5 70t74.5 26q47 0 76 -26t29 -70q0 -43 -29 -70t-76 -27zM-306 648q21 0 33.5 12.5t12.5 31.5q0 20 -13 32t-33 12q-21 0 -33 -12t-12 -32t12.5 -32t32.5 -12zM-339 825v55h-66v59h66v55h73v-55h66v-59h-66v-55h-73z" />
    <glyph glyph-name="maiEk-lao.small" 
d="M-157 882v152h71v-152h-71z" />
    <glyph glyph-name="maiTho-lao.small" 
d="M-272 882v41q32 5 55 14t23 29q0 13 -9.5 19t-23.5 6q-10 0 -19.5 -2.5t-16.5 -7.5l-18 46q14 8 34.5 13.5t44.5 5.5q38 0 59.5 -14t21.5 -43q0 -16 -6.5 -26.5t-17.5 -18.5h173v-62h-300z" />
    <glyph glyph-name="maiTi-lao.small" 
d="M-245 878q-39 0 -59.5 24.5t-20.5 57.5q0 35 23 60.5t66 25.5l55 -33l51 33q33 0 61 -16.5t28 -51.5q0 -11 -3.5 -22.5t-8.5 -18.5h73v-55h-157v39q16 2 26 12.5t10 26.5q0 14 -8 23.5t-23 11.5l-47 -27h-5l-48 27q-16 -1 -24 -11t-8 -24q0 -13 7.5 -23t24.5 -10
q5 0 10 1t9 2l8 -43q-7 -4 -17.5 -6.5t-22.5 -2.5z" />
    <glyph glyph-name="maiCatawa-lao.small" 
d="M-160 882v55h-66v59h66v55h73v-55h66v-59h-66v-55h-73z" />
    <glyph glyph-name="karan-lao.small" 
d="M-237 873q-7 11 -12 28.5t-5 33.5q0 31 21 55.5t81 24.5h135v-68h-112q-19 0 -30.5 -7t-11.5 -24q0 -7 2.5 -15t6.5 -16z" />
    <glyph glyph-name="maiKanVowel-lao.narrow" 
d="M-453 608q-53 0 -78 19.5t-25 59.5q0 18 4.5 34.5t11.5 27.5h75q-4 -9 -7 -18.5t-3 -17.5q0 -16 11 -26.5t35 -10.5h215v-68h-239z" />
    <glyph glyph-name="iVowel-lao.narrow" 
d="M-457 598q-40 0 -71 12.5t-48.5 35.5t-17.5 54q0 36 24 63.5t68 43t102 15.5q59 0 102.5 -15.5t67.5 -43t24 -63.5q0 -31 -17.5 -54t-48 -35.5t-71.5 -12.5l-11 47q21 2 36.5 9.5t24 19.5t8.5 26q0 19 -14.5 32.5t-40 21.5t-60.5 8q-52 0 -84 -17t-32 -44
q0 -15 9.5 -26.5t26 -19t36.5 -10.5z" />
    <glyph glyph-name="iiVowel-lao.narrow" 
d="M-477 598q-40 0 -71 12.5t-48.5 35.5t-17.5 54q0 36 24 63.5t68 43t103 15.5t102.5 -14.5t67.5 -39.5t24 -57q0 -17 -8 -32t-26 -24v-2q7 2 20 3.5t27 1.5h33v-60h-180l-13 50q21 4 36 11t23 17.5t8 23.5q0 28 -31.5 45t-83.5 17q-51 0 -83.5 -17t-32.5 -44q0 -14 9 -26
t25.5 -19.5t37.5 -10.5z" />
    <glyph glyph-name="euVowel-lao.narrow" 
d="M-457 598q-40 0 -71 12.5t-48.5 35.5t-17.5 54q0 36 24 63.5t68 43t102 15.5q59 0 102.5 -15.5t67.5 -43t24 -63.5q0 -31 -17.5 -54t-48 -35.5t-71.5 -12.5l-11 47q21 2 36.5 9.5t24 19.5t8.5 26q0 19 -14.5 32.5t-40 21.5t-60.5 8q-52 0 -84 -17t-32 -44
q0 -15 9.5 -26.5t26 -19t36.5 -10.5zM-400 655q-17 0 -29 12.5t-12 28.5q0 17 12 29t29 12t29 -12t12 -29q0 -16 -12 -28.5t-29 -12.5z" />
    <glyph glyph-name="euuVowel-lao.narrow" 
d="M-477 598q-40 0 -71 12.5t-48.5 35.5t-17.5 54q0 36 24 63.5t68 43t103 15.5t102.5 -14.5t67.5 -39.5t24 -57q0 -17 -8 -32t-26 -24v-2q7 2 20 3.5t27 1.5h33v-60h-180l-13 50q21 4 36 11t23 17.5t8 23.5q0 28 -31.5 45t-83.5 17q-51 0 -83.5 -17t-32.5 -44q0 -14 9 -26
t25.5 -19.5t37.5 -10.5zM-420 655q-16 0 -28.5 12.5t-12.5 28.5q0 17 12.5 29t28.5 12q17 0 29.5 -12t12.5 -29q0 -16 -12.5 -28.5t-29.5 -12.5z" />
    <glyph glyph-name="maiKonVowel-lao.narrow" 
d="M-540 608q-7 11 -11.5 26.5t-4.5 31.5q0 31 21.5 55t81.5 24h239v-67h-216q-20 0 -31.5 -7.5t-11.5 -24.5q0 -7 2 -18.5t6 -19.5h-75z" />
    <glyph glyph-name="uVowel-lao.narrow" 
d="M-277 -244v89q0 14 -6.5 20t-17.5 6q-7 0 -14.5 -1.5t-13.5 -3.5l-13 53q11 5 30.5 9t36.5 4q31 0 51 -17t20 -62v-97h-73z" />
    <glyph glyph-name="uuVowel-lao.narrow" 
d="M-329 -249q-61 0 -92 23.5t-31 63.5v14q0 10 -3.5 14.5t-13.5 4.5q-5 0 -8 -0.5t-7 -1.5l-6 55q13 5 26 6.5t23 1.5q35 0 50 -15t15 -41v-30q0 -16 9.5 -26.5t37.5 -10.5q29 0 38.5 10t9.5 27v83h77v-86q0 -43 -30 -67.5t-95 -24.5z" />
    <glyph glyph-name="loVowel-lao.narrow" 
d="M-502 -178q-7 9 -11 21t-4 25q0 26 20.5 47.5t73.5 21.5q33 0 58 -7t47.5 -14.5t46.5 -7.5q15 0 31.5 4t35.5 14v-63q-19 -10 -36.5 -14t-32.5 -4q-25 0 -47.5 7t-43.5 14t-44 7q-16 0 -22.5 -4.5t-6.5 -14.5q0 -7 3 -16t7 -16h-75z" />
    <glyph glyph-name="maiEk-lao.narrow" 
d="M-370 608v168h82v-168h-82z" />
    <glyph glyph-name="maiTho-lao.narrow" 
d="M-487 608v40q38 5 60 22.5t22 42.5q0 17 -10 26.5t-28 9.5q-10 0 -19 -2.5t-16 -6.5l-18 45q14 9 34.5 14t42.5 5q43 0 65.5 -19t22.5 -53q0 -19 -7 -34t-18 -24h135v-66h-266z" />
    <glyph glyph-name="maiTi-lao.narrow" 
d="M-445 605q-40 0 -63.5 23.5t-23.5 65.5q0 43 25 67t70 24l54 -35l48 35q48 0 74 -18.5t26 -51.5q0 -13 -3.5 -25t-11.5 -23h98v-59h-189v38q17 2 26 15t9 30t-8 27t-22 12l-41 -26h-13l-42 26q-13 -1 -22 -9.5t-9 -28.5q0 -18 9 -29.5t25 -11.5q4 0 8 1l8 2l6 -41
q-5 -4 -15.5 -6t-22.5 -2z" />
    <glyph glyph-name="maiCatawa-lao.narrow" 
d="M-391 608v67h-84v60h84v67h84v-67h84v-60h-84v-67h-84z" />
    <glyph glyph-name="karan-lao.narrow" 
d="M-420 601q-9 13 -14 31.5t-5 37.5q0 45 26.5 69t74.5 24h118v-68h-89q-20 0 -32 -11.5t-12 -31.5q0 -10 3.5 -20.5t9.5 -19.5z" />
    <glyph glyph-name="niggahita_maiEk-lao.right" 
d="M-138 595q-46 0 -74.5 27t-28.5 70q0 44 28.5 70t74.5 26q47 0 76 -26t29 -70q0 -43 -29 -70t-76 -27zM-138 648q21 0 33.5 12.5t12.5 31.5q0 20 -13 32t-33 12q-21 0 -33 -12t-12 -32t12.5 -32t32.5 -12zM-164 824v152h71v-152h-71z" />
    <glyph glyph-name="niggahita_maiTho-lao.right" 
d="M-138 595q-46 0 -74.5 27t-28.5 70q0 44 28.5 70t74.5 26q47 0 76 -26t29 -70q0 -43 -29 -70t-76 -27zM-138 648q21 0 33.5 12.5t12.5 31.5q0 20 -13 32t-33 12q-21 0 -33 -12t-12 -32t12.5 -32t32.5 -12zM-274 825v41q32 5 55 14t23 29q0 13 -9.5 19t-23.5 6
q-10 0 -19.5 -2.5t-16.5 -7.5l-18 46q14 8 34.5 13.5t44.5 5.5q38 0 59.5 -14t21.5 -43q0 -16 -6.5 -26.5t-17.5 -18.5h173v-62h-300z" />
    <glyph glyph-name="niggahita_maiTi-lao.right" 
d="M-138 595q-46 0 -74.5 27t-28.5 70q0 44 28.5 70t74.5 26q47 0 76 -26t29 -70q0 -43 -29 -70t-76 -27zM-138 648q21 0 33.5 12.5t12.5 31.5q0 20 -13 32t-33 12q-21 0 -33 -12t-12 -32t12.5 -32t32.5 -12zM-216 821q-39 0 -59.5 24.5t-20.5 57.5q0 35 23 60.5t66 25.5
l55 -33l51 33q33 0 61 -16.5t28 -51.5q0 -11 -3.5 -22.5t-8.5 -18.5h73v-55h-157v39q16 2 26 12.5t10 26.5q0 14 -8 23.5t-23 11.5l-47 -27h-5l-48 27q-16 -1 -24 -11t-8 -24q0 -13 7.5 -23t24.5 -10q5 0 10 1t9 2l8 -43q-7 -4 -17.5 -6.5t-22.5 -2.5z" />
    <glyph glyph-name="niggahita_maiCatawa-lao.right" 
d="M-138 595q-46 0 -74.5 27t-28.5 70q0 44 28.5 70t74.5 26q47 0 76 -26t29 -70q0 -43 -29 -70t-76 -27zM-138 648q21 0 33.5 12.5t12.5 31.5q0 20 -13 32t-33 12q-21 0 -33 -12t-12 -32t12.5 -32t32.5 -12zM-171 825v55h-66v59h66v55h73v-55h66v-59h-66v-55h-73z" />
    <glyph glyph-name="uVowel-lao.small" 
d="M-150 -271v69q0 15 -6.5 21.5t-15.5 6.5q-5 0 -12.5 -1t-12.5 -3l-10 49q16 7 32.5 10t29.5 3q30 0 46.5 -19t16.5 -60v-76h-68z" />
    <glyph glyph-name="uuVowel-lao.small" 
d="M-199 -271q-52 0 -80.5 18.5t-28.5 52.5v6q0 11 -3.5 15.5t-11.5 4.5q-4 0 -7 -0.5t-7 -1.5l-8 53q12 4 24.5 5.5t21.5 1.5q29 0 42.5 -14.5t13.5 -40.5v-27q0 -26 47 -26q22 0 34 7t12 19v79h68v-75q0 -36 -32 -56.5t-85 -20.5z" />
    <glyph glyph-name="maiKanVowel-lao.center" 
d="M-392 608q-53 0 -78 19.5t-25 59.5q0 18 4.5 34.5t11.5 27.5h75q-4 -9 -6.5 -18.5t-2.5 -17.5q0 -16 10.5 -26.5t34.5 -10.5h280v-68h-304z" />
    <glyph glyph-name="maiKonVowel-lao.center" 
d="M-479 608q-7 11 -11.5 27t-4.5 34q0 41 25 60.5t78 19.5h304v-68h-280q-24 0 -34.5 -10.5t-10.5 -26.5q0 -8 2.5 -17.5t6.5 -18.5h-75z" />
    <glyph glyph-name="niggahita-lao.narrow" 
d="M-336 595q-46 0 -74.5 27t-28.5 70q0 44 28.5 70t74.5 26q47 0 76 -26t29 -70q0 -43 -29 -70t-76 -27zM-336 648q21 0 33.5 12.5t12.5 32.5t-12.5 31.5t-32.5 11.5q-21 0 -33.5 -12t-12.5 -32t12.5 -32t32.5 -12z" />
    <glyph glyph-name="niggahita-lao.right" 
d="M-138 595q-46 0 -74.5 27t-28.5 70q0 44 28.5 70t74.5 26q47 0 76 -26t29 -70q0 -43 -29 -70t-76 -27zM-138 648q21 0 33.5 12.5t12.5 32.5t-12.5 31.5t-32.5 11.5q-21 0 -33.5 -12t-12.5 -32t12.5 -32t32.5 -12z" />
    <glyph glyph-name="loVowel-lao.small" 
d="M-391 -236q-7 10 -11 22.5t-4 25.5q0 36 25.5 54.5t71.5 18.5q35 0 58.5 -8t43.5 -16t45 -8q18 0 39 5.5t40 15.5v-65q-19 -10 -40.5 -16t-41.5 -6q-25 0 -45.5 8t-40 16t-42.5 8q-29 0 -29 -23q0 -7 2.5 -15.5t7.5 -16.5h-79z" />
    <glyph glyph-name="niggahita_maiEk-lao.narrow" 
d="M-336 595q-46 0 -74.5 27t-28.5 70q0 44 28.5 70t74.5 26q47 0 76 -26t29 -70q0 -43 -29 -70t-76 -27zM-336 648q21 0 33.5 12.5t12.5 31.5q0 20 -13 32t-33 12q-21 0 -33 -12t-12 -32t12.5 -32t32.5 -12zM-362 824v152h71v-152h-71z" />
    <glyph glyph-name="niggahita_maiTho-lao.narrow" 
d="M-336 595q-46 0 -74.5 27t-28.5 70q0 44 28.5 70t74.5 26q47 0 76 -26t29 -70q0 -43 -29 -70t-76 -27zM-336 648q21 0 33.5 12.5t12.5 31.5q0 20 -13 32t-33 12q-21 0 -33 -12t-12 -32t12.5 -32t32.5 -12zM-472 825v41q32 5 55 14t23 29q0 13 -9.5 19t-23.5 6
q-10 0 -19.5 -2.5t-16.5 -7.5l-18 46q14 8 34.5 13.5t44.5 5.5q38 0 59.5 -14t21.5 -43q0 -16 -6.5 -26.5t-17.5 -18.5h173v-62h-300z" />
    <glyph glyph-name="niggahita_maiTi-lao.narrow" 
d="M-336 595q-46 0 -74.5 27t-28.5 70q0 44 28.5 70t74.5 26q47 0 76 -26t29 -70q0 -43 -29 -70t-76 -27zM-336 648q21 0 33.5 12.5t12.5 31.5q0 20 -13 32t-33 12q-21 0 -33 -12t-12 -32t12.5 -32t32.5 -12zM-414 821q-39 0 -59.5 24.5t-20.5 57.5q0 35 23 60.5t66 25.5
l55 -33l51 33q33 0 61 -16.5t28 -51.5q0 -11 -3.5 -22.5t-8.5 -18.5h73v-55h-157v39q16 2 26 12.5t10 26.5q0 14 -8 23.5t-23 11.5l-47 -27h-5l-48 27q-16 -1 -24 -11t-8 -24q0 -13 7.5 -23t24.5 -10q5 0 10 1t9 2l8 -43q-7 -4 -17.5 -6.5t-22.5 -2.5z" />
    <glyph glyph-name="niggahita_maiCatawa-lao.narrow" 
d="M-336 595q-46 0 -74.5 27t-28.5 70q0 44 28.5 70t74.5 26q47 0 76 -26t29 -70q0 -43 -29 -70t-76 -27zM-336 648q21 0 33.5 12.5t12.5 31.5q0 20 -13 32t-33 12q-21 0 -33 -12t-12 -32t12.5 -32t32.5 -12zM-369 825v55h-66v59h66v55h73v-55h66v-59h-66v-55h-73z" />
    <glyph glyph-name="loVowel_uVowel-lao" 
d="M-428 -135q-3 8 -4.5 15t-1.5 14q0 30 28 44t71 14q33 0 61 -5.5t55 -11.5t54 -6q21 0 42 4.5t40 14.5v-53q-19 -9 -41 -14t-45 -5q-27 0 -53.5 5.5t-51 10.5t-45.5 5q-19 0 -25.5 -5t-6.5 -13q0 -3 1 -6.5t2 -7.5h-80zM-150 -271v46q0 13 -8.5 18t-19.5 5q-5 0 -10 -1
t-9 -3l-7 43q16 7 30.5 9.5t27.5 2.5q31 0 47.5 -16.5t16.5 -51.5v-52h-68z" />
    <glyph glyph-name="loVowel_uuVowel-lao" 
d="M-428 -135q-3 8 -4.5 15t-1.5 14q0 30 28 44t71 14q33 0 61 -5.5t55 -11.5t54 -6q21 0 42 4.5t40 14.5v-53q-19 -9 -41 -14t-45 -5q-27 0 -53.5 5.5t-51 10.5t-45.5 5q-19 0 -25.5 -5t-6.5 -13q0 -3 1 -6.5t2 -7.5h-80zM-196 -271q-46 0 -74 15.5t-28 49.5v5
q0 6 -3.5 9.5t-11.5 3.5q-4 0 -7 -0.5t-7 -1.5l-6 41q12 4 24 5.5t22 1.5q27 0 40.5 -11.5t13.5 -37.5v-8q0 -12 9.5 -19t31.5 -7q23 0 32.5 7t9.5 19v60h68v-55q0 -36 -29 -56.5t-85 -20.5z" />
  </font>
</defs>
</svg>
