<?xml version="1.0" standalone="no"?>
<!DOCTYPE svg PUBLIC "-//W3C//DTD SVG 1.1//EN" "http://www.w3.org/Graphics/SVG/1.1/DTD/svg11.dtd" >
<svg>
<metadata>
Created by FontForge 20090622 at Fri May  8 19:17:15 2020
 By deploy user
Copyright 2017 Google Inc. All Rights Reserved.
</metadata>
<defs>
<font id="NotoSansTamil-Regular" horiz-adv-x="572" >
  <font-face 
    font-family="Noto Sans Tamil"
    font-weight="400"
    font-stretch="normal"
    units-per-em="1000"
    panose-1="0 0 0 0 0 0 0 0 0 0"
    ascent="800"
    descent="-200"
    bbox="-586 -321 2188 870"
    underline-thickness="50"
    underline-position="-75"
    unicode-range="U+000D-U+1133C"
  />
<missing-glyph horiz-adv-x="600" 
d="M94 0v714h411v-714h-411zM145 51h309v612h-309v-612z" />
    <glyph glyph-name=".notdef" horiz-adv-x="600" 
d="M94 0v714h411v-714h-411zM145 51h309v612h-309v-612z" />
    <glyph glyph-name="NULL" horiz-adv-x="0" 
 />
    <glyph glyph-name="CR" unicode="&#xd;" horiz-adv-x="260" 
 />
    <glyph glyph-name="space" unicode=" " horiz-adv-x="260" 
 />
    <glyph glyph-name="anusvaratamil" unicode="&#xb82;" horiz-adv-x="352" 
d="M56 722q0 53 33.5 87t86.5 34t86.5 -34t33.5 -87t-33.5 -86.5t-86.5 -33.5t-86.5 33.5t-33.5 86.5zM116 722q0 -27 16.5 -44.5t43.5 -17.5q26 0 43 17.5t17 44.5q0 28 -17 45.5t-43 17.5q-27 0 -43.5 -17.5t-16.5 -45.5z" />
    <glyph glyph-name="visargatamil" unicode="&#xb83;" horiz-adv-x="896" 
d="M222 -11q-54 0 -94 23t-61.5 64.5t-21.5 96.5q0 56 22.5 96.5t62 63t90.5 22.5q52 0 91 -22.5t61 -63.5t22 -96q0 -56 -22 -97.5t-61 -64t-89 -22.5zM221 60q38 0 64.5 28.5t26.5 85.5q0 56 -27 83t-65 27q-40 0 -66.5 -28t-26.5 -84q0 -57 27 -84.5t67 -27.5zM679 -11
q-54 0 -93.5 22.5t-61.5 64t-22 97.5t22.5 96.5t62 63t90.5 22.5q52 0 91 -22.5t61 -63.5t22 -96q0 -56 -22 -97.5t-61 -64t-89 -22.5zM678 60q38 0 64.5 28.5t26.5 85.5q0 56 -27.5 83t-64.5 27q-40 0 -66.5 -28t-26.5 -84q0 -57 27 -84.5t67 -27.5zM450 477
q-54 0 -94 22.5t-61.5 64t-21.5 97.5t22.5 96.5t62 63t90.5 22.5q52 0 91 -22.5t61 -63.5t22 -96q0 -56 -22 -97.5t-61 -64t-89 -22.5zM449 548q38 0 64.5 28.5t26.5 85.5q0 56 -27 83t-65 27q-40 0 -66.5 -28t-26.5 -84q0 -57 27 -84.5t67 -27.5z" />
    <glyph glyph-name="atamil" unicode="&#xb85;" horiz-adv-x="1121" 
d="M321 -124q-97 0 -162 23.5t-97.5 65t-32.5 95.5q0 25 11 49t34 40q13 9 28 15t39.5 9t64.5 3h747l3 -72h-739q-31 0 -47.5 -1t-24.5 -4t-16 -9q-15 -12 -15 -34q0 -49 53 -78t160 -29h17q101 0 173.5 23.5t120 64.5t71.5 93l4 19q9 25 13 50.5t4 51.5q0 58 -20 110
t-61.5 87.5t-106.5 45.5q-13 2 -24.5 2.5t-24.5 0.5q-31 0 -57 -11t-41.5 -33t-15.5 -56q0 -37 22.5 -62.5t63.5 -25.5q38 0 60.5 23.5t22.5 67.5q0 33 -10.5 59.5t-36.5 50.5l57 17q18 -15 33.5 -35t25 -44.5t9.5 -51.5q0 -35 -10.5 -63.5t-31.5 -49t-51.5 -31.5t-69.5 -11
q-45 0 -82 17t-59 51t-22 84q0 62 29 100t75.5 55.5t98.5 17.5q77 0 135.5 -26t98 -71t59.5 -101t20 -116q0 -27 -3 -52.5t-9 -49.5l-6 -22q-28 -82 -93.5 -138t-158 -85t-204.5 -29h-21zM947 -154v708h86v-708h-86z" />
    <glyph glyph-name="aatamil" unicode="&#xb86;" horiz-adv-x="1313" 
d="M321 -124q-97 0 -162 23.5t-97.5 65t-32.5 95.5q0 25 11 49t34 40q13 9 28 15t39.5 9t64.5 3h747l3 -72h-739q-31 0 -47.5 -1t-24.5 -4t-16 -9q-15 -12 -15 -34q0 -49 53 -78t160 -29h17q101 0 173.5 23.5t120 64.5t71.5 93l4 19q9 25 13 50.5t4 51.5q0 58 -20 110
t-61.5 87.5t-106.5 45.5q-13 2 -24.5 2.5t-24.5 0.5q-31 0 -57 -11t-41.5 -33t-15.5 -56q0 -37 22.5 -62.5t63.5 -25.5q38 0 60.5 23.5t22.5 67.5q0 33 -10.5 59.5t-36.5 50.5l57 17q18 -15 33.5 -35t25 -44.5t9.5 -51.5q0 -35 -10.5 -63.5t-31.5 -49t-51.5 -31.5t-69.5 -11
q-45 0 -82 17t-59 51t-22 84q0 62 29 100t75.5 55.5t98.5 17.5q77 0 135.5 -26t98 -71t59.5 -101t20 -116q0 -27 -3 -52.5t-9 -49.5l-6 -22q-28 -82 -93.5 -138t-158 -85t-204.5 -29h-21zM922 -321q-130 0 -202 43.5t-72 123.5q0 29 14.5 54.5t45 42t76.5 16.5q26 0 54 -5.5
t53 -15.5l-14 -65q-22 7 -44.5 12t-42.5 5q-31 0 -48 -12t-17 -35q0 -24 18.5 -45t62.5 -34t120 -13h7q86 0 151.5 21.5t103 63.5t37.5 101q0 44 -25 69t-69 25q-32 0 -56.5 -8.5t-41.5 -21.5v69q20 12 47 21t65 9q41 0 78.5 -18t61.5 -54.5t24 -92.5q0 -76 -46 -134
t-131.5 -90t-203.5 -32h-6zM947 -124v678h86v-678h-86z" />
    <glyph glyph-name="itamil" unicode="&#xb87;" horiz-adv-x="1126" 
d="M256 -321q-65 0 -111.5 22.5t-71 64.5t-24.5 100q0 71 36.5 125t97.5 90q59 35 136 52.5t160 17.5q80 0 145.5 -13.5t115.5 -37.5q57 -27 95 -64.5t56.5 -81t18.5 -88.5q0 -87 -54.5 -137t-157.5 -50q-70 0 -136.5 19.5t-128.5 58.5q-52 25 -101 68t-90.5 96.5
t-70.5 108.5q-46 83 -70.5 167.5t-24.5 181.5q0 87 29.5 170t90 149t153 105.5t218.5 39.5q123 0 211.5 -34t146.5 -102q38 -45 63 -100t37.5 -124.5t12.5 -160.5v-322h-86v272q0 96 -11 171t-35 131.5t-63 96.5q-47 49 -114 73t-162 24q-84 0 -157.5 -25.5t-129 -75.5
t-87 -123t-31.5 -169q0 -62 9 -113.5t27 -98.5t43 -96q23 -49 62 -100t91 -96t112 -77q43 -24 87.5 -33.5t95.5 -9.5q74 0 104.5 33.5t30.5 86.5q0 51 -31 93t-80 67q-48 25 -108.5 36.5t-123.5 11.5q-88 0 -153.5 -17.5t-107.5 -45.5q-44 -29 -65 -66.5t-21 -77.5
q0 -55 31.5 -88t102.5 -33q44 0 84 6.5t79 28.5q62 28 114 76t89.5 106t53.5 115q14 41 20.5 82.5t6.5 84.5q0 72 -19.5 121.5t-50.5 78.5t-65 40l-50 5q-7 1 -16.5 1.5t-18.5 0.5q-36 0 -64.5 -10.5t-45.5 -32.5t-17 -55q0 -37 22.5 -62t63.5 -25q37 0 60 23.5t23 66.5
q0 32 -12 59t-38 54l80 -5q14 -14 24.5 -32.5t17 -40t6.5 -45.5q0 -43 -19 -76.5t-55 -52.5t-89 -19q-45 0 -82 19t-59 54t-22 81q0 57 29.5 94.5t80.5 55.5t114 18q96 0 160 -39t96.5 -109t32.5 -164q0 -44 -9 -103t-34 -116q-22 -61 -57.5 -114t-81.5 -96t-100 -74
q-64 -34 -130 -53t-134 -19z" />
    <glyph glyph-name="iitamil" unicode="&#xb88;" horiz-adv-x="707" 
d="M88 0v554h594v-72h-199v-482h-86v482h-223v-482h-86zM286 214q-27 0 -45.5 18t-18.5 46q0 27 18 45t46 18q27 0 45 -18t18 -45q0 -28 -18 -46t-45 -18zM594 214q-27 0 -45.5 18t-18.5 46q0 27 18 45t46 18q27 0 45 -18t18 -45q0 -28 -18 -46t-45 -18z" />
    <glyph glyph-name="utamil" unicode="&#xb89;" horiz-adv-x="1067" 
d="M298 566q107 0 174 -29.5t98.5 -79t31.5 -108.5q0 -58 -21 -96.5t-60 -62t-93 -36t-119 -19.5l-80 -8q-55 -5 -69 -12t-14 -20q0 -12 8.5 -17.5t27.5 -5.5h868v-72h-859q-47 0 -75.5 12.5t-41 34t-12.5 47.5q0 30 16 51t52 34t96 19l77 7q91 9 136.5 30.5t61 51.5
t15.5 62q0 42 -21.5 74t-63 51.5t-101.5 21.5l-28 1h-22.5h-16.5q-54 0 -90.5 -24t-36.5 -74q0 -37 21 -62t65 -25q38 0 60.5 23.5t22.5 66.5q0 29 -10.5 56.5t-36.5 51.5l60 17q18 -14 32.5 -34.5t23.5 -45.5t9 -55q0 -65 -41.5 -106.5t-121.5 -41.5q-48 0 -84.5 19
t-57.5 54t-21 81q0 57 31 94.5t85.5 55.5t124.5 18z" />
    <glyph glyph-name="uutamil" unicode="&#xb8a;" horiz-adv-x="1540" 
d="M298 566q107 0 174 -29.5t98.5 -79t31.5 -108.5q0 -58 -21 -96.5t-60 -62t-93 -36t-119 -19.5l-80 -8q-36 -3 -53.5 -7.5t-23 -10t-5.5 -14.5q0 -12 8 -17.5t27 -5.5h1312v-72h-1303q-47 0 -75.5 12.5t-41 34t-12.5 47.5q0 30 16 51t52 34t96 19l72 7q70 7 113 21
t66 33.5t31 42.5t8 47q0 42 -21.5 74t-63 51.5t-101.5 21.5l-28 1h-22.5h-16.5q-54 0 -90.5 -24t-36.5 -74q0 -37 22.5 -62t63.5 -25q37 0 60 23.5t23 66.5q0 29 -10.5 56.5t-36.5 51.5l60 17q18 -14 32.5 -34.5t23.5 -45.5t9 -55q0 -65 -42 -106.5t-121 -41.5q-45 0 -82 19
t-59 54t-22 81q0 57 31 94.5t85.5 55.5t124.5 18zM858 132q-43 0 -80.5 20t-60 63t-22.5 110q0 84 34 137t88 78.5t114 25.5q56 0 95 -15t70 -39l-14 -89q-26 32 -58.5 52.5t-86.5 20.5q-48 0 -84 -19t-57.5 -52.5t-25.5 -78.5l-1 -25q0 -46 11.5 -73.5t31.5 -39.5t46 -12
q19 0 33 8t22.5 23t8.5 36q0 33 -20 51.5t-52 18.5q-29 0 -55 -19.5t-49 -54.5l-15 58q24 36 60 58.5t76 22.5q59 0 94.5 -35t35.5 -93q0 -64 -37 -101t-102 -37zM1077 144v323l13 30v57h404v-68h-118v-342h-82v342h-135v-342h-82z" />
    <glyph glyph-name="etamil" unicode="&#xb8e;" horiz-adv-x="801" 
d="M249 -12q-53 0 -97 26t-69.5 81.5t-25.5 143.5q0 77 25 134t68 95q32 29 73 48t97 28.5t131 9.5h57v-72h-69q-64 0 -107 -7.5t-70.5 -20.5t-47.5 -31q-38 -34 -58 -82t-20 -109q0 -64 15.5 -103t42 -56t59.5 -17q27 0 46.5 11.5t30 33.5t10.5 54q0 50 -26 76.5t-67 26.5
q-40 0 -75 -21t-64 -53l-15 64q30 35 74.5 57.5t93.5 22.5q72 0 116.5 -44t44.5 -119q0 -55 -21 -95t-59.5 -61t-92.5 -21zM528 0v482h-36l2 72h290v-72h-170v-482h-86z" />
    <glyph glyph-name="eetamil" unicode="&#xb8f;" horiz-adv-x="801" 
d="M392 -212l-57 53l193 183v458h-36l2 72h290v-72h-170v-482zM249 -12q-53 0 -97 26t-69.5 81.5t-25.5 143.5q0 77 25 134t68 95q32 29 73 48t97 28.5t131 9.5h57v-72h-69q-64 0 -107 -7.5t-70.5 -20.5t-47.5 -31q-38 -34 -58 -82t-20 -109q0 -62 15.5 -101t42 -57
t60.5 -18q26 0 45 11.5t30 33.5t11 54q0 50 -26 76.5t-67 26.5q-40 0 -75 -21t-64 -53l-15 64q30 35 74.5 57.5t93.5 22.5q72 0 116.5 -44t44.5 -119q0 -55 -21 -95t-59.5 -61t-92.5 -21z" />
    <glyph glyph-name="aitamil" unicode="&#xb90;" horiz-adv-x="1022" 
d="M338 -321q-92 0 -153 31t-91.5 82.5t-30.5 112.5q0 55 18.5 94.5t49.5 65.5q35 29 82 44t103 20.5t116 5.5h89q76 0 134 5.5t100 18.5t68 37q25 23 36.5 57t11.5 81q0 53 -19 88t-52 53t-74 18q-29 0 -51.5 -8.5t-39.5 -27.5q-19 -23 -27 -53.5t-8 -84.5v-114h-87v92
q0 45 -9 81.5t-29.5 63t-54 40.5t-83.5 14q-31 0 -48 -2.5t-37 -9.5l-35 -14q-27 -14 -43.5 -33.5t-24 -42t-7.5 -46.5q0 -43 21.5 -69.5t70.5 -26.5q39 0 63.5 22t24.5 61q0 35 -18.5 60.5t-51 39t-74.5 13.5l64 46q46 -4 82.5 -23.5t58 -52t21.5 -76.5q0 -72 -46.5 -115
t-122.5 -43q-56 0 -94.5 21.5t-58 58t-19.5 81.5q0 70 37 119.5t98.5 75.5t132.5 26q73 0 118.5 -19t71 -48t38.5 -60l-18 -9q15 43 40.5 73.5t62.5 46.5t85 16q75 0 126 -29.5t77.5 -81.5t26.5 -120q0 -67 -20 -114t-56 -78q-38 -33 -91.5 -50t-117 -23.5t-132.5 -6.5h-94
q-66 0 -116.5 -4t-86 -16t-58.5 -35q-19 -19 -27.5 -44t-8.5 -57q0 -54 25.5 -88t68.5 -50.5t95 -16.5q42 0 73.5 8.5t53.5 27.5q26 23 36 54t10 85v62h87v-36q0 -40 5 -73t17 -58q17 -34 47.5 -52t79.5 -18q32 0 60 13.5t45.5 44.5t17.5 85q0 28 -7 63t-18 58l85 29
q13 -34 20 -69t7 -84q0 -69 -27.5 -116.5t-75 -72t-106.5 -24.5q-65 0 -105.5 20t-63 50t-33.5 60l18 4q-16 -43 -48 -73t-77.5 -45.5t-102.5 -15.5z" />
    <glyph glyph-name="otamil" unicode="&#xb92;" horiz-adv-x="985" 
d="M766 64q-42 0 -77.5 14t-56.5 45t-21 80q0 23 6.5 51t22.5 45l12 -4q-53 -29 -79 -70t-26 -91q0 -36 10 -63.5t29 -47.5q20 -21 47.5 -34.5t67 -19.5t95.5 -6h80v-71h-86q-52 0 -82 4t-52 10q-71 20 -112.5 53.5t-59.5 76.5t-18 90q0 49 19.5 92t56 79t85.5 61l81 -39
q-12 -25 -18.5 -47.5t-6.5 -50.5q0 -35 16.5 -60.5t65.5 -25.5q28 0 46 14.5t27.5 39.5t9.5 56q0 77 -43 132t-120.5 84t-181.5 29q-92 0 -164 -16.5t-120.5 -48.5t-72.5 -78l-11 -42q-1 -10 -2.5 -19t-1.5 -18q0 -45 14 -75.5t38.5 -45.5t55.5 -15q35 0 56 23t21 66
q0 44 -23.5 67.5t-62.5 23.5q-28 0 -55 -13.5t-50 -36.5l18 86q23 17 51.5 25.5t55.5 8.5q44 0 77.5 -18t52 -52t18.5 -83q0 -51 -19.5 -88t-56 -57t-88.5 -20q-47 0 -89 23.5t-67.5 69t-25.5 112.5q0 66 29.5 118t76.5 88q45 34 97.5 54t114 28.5t132.5 8.5
q127 0 217.5 -34.5t146.5 -96.5q35 -37 51 -84.5t16 -94.5q0 -33 -7.5 -67t-26.5 -62.5t-51 -45.5t-82 -17zM409 -321q-54 0 -100 18.5t-73.5 57.5t-27.5 100q0 40 14.5 83t45.5 81l74 -36q-25 -37 -36 -66t-11 -61q0 -41 17.5 -64t45 -31.5t58.5 -8.5q45 0 76.5 15.5
t55.5 43t45 61.5q9 17 23 36.5t21 27.5l76 -31q-10 -10 -21 -27.5t-18 -30.5q-27 -53 -62.5 -91t-84.5 -57.5t-118 -19.5z" />
    <glyph glyph-name="ootamil" unicode="&#xb93;" horiz-adv-x="985" 
d="M766 64q-42 0 -77.5 14t-56.5 45t-21 80q0 23 6.5 51t22.5 45l12 -4q-53 -29 -79 -70t-26 -91q0 -36 10 -63.5t29 -47.5q20 -21 47.5 -34.5t67 -19.5t95.5 -6h80v-71h-86q-52 0 -82 4t-52 10q-71 20 -112.5 53.5t-59.5 76.5t-18 90q0 49 19.5 92t56 79t85.5 61l81 -39
q-12 -25 -18.5 -47.5t-6.5 -50.5q0 -35 16.5 -60.5t65.5 -25.5q28 0 46 14.5t27.5 39.5t9.5 56q0 77 -43 132t-120.5 84t-181.5 29q-92 0 -164 -16.5t-120.5 -48.5t-72.5 -78l-11 -42q-1 -10 -2.5 -19t-1.5 -18q0 -45 14 -75.5t38.5 -45.5t55.5 -15q35 0 56 23t21 66
q0 44 -23.5 67.5t-62.5 23.5q-28 0 -55 -13.5t-50 -36.5l18 86q23 17 51.5 25.5t55.5 8.5q44 0 77.5 -18t52 -52t18.5 -83q0 -51 -19.5 -88t-56 -57t-88.5 -20q-47 0 -89 23.5t-67.5 69t-25.5 112.5q0 66 29.5 118t76.5 88q45 34 97.5 54t114 28.5t132.5 8.5
q127 0 217.5 -34.5t146.5 -96.5q35 -37 51 -84.5t16 -94.5q0 -33 -7.5 -67t-26.5 -62.5t-51 -45.5t-82 -17zM317 -7q57 0 92.5 -21t52.5 -53.5t17 -66.5q0 -32 -10.5 -57.5t-29.5 -47.5l-88 -4q23 22 34 46t11 50q0 23 -8 42.5t-25.5 31t-48.5 11.5q-17 0 -34.5 -7
t-29.5 -24.5t-12 -47.5q0 -29 11.5 -47.5t30.5 -29t41.5 -15t43.5 -4.5l69 2q39 6 67 20.5t49.5 39.5t42.5 61q10 17 17.5 28.5t14.5 19.5l81 -23q-10 -10 -17 -23l-15 -27q-27 -53 -62.5 -91t-84.5 -57.5t-118 -19.5h-21q-53 0 -98 12t-77 37q-26 21 -41 50.5t-15 69.5
q0 44 20.5 76.5t57 50.5t82.5 18z" />
    <glyph glyph-name="autamil" unicode="&#xb94;" horiz-adv-x="2051" 
d="M766 64q-42 0 -77.5 14t-56.5 45t-21 80q0 23 6.5 51t22.5 45l12 -4q-53 -29 -79 -70t-26 -91q0 -36 10 -63.5t29 -47.5q20 -21 47.5 -34.5t67 -19.5t95.5 -6h80v-71h-86q-52 0 -82 4t-52 10q-71 20 -112.5 53.5t-59.5 76.5t-18 90q0 49 19.5 92t56 79t85.5 61l81 -39
q-12 -25 -18.5 -47.5t-6.5 -50.5q0 -35 16.5 -60.5t65.5 -25.5q28 0 46 14.5t27.5 39.5t9.5 56q0 77 -43 132t-120.5 84t-181.5 29q-92 0 -164 -16.5t-120.5 -48.5t-72.5 -78l-11 -42q-1 -10 -2.5 -19t-1.5 -18q0 -45 14 -75.5t38.5 -45.5t55.5 -15q35 0 56 23t21 66
q0 44 -23.5 67.5t-62.5 23.5q-28 0 -55 -13.5t-50 -36.5l18 86q23 17 51.5 25.5t55.5 8.5q44 0 77.5 -18t52 -52t18.5 -83q0 -51 -19.5 -88t-56 -57t-88.5 -20q-47 0 -89 23.5t-67.5 69t-25.5 112.5q0 66 29.5 118t76.5 88q45 34 97.5 54t114 28.5t132.5 8.5
q127 0 217.5 -34.5t146.5 -96.5q35 -37 51 -84.5t16 -94.5q0 -33 -7.5 -67t-26.5 -62.5t-51 -45.5t-82 -17zM409 -321q-54 0 -100 18.5t-73.5 57.5t-27.5 100q0 40 14.5 83t45.5 81l74 -36q-25 -37 -36 -66t-11 -61q0 -41 17.5 -64t45 -31.5t58.5 -8.5q45 0 76.5 15.5
t55.5 43t45 61.5q9 17 23 36.5t21 27.5l76 -31q-10 -10 -21 -27.5t-18 -30.5q-27 -53 -62.5 -91t-84.5 -57.5t-118 -19.5zM1230 -12q-53 0 -97 26.5t-69.5 82.5t-25.5 146q0 82 24.5 142.5t67.5 100.5t97 60t112 20q44 0 79 -8.5t64 -24t54 -36.5l-13 -96q-35 44 -79.5 67.5
t-107.5 23.5q-67 0 -116 -33.5t-76 -91t-27 -130.5q0 -67 15.5 -106.5t42 -57t59.5 -17.5q27 0 46.5 11.5t30 33.5t10.5 54q0 50 -26 76.5t-67 26.5q-40 0 -75 -21t-64 -53l-15 64q30 35 74.5 57.5t93.5 22.5q72 0 116.5 -44t44.5 -119q0 -55 -21 -95t-59.5 -61t-92.5 -21z
M1518 0v416l12 78v60h504v-72h-170v-482h-86v482h-174v-482h-86z" />
    <glyph glyph-name="katamil" unicode="&#xb95;" horiz-adv-x="825" 
d="M261 -12q-60 0 -108 19t-76 56t-28 89q0 54 28.5 93.5t90.5 61t164 21.5h180q52 0 90 -5t66.5 -15.5t51.5 -28.5q26 -20 41 -52.5t15 -74.5q0 -76 -45.5 -118t-128.5 -42q-23 0 -50 3t-50 10l19 67q15 -4 34.5 -7t38.5 -3q47 0 71.5 23t24.5 71q0 34 -15 54.5t-39.5 30.5
t-55 13.5t-61.5 3.5h-194q-51 0 -86.5 -6t-60.5 -20q-22 -13 -32.5 -31.5t-10.5 -47.5q0 -46 38 -69.5t96 -23.5q44 0 75.5 13.5t49 46.5t17.5 93v269h-172v-180l-79 -16v268h523v-72h-187v-256q0 -67 -11.5 -105t-32.5 -64q-31 -38 -79.5 -53.5t-111.5 -15.5z" />
    <glyph glyph-name="ngatamil" unicode="&#xb99;" horiz-adv-x="1044" 
d="M88 0v554h516v-72h-174v-158q20 12 52 25t76 13q50 0 86 -19t55 -55t19 -87q0 -36 -10 -69t-26 -60h122v-72h-460v72h251q17 25 27 55.5t10 64.5q0 53 -25 75t-64 22q-32 0 -61.5 -13t-51.5 -30v-102h-86v338h-170v-482h-86zM733 0v72h137v482h86v-554h-223z" />
    <glyph glyph-name="catamil" unicode="&#xb9a;" horiz-adv-x="723" 
d="M261 -12q-60 0 -108 19t-76 56t-28 89q0 54 28.5 93.5t90.5 61t164 21.5h351v-70h-358q-51 0 -86.5 -6t-60.5 -20q-22 -13 -32.5 -31.5t-10.5 -47.5q0 -46 38 -69.5t96 -23.5q44 0 75.5 13.5t49 47t17.5 92.5v269h-172v-180l-79 -16v268h523v-72h-187v-256
q0 -67 -11.5 -105t-32.5 -64q-31 -38 -79.5 -53.5t-111.5 -15.5z" />
    <glyph glyph-name="jatamil" unicode="&#xb9c;" horiz-adv-x="1022" 
d="M331 566q73 0 118.5 -19t71 -48t38.5 -60l-18 -9q15 43 40.5 73.5t62.5 46.5t85 16q75 0 126 -29.5t77.5 -81.5t26.5 -120q0 -67 -20 -114t-56 -78q-38 -33 -91.5 -50t-117 -23.5t-132.5 -6.5h-94q-66 0 -116.5 -4t-86 -16t-58.5 -35q-19 -19 -27.5 -44t-8.5 -57
q0 -58 22 -92t54.5 -48.5t64.5 -14.5q44 0 76 12.5t58 35.5t52 52q42 47 80 78t83.5 47t109.5 16q36 0 70.5 -9.5t62.5 -30t45 -52t17 -75.5t-20.5 -77.5t-56.5 -51.5t-82 -18q-43 0 -73.5 12t-50 32.5t-29 45.5t-9.5 50q0 47 23 79t57 61l67 -14q-34 -25 -49.5 -53
t-15.5 -60q0 -34 18.5 -59t63.5 -25q18 0 35.5 7.5t29 24.5t11.5 47t-12 48.5t-32 29t-43 14.5t-45 4q-15 0 -29.5 -1.5t-28.5 -4.5q-23 -7 -44.5 -21.5t-41.5 -35t-40 -44.5q-33 -41 -69.5 -72t-80.5 -48t-102 -17q-82 0 -134 31.5t-76 83.5t-24 111q0 55 18.5 94.5
t49.5 65.5q35 29 82 44t103 20.5t116 5.5h89q76 0 134 5t100 18.5t68 37.5q25 23 36.5 57t11.5 81q0 53 -19 88t-52 53t-74 18q-29 0 -51.5 -8.5t-39.5 -27.5q-19 -23 -27 -53.5t-8 -84.5v-114h-87v88q0 48 -9.5 86t-30 64t-54.5 39.5t-82 13.5q-31 0 -48 -2.5t-37 -9.5
l-35 -14q-27 -14 -43.5 -33.5t-24 -42t-7.5 -46.5q0 -43 21.5 -69.5t70.5 -26.5q39 0 63.5 22t24.5 61q0 35 -18.5 60.5t-51 39t-74.5 13.5l64 46q46 -4 82.5 -23.5t58 -52t21.5 -76.5q0 -72 -46.5 -115t-122.5 -43q-56 0 -94.5 21.5t-58 58t-19.5 81.5q0 70 37 119.5
t98.5 75.5t132.5 26z" />
    <glyph glyph-name="nyatamil" unicode="&#xb9e;" horiz-adv-x="1210" 
d="M980 319q54 0 95 -27.5t64 -80t23 -128.5q0 -89 -28 -156t-78 -114.5t-116 -77t-142.5 -43t-157.5 -13.5h-27q-124 0 -215.5 26t-155 72t-101.5 106t-55.5 128t-17.5 138v21q0 69 18.5 138.5t48.5 132.5t64 113l74 -44q-38 -57 -64.5 -115t-40.5 -116t-14 -116v-13
q0 -84 27 -155.5t83.5 -125t145 -83.5t212.5 -30h13q96 0 176.5 19.5t139 59.5t91 102t32.5 147q0 54 -13 90t-37.5 54.5t-59.5 18.5q-30 0 -55.5 -12.5t-46.5 -27.5l1 74q19 14 48.5 26t68.5 12zM503 -12q-53 0 -96.5 26t-69.5 81.5t-26 143.5q0 77 25 134t68 95
q32 29 73 48t97 28.5t131 9.5h57v-72h-69q-64 0 -107 -7.5t-70.5 -20.5t-47.5 -31q-38 -34 -58 -82t-20 -109q0 -62 15 -101t42 -57t61 -18q26 0 45 11.5t30 33.5t11 54q0 50 -26.5 76.5t-67.5 26.5q-39 0 -74 -21t-64 -53l-15 64q30 35 74 57.5t93 22.5q73 0 117.5 -44
t44.5 -119q0 -55 -21 -95t-59.5 -61t-92.5 -21zM782 0v482h-36l2 72h290v-72h-170v-482h-86z" />
    <glyph glyph-name="ttatamil" unicode="&#xb9f;" horiz-adv-x="693" 
d="M88 0v554h86v-482h502v-72h-588z" />
    <glyph glyph-name="nnatamil" unicode="&#xba3;" horiz-adv-x="1648" 
d="M249 -12q-53 0 -97 26.5t-69.5 82.5t-25.5 146q0 99 43.5 171.5t122.5 112t185 39.5q48 0 91.5 -7.5t83.5 -23t79 -40.5l41 -36q57 -52 89.5 -119.5t32.5 -150.5q0 -67 -19.5 -111.5t-56 -67t-86.5 -22.5q-58 0 -94.5 26t-54 70.5t-17.5 101.5q0 53 11 101t33 90t55 77
l48 41q47 35 102 53t120 18q45 0 82.5 -7.5t71 -23t64.5 -38.5l46 -40q34 -33 58.5 -74.5t38 -90t13.5 -103.5q0 -67 -19.5 -111.5t-56 -67t-87.5 -22.5q-57 0 -93.5 26t-54 70.5t-17.5 101.5q0 51 10.5 97t34.5 90t63 85l45 37q30 18 64 31t82.5 20.5t121.5 7.5h298v-72
h-170v-482h-86v482h-65q-33 0 -61.5 -2t-54 -7.5t-49.5 -15.5t-49 -27q-33 -21 -55 -58.5t-33.5 -84.5t-11.5 -98q0 -69 21 -101t57 -32q32 0 49.5 19t24.5 48t7 59q0 57 -15 106t-39.5 86t-53.5 58q-42 34 -87.5 47.5t-91.5 13.5q-56 0 -103.5 -14t-92.5 -50
q-33 -28 -53 -67.5t-29 -84t-9 -88.5q0 -69 21 -101t58 -32q31 0 48.5 19t24.5 48t7 59q0 80 -30.5 143t-88.5 108q-47 33 -103 46t-120 13q-74 0 -129 -27t-87.5 -74t-42.5 -108q-1 -15 -2 -28.5t-1 -21.5q0 -65 15.5 -104t42 -56t59.5 -17q27 0 46.5 11.5t30 33.5t10.5 54
q0 50 -26 76.5t-67 26.5q-40 0 -75 -21t-64 -53l-15 64q30 35 74.5 57.5t93.5 22.5q72 0 116.5 -44t44.5 -119q0 -55 -21 -95t-59.5 -61t-92.5 -21z" />
    <glyph glyph-name="tatamil" unicode="&#xba4;" horiz-adv-x="825" 
d="M261 -12q-60 0 -108 19t-76 56t-28 89q0 54 28.5 93.5t90.5 61t164 21.5h145q87 0 155 -21.5t106.5 -71.5t38.5 -137q0 -67 -25 -112.5t-71 -79.5q-33 -23 -74.5 -37t-95.5 -19.5t-126 -5.5h-113q-42 0 -65 -6t-40 -17q-16 -11 -25 -31t-9 -53q0 -15 1 -28.5t2 -25.5
l-82 -4q-3 18 -5 39.5t-2 38.5q0 44 16 74.5t41 49.5q18 13 37.5 20.5t45 11t58.5 3.5h109q89 0 146 7.5t92 23t58 40.5q20 22 30.5 51.5t10.5 66.5q0 49 -19.5 79t-52 46t-72 22t-80.5 6h-142q-51 0 -86.5 -6t-60.5 -20q-22 -13 -32.5 -31.5t-10.5 -47.5q0 -46 38 -69.5
t96 -23.5q44 0 75.5 13.5t49 47t17.5 92.5v269h-172v-180l-79 -16v268h523v-72h-187v-256q0 -67 -11.5 -105t-32.5 -64q-31 -38 -79.5 -53.5t-111.5 -15.5z" />
    <glyph glyph-name="natamil" unicode="&#xba8;" horiz-adv-x="789" 
d="M557 362q51 0 92.5 -26t66.5 -77t25 -125q0 -90 -26 -142t-73 -86q-32 -23 -73.5 -37t-95.5 -19.5t-126 -5.5h-75q-42 0 -65 -6t-40 -17q-16 -11 -25 -31t-9 -53q0 -15 1 -28.5t2 -25.5l-82 -4q-3 18 -5 39.5t-2 38.5q0 44 16 74.5t41 49.5q18 13 37.5 20.5t45 11
t58.5 3.5h93q82 0 133.5 7t83.5 22.5t55 40.5q20 22 32.5 57.5t12.5 87.5t-13.5 87t-40 53t-65.5 18q-28 0 -56.5 -12.5t-49.5 -29.5l-3 75q26 16 58 28t72 12zM88 0v554h521v-72h-175v-482h-86v482h-174v-482h-86z" />
    <glyph glyph-name="nnnatamil" unicode="&#xba9;" horiz-adv-x="1234" 
d="M249 -12q-53 0 -97 26.5t-69.5 82.5t-25.5 146q0 99 43.5 171.5t122.5 112t185 39.5q48 0 91.5 -7.5t83.5 -23t79 -40.5l46 -42q53 -47 85 -114.5t32 -149.5q0 -67 -19.5 -111.5t-56 -67t-86.5 -22.5q-58 0 -94.5 26t-54 70.5t-17.5 101.5q0 53 11.5 100t34.5 89t57 79
l50 41q30 18 64 31t82.5 20.5t121.5 7.5h299v-72h-170v-482h-86v482h-66q-33 0 -62 -2.5t-55 -8t-50 -15.5t-47 -26q-33 -21 -55 -59.5t-33.5 -86t-11.5 -95.5q0 -69 21 -101t58 -32q31 0 48.5 19t24.5 48t7 59q0 79 -30.5 142.5t-88.5 108.5q-47 33 -103 46t-120 13
q-74 0 -129 -27t-87.5 -74t-42.5 -108q-1 -15 -2 -28.5t-1 -21.5q0 -65 15.5 -104t42 -56t59.5 -17q27 0 46.5 11.5t30 33.5t10.5 54q0 50 -26 76.5t-67 26.5q-40 0 -75 -21t-64 -53l-15 64q30 35 74.5 57.5t93.5 22.5q72 0 116.5 -44t44.5 -119q0 -55 -21 -95t-59.5 -61
t-92.5 -21z" />
    <glyph glyph-name="patamil" unicode="&#xbaa;" horiz-adv-x="778" 
d="M88 0v554h86v-482h430v482h86v-554h-602z" />
    <glyph glyph-name="matamil" unicode="&#xbae;" horiz-adv-x="858" 
d="M580 566q75 0 123 -38.5t71 -107t23 -158.5q0 -70 -15 -120t-48 -82q-23 -23 -53 -36t-70.5 -18.5t-98.5 -5.5h-424v554h86v-482h226v283q0 62 11.5 98.5t33.5 61.5q23 25 55 38t80 13zM578 494q-17 0 -33 -5.5t-27 -17.5q-16 -18 -24 -44.5t-8 -88.5v-266h47
q68 0 106 19t54 62t16 114q0 64 -13.5 115t-42 81.5t-75.5 30.5z" />
    <glyph glyph-name="yatamil" unicode="&#xbaf;" horiz-adv-x="963" 
d="M354 0v554h86v-482h349v482h86v-554h-521zM240 -11q-37 0 -64.5 12.5t-46.5 34.5q-11 15 -20.5 34t-15 50t-5.5 82v352h86v-331q0 -46 4 -83.5t24 -57.5q10 -10 23.5 -15.5t32.5 -5.5q29 0 54.5 15t47.5 49l-2 -86q-19 -19 -48 -34.5t-70 -15.5z" />
    <glyph glyph-name="ratamil" unicode="&#xbb0;" horiz-adv-x="640" 
d="M231 -212l-57 53l193 183v458h-193v-482h-86v554h535v-72h-170v-482z" />
    <glyph glyph-name="rratamil" unicode="&#xbb1;" horiz-adv-x="869" 
d="M570 566q76 0 128.5 -38t79.5 -109.5t27 -174.5q0 -122 -31 -199.5t-84 -121.5q-38 -31 -86 -48.5t-102.5 -24t-113.5 -6.5h-118q-42 0 -65 -6t-40 -17q-16 -11 -25 -31t-9 -53q0 -15 1 -28.5t2 -25.5l-82 -4q-3 18 -5 39.5t-2 38.5q0 44 16 74.5t41 49.5
q18 13 37.5 20.5t45 11t58.5 3.5h123q93 0 159 13.5t108.5 48.5t62.5 100.5t20 168.5q0 91 -19.5 145t-54 78t-79.5 24q-26 0 -49 -8.5t-40 -27.5q-20 -23 -28 -54t-8 -85v-319h-86v321q0 49 -5 83.5t-20 56.5q-10 15 -26 24t-39 9t-38.5 -8.5t-26.5 -22.5
q-16 -22 -20.5 -57t-4.5 -79v-327h-86v341q0 49 4.5 82t16.5 57t32 44q21 21 50 31.5t66 10.5q39 0 69 -14t52 -41.5t35 -67.5l-21 7q11 33 34.5 59.5t60 41.5t85.5 15z" />
    <glyph glyph-name="latamil" unicode="&#xbb2;" horiz-adv-x="1013" 
d="M249 -12q-53 0 -97 26t-69.5 82.5t-25.5 145.5q0 81 24 142t66 101.5t96.5 60.5t115.5 20q48 0 98 -13t88 -51q28 -27 43.5 -62t22 -81t6.5 -107q0 -35 3.5 -64t12.5 -52t25 -41q15 -16 36 -24.5t50 -8.5q33 0 60 16t43 54t16 105q0 66 -16 122t-44.5 102.5t-64.5 85.5
l78 53q62 -79 98 -166t36 -190q0 -85 -24.5 -142t-71.5 -85.5t-117 -28.5q-43 0 -78.5 12.5t-61.5 37.5q-32 30 -49 83t-18 129q0 36 -4 74t-16 72.5t-38 58.5q-20 18 -48 27.5t-69 9.5q-69 0 -118 -33.5t-75 -92t-26 -134.5q0 -64 15.5 -103t42 -56t59.5 -17
q27 0 46.5 11.5t30 33.5t10.5 54q0 50 -26 76.5t-67 26.5q-40 0 -75 -21t-64 -53l-15 64q30 35 74.5 57.5t93.5 22.5q72 0 116.5 -44t44.5 -119q0 -55 -21 -95t-59.5 -61t-92.5 -21z" />
    <glyph glyph-name="llatamil" unicode="&#xbb3;" horiz-adv-x="1070" 
d="M249 -12q-53 0 -97 26.5t-69.5 82.5t-25.5 146q0 82 24.5 142.5t67.5 100.5t97 60t112 20q44 0 79 -8.5t64 -24t54 -36.5l-13 -96q-35 44 -79.5 67.5t-107.5 23.5q-67 0 -116 -33.5t-76 -91t-27 -130.5q0 -67 15.5 -106.5t42 -57t59.5 -17.5q27 0 46.5 11.5t30 33.5
t10.5 54q0 50 -26 76.5t-67 26.5q-40 0 -75 -21t-64 -53l-15 64q30 35 74.5 57.5t93.5 22.5q72 0 116.5 -44t44.5 -119q0 -55 -21 -95t-59.5 -61t-92.5 -21zM537 0v416l12 78v60h504v-72h-170v-482h-86v482h-174v-482h-86z" />
    <glyph glyph-name="lllatamil" unicode="&#xbb4;" horiz-adv-x="858" 
d="M580 566q75 0 123 -38.5t71 -107t23 -158.5q0 -70 -15 -120t-48 -82q-23 -23 -53 -36t-70.5 -18.5t-98.5 -5.5h-424v554h86v-482h226v283q0 62 11.5 98.5t33.5 61.5q23 25 55 38t80 13zM578 494q-17 0 -33 -5.5t-27 -17.5q-16 -18 -24 -44.5t-8 -88.5v-266h47
q68 0 106 19t54 62t16 114q0 64 -13.5 115t-42 81.5t-75.5 30.5zM220 -61q17 0 35.5 -1.5t34.5 -3.5l-8 -67q-10 2 -22 2.5t-27 0.5q-37 0 -60.5 -12.5t-23.5 -42.5q0 -27 19.5 -41.5t49 -19.5t58.5 -5h25q51 0 85 12t56 34t37 53q9 17 18 27.5t25.5 16t47.5 7.5l75 -12
q-43 -9 -62.5 -26.5t-30.5 -42.5q-22 -42 -52.5 -73.5t-79 -48.5t-126.5 -17h-25q-46 0 -89 10.5t-69 28.5q-19 14 -33.5 38t-14.5 58q0 58 43.5 91.5t113.5 33.5zM549 -166l-17 9q-37 8 -66.5 26t-46.5 50t-19 81h85q1 -29 10.5 -49.5t31.5 -31.5q14 -6 33.5 -9.5
t50.5 -3.5h128v-72h-190z" />
    <glyph glyph-name="vatamil" unicode="&#xbb5;" horiz-adv-x="1044" 
d="M249 -12q-53 0 -97 26.5t-69.5 82.5t-25.5 146q0 107 42.5 179t112.5 108t152 36q76 0 130.5 -22.5t89 -62t51 -91t16.5 -110.5q0 -64 -14 -114t-34 -94h267v482h86v-554h-441l-4 63q23 35 37.5 86.5t14.5 119.5q0 71 -25 121t-70.5 76t-107.5 26q-70 0 -120 -33.5
t-77 -91t-27 -130.5q0 -67 15.5 -106.5t42 -57t59.5 -17.5q26 0 45.5 11.5t30.5 33.5t11 54q0 50 -26 76.5t-67 26.5q-40 0 -75 -21t-64 -53l-15 64q30 35 74.5 57.5t93.5 22.5q72 0 116.5 -44t44.5 -119q0 -55 -21 -95t-59.5 -61t-92.5 -21z" />
    <glyph glyph-name="shatamil" unicode="&#xbb6;" horiz-adv-x="1172" 
d="M301 -12q-50 0 -91 15t-70 44q-27 29 -40.5 72t-13.5 110v325h86v-309q0 -68 10 -101.5t29 -53.5q16 -16 38.5 -22.5t51.5 -6.5q28 0 50.5 6.5t39.5 22.5q20 20 29.5 53.5t9.5 101.5v309h656v-321q0 -64 -14 -110.5t-40 -75.5q-27 -28 -67.5 -43.5t-93.5 -15.5
q-50 0 -91 15t-70 44q-27 29 -40.5 72.5t-13.5 112.5v250h-140v-251q0 -68 -13.5 -111.5t-40.5 -72.5q-27 -28 -67.5 -43.5t-93.5 -15.5zM871 61q28 0 50 6.5t39 22.5q20 20 30 53.5t10 101.5v237h-258v-237q0 -68 10 -101.5t29 -53.5q16 -16 38.5 -22.5t51.5 -6.5z" />
    <glyph glyph-name="ssatamil" unicode="&#xbb7;" horiz-adv-x="1345" 
d="M909 566q43 0 73.5 -12.5t49.5 -35t28 -51.5t9 -61q0 -38 -6.5 -79t-18.5 -88l-12 -48l-120 -475l-79 22l68 270l14 56l42 166q13 53 19 94.5t6 78.5q0 44 -19 67.5t-54 23.5q-41 0 -66 -28t-25 -84q0 -45 21 -74t58.5 -42.5t86.5 -13.5h17q70 0 115 25.5t72 50.5h81
v-328h-489l18 72h390v81q0 23 1 48t3 46q-29 -25 -78 -45t-115 -20h-15q-54 0 -99 12t-79 37t-52.5 63t-18.5 90q0 51 20.5 92t59.5 65.5t94 24.5zM249 -12q-53 0 -97 26.5t-69.5 82.5t-25.5 146q0 107 42.5 179t112.5 108t152 36q76 0 130.5 -22.5t89 -62t51 -91
t16.5 -110.5q0 -64 -14 -114t-34 -94h266l-2 -72h-352l-4 63q23 35 37.5 86.5t14.5 119.5q0 71 -25 121t-70.5 76t-107.5 26q-70 0 -120 -33.5t-77 -91t-27 -130.5q0 -67 15.5 -106.5t42 -57t59.5 -17.5q26 0 45.5 11.5t30.5 33.5t11 54q0 50 -26 76.5t-67 26.5
q-40 0 -75 -21t-64 -53l-15 64q30 35 74.5 57.5t93.5 22.5q72 0 116.5 -42.5t44.5 -120.5q0 -55 -21 -95t-59.5 -61t-92.5 -21z" />
    <glyph glyph-name="satamil" unicode="&#xbb8;" horiz-adv-x="1285" 
d="M249 -12q-53 0 -97 26t-69.5 82.5t-25.5 145.5q0 81 24 142t66 101.5t96.5 60.5t115.5 20q52 0 93.5 -14.5t75 -44.5t59.5 -77l-29 3q9 35 30 65.5t53.5 49t77.5 18.5q37 0 66.5 -11t51.5 -34q26 -27 39 -68.5t13 -109.5v-88q0 -55 8 -94.5t33 -65.5q15 -16 36 -24.5
t49 -8.5q34 0 61 16t43 54t16 105q0 66 -16.5 122t-44.5 102.5t-65 85.5l78 53q62 -79 98.5 -166t36.5 -190q0 -85 -24.5 -142t-71.5 -85.5t-117 -28.5q-43 0 -78.5 12.5t-61.5 37.5q-21 20 -36 50.5t-23 71t-8 90.5v38q0 65 -4.5 102t-14.5 59q-10 24 -28 34.5t-41 10.5
q-21 0 -36.5 -9t-25.5 -22q-15 -19 -22 -45.5t-7 -66.5v-351h-86v293q0 63 -17 100.5t-43 59.5q-28 23 -56.5 31t-65.5 8q-69 0 -118 -33.5t-75 -92t-26 -134.5q0 -64 15.5 -103t42 -56t59.5 -17q26 0 45.5 11.5t30.5 33.5t11 54q0 50 -26 76.5t-67 26.5q-40 0 -75 -21
t-64 -53l-15 64q30 35 74.5 57.5t93.5 22.5q72 0 116.5 -44t44.5 -119q0 -55 -21 -95t-59.5 -61t-92.5 -21z" />
    <glyph glyph-name="hatamil" unicode="&#xbb9;" horiz-adv-x="1619" 
d="M1320 566q76 0 128.5 -38t79.5 -109.5t27 -174.5q0 -122 -31 -199.5t-84 -121.5q-38 -31 -86 -48.5t-102.5 -24t-113.5 -6.5h-866q-42 0 -65 -6t-40 -17q-16 -11 -25 -31t-9 -53q0 -15 1 -28.5t2 -25.5l-82 -4q-3 18 -5 39.5t-2 38.5q0 44 16 74.5t41 49.5
q18 13 37.5 20.5t45 11t58.5 3.5h871q93 0 159 13.5t108.5 48.5t62.5 100.5t20 168.5q0 91 -19.5 145t-54 78t-78.5 24q-27 0 -50 -8.5t-40 -27.5q-20 -23 -28 -54t-8 -85v-319h-86v321q0 49 -5 83.5t-20 56.5q-10 15 -26 24t-39 9t-38.5 -8.5t-26.5 -22.5
q-16 -22 -20.5 -56.5t-4.5 -78.5v-328h-86v341q0 49 4.5 82t16.5 57t32 44q21 21 50 31.5t66 10.5q39 0 69 -14t52 -41.5t35 -67.5l-21 7q11 33 34.5 59.5t60 41.5t85.5 15zM249 -12q-53 0 -97 26.5t-69.5 82.5t-25.5 146q0 107 42.5 179t112.5 108t152 36q76 0 130.5 -22.5
t89 -62t51 -91t16.5 -110.5q0 -64 -14 -114t-34 -94h266l-2 -72h-352l-4 63q23 35 37.5 86.5t14.5 119.5q0 71 -25 121t-70.5 76t-107.5 26q-70 0 -120 -33.5t-77 -91t-27 -130.5q0 -67 15.5 -106.5t42 -57t59.5 -17.5q26 0 45.5 11.5t30.5 33.5t11 54q0 50 -26 76.5
t-67 26.5q-40 0 -75 -21t-64 -53l-15 64q30 35 74.5 57.5t93.5 22.5q72 0 116.5 -44t44.5 -119q0 -55 -21 -95t-59.5 -61t-92.5 -21z" />
    <glyph glyph-name="aavowelsigntamil" unicode="&#xbbe;" horiz-adv-x="640" 
d="M88 0v554h535v-72h-170v-482h-86v482h-193v-482h-86z" />
    <glyph glyph-name="ivowelsigntamil" unicode="&#xbbf;" horiz-adv-x="262" 
d="M-79 843q54 0 98.5 -17.5t78.5 -52.5q23 -23 40 -57.5t26.5 -89t9.5 -137.5v-489h-86v471q0 72 -6.5 119t-18.5 77.5t-29 50.5q-21 26 -50.5 38t-64.5 12q-43 0 -73 -16.5t-45.5 -46t-15.5 -68.5q0 -28 8 -60.5t25 -61.5h-91q-13 30 -20.5 60t-7.5 61q0 54 18 93t49 64
t71 37.5t84 12.5z" />
    <glyph glyph-name="iivowelsigntamil" unicode="&#xbc0;" horiz-adv-x="0" 
d="M-168 843q86 0 131 -34.5t45 -90.5q0 -63 -38 -93.5t-93 -30.5q-58 0 -93 29.5t-35 81.5q0 23 9.5 54t36.5 59l51 -22q-16 -19 -23.5 -38.5t-7.5 -38.5q0 -22 8 -36t22 -20.5t32 -6.5q29 0 45 16t16 41q0 35 -28 51t-72 16q-8 0 -19 -0.5t-20 -1.5q-77 -8 -113 -50.5
t-36 -101.5q0 -28 7 -50.5t19 -40.5l-84 -6q-9 20 -14 44t-5 51q0 44 15.5 83.5t47 70t80.5 48t116 17.5z" />
    <glyph glyph-name="uvowelsigntamil" unicode="&#xbc1;" horiz-adv-x="502" 
d="M294 217q-58 0 -95.5 18.5t-58.5 48t-29.5 64.5t-8.5 68q0 40 5 69.5t11 48.5l82 -15q-6 -22 -9.5 -44.5t-3.5 -55.5q0 -58 24 -93.5t79 -35.5q30 0 49.5 11.5t29 32t9.5 45.5t-9 43.5t-25 31.5q-16 14 -43 21t-91 7h-429v72h447q68 0 108.5 -11t68.5 -34
q26 -22 42 -53.5t16 -77.5q0 -37 -12.5 -67t-35 -51t-53.5 -32t-68 -11z" />
    <glyph glyph-name="uuvowelsigntamil" unicode="&#xbc2;" horiz-adv-x="844" 
d="M402 13q-69 0 -129.5 13t-109.5 34t-85 45l42 69q31 -22 71.5 -42.5t92.5 -33t115 -12.5q65 0 119.5 17t95.5 54.5t63.5 99.5t22.5 151q0 82 -28.5 145t-84 99.5t-137.5 36.5q-64 0 -111.5 -21.5t-77.5 -58t-42 -80.5l-3 -26q-4 -20 -6.5 -41.5t-2.5 -42.5q0 -67 27 -98
t76 -31q44 0 66 25.5t22 63.5q0 25 -9 43.5t-25 31.5q-16 14 -43 21t-91 7h-449v72h467q68 0 108.5 -11t68.5 -34q26 -22 42 -53.5t16 -77.5q0 -37 -12.5 -67t-35 -51t-53.5 -32t-68 -11q-70 0 -112 29.5t-61 77t-19 100.5q0 20 2.5 40.5t6.5 40.5l1 29q18 66 60.5 118
t108 82t152.5 30q80 0 142 -25.5t104.5 -73t65 -112.5t22.5 -145q0 -106 -29 -181.5t-81 -122.5t-122 -69t-153 -22z" />
    <glyph glyph-name="evowelsigntamil" unicode="&#xbc6;" horiz-adv-x="901" 
d="M400 -12q-75 0 -137.5 29t-109 82t-71.5 128t-25 166q0 112 36.5 196t97 140.5t134.5 85t150 28.5q80 0 136 -20t96 -55q38 -33 61 -78.5t34 -111.5t11 -163v-415h-86v365q0 92 -7 157t-24 110.5t-48 76.5q-28 29 -71 44t-102 15q-51 0 -109 -20t-108.5 -65t-82.5 -118
t-32 -180q0 -62 12.5 -112.5t35.5 -89.5t54 -66t68 -42l16 -4q20 -7 40.5 -10t41.5 -3q51 0 81.5 28.5t30.5 86.5q0 45 -24.5 74.5t-68.5 29.5q-43 0 -69 -28t-26 -78q0 -36 12 -69t37 -59l-58 -16q-27 26 -48 65.5t-21 99.5q0 42 19 77.5t58 57.5t98 22q49 0 87 -20.5
t60.5 -60t22.5 -95.5q0 -65 -27.5 -106t-73 -60t-101.5 -19z" />
    <glyph glyph-name="eevowelsigntamil" unicode="&#xbc7;" horiz-adv-x="720" 
d="M451 -12q-81 0 -152.5 27.5t-126 81.5t-85.5 134t-31 184t32.5 184t90 134.5t133.5 82t163 27.5q60 0 109.5 -18t79 -56.5t29.5 -101.5q0 -52 -22 -88.5t-60 -55.5t-87 -19q-51 0 -87 19.5t-55 54t-19 78.5t19 79t45 57l57 -18q-22 -25 -31.5 -52t-9.5 -57q0 -45 23 -68
t60 -23q41 0 63.5 26.5t22.5 66.5q0 36 -17.5 59t-47 34.5t-66.5 11.5h-26t-31 -2q-57 -9 -107.5 -34.5t-90 -69.5t-62 -105.5t-22.5 -142.5q0 -79 20 -140.5t55.5 -106t82 -71t100.5 -37.5q17 -4 34 -4.5t30 -0.5q40 0 70 12.5t47 38t17 64.5q0 44 -21.5 73.5t-66.5 29.5
q-39 0 -64.5 -26.5t-25.5 -78.5q0 -36 12 -69t36 -59l-62 -16q-27 26 -46.5 64.5t-19.5 93.5q0 46 20 82.5t58 57.5t92 21q49 0 87 -20t60 -58.5t22 -94.5q0 -65 -30 -106t-81.5 -60t-116.5 -19z" />
    <glyph glyph-name="aivowelsigntamil" unicode="&#xbc8;" horiz-adv-x="1160" 
d="M249 -12q-53 0 -97 26.5t-69.5 82.5t-25.5 146q0 99 43.5 171.5t122.5 112t185 39.5q48 0 91 -7.5t83 -22.5t77 -39l36 -31q63 -51 96.5 -123t33.5 -154q0 -67 -19.5 -111.5t-56 -67t-86.5 -22.5q-58 0 -94.5 26t-54 70.5t-17.5 101.5q0 59 12.5 107.5t35 89t52.5 74.5
l43 41q40 33 87 50.5t101 17.5q94 0 153 -39.5t87 -104.5t28 -142q0 -69 -13.5 -122.5t-34 -95t-43.5 -74.5l-72 44q32 45 53.5 102.5t21.5 141.5q0 66 -22 114.5t-63.5 75t-101.5 26.5q-46 0 -79.5 -12t-68.5 -41q-32 -33 -52.5 -72t-30 -83.5t-9.5 -94.5q0 -69 21 -101
t58 -32q31 0 48.5 19t24.5 48t7 59q0 80 -30.5 143t-88.5 108q-47 33 -103 46t-120 13q-74 0 -129 -27t-87.5 -74t-42.5 -108q-1 -15 -2 -28.5t-1 -21.5q0 -65 15.5 -104t42.5 -56t60 -17q27 0 46 11.5t29.5 33.5t10.5 54q0 50 -26 76.5t-67 26.5q-40 0 -75 -21t-64 -53
l-15 64q30 35 74.5 57.5t93.5 22.5q72 0 116.5 -44t44.5 -119q0 -55 -21 -95t-59.5 -61t-92.5 -21z" />
    <glyph glyph-name="ovowelsigntamil" unicode="&#xbca;" horiz-adv-x="1707" 
d="M400 -12q-75 0 -137.5 29t-109 82t-71.5 128t-25 166q0 112 36.5 196t97 140.5t134.5 85t150 28.5q80 0 136 -20t96 -55q38 -33 61 -78.5t34 -111.5t11 -163v-415h-86v365q0 92 -7 157t-24 110.5t-48 76.5q-28 29 -71 44t-102 15q-51 0 -109 -20t-108.5 -65t-82.5 -118
t-32 -180q0 -62 12.5 -112.5t35.5 -89.5t54 -66t68 -42l16 -4q20 -7 40.5 -10t41.5 -3q51 0 81.5 28.5t30.5 86.5q0 45 -24.5 74.5t-68.5 29.5q-43 0 -69 -28t-26 -78q0 -36 12 -69t37 -59l-58 -16q-27 26 -48 65.5t-21 99.5q0 42 19 77.5t58 57.5t98 22q49 0 87 -20.5
t60.5 -60t22.5 -95.5q0 -65 -27.5 -106t-73 -60t-101.5 -19zM982 297q-29 0 -48 18.5t-19 48.5q0 29 19 48t48 19t48 -19t19 -48q0 -30 -19 -48.5t-48 -18.5zM1155 0v554h535v-72h-170v-482h-86v482h-193v-482h-86z" />
    <glyph glyph-name="oovowelsigntamil" unicode="&#xbcb;" horiz-adv-x="1510" 
d="M451 -12q-81 0 -152.5 27.5t-126 81.5t-85.5 134t-31 184t32.5 184t90 134.5t133.5 82t163 27.5q60 0 109.5 -18t79 -56.5t29.5 -101.5q0 -52 -22 -88.5t-60 -55.5t-87 -19q-51 0 -87 19.5t-55 54t-19 78.5t19 79t45 57l57 -18q-22 -25 -31.5 -52t-9.5 -57q0 -45 23 -68
t60 -23q41 0 63.5 26.5t22.5 66.5q0 36 -17.5 59t-47 34.5t-66.5 11.5h-26t-31 -2q-57 -9 -107.5 -34.5t-90 -69.5t-62 -105.5t-22.5 -142.5q0 -79 20 -140.5t55.5 -106t82 -71t100.5 -37.5q17 -4 34 -4.5t30 -0.5q40 0 70 12.5t47 38t17 64.5q0 44 -21.5 73.5t-66.5 29.5
q-39 0 -64.5 -26.5t-25.5 -78.5q0 -36 12 -69t36 -59l-62 -16q-27 26 -46.5 64.5t-19.5 93.5q0 46 20 82.5t58 57.5t92 21q49 0 87 -20t60 -58.5t22 -94.5q0 -65 -30 -106t-81.5 -60t-116.5 -19zM799 297q-29 0 -48 18.5t-19 48.5q0 29 19 48t48 19t48 -19t19 -48
q0 -30 -19 -48.5t-48 -18.5zM958 0v554h535v-72h-170v-482h-86v482h-193v-482h-86z" />
    <glyph glyph-name="auvowelsigntamil" unicode="&#xbcc;" horiz-adv-x="2150" 
d="M400 -12q-75 0 -137.5 29t-109 82t-71.5 128t-25 166q0 112 36.5 196t97 140.5t134.5 85t150 28.5q80 0 136 -20t96 -55q38 -33 61 -78.5t34 -111.5t11 -163v-415h-86v365q0 92 -7 157t-24 110.5t-48 76.5q-28 29 -71 44t-102 15q-51 0 -109 -20t-108.5 -65t-82.5 -118
t-32 -180q0 -62 12.5 -112.5t35.5 -89.5t54 -66t68 -42l16 -4q20 -7 40.5 -10t41.5 -3q51 0 81.5 28.5t30.5 86.5q0 45 -24.5 74.5t-68.5 29.5q-43 0 -69 -28t-26 -78q0 -36 12 -69t37 -59l-58 -16q-27 26 -48 65.5t-21 99.5q0 42 19 77.5t58 57.5t98 22q49 0 87 -20.5
t60.5 -60t22.5 -95.5q0 -65 -27.5 -106t-73 -60t-101.5 -19zM983 297q-29 0 -48 18.5t-19 48.5q0 29 19 48t48 19t48 -19t19 -48q0 -30 -19 -48.5t-48 -18.5zM1329 -12q-53 0 -97 26.5t-69.5 82.5t-25.5 146q0 82 24.5 142.5t67.5 100.5t97 60t112 20q44 0 79 -8.5t64 -24
t54 -36.5l-13 -96q-35 44 -79.5 67.5t-107.5 23.5q-67 0 -116 -33.5t-76 -91t-27 -130.5q0 -67 15.5 -106.5t42 -57t59.5 -17.5q27 0 46.5 11.5t30 33.5t10.5 54q0 50 -26 76.5t-67 26.5q-40 0 -75 -21t-64 -53l-15 64q30 35 74.5 57.5t93.5 22.5q72 0 116.5 -44t44.5 -119
q0 -55 -21 -95t-59.5 -61t-92.5 -21zM1617 0v416l12 78v60h504v-72h-170v-482h-86v482h-174v-482h-86z" />
    <glyph glyph-name="viramatamil" unicode="&#xbcd;" horiz-adv-x="0" 
d="M-278 678q-29 0 -48 18.5t-19 48.5q0 29 19 48t48 19t48 -19t19 -48q0 -30 -19 -48.5t-48 -18.5z" />
    <glyph glyph-name="ohmsigntamil" unicode="&#xbd0;" horiz-adv-x="1141" 
d="M582 566q99 0 182 -14.5t149.5 -46.5t113.5 -86q29 -33 45.5 -73.5t16.5 -89.5q0 -33 -7.5 -67t-26.5 -62.5t-51.5 -45.5t-82.5 -17q-42 0 -77.5 14t-56.5 45t-21 80q0 23 6.5 51t22.5 45l12 -4q-53 -29 -79 -70t-26 -91q0 -36 10 -63.5t29 -47.5q20 -21 47.5 -34.5
t67 -19.5t95.5 -6h81v-71h-87q-52 0 -82 4t-52 10q-71 20 -112.5 53.5t-59.5 76.5t-18 90q0 49 19.5 92t56 79t85.5 61l81 -39q-12 -25 -18.5 -45.5t-6.5 -52.5q0 -35 17 -60.5t66 -25.5q28 0 46 14.5t27 39.5t9 56q0 78 -48.5 132.5t-141.5 83t-229 28.5
q-133 0 -220.5 -18.5t-138 -47t-74.5 -59.5q-10 -20 -15 -42.5t-5 -54.5q0 -39 14 -64.5t37 -38t48 -12.5q27 0 46 10.5t29 30t10 47.5q0 44 -23.5 68t-61.5 24q-29 0 -55.5 -14t-49.5 -37l9 75q22 20 52 33t70 13q41 0 73 -18t50 -52t18 -83q0 -51 -20 -88t-58 -57t-94 -20
q-43 0 -82.5 21.5t-65 64t-25.5 104.5q0 58 24.5 104t66.5 80q56 45 124.5 68t147.5 31.5t167 8.5zM89 -131q0 29 12.5 72t39.5 80l69 -35q-23 -34 -31 -64.5t-8 -53.5q0 -47 31 -72.5t86 -35t125 -9.5q81 0 136 8t93 28t66 54.5t54 88.5l84 -29l-19 -34q-31 -57 -67 -94
t-83.5 -57.5t-112 -28.5t-151.5 -8h-3q-157 0 -239 44t-82 146zM508 49q26 0 47.5 -10t36.5 -30q15 -19 22.5 -41.5t7.5 -48.5q0 -30 -9.5 -50t-23.5 -31q-16 -13 -37 -18.5t-57 -5.5h-216v228h61v-181h83v90q0 36 7 54t24 30q11 7 24 10.5t30 3.5zM508 0q-12 0 -18.5 -7.5
t-6.5 -22.5v-109h28q29 0 39.5 15t10.5 44q0 24 -6.5 42t-18.5 28t-28 10zM490 94q-19 0 -31.5 12.5t-12.5 31.5q0 20 12.5 32.5t31.5 12.5q20 0 32.5 -12.5t12.5 -32.5q0 -19 -12.5 -31.5t-32.5 -12.5z" />
    <glyph glyph-name="aulengthmarktamil" unicode="&#xbd7;" horiz-adv-x="1070" 
d="M249 -12q-53 0 -97 26.5t-69.5 82.5t-25.5 146q0 82 24.5 142.5t67.5 100.5t97 60t112 20q44 0 79 -8.5t64 -24t54 -36.5l-13 -96q-35 44 -79.5 67.5t-107.5 23.5q-67 0 -116 -33.5t-76 -91t-27 -130.5q0 -67 15.5 -106.5t42 -57t59.5 -17.5q27 0 46.5 11.5t30 33.5
t10.5 54q0 50 -26 76.5t-67 26.5q-40 0 -75 -21t-64 -53l-15 64q30 35 74.5 57.5t93.5 22.5q72 0 116.5 -44t44.5 -119q0 -55 -21 -95t-59.5 -61t-92.5 -21zM537 0v416l12 78v60h504v-72h-170v-482h-86v482h-174v-482h-86z" />
    <glyph glyph-name="zerotamil" unicode="&#xbe6;" horiz-adv-x="650" 
d="M327 -12q-80 0 -140.5 36t-94 101.5t-33.5 153.5t34 152t94 99.5t139 35.5q87 0 146 -40t89 -105t30 -142q0 -87 -33.5 -152.5t-92.5 -102t-138 -36.5zM326 493q-56 0 -96 -26t-61 -74.5t-21 -114.5t20.5 -114.5t60.5 -75.5t96 -27q55 0 94.5 26t61 74.5t21.5 116.5
q0 67 -21.5 115t-60.5 74t-94 26z" />
    <glyph glyph-name="onetamil" unicode="&#xbe7;" horiz-adv-x="825" 
d="M261 -12q-60 0 -108 19t-76 56t-28 89q0 54 28.5 93.5t90.5 61t164 21.5h180q52 0 90 -5t66.5 -15.5t51.5 -28.5q26 -20 41 -52.5t15 -74.5q0 -76 -45.5 -118t-128.5 -42q-23 0 -50 3t-50 10l19 67q15 -4 34.5 -7t38.5 -3q47 0 71.5 23t24.5 71q0 34 -15 54.5t-39.5 30.5
t-55 13.5t-61.5 3.5h-194q-51 0 -86.5 -6t-60.5 -20q-22 -13 -32.5 -31.5t-10.5 -47.5q0 -46 38 -69.5t96 -23.5q44 0 75.5 13.5t49 46.5t17.5 93v269h-172v-180l-79 -16v268h523v-72h-187v-256q0 -67 -11.5 -105t-32.5 -64q-31 -38 -79.5 -53.5t-111.5 -15.5z" />
    <glyph glyph-name="twotamil" unicode="&#xbe8;" horiz-adv-x="1067" 
d="M323 566q71 0 123 -17t87 -47t52 -69.5t17 -83.5q0 -58 -21 -96.5t-60 -62t-93 -36t-119 -19.5l-80 -8q-55 -5 -69 -12t-14 -20q0 -12 8.5 -17.5t27.5 -5.5h868v-72h-859q-47 0 -75.5 12.5t-41 34t-12.5 47.5q0 30 16 51t52 34t96 19l77 7q91 9 136.5 30.5t61 51.5
t15.5 62q0 42 -23 74.5t-65 51t-100 18.5q-84 0 -127 -35t-43 -96q0 -36 16 -70t46 -62t70 -47l-67 -35q-50 27 -84 61.5t-51 73.5t-17 79q0 62 29.5 108t85.5 71t137 25z" />
    <glyph glyph-name="threetamil" unicode="&#xbe9;" horiz-adv-x="985" 
d="M88 0v554h516v-72h-174v-158q20 12 52 25t76 13q50 0 86 -19t55 -55t19 -87q0 -36 -10 -69t-26 -60h286v-72h-624v72h251q17 25 27 55.5t10 64.5q0 53 -25 75t-64 22q-32 0 -61.5 -13t-51.5 -30v-102h-86v338h-170v-482h-86z" />
    <glyph glyph-name="fourtamil" unicode="&#xbea;" horiz-adv-x="941" 
d="M261 -12q-60 0 -108 19t-76 56t-28 89q0 54 28.5 93.5t90.5 61t164 21.5h392v-70h-399q-48 0 -85 -6t-62 -20q-22 -13 -32.5 -31.5t-10.5 -47.5q0 -46 38 -69.5t96 -23.5q44 0 75.5 13.5t49 47t17.5 92.5v269h-172v-180l-79 -16v268h503v-72h-167v-256q0 -67 -11.5 -105
t-32.5 -64q-31 -38 -79.5 -53.5t-111.5 -15.5zM698 258v70h79v226h86v-296h-165z" />
    <glyph glyph-name="fivetamil" unicode="&#xbeb;" horiz-adv-x="1051" 
d="M559 -321q-128 0 -221 43t-153 119t-88.5 176t-28.5 214v48q0 73 17.5 151.5t55.5 152t99 132.5t147 93.5t200 34.5q87 0 155.5 -16t127.5 -43t115 -60l-46 -72q-35 24 -73 45t-81 37t-93 25t-109 9q-88 0 -165.5 -32t-137 -96.5t-93 -160t-33.5 -223.5v-12
q0 -142 42.5 -252.5t132 -173t230.5 -62.5h11q102 0 179.5 36t121 108.5t43.5 183.5q0 53 -12.5 89.5t-37 55t-59.5 18.5q-28 0 -52.5 -11t-44.5 -25v73q19 14 47 24.5t65 10.5q54 0 95 -28.5t64 -81.5t23 -125q0 -106 -35.5 -182.5t-96.5 -126t-138.5 -73t-161.5 -23.5h-11
zM361 0v554h522v-72h-175v-482h-86v482h-175v-482h-86z" />
    <glyph glyph-name="sixtamil" unicode="&#xbec;" horiz-adv-x="1006" 
d="M261 -12q-60 0 -108 19t-76 56t-28 89q0 54 28.5 93.5t90.5 61t164 21.5h653v-70h-660q-51 0 -86.5 -6t-60.5 -20q-22 -13 -32.5 -31.5t-10.5 -47.5q0 -46 38 -69.5t96 -23.5q44 0 75.5 13.5t49 47t17.5 92.5v269h-172v-180l-79 -16v268h523v-72h-187v-256
q0 -67 -11.5 -105t-32.5 -64q-31 -38 -79.5 -53.5t-111.5 -15.5zM615 0v275l81 -8v-267h-81zM815 0v275l81 -8v-267h-81z" />
    <glyph glyph-name="seventamil" unicode="&#xbed;" horiz-adv-x="801" 
d="M249 -12q-53 0 -97 26t-69.5 81.5t-25.5 143.5q0 77 25 134t68 95q32 29 73 48t97 28.5t131 9.5h57v-72h-69q-64 0 -107 -7.5t-70.5 -20.5t-47.5 -31q-38 -34 -58 -82t-20 -109q0 -64 15.5 -103t42 -56t59.5 -17q27 0 46.5 11.5t30 33.5t10.5 54q0 50 -26 76.5t-67 26.5
q-40 0 -75 -21t-64 -53l-15 64q30 35 74.5 57.5t93.5 22.5q72 0 116.5 -44t44.5 -119q0 -55 -21 -95t-59.5 -61t-92.5 -21zM528 0v482h-36l2 72h290v-72h-170v-482h-86z" />
    <glyph glyph-name="eighttamil" unicode="&#xbee;" horiz-adv-x="1121" 
d="M321 -124q-97 0 -162 23.5t-97.5 65t-32.5 95.5q0 25 11 49t34 40q13 9 28 15t39.5 9t64.5 3h747l3 -72h-739q-31 0 -47.5 -1t-24.5 -4t-16 -9q-15 -12 -15 -34q0 -49 53 -78t160 -29h17q101 0 174 23.5t120.5 64.5t71.5 93l3 20q10 25 13.5 50.5t3.5 50.5
q0 71 -26 125.5t-72.5 85.5t-109.5 31q-37 0 -68 -14t-50 -42.5t-19 -74.5t19.5 -84t51 -67.5t65.5 -51.5l-50 -47q-46 30 -85.5 67t-64 83.5t-24.5 103.5q0 60 27 105t77.5 70t121.5 25q72 0 126.5 -25t91.5 -68.5t56 -100t19 -120.5q0 -28 -2.5 -53t-9.5 -49l-5 -22
q-28 -82 -93.5 -138t-159 -85t-206.5 -29h-19zM947 -154v708h86v-708h-86z" />
    <glyph glyph-name="ninetamil" unicode="&#xbef;" horiz-adv-x="1155" 
d="M261 -12q-60 0 -108 19t-76 56t-28 89q0 54 28.5 93.5t90.5 61t164 21.5h254l-4 -70h-257q-51 0 -86.5 -6t-60.5 -20q-22 -13 -32.5 -31.5t-10.5 -47.5q0 -46 38 -69.5t96 -23.5q44 0 75.5 13.5t49 47t17.5 92.5v269h-172v-180l-79 -16v268h523v-72h-187v-256
q0 -67 -11.5 -105t-32.5 -64q-31 -38 -79.5 -53.5t-111.5 -15.5zM765 -12q-43 0 -80 16.5t-59 53t-22 94.5q0 31 9 58.5t24 50.5l4 15q23 34 57.5 58.5t77.5 38t91 13.5q61 0 106 -15.5t74.5 -44t44 -66t14.5 -81.5q0 -56 -17 -100t-49 -91l-69 43q26 35 37.5 69t11.5 73
q0 48 -20 79.5t-54.5 47.5t-80.5 16q-40 0 -74 -8t-60 -30l-5 -11q-22 -20 -34.5 -50.5t-12.5 -71.5q0 -48 24 -68.5t61 -20.5q35 0 51 22t16 59q0 44 -22.5 70.5t-56 38.5t-67.5 12h-119l1 70h94q15 0 28 -1t29 -3l5 -6q39 -5 72.5 -18t59 -34.5t39.5 -53t14 -72.5
q0 -67 -34 -109.5t-109 -42.5z" />
    <glyph glyph-name="tentamil" unicode="&#xbf0;" horiz-adv-x="875" 
d="M257 -12q-37 0 -66 10.5t-50 31.5q-20 21 -32 44.5t-16.5 57t-4.5 81.5v341h86v-327q0 -44 4.5 -78.5t20.5 -57.5q11 -14 26.5 -22.5t38.5 -8.5t39 9t26 24q15 23 20 57.5t5 83.5v320h86v-318q0 -53 8 -85t28 -55q17 -19 39 -27.5t44 -8.5q36 0 65.5 16.5t51 54.5
t33 101.5t11.5 157.5q0 114 -19 187.5t-52 115t-76.5 58.5t-91.5 17q-31 0 -60 -6t-55 -16t-47 -22l-25 71q29 15 61 25.5t66 16.5t68 6q41 0 84 -9.5t81 -34.5q46 -29 80 -79.5t53.5 -130t19.5 -197.5v-2q0 -102 -16 -178t-47.5 -125.5t-77.5 -74t-106 -24.5q-43 0 -78 16
t-58.5 43t-34.5 60l23 6q-13 -40 -34.5 -68t-51.5 -42.5t-69 -14.5z" />
    <glyph glyph-name="hundredtamil" unicode="&#xbf1;" horiz-adv-x="887" 
d="M354 0v554h516v-72h-170v-482h-86v482h-174v-482h-86zM240 565q41 0 70 -15.5t48 -34.5l2 -86q-22 34 -47.5 49t-54.5 15q-19 0 -32.5 -5.5t-23.5 -15.5q-20 -20 -24 -57t-4 -84v-331h-86v352q0 51 5.5 82t15 50.5t20.5 33.5q19 23 46.5 35t64.5 12z" />
    <glyph glyph-name="thousandtamil" unicode="&#xbf2;" horiz-adv-x="965" 
d="M817 174q40 0 71 -18.5t49 -50t18 -72.5q0 -46 -14 -78t-38 -54q-37 -33 -94 -45t-136 -12h-401q-42 0 -65 -6t-40 -17q-16 -11 -25 -31t-9 -53q0 -15 1 -28.5t2 -25.5l-82 -4q-3 18 -5 39.5t-2 38.5q0 44 16 74.5t41 49.5q18 13 37.5 20.5t45 11t58.5 3.5h420
q79 0 116.5 8.5t58.5 26.5q16 14 22.5 32t6.5 43q0 29 -17.5 55.5t-60.5 26.5q-25 0 -44 -8t-36 -19l-4 64q26 14 49.5 21.5t60.5 7.5zM261 -12q-60 0 -108 19t-76 56t-28 89q0 54 28.5 93.5t90.5 61t164 21.5h511v-70h-518q-51 0 -86.5 -6t-60.5 -20q-22 -13 -32.5 -31.5
t-10.5 -47.5q0 -46 38 -69.5t96 -23.5q44 0 75.5 13.5t49 47t17.5 92.5v269h-172v-180l-79 -16v268h523v-72h-187v-256q0 -67 -11.5 -105t-32.5 -64q-31 -38 -79.5 -53.5t-111.5 -15.5zM632 0v275l82 -8v-267h-82z" />
    <glyph glyph-name="daysigntamil" unicode="&#xbf3;" horiz-adv-x="985" 
d="M249 -12q-53 0 -97 26.5t-69.5 82.5t-25.5 146q0 107 42.5 179t112.5 108t152 36q76 0 130.5 -22.5t89 -62t51 -91t16.5 -110.5q0 -64 -14 -114t-34 -94h365v-72h-453l-4 63q23 35 37.5 86.5t14.5 119.5q0 71 -25 121t-70.5 76t-107.5 26q-70 0 -120 -33.5t-77 -91
t-27 -130.5q0 -67 15.5 -106.5t42 -57t59.5 -17.5q26 0 45.5 11.5t30.5 33.5t11 54q0 50 -26 76.5t-67 26.5q-40 0 -75 -21t-64 -53l-15 64q30 35 74.5 57.5t93.5 22.5q72 0 116.5 -44t44.5 -119q0 -55 -21 -95t-59.5 -61t-92.5 -21z" />
    <glyph glyph-name="monthsigntamil" unicode="&#xbf4;" horiz-adv-x="1268" 
d="M580 566q75 0 123 -38.5t71 -107t23 -158.5q0 -70 -15 -120t-48 -82q-23 -23 -53 -36t-70.5 -18.5t-98.5 -5.5h-424v554h86v-482h226v283q0 62 11.5 98.5t33.5 61.5q23 25 55 38t80 13zM578 494q-17 0 -33 -5.5t-27 -17.5q-16 -18 -24 -44.5t-8 -88.5v-266h47
q68 0 106 19t54 62t16 114q0 64 -13.5 115t-42 81.5t-75.5 30.5zM853 494q-36 0 -65.5 16t-46.5 49t-17 83q0 11 0.5 21.5t2.5 20.5q10 55 41.5 90t75 52t89.5 17q65 0 110 -22t68.5 -61t23.5 -91q0 -29 -7 -61t-23 -59l-28 5h174v-58h-225v38q16 28 25 56t9 68
q0 38 -15 66.5t-42.5 44t-67.5 15.5q-46 0 -86.5 -21.5t-55.5 -72.5q-3 -10 -4.5 -23t-1.5 -27q0 -43 15 -65t48 -22q22 0 37 11t15 36q0 16 -5 26.5t-16 16.5q-10 6 -25 8.5t-40 2.5h-42q-38 0 -62.5 -12.5t-36.5 -36.5t-12 -57v-22l-66 28q3 37 17 66t39 48.5t61 30
t81 10.5h27q44 0 68.5 -7t42.5 -22q15 -13 23 -32t8 -46q0 -34 -14.5 -58t-39.5 -37t-57 -13z" />
    <glyph glyph-name="yearsigntamil" unicode="&#xbf5;" horiz-adv-x="2223" 
d="M946 766q-155 0 -280.5 -19t-221 -57.5t-159.5 -97.5t-96.5 -139t-32.5 -182v-12q0 -71 17 -136t53.5 -121t95.5 -101.5t143 -77.5t195 -49.5t253 -17.5h20q117 0 215 12t175 37.5t130.5 66t81.5 97.5t28 131q0 42 -13 75t-37 52.5t-59 19.5q-18 0 -34.5 -4.5
t-30.5 -12.5v-230h-86v482h-160v-482h-86v554h491v-72h-159v-180q17 8 36.5 12.5t43.5 4.5q44 0 77.5 -17t57 -47t35.5 -68.5t12 -81.5q0 -78 -24.5 -140.5t-70.5 -109.5t-110 -80.5t-143 -54.5t-170.5 -31t-191.5 -10h-34q-150 0 -270.5 19t-213.5 55.5t-160 87
t-110.5 113.5t-64 137t-20.5 155v37q0 90 27.5 173t88 153.5t160.5 123t244 81.5t339 29h55q128 0 231 -11t184 -31t143 -47.5t108 -60.5q62 -45 98 -98t53 -110t22.5 -114t5.5 -110q0 -39 3.5 -70t12.5 -54.5t25 -41.5q15 -16 36 -24.5t50 -8.5q33 0 60 16t43 54t16 105
q0 66 -16 122t-44.5 102.5t-64.5 85.5l78 53q62 -79 98 -166t36 -190q0 -85 -24.5 -142t-71.5 -85.5t-117 -28.5q-43 0 -78.5 12.5t-61.5 37.5q-32 30 -49.5 83.5t-17.5 122.5q0 99 -17.5 173.5t-55 131t-97.5 97.5q-47 32 -108.5 54.5t-138.5 37t-171 21.5t-206 7zM504 -12
q-53 0 -97 26.5t-69.5 82.5t-25.5 146q0 107 42.5 179t112.5 108t152 36q76 0 130.5 -22.5t89 -62t51 -91t16.5 -110.5q0 -64 -13.5 -114t-34.5 -94h219v-72h-307l-4 63q23 35 37.5 86.5t14.5 119.5q0 71 -25 121t-70.5 76t-107.5 26q-70 0 -120 -33.5t-77 -91t-27 -130.5
q0 -67 15.5 -106.5t42.5 -57t59 -17.5q26 0 45.5 11.5t30.5 33.5t11 54q0 50 -26 76.5t-68 26.5q-39 0 -74 -21t-64 -53l-15 64q30 35 74.5 57.5t93.5 22.5q72 0 116.5 -44t44.5 -119q0 -55 -21 -95t-59.5 -61t-92.5 -21z" />
    <glyph glyph-name="debitsigntamil" unicode="&#xbf6;" horiz-adv-x="1027" 
d="M271 -321q-73 0 -125 18.5t-80 53t-28 82.5q0 22 8 38t23 26q14 10 33.5 14.5t62.5 4.5h688v638h86v-710h-336h-47h-397q-17 0 -27.5 -5t-10.5 -19q0 -19 17.5 -35t51.5 -25t82 -9q101 0 173.5 30t111.5 83l11 34q12 24 18 51.5t6 58.5v129l86 31v-145q0 -32 -4.5 -62
t-14.5 -58l-13 -40q-30 -56 -82.5 -97.5t-125.5 -64t-167 -22.5zM615 0h-527v554h86v-482h442zM678 554v-455l-86 -28v483h86z" />
    <glyph glyph-name="creditsigntamil" unicode="&#xbf7;" horiz-adv-x="1328" 
d="M249 -12q-53 0 -97 26t-69.5 81.5t-25.5 143.5q0 77 25 134t68 95q32 29 73 48t97 28.5t131 9.5h57v-72h-69q-64 0 -107 -7.5t-70.5 -20.5t-47.5 -31q-38 -34 -58 -82t-20 -109q0 -64 15.5 -103t42 -56t59.5 -17q27 0 46.5 11.5t30 33.5t10.5 54q0 50 -26 76.5t-67 26.5
q-40 0 -75 -21t-64 -53l-15 64q30 35 74.5 57.5t93.5 22.5q72 0 116.5 -44t44.5 -119q0 -55 -21 -95t-59.5 -61t-92.5 -21zM528 0v482h-36l2 72h290v-72h-170v-482h-86zM833 -3q-34 0 -63.5 16t-47.5 49t-18 84q0 15 1.5 29t3.5 26q13 50 44.5 82.5t74 48.5t86.5 16
q65 0 110 -22.5t68.5 -61.5t23.5 -91q0 -29 -7.5 -62.5t-25.5 -60.5l-16 9h244v-59h-305v38q16 28 25.5 56t9.5 68q0 38 -15 66.5t-42.5 44t-67.5 15.5q-46 0 -86 -21t-55 -71q-3 -11 -5 -24t-2 -28q0 -43 15 -65.5t48 -22.5q21 0 36 11.5t15 36.5q0 16 -5 26.5t-16 16.5
q-10 6 -24.5 8.5t-39.5 2.5h-186l-6 56h201q38 0 60.5 -6t38.5 -17q21 -13 30.5 -34t9.5 -50q0 -35 -15 -60t-40 -37.5t-57 -12.5z" />
    <glyph glyph-name="asabovesigntamil" unicode="&#xbf8;" horiz-adv-x="1965" 
d="M400 -12q-75 0 -137.5 28.5t-109 81t-71.5 125t-25 160.5q0 111 36.5 197t101 144.5t150 88.5t183.5 30q109 0 200 -34t159 -97.5t107 -150.5l21 -59q15 -43 22 -88.5t7 -92.5q0 -106 -46.5 -168t-142.5 -62q-45 0 -85.5 19t-66.5 62t-26 113q0 57 17.5 103t49 80.5
t72.5 57.5t87 33q20 3 39.5 5t38.5 2q103 0 167 -38.5t93.5 -103.5t29.5 -144q0 -64 -14 -114t-34 -94h273l-18 -72h-343l-4 63q23 35 37.5 86.5t14.5 119.5t-21.5 116.5t-60 77t-91.5 34.5l-76 -2q-54 -8 -92.5 -36.5t-58.5 -73.5t-20 -103q0 -64 25 -93.5t67 -29.5
q36 0 58.5 20t33.5 56.5t11 85.5q0 48 -9.5 94.5t-25.5 83.5l-23 52q-36 62 -86.5 111t-122.5 77.5t-171 28.5q-70 0 -136.5 -23t-120 -71.5t-85.5 -122.5t-32 -176q0 -55 11 -101.5t31 -83.5t48 -64t61 -44l64 -20q12 -2 24.5 -3t25.5 -1q51 0 81.5 28.5t30.5 86.5
q0 44 -24.5 74t-68.5 30q-43 0 -69 -28t-26 -78q0 -32 9.5 -62.5t29.5 -53.5l-79 7q-17 29 -27.5 58t-10.5 72q0 42 19.5 77.5t58.5 57.5t97 22q49 0 87 -20.5t60.5 -60t22.5 -95.5q0 -65 -27.5 -106t-73 -60t-101.5 -19zM1529 566q43 0 73.5 -12.5t49.5 -35t28 -51.5t9 -61
q0 -38 -6.5 -79t-18.5 -88l-12 -48l-120 -475l-79 22l68 270l14 56l42 166q13 53 19 94.5t6 78.5q0 44 -19 67.5t-54 23.5q-41 0 -66 -28t-25 -84q0 -45 21 -74t58.5 -42.5t86.5 -13.5h17q70 0 115 25.5t72 50.5h81v-328h-489l18 72h390v81q0 23 1 48t3 46q-29 -25 -78 -45
t-115 -20h-15q-54 0 -99 12t-79 37t-52.5 63t-18.5 90q0 51 20.5 92t59.5 65.5t94 24.5z" />
    <glyph glyph-name="rupeesigntamil" unicode="&#xbf9;" horiz-adv-x="1050" 
d="M820 299q54 0 95 -27.5t64 -79.5t23 -124q0 -104 -36 -178t-98 -120.5t-142 -68.5t-167 -22h-20q-125 0 -214.5 40.5t-146 110.5t-83.5 158.5t-27 185.5v25q0 95 23 181.5t66 158t103 122.5t133 74l-10 -75q-66 -34 -118 -104t-81.5 -162.5t-29.5 -196.5v-21
q0 -87 22.5 -163t70 -133.5t122 -90.5t177.5 -33h11q109 0 189 33.5t124 103.5t44 178q0 77 -28 116.5t-81 39.5q-30 0 -56 -12t-46 -26l1 72q19 14 48 26t68 12zM361 0v515h522v-72h-175v-443h-86v443h-175v-443h-86zM499 551q-41 0 -68 17t-39.5 47.5t-12.5 70.5
q2 41 21.5 70.5t49 49t64 28.5t65.5 9q101 0 148 -39.5t47 -101.5q0 -26 -6.5 -51t-23.5 -47l-19 11h156v-57h-214v30q16 22 26 44.5t10 53.5q0 44 -28.5 71t-93.5 27q-46 0 -77.5 -15t-50.5 -36l-10 -28q-1 -4 -2 -11t-1 -15q0 -37 14.5 -54t42.5 -17q21 0 34.5 10t13.5 30
q0 21 -14.5 33t-40.5 12q-16 0 -31.5 -3t-30.5 -8l18 58q10 4 23.5 6t29.5 2q37 0 61 -13.5t36 -35.5t12 -47q0 -33 -14 -55.5t-38.5 -34t-56.5 -11.5z" />
    <glyph glyph-name="numsigntamil" unicode="&#xbfa;" horiz-adv-x="1214" 
d="M557 362q51 0 92.5 -26t66.5 -76.5t25 -125.5q0 -90 -26 -142t-73 -86q-32 -23 -73.5 -37t-95.5 -19.5t-126 -5.5h-75q-42 0 -65 -6t-40 -17q-16 -11 -25 -31t-9 -53q0 -15 1 -28.5t2 -25.5l-82 -4q-3 18 -5 39.5t-2 38.5q0 44 16 74.5t41 49.5q18 13 37.5 20.5t45 11
t58.5 3.5h93q82 0 133.5 7t83.5 22.5t55 40.5q20 22 32.5 57.5t12.5 87.5t-13.5 87t-40 53t-65.5 18q-28 0 -56.5 -12.5t-49.5 -29.5l-3 75q26 16 58 28t72 12zM88 0v554h521v-72h-175v-482h-86v482h-174v-482h-86zM799 494q-36 0 -65.5 16t-46.5 49t-17 83q0 11 0.5 21.5
t2.5 20.5q10 55 41.5 90t75 52t89.5 17q65 0 110 -22t68.5 -61t23.5 -91q0 -29 -7 -61t-23 -59l-28 5h174v-58h-225v38q16 28 25 56t9 68q0 38 -15 66.5t-42.5 44t-67.5 15.5q-46 0 -86.5 -21.5t-55.5 -72.5q-3 -10 -4.5 -23t-1.5 -27q0 -43 15 -65t48 -22q22 0 37 11t15 36
q0 16 -5 26.5t-16 16.5q-10 6 -25 8.5t-40 2.5h-42q-38 0 -62.5 -12.5t-36.5 -36.5t-12 -57v-11l-66 17q3 37 17 66t39 48.5t61 30t81 10.5h27q44 0 68.5 -7t42.5 -22q15 -13 23 -32t8 -46q0 -34 -14.5 -58t-39.5 -37t-57 -13z" />
    <glyph glyph-name="tchatamil" horiz-adv-x="1851" 
d="M1415 566q43 0 73.5 -12.5t49.5 -35t28 -51.5t9 -61q0 -38 -6.5 -79t-18.5 -88l-12 -48l-120 -475l-79 22l68 270l14 56l42 166q13 53 19 94.5t6 78.5q0 44 -19 67.5t-54 23.5q-41 0 -66 -28t-25 -84q0 -45 21 -74t58.5 -42.5t86.5 -13.5h17q70 0 115 25.5t72 50.5h81
v-328h-489l18 72h390v81q0 23 1 48t3 46q-29 -25 -78 -45t-115 -20h-15q-54 0 -99 12t-79 37t-52.5 63t-18.5 90q0 51 20.5 92t59.5 65.5t94 24.5zM261 -12q-60 0 -108 19t-76 56t-28 89q0 54 28.5 93.5t90.5 61t164 21.5h293v-70h-300q-51 0 -86.5 -6t-60.5 -20
q-22 -13 -32.5 -31.5t-10.5 -47.5q0 -46 38 -69.5t96 -23.5q44 0 75.5 13.5t49 47t17.5 92.5v269h-172v-180l-79 -16v268h523v-72h-187v-256q0 -67 -11.5 -105t-32.5 -64q-31 -38 -79.5 -53.5t-111.5 -15.5zM801 -12q-41 0 -77 19.5t-58.5 63t-22.5 114.5q0 62 19.5 112.5
t56 87.5t87 57t111.5 20q64 0 110.5 -18t77 -50t45 -73t14.5 -87q0 -49 -13 -91.5t-30 -70.5h204l-18 -72h-271l-4 63q13 17 23 41t16.5 53t6.5 62q0 81 -46.5 126t-121.5 45q-55 0 -95.5 -20t-69.5 -68l-7 -22q-10 -30 -15 -54t-5 -57q0 -61 27 -87t64 -26q35 0 52 23.5
t17 57.5q0 45 -19.5 71.5t-53 38t-75.5 11.5h-137v70h101q58 0 95 -5.5t61.5 -16t44.5 -24.5q29 -21 46 -54.5t17 -77.5q0 -75 -37.5 -118.5t-119.5 -43.5z" />
    <glyph glyph-name="kaprehalftamil" horiz-adv-x="825" 
d="M261 -12q-60 0 -108 19t-76 56t-28 89q0 54 28.5 93.5t90.5 61t164 21.5h180q52 0 90 -5t66.5 -15.5t51.5 -28.5q26 -20 41 -52.5t15 -74.5q0 -76 -45.5 -118t-128.5 -42q-23 0 -50 3t-50 10l19 67q15 -4 34.5 -7t38.5 -3q47 0 71.5 23t24.5 71q0 34 -15 54.5t-39.5 30.5
t-55 13.5t-61.5 3.5h-194q-51 0 -86.5 -6t-60.5 -20q-22 -13 -32.5 -31.5t-10.5 -47.5q0 -46 38 -69.5t96 -23.5q44 0 75.5 13.5t49 46.5t17.5 93v269h-172v-180l-79 -16v268h523v-72h-187v-256q0 -67 -11.5 -105t-32.5 -64q-31 -38 -79.5 -53.5t-111.5 -15.5zM432 678
q-29 0 -48 18.5t-19 48.5q0 29 19 48t48 19t48 -19t19 -48q0 -30 -19 -48.5t-48 -18.5z" />
    <glyph glyph-name="ngaprehalftamil" horiz-adv-x="1044" 
d="M88 0v554h516v-72h-174v-158q20 12 52 25t76 13q50 0 86 -19t55 -55t19 -87q0 -36 -10 -69t-26 -60h122v-72h-460v72h251q17 25 27 55.5t10 64.5q0 53 -25 75t-64 22q-32 0 -61.5 -13t-51.5 -30v-102h-86v338h-170v-482h-86zM733 0v72h137v482h86v-554h-223zM522 678
q-29 0 -48 18.5t-19 48.5q0 29 19 48t48 19t48 -19t19 -48q0 -30 -19 -48.5t-48 -18.5z" />
    <glyph glyph-name="caprehalftamil" horiz-adv-x="723" 
d="M261 -12q-60 0 -108 19t-76 56t-28 89q0 54 28.5 93.5t90.5 61t164 21.5h351v-70h-358q-51 0 -86.5 -6t-60.5 -20q-22 -13 -32.5 -31.5t-10.5 -47.5q0 -46 38 -69.5t96 -23.5q44 0 75.5 13.5t49 47t17.5 92.5v269h-172v-180l-79 -16v268h523v-72h-187v-256
q0 -67 -11.5 -105t-32.5 -64q-31 -38 -79.5 -53.5t-111.5 -15.5zM432 678q-29 0 -48 18.5t-19 48.5q0 29 19 48t48 19t48 -19t19 -48q0 -30 -19 -48.5t-48 -18.5z" />
    <glyph glyph-name="japrehalftamil" horiz-adv-x="1022" 
d="M331 566q73 0 118.5 -19t71 -48t38.5 -60l-18 -9q15 43 40.5 73.5t62.5 46.5t85 16q75 0 126 -29.5t77.5 -81.5t26.5 -120q0 -67 -20 -114t-56 -78q-38 -33 -91.5 -50t-117 -23.5t-132.5 -6.5h-94q-66 0 -116.5 -4t-86 -16t-58.5 -35q-19 -19 -27.5 -44t-8.5 -57
q0 -58 22 -92t54.5 -48.5t64.5 -14.5q44 0 76 12.5t58 35.5t52 52q42 47 80 78t83.5 47t109.5 16q36 0 70.5 -9.5t62.5 -30t45 -52t17 -75.5t-20.5 -77.5t-56.5 -51.5t-82 -18q-43 0 -73.5 12t-50 32.5t-29 45.5t-9.5 50q0 47 23 79t57 61l67 -14q-34 -25 -49.5 -53
t-15.5 -60q0 -34 18.5 -59t63.5 -25q18 0 35.5 7.5t29 24.5t11.5 47t-12 48.5t-32 29t-43 14.5t-45 4q-15 0 -29.5 -1.5t-28.5 -4.5q-23 -7 -44.5 -21.5t-41.5 -35t-40 -44.5q-33 -41 -69.5 -72t-80.5 -48t-102 -17q-82 0 -134 31.5t-76 83.5t-24 111q0 55 18.5 94.5
t49.5 65.5q35 29 82 44t103 20.5t116 5.5h89q76 0 134 5t100 18.5t68 37.5q25 23 36.5 57t11.5 81q0 53 -19 88t-52 53t-74 18q-29 0 -51.5 -8.5t-39.5 -27.5q-19 -23 -27 -53.5t-8 -84.5v-114h-87v88q0 48 -9.5 86t-30 64t-54.5 39.5t-82 13.5q-31 0 -48 -2.5t-37 -9.5
l-35 -14q-27 -14 -43.5 -33.5t-24 -42t-7.5 -46.5q0 -43 21.5 -69.5t70.5 -26.5q39 0 63.5 22t24.5 61q0 35 -18.5 60.5t-51 39t-74.5 13.5l64 46q46 -4 82.5 -23.5t58 -52t21.5 -76.5q0 -72 -46.5 -115t-122.5 -43q-56 0 -94.5 21.5t-58 58t-19.5 81.5q0 70 37 119.5
t98.5 75.5t132.5 26zM502 678q-29 0 -48 18.5t-19 48.5q0 29 19 48t48 19t48 -19t19 -48q0 -30 -19 -48.5t-48 -18.5z" />
    <glyph glyph-name="nyaprehalftamil" horiz-adv-x="1210" 
d="M980 319q54 0 95 -27.5t64 -80t23 -128.5q0 -89 -28 -156t-78 -114.5t-116 -77t-142.5 -43t-157.5 -13.5h-27q-124 0 -215.5 26t-155 72t-101.5 106t-55.5 128t-17.5 138v21q0 69 18.5 138.5t48.5 132.5t64 113l74 -44q-38 -57 -64.5 -115t-40.5 -116t-14 -116v-13
q0 -84 27 -155.5t83.5 -125t145 -83.5t212.5 -30h13q96 0 176.5 19.5t139 59.5t91 102t32.5 147q0 54 -13 90t-37.5 54.5t-59.5 18.5q-30 0 -55.5 -12.5t-46.5 -27.5l1 74q19 14 48.5 26t68.5 12zM503 -12q-53 0 -96.5 26t-69.5 81.5t-26 143.5q0 77 25 134t68 95
q32 29 73 48t97 28.5t131 9.5h57v-72h-69q-64 0 -107 -7.5t-70.5 -20.5t-47.5 -31q-38 -34 -58 -82t-20 -109q0 -62 15 -101t42 -57t61 -18q26 0 45 11.5t30 33.5t11 54q0 50 -26.5 76.5t-67.5 26.5q-39 0 -74 -21t-64 -53l-15 64q30 35 74 57.5t93 22.5q73 0 117.5 -44
t44.5 -119q0 -55 -21 -95t-59.5 -61t-92.5 -21zM782 0v482h-36l2 72h290v-72h-170v-482h-86zM606 678q-29 0 -48 18.5t-19 48.5q0 29 19 48t48 19t48 -19t19 -48q0 -30 -19 -48.5t-48 -18.5z" />
    <glyph glyph-name="ttaprehalftamil" horiz-adv-x="693" 
d="M88 0v554h86v-482h502v-72h-588zM347 678q-29 0 -48 18.5t-19 48.5q0 29 19 48t48 19t48 -19t19 -48q0 -30 -19 -48.5t-48 -18.5z" />
    <glyph glyph-name="nnaprehalftamil" horiz-adv-x="1649" 
d="M249 -12q-53 0 -97 26.5t-69.5 82.5t-25.5 146q0 99 43.5 171.5t122.5 112t185 39.5q48 0 91.5 -7.5t83.5 -23t79 -40.5l41 -36q57 -52 89.5 -119.5t32.5 -150.5q0 -67 -19.5 -111.5t-56 -67t-86.5 -22.5q-58 0 -94.5 26t-54 70.5t-17.5 101.5q0 53 11 101t33 90t55 77
l48 41q47 35 102 53t120 18q45 0 82.5 -7.5t71 -23t64.5 -38.5l46 -40q34 -33 58.5 -74.5t38 -90t13.5 -103.5q0 -67 -19.5 -111.5t-56 -67t-87.5 -22.5q-57 0 -93.5 26t-54 70.5t-17.5 101.5q0 51 10.5 97t34.5 90t63 85l45 37q30 18 64 31t82.5 20.5t121.5 7.5h298v-72
h-170v-482h-86v482h-65q-33 0 -61.5 -2t-54 -7.5t-49.5 -15.5t-49 -27q-33 -21 -55 -58.5t-33.5 -84.5t-11.5 -98q0 -69 21 -101t57 -32q32 0 49.5 19t24.5 48t7 59q0 57 -15 106t-39.5 86t-53.5 58q-42 34 -87.5 47.5t-91.5 13.5q-56 0 -103.5 -14t-92.5 -50
q-33 -28 -53 -67.5t-29 -84t-9 -88.5q0 -69 21 -101t58 -32q31 0 48.5 19t24.5 48t7 59q0 80 -30.5 143t-88.5 108q-47 33 -103 46t-120 13q-74 0 -129 -27t-87.5 -74t-42.5 -108q-1 -15 -2 -28.5t-1 -21.5q0 -65 15.5 -104t42 -56t59.5 -17q27 0 46.5 11.5t30 33.5t10.5 54
q0 50 -26 76.5t-67 26.5q-40 0 -75 -21t-64 -53l-15 64q30 35 74.5 57.5t93.5 22.5q72 0 116.5 -44t44.5 -119q0 -55 -21 -95t-59.5 -61t-92.5 -21zM825 678q-29 0 -48 18.5t-19 48.5q0 29 19 48t48 19t48 -19t19 -48q0 -30 -19 -48.5t-48 -18.5z" />
    <glyph glyph-name="taprehalftamil" horiz-adv-x="825" 
d="M261 -12q-60 0 -108 19t-76 56t-28 89q0 54 28.5 93.5t90.5 61t164 21.5h145q87 0 155 -21.5t106.5 -71.5t38.5 -137q0 -67 -25 -112.5t-71 -79.5q-33 -23 -74.5 -37t-95.5 -19.5t-126 -5.5h-113q-42 0 -65 -6t-40 -17q-16 -11 -25 -31t-9 -53q0 -15 1 -28.5t2 -25.5
l-82 -4q-3 18 -5 39.5t-2 38.5q0 44 16 74.5t41 49.5q18 13 37.5 20.5t45 11t58.5 3.5h109q89 0 146 7.5t92 23t58 40.5q20 22 30.5 51.5t10.5 66.5q0 49 -19.5 79t-52 46t-72 22t-80.5 6h-142q-51 0 -86.5 -6t-60.5 -20q-22 -13 -32.5 -31.5t-10.5 -47.5q0 -46 38 -69.5
t96 -23.5q44 0 75.5 13.5t49 47t17.5 92.5v269h-172v-180l-79 -16v268h523v-72h-187v-256q0 -67 -11.5 -105t-32.5 -64q-31 -38 -79.5 -53.5t-111.5 -15.5zM435 678q-29 0 -48 18.5t-19 48.5q0 29 19 48t48 19t48 -19t19 -48q0 -30 -19 -48.5t-48 -18.5z" />
    <glyph glyph-name="naprehalftamil" horiz-adv-x="789" 
d="M557 362q51 0 92.5 -26t66.5 -77t25 -125q0 -90 -26 -142t-73 -86q-32 -23 -73.5 -37t-95.5 -19.5t-126 -5.5h-75q-42 0 -65 -6t-40 -17q-16 -11 -25 -31t-9 -53q0 -15 1 -28.5t2 -25.5l-82 -4q-3 18 -5 39.5t-2 38.5q0 44 16 74.5t41 49.5q18 13 37.5 20.5t45 11
t58.5 3.5h93q82 0 133.5 7t83.5 22.5t55 40.5q20 22 32.5 57.5t12.5 87.5t-13.5 87t-40 53t-65.5 18q-28 0 -56.5 -12.5t-49.5 -29.5l-3 75q26 16 58 28t72 12zM88 0v554h521v-72h-175v-482h-86v482h-174v-482h-86zM395 678q-29 0 -48 18.5t-19 48.5q0 29 19 48t48 19
t48 -19t19 -48q0 -30 -19 -48.5t-48 -18.5z" />
    <glyph glyph-name="nnnaprehalftamil" horiz-adv-x="1234" 
d="M249 -12q-53 0 -97 26.5t-69.5 82.5t-25.5 146q0 99 43.5 171.5t122.5 112t185 39.5q48 0 91.5 -7.5t83.5 -23t79 -40.5l46 -42q53 -47 85 -114.5t32 -149.5q0 -67 -19.5 -111.5t-56 -67t-86.5 -22.5q-58 0 -94.5 26t-54 70.5t-17.5 101.5q0 53 11.5 100t34.5 89t57 79
l50 41q30 18 64 31t82.5 20.5t121.5 7.5h299v-72h-170v-482h-86v482h-66q-33 0 -62 -2.5t-55 -8t-50 -15.5t-47 -26q-33 -21 -55 -59.5t-33.5 -86t-11.5 -95.5q0 -69 21 -101t58 -32q31 0 48.5 19t24.5 48t7 59q0 79 -30.5 142.5t-88.5 108.5q-47 33 -103 46t-120 13
q-74 0 -129 -27t-87.5 -74t-42.5 -108q-1 -15 -2 -28.5t-1 -21.5q0 -65 15.5 -104t42 -56t59.5 -17q27 0 46.5 11.5t30 33.5t10.5 54q0 50 -26 76.5t-67 26.5q-40 0 -75 -21t-64 -53l-15 64q30 35 74.5 57.5t93.5 22.5q72 0 116.5 -44t44.5 -119q0 -55 -21 -95t-59.5 -61
t-92.5 -21zM618 678q-29 0 -48 18.5t-19 48.5q0 29 19 48t48 19t48 -19t19 -48q0 -30 -19 -48.5t-48 -18.5z" />
    <glyph glyph-name="paprehalftamil" horiz-adv-x="778" 
d="M88 0v554h86v-482h430v482h86v-554h-602zM389 678q-29 0 -48 18.5t-19 48.5q0 29 19 48t48 19t48 -19t19 -48q0 -30 -19 -48.5t-48 -18.5z" />
    <glyph glyph-name="maprehalftamil" horiz-adv-x="858" 
d="M580 566q75 0 123 -38.5t71 -107t23 -158.5q0 -70 -15 -120t-48 -82q-23 -23 -53 -36t-70.5 -18.5t-98.5 -5.5h-424v554h86v-482h226v283q0 62 11.5 98.5t33.5 61.5q23 25 55 38t80 13zM578 494q-17 0 -33 -5.5t-27 -17.5q-16 -18 -24 -44.5t-8 -88.5v-266h47
q68 0 106 19t54 62t16 114q0 64 -13.5 115t-42 81.5t-75.5 30.5zM430 678q-29 0 -48 18.5t-19 48.5q0 29 19 48t48 19t48 -19t19 -48q0 -30 -19 -48.5t-48 -18.5z" />
    <glyph glyph-name="yaprehalftamil" horiz-adv-x="963" 
d="M354 0v554h86v-482h349v482h86v-554h-521zM240 -11q-37 0 -64.5 12.5t-46.5 34.5q-11 15 -20.5 34t-15 50t-5.5 82v352h86v-331q0 -46 4 -83.5t24 -57.5q10 -10 23.5 -15.5t32.5 -5.5q29 0 54.5 15t47.5 49l-2 -86q-19 -19 -48 -34.5t-70 -15.5zM481 678q-29 0 -48 18.5
t-19 48.5q0 29 19 48t48 19t48 -19t19 -48q0 -30 -19 -48.5t-48 -18.5z" />
    <glyph glyph-name="raprehalftamil" horiz-adv-x="640" 
d="M231 -212l-57 53l193 183v458h-193v-482h-86v554h535v-72h-170v-482zM320 678q-29 0 -48 18.5t-19 48.5q0 29 19 48t48 19t48 -19t19 -48q0 -30 -19 -48.5t-48 -18.5z" />
    <glyph glyph-name="rraprehalftamil" horiz-adv-x="869" 
d="M570 566q76 0 128.5 -38t79.5 -109.5t27 -174.5q0 -122 -31 -199.5t-84 -121.5q-38 -31 -86 -48.5t-102.5 -24t-113.5 -6.5h-118q-42 0 -65 -6t-40 -17q-16 -11 -25 -31t-9 -53q0 -15 1 -28.5t2 -25.5l-82 -4q-3 18 -5 39.5t-2 38.5q0 44 16 74.5t41 49.5
q18 13 37.5 20.5t45 11t58.5 3.5h123q93 0 159 13.5t108.5 48.5t62.5 100.5t20 168.5q0 91 -19.5 145t-54 78t-79.5 24q-26 0 -49 -8.5t-40 -27.5q-20 -23 -28 -54t-8 -85v-319h-86v321q0 49 -5 83.5t-20 56.5q-10 15 -26 24t-39 9t-38.5 -8.5t-26.5 -22.5
q-16 -22 -20.5 -57t-4.5 -79v-327h-86v341q0 49 4.5 82t16.5 57t32 44q21 21 50 31.5t66 10.5q39 0 69 -14t52 -41.5t35 -67.5l-21 7q11 33 34.5 59.5t60 41.5t85.5 15zM434 678q-29 0 -48 18.5t-19 48.5q0 29 19 48t48 19t48 -19t19 -48q0 -30 -19 -48.5t-48 -18.5z" />
    <glyph glyph-name="laprehalftamil" horiz-adv-x="1013" 
d="M249 -12q-53 0 -97 26t-69.5 82.5t-25.5 145.5q0 81 24 142t66 101.5t96.5 60.5t115.5 20q48 0 98 -13t88 -51q28 -27 43.5 -62t22 -81t6.5 -107q0 -35 3.5 -64t12.5 -52t25 -41q15 -16 36 -24.5t50 -8.5q33 0 60 16t43 54t16 105q0 66 -16 122t-44.5 102.5t-64.5 85.5
l78 53q62 -79 98 -166t36 -190q0 -85 -24.5 -142t-71.5 -85.5t-117 -28.5q-43 0 -78.5 12.5t-61.5 37.5q-32 30 -49 83t-18 129q0 36 -4 74t-16 72.5t-38 58.5q-20 18 -48 27.5t-69 9.5q-69 0 -118 -33.5t-75 -92t-26 -134.5q0 -64 15.5 -103t42 -56t59.5 -17
q27 0 46.5 11.5t30 33.5t10.5 54q0 50 -26 76.5t-67 26.5q-40 0 -75 -21t-64 -53l-15 64q30 35 74.5 57.5t93.5 22.5q72 0 116.5 -44t44.5 -119q0 -55 -21 -95t-59.5 -61t-92.5 -21zM507 678q-29 0 -48 18.5t-19 48.5q0 29 19 48t48 19t48 -19t19 -48q0 -30 -19 -48.5
t-48 -18.5z" />
    <glyph glyph-name="llaprehalftamil" horiz-adv-x="1070" 
d="M249 -12q-53 0 -97 26.5t-69.5 82.5t-25.5 146q0 82 24.5 142.5t67.5 100.5t97 60t112 20q44 0 79 -8.5t64 -24t54 -36.5l-13 -96q-35 44 -79.5 67.5t-107.5 23.5q-67 0 -116 -33.5t-76 -91t-27 -130.5q0 -67 15.5 -106.5t42 -57t59.5 -17.5q27 0 46.5 11.5t30 33.5
t10.5 54q0 50 -26 76.5t-67 26.5q-40 0 -75 -21t-64 -53l-15 64q30 35 74.5 57.5t93.5 22.5q72 0 116.5 -44t44.5 -119q0 -55 -21 -95t-59.5 -61t-92.5 -21zM537 0v416l12 78v60h504v-72h-170v-482h-86v482h-174v-482h-86zM535 678q-29 0 -48 18.5t-19 48.5q0 29 19 48
t48 19t48 -19t19 -48q0 -30 -19 -48.5t-48 -18.5z" />
    <glyph glyph-name="lllaprehalftamil" horiz-adv-x="858" 
d="M580 566q75 0 123 -38.5t71 -107t23 -158.5q0 -70 -15 -120t-48 -82q-23 -23 -53 -36t-70.5 -18.5t-98.5 -5.5h-424v554h86v-482h226v283q0 62 11.5 98.5t33.5 61.5q23 25 55 38t80 13zM578 494q-17 0 -33 -5.5t-27 -17.5q-16 -18 -24 -44.5t-8 -88.5v-266h47
q68 0 106 19t54 62t16 114q0 64 -13.5 115t-42 81.5t-75.5 30.5zM220 -61q17 0 35.5 -1.5t34.5 -3.5l-8 -67q-10 2 -22 2.5t-27 0.5q-37 0 -60.5 -12.5t-23.5 -42.5q0 -27 19.5 -41.5t49 -19.5t58.5 -5h25q51 0 85 12t56 34t37 53q9 17 18 27.5t25.5 16t47.5 7.5l75 -12
q-43 -9 -62.5 -26.5t-30.5 -42.5q-22 -42 -52.5 -73.5t-79 -48.5t-126.5 -17h-25q-46 0 -89 10.5t-69 28.5q-19 14 -33.5 38t-14.5 58q0 58 43.5 91.5t113.5 33.5zM549 -166l-17 9q-37 8 -66.5 26t-46.5 50t-19 81h85q1 -29 10.5 -49.5t31.5 -31.5q14 -6 33.5 -9.5
t50.5 -3.5h128v-72h-190zM430 678q-29 0 -48 18.5t-19 48.5q0 29 19 48t48 19t48 -19t19 -48q0 -30 -19 -48.5t-48 -18.5z" />
    <glyph glyph-name="vaprehalftamil" horiz-adv-x="1044" 
d="M249 -12q-53 0 -97 26.5t-69.5 82.5t-25.5 146q0 107 42.5 179t112.5 108t152 36q76 0 130.5 -22.5t89 -62t51 -91t16.5 -110.5q0 -64 -14 -114t-34 -94h267v482h86v-554h-441l-4 63q23 35 37.5 86.5t14.5 119.5q0 71 -25 121t-70.5 76t-107.5 26q-70 0 -120 -33.5
t-77 -91t-27 -130.5q0 -67 15.5 -106.5t42 -57t59.5 -17.5q26 0 45.5 11.5t30.5 33.5t11 54q0 50 -26 76.5t-67 26.5q-40 0 -75 -21t-64 -53l-15 64q30 35 74.5 57.5t93.5 22.5q72 0 116.5 -44t44.5 -119q0 -55 -21 -95t-59.5 -61t-92.5 -21zM522 678q-29 0 -48 18.5
t-19 48.5q0 29 19 48t48 19t48 -19t19 -48q0 -30 -19 -48.5t-48 -18.5z" />
    <glyph glyph-name="shaprehalftamil" horiz-adv-x="1172" 
d="M301 -12q-50 0 -91 15t-70 44q-27 29 -40.5 72t-13.5 110v325h86v-309q0 -68 10 -101.5t29 -53.5q16 -16 38.5 -22.5t51.5 -6.5q28 0 50.5 6.5t39.5 22.5q20 20 29.5 53.5t9.5 101.5v309h656v-321q0 -64 -14 -110.5t-40 -75.5q-27 -28 -67.5 -43.5t-93.5 -15.5
q-50 0 -91 15t-70 44q-27 29 -40.5 72.5t-13.5 112.5v250h-140v-251q0 -68 -13.5 -111.5t-40.5 -72.5q-27 -28 -67.5 -43.5t-93.5 -15.5zM871 61q28 0 50 6.5t39 22.5q20 20 30 53.5t10 101.5v237h-258v-237q0 -68 10 -101.5t29 -53.5q16 -16 38.5 -22.5t51.5 -6.5zM586 678
q-29 0 -48 18.5t-19 48.5q0 29 19 48t48 19t48 -19t19 -48q0 -30 -19 -48.5t-48 -18.5z" />
    <glyph glyph-name="ssaprehalftamil" horiz-adv-x="1323" 
d="M909 566q43 0 73.5 -12.5t49.5 -35t28 -51.5t9 -61q0 -38 -6.5 -79t-18.5 -88l-12 -48l-120 -475l-79 22l68 270l14 56l42 166q13 53 19 94.5t6 78.5q0 44 -19 67.5t-54 23.5q-41 0 -66 -28t-25 -84q0 -45 21 -74t58.5 -42.5t86.5 -13.5h17q70 0 115 25.5t72 50.5h81
v-328h-489l18 72h390v81q0 23 1 48t3 46q-29 -25 -78 -45t-115 -20h-15q-54 0 -99 12t-79 37t-52.5 63t-18.5 90q0 51 20.5 92t59.5 65.5t94 24.5zM249 -12q-53 0 -97 26.5t-69.5 82.5t-25.5 146q0 107 42.5 179t112.5 108t152 36q76 0 130.5 -22.5t89 -62t51 -91
t16.5 -110.5q0 -64 -14 -114t-34 -94h266l-2 -72h-352l-4 63q23 35 37.5 86.5t14.5 119.5q0 71 -25 121t-70.5 76t-107.5 26q-70 0 -120 -33.5t-77 -91t-27 -130.5q0 -67 15.5 -106.5t42 -57t59.5 -17.5q26 0 45.5 11.5t30.5 33.5t11 54q0 50 -26 76.5t-67 26.5
q-40 0 -75 -21t-64 -53l-15 64q30 35 74.5 57.5t93.5 22.5q72 0 116.5 -42.5t44.5 -120.5q0 -55 -21 -95t-59.5 -61t-92.5 -21zM661 678q-29 0 -48 18.5t-19 48.5q0 29 19 48t48 19t48 -19t19 -48q0 -30 -19 -48.5t-48 -18.5z" />
    <glyph glyph-name="saprehalftamil" horiz-adv-x="1285" 
d="M249 -12q-53 0 -97 26t-69.5 82.5t-25.5 145.5q0 81 24 142t66 101.5t96.5 60.5t115.5 20q52 0 93.5 -14.5t75 -44.5t59.5 -77l-29 3q9 35 30 65.5t53.5 49t77.5 18.5q37 0 66.5 -11t51.5 -34q26 -27 39 -68.5t13 -109.5v-88q0 -55 8 -94.5t33 -65.5q15 -16 36 -24.5
t49 -8.5q34 0 61 16t43 54t16 105q0 66 -16.5 122t-44.5 102.5t-65 85.5l78 53q62 -79 98.5 -166t36.5 -190q0 -85 -24.5 -142t-71.5 -85.5t-117 -28.5q-43 0 -78.5 12.5t-61.5 37.5q-21 20 -36 50.5t-23 71t-8 90.5v38q0 65 -4.5 102t-14.5 59q-10 24 -28 34.5t-41 10.5
q-21 0 -36.5 -9t-25.5 -22q-15 -19 -22 -45.5t-7 -66.5v-351h-86v293q0 63 -17 100.5t-43 59.5q-28 23 -56.5 31t-65.5 8q-69 0 -118 -33.5t-75 -92t-26 -134.5q0 -64 15.5 -103t42 -56t59.5 -17q26 0 45.5 11.5t30.5 33.5t11 54q0 50 -26 76.5t-67 26.5q-40 0 -75 -21
t-64 -53l-15 64q30 35 74.5 57.5t93.5 22.5q72 0 116.5 -44t44.5 -119q0 -55 -21 -95t-59.5 -61t-92.5 -21zM642 678q-29 0 -48 18.5t-19 48.5q0 29 19 48t48 19t48 -19t19 -48q0 -30 -19 -48.5t-48 -18.5z" />
    <glyph glyph-name="haprehalftamil" horiz-adv-x="1619" 
d="M1320 566q76 0 128.5 -38t79.5 -109.5t27 -174.5q0 -122 -31 -199.5t-84 -121.5q-38 -31 -86 -48.5t-102.5 -24t-113.5 -6.5h-866q-42 0 -65 -6t-40 -17q-16 -11 -25 -31t-9 -53q0 -15 1 -28.5t2 -25.5l-82 -4q-3 18 -5 39.5t-2 38.5q0 44 16 74.5t41 49.5
q18 13 37.5 20.5t45 11t58.5 3.5h871q93 0 159 13.5t108.5 48.5t62.5 100.5t20 168.5q0 91 -19.5 145t-54 78t-78.5 24q-27 0 -50 -8.5t-40 -27.5q-20 -23 -28 -54t-8 -85v-319h-86v321q0 49 -5 83.5t-20 56.5q-10 15 -26 24t-39 9t-38.5 -8.5t-26.5 -22.5
q-16 -22 -20.5 -56.5t-4.5 -78.5v-328h-86v341q0 49 4.5 82t16.5 57t32 44q21 21 50 31.5t66 10.5q39 0 69 -14t52 -41.5t35 -67.5l-21 7q11 33 34.5 59.5t60 41.5t85.5 15zM249 -12q-53 0 -97 26.5t-69.5 82.5t-25.5 146q0 107 42.5 179t112.5 108t152 36q76 0 130.5 -22.5
t89 -62t51 -91t16.5 -110.5q0 -64 -14 -114t-34 -94h266l-2 -72h-352l-4 63q23 35 37.5 86.5t14.5 119.5q0 71 -25 121t-70.5 76t-107.5 26q-70 0 -120 -33.5t-77 -91t-27 -130.5q0 -67 15.5 -106.5t42 -57t59.5 -17.5q26 0 45.5 11.5t30.5 33.5t11 54q0 50 -26 76.5
t-67 26.5q-40 0 -75 -21t-64 -53l-15 64q30 35 74.5 57.5t93.5 22.5q72 0 116.5 -44t44.5 -119q0 -55 -21 -95t-59.5 -61t-92.5 -21zM809 678q-29 0 -48 18.5t-19 48.5q0 29 19 48t48 19t48 -19t19 -48q0 -30 -19 -48.5t-48 -18.5z" />
    <glyph glyph-name="tchaprehalftamil" horiz-adv-x="1851" 
d="M1415 566q43 0 73.5 -12.5t49.5 -35t28 -51.5t9 -61q0 -38 -6.5 -79t-18.5 -88l-12 -48l-120 -475l-79 22l68 270l14 56l42 166q13 53 19 94.5t6 78.5q0 44 -19 67.5t-54 23.5q-41 0 -66 -28t-25 -84q0 -45 21 -74t58.5 -42.5t86.5 -13.5h17q70 0 115 25.5t72 50.5h81
v-328h-489l18 72h390v81q0 23 1 48t3 46q-29 -25 -78 -45t-115 -20h-15q-54 0 -99 12t-79 37t-52.5 63t-18.5 90q0 51 20.5 92t59.5 65.5t94 24.5zM261 -12q-60 0 -108 19t-76 56t-28 89q0 54 28.5 93.5t90.5 61t164 21.5h293v-70h-300q-51 0 -86.5 -6t-60.5 -20
q-22 -13 -32.5 -31.5t-10.5 -47.5q0 -46 38 -69.5t96 -23.5q44 0 75.5 13.5t49 47t17.5 92.5v269h-172v-180l-79 -16v268h523v-72h-187v-256q0 -67 -11.5 -105t-32.5 -64q-31 -38 -79.5 -53.5t-111.5 -15.5zM801 -12q-41 0 -77 19.5t-58.5 63t-22.5 114.5q0 62 19.5 112.5
t56 87.5t87 57t111.5 20q64 0 110.5 -18t77 -50t45 -73t14.5 -87q0 -49 -13 -91.5t-30 -70.5h204l-18 -72h-271l-4 63q13 17 23 41t16.5 53t6.5 62q0 81 -46.5 126t-121.5 45q-55 0 -95.5 -20t-69.5 -68l-7 -22q-10 -30 -15 -54t-5 -57q0 -61 27 -87t64 -26q35 0 52 23.5
t17 57.5q0 45 -19.5 71.5t-53 38t-75.5 11.5h-137v70h101q58 0 95 -5.5t61.5 -16t44.5 -24.5q29 -21 46 -54.5t17 -77.5q0 -75 -37.5 -118.5t-119.5 -43.5zM909 678q-29 0 -48 18.5t-19 48.5q0 29 19 48t48 19t48 -19t19 -48q0 -30 -19 -48.5t-48 -18.5z" />
    <glyph glyph-name="kaiivowelsigntamil" horiz-adv-x="825" 
d="M261 -12q-60 0 -108 19t-76 56t-28 89q0 54 28.5 93.5t90.5 61t164 21.5h180q52 0 90 -5t66.5 -15.5t51.5 -28.5q26 -20 41 -52.5t15 -74.5q0 -76 -45.5 -118t-128.5 -42q-23 0 -50 3t-50 10l19 67q15 -4 34.5 -7t38.5 -3q47 0 71.5 23t24.5 71q0 34 -15 54.5t-39.5 30.5
t-55 13.5t-61.5 3.5h-194q-51 0 -86.5 -6t-60.5 -20q-22 -13 -32.5 -31.5t-10.5 -47.5q0 -46 38 -69.5t96 -23.5q44 0 75.5 13.5t49 46.5t17.5 93v269h-172v-180l-79 -16v268h523v-72h-187v-256q0 -67 -11.5 -105t-32.5 -64q-31 -38 -79.5 -53.5t-111.5 -15.5zM657 843
q86 0 131 -34.5t45 -90.5q0 -63 -38 -93.5t-93 -30.5q-58 0 -93 29.5t-35 81.5q0 23 9.5 54t36.5 59l51 -22q-16 -19 -23.5 -38.5t-7.5 -38.5q0 -22 8 -36t22 -20.5t32 -6.5q29 0 45 16t16 41q0 35 -28 51t-72 16q-8 0 -19 -0.5t-20 -1.5q-77 -8 -113 -50.5t-36 -101.5
q0 -28 7 -50.5t19 -40.5l-84 -6q-9 20 -14 44t-5 51q0 44 15.5 83.5t47 70t80.5 48t116 17.5z" />
    <glyph glyph-name="kauvowelsigntamil" horiz-adv-x="1062" 
d="M499 -12q-61 0 -109 19t-76 56t-28 89q0 54 28.5 93.5t91 61t163.5 21.5h125q87 0 148 -24t99 -65t55.5 -92.5t17.5 -106.5q0 -80 -24.5 -140t-67.5 -102.5t-100 -68.5t-122.5 -38t-133.5 -12h-29q-106 0 -185 26.5t-133.5 72t-87.5 103.5t-48 122t-15 127v21
q0 82 20 154t52 134.5t67 114.5l73 -44q-40 -56 -68 -115.5t-43 -121t-15 -123.5v-19q0 -75 22.5 -142.5t69.5 -120t122 -82.5t180 -30h12q85 0 152.5 18t115 53.5t73 89t25.5 124.5q0 75 -31 123t-85.5 71t-123.5 23h-124q-51 0 -86.5 -6t-60.5 -20q-22 -13 -32.5 -31.5
t-10.5 -47.5q0 -46 38 -69.5t96 -23.5q44 0 75.5 13.5t49 47t17.5 92.5v269h-172v-180l-79 -16v268h523v-72h-187v-256q0 -67 -11.5 -105t-32.5 -64q-31 -38 -79.5 -53.5t-110.5 -15.5z" />
    <glyph glyph-name="kauuvowelsigntamil" horiz-adv-x="1332" 
d="M801 -12q-41 0 -77 19.5t-58.5 63t-22.5 114.5q0 83 34.5 145t96 97t143.5 35q64 0 110.5 -18t77 -50t45 -73t14.5 -87q0 -49 -13 -91.5t-30 -70.5h194v-72h-279l-4 63q13 17 23 41t16.5 53t6.5 62q0 81 -46.5 126t-121.5 45q-55 0 -95.5 -20t-69.5 -68l-7 -22
q-10 -30 -15 -54t-5 -57q0 -61 27 -87t64 -26q35 0 52 23.5t17 57.5q0 45 -19.5 71.5t-53 38t-75.5 11.5h-137v70h101q58 0 95 -5.5t61.5 -16t44.5 -24.5q29 -21 46 -54.5t17 -77.5q0 -75 -37.5 -118.5t-119.5 -43.5zM261 -12q-60 0 -108 19t-76 56t-28 89q0 54 28.5 93.5
t90.5 61t164 21.5h294v-70h-301q-51 0 -86.5 -6t-60.5 -20q-22 -13 -32.5 -31.5t-10.5 -47.5q0 -46 38 -69.5t96 -23.5q44 0 75.5 13.5t49 47t17.5 92.5v269h-172v-180l-79 -16v268h523v-72h-187v-256q0 -67 -11.5 -105t-32.5 -64q-31 -38 -79.5 -53.5t-111.5 -15.5z" />
    <glyph glyph-name="ngaiivowelsigntamil" horiz-adv-x="1044" 
d="M88 0v554h488v-72h-146v-158q20 12 52 25t76 13q50 0 86 -19t55 -55t19 -87q0 -36 -10 -69t-26 -60h222v-72h-560v72h251q17 25 27 55.5t10 64.5q0 53 -25 75t-64 22q-32 0 -61.5 -13t-51.5 -30v-102h-86v338h-170v-482h-86zM870 0v554h86v-554h-86zM872 843
q85 0 129.5 -34.5t44.5 -90.5q0 -63 -38.5 -93.5t-92.5 -30.5q-58 0 -93 29.5t-35 81.5q0 23 9.5 54t36.5 59l51 -22q-16 -19 -23.5 -38.5t-7.5 -38.5q0 -22 8 -36t22 -20.5t32 -6.5q29 0 45 16t16 41q0 35 -28 51t-72 16q-7 0 -17.5 -0.5t-18.5 -1.5q-76 -8 -111.5 -50.5
t-35.5 -101.5q0 -44 16 -74.5t42 -49t57 -28.5t62 -13v-71q-52 5 -98.5 21.5t-81 45.5t-54.5 70t-20 96q0 44 15 83.5t46.5 70.5t80 48.5t114.5 17.5z" />
    <glyph glyph-name="ngauvowelsigntamil" horiz-adv-x="1044" 
d="M88 0v554h516v-72h-174v-158q20 12 52 25t76 13q50 0 86 -19t55 -55t19 -87q0 -36 -10 -69t-26 -60h210v-72h-548v72h251q17 25 27 55.5t10 64.5q0 53 -25 75t-64 22q-32 0 -61.5 -13t-51.5 -30v-102h-86v338h-170v-482h-86zM870 -283v837h86v-837h-86z" />
    <glyph glyph-name="ngauuvowelsigntamil" horiz-adv-x="1214" 
d="M1058 101q40 0 74.5 -16t55.5 -49.5t21 -84.5q0 -67 -32 -115t-94 -80q-52 -27 -124.5 -44t-163.5 -25t-199 -8h-51q-72 0 -130.5 3t-105.5 9t-82.5 15t-61.5 20q-45 20 -63.5 46.5t-18.5 59.5q0 28 16.5 53t55 41t103.5 16q47 0 87 -6t74 -14l-15 -72q-32 8 -69.5 14.5
t-72.5 6.5q-52 0 -72.5 -10.5t-20.5 -30.5q0 -14 17 -28t61 -25.5t123 -18t202 -6.5h13q74 0 137.5 3.5t117 10.5t97 17.5t76.5 24.5q56 24 84 59t28 82q0 44 -22 63t-61 19q-28 0 -51.5 -11t-38.5 -24l-1 73q19 14 46 23t61 9zM88 0v554h516v-72h-174v-158q20 12 52 25
t76 13q50 0 86 -19t55 -55t19 -87q0 -36 -10 -69t-26 -60h210v-72h-548v72h251q17 25 27 55.5t10 64.5q0 53 -25 75t-64 22q-32 0 -61.5 -13t-51.5 -30v-102h-86v338h-170v-482h-86zM870 -148v702h86v-702h-86z" />
    <glyph glyph-name="caiivowelsigntamil" horiz-adv-x="776" 
d="M261 -12q-60 0 -108 19t-76 56t-28 89q0 54 28.5 93.5t90.5 61t164 21.5h351v-70h-358q-51 0 -86.5 -6t-60.5 -20q-22 -13 -32.5 -31.5t-10.5 -47.5q0 -46 38 -69.5t96 -23.5q44 0 75.5 13.5t49 47t17.5 92.5v269h-172v-180l-79 -16v268h523v-72h-187v-256
q0 -67 -11.5 -105t-32.5 -64q-31 -38 -79.5 -53.5t-111.5 -15.5zM608 843q86 0 131 -34.5t45 -90.5q0 -63 -38 -93.5t-93 -30.5q-58 0 -93 29.5t-35 81.5q0 23 9.5 54t36.5 59l51 -22q-16 -19 -23.5 -38.5t-7.5 -38.5q0 -22 8 -36t22 -20.5t32 -6.5q29 0 45 16t16 41
q0 35 -28 51t-72 16q-8 0 -19 -0.5t-20 -1.5q-77 -8 -113 -50.5t-36 -101.5q0 -28 7 -50.5t19 -40.5l-84 -6q-9 20 -14 44t-5 51q0 44 15.5 83.5t47 70t80.5 48t116 17.5z" />
    <glyph glyph-name="cauvowelsigntamil" horiz-adv-x="867" 
d="M261 -12q-60 0 -108 19t-76 56t-28 89q0 54 28.5 93.5t90.5 61t164 21.5h511v-70h-518q-51 0 -86.5 -6t-60.5 -20q-22 -13 -32.5 -31.5t-10.5 -47.5q0 -46 38 -69.5t96 -23.5q44 0 75.5 13.5t49 47t17.5 92.5v269h-172v-180l-79 -16v268h523v-72h-187v-256
q0 -67 -11.5 -105t-32.5 -64q-31 -38 -79.5 -53.5t-111.5 -15.5zM632 0v275l83 -8v-267h-83z" />
    <glyph glyph-name="cauuvowelsigntamil" horiz-adv-x="1195" 
d="M1034 174q40 0 72.5 -19.5t52 -57t19.5 -92.5q0 -70 -28.5 -123.5t-79 -92t-117.5 -63t-145 -36t-161 -11.5h-22q-150 0 -252 36t-167 94q-75 67 -106.5 154t-31.5 172v25q0 82 20 152t52 130t66 112l74 -44q-40 -55 -68 -113t-43 -117t-15 -120v-19q0 -78 25.5 -147.5
t81.5 -123t147 -84t221 -30.5h15q80 0 148.5 10t123.5 30t94 50t59.5 69.5t20.5 89.5q0 47 -23 75t-61 28q-21 0 -39.5 -8t-34.5 -19v63q18 12 44 21t58 9zM498 -12q-60 0 -108 19t-76 56t-28 89q0 54 28.5 93.5t91 61t163.5 21.5h512v-70h-519q-51 0 -86.5 -6t-60.5 -20
q-22 -13 -32.5 -31.5t-10.5 -47.5q0 -46 38.5 -69.5t95.5 -23.5q44 0 75.5 13.5t49 47t17.5 92.5v269h-172v-180l-79 -16v268h523v-72h-187v-256q0 -67 -11.5 -105t-32.5 -64q-31 -38 -79.5 -53.5t-111.5 -15.5zM869 0v275l83 -8v-267h-83z" />
    <glyph glyph-name="jaiivowelsigntamil" horiz-adv-x="1022" 
d="M331 566q73 0 118.5 -19t71 -48t38.5 -60l-18 -9q15 43 40.5 73.5t62.5 46.5t85 16q75 0 126 -29.5t77.5 -81.5t26.5 -120q0 -67 -20 -114t-56 -78q-38 -33 -91.5 -50t-117 -23.5t-132.5 -6.5h-94q-66 0 -116.5 -4t-86 -16t-58.5 -35q-19 -19 -27.5 -44t-8.5 -57
q0 -58 22 -92t54.5 -48.5t64.5 -14.5q44 0 76 12.5t58 35.5t52 52q42 47 80 78t83.5 47t109.5 16q36 0 70.5 -9.5t62.5 -30t45 -52t17 -75.5t-20.5 -77.5t-56.5 -51.5t-82 -18q-43 0 -73.5 12t-50 32.5t-29 45.5t-9.5 50q0 47 23 79t57 61l67 -14q-34 -25 -49.5 -53
t-15.5 -60q0 -34 18.5 -59t63.5 -25q18 0 35.5 7.5t29 24.5t11.5 47t-12 48.5t-32 29t-43 14.5t-45 4q-15 0 -29.5 -1.5t-28.5 -4.5q-23 -7 -44.5 -21.5t-41.5 -35t-40 -44.5q-33 -41 -69.5 -72t-80.5 -48t-102 -17q-82 0 -134 31.5t-76 83.5t-24 111q0 55 18.5 94.5
t49.5 65.5q35 29 82 44t103 20.5t116 5.5h89q76 0 134 5t100 18.5t68 37.5q25 23 36.5 57t11.5 81q0 53 -19 88t-52 53t-74 18q-29 0 -51.5 -8.5t-39.5 -27.5q-19 -23 -27 -53.5t-8 -84.5v-114h-87v88q0 48 -9.5 86t-30 64t-54.5 39.5t-82 13.5q-31 0 -48 -2.5t-37 -9.5
l-35 -14q-27 -14 -43.5 -33.5t-24 -42t-7.5 -46.5q0 -43 21.5 -69.5t70.5 -26.5q39 0 63.5 22t24.5 61q0 35 -18.5 60.5t-51 39t-74.5 13.5l64 46q46 -4 82.5 -23.5t58 -52t21.5 -76.5q0 -72 -46.5 -115t-122.5 -43q-56 0 -94.5 21.5t-58 58t-19.5 81.5q0 70 37 119.5
t98.5 75.5t132.5 26zM854 843q86 0 131 -34.5t45 -90.5q0 -63 -38 -93.5t-93 -30.5q-58 0 -93 29.5t-35 81.5q0 23 9.5 54t36.5 59l51 -22q-16 -19 -23.5 -38.5t-7.5 -38.5q0 -22 8 -36t22 -20.5t32 -6.5q29 0 45 16t16 41q0 35 -28 51t-72 16q-8 0 -19 -0.5t-20 -1.5
q-77 -8 -113 -50.5t-36 -101.5q0 -28 7 -50.5t19 -40.5l-84 -6q-9 20 -14 44t-5 51q0 44 15.5 83.5t47 70t80.5 48t116 17.5z" />
    <glyph glyph-name="nyaiivowelsigntamil" horiz-adv-x="1209" 
d="M980 319q54 0 95 -27.5t64 -80t23 -128.5q0 -89 -28 -156t-78 -114.5t-116 -77t-142.5 -43t-157.5 -13.5h-27q-124 0 -215.5 26t-155 72t-101.5 106t-55.5 128t-17.5 138v21q0 69 18.5 138.5t48.5 132.5t64 113l74 -44q-38 -57 -64.5 -115t-40.5 -116t-14 -116v-13
q0 -84 27 -155.5t83.5 -125t145 -83.5t212.5 -30h13q96 0 176.5 19.5t139 59.5t91 102t32.5 147q0 54 -13 90t-37.5 54.5t-59.5 18.5q-30 0 -55.5 -12.5t-46.5 -27.5l1 74q19 14 48.5 26t68.5 12zM503 -12q-53 0 -96.5 26t-69.5 81.5t-26 143.5q0 77 25 134t68 95
q32 29 73 48t97 28.5t131 9.5h57v-72h-69q-64 0 -107 -7.5t-70.5 -20.5t-47.5 -31q-38 -34 -58 -82t-20 -109q0 -62 15 -101t42 -57t61 -18q26 0 45 11.5t30 33.5t11 54q0 50 -26.5 76.5t-67.5 26.5q-39 0 -74 -21t-64 -53l-15 64q30 35 74 57.5t93 22.5q73 0 117.5 -44
t44.5 -119q0 -55 -21 -95t-59.5 -61t-92.5 -21zM782 0v482h-36l2 72h290v-72h-170v-482h-86zM1023 843q86 0 131 -34.5t45 -90.5q0 -63 -38 -93.5t-93 -30.5q-58 0 -93 29.5t-35 81.5q0 23 9.5 54t36.5 59l51 -22q-16 -19 -23.5 -38.5t-7.5 -38.5q0 -22 8 -36t22 -20.5
t32 -6.5q29 0 45 16t16 41q0 35 -28 51t-72 16q-8 0 -19 -0.5t-20 -1.5q-77 -8 -113 -50.5t-36 -101.5q0 -28 7 -50.5t19 -40.5l-84 -6q-9 20 -14 44t-5 51q0 44 15.5 83.5t47 70t80.5 48t116 17.5z" />
    <glyph glyph-name="nyauvowelsigntamil" horiz-adv-x="1226" 
d="M1138 554v-710h-324h-85h-229v72h552v638h86zM726 319q54 0 95 -27t64 -78.5t23 -124.5q0 -52 -11.5 -96.5t-33.5 -82.5l-37 -61q-51 -59 -127.5 -97t-168 -55.5t-188.5 -17.5h-22q-54 0 -104.5 8.5t-90.5 27t-63.5 48t-23.5 70.5q0 22 8 38t23 26q14 10 33.5 14.5
t62.5 4.5h376l-7 -72h-378q-12 0 -23.5 -3.5t-11.5 -20.5q0 -29 52.5 -49t153.5 -20h16q82 0 149.5 10.5t123.5 32t101 54.5l49 62q27 36 40.5 81.5t13.5 101.5q0 50 -13 84t-37.5 52t-59.5 18q-30 0 -55.5 -12.5t-46.5 -27.5l1 74q19 14 48.5 26t68.5 12zM528 0v482h-36
l2 72h290v-72h-170v-482h-86zM249 -12q-53 0 -96.5 26t-69.5 81.5t-26 143.5q0 77 25 134t68 95q32 29 73 48t97 28.5t131 9.5h57v-72h-69q-64 0 -107 -7.5t-70.5 -20.5t-47.5 -31q-38 -34 -58 -82t-20 -109q0 -62 15 -101t41.5 -57t60.5 -18q26 0 45.5 11.5t30.5 33.5
t11 54q0 50 -26 76.5t-68 26.5q-39 0 -74 -21t-64 -53l-15 64q30 35 74.5 57.5t93.5 22.5q72 0 116.5 -44t44.5 -119q0 -55 -21 -95t-59.5 -61t-92.5 -21z" />
    <glyph glyph-name="nyauuvowelsigntamil" horiz-adv-x="1589" 
d="M249 -12q-53 0 -96.5 26t-69.5 81.5t-26 143.5q0 77 25 134t68 95q32 29 73 48t97 28.5t131 9.5h57v-72h-69q-64 0 -107 -7.5t-70.5 -20.5t-47.5 -31q-38 -34 -58 -82t-20 -109q0 -62 15 -101t41.5 -57t60.5 -18q26 0 45.5 11.5t30.5 33.5t11 54q0 50 -26 76.5t-67 26.5
q-40 0 -75 -21t-64 -53l-15 64q30 35 74.5 57.5t93.5 22.5q72 0 116.5 -42.5t44.5 -120.5q0 -55 -21 -95t-59.5 -61t-92.5 -21zM528 0v482h-36l2 72h290v-72h-170v-482h-86zM726 319q54 0 95 -27t64 -78.5t23 -124.5q0 -52 -11.5 -96.5t-33.5 -82.5l-37 -61
q-51 -59 -127.5 -97t-168 -55.5t-188.5 -17.5h-22q-54 0 -104.5 8.5t-90.5 27t-63.5 48t-23.5 70.5q0 22 8 38t23 26q14 10 33.5 14.5t62.5 4.5h376l-7 -72h-378q-12 0 -23.5 -3.5t-11.5 -20.5q0 -29 52.5 -49t153.5 -20h16q82 0 149.5 10.5t123.5 32t101 54.5l49 62
q27 36 40.5 81.5t13.5 101.5q0 50 -13 84t-37.5 52t-59.5 18q-30 0 -56 -12.5t-46 -27.5l1 74q19 14 48.5 26t68.5 12zM1572 554v-73h-174v-637h-86v637h-174v-637h-326h-83h-229v72h552v638h520z" />
    <glyph glyph-name="ttaivowelsigntamil" horiz-adv-x="797" 
d="M88 0v554h86v-482h606v-72h-692zM489 471q41 0 70.5 -13t48 -35.5t27 -51.5t8.5 -61q0 -45 -9 -92t-22 -94l-114 -408l-79 22l78 272l3 16l19 68q17 56 27 107t10 106q0 44 -17.5 68t-50.5 24q-37 0 -59.5 -29t-22.5 -84q0 -48 17.5 -90t45.5 -76.5t59 -63.5l-72 -37
q-35 39 -65.5 80.5t-49 89.5t-18.5 106q0 50 19 89.5t56.5 63t90.5 23.5z" />
    <glyph glyph-name="ttaiivowelsigntamil" horiz-adv-x="797" 
d="M88 0v554h86v-482h606v-72h-692zM550 471q55 0 92.5 -16t57.5 -44t20 -65q0 -63 -38 -94.5t-93 -31.5q-39 0 -67.5 13.5t-44.5 39t-16 60.5q0 23 9.5 54t36.5 59l51 -22q-16 -19 -23.5 -38.5t-7.5 -38.5q0 -22 8 -36t22 -20.5t32 -6.5q29 0 45 16t16 42q0 35 -27.5 50.5
t-70.5 15.5q-5 0 -14.5 -0.5t-17.5 -2.5q-47 -6 -78 -28.5t-46 -57t-15 -77.5q0 -61 27 -110.5t71 -82.5l-66 -37q-35 29 -61 64.5t-40 77t-14 87.5t16.5 87.5t48 73.5t79 50.5t108.5 18.5z" />
    <glyph glyph-name="ttauvowelsigntamil" horiz-adv-x="1015" 
d="M424 -297q-82 0 -147.5 34t-111.5 99.5t-70 160.5t-24 217v28q0 121 24 217.5t68.5 168.5t105 119.5t133.5 71.5t155 24t142.5 -21t104.5 -59q35 -29 59 -66.5t38 -84.5t20.5 -105t6.5 -130v-377h-86v334q0 84 -8 157.5t-32 131.5t-72 94q-31 24 -74.5 37.5t-101.5 13.5
q-60 0 -118 -19t-108 -58.5t-88.5 -103t-60.5 -152.5t-22 -206t18 -202.5t52.5 -140.5t83.5 -81.5t110 -26.5q59 0 102 18t70.5 53t41 86t13.5 118q0 73 -13 115.5t-37.5 60.5t-59.5 18q-30 0 -56 -12.5t-46 -27.5l1 74q18 14 47.5 26t68.5 12q54 0 95.5 -27t64.5 -83.5
t23 -146.5q0 -101 -23.5 -170t-66 -110.5t-99 -60t-123.5 -18.5zM355 0v554h87v-554h-87z" />
    <glyph glyph-name="ttauuvowelsigntamil" horiz-adv-x="902" 
d="M424 -297q-82 0 -147.5 34t-111.5 99.5t-70 160.5t-24 217v28q0 121 24.5 217t69 168t106 120t135.5 72t156 24q87 0 149 -22t102 -60.5t59 -88.5t19 -106q0 -70 -25.5 -111t-63.5 -58t-74 -17q-49 0 -84.5 19t-54 51.5t-18.5 73.5q0 32 10.5 58.5t30.5 46t48 30t62 10.5
q38 0 70 -17t55.5 -41.5t35.5 -48.5l-23 -56q-28 47 -59 71.5t-69 24.5q-34 0 -56.5 -19.5t-22.5 -58.5q0 -24 9.5 -41t27 -26t40.5 -9q42 0 62 35t20 86q0 11 1.5 23t0.5 22q-13 48 -45 82.5t-83.5 53t-123.5 18.5q-62 0 -121 -19t-110 -58.5t-90 -103t-61 -152.5t-22 -206
t18 -202.5t52.5 -140.5t83 -81.5t109.5 -26.5q59 0 102 18t70.5 53t41 86t13.5 118q0 73 -13 115.5t-37.5 60.5t-59.5 18q-30 0 -56 -12.5t-46 -27.5l1 74q18 14 47.5 26t68.5 12q54 0 95.5 -27t64.5 -83.5t23 -146.5q0 -101 -23.5 -170t-66 -110.5t-99 -60t-123.5 -18.5z
M355 0v554h87v-554h-87z" />
    <glyph glyph-name="nnaiivowelsigntamil" horiz-adv-x="1702" 
d="M249 -12q-53 0 -97 26.5t-69.5 82.5t-25.5 146q0 99 43.5 171.5t122.5 112t185 39.5q48 0 91.5 -7.5t83.5 -23t79 -40.5l41 -36q57 -52 89.5 -119.5t32.5 -150.5q0 -67 -19.5 -111.5t-56 -67t-86.5 -22.5q-58 0 -94.5 26t-54 70.5t-17.5 101.5q0 53 11 101t33 90t55 77
l48 41q47 35 102 53t120 18q45 0 82.5 -7.5t71 -23t64.5 -38.5l46 -40q34 -33 58.5 -74.5t38 -90t13.5 -103.5q0 -67 -19.5 -111.5t-56 -67t-87.5 -22.5q-57 0 -93.5 26t-54 70.5t-17.5 101.5q0 51 10.5 97t34.5 90t63 85l45 37q30 18 64 31t82.5 20.5t121.5 7.5h298v-72
h-170v-482h-86v482h-65q-33 0 -61.5 -2t-54 -7.5t-49.5 -15.5t-49 -27q-33 -21 -55 -58.5t-33.5 -84.5t-11.5 -98q0 -69 21 -101t57 -32q32 0 49.5 19t24.5 48t7 59q0 57 -15 106t-39.5 86t-53.5 58q-42 34 -87.5 47.5t-91.5 13.5q-56 0 -103.5 -14t-92.5 -50
q-33 -28 -53 -67.5t-29 -84t-9 -88.5q0 -69 21 -101t58 -32q31 0 48.5 19t24.5 48t7 59q0 80 -30.5 143t-88.5 108q-47 33 -103 46t-120 13q-74 0 -129 -27t-87.5 -74t-42.5 -108q-1 -15 -2 -28.5t-1 -21.5q0 -65 15.5 -104t42 -56t59.5 -17q27 0 46.5 11.5t30 33.5t10.5 54
q0 50 -26 76.5t-67 26.5q-40 0 -75 -21t-64 -53l-15 64q30 35 74.5 57.5t93.5 22.5q72 0 116.5 -44t44.5 -119q0 -55 -21 -95t-59.5 -61t-92.5 -21zM1534 843q86 0 131 -34.5t45 -90.5q0 -63 -38 -93.5t-93 -30.5q-58 0 -93 29.5t-35 81.5q0 23 9.5 54t36.5 59l51 -22
q-16 -19 -23.5 -38.5t-7.5 -38.5q0 -22 8 -36t22 -20.5t32 -6.5q29 0 45 16t16 41q0 35 -28 51t-72 16q-8 0 -19 -0.5t-20 -1.5q-77 -8 -113 -50.5t-36 -101.5q0 -28 7 -50.5t19 -40.5l-84 -6q-9 20 -14 44t-5 51q0 44 15.5 83.5t47 70t80.5 48t116 17.5z" />
    <glyph glyph-name="nnauvowelsigntamil" horiz-adv-x="1841" 
d="M249 -12q-53 0 -97 26.5t-69.5 82.5t-25.5 146q0 99 43.5 171.5t122.5 112t185 39.5q47 0 90.5 -7.5t84 -23t79.5 -40.5l41 -36q57 -52 89.5 -119.5t32.5 -150.5q0 -67 -19.5 -111.5t-56 -67t-86.5 -22.5q-58 0 -94.5 26t-54 70.5t-17.5 101.5q0 53 11 101t33 90t55 77
l48 41q47 35 102 53t120 18q45 0 82.5 -7.5t71 -23t64.5 -38.5l34 -29q41 -36 68 -80t40.5 -94t13.5 -105q0 -67 -19.5 -111.5t-56 -67t-87.5 -22.5q-57 0 -93.5 26t-54 70.5t-17.5 101.5q0 52 12 101t36 94t61 84l36 35q41 33 86.5 49.5t98.5 16.5q87 0 147 -39t91 -115
t31 -186q0 -97 -25.5 -175.5t-70.5 -140.5l-49 -63q-54 -43 -115.5 -74.5t-143.5 -52.5t-196 -31t-274 -10h-172q-118 0 -200 9t-132 27.5t-72.5 48t-22.5 69.5q0 22 8 38t23 26q14 10 33 14.5t62 4.5h1524l8 -72h-342h-115h-1083q-12 0 -23.5 -3.5t-11.5 -20.5
q0 -15 18 -27.5t64 -21.5t127.5 -14t208.5 -5h54q132 0 231 5.5t173.5 17t132 29.5t106.5 42l72 65q37 40 62.5 88t39 104.5t13.5 119.5q0 72 -14 123.5t-39.5 83.5t-59 47t-72.5 15q-30 0 -63 -8.5t-64 -30.5l-40 -36q-26 -30 -42.5 -65.5t-24.5 -76t-8 -86.5
q0 -69 21.5 -101t56.5 -32q32 0 49.5 19t24.5 48t7 59q0 57 -15 106t-39.5 86t-53.5 58q-42 34 -87.5 47.5t-91.5 13.5q-56 0 -103.5 -14t-92.5 -50q-33 -28 -53 -67.5t-29 -84t-9 -88.5q0 -69 21 -101t58 -32q31 0 48.5 19t24.5 48t7 59q0 80 -30.5 143t-88.5 108
q-47 33 -103 46t-120 13q-74 0 -129 -27t-87.5 -74t-42.5 -108q-1 -15 -2 -28.5t-1 -21.5q0 -65 15.5 -104t42 -56t59.5 -17q27 0 46.5 11.5t30 33.5t10.5 54q0 50 -26 76.5t-67 26.5q-40 0 -75 -21t-64 -53l-15 64q30 35 74.5 57.5t93.5 22.5q72 0 116.5 -44t44.5 -119
q0 -55 -21 -95t-59.5 -61t-92.5 -21zM1667 -156v710h86v-710h-86z" />
    <glyph glyph-name="nnauuvowelsigntamil" horiz-adv-x="2205" 
d="M249 -12q-53 0 -97 26.5t-69.5 82.5t-25.5 146q0 99 43.5 171.5t122.5 112t185 39.5q47 0 90.5 -7.5t84 -23t79.5 -40.5l41 -36q57 -52 89.5 -119.5t32.5 -150.5q0 -67 -19.5 -111.5t-56 -67t-86.5 -22.5q-58 0 -94.5 26t-54 70.5t-17.5 101.5q0 53 11 101t33 90t55 77
l48 41q47 35 102 53t120 18q45 0 82.5 -7.5t71 -23t64.5 -38.5l34 -29q41 -36 68 -80t40.5 -94t13.5 -105q0 -67 -19.5 -111.5t-56 -67t-87.5 -22.5q-57 0 -93.5 26t-54 70.5t-17.5 101.5q0 52 12 101t36 94t61 84l36 35q41 33 86.5 49.5t98.5 16.5q87 0 147 -39t91 -115
t31 -186q0 -97 -25.5 -175.5t-70.5 -140.5l-49 -63q-54 -43 -115.5 -74.5t-143.5 -52.5t-196 -31t-274 -10h-172q-118 0 -200 9t-132 27.5t-72.5 48t-22.5 69.5q0 22 8 38t23 26q14 10 33 14.5t62 4.5h1524l8 -72h-342h-115h-1083q-12 0 -23.5 -3.5t-11.5 -20.5
q0 -15 18 -27.5t64 -21.5t127.5 -14t208.5 -5h54q132 0 231 5.5t173.5 17t132 29.5t106.5 42l72 65q37 40 62.5 88t39 104.5t13.5 119.5q0 72 -14 123.5t-39.5 83.5t-59 47t-72.5 15q-30 0 -63 -8.5t-64 -30.5l-40 -36q-26 -30 -42.5 -65.5t-24.5 -76t-8 -86.5
q0 -69 21.5 -101t56.5 -32q32 0 49.5 19t24.5 48t7 59q0 57 -15 106t-39.5 86t-53.5 58q-42 34 -87.5 47.5t-91.5 13.5q-56 0 -103.5 -14t-92.5 -50q-33 -28 -53 -67.5t-29 -84t-9 -88.5q0 -69 21 -101t58 -32q31 0 48.5 19t24.5 48t7 59q0 80 -30.5 143t-88.5 108
q-47 33 -103 46t-120 13q-74 0 -129 -27t-87.5 -74t-42.5 -108q-1 -15 -2 -28.5t-1 -21.5q0 -65 15.5 -104t42 -56t59.5 -17q27 0 46.5 11.5t30 33.5t10.5 54q0 50 -26 76.5t-67 26.5q-40 0 -75 -21t-64 -53l-15 64q30 35 74.5 57.5t93.5 22.5q72 0 116.5 -44t44.5 -119
q0 -55 -21 -95t-59.5 -61t-92.5 -21zM1667 -156v710h521v-72h-174v-638h-86v638h-175v-638h-86z" />
    <glyph glyph-name="taiivowelsigntamil" horiz-adv-x="825" 
d="M261 -12q-60 0 -108 19t-76 56t-28 89q0 54 28.5 93.5t90.5 61t164 21.5h145q87 0 155 -21.5t106.5 -71.5t38.5 -137q0 -67 -25 -112.5t-71 -79.5q-33 -23 -74.5 -37t-95.5 -19.5t-126 -5.5h-113q-42 0 -65 -6t-40 -17q-16 -11 -25 -31t-9 -53q0 -15 1 -28.5t2 -25.5
l-82 -4q-3 18 -5 39.5t-2 38.5q0 44 16 74.5t41 49.5q18 13 37.5 20.5t45 11t58.5 3.5h109q89 0 146 7.5t92 23t58 40.5q20 22 30.5 51.5t10.5 66.5q0 49 -19.5 79t-52 46t-72 22t-80.5 6h-142q-51 0 -86.5 -6t-60.5 -20q-22 -13 -32.5 -31.5t-10.5 -47.5q0 -46 38 -69.5
t96 -23.5q44 0 75.5 13.5t49 47t17.5 92.5v269h-172v-180l-79 -16v268h523v-72h-187v-256q0 -67 -11.5 -105t-32.5 -64q-31 -38 -79.5 -53.5t-111.5 -15.5zM657 843q86 0 131 -34.5t45 -90.5q0 -63 -38 -93.5t-93 -30.5q-58 0 -93 29.5t-35 81.5q0 23 9.5 54t36.5 59l51 -22
q-16 -19 -23.5 -38.5t-7.5 -38.5q0 -22 8 -36t22 -20.5t32 -6.5q29 0 45 16t16 41q0 35 -28 51t-72 16q-8 0 -19 -0.5t-20 -1.5q-77 -8 -113 -50.5t-36 -101.5q0 -28 7 -50.5t19 -40.5l-84 -6q-9 20 -14 44t-5 51q0 44 15.5 83.5t47 70t80.5 48t116 17.5z" />
    <glyph glyph-name="tauvowelsigntamil" horiz-adv-x="1091" 
d="M261 -12q-60 0 -108 19t-76 56t-28 90t28.5 92.5t90.5 61t164 21.5h154q67 0 120.5 -17.5t91.5 -52t58 -85t20 -115.5q0 -42 -9 -79.5t-25 -68.5l-25 -61q-38 -55 -96 -93t-135 -57.5t-173 -19.5h-13q-70 0 -130 15.5t-96 49.5t-36 89q0 22 8 38t23 26q14 10 33 14.5
t62 4.5h771v-72h-249h-66h-464q-12 0 -23.5 -3.5t-11.5 -20.5q0 -29 43.5 -48.5t132.5 -19.5h13q73 0 130 11t101 32.5t76 52.5l35 62q12 21 19.5 44t11.5 48t4 53q0 70 -26 115t-74.5 66.5t-114.5 21.5h-147q-51 0 -86.5 -6t-60.5 -20q-22 -13 -32.5 -31.5t-10.5 -47.5
q0 -46 38 -69.5t96 -23.5q44 0 75.5 13.5t49 47t17.5 92.5v269h-172v-180l-79 -16v268h523v-72h-187v-256q0 -67 -11.5 -105t-32.5 -64q-31 -38 -79.5 -53.5t-111.5 -15.5zM917 -156v710h86v-710h-86z" />
    <glyph glyph-name="tauuvowelsigntamil" horiz-adv-x="1455" 
d="M261 -12q-60 0 -108 19t-76 56t-28 90t28.5 92.5t90.5 61t164 21.5h154q67 0 120.5 -17.5t91.5 -52t58 -85t20 -115.5q0 -42 -9 -79.5t-25 -68.5l-25 -61q-38 -55 -96 -93t-135 -57.5t-173 -19.5h-13q-70 0 -130 15.5t-96 49.5t-36 89q0 22 8 38t23 26q14 10 33 14.5
t62 4.5h771v-72h-249h-66h-464q-12 0 -23.5 -3.5t-11.5 -20.5q0 -29 43.5 -48.5t132.5 -19.5h13q73 0 130 11t101 32.5t76 52.5l35 62q12 21 19.5 44t11.5 48t4 53q0 70 -26 115t-74.5 66.5t-114.5 21.5h-147q-51 0 -86.5 -6t-60.5 -20q-22 -13 -32.5 -31.5t-10.5 -47.5
q0 -46 38 -69.5t96 -23.5q44 0 75.5 13.5t49 47t17.5 92.5v269h-172v-180l-79 -16v268h523v-72h-187v-256q0 -67 -11.5 -105t-32.5 -64q-31 -38 -79.5 -53.5t-111.5 -15.5zM917 -156v710h521v-72h-174v-638h-86v638h-175v-638h-86z" />
    <glyph glyph-name="naiivowelsigntamil" horiz-adv-x="789" 
d="M557 362q51 0 92.5 -26t66.5 -77t25 -125q0 -90 -26 -142t-73 -86q-32 -23 -73.5 -37t-95.5 -19.5t-126 -5.5h-75q-42 0 -65 -6t-40 -17q-16 -11 -25 -31t-9 -53q0 -15 1 -28.5t2 -25.5l-82 -4q-3 18 -5 39.5t-2 38.5q0 44 16 74.5t41 49.5q18 13 37.5 20.5t45 11
t58.5 3.5h93q82 0 133.5 7t83.5 22.5t55 40.5q20 22 32.5 57.5t12.5 87.5t-13.5 87t-40 53t-65.5 18q-28 0 -56.5 -12.5t-49.5 -29.5l-3 75q26 16 58 28t72 12zM88 0v554h521v-72h-175v-482h-86v482h-174v-482h-86zM590 843q86 0 131 -34.5t45 -90.5q0 -63 -38 -93.5
t-93 -30.5q-58 0 -93 29.5t-35 81.5q0 23 9.5 54t36.5 59l51 -22q-16 -19 -23.5 -38.5t-7.5 -38.5q0 -22 8 -36t22 -20.5t32 -6.5q29 0 45 16t16 41q0 35 -28 51t-72 16q-8 0 -19 -0.5t-20 -1.5q-77 -8 -113 -50.5t-36 -101.5q0 -28 7 -50.5t19 -40.5l-84 -6q-9 20 -14 44
t-5 51q0 44 15.5 83.5t47 70t80.5 48t116 17.5z" />
    <glyph glyph-name="nauvowelsigntamil" horiz-adv-x="1058" 
d="M557 362q51 0 92.5 -26t66.5 -78t25 -130q0 -64 -11.5 -118.5t-33.5 -99.5l-29 -60q-39 -57 -96 -95t-129.5 -57t-157.5 -19h-18q-56 0 -108.5 15.5t-86 49.5t-33.5 89q0 22 8 38t23 26q14 10 33 14.5t62 4.5h720v638h86v-710h-316h-82h-416q-12 0 -23.5 -3.5
t-11.5 -20.5q0 -19 18 -34.5t53.5 -24.5t86.5 -9h10q90 0 159 22.5t122 74.5l33 61q23 41 36 94.5t13 120.5q0 81 -28.5 122.5t-87.5 41.5q-28 0 -56.5 -12.5t-49.5 -29.5l-3 75q26 16 58 28t72 12zM88 0v554h521v-72h-175v-482h-86v482h-174v-482h-86z" />
    <glyph glyph-name="nauuvowelsigntamil" horiz-adv-x="1423" 
d="M557 362q51 0 92.5 -26t66.5 -78t25 -130q0 -64 -11.5 -118.5t-33.5 -99.5l-29 -60q-39 -57 -96 -95t-129.5 -57t-157.5 -19h-18q-56 0 -108.5 15.5t-86 49.5t-33.5 89q0 22 8 38t23 26q14 10 33 14.5t62 4.5h743l3 -72h-256h-82h-416q-12 0 -23.5 -3.5t-11.5 -20.5
q0 -19 18 -34.5t53.5 -24.5t86.5 -9h10q90 0 159 22.5t122 74.5l33 61q23 41 36 94.5t13 120.5q0 81 -28.5 122.5t-87.5 41.5q-28 0 -56.5 -12.5t-49.5 -29.5l-3 75q26 16 57.5 28t72.5 12zM88 0v554h521v-72h-175v-482h-86v482h-174v-482h-86zM884 -156v710h522v-72h-174
v-638h-86v638h-176v-638h-86z" />
    <glyph glyph-name="nnnaiivowelsigntamil" horiz-adv-x="1287" 
d="M249 -12q-53 0 -97 26.5t-69.5 82.5t-25.5 146q0 99 43.5 171.5t122.5 112t185 39.5q48 0 91.5 -7.5t83.5 -23t79 -40.5l46 -42q53 -47 85 -114.5t32 -149.5q0 -67 -19.5 -111.5t-56 -67t-86.5 -22.5q-58 0 -94.5 26t-54 70.5t-17.5 101.5q0 53 11.5 100t34.5 89t57 79
l50 41q30 18 64 31t82.5 20.5t121.5 7.5h299v-72h-170v-482h-86v482h-66q-33 0 -62 -2.5t-55 -8t-50 -15.5t-47 -26q-33 -21 -55 -59.5t-33.5 -86t-11.5 -95.5q0 -69 21 -101t58 -32q31 0 48.5 19t24.5 48t7 59q0 79 -30.5 142.5t-88.5 108.5q-47 33 -103 46t-120 13
q-74 0 -129 -27t-87.5 -74t-42.5 -108q-1 -15 -2 -28.5t-1 -21.5q0 -65 15.5 -104t42 -56t59.5 -17q27 0 46.5 11.5t30 33.5t10.5 54q0 50 -26 76.5t-67 26.5q-40 0 -75 -21t-64 -53l-15 64q30 35 74.5 57.5t93.5 22.5q72 0 116.5 -44t44.5 -119q0 -55 -21 -95t-59.5 -61
t-92.5 -21zM1119 843q86 0 131 -34.5t45 -90.5q0 -63 -38 -93.5t-93 -30.5q-58 0 -93 29.5t-35 81.5q0 23 9.5 54t36.5 59l51 -22q-16 -19 -23.5 -38.5t-7.5 -38.5q0 -22 8 -36t22 -20.5t32 -6.5q29 0 45 16t16 41q0 35 -28 51t-72 16q-8 0 -19 -0.5t-20 -1.5
q-77 -8 -113 -50.5t-36 -101.5q0 -28 7 -50.5t19 -40.5l-84 -6q-9 20 -14 44t-5 51q0 44 15.5 83.5t47 70t80.5 48t116 17.5z" />
    <glyph glyph-name="nnnauvowelsigntamil" horiz-adv-x="1426" 
d="M249 -12q-53 0 -97 26.5t-69.5 82.5t-25.5 146q0 99 43.5 171.5t122.5 112t185 39.5q48 0 91.5 -7.5t83.5 -23t79 -40.5l34 -30q57 -51 93 -118.5t36 -157.5q0 -67 -19.5 -111.5t-56 -67t-86.5 -22.5q-58 0 -94.5 26t-54 70.5t-17.5 101.5q0 58 13 107t36.5 90.5
t52.5 73.5l39 40q36 32 83 50.5t105 18.5q88 0 148 -39t91 -115t31 -186q0 -97 -25.5 -175.5t-70.5 -140.5l-48 -62q-62 -58 -147.5 -95.5t-187.5 -55.5t-214 -18h-28q-73 0 -134.5 8.5t-107 27t-70.5 48t-25 70.5q0 22 8 38t23 26q14 10 33 14.5t62 4.5h1104l9 -72h-364
h-86h-671q-12 0 -23.5 -3.5t-11.5 -20.5q0 -19 27 -34.5t84 -24.5t147 -9h33q90 0 165 11t137 32.5t110 51.5l69 64q37 40 62.5 88t39 104.5t13.5 119.5q0 72 -14 123.5t-39.5 83.5t-59 47t-72.5 15t-71 -10.5t-61 -32.5l-32 -27q-24 -28 -41.5 -64.5t-27 -78.5t-9.5 -90
q0 -69 21 -101t58 -32q31 0 48.5 19t24.5 48t7 59q0 53 -13.5 98.5t-40 84t-65.5 68.5q-47 33 -103 46t-120 13q-74 0 -129 -27t-87.5 -74t-42.5 -108q-1 -15 -2 -28.5t-1 -21.5q0 -65 15.5 -104t42 -56t59.5 -17q27 0 46.5 11.5t30 33.5t10.5 54q0 50 -26 76.5t-67 26.5
q-40 0 -75 -21t-64 -53l-15 64q30 35 74.5 57.5t93.5 22.5q72 0 116.5 -44t44.5 -119q0 -55 -21 -95t-59.5 -61t-92.5 -21zM1252 -156v710h86v-710h-86z" />
    <glyph glyph-name="nnnauuvowelsigntamil" horiz-adv-x="1790" 
d="M249 -12q-53 0 -97 26.5t-69.5 82.5t-25.5 146q0 99 43.5 171.5t122.5 112t185 39.5q48 0 91.5 -7.5t83.5 -23t79 -40.5l34 -30q57 -51 93 -118.5t36 -157.5q0 -67 -19.5 -111.5t-56 -67t-86.5 -22.5q-58 0 -94.5 26t-54 70.5t-17.5 101.5q0 58 13 107t36.5 90.5
t52.5 73.5l39 40q36 32 83 50.5t105 18.5q88 0 148 -39t91 -115t31 -186q0 -97 -25.5 -175.5t-70.5 -140.5l-48 -62q-62 -58 -147.5 -95.5t-187.5 -55.5t-214 -18h-28q-73 0 -134.5 8.5t-107 27t-70.5 48t-25 70.5q0 22 8 38t23 26q14 10 33 14.5t62 4.5h1104l9 -72h-364
h-86h-671q-12 0 -23.5 -3.5t-11.5 -20.5q0 -19 27 -34.5t84 -24.5t147 -9h33q90 0 165 11t137 32.5t110 51.5l69 64q37 40 62.5 88t39 104.5t13.5 119.5q0 72 -14 123.5t-39.5 83.5t-59 47t-72.5 15t-71 -10.5t-61 -32.5l-32 -27q-24 -28 -41.5 -64.5t-27 -78.5t-9.5 -90
q0 -69 21 -101t58 -32q31 0 48.5 19t24.5 48t7 59q0 53 -13.5 98.5t-40 84t-65.5 68.5q-47 33 -103 46t-120 13q-74 0 -129 -27t-87.5 -74t-42.5 -108q-1 -15 -2 -28.5t-1 -21.5q0 -65 15.5 -104t42 -56t59.5 -17q27 0 46.5 11.5t30 33.5t10.5 54q0 50 -26 76.5t-67 26.5
q-40 0 -75 -21t-64 -53l-15 64q30 35 74.5 57.5t93.5 22.5q72 0 116.5 -44t44.5 -119q0 -55 -21 -95t-59.5 -61t-92.5 -21zM1252 -156v710h521v-72h-174v-638h-86v638h-175v-638h-86z" />
    <glyph glyph-name="paiivowelsigntamil" horiz-adv-x="778" 
d="M88 0v554h86v-482h430v482h86v-554h-602zM606 843q85 0 129.5 -34.5t44.5 -90.5q0 -63 -38 -93.5t-93 -30.5q-58 0 -93 29.5t-35 81.5q0 23 9.5 54t36.5 59l51 -22q-16 -19 -23.5 -38.5t-7.5 -38.5q0 -22 8 -36t22 -20.5t32 -6.5q29 0 45 16t16 41q0 35 -28 51t-72 16
q-7 0 -17.5 -0.5t-18.5 -1.5q-76 -8 -111.5 -50.5t-35.5 -101.5q0 -44 16 -74.5t42 -49t57 -28.5t62 -13v-71q-52 5 -98.5 21.5t-81 45.5t-54.5 70t-20 96q0 44 15 83.5t46.5 70.5t80 48.5t114.5 17.5z" />
    <glyph glyph-name="pauvowelsigntamil" horiz-adv-x="778" 
d="M604 -283v283h-516v554h86v-482h430v482h86v-837h-86z" />
    <glyph glyph-name="pauuvowelsigntamil" horiz-adv-x="947" 
d="M604 -148v148h-516v554h86v-482h430v482h86v-702h-86zM791 101q39 0 73.5 -16t56 -50t21.5 -88q0 -67 -33.5 -117t-95 -83.5t-147 -50.5t-189.5 -17h-39q-97 0 -164 11t-108.5 31t-60.5 48.5t-19 62.5q0 29 17 54t54.5 40.5t99.5 15.5q37 0 72.5 -6t67.5 -14l-15 -72
q-28 8 -60.5 14.5t-66.5 6.5q-30 0 -48.5 -4.5t-26.5 -13.5t-8 -23t12 -28t43.5 -25.5t88 -18t145.5 -6.5h9q125 0 211.5 23t131.5 66t45 104q0 41 -21 63.5t-59 22.5q-27 0 -50 -10t-38 -21v73q19 11 44.5 19.5t56.5 8.5z" />
    </font>
</defs>
</svg>
