<?xml version="1.0" standalone="no"?>
<!DOCTYPE svg PUBLIC "-//W3C//DTD SVG 1.1//EN" "http://www.w3.org/Graphics/SVG/1.1/DTD/svg11.dtd" >
<svg xmlns="http://www.w3.org/2000/svg" xmlns:xlink="http://www.w3.org/1999/xlink" version="1.1">
<metadata>
Created by FontForge 20190801 at Sun Nov 15 08:24:46 2015
 By www-data
Copyright 2013 Google Inc. All Rights Reserved.
</metadata>
<defs>
<font id="NotoSansBugineseRegular" horiz-adv-x="0" >
  <font-face 
    font-family="NotoSansBugineseRegular"
    font-weight="400"
    font-stretch="normal"
    units-per-em="2048"
    panose-1="2 11 5 2 4 5 4 2 2 4"
    ascent="1638"
    descent="-410"
    bbox="-1806 -381 3502 2013"
    underline-thickness="50"
    underline-position="-100"
    unicode-range="U+000D-FEFF"
  />
<missing-glyph horiz-adv-x="1229" 
d="M193 1462h841v-1462h-841v1462zM297 104h633v1254h-633v-1254z" />
    <glyph glyph-name="iya.ligature" unicode="&#x1a15;&#x1a17;&#x200d;&#x1a10;" horiz-adv-x="2497" 
d="M715 604q-33 0 -63.5 -27.5t-94.5 -101.5l-391 -432l-135 123l428 471q76 84 129 117.5t110 33.5q64 0 109 -40.5t108 -124.5l187 -240q80 -107 102.5 -124t42.5 -17q27 0 58.5 33.5t80.5 86.5l248 275q76 84 130.5 117.5t111.5 33.5q63 0 108.5 -40.5t110.5 -126.5
l371 -490l-117 -88l-309 403q-55 76 -86 117t-64 41q-35 0 -65.5 -29.5t-91.5 -99.5l-236 -260q-70 -78 -122 -125t-115 -47q-56 0 -98 33t-126 145l-258 342q-30 41 -63 41zM565 180q0 137 125 137q129 0 129 -137q0 -74 -38 -106.5t-91 -32.5q-125 0 -125 139zM1739 180
q0 137 125 137q129 0 129 -137q0 -74 -38 -106.5t-91 -32.5q-125 0 -125 139zM227 1009q0 137 125 137q129 0 129 -137q0 -74 -37.5 -107t-91.5 -33q-125 0 -125 140z" />
    <glyph glyph-name=".notdef" horiz-adv-x="1229" 
d="M193 1462h841v-1462h-841v1462zM297 104h633v1254h-633v-1254z" />
    <glyph glyph-name=".null" 
 />
    <glyph glyph-name="nonmarkingreturn" unicode="&#xd;" horiz-adv-x="1044" 
 />
    <glyph glyph-name="null" unicode="&#xfeff;" 
 />
    <glyph glyph-name="null" 
 />
    <glyph glyph-name="space" unicode=" " horiz-adv-x="532" 
 />
    <glyph glyph-name="space" unicode="&#xa0;" horiz-adv-x="532" 
 />
    <glyph glyph-name="uni1A00" unicode="&#x1a00;" horiz-adv-x="1386" 
d="M6 391l862 768l121 -137l-862 -766zM399 137l861 766l122 -137l-860 -764z" />
    <glyph glyph-name="uni1A01" unicode="&#x1a01;" horiz-adv-x="2142" 
d="M39 135l508 461q76 68 140.5 108.5t150.5 40.5q73 0 132.5 -35.5t137.5 -129.5l199 -228q65 -78 110 -116.5t99 -38.5q53 0 98 29.5t110 95.5l9 10q67 67 67 127q0 35 -12 62.5t-42 64.5t-536 612l115 100l530 -602q62 -69 96 -122.5t34 -124.5q0 -68 -20.5 -115
t-62.5 -92t-117 -110.5t-126 -91.5t-133 -30q-90 0 -148.5 48t-120.5 118l-198 227q-66 78 -111 118t-98 40t-97 -31.5t-112 -95.5l-481 -434zM719 139q0 137 125 137q129 0 129 -137q0 -73 -38 -106t-91 -33q-125 0 -125 139z" />
    <glyph glyph-name="uni1A02" unicode="&#x1a02;" horiz-adv-x="1239" 
d="M412 1120l886 -1024l-110 -96l-449 512l-571 -512l-121 135l574 512l-324 375z" />
    <glyph glyph-name="uni1A03" unicode="&#x1a03;" horiz-adv-x="1546" 
d="M1468 274l-282 326q-68 76 -112 117t-97 41t-97 -32t-112 -95l-16 -15q75 -6 123.5 -47t103.5 -98l319 -360l-110 -111l-295 336q-66 76 -111 116t-98 40q-66 0 -154 -76l-370 -336l-121 135l635 576q76 67 140.5 109t150.5 42q65 0 122.5 -31.5t147.5 -134.5l346 -391z
" />
    <glyph glyph-name="uni1A04" unicode="&#x1a04;" horiz-adv-x="2142" 
d="M39 135l508 461q76 68 140.5 108.5t150.5 40.5q73 0 132.5 -35.5t137.5 -129.5l199 -228q65 -78 110 -116.5t99 -38.5q53 0 98 29.5t110 95.5l9 10q67 67 67 127q0 35 -12 62.5t-42 64.5t-536 612l115 100l530 -602q62 -69 96 -122.5t34 -124.5q0 -68 -20.5 -115
t-62.5 -92t-117 -110.5t-126 -91.5t-133 -30q-90 0 -148.5 48t-120.5 118l-198 227q-66 78 -111 118t-98 40t-97 -31.5t-112 -95.5l-481 -434z" />
    <glyph glyph-name="uni1A05" unicode="&#x1a05;" horiz-adv-x="1386" 
d="M47 135l569 510l-65 78q-62 70 -97.5 123t-35.5 129q0 74 37 140.5t143.5 157.5t161.5 115.5t119 24.5q49 0 89 -15.5t75.5 -45t373.5 -414.5l-117 -102l-210 241q-58 68 -103 108t-94 40q-47 0 -79 -16.5t-97 -75.5q-115 -93 -115 -170q0 -50 32 -95t97 -120l567 -652
l-110 -96l-451 510l-569 -510z" />
    <glyph glyph-name="uni1A06" unicode="&#x1a06;" horiz-adv-x="1935" 
d="M145 942l527 -600q65 -76 109 -117t98 -41q53 0 97 32t111 95l695 631l123 -135l-723 -657q-76 -68 -140.5 -109t-150.5 -41q-70 0 -125 30.5t-145 135.5l-590 672z" />
    <glyph glyph-name="uni1A07" unicode="&#x1a07;" horiz-adv-x="1798" 
d="M47 135l574 512l-324 375l115 98l669 -774q60 -67 106 -106t99 -39q39 0 69.5 15t90 66.5t79 79t21.5 80.5q0 31 -13 63t-46 74t-377 447l113 94l379 -434q71 -82 100 -136t29 -120q-5 -76 -27.5 -126t-99 -122.5t-147.5 -120t-157 -47.5q-69 0 -122.5 29t-149.5 137
l-289 332l-571 -512z" />
    <glyph glyph-name="uni1A08" unicode="&#x1a08;" horiz-adv-x="1935" 
d="M1790 0l-526 600q-66 76 -110 117t-97 41t-97.5 -32t-111.5 -95l-694 -631l-123 135l721 656q75 67 140.5 109t151.5 42q66 0 119.5 -28.5t151.5 -137.5l590 -674z" />
    <glyph glyph-name="uni1A09" unicode="&#x1a09;" horiz-adv-x="1935" 
d="M145 942l527 -600q65 -76 109 -117t98 -41q53 0 97 32t111 95l695 631l123 -135l-723 -657q-76 -68 -140.5 -109t-150.5 -41q-70 0 -125 30.5t-145 135.5l-590 672zM782 794q0 138 125 138q129 0 129 -138q0 -73 -38 -106t-91 -33q-125 0 -125 139z" />
    <glyph glyph-name="uni1A0A" unicode="&#x1a0a;" horiz-adv-x="1935" 
d="M1790 0l-526 600q-66 76 -110 117t-97 41t-97.5 -32t-111.5 -95l-694 -631l-123 135l721 656q75 67 140.5 109t151.5 42q66 0 119.5 -28.5t151.5 -137.5l590 -674zM909 137q0 138 125 138q129 0 129 -138q0 -73 -38 -106t-91 -33q-125 0 -125 139z" />
    <glyph glyph-name="uni1A0B" unicode="&#x1a0b;" horiz-adv-x="2142" 
d="M39 135l508 461q76 68 140.5 108.5t150.5 40.5q73 0 132.5 -35.5t137.5 -129.5l199 -228q65 -76 110 -115.5t99 -39.5q53 0 98 29.5t110 95.5l9 10q67 67 67 127q0 35 -12 62.5t-42 64.5t-536 612l115 100l530 -602q62 -69 96 -122.5t34 -124.5q0 -68 -20.5 -115
t-62.5 -92t-117 -110.5t-126 -91.5t-133 -30q-90 0 -148.5 48t-120.5 118l-198 227q-66 78 -111 118t-98 40t-97 -31.5t-112 -95.5l-481 -434zM1051 -29l-119 140q-27 28 -42.5 42.5t-33.5 14.5q-10 0 -21.5 -6t-181.5 -162l-123 133l205 193q33 28 54.5 42.5t56.5 14.5
q33 0 58.5 -22.5t260.5 -288.5z" />
    <glyph glyph-name="uni1A0C" unicode="&#x1a0c;" horiz-adv-x="2142" 
d="M1061 567l215 -248q65 -75 109.5 -115t97.5 -40q51 0 95 28.5t155 139.5q67 67 67 127q0 35 -12 62.5t-42 64.5t-536 612l115 100l530 -602q62 -69 96 -122.5t34 -124.5q0 -60 -13.5 -98t-44.5 -79t-122 -127t-162.5 -127t-147.5 -41q-65 0 -122.5 32t-147.5 134
l-281 322zM1503 346l-229 262q-66 76 -111 117t-98 41t-97 -32t-112 -95l-700 -621l-121 138l727 645q76 67 140.5 108t150.5 41q65 0 118.5 -28.5t151.5 -137.5l295 -335z" />
    <glyph glyph-name="uni1A0D" unicode="&#x1a0d;" horiz-adv-x="1606" 
d="M156 18l-121 138l672 604q118 106 191 140t151 34q59 0 107 -18.5t93 -57.5t271 -297q57 -57 57 -92q0 -29 -55 -80l-181 -168q-110 -100 -183 -137t-157 -37q-53 0 -96 14.5t-80 42t-135 136.5l115 102q94 -111 186 -111q68 0 135.5 50.5t243.5 218.5l-59 65
q-78 92 -131.5 137.5t-118.5 45.5q-64 0 -119 -37t-141 -115z" />
    <glyph glyph-name="uni1A0E" unicode="&#x1a0e;" horiz-adv-x="2501" 
d="M758 760q-53 0 -97.5 -32t-111.5 -95l-399 -359l-119 138l424 381q75 69 139.5 110t150.5 41q66 0 119.5 -28.5t151.5 -137.5l131 -145q37 -45 57.5 -67.5t48.5 -22.5q25 0 55.5 24.5t245.5 225.5q76 69 140.5 110t152.5 41q66 0 118 -27.5t151 -138.5l354 -409l-109 -93
l-295 326q-67 74 -111 116t-97 42q-52 0 -97 -32t-112 -95l-215 -197q-54 -51 -91.5 -71.5t-80.5 -20.5t-77 25.5t-75 72.5l-168 193q-55 61 -96 93t-88 32zM928 440l108 -129q113 -131 221 -131q86 0 153 44t134 114l88 90l129 -129l-137 -137q-76 -76 -157 -119t-191 -43
q-180 0 -311 160l-154 176z" />
    <glyph glyph-name="uni1A0F" unicode="&#x1a0f;" horiz-adv-x="2714" 
d="M1790 0l-381 434l-477 -434l-123 135l479 436q-100 117 -140 152t-91 35q-53 0 -97.5 -32t-111.5 -95l-694 -631l-123 135l721 656q75 67 140.5 109t151.5 42q50 0 90 -14.5t79.5 -47t189.5 -204.5q225 201 283.5 233.5t136.5 32.5q65 0 118.5 -28.5t151.5 -137.5
l590 -674l-115 -102l-526 600q-66 76 -110 117t-97 41t-97 -32t-112 -95l-104 -94l383 -435z" />
    <glyph glyph-name="uni1A10" unicode="&#x1a10;" horiz-adv-x="2497" 
d="M715 604q-33 0 -63.5 -27.5t-94.5 -101.5l-391 -432l-135 123l428 471q76 84 129 117.5t110 33.5q64 0 109 -40.5t108 -124.5l187 -240q80 -107 102.5 -124t42.5 -17q27 0 58.5 33.5t80.5 86.5l248 275q76 84 130.5 117.5t111.5 33.5q63 0 108.5 -40.5t110.5 -126.5
l371 -490l-117 -88l-309 403q-55 76 -86 117t-64 41q-35 0 -65.5 -29.5t-91.5 -99.5l-236 -260q-70 -78 -122 -125t-115 -47q-56 0 -98 33t-126 145l-258 342q-30 41 -63 41zM565 180q0 137 125 137q129 0 129 -137q0 -74 -38 -106.5t-91 -32.5q-125 0 -125 139zM1739 180
q0 137 125 137q129 0 129 -137q0 -74 -38 -106.5t-91 -32.5q-125 0 -125 139z" />
    <glyph glyph-name="uni1A11" unicode="&#x1a11;" horiz-adv-x="1411" 
d="M1266 406l-217 251q-66 78 -110 118t-97 40q-54 0 -98 -31.5t-111 -95.5l-483 -434l-119 135l506 461q75 68 140.5 108.5t151.5 40.5q74 0 133.5 -35.5t137.5 -129.5l280 -326zM1208 31l-231 266q-27 31 -41 44t-35 13q-24 0 -98 -69l-279 -254l-123 133l379 348
q33 31 54.5 44t56.5 13q37 0 67.5 -28.5t364.5 -411.5z" />
    <glyph glyph-name="uni1A12" unicode="&#x1a12;" horiz-adv-x="2556" 
d="M2415 176l-465 531q-66 77 -111 117t-98 40q-51 0 -95 -31.5t-112 -95.5l-160 -143l-121 135l185 170q75 68 141 109t152 41q65 0 118.5 -28t149.5 -136l528 -598zM758 659q-49 0 -90 -28.5t-518 -454.5l-119 135l424 383q75 68 139.5 110t150.5 42q74 0 129.5 -31
t141.5 -129l153 -178q66 -78 111 -118t98 -40q58 0 109 39t237 225l129 -129l-172 -170q-71 -71 -137.5 -110t-154.5 -39q-66 0 -120.5 29.5t-148.5 136.5l-178 203q-53 61 -95 92.5t-89 31.5z" />
    <glyph glyph-name="uni1A13" unicode="&#x1a13;" horiz-adv-x="2497" 
d="M715 604q-33 0 -63.5 -27.5t-94.5 -101.5l-391 -432l-135 123l428 471q76 84 129 117.5t110 33.5q64 0 109 -40.5t108 -124.5l187 -240q80 -107 102.5 -124t42.5 -17q27 0 58.5 33.5t80.5 86.5l248 275q76 84 130.5 117.5t111.5 33.5q63 0 108.5 -40.5t110.5 -126.5
l371 -490l-117 -88l-309 403q-55 76 -86 117t-64 41q-35 0 -65.5 -29.5t-91.5 -99.5l-236 -260q-70 -78 -122 -125t-115 -47q-56 0 -98 33t-126 145l-258 342q-30 41 -63 41z" />
    <glyph glyph-name="uni1A14" unicode="&#x1a14;" horiz-adv-x="1180" 
d="M1151 483q0 -28 -55 -80l-197 -182q-111 -100 -183.5 -137t-156.5 -37q-53 0 -96 14.5t-80 42t-135 136.5q-174 190 -195.5 222t-21.5 50q0 31 53 80q195 178 266.5 240.5t140 89t132.5 26.5q75 0 137.5 -32.5t175.5 -157.5l160 -187q55 -55 55 -88zM236 483
q131 -153 168.5 -186t72.5 -49.5t72 -16.5q35 0 67.5 12.5t70.5 40t257 228.5q-106 127 -176.5 189.5t-132.5 62.5q-57 0 -107.5 -29.5t-291.5 -251.5z" />
    <glyph glyph-name="uni1A15" unicode="&#x1a15;" horiz-adv-x="2490" 
d="M707 604q-43 0 -103 -69l-444 -492l-135 123q280 311 424.5 466.5t242.5 155.5q64 0 109 -40.5t108 -124.5l185 -240q77 -102 100 -121.5t47 -19.5q27 0 58.5 33.5t80.5 86.5l248 275q76 84 130 117.5t110 33.5q63 0 109 -40.5t112 -126.5l371 -490l-119 -88l-307 403
q-56 76 -86.5 117t-63.5 41q-35 0 -65.5 -29.5t-92.5 -99.5l-235 -260q-72 -78 -123 -125t-115 -47q-55 0 -97 33t-126 145l-260 342q-31 41 -63 41zM1735 180q0 137 125 137q129 0 129 -137q0 -74 -38 -106.5t-91 -32.5q-125 0 -125 139z" />
    <glyph glyph-name="uni1A16" unicode="&#x1a16;" horiz-adv-x="2118" 
d="M2089 483q0 -28 -55 -80l-197 -182q-111 -100 -183.5 -137t-156.5 -37q-53 0 -96 14.5t-80 42t-135 136.5l-125 139q-260 -232 -310.5 -265.5t-96.5 -50t-101 -16.5t-98 16.5t-82 47t-131 133.5q-181 200 -196 226t-15 42q0 31 53 80q192 178 267 242.5t153 88t119 23.5
q61 0 112 -20.5t98.5 -61.5t223.5 -246l172 154q121 109 191.5 141.5t148.5 32.5q76 0 138 -32.5t175 -157.5l152 -185q55 -55 55 -88zM1176 481q151 -180 203.5 -215t107.5 -35q35 0 67.5 12.5t70.5 40t257 228.5l-49 66q-78 90 -133 137t-119 47q-63 0 -119.5 -37
t-142.5 -117zM236 481q129 -155 184 -202.5t123 -47.5q41 0 82 20.5t97 70t218 194.5q-119 141 -180.5 193.5t-124.5 52.5q-64 0 -120 -35t-140 -117z" />
    <glyph glyph-name="uni1A17" unicode="&#x1a17;" 
d="M-664 1436q0 137 125 137q129 0 129 -137q0 -74 -37.5 -107t-91.5 -33q-125 0 -125 140z" />
    <glyph glyph-name="uni1A18" unicode="&#x1a18;" 
d="M-672 -242q0 138 125 138q129 0 129 -138q0 -73 -38 -106t-91 -33q-125 0 -125 139z" />
    <glyph glyph-name="uni1A19" unicode="&#x1a19;" horiz-adv-x="731" 
d="M111 578q0 43 24.5 78.5t81.5 84.5l320 285l122 -133l-229 -205q-57 -51 -90 -80.5t-33 -56.5t21.5 -51.5t60.5 -65.5l391 -422l-121 -98l-462 506q-43 47 -64.5 82t-21.5 76z" />
    <glyph glyph-name="uni1A1A" unicode="&#x1a1a;" horiz-adv-x="1106" 
d="M1378 106l-114 -102l-613 668q-78 92 -104 92q-27 -2 -60.5 -26.5t-312.5 -293.5l-123 136l307 288q58 54 92.5 75.5t71.5 21.5q41 0 77 -21.5t85 -79.5z" />
    <glyph glyph-name="uni1A1B" unicode="&#x1a1b;" 
d="M-1694 2013l373 -428q70 -78 70 -119q0 -28 -11.5 -51.5t-63.5 -65.5t-267 -219l-117 138l162 137q82 61 84 88l2 8q0 10 -5.5 19.5t-338.5 392.5z" />
    <glyph glyph-name="uni1A1E" unicode="&#x1a1e;" horiz-adv-x="1032" 
d="M66 926q0 137 124 137q129 0 129 -137q0 -74 -37.5 -107t-91.5 -33q-124 0 -124 140zM717 141q0 138 125 138q129 0 129 -138q0 -73 -38 -106t-91 -33q-125 0 -125 139zM389 537q0 137 125 137q129 0 129 -137q0 -74 -38 -107t-91 -33q-125 0 -125 140z" />
    <glyph glyph-name="uni1A1F" unicode="&#x1a1f;" horiz-adv-x="1102" 
d="M889 600l-96 109q-66 77 -110 117t-97 40q-54 0 -98 -31.5t-111 -95.5l-156 -139l-121 135l183 166q127 119 215 139v205h149v-205q60 -16 103 -58t94 -95l157 -187zM213 535q184 -213 222 -240t81 -27q53 0 97 32t112 95l154 140l120 -136l-180 -166
q-133 -118 -221 -143v-178h-152v182q-47 17 -84.5 48.5t-263.5 291.5z" />
    <glyph glyph-name="zwsp" unicode="&#x200b;" 
 />
    <glyph glyph-name="zwnj" unicode="&#x200c;" 
d="M36 1667v-1484h-72v1484h72z" />
    <glyph glyph-name="uni200D" unicode="&#x200d;" 
 />
    <glyph glyph-name="uni25CC" unicode="&#x25cc;" horiz-adv-x="1217" 
d="M983 918q0 -54 -51 -54q-55 0 -55 54q0 55 55 55q51 0 51 -55zM836 1016q0 -53 -52 -53q-57 0 -57 53q0 55 57 55q52 0 52 -55zM1083 770q0 -55 -55 -55q-53 0 -53 55q0 53 55 53q53 0 53 -53zM1118 596q0 -53 -51 -53q-55 0 -55 53t55 53q51 0 51 -53zM662 1053
q0 -56 -54 -56q-53 0 -53 56q0 53 53 53q54 0 54 -53zM489 1016q0 -53 -55 -53q-53 0 -53 53q0 55 53 55q55 0 55 -55zM1083 422q0 -53 -55 -53q-53 0 -53 53q0 55 53 55q55 0 55 -55zM342 918q0 -54 -55 -54q-54 0 -54 51q0 58 54 58q55 0 55 -55zM983 272q0 -53 -51 -53
q-55 0 -55 53q0 56 55 56q51 0 51 -56zM836 174q0 -51 -52 -51q-57 0 -57 51q0 55 57 55q52 0 52 -55zM242 770q0 -55 -52 -55q-57 0 -57 55q0 53 55 53q54 0 54 -53zM207 596q0 -53 -53 -53q-56 0 -56 53t56 53q53 0 53 -53zM662 141q0 -55 -54 -55q-53 0 -53 55
q0 54 53 54q54 0 54 -54zM242 422q0 -53 -54 -53q-55 0 -55 53q0 55 55 55q54 0 54 -55zM489 178q0 -55 -55 -55q-53 0 -53 51q0 55 53 55q55 0 55 -51zM342 272q0 -53 -55 -53q-54 0 -54 53q0 56 54 56q55 0 55 -56z" />
    <glyph glyph-name="jv_Pangrangkep" unicode="&#xa9cf;" horiz-adv-x="940" 
d="M815 1118q0 -128 -71 -197t-200 -69q-67 0 -147 19q87 -127 136.5 -282.5t49.5 -323.5q0 -143 -36 -272q-24 -13 -60 -13q-35 0 -61 13q40 126 40 257q0 205 -90 400.5t-238 316.5q-12 42 -12 76q0 33 12 75q277 -96 414 -96q142 0 142 96q24 12 61 12t60 -12z" />
    <glyph glyph-name="uni1A00_e" horiz-adv-x="2103" 
d="M111 578q0 43 24.5 78.5t81.5 84.5l320 285l122 -133l-229 -205q-57 -51 -90 -80.5t-33 -56.5t21.5 -51.5t60.5 -65.5l391 -422l-121 -98l-462 506q-43 47 -64.5 82t-21.5 76zM723 391l862 768l121 -137l-862 -766zM1116 137l861 766l122 -137l-860 -764z" />
    <glyph glyph-name="uni1A01_e" horiz-adv-x="2961" 
d="M111 578q0 43 24.5 78.5t81.5 84.5l320 285l122 -133l-229 -205q-57 -51 -90 -80.5t-33 -56.5t21.5 -51.5t60.5 -65.5l391 -422l-121 -98l-462 506q-43 47 -64.5 82t-21.5 76zM858 135l508 461q76 68 140.5 108.5t150.5 40.5q73 0 132.5 -35.5t137.5 -129.5l199 -228
q65 -78 110 -116.5t99 -38.5q53 0 98 29.5t110 95.5l9 10q67 67 67 127q0 35 -12 62.5t-42 64.5t-536 612l115 100l530 -602q62 -69 96 -122.5t34 -124.5q0 -68 -20.5 -115t-62.5 -92t-117 -110.5t-126 -91.5t-133 -30q-90 0 -148.5 48t-120.5 118l-198 227q-66 78 -111 118
t-98 40t-97 -31.5t-112 -95.5l-481 -434zM1538 139q0 137 125 137q129 0 129 -137q0 -73 -38 -106t-91 -33q-125 0 -125 139z" />
    <glyph glyph-name="uni1A02_e" horiz-adv-x="2058" 
d="M111 578q0 43 24.5 78.5t81.5 84.5l320 285l122 -133l-229 -205q-57 -51 -90 -80.5t-33 -56.5t21.5 -51.5t60.5 -65.5l391 -422l-121 -98l-462 506q-43 47 -64.5 82t-21.5 76zM1231 1120l886 -1024l-110 -96l-449 512l-571 -512l-121 135l574 512l-324 375z" />
    <glyph glyph-name="uni1A03_e" horiz-adv-x="2304" 
d="M111 578q0 43 24.5 78.5t81.5 84.5l320 285l122 -133l-229 -205q-57 -51 -90 -80.5t-33 -56.5t21.5 -51.5t60.5 -65.5l391 -422l-121 -98l-462 506q-43 47 -64.5 82t-21.5 76zM2226 274l-282 326q-68 76 -112 117t-97 41t-97 -32t-112 -95l-16 -15q75 -6 123.5 -47
t103.5 -98l319 -360l-110 -111l-295 336q-66 76 -111 116t-98 40q-66 0 -154 -76l-370 -336l-121 135l635 576q76 67 140.5 109t150.5 42q65 0 122.5 -31.5t147.5 -134.5l346 -391z" />
    <glyph glyph-name="uni1A04_e" horiz-adv-x="2961" 
d="M111 578q0 43 24.5 78.5t81.5 84.5l320 285l122 -133l-229 -205q-57 -51 -90 -80.5t-33 -56.5t21.5 -51.5t60.5 -65.5l391 -422l-121 -98l-462 506q-43 47 -64.5 82t-21.5 76zM858 135l508 461q76 68 140.5 108.5t150.5 40.5q73 0 132.5 -35.5t137.5 -129.5l199 -228
q65 -78 110 -116.5t99 -38.5q53 0 98 29.5t110 95.5l9 10q67 67 67 127q0 35 -12 62.5t-42 64.5t-536 612l115 100l530 -602q62 -69 96 -122.5t34 -124.5q0 -68 -20.5 -115t-62.5 -92t-117 -110.5t-126 -91.5t-133 -30q-90 0 -148.5 48t-120.5 118l-198 227q-66 78 -111 118
t-98 40t-97 -31.5t-112 -95.5l-481 -434z" />
    <glyph glyph-name="uni1A05_e" horiz-adv-x="2206" 
d="M111 578q0 43 24.5 78.5t81.5 84.5l320 285l122 -133l-229 -205q-57 -51 -90 -80.5t-33 -56.5t21.5 -51.5t60.5 -65.5l391 -422l-121 -98l-462 506q-43 47 -64.5 82t-21.5 76zM866 135l569 510l-65 78q-62 70 -97.5 123t-35.5 129q0 74 37 140.5t143.5 157.5t161.5 115.5
t119 24.5q49 0 89 -15.5t75.5 -45t373.5 -414.5l-117 -102l-210 241q-58 68 -103 108t-94 40q-47 0 -79 -16.5t-97 -75.5q-115 -93 -115 -170q0 -50 32 -95t97 -120l567 -652l-110 -96l-451 510l-569 -510z" />
    <glyph glyph-name="uni1A06_e" horiz-adv-x="2652" 
d="M111 578q0 43 24.5 78.5t81.5 84.5l320 285l122 -133l-229 -205q-57 -51 -90 -80.5t-33 -56.5t21.5 -51.5t60.5 -65.5l391 -422l-121 -98l-462 506q-43 47 -64.5 82t-21.5 76zM862 942l527 -600q65 -76 109 -117t98 -41q53 0 97 32t111 95l695 631l123 -135l-723 -657
q-76 -68 -140.5 -109t-150.5 -41q-70 0 -125 30.5t-145 135.5l-590 672z" />
    <glyph glyph-name="uni1A07_e" horiz-adv-x="2617" 
d="M111 578q0 43 24.5 78.5t81.5 84.5l320 285l122 -133l-229 -205q-57 -51 -90 -80.5t-33 -56.5t21.5 -51.5t60.5 -65.5l391 -422l-121 -98l-462 506q-43 47 -64.5 82t-21.5 76zM866 135l574 512l-324 375l115 98l669 -774q60 -67 106 -106t99 -39q39 0 69.5 15t90 66.5
t79 79t21.5 80.5q0 31 -13 63t-46 74t-377 447l113 94l379 -434q71 -82 100 -136t29 -120q-5 -76 -27.5 -126t-99 -122.5t-147.5 -120t-157 -47.5q-69 0 -122.5 29t-149.5 137l-289 332l-571 -512z" />
    <glyph glyph-name="uni1A08_e" horiz-adv-x="2755" 
d="M111 578q0 43 24.5 78.5t81.5 84.5l320 285l122 -133l-229 -205q-57 -51 -90 -80.5t-33 -56.5t21.5 -51.5t60.5 -65.5l391 -422l-121 -98l-462 506q-43 47 -64.5 82t-21.5 76zM2609 0l-526 600q-66 76 -110 117t-97 41t-97.5 -32t-111.5 -95l-694 -631l-123 135l721 656
q75 67 140.5 109t151.5 42q66 0 119.5 -28.5t151.5 -137.5l590 -674z" />
    <glyph glyph-name="uni1A09_e" horiz-adv-x="2652" 
d="M111 578q0 43 24.5 78.5t81.5 84.5l320 285l122 -133l-229 -205q-57 -51 -90 -80.5t-33 -56.5t21.5 -51.5t60.5 -65.5l391 -422l-121 -98l-462 506q-43 47 -64.5 82t-21.5 76zM862 942l527 -600q65 -76 109 -117t98 -41q53 0 97 32t111 95l695 631l123 -135l-723 -657
q-76 -68 -140.5 -109t-150.5 -41q-70 0 -125 30.5t-145 135.5l-590 672zM1499 798q0 137 125 137q129 0 129 -137q0 -74 -37.5 -107t-91.5 -33q-125 0 -125 140z" />
    <glyph glyph-name="uni1A0A_e" horiz-adv-x="2755" 
d="M111 578q0 43 24.5 78.5t81.5 84.5l320 285l122 -133l-229 -205q-57 -51 -90 -80.5t-33 -56.5t21.5 -51.5t60.5 -65.5l391 -422l-121 -98l-462 506q-43 47 -64.5 82t-21.5 76zM2609 0l-526 600q-66 76 -110 117t-97 41t-97.5 -32t-111.5 -95l-694 -631l-123 135l721 656
q75 67 140.5 109t151.5 42q66 0 119.5 -28.5t151.5 -137.5l590 -674zM1728 137q0 138 125 138q129 0 129 -138q0 -73 -38 -106t-91 -33q-125 0 -125 139z" />
    <glyph glyph-name="uni1A0B_e" horiz-adv-x="2961" 
d="M111 578q0 43 24.5 78.5t81.5 84.5l320 285l122 -133l-229 -205q-57 -51 -90 -80.5t-33 -56.5t21.5 -51.5t60.5 -65.5l391 -422l-121 -98l-462 506q-43 47 -64.5 82t-21.5 76zM858 135l508 461q76 68 140.5 108.5t150.5 40.5q73 0 132.5 -35.5t137.5 -129.5l199 -228
q65 -76 110 -115.5t99 -39.5q53 0 98 29.5t110 95.5l9 10q67 67 67 127q0 35 -12 62.5t-42 64.5t-536 612l115 100l530 -602q62 -69 96 -122.5t34 -124.5q0 -68 -20.5 -115t-62.5 -92t-117 -110.5t-126 -91.5t-133 -30q-90 0 -148.5 48t-120.5 118l-198 227q-66 78 -111 118
t-98 40t-97 -31.5t-112 -95.5l-481 -434zM1870 -29l-119 140q-27 28 -42.5 42.5t-33.5 14.5q-10 0 -21.5 -6t-181.5 -162l-123 133l205 193q33 28 54.5 42.5t56.5 14.5q33 0 58.5 -22.5t260.5 -288.5z" />
    <glyph glyph-name="uni1A0C_e" horiz-adv-x="2961" 
d="M111 578q0 43 24.5 78.5t81.5 84.5l320 285l122 -133l-229 -205q-57 -51 -90 -80.5t-33 -56.5t21.5 -51.5t60.5 -65.5l391 -422l-121 -98l-462 506q-43 47 -64.5 82t-21.5 76zM1880 567l215 -248q65 -75 109.5 -115t97.5 -40q51 0 95 28.5t155 139.5q67 67 67 127
q0 35 -12 62.5t-42 64.5t-536 612l115 100l530 -602q62 -69 96 -122.5t34 -124.5q0 -60 -13.5 -98t-44.5 -79t-122 -127t-162.5 -127t-147.5 -41q-65 0 -122.5 32t-147.5 134l-281 322zM2322 346l-229 262q-66 76 -111 117t-98 41t-97 -32t-112 -95l-700 -621l-121 138
l727 645q76 67 140.5 108t150.5 41q65 0 118.5 -28.5t151.5 -137.5l295 -335z" />
    <glyph glyph-name="uni1A0D_e" horiz-adv-x="2425" 
d="M111 578q0 43 24.5 78.5t81.5 84.5l320 285l122 -133l-229 -205q-57 -51 -90 -80.5t-33 -56.5t21.5 -51.5t60.5 -65.5l391 -422l-121 -98l-462 506q-43 47 -64.5 82t-21.5 76zM975 18l-121 138l672 604q118 106 191 140t151 34q59 0 107 -18.5t93 -57.5t271 -297
q57 -57 57 -92q0 -29 -55 -80l-181 -168q-110 -100 -183 -137t-157 -37q-53 0 -96 14.5t-80 42t-135 136.5l115 102q94 -111 186 -111q68 0 135.5 50.5t243.5 218.5l-59 65q-78 92 -131.5 137.5t-118.5 45.5q-64 0 -119 -37t-141 -115z" />
    <glyph glyph-name="uni1A0E_e" horiz-adv-x="3115" 
d="M111 578q0 43 24.5 78.5t81.5 84.5l320 285l122 -133l-229 -205q-57 -51 -90 -80.5t-33 -56.5t21.5 -51.5t60.5 -65.5l391 -422l-121 -98l-462 506q-43 47 -64.5 82t-21.5 76zM1372 760q-53 0 -97.5 -32t-111.5 -95l-399 -359l-119 138l424 381q75 69 139.5 110t150.5 41
q66 0 119.5 -28.5t151.5 -137.5l131 -145q37 -45 57.5 -67.5t48.5 -22.5q25 0 55.5 24.5t245.5 225.5q76 69 140.5 110t152.5 41q66 0 118 -27.5t151 -138.5l354 -409l-109 -93l-295 326q-67 74 -111 116t-97 42q-52 0 -97 -32t-112 -95l-215 -197q-54 -51 -91.5 -71.5
t-80.5 -20.5t-77 25.5t-75 72.5l-168 193q-55 61 -96 93t-88 32zM1542 440l108 -129q113 -131 221 -131q86 0 153 44t134 114l88 90l129 -129l-137 -137q-76 -76 -157 -119t-191 -43q-180 0 -311 160l-154 176z" />
    <glyph glyph-name="uni1A0F_e" horiz-adv-x="3533" 
d="M111 578q0 43 24.5 78.5t81.5 84.5l320 285l122 -133l-229 -205q-57 -51 -90 -80.5t-33 -56.5t21.5 -51.5t60.5 -65.5l391 -422l-121 -98l-462 506q-43 47 -64.5 82t-21.5 76zM2609 0l-381 434l-477 -434l-123 135l479 436q-100 117 -140 152t-91 35q-53 0 -97.5 -32
t-111.5 -95l-694 -631l-123 135l721 656q75 67 140.5 109t151.5 42q50 0 90 -14.5t79.5 -47t189.5 -204.5q225 201 283.5 233.5t136.5 32.5q65 0 118.5 -28.5t151.5 -137.5l590 -674l-115 -102l-526 600q-66 76 -110 117t-97 41t-97 -32t-112 -95l-104 -94l383 -435z" />
    <glyph glyph-name="uni1A10_e" horiz-adv-x="3316" 
d="M111 578q0 43 24.5 78.5t81.5 84.5l320 285l122 -133l-229 -205q-57 -51 -90 -80.5t-33 -56.5t21.5 -51.5t60.5 -65.5l391 -422l-121 -98l-462 506q-43 47 -64.5 82t-21.5 76zM1534 604q-33 0 -63.5 -27.5t-94.5 -101.5l-391 -432l-135 123l428 471q76 84 129 117.5
t110 33.5q64 0 109 -40.5t108 -124.5l187 -240q80 -107 102.5 -124t42.5 -17q27 0 58.5 33.5t80.5 86.5l248 275q76 84 130.5 117.5t111.5 33.5q63 0 108.5 -40.5t110.5 -126.5l371 -490l-117 -88l-309 403q-55 76 -86 117t-64 41q-35 0 -65.5 -29.5t-91.5 -99.5l-236 -260
q-70 -78 -122 -125t-115 -47q-56 0 -98 33t-126 145l-258 342q-30 41 -63 41zM1384 180q0 137 125 137q129 0 129 -137q0 -74 -38 -106.5t-91 -32.5q-125 0 -125 139zM2558 180q0 137 125 137q129 0 129 -137q0 -74 -38 -106.5t-91 -32.5q-125 0 -125 139z" />
    <glyph glyph-name="uni1A11_e" horiz-adv-x="2025" 
d="M111 578q0 43 24.5 78.5t81.5 84.5l320 285l122 -133l-229 -205q-57 -51 -90 -80.5t-33 -56.5t21.5 -51.5t60.5 -65.5l391 -422l-121 -98l-462 506q-43 47 -64.5 82t-21.5 76zM1880 406l-217 251q-66 78 -110 118t-97 40q-54 0 -98 -31.5t-111 -95.5l-483 -434l-119 135
l506 461q75 68 140.5 108.5t151.5 40.5q74 0 133.5 -35.5t137.5 -129.5l280 -326zM1822 31l-231 266q-27 31 -41 44t-35 13q-24 0 -98 -69l-279 -254l-123 133l379 348q33 31 54.5 44t56.5 13q37 0 67.5 -28.5t364.5 -411.5z" />
    <glyph glyph-name="uni1A12_e" horiz-adv-x="3273" 
d="M111 578q0 43 24.5 78.5t81.5 84.5l320 285l122 -133l-229 -205q-57 -51 -90 -80.5t-33 -56.5t21.5 -51.5t60.5 -65.5l391 -422l-121 -98l-462 506q-43 47 -64.5 82t-21.5 76zM3132 176l-465 531q-66 77 -111 117t-98 40q-51 0 -95 -31.5t-112 -95.5l-160 -143l-121 135
l185 170q75 68 141 109t152 41q65 0 118.5 -28t149.5 -136l528 -598zM1475 659q-49 0 -90 -28.5t-518 -454.5l-119 135l424 383q75 68 139.5 110t150.5 42q74 0 129.5 -31t141.5 -129l153 -178q66 -78 111 -118t98 -40q58 0 109 39t237 225l129 -129l-172 -170
q-71 -71 -137.5 -110t-154.5 -39q-66 0 -120.5 29.5t-148.5 136.5l-178 203q-53 61 -95 92.5t-89 31.5z" />
    <glyph glyph-name="uni1A13_e" horiz-adv-x="3316" 
d="M111 578q0 43 24.5 78.5t81.5 84.5l320 285l122 -133l-229 -205q-57 -51 -90 -80.5t-33 -56.5t21.5 -51.5t60.5 -65.5l391 -422l-121 -98l-462 506q-43 47 -64.5 82t-21.5 76zM1534 604q-33 0 -63.5 -27.5t-94.5 -101.5l-391 -432l-135 123l428 471q76 84 129 117.5
t110 33.5q64 0 109 -40.5t108 -124.5l187 -240q80 -107 102.5 -124t42.5 -17q27 0 58.5 33.5t80.5 86.5l248 275q76 84 130.5 117.5t111.5 33.5q63 0 108.5 -40.5t110.5 -126.5l371 -490l-117 -88l-309 403q-55 76 -86 117t-64 41q-35 0 -65.5 -29.5t-91.5 -99.5l-236 -260
q-70 -78 -122 -125t-115 -47q-56 0 -98 33t-126 145l-258 342q-30 41 -63 41z" />
    <glyph glyph-name="uni1A14_e" horiz-adv-x="1753" 
d="M111 578q0 43 24.5 78.5t81.5 84.5l320 285l122 -133l-229 -205q-57 -51 -90 -80.5t-33 -56.5t21.5 -51.5t60.5 -65.5l391 -422l-121 -98l-462 506q-43 47 -64.5 82t-21.5 76zM1724 483q0 -28 -55 -80l-197 -182q-111 -100 -183.5 -137t-156.5 -37q-53 0 -96 14.5t-80 42
t-135 136.5q-174 190 -195.5 222t-21.5 50q0 31 53 80q195 178 266.5 240.5t140 89t132.5 26.5q75 0 137.5 -32.5t175.5 -157.5l160 -187q55 -55 55 -88zM809 483q131 -153 168.5 -186t72.5 -49.5t72 -16.5q35 0 67.5 12.5t70.5 40t257 228.5q-106 127 -176.5 189.5
t-132.5 62.5q-57 0 -107.5 -29.5t-291.5 -251.5z" />
    <glyph glyph-name="uni1A15_e" horiz-adv-x="3310" 
d="M111 578q0 43 24.5 78.5t81.5 84.5l320 285l122 -133l-229 -205q-57 -51 -90 -80.5t-33 -56.5t21.5 -51.5t60.5 -65.5l391 -422l-121 -98l-462 506q-43 47 -64.5 82t-21.5 76zM1526 604q-43 0 -103 -69l-444 -492l-135 123q280 311 424.5 466.5t242.5 155.5
q64 0 109 -40.5t108 -124.5l185 -240q77 -102 100 -121.5t47 -19.5q27 0 58.5 33.5t80.5 86.5l248 275q76 84 130 117.5t110 33.5q63 0 109 -40.5t112 -126.5l371 -490l-119 -88l-307 403q-56 76 -86.5 117t-63.5 41q-35 0 -65.5 -29.5t-92.5 -99.5l-235 -260
q-72 -78 -123 -125t-115 -47q-55 0 -97 33t-126 145l-260 342q-31 41 -63 41zM2554 180q0 137 125 137q129 0 129 -137q0 -74 -38 -106.5t-91 -32.5q-125 0 -125 139z" />
    <glyph glyph-name="uni1A16_e" horiz-adv-x="2691" 
d="M111 578q0 43 24.5 78.5t81.5 84.5l320 285l122 -133l-229 -205q-57 -51 -90 -80.5t-33 -56.5t21.5 -51.5t60.5 -65.5l391 -422l-121 -98l-462 506q-43 47 -64.5 82t-21.5 76zM2662 483q0 -28 -55 -80l-197 -182q-111 -100 -183.5 -137t-156.5 -37q-53 0 -96 14.5t-80 42
t-135 136.5l-125 139q-260 -232 -310.5 -265.5t-96.5 -50t-101 -16.5t-98 16.5t-82 47t-131 133.5q-181 200 -196 226t-15 42q0 31 53 80q192 178 267 242.5t153 88t119 23.5q61 0 112 -20.5t98.5 -61.5t223.5 -246l172 154q121 109 191.5 141.5t148.5 32.5q76 0 138 -32.5
t175 -157.5l152 -185q55 -55 55 -88zM1749 481q151 -180 203.5 -215t107.5 -35q35 0 67.5 12.5t70.5 40t257 228.5l-49 66q-78 90 -133 137t-119 47q-63 0 -119.5 -37t-142.5 -117zM809 481q129 -155 184 -202.5t123 -47.5q41 0 82 20.5t97 70t218 194.5
q-119 141 -180.5 193.5t-124.5 52.5q-64 0 -120 -35t-140 -117z" />
  </font>
</defs>
</svg>
