<?xml version="1.0" standalone="no"?>
<!DOCTYPE svg PUBLIC "-//W3C//DTD SVG 1.1//EN" "http://www.w3.org/Graphics/SVG/1.1/DTD/svg11.dtd" >
<svg xmlns="http://www.w3.org/2000/svg" xmlns:xlink="http://www.w3.org/1999/xlink" version="1.1">
<metadata>
Created by FontForge 20190801 at Wed Sep 23 21:36:41 2015
 By www-data
Copyright 2013 Google Inc. All Rights Reserved.
</metadata>
<defs>
<font id="NotoSansGujaratiBold" horiz-adv-x="0" >
  <font-face 
    font-family="NotoSansGujaratiBold"
    font-weight="700"
    font-stretch="normal"
    units-per-em="2048"
    panose-1="2 11 8 2 4 5 4 2 2 4"
    ascent="1638"
    descent="-410"
    bbox="-1398 -806 2848 1836"
    underline-thickness="102"
    underline-position="-205"
    unicode-range="U+000D-A839"
  />
<missing-glyph horiz-adv-x="1229" 
d="M193 1462h841v-1462h-841v1462zM297 104h633v1254h-633v-1254z" />
    <glyph glyph-name=".notdef" horiz-adv-x="1229" 
d="M193 1462h841v-1462h-841v1462zM297 104h633v1254h-633v-1254z" />
    <glyph glyph-name="glyph1" 
 />
    <glyph glyph-name="glyph1" 
 />
    <glyph glyph-name="uni000D" unicode="&#xd;" horiz-adv-x="612" 
 />
    <glyph glyph-name="space" unicode=" " horiz-adv-x="612" 
 />
    <glyph glyph-name="space" unicode="&#xa0;" horiz-adv-x="612" 
 />
    <glyph glyph-name="exclam" unicode="!" horiz-adv-x="758" 
d="M503 485h-244l-51 977h346zM380 313q81 0 127.5 -43t46.5 -127q0 -80 -47 -125t-127 -45q-83 0 -129.5 44.5t-46.5 125.5q0 85 46 127.5t130 42.5z" />
    <glyph glyph-name="quotedbl" unicode="&#x22;" horiz-adv-x="1089" 
d="M473 1494l-41 -528h-197l-41 528h279zM895 1494l-41 -528h-197l-41 528h279zM508 1836zM564 1212z" />
    <glyph glyph-name="numbersign" unicode="#" horiz-adv-x="1363" 
d="M1019 767l-47 -232h245v-206h-284l-62 -329h-220l63 329h-194l-61 -329h-215l59 329h-224v206h263l47 232h-238v209h275l60 319h219l-60 -319h198l61 319h215l-61 -319h227v-209h-266zM559 535h196l47 232h-196zM922 1462z" />
    <glyph glyph-name="percent" unicode="%" horiz-adv-x="1842" 
d="M427 554q-165 0 -255 96t-90 276q0 184 86 276.5t259 92.5q169 0 259.5 -95.5t90.5 -273.5q0 -187 -89.5 -279.5t-260.5 -92.5zM429 761q54 0 80 40t26 123q0 162 -106 162q-55 0 -80 -40t-25 -122t25 -122.5t80 -40.5zM1434 1274l-801 -1274h-229l801 1274h229z
M1410 -18q-164 0 -254 96t-90 275q0 184 86 276.5t258 92.5q169 0 259.5 -95.5t90.5 -273.5q0 -186 -89.5 -278.5t-260.5 -92.5zM1412 188q54 0 80 40t26 123q0 162 -106 162q-55 0 -80 -40t-25 -122t25 -122.5t80 -40.5z" />
    <glyph glyph-name="quotesingle" unicode="'" horiz-adv-x="667" 
d="M473 1493l-41 -528h-197l-41 528h279zM428 1836zM484 1212z" />
    <glyph glyph-name="parenleft" unicode="(" horiz-adv-x="791" 
d="M436 1703h250q-141 -221 -213 -485t-72 -542q0 -281 74.5 -543t208.5 -471h-248q-148 195 -224.5 454t-76.5 557q0 301 77 566t224 464zM556 1836zM556 1212zM556 -548z" />
    <glyph glyph-name="parenright" unicode=")" horiz-adv-x="791" 
d="M355 -338h-250q141 221 213 485t72 542q0 281 -74.5 543t-208.5 471h248q148 -195 224.5 -454t76.5 -557q0 -301 -77 -566t-224 -464zM456 1836zM456 1212zM456 -548z" />
    <glyph glyph-name="asterisk" unicode="*" horiz-adv-x="1224" 
d="M742 1525l-41 -368l373 104l33 -252l-340 -24l223 -297l-227 -121l-156 313l-137 -311l-236 119l221 297l-338 26l39 250l365 -104l-41 368h262zM598 1462z" />
    <glyph glyph-name="plus" unicode="+" horiz-adv-x="1168" 
d="M475 512h-367v219h367v369h219v-369h366v-219h-366v-364h-219v364zM684 1212z" />
    <glyph glyph-name="comma" unicode="," horiz-adv-x="614" 
d="M484 288l15 -24q-49 -206 -176 -508h-220q75 332 100 532h281z" />
    <glyph glyph-name="hyphen" unicode="-" horiz-adv-x="749" 
d="M106 484v250h537v-250h-537zM444 1212z" />
    <glyph glyph-name="period" unicode="." horiz-adv-x="584" 
d="M293 313q81 0 127.5 -43t46.5 -127q0 -80 -47 -125t-127 -45q-83 0 -129.5 44.5t-46.5 125.5q0 85 46 127.5t130 42.5z" />
    <glyph glyph-name="slash" unicode="/" horiz-adv-x="966" 
d="M894 1705l-560 -2044h-262l560 2044h262zM656 1212zM556 1836zM556 -548z" />
    <glyph glyph-name="zero" unicode="0" horiz-adv-x="1128" 
d="M563 -20q-245 0 -372.5 192.5t-127.5 558.5q0 383 124 568.5t376 185.5q244 0 373 -193t129 -561q0 -382 -124.5 -566.5t-377.5 -184.5zM563 229q104 0 149.5 125t45.5 377q0 251 -45.5 377.5t-149.5 126.5q-99 0 -145.5 -118t-46.5 -386q0 -250 43 -376t149 -126z" />
    <glyph glyph-name="one" unicode="1" horiz-adv-x="1128" 
d="M817 0h-309v846q0 66 8 291q-9 -11 -47.5 -48t-58.5 -53l-168 -135l-150 186l471 375h254v-1462z" />
    <glyph glyph-name="two" unicode="2" horiz-adv-x="1128" 
d="M1063 0h-981v215l344 371q133 143 183 207t78 133t28 143t-44.5 115t-119.5 41q-79 0 -152 -39t-153 -111l-168 199q128 118 243 163.5t248 45.5q207 0 330 -111t123 -301q0 -102 -43 -196.5t-118 -188.5t-218 -235l-176 -177v-14h596v-260z" />
    <glyph glyph-name="three" unicode="3" horiz-adv-x="1128" 
d="M690 770v-6q177 -22 268 -107.5t91 -230.5q0 -207 -150.5 -326.5t-425.5 -119.5q-239 0 -416 79v263q79 -42 184 -69.5t201 -27.5q153 0 225 53.5t72 165.5q0 101 -87.5 149t-264.5 48h-104v217h102q158 0 237.5 52t79.5 157q0 78 -48.5 122t-153.5 44q-145 0 -285 -100
l-156 206q197 144 467 144q220 0 350 -93t130 -255q0 -136 -82.5 -232t-233.5 -133z" />
    <glyph glyph-name="four" unicode="4" horiz-adv-x="1128" 
d="M1085 303h-176v-303h-301v303h-604v215l621 944h284v-919h176v-240zM608 543v248q0 52 4.5 157t8.5 148h-9q-48 -111 -92 -183l-244 -370h332z" />
    <glyph glyph-name="five" unicode="5" horiz-adv-x="1128" 
d="M86 59v267q75 -42 181 -68.5t190 -26.5q134 0 204 55.5t70 176.5q0 221 -280 221q-51 0 -116.5 -11.5t-96.5 -21.5l-123 66l55 745h772v-262h-504l-24 -287q33 7 75 14t109 7q197 0 320.5 -119t123.5 -326q0 -242 -149 -375.5t-420 -133.5q-111 0 -213 19.5t-174 59.5z
" />
    <glyph glyph-name="six" unicode="6" horiz-adv-x="1128" 
d="M965 1464v-247q-86 20 -166 20q-167 0 -265.5 -53t-142 -147t-51.5 -257h12q95 170 307 170q191 0 299.5 -121.5t108.5 -341.5q0 -234 -127.5 -370.5t-349.5 -136.5q-235 0 -374.5 167t-139.5 474q0 434 175.5 646t524.5 212q118 0 189 -15zM768 483q0 107 -44.5 168.5
t-135.5 61.5q-86 0 -145.5 -61.5t-59.5 -141.5q0 -117 55.5 -200t145.5 -83q86 0 135 66t49 190z" />
    <glyph glyph-name="seven" unicode="7" horiz-adv-x="1128" 
d="M207 0l520 1200h-672v260h1008v-194l-533 -1266h-323z" />
    <glyph glyph-name="eight" unicode="8" horiz-adv-x="1128" 
d="M750 772q163 -87 235 -182t72 -211q0 -179 -135 -289t-357 -110q-232 0 -362.5 102.5t-130.5 288.5q0 128 70 226.5t210 166.5q-125 79 -180 169t-55 197q0 160 126 255.5t322 95.5q198 0 322.5 -95t124.5 -258q0 -111 -62 -199t-200 -157zM565 901q83 43 119.5 92.5
t36.5 112.5q0 68 -43.5 108.5t-114.5 40.5q-70 0 -112.5 -41t-42.5 -108q0 -62 31 -107.5t126 -97.5zM553 637q-195 -96 -195 -248q0 -84 54 -133t149 -49q105 0 157 49.5t52 130.5q0 44 -21 82.5t-57.5 71t-116.5 82.5z" />
    <glyph glyph-name="nine" unicode="9" horiz-adv-x="1128" 
d="M166 -6v248q79 -21 166 -21q166 0 264 52t142 146.5t53 258.5h-13q-95 -170 -307 -170q-191 0 -299.5 121.5t-108.5 341.5q0 236 129 372t349 136q146 0 261.5 -68.5t184 -214.5t68.5 -358q0 -434 -175 -646t-526 -212q-38 0 -98 3.5t-90 10.5zM362 975q0 -106 45 -168
t136 -62q86 0 145.5 61.5t59.5 141.5q0 117 -55.5 200t-145.5 83q-89 0 -137 -66t-48 -190z" />
    <glyph glyph-name="colon" unicode=":" horiz-adv-x="663" 
d="M332 1139q81 0 127.5 -43t46.5 -127q0 -82 -47 -126t-127 -44q-83 0 -129.5 43.5t-46.5 126.5q0 85 46 127.5t130 42.5zM332 313q81 0 127.5 -43t46.5 -127q0 -80 -47 -125t-127 -45q-83 0 -129.5 44.5t-46.5 125.5q0 85 46 127.5t130 42.5zM324 1212z" />
    <glyph glyph-name="semicolon" unicode=";" horiz-adv-x="663" 
d="M332 1139q81 0 127.5 -43t46.5 -127q0 -82 -47 -126t-127 -44q-83 0 -129.5 43.5t-46.5 126.5q0 85 46 127.5t130 42.5zM483 288l15 -24q-49 -206 -176 -508h-220q68 302 101 532h280zM354 1212z" />
    <glyph glyph-name="less" unicode="&#x3c;" horiz-adv-x="1168" 
d="M1060 103l-952 438v143l952 496v-240l-643 -317l643 -281v-239zM684 1212z" />
    <glyph glyph-name="equal" unicode="=" horiz-adv-x="1168" 
d="M108 707v217h952v-217h-952zM108 318v219h952v-219h-952zM684 1212z" />
    <glyph glyph-name="greater" unicode="&#x3e;" horiz-adv-x="1168" 
d="M108 342l643 281l-643 317v240l952 -496v-143l-952 -438v239zM684 1212z" />
    <glyph glyph-name="question" unicode="?" horiz-adv-x="1094" 
d="M346 485v74q0 94 38.5 165.5t141.5 152.5q68 53 96.5 83.5t42 63.5t13.5 82q0 57 -38.5 94t-117.5 37q-69 0 -148.5 -29t-164.5 -71l-102 221q99 57 210 91t209 34q207 0 324 -97t117 -266q0 -77 -21 -135t-63.5 -109t-136.5 -126q-73 -57 -104.5 -95.5t-31.5 -109.5v-60
h-264zM490 313q81 0 127.5 -43t46.5 -127q0 -80 -47 -125t-127 -45q-84 0 -130.5 44t-46.5 126q0 85 46 127.5t131 42.5z" />
    <glyph glyph-name="bracketleft" unicode="[" horiz-adv-x="798" 
d="M698 -339h-484v2043h484v-211h-224v-1621h224v-211zM556 1212zM656 1836zM556 -548z" />
    <glyph glyph-name="backslash" unicode="\" horiz-adv-x="966" 
d="M334 1705l560 -2044h-262l-560 2044h262zM556 1212zM456 1836zM556 -548z" />
    <glyph glyph-name="bracketright" unicode="]" horiz-adv-x="798" 
d="M100 1704h484v-2043h-484v211h224v1621h-224v211zM476 1212zM376 1836zM476 -548z" />
    <glyph glyph-name="asciicircum" unicode="^" horiz-adv-x="1168" 
d="M45 520l438 950h144l495 -950h-239l-322 643l-280 -643h-236z" />
    <glyph glyph-name="underscore" unicode="_" horiz-adv-x="842" 
d="M846 -324h-850v140h850v-140z" />
    <glyph glyph-name="braceleft" unicode="{" horiz-adv-x="872" 
d="M78 562v239q133 0 194.5 49t61.5 146v383q0 125 38.5 192t132.5 99.5t267 32.5v-225q-96 -2 -135 -41t-39 -127v-357q0 -98 -54.5 -169.5t-179.5 -95.5v-12q234 -42 234 -254v-367q0 -88 39 -127t135 -41v-226q-174 0 -268.5 33t-132 100.5t-37.5 191.5v367
q0 113 -65.5 161t-190.5 48zM486 1836zM486 1212zM486 -548z" />
    <glyph glyph-name="bar" unicode="|" horiz-adv-x="1105" 
d="M443 1703h219v-2042h-219v2042zM556 1212zM556 1836zM556 -548z" />
    <glyph glyph-name="braceright" unicode="}" horiz-adv-x="872" 
d="M794 563q-133 0 -194.5 -49t-61.5 -146v-383q0 -125 -38.5 -192t-132.5 -99.5t-267 -32.5v225q96 2 135 41t39 127v357q0 98 54.5 169.5t179.5 95.5v12q-234 42 -234 254v367q0 88 -39 127t-135 41v226q174 0 268.5 -33t132 -100.5t37.5 -191.5v-367q0 -113 65.5 -161
t190.5 -48v-239zM396 1836zM396 1212zM396 -548z" />
    <glyph glyph-name="asciitilde" unicode="~" horiz-adv-x="1168" 
d="M108 451v231q103 109 256 109q59 0 109.5 -12t146.5 -52q72 -30 115.5 -42.5t91.5 -12.5q50 0 110.5 29.5t122.5 91.5v-231q-101 -109 -256 -109q-71 0 -126.5 16t-129.5 47q-79 34 -118.5 45t-87.5 11q-107 0 -234 -121z" />
    <glyph glyph-name="uni00AD" unicode="&#xad;" horiz-adv-x="749" 
d="M106 484v250h537v-250h-537zM444 1212z" />
    <glyph glyph-name="multiply" unicode="&#xd7;" horiz-adv-x="1168" 
d="M428 623l-299 301l151 154l301 -299l305 299l154 -150l-305 -305l301 -303l-150 -152l-305 301l-301 -299l-149 152zM530 1212z" />
    <glyph glyph-name="divide" unicode="&#xf7;" horiz-adv-x="1168" 
d="M583 1123q66 0 102.5 -39.5t36.5 -112.5q0 -70 -37.5 -110.5t-101.5 -40.5t-101.5 39.5t-37.5 111.5q0 75 36.5 113.5t102.5 38.5zM108 512v219h952v-219h-952zM583 424q65 0 102 -38.5t37 -112.5q0 -71 -37 -111.5t-102 -40.5t-102 39.5t-37 112.5q0 76 37 113.5
t102 37.5zM530 1212z" />
    <glyph glyph-name="uni0964" unicode="&#x964;" horiz-adv-x="816" 
d="M364 0v1212h274v-1212h-274z" />
    <glyph glyph-name="uni0965" unicode="&#x965;" horiz-adv-x="1307" 
d="M854 0v1212h275v-1212h-275zM364 0v1212h275v-1212h-275z" />
    <glyph glyph-name="uni0A81" unicode="&#xa81;" 
d="M-304 1836q57 0 97 -39.5t40 -94.5q0 -56 -40 -95t-97 -39t-97 39.5t-40 94.5t39.5 94.5t97.5 39.5zM-786 1633l215 79q49 -113 113 -163.5t154 -50.5t155.5 51.5t111.5 162.5l215 -79q-73 -173 -190.5 -259t-291.5 -86q-173 0 -292 87.5t-190 257.5zM-442 1234z" />
    <glyph glyph-name="uni0A82" unicode="&#xa82;" 
d="M-305 1716q63 0 106.5 -43.5t43.5 -109.5t-43.5 -109.5t-106.5 -43.5t-106.5 43.5t-43.5 109.5t43.5 109.5t106.5 43.5zM-442 1234zM-409 1836z" />
    <glyph glyph-name="uni0A83" unicode="&#xa83;" horiz-adv-x="534" 
d="M267 1019q63 0 106.5 -43.5t43.5 -109.5t-43.5 -109.5t-106.5 -43.5t-106.5 43.5t-43.5 109.5t43.5 109.5t106.5 43.5zM267 388q63 0 106.5 -43.5t43.5 -109.5t-43.5 -109.5t-106.5 -43.5t-106.5 43.5t-43.5 109.5t43.5 109.5t106.5 43.5zM260 1234z" />
    <glyph glyph-name="uni0A85" unicode="&#xa85;" horiz-adv-x="1927" 
d="M1485 448q-59 -30 -135 -30q-90 0 -145 41q-63 -130 -182.5 -195t-295.5 -65q-142 0 -257 62t-195 184h-13q-101 0 -154.5 41.5t-53.5 117.5q0 67 39.5 101.5t115.5 34.5q93 0 173 -70q63 27 97 73t34 106q0 77 -47 117.5t-140 40.5q-102 0 -200 -41l-76 206
q157 62 303 62q199 0 312 -98.5t113 -271.5q0 -122 -61.5 -216t-176.5 -147q35 -35 78 -54t104 -19q99 0 156.5 45.5t86 125.5t28.5 237v81l275 -22v-200q24 -44 83 -44q76 0 134 55v528l275 -22v-829q0 -51 8 -80.5t26 -45t42 -20t83 -4.5l-20 -233h-55q-142 0 -214 35.5
t-108.5 108t-36.5 218.5v86zM841 0z" />
    <glyph glyph-name="uni0A86" unicode="&#xa86;" horiz-adv-x="2526" 
d="M1485 448q-59 -30 -135 -30q-90 0 -145 41q-63 -130 -182.5 -195t-295.5 -65q-142 0 -257 62t-195 184h-13q-101 0 -154.5 41.5t-53.5 117.5q0 67 39.5 101.5t115.5 34.5q93 0 173 -70q63 27 97 73t34 106q0 77 -47 117.5t-140 40.5q-102 0 -200 -41l-76 206
q157 62 303 62q199 0 312 -98.5t113 -271.5q0 -122 -61.5 -216t-176.5 -147q35 -35 78 -54t104 -19q99 0 156.5 45.5t86 125.5t28.5 237v81l275 -22v-200q24 -44 83 -44q76 0 134 55v528l275 -22v-829q0 -51 8 -80.5t26 -45t42 -20t83 -4.5l-20 -233h-55q-142 0 -214 35.5
t-108.5 108t-36.5 218.5v86zM2084 1234l275 -22v-829q0 -51 8 -80.5t26 -45t42 -20t83 -4.5l-20 -233h-55q-142 0 -214 35.5t-108.5 108t-36.5 218.5v872zM841 0z" />
    <glyph glyph-name="uni0A87" unicode="&#xa87;" horiz-adv-x="1380" 
d="M629 988q-58 13 -126 13q-73 0 -114 -29t-41 -84q0 -85 93 -147q85 25 182 25q82 0 121 -9l-31 -227q-25 4 -84 4q-97 0 -152.5 -40t-55.5 -108q0 -85 62.5 -128.5t195.5 -43.5q163 0 255.5 81.5t92.5 232.5q0 51 -11.5 99t-31 92.5t-66.5 128.5q-70 128 -89.5 201.5
t-19.5 144.5q0 113 58 210t167 160l178 -226q-58 -39 -86 -77.5t-28 -84.5q0 -55 22.5 -111.5t83.5 -164.5q48 -84 77 -176.5t29 -199.5q0 -254 -166 -399t-472 -145q-251 0 -389.5 107t-138.5 288q0 134 84 235q-77 66 -117.5 140.5t-40.5 163.5q0 148 103 234t283 86
q119 0 218 -23zM701 0zM378 1234zM1087 1331zM749 1836z" />
    <glyph glyph-name="uni0A88" unicode="&#xa88;" horiz-adv-x="1380" 
d="M629 988q-58 13 -126 13q-73 0 -114 -29t-41 -84q0 -85 93 -147q85 25 182 25q82 0 121 -9l-31 -227q-25 4 -84 4q-97 0 -152.5 -40t-55.5 -108q0 -85 62.5 -128.5t195.5 -43.5q159 0 253.5 82t94.5 232q0 79 -26.5 170t-116.5 265q-72 138 -104 214t-51 153t-19 150
q0 158 107 257t302 99q137 0 246 -72.5t183 -215.5l-256 -114q-49 100 -91 134.5t-94 34.5q-53 0 -86 -32t-33 -89q0 -43 11.5 -87t34 -96t86.5 -180q81 -163 116 -249.5t54.5 -172.5t19.5 -173q0 -253 -166.5 -398.5t-471.5 -145.5q-251 0 -389.5 107t-138.5 288
q0 134 84 235q-77 66 -117.5 140.5t-40.5 163.5q0 148 103 234t283 86q119 0 218 -23zM701 0zM188 1234z" />
    <glyph glyph-name="uni0A89" unicode="&#xa89;" horiz-adv-x="1362" 
d="M1077 1453q-63 16 -148 16q-271 0 -414 -182t-143 -504q0 -284 100.5 -427t296.5 -143q114 0 172 40.5t58 118.5q0 88 -97 160q-73 -18 -153 -24l-48 230q144 10 220 49.5t76 107.5q0 108 -154 108q-115 0 -224 -46l-74 212q95 36 172 50.5t167 14.5q186 0 287 -88.5
t101 -241.5q0 -81 -32 -146.5t-95 -116.5q132 -121 132 -295t-129.5 -270t-366.5 -96q-322 0 -504.5 211.5t-182.5 596.5q0 273 98.5 484t286.5 323.5t454 112.5q101 0 190 -20zM701 0zM988 1234zM906 1836z" />
    <glyph glyph-name="uni0A8A" unicode="&#xa8a;" horiz-adv-x="1898" 
d="M545 1169q95 36 172 50.5t167 14.5q186 0 287 -88.5t101 -241.5q0 -81 -32 -146.5t-95 -116.5q132 -121 132 -295t-129.5 -270t-366.5 -96q-322 0 -504.5 211.5t-182.5 596.5q0 270 96.5 481t282 325t445.5 114q285 0 490.5 -144.5t322.5 -422.5v-758q0 -51 8 -80.5
t26 -45t42 -20t83 -4.5l-20 -233h-55q-142 0 -214 35.5t-108.5 108t-36.5 218.5v684q-91 215 -220 320t-307 105q-173 0 -297.5 -80t-192 -238.5t-67.5 -369.5q0 -284 100.5 -427t296.5 -143q114 0 172 40.5t58 118.5q0 88 -97 160q-73 -18 -153 -24l-48 230
q144 10 220 49.5t76 107.5q0 108 -154 108q-115 0 -224 -46zM901 0zM1558 1234zM882 1836z" />
    <glyph glyph-name="uni0A8B" unicode="&#xa8b;" horiz-adv-x="1853" 
d="M856 575l-519 -347l-151 229l456 260q-68 83 -140 125.5t-162 42.5q-60 0 -115.5 -15t-117.5 -46l-87 217q96 42 171.5 60.5t154.5 18.5q100 0 175.5 -25.5t151.5 -87t171 -175.5l12 7v395l275 -22v-277q113 -104 232 -104h11q-9 29 -9 52q0 76 48.5 118.5t130.5 42.5
q90 0 143 -53t53 -138q0 -80 -41 -138q89 -133 89 -252q0 -106 -59 -189t-199 -163l-143 221q71 32 99.5 66t28.5 83q0 62 -38 130q-42 -5 -90 -5q-58 0 -128 18t-128 52v-293q0 -51 8 -80.5t26 -45t42 -20t83 -4.5l-20 -233h-55q-142 0 -214 35.5t-108.5 108t-36.5 218.5
v213zM1031 0zM1525 344z" />
    <glyph glyph-name="uni0A8C" unicode="&#xa8c;" horiz-adv-x="1540" 
d="M1608 -107q-140 -71 -307 -71q-155 0 -254.5 83t-99.5 214q0 197 200 276q44 85 44 158q0 74 -31.5 111.5t-90.5 37.5q-73 0 -136 -66.5t-97 -194.5l-255 78q18 68 44 125q-72 56 -143 56q-61 0 -97.5 -34.5t-36.5 -92.5q0 -73 57.5 -151.5t183.5 -185.5l-186 -174
q-178 157 -255.5 285t-77.5 256q0 156 99.5 241.5t256.5 85.5q100 0 178 -24t156 -79q72 59 173 85v322l275 -22v-297q122 -33 189.5 -123.5t67.5 -220.5q0 -167 -94 -325q-88 -11 -135.5 -39.5t-47.5 -83.5q0 -95 125 -95q52 0 102.5 16t113.5 48zM681 0zM955 -548z
M490 295z" />
    <glyph glyph-name="uni0A8D" unicode="&#xa8d;" horiz-adv-x="1927" 
d="M1485 448q-59 -30 -135 -30q-90 0 -145 41q-63 -130 -182.5 -195t-295.5 -65q-142 0 -257 62t-195 184h-13q-101 0 -154.5 41.5t-53.5 117.5q0 67 39.5 101.5t115.5 34.5q93 0 173 -70q63 27 97 73t34 106q0 77 -47 117.5t-140 40.5q-102 0 -200 -41l-76 206
q157 62 303 62q199 0 312 -98.5t113 -271.5q0 -122 -61.5 -216t-176.5 -147q35 -35 78 -54t104 -19q99 0 156.5 45.5t86 125.5t28.5 237v81l275 -22v-200q24 -44 83 -44q76 0 134 55v528l275 -22v-829q0 -51 8 -80.5t26 -45t42 -20t83 -4.5l-20 -233h-55q-142 0 -214 35.5
t-108.5 108t-36.5 218.5v86zM841 0zM1828 1340q-81 -27 -182 -27q-166 0 -300 78.5t-300 289.5l190 125q118 -148 202 -203.5t206 -55.5q66 0 112 17zM1485 1234zM1482 1836zM1086 1600z" />
    <glyph glyph-name="uni0A8F" unicode="&#xa8f;" horiz-adv-x="1927" 
d="M1485 448q-59 -30 -135 -30q-90 0 -145 41q-63 -130 -182.5 -195t-295.5 -65q-142 0 -257 62t-195 184h-13q-101 0 -154.5 41.5t-53.5 117.5q0 67 39.5 101.5t115.5 34.5q93 0 173 -70q63 27 97 73t34 106q0 77 -47 117.5t-140 40.5q-102 0 -200 -41l-76 206
q157 62 303 62q199 0 312 -98.5t113 -271.5q0 -122 -61.5 -216t-176.5 -147q35 -35 78 -54t104 -19q99 0 156.5 45.5t86 125.5t28.5 237v81l275 -22v-200q24 -44 83 -44q76 0 134 55v528l275 -22v-829q0 -51 8 -80.5t26 -45t42 -20t83 -4.5l-20 -233h-55q-142 0 -214 35.5
t-108.5 108t-36.5 218.5v86zM841 0zM1493 1313q-32 155 -85.5 222t-154.5 67q-63 0 -116 -16l-73 221q95 29 208 29q96 0 161 -24.5t121.5 -82t104.5 -165t83 -251.5h-249zM1485 1234z" />
    <glyph glyph-name="uni0A90" unicode="&#xa90;" horiz-adv-x="1927" 
d="M1485 448q-59 -30 -135 -30q-90 0 -145 41q-63 -130 -182.5 -195t-295.5 -65q-142 0 -257 62t-195 184h-13q-101 0 -154.5 41.5t-53.5 117.5q0 67 39.5 101.5t115.5 34.5q93 0 173 -70q63 27 97 73t34 106q0 77 -47 117.5t-140 40.5q-102 0 -200 -41l-76 206
q157 62 303 62q199 0 312 -98.5t113 -271.5q0 -122 -61.5 -216t-176.5 -147q35 -35 78 -54t104 -19q99 0 156.5 45.5t86 125.5t28.5 237v81l275 -22v-200q24 -44 83 -44q76 0 134 55v528l275 -22v-829q0 -51 8 -80.5t26 -45t42 -20t83 -4.5l-20 -233h-55q-142 0 -214 35.5
t-108.5 108t-36.5 218.5v86zM841 0zM859 1585q83 27 192 27q113 0 204 -35t250 -155q-30 113 -72 158.5t-116 45.5q-56 0 -111 -17l-68 198q94 29 195 29q100 0 160 -22t112 -75.5t91 -160.5t63 -265h-230l-10 49q-4 24 -10 45l-101 -139q-127 82 -197.5 107t-153.5 25
q-70 0 -126 -19zM1485 1234z" />
    <glyph glyph-name="uni0A91" unicode="&#xa91;" horiz-adv-x="2526" 
d="M1485 448q-59 -30 -135 -30q-90 0 -145 41q-63 -130 -182.5 -195t-295.5 -65q-142 0 -257 62t-195 184h-13q-101 0 -154.5 41.5t-53.5 117.5q0 67 39.5 101.5t115.5 34.5q93 0 173 -70q63 27 97 73t34 106q0 77 -47 117.5t-140 40.5q-102 0 -200 -41l-76 206
q157 62 303 62q199 0 312 -98.5t113 -271.5q0 -122 -61.5 -216t-176.5 -147q35 -35 78 -54t104 -19q99 0 156.5 45.5t86 125.5t28.5 237v81l275 -22v-200q24 -44 83 -44q76 0 134 55v528l275 -22v-829q0 -51 8 -80.5t26 -45t42 -20t83 -4.5l-20 -233h-55q-142 0 -214 35.5
t-108.5 108t-36.5 218.5v86zM2084 1234l275 -22v-829q0 -51 8 -80.5t26 -45t42 -20t83 -4.5l-20 -233h-55q-142 0 -214 35.5t-108.5 108t-36.5 218.5v872zM841 0zM2427 1340q-81 -27 -182 -27q-166 0 -300 78.5t-300 289.5l190 125q118 -148 202 -203.5t206 -55.5
q66 0 112 17zM2084 1234zM2081 1836zM1685 1600z" />
    <glyph glyph-name="uni0A93" unicode="&#xa93;" horiz-adv-x="2526" 
d="M1485 448q-59 -30 -135 -30q-90 0 -145 41q-63 -130 -182.5 -195t-295.5 -65q-142 0 -257 62t-195 184h-13q-101 0 -154.5 41.5t-53.5 117.5q0 67 39.5 101.5t115.5 34.5q93 0 173 -70q63 27 97 73t34 106q0 77 -47 117.5t-140 40.5q-102 0 -200 -41l-76 206
q157 62 303 62q199 0 312 -98.5t113 -271.5q0 -122 -61.5 -216t-176.5 -147q35 -35 78 -54t104 -19q99 0 156.5 45.5t86 125.5t28.5 237v81l275 -22v-200q24 -44 83 -44q76 0 134 55v528l275 -22v-829q0 -51 8 -80.5t26 -45t42 -20t83 -4.5l-20 -233h-55q-142 0 -214 35.5
t-108.5 108t-36.5 218.5v86zM2084 1234l275 -22v-829q0 -51 8 -80.5t26 -45t42 -20t83 -4.5l-20 -233h-55q-142 0 -214 35.5t-108.5 108t-36.5 218.5v872zM841 0zM2092 1313q-32 155 -85.5 222t-154.5 67q-63 0 -116 -16l-73 221q95 29 208 29q96 0 161 -24.5t121.5 -82
t104.5 -165t83 -251.5h-249zM2084 1234z" />
    <glyph glyph-name="uni0A94" unicode="&#xa94;" horiz-adv-x="2526" 
d="M1485 448q-59 -30 -135 -30q-90 0 -145 41q-63 -130 -182.5 -195t-295.5 -65q-142 0 -257 62t-195 184h-13q-101 0 -154.5 41.5t-53.5 117.5q0 67 39.5 101.5t115.5 34.5q93 0 173 -70q63 27 97 73t34 106q0 77 -47 117.5t-140 40.5q-102 0 -200 -41l-76 206
q157 62 303 62q199 0 312 -98.5t113 -271.5q0 -122 -61.5 -216t-176.5 -147q35 -35 78 -54t104 -19q99 0 156.5 45.5t86 125.5t28.5 237v81l275 -22v-200q24 -44 83 -44q76 0 134 55v528l275 -22v-829q0 -51 8 -80.5t26 -45t42 -20t83 -4.5l-20 -233h-55q-142 0 -214 35.5
t-108.5 108t-36.5 218.5v86zM2084 1234l275 -22v-829q0 -51 8 -80.5t26 -45t42 -20t83 -4.5l-20 -233h-55q-142 0 -214 35.5t-108.5 108t-36.5 218.5v872zM841 0zM1458 1585q83 27 192 27q113 0 204 -35t250 -155q-30 113 -72 158.5t-116 45.5q-56 0 -111 -17l-68 198
q94 29 195 29q100 0 160 -22t112 -75.5t91 -160.5t63 -265h-230l-10 49q-4 24 -10 45l-101 -139q-127 82 -197.5 107t-153.5 25q-70 0 -126 -19zM2084 1234z" />
    <glyph glyph-name="uni0A95" unicode="&#xa95;" horiz-adv-x="1108" 
d="M812 986q-89 19 -180 19q-175 0 -175 -99q0 -33 26 -63t92 -66l410 149l97 -222l-260 -85q98 -61 141 -134.5t43 -167.5q0 -154 -120.5 -246t-352.5 -92q-279 0 -495 133l130 199q104 -54 182 -75.5t159 -21.5q103 0 159.5 33.5t56.5 93.5q0 59 -50.5 103t-131.5 79
l-386 -139l-91 220l251 84q-70 55 -104.5 116t-34.5 128q0 137 119.5 219.5t322.5 82.5q138 0 238 -25zM567 0zM584 1234zM431 1234zM1105 693zM47 617z" />
    <glyph glyph-name="uni0A96" unicode="&#xa96;" horiz-adv-x="1661" 
d="M1219 549q-57 -31 -136 -31q-71 0 -121 26q-40 -115 -134 -169t-256 -54q-102 0 -178 25t-129 80t-73 126.5t-20 190.5v86q0 51 -8 81t-26.5 45.5t-42.5 19.5t-82 4l20 233h55q110 0 180 -22.5t109 -71t54.5 -110t15.5 -159.5v-112q0 -83 16 -117.5t46.5 -50t65.5 -15.5
q58 0 88.5 21t46.5 61t16 118v244l275 -22v-181q24 -44 83 -44q76 0 135 56v427l275 -22v-829q0 -51 8 -80.5t26 -45t42 -20t83 -4.5l-20 -233h-55q-142 0 -214 35.5t-108.5 108t-36.5 218.5v187z" />
    <glyph glyph-name="uni0A97" unicode="&#xa97;" horiz-adv-x="1462" 
d="M467 339q-140 0 -251.5 67.5t-204.5 211.5l202 120q56 -88 109.5 -125.5t117.5 -37.5q82 0 119 49t37 152q0 116 -45.5 171.5t-149.5 55.5q-108 0 -217 -48l-75 210q148 69 325 69q205 0 321 -123t116 -340q0 -211 -108 -321.5t-296 -110.5zM1020 1234l275 -22v-829
q0 -51 8 -80.5t26 -45t42 -20t83 -4.5l-20 -233h-55q-128 0 -204 31t-115.5 107.5t-39.5 223.5v872z" />
    <glyph glyph-name="uni0A98" unicode="&#xa98;" horiz-adv-x="1349" 
d="M908 303q-81 -51 -165 -72t-189 -21q-173 0 -285.5 88.5t-112.5 235.5q0 93 47 164q-133 112 -133 260q0 128 101 202t280 74q124 0 223 -23l-45 -218q-52 13 -143 13q-74 0 -109.5 -22t-35.5 -59q0 -55 58 -92q70 19 147 19q82 0 157 -17l-35 -222q-52 11 -113 11
q-66 0 -98.5 -23.5t-32.5 -64.5q0 -95 151 -95q178 0 332 137v656l275 -21v-830q0 -51 8 -80.5t26 -45t42 -20t83 -4.5l-20 -233h-55q-196 0 -274 75.5t-84 227.5z" />
    <glyph glyph-name="uni0A99" unicode="&#xa99;" horiz-adv-x="1112" 
d="M816 980q-101 26 -185 26q-133 0 -133 -75q0 -28 11.5 -47t45.5 -42t129 -73q179 -93 257.5 -187t78.5 -238q0 -164 -117.5 -264t-316.5 -100q-178 0 -319.5 77.5t-255.5 239.5l214 127q155 -211 347 -211q82 0 126 32.5t44 91.5q0 62 -45 109.5t-174 113.5
q-157 80 -229.5 164.5t-72.5 208.5q0 132 110 216.5t292 84.5q132 0 244 -24zM944 980q61 0 100.5 -41t39.5 -102q0 -62 -40 -103t-100 -41t-100.5 41.5t-40.5 102.5q0 60 40 101.5t101 41.5zM572 0zM598 1234zM526 0zM460 1234zM45 218zM504 536z" />
    <glyph glyph-name="uni0A9A" unicode="&#xa9a;" horiz-adv-x="1450" 
d="M1009 311q-125 -75 -292 -75q-157 0 -254.5 53.5t-168.5 155.5h-32q-101 0 -154.5 41.5t-53.5 117.5q0 67 39.5 101.5t115.5 34.5q93 0 173 -70q63 27 97 73t34 106q0 77 -47 117.5t-139 40.5q-103 0 -201 -41l-76 206q154 62 298 62q203 0 316.5 -99t113.5 -271
q0 -114 -54.5 -204.5t-161.5 -147.5q67 -46 154 -46q165 0 292 130v638l275 -22v-829q0 -51 8 -80.5t26 -45t42 -20t83 -4.5l-20 -233h-55q-198 0 -274.5 76.5t-83.5 234.5z" />
    <glyph glyph-name="uni0A9B" unicode="&#xa9b;" horiz-adv-x="1602" 
d="M228 610q-77 66 -117.5 140.5t-40.5 163.5q0 148 103 234t283 86q119 0 218 -23l-45 -223q-58 13 -126 13q-73 0 -114 -29t-41 -84q0 -85 93 -147q85 25 182 25q82 0 121 -9l-31 -227q-25 4 -84 4q-97 0 -152.5 -40t-55.5 -108q0 -173 258 -173q176 0 308.5 74.5t204 207
t71.5 273.5q0 119 -37.5 179.5t-108.5 60.5q-49 0 -75 -29t-26 -74q0 -123 208 -164l-72 -228q-197 47 -292.5 147.5t-95.5 258.5q0 140 90.5 227.5t247.5 87.5q202 0 320.5 -124t118.5 -362q0 -225 -103 -401.5t-299.5 -272t-466.5 -95.5q-253 0 -390.5 107.5t-137.5 288.5
q0 134 84 235zM782 0zM1059 1234zM716 0zM921 1234z" />
    <glyph glyph-name="uni0A9C" unicode="&#xa9c;" horiz-adv-x="1906" 
d="M1329 959q108 75 222 143.5t234 131.5l141 -219q-132 -71 -234.5 -130t-175.5 -107q86 -103 127 -205.5t41 -214.5q0 -173 -109.5 -276t-301.5 -103q-190 0 -295.5 102.5t-105.5 258.5q0 137 62.5 242t198.5 223q-62 54 -141.5 95t-175.5 69q29 -85 29 -159
q0 -154 -102 -245.5t-300 -91.5q-178 0 -283 101t-105 266q0 110 63.5 201t182 142t275.5 51q229 0 410 -67t343 -208zM559 1012q-110 0 -171.5 -47t-61.5 -124q0 -65 33.5 -101.5t91.5 -36.5q70 0 108 40t38 105q0 87 -38 164zM1305 631q-75 -64 -118.5 -131t-43.5 -149
q0 -69 34 -106.5t96 -37.5q66 0 101 37.5t35 107.5q0 72 -26 141.5t-78 137.5zM1235 0zM1403 1234zM1265 1234zM1232 0zM1829 1001z" />
    <glyph glyph-name="uni0A9D" unicode="&#xa9d;" horiz-adv-x="1544" 
d="M922 587q7 -62 7 -111q0 -244 -113.5 -370t-316.5 -126q-150 0 -264 68t-215 217l206 123q74 -102 127.5 -136.5t122.5 -34.5q88 0 131.5 65t43.5 197q0 147 -53.5 221t-160.5 74q-123 0 -236 -52l-77 216q157 69 342 69q127 0 222 -49t157 -146q63 20 125 27v395
l275 -22v-401q114 -45 175 -141t61 -224q0 -140 -53.5 -250.5t-170.5 -215.5l-203 181q152 124 152 269q0 86 -46 134.5t-129 48.5q-55 0 -109 -26zM1042 0z" />
    <glyph glyph-name="uni0A9E" unicode="&#xa9e;" horiz-adv-x="1520" 
d="M1078 673q-76 -41 -183 -41q-31 0 -43 2q-30 -143 -131 -219t-254 -76q-140 0 -251.5 67.5t-204.5 211.5l202 120q56 -88 109.5 -125.5t117.5 -37.5q82 0 119 49.5t37 151.5q0 119 -46 173t-149 54q-108 0 -217 -48l-75 210q148 69 325 69t289 -95t137 -277l15 -1
q40 -3 96.5 9t106.5 56v308l275 -22v-829q0 -51 8 -80.5t26 -45t42 -20t83 -4.5l-20 -233h-55q-128 0 -204 31t-115.5 107.5t-39.5 223.5v311z" />
    <glyph glyph-name="uni0A9F" unicode="&#xa9f;" horiz-adv-x="999" 
d="M904 308l108 -216q-133 -61 -244.5 -86.5t-231.5 -25.5q-212 0 -339.5 101.5t-127.5 266.5q0 127 82 223.5t285 195.5q157 76 184.5 102.5t27.5 59.5q0 37 -31.5 57t-86.5 20q-149 0 -287 -55l-77 216q185 67 372 67q185 0 285 -79t100 -216q0 -131 -78 -212.5
t-268 -176.5q-134 -67 -182 -108.5t-48 -99.5q0 -128 185 -128q206 0 372 94zM537 0zM499 0zM400 1234z" />
    <glyph glyph-name="uni0AA0" unicode="&#xaa0;" horiz-adv-x="1126" 
d="M871 982q-94 26 -183 26q-63 0 -92 -14t-29 -44q0 -33 30 -56.5t107 -64.5q191 -101 281.5 -210.5t90.5 -264.5q0 -175 -131 -274.5t-368 -99.5t-373.5 111t-136.5 301q0 130 80.5 229.5t228.5 147.5q-37 43 -55.5 91.5t-18.5 103.5q0 117 98.5 193.5t275.5 76.5
q126 0 246 -24zM635 583h-6q-132 0 -208 -52.5t-76 -140.5q0 -86 59.5 -132t168.5 -46q107 0 166 41.5t59 117.5q0 66 -39.5 113t-123.5 99zM592 0zM638 1234zM546 0zM480 1234z" />
    <glyph glyph-name="uni0AA1" unicode="&#xaa1;" horiz-adv-x="1070" 
d="M816 980q-101 26 -185 26q-133 0 -133 -75q0 -28 11.5 -47t45.5 -42t129 -73q179 -93 257.5 -187t78.5 -238q0 -164 -117.5 -264t-316.5 -100q-178 0 -319.5 77.5t-255.5 239.5l214 127q155 -211 347 -211q82 0 126 32.5t44 91.5q0 62 -45 109.5t-174 113.5
q-157 80 -229.5 164.5t-72.5 208.5q0 132 110 216.5t292 84.5q132 0 244 -24zM572 0zM598 1234zM535 0zM460 1234zM623 536zM116 218z" />
    <glyph glyph-name="uni0AA2" unicode="&#xaa2;" horiz-adv-x="1118" 
d="M268 957l-77 216q181 61 344 61q187 0 286 -75t99 -212q0 -80 -29 -136t-100 -109t-218 -122q-96 -45 -143.5 -77.5t-66.5 -64t-19 -78.5q0 -54 35.5 -95t102.5 -57q-20 63 -20 121q0 111 90 182t229 71q144 0 230 -78.5t86 -203.5q0 -151 -127 -235.5t-352 -84.5
q-254 0 -401 103.5t-147 276.5q0 133 78 226.5t270 180.5q137 62 182 94t45 77q0 34 -30.5 51t-85.5 17q-60 0 -130 -12.5t-131 -36.5zM691 200q172 8 172 106q0 34 -22 54t-63 20q-46 0 -74.5 -24.5t-28.5 -69.5q0 -48 16 -86zM609 0zM548 1234zM559 0zM420 1234zM708 208z
M433 808z" />
    <glyph glyph-name="uni0AA3" unicode="&#xaa3;" horiz-adv-x="1848" 
d="M138 1234l275 -22v-574q0 -91 4 -125t21 -62.5t59.5 -54t208.5 -94.5q110 -46 179.5 -87t104 -79.5t48.5 -76.5t14 -96q0 -67 -28 -129.5t-119 -160.5l-208 152q33 28 48.5 57t15.5 50q0 30 -15 53t-62.5 51t-166.5 79q-149 63 -219 103.5t-102.5 82.5t-45 98t-12.5 169
v666zM1406 1234l275 -22v-829q0 -72 14 -101t40.5 -39t104.5 -10l-20 -233h-55q-107 0 -176.5 21.5t-109.5 67t-56.5 109t-16.5 164.5v872zM495 664l188 120q51 -80 96 -113t96 -33q70 0 99.5 40.5t29.5 132.5q0 99 -38.5 147.5t-119.5 48.5q-45 0 -84 -8t-100 -33l-79 204
q146 64 303 64q182 0 287 -115t105 -313q0 -194 -97.5 -297t-268.5 -103q-129 0 -235 65.5t-182 192.5zM950 -548zM857 23z" />
    <glyph glyph-name="uni0AA4" unicode="&#xaa4;" horiz-adv-x="1274" 
d="M832 676h-211q-106 0 -157 -11t-83.5 -44t-32.5 -86q0 -71 56 -149t185 -188l-186 -174q-177 157 -255 285.5t-78 259.5q0 102 49 178.5t146 119t301 42.5h266v325l275 -22v-829q0 -51 8 -80.5t26 -45t42 -20t83 -4.5l-20 -233h-55q-142 0 -214 35.5t-108.5 108
t-36.5 218.5v314zM492 257z" />
    <glyph glyph-name="uni0AA5" unicode="&#xaa5;" horiz-adv-x="1411" 
d="M969 369q-149 -92 -345 -92q-195 0 -334 98.5t-207 287.5q196 53 308 131t112 167q0 37 -21 60t-62 23q-37 0 -58.5 -19.5t-21.5 -51.5q0 -51 54 -92l-216 -110q-104 82 -104 214q0 105 92.5 177t248.5 72q172 0 260.5 -75.5t88.5 -198.5q0 -253 -325 -396
q78 -54 198 -54q91 0 178 36.5t154 107.5v580l275 -22v-829q0 -51 8 -80.5t26 -45t42 -20t83 -4.5l-20 -233h-55q-142 0 -214 35.5t-108.5 108t-36.5 218.5v7zM83 437z" />
    <glyph glyph-name="uni0AA6" unicode="&#xaa6;" horiz-adv-x="1037" 
d="M686 984q-89 17 -163 17q-175 0 -175 -113q0 -85 97 -149q98 27 213 27q75 0 157 -17l-42 -227q-72 12 -129 12q-107 0 -165 -41.5t-58 -124.5q0 -72 58.5 -116.5t158.5 -44.5q45 0 88 9v18q0 69 42 108.5t115 39.5q72 0 115.5 -45t43.5 -111q0 -115 -104 -180.5
t-291 -65.5q-239 0 -371 104.5t-132 279.5q0 145 85 245q-77 66 -118 141t-41 164q0 151 106 235.5t301 84.5q131 0 254 -27zM597 0zM484 1234zM346 1234z" />
    <glyph glyph-name="uni0AA7" unicode="&#xaa7;" horiz-adv-x="1329" 
d="M1162 1213v-830q0 -51 8 -80.5t26 -45t42 -20t83 -4.5l-20 -233h-55q-197 0 -275 76.5t-83 229.5q-80 -53 -160.5 -74.5t-186.5 -21.5q-166 0 -276 89t-110 235q0 94 47 165q-132 112 -132 260q0 260 394 373l100 -225q-102 -26 -161 -61.5t-59 -96.5q0 -69 62 -114
q63 17 139 17q82 0 157 -17l-35 -222q-52 11 -113 11q-66 0 -98.5 -23.5t-32.5 -64.5q0 -95 151 -95q158 0 313 141v652zM614 1099z" />
    <glyph glyph-name="uni0AA8" unicode="&#xaa8;" horiz-adv-x="1249" 
d="M807 608h-325v-61q0 -82 -33 -121.5t-102 -39.5q-60 0 -133.5 50.5t-122 125t-48.5 137.5q0 74 36.5 108t107.5 34h620v393l275 -22v-829q0 -51 8 -80.5t26 -45t42 -20t83 -4.5l-20 -233h-55q-142 0 -214 35.5t-108.5 108t-36.5 218.5v246z" />
    <glyph glyph-name="uni0AAA" unicode="&#xaaa;" horiz-adv-x="1245" 
d="M803 381q-115 -60 -253 -60q-128 0 -213.5 47.5t-125 129.5t-39.5 245v86q0 51 -8 81t-26.5 45.5t-42.5 19.5t-82 4l20 233h55q110 0 180 -22.5t109 -71t54.5 -110t15.5 -159.5v-88q0 -85 12.5 -126t44 -61t86.5 -20q110 0 213 92v588l275 -22v-829q0 -51 8 -80.5t26 -45
t42 -20t83 -4.5l-20 -233h-55q-108 0 -178 21.5t-110 69t-55.5 104.5t-15.5 155v31z" />
    <glyph glyph-name="uni0AAB" unicode="&#xaab;" horiz-adv-x="1108" 
d="M66 604l251 84q-70 55 -104.5 116t-34.5 128q0 137 119.5 219.5t322.5 82.5q138 0 238 -25l-46 -223q-89 19 -180 19q-175 0 -175 -99q0 -33 26 -63t92 -66l410 149l97 -222l-260 -85q98 -61 141 -134.5t43 -167.5q0 -139 -99 -227t-289 -105q43 -38 94 -56.5t138 -18.5
h43l-27 -240h-46q-172 0 -296.5 81.5t-232.5 242.5q-111 18 -166.5 64.5t-55.5 130.5q0 55 40.5 92.5t104.5 37.5q57 0 107.5 -23.5t108.5 -80.5q31 -5 79 -5q101 0 158.5 34.5t57.5 96.5q0 59 -50.5 103t-131.5 79l-386 -139zM584 1234zM431 1234zM690 -548zM1105 693z
M67 617zM733 -21z" />
    <glyph glyph-name="uni0AAC" unicode="&#xaac;" horiz-adv-x="1633" 
d="M1191 485q-57 -31 -136 -31q-86 0 -141 38q-48 -94 -142.5 -140.5t-244.5 -46.5q-207 0 -332 115.5t-125 310.5q0 185 126.5 317.5t357.5 185.5l64 -236q-270 -67 -270 -265q0 -97 46 -146t136 -49q62 0 99.5 24.5t53 67.5t15.5 150v146l275 -22v-173q24 -44 83 -44
q76 0 135 56v491l275 -22v-829q0 -51 8 -80.5t26 -45t42 -20t83 -4.5l-20 -233h-55q-142 0 -214 35.5t-108.5 108t-36.5 218.5v123z" />
    <glyph glyph-name="uni0AAD" unicode="&#xaad;" horiz-adv-x="1763" 
d="M751 770v16q0 215 -173 215q-110 0 -170 -67.5t-60 -177.5q0 -131 65.5 -244.5t207.5 -234.5l-186 -174q-191 174 -278 334.5t-87 329.5q0 134 62.5 241.5t176 166.5t255.5 59q224 0 341 -117.5t120 -346.5h296v464l275 -22v-829q0 -51 8 -80.5t26 -45t42 -20t83 -4.5
l-20 -233h-55q-142 0 -214 35.5t-108.5 108t-36.5 218.5v177h-295v-39q0 -82 -34 -122.5t-109 -40.5q-55 0 -127.5 50t-120.5 122t-48 132q0 67 36 98t109 31h19zM605 336z" />
    <glyph glyph-name="uni0AAE" unicode="&#xaae;" horiz-adv-x="1291" 
d="M849 429h-333v-39q0 -82 -34 -122.5t-109 -40.5q-55 0 -127.5 50t-120.5 122t-48 132q0 67 36 98t109 31h20v169q0 51 -8 81t-26.5 45.5t-42.5 19.5t-82 4l20 233h55q105 0 173 -20t106.5 -61t58.5 -99.5t20 -173.5v-198h333v574l275 -22v-829q0 -51 8 -80.5t26 -45
t42 -20t83 -4.5l-20 -233h-55q-142 0 -214 35.5t-108.5 108t-36.5 218.5v67z" />
    <glyph glyph-name="uni0AAF" unicode="&#xaaf;" horiz-adv-x="1328" 
d="M886 393q-122 -72 -286 -72q-190 0 -319.5 100t-198.5 300q132 31 194.5 77t62.5 111q0 48 -34 73.5t-99 25.5q-61 0 -121 -18l-57 215q90 29 197 29q185 0 285.5 -87.5t100.5 -236.5q0 -93 -43 -163.5t-135 -127.5q68 -65 175 -65q80 0 146.5 30.5t131.5 96.5v553
l275 -22v-829q0 -51 8 -80.5t26 -45t42 -20t83 -4.5l-20 -233h-55q-142 0 -214 35.5t-108.5 108t-36.5 218.5v31zM82 495z" />
    <glyph glyph-name="uni0AB0" unicode="&#xab0;" horiz-adv-x="976" 
d="M918 0q-204 0 -337 84.5t-262 264.5l-20 -1q-107 -5 -173 37.5t-66 129.5q0 69 46 108.5t128 39.5q86 0 164 -61q96 32 150.5 91t54.5 135q0 83 -55.5 128t-161.5 45q-136 0 -251 -52l-77 216q167 69 360 69q211 0 338.5 -108t127.5 -297q0 -137 -78 -248.5t-219 -173.5
q61 -64 116.5 -100.5t106.5 -51.5t119 -15h45l-18 -240h-38zM532 0zM478 1234zM488 0zM340 1234zM859 581z" />
    <glyph glyph-name="uni0AB2" unicode="&#xab2;" horiz-adv-x="1438" 
d="M900 252q-60 -27 -139.5 -42.5t-154.5 -15.5q-254 0 -395 130.5t-141 363.5q0 208 151.5 351t435.5 195l66 -239q-191 -36 -283 -114.5t-92 -204.5q0 -119 72.5 -184t201.5 -65q102 0 182 35zM996 649l-410 -84l-57 231l467 92v346l275 -22v-829q0 -51 8 -80.5t26 -45
t42 -20t83 -4.5l-20 -233h-55q-142 0 -214 35.5t-108.5 108t-36.5 218.5v287z" />
    <glyph glyph-name="uni0AB3" unicode="&#xab3;" horiz-adv-x="1639" 
d="M1197 774q0 87 -10 129t-35.5 62t-65.5 20q-52 0 -78.5 -33.5t-26.5 -144.5v-40q0 -189 -48 -291t-144.5 -155.5t-252.5 -53.5q-210 0 -338 122t-128 329q0 185 127 322.5t357 193.5l64 -236q-270 -74 -270 -282q0 -106 48.5 -161t136.5 -55q70 0 108 29t52 79.5
t14 145.5v45q0 155 35.5 234.5t115.5 129t222 49.5q130 0 217 -49.5t131 -137t44 -249.5v-393q0 -51 8 -80.5t26 -45t42 -20t83 -4.5l-20 -233h-55q-142 0 -214 35.5t-108.5 108t-36.5 218.5v412zM1034 1234z" />
    <glyph glyph-name="uni0AB5" unicode="&#xab5;" horiz-adv-x="1268" 
d="M826 406q-133 -85 -311 -85q-199 0 -322 107.5t-123 291.5q0 181 126.5 288.5t334.5 107.5q101 0 209 -16l-23 -230q-54 13 -150 13q-107 0 -164 -44.5t-57 -125.5q0 -78 47.5 -118.5t134.5 -40.5q83 0 153 29t145 96v555l275 -21v-830q0 -51 8 -80.5t26 -45t42 -20
t83 -4.5l-20 -233h-55q-142 0 -214 35.5t-108.5 107.5t-36.5 219v44z" />
    <glyph glyph-name="uni0AB6" unicode="&#xab6;" horiz-adv-x="1522" 
d="M455 659q-342 65 -342 306q0 121 95 195t260 74q206 0 328.5 -108.5t122.5 -300.5q0 -152 -88 -270.5t-250 -180.5q71 -73 135.5 -103.5t147.5 -30.5h35l-27 -240h-46q-157 0 -278 77.5t-243 243.5l-19 -1q-52 -3 -110 10.5t-93.5 53.5t-35.5 103q0 69 48 108.5t130 39.5
q89 0 182 -75q115 34 179 109.5t64 174.5q0 86 -53 136t-131 50q-100 0 -100 -74q0 -83 168 -113zM1080 1234l275 -22v-829q0 -51 8 -80.5t26 -45t42 -20t83 -4.5l-20 -233h-55q-142 0 -214 35.5t-108.5 108t-36.5 218.5v872zM596 553z" />
    <glyph glyph-name="uni0AB7" unicode="&#xab7;" horiz-adv-x="1260" 
d="M818 391q-126 -70 -275 -70q-127 0 -212 49t-122 130.5t-37 242.5v95q0 81 -18.5 105t-41.5 30t-99 6l20 233h55q164 0 243 -52l425 -285q28 -19 62 -46v405l275 -22v-829q0 -51 8 -80.5t26 -45t42 -20t83 -4.5l-20 -233h-55q-108 0 -178 21.5t-110 69t-55.5 104.5
t-15.5 155v41zM447 761q0 -85 12.5 -126t44 -61t86.5 -20q123 0 225 86l-193 129q-85 56 -180 134q5 -45 5 -108v-34zM869 873zM874 407z" />
    <glyph glyph-name="uni0AB8" unicode="&#xab8;" horiz-adv-x="1552" 
d="M1110 553q-78 -41 -182 -41q-99 0 -178 34q-73 -86 -173 -133q62 -67 118.5 -104.5t107 -53t121.5 -15.5h45l-18 -240h-38q-204 0 -337 84.5t-262 264.5l-20 -1q-107 -5 -173 37.5t-66 129.5q0 69 46 108.5t128 39.5q84 0 162 -59q84 32 130.5 90t46.5 134
q0 84 -52.5 128.5t-150.5 44.5q-127 0 -235 -52l-77 216q164 69 353 69q199 0 321 -108.5t122 -296.5q0 -33 -7 -77q39 -11 87 -11q105 0 181 66v427l275 -22v-829q0 -51 8 -80.5t26 -45t42 -20t83 -4.5l-20 -233h-55q-142 0 -214 35.5t-108.5 108t-36.5 218.5v191zM459 581
z" />
    <glyph glyph-name="uni0AB9" unicode="&#xab9;" horiz-adv-x="1361" 
d="M602 699q67 -83 144.5 -126.5t156.5 -43.5q101 0 101 69q0 26 -22 47.5t-109 49.5q-293 95 -293 288q0 117 94 184t267 67q100 0 214 -22l-43 -201q-79 22 -175 22q-50 0 -73.5 -12t-23.5 -38q0 -25 22.5 -41.5t96.5 -39.5q164 -51 236.5 -122t72.5 -194
q0 -119 -96.5 -192t-256.5 -73q-298 0 -496 253zM413 863q-67 -133 -67 -267q0 -178 132 -282.5t369 -104.5q239 0 411 88l112 -218q-253 -98 -526 -98q-239 0 -412.5 76t-265.5 220t-92 328q0 187 87 358zM742 0zM868 1234zM730 1234z" />
    <glyph glyph-name="uni0ABC" unicode="&#xabc;" 
d="M-509 -122q63 0 106.5 -43.5t43.5 -109.5t-43.5 -109.5t-106.5 -43.5t-106.5 43.5t-43.5 109.5t43.5 109.5t106.5 43.5zM-509 0z" />
    <glyph glyph-name="uni0ABD" unicode="&#xabd;" horiz-adv-x="1029" 
d="M934 979h-319q-34 0 -53 -2.5t-28.5 -12.5t-9.5 -24q0 -30 32 -64t157 -133q147 -116 196.5 -200t49.5 -195q0 -140 -99 -220.5t-274 -80.5q-354 0 -575 317l214 127q153 -211 333 -211q124 0 124 88q0 28 -11 50.5t-46.5 58.5t-116.5 102q-142 116 -200.5 197t-58.5 174
q0 119 93.5 190.5t312.5 71.5h279v-233z" />
    <glyph glyph-name="uni0ABE" unicode="&#xabe;" horiz-adv-x="599" 
d="M157 1234l275 -22v-829q0 -51 8 -80.5t26 -45t42 -20t83 -4.5l-20 -233h-55q-142 0 -214 35.5t-108.5 108t-36.5 218.5v872z" />
    <glyph glyph-name="uni0ABF" unicode="&#xabf;" horiz-adv-x="599" 
d="M432 383q0 -51 8 -80.5t26 -45t42 -20t83 -4.5l-20 -233h-55q-142 0 -213.5 35t-108.5 108.5t-37 219.5v915q0 163 27 259t96 165t164 101.5t223 32.5q183 0 351.5 -84t368.5 -281l-194 -160q-150 155 -270 223t-238 68q-96 0 -151 -36t-78.5 -105.5t-23.5 -235.5v-842z
M1157 1234zM1353 1544z" />
    <glyph glyph-name="uni0AC0" unicode="&#xac0;" horiz-adv-x="599" 
d="M-185 1313h-271q-19 98 -19 185q0 158 96 248t270 90q206 0 341 -143t200 -428v-882q0 -51 8 -80.5t26 -45t42 -20t83 -4.5l-20 -233h-55q-142 0 -213.5 35t-108.5 108.5t-37 219.5v881q-55 212 -111.5 287t-133.5 75q-52 0 -82 -39.5t-30 -108.5q0 -59 15 -145z
M-13 1234z" />
    <glyph glyph-name="uni0AC1" unicode="&#xac1;" 
d="M-563 15q122 46 236 46q162 0 256.5 -85.5t94.5 -223.5q0 -134 -99.5 -217t-271.5 -83q-190 0 -346.5 77.5t-319.5 262.5l187 134q124 -140 231 -204t231 -64q72 0 109.5 26.5t37.5 75.5q0 46 -31.5 70.5t-89.5 24.5q-73 0 -155 -34zM-442 0zM-986 -280z" />
    <glyph glyph-name="uni0AC2" unicode="&#xac2;" 
d="M-180 -502q-122 -46 -236 -46q-157 0 -254 85t-97 212q0 141 100.5 226.5t270.5 85.5q187 0 343 -97t323 -330l-199 -120q-112 180 -221 260.5t-229 80.5q-70 0 -108.5 -26.5t-38.5 -75.5q0 -47 31.5 -71t89.5 -24q73 0 155 34zM-442 0zM251 -280z" />
    <glyph glyph-name="uni0AC3" unicode="&#xac3;" 
d="M86 -477q-143 -71 -313 -71q-158 0 -259 85t-101 219q0 150 107 237.5t313 100.5v-209q-179 -19 -179 -125q0 -102 129 -102q53 0 103.5 15t120.5 49zM-442 0z" />
    <glyph glyph-name="uni0AC4" unicode="&#xac4;" 
d="M177 -735q-140 -71 -307 -71q-155 0 -254.5 75.5t-99.5 193.5q0 64 24 115q-112 77 -112 203q0 132 105 211t300 90v-197q-84 -10 -124 -33t-40 -68q0 -81 125 -81q56 0 106.5 15.5t115.5 48.5l73 -184q-140 -71 -307 -71h-9q-16 -20 -16 -46q0 -39 28.5 -60t96.5 -21
q55 0 105 15t117 49zM-442 0z" />
    <glyph glyph-name="uni0AC5" unicode="&#xac5;" 
d="M-99 1340q-81 -27 -182 -27q-166 0 -300 78.5t-300 289.5l190 125q118 -148 202 -203.5t206 -55.5q66 0 112 17zM-442 1234zM-445 1836zM-841 1600z" />
    <glyph glyph-name="uni0AC7" unicode="&#xac7;" 
d="M-434 1313q-32 155 -85.5 222t-154.5 67q-63 0 -116 -16l-73 221q95 29 208 29q96 0 161 -24.5t121.5 -82t104.5 -165t83 -251.5h-249zM-442 1234z" />
    <glyph glyph-name="uni0AC8" unicode="&#xac8;" 
d="M-1068 1585q83 27 192 27q113 0 204 -35t250 -155q-30 113 -72 158.5t-116 45.5q-56 0 -111 -17l-68 198q94 29 195 29q100 0 160 -22t112 -75.5t91 -160.5t63 -265h-230l-10 49q-4 24 -10 45l-101 -139q-127 82 -197.5 107t-153.5 25q-70 0 -126 -19zM-442 1234z" />
    <glyph glyph-name="uni0AC9" unicode="&#xac9;" horiz-adv-x="599" 
d="M157 1234l275 -22v-829q0 -51 8 -80.5t26 -45t42 -20t83 -4.5l-20 -233h-55q-142 0 -214 35.5t-108.5 108t-36.5 218.5v872zM500 1340q-81 -27 -182 -27q-166 0 -300 78.5t-300 289.5l190 125q118 -148 202 -203.5t206 -55.5q66 0 112 17zM157 1234zM154 1836zM-242 1600
z" />
    <glyph glyph-name="uni0ACB" unicode="&#xacb;" horiz-adv-x="599" 
d="M157 1234l275 -22v-829q0 -51 8 -80.5t26 -45t42 -20t83 -4.5l-20 -233h-55q-142 0 -214 35.5t-108.5 108t-36.5 218.5v872zM165 1313q-32 155 -85.5 222t-154.5 67q-63 0 -116 -16l-73 221q95 29 208 29q96 0 161 -24.5t121.5 -82t104.5 -165t83 -251.5h-249zM157 1234z
" />
    <glyph glyph-name="uni0ACC" unicode="&#xacc;" horiz-adv-x="599" 
d="M157 1234l275 -22v-829q0 -51 8 -80.5t26 -45t42 -20t83 -4.5l-20 -233h-55q-142 0 -214 35.5t-108.5 108t-36.5 218.5v872zM-469 1585q83 27 192 27q113 0 204 -35t250 -155q-30 113 -72 158.5t-116 45.5q-56 0 -111 -17l-68 198q94 29 195 29q100 0 160 -22t112 -75.5
t91 -160.5t63 -265h-230l-10 49q-4 24 -10 45l-101 -139q-127 82 -197.5 107t-153.5 25q-70 0 -126 -19zM157 1234z" />
    <glyph glyph-name="uni0ACD" unicode="&#xacd;" 
d="M-429 -82q81 27 182 27q166 0 300 -78.5t300 -289.5l-190 -125q-118 149 -202.5 204t-205.5 55q-66 0 -112 -17zM-442 0zM323 -342z" />
    <glyph glyph-name="uni0AD0" unicode="&#xad0;" horiz-adv-x="2014" 
d="M1022 345q0 -169 -123.5 -267t-330.5 -98q-169 0 -306.5 78.5t-250.5 238.5l214 127q155 -211 347 -211q83 0 127.5 37.5t44.5 106.5q0 90 -100 172q-105 -29 -226 -39l-48 228q346 22 346 169q0 60 -44 88t-134 28q-65 0 -123.5 -10.5t-136.5 -38.5l-74 213
q174 67 367 67q202 0 311 -89t109 -250q0 -71 -26.5 -131t-78.5 -109q30 -28 66 -28q40 0 74.5 27.5t77.5 90.5l55 79q69 99 125 145t123 67.5t157 21.5q172 0 278.5 -103t106.5 -281q0 -197 -107 -302.5t-308 -105.5q-184 0 -320 111l152 173q69 -54 153 -54q76 0 115.5 43
t39.5 128q0 76 -30.5 117.5t-88.5 41.5q-43 0 -79.5 -24.5t-86.5 -97.5l-42 -63q-58 -87 -103.5 -133t-100.5 -70t-127 -25q6 -33 6 -68zM1032 1836q57 0 97 -39.5t40 -94.5q0 -56 -40 -95t-97 -39t-97 39.5t-40 94.5t39.5 94.5t97.5 39.5zM550 1633l215 79
q49 -113 113 -163.5t154 -50.5t155.5 51.5t111.5 162.5l215 -79q-73 -173 -190.5 -259t-291.5 -86q-173 0 -292 87.5t-190 257.5z" />
    <glyph glyph-name="uni0AE0" unicode="&#xae0;" horiz-adv-x="1992" 
d="M1402 606q-63 0 -135.5 18.5t-135.5 53.5v-295q0 -51 8 -80.5t26 -45t42 -20t83 -4.5l-20 -233h-55q-142 0 -214 35.5t-108.5 108t-36.5 218.5v213l-519 -347l-151 229l456 260q-68 83 -140 125.5t-162 42.5q-60 0 -115.5 -15t-117.5 -46l-87 217q96 42 171.5 60.5
t154.5 18.5q100 0 175.5 -25.5t151.5 -87t171 -175.5l12 7v395l275 -22v-276q59 -53 123 -79t123 -26h22q-9 30 -9 52q0 76 48.5 118.5t130.5 42.5q90 0 143 -53t53 -138q0 -92 -54 -155q52 -100 101 -263q-94 -9 -145.5 -38.5t-51.5 -88.5q0 -102 129 -102q53 0 103.5 15
t120.5 49l79 -199q-143 -71 -313 -71q-158 0 -259 85t-101 219q0 172 153 257q-5 12 -23 51q-48 -6 -102 -6zM1031 0z" />
    <glyph glyph-name="uni0AE1" unicode="&#xae1;" horiz-adv-x="1540" 
d="M944 181q0 99 58 168.5t170 103.5q19 54 19 100q0 74 -31.5 111.5t-90.5 37.5q-73 0 -136 -66.5t-97 -194.5l-255 78q18 68 44 125q-72 56 -143 56q-61 0 -97.5 -34.5t-36.5 -92.5q0 -73 57.5 -151.5t183.5 -185.5l-186 -174q-178 157 -255.5 285t-77.5 256
q0 156 99.5 241.5t256.5 85.5q100 0 178 -24t156 -79q72 59 173 85v322l275 -22v-297q122 -33 189.5 -123.5t67.5 -220.5q0 -84 -15.5 -143.5t-55.5 -139.5q-100 -3 -154.5 -27.5t-54.5 -76.5q0 -81 125 -81q56 0 106.5 15.5t115.5 48.5l73 -184q-140 -71 -307 -71h-10
q-15 -21 -15 -46q0 -39 28.5 -60t96.5 -21q55 0 105 15t117 49l73 -184q-140 -71 -307 -71q-155 0 -254.5 75.5t-99.5 193.5q0 64 24 115q-112 76 -112 203zM681 0zM926 -548zM478 295z" />
    <glyph glyph-name="uni0AE2" unicode="&#xae2;" 
d="M194 -751q-118 -55 -251 -55q-126 0 -207 64t-81 165q0 83 51 142.5t148 88.5q9 32 9 60q0 56 -25.5 85t-71.5 29q-59 0 -108.5 -52t-76.5 -149l-217 60q16 58 35 98q-55 42 -113 42q-48 0 -76.5 -27.5t-28.5 -72.5q0 -42 17 -81t61 -88.5t122 -111.5l-162 -151
q-143 131 -207.5 235.5t-64.5 208.5q0 134 83.5 207t209.5 73q76 0 139 -19.5t132 -64.5q105 84 271 84q142 0 227.5 -77.5t85.5 -208.5q0 -99 -48 -202q-92 -7 -139.5 -33t-47.5 -63q0 -74 99 -74q75 0 172 49zM-442 0zM-738 -514z" />
    <glyph glyph-name="uni0AE3" unicode="&#xae3;" 
d="M365 -756q-115 -50 -251 -50q-127 0 -207.5 55.5t-80.5 141.5q0 34 12 64q-115 56 -115 161q0 112 122 174q-25 38 -79 38q-59 0 -108.5 -52t-76.5 -149l-217 60q16 58 35 98q-55 42 -113 42q-50 0 -77.5 -27t-27.5 -73q0 -42 17 -81t61 -88.5t122 -111.5l-162 -151
q-143 131 -207.5 235.5t-64.5 207.5q0 135 83.5 208t210.5 73q76 0 138.5 -19.5t131.5 -64.5q105 84 271 84q142 0 227.5 -77.5t85.5 -208.5v-11q0 -6 -1 -12q-166 -12 -166 -81q0 -64 99 -64q75 0 172 49l63 -145q-112 -47 -229 -50q-2 -5 -2 -15q0 -64 99 -64q75 0 172 49
zM-442 0zM-747 -514z" />
    <glyph glyph-name="uni0AE6" unicode="&#xae6;" horiz-adv-x="1168" 
d="M585 171q-220 0 -353.5 124.5t-133.5 331.5q0 130 60.5 233.5t172 161.5t252.5 58q222 0 354 -123.5t132 -332.5q0 -134 -61 -237.5t-172.5 -159.5t-250.5 -56zM588 846q-97 0 -154.5 -60.5t-57.5 -163.5q0 -100 55.5 -158.5t148.5 -58.5q95 0 153 61.5t58 163.5
q0 100 -54 158t-149 58zM607 1234z" />
    <glyph glyph-name="uni0AE7" unicode="&#xae7;" horiz-adv-x="1168" 
d="M941 383q0 -51 8 -80.5t26 -45t42 -20t83 -4.5l-20 -233h-55q-142 0 -214 35.5t-108.5 108t-36.5 218.5v186q-65 -18 -140 -18q-185 0 -289 95.5t-104 260.5q0 150 110.5 249t293.5 99q137 0 230 -52.5t133.5 -145t40.5 -248.5v-405zM666 779v20q0 121 -34.5 165
t-101.5 44q-59 0 -94.5 -33t-35.5 -91q0 -61 37 -94.5t100 -33.5q76 0 129 23z" />
    <glyph glyph-name="uni0AE8" unicode="&#xae8;" horiz-adv-x="1168" 
d="M413 349l-21 -1q-111 -5 -176 38t-65 129q0 69 46 108.5t128 39.5q86 0 164 -61q96 32 150.5 91t54.5 135q0 83 -55.5 128t-161.5 45q-136 0 -251 -52l-77 216q167 69 360 69q211 0 338.5 -108t127.5 -297q0 -138 -80 -251t-228 -175q43 -61 83 -99.5t76.5 -54.5
t86.5 -16q82 0 151 39l87 -218q-112 -54 -242 -54q-131 0 -216 42t-153 120.5t-127 186.5zM560 581z" />
    <glyph glyph-name="uni0AE9" unicode="&#xae9;" horiz-adv-x="1168" 
d="M1048 345q0 -169 -123.5 -267t-330.5 -98q-169 0 -306.5 78.5t-250.5 238.5l214 127q155 -211 347 -211q83 0 127.5 37.5t44.5 106.5q0 90 -100 172q-105 -29 -226 -39l-48 228q173 11 259.5 53t86.5 116q0 60 -44 88t-134 28q-65 0 -123.5 -10.5t-136.5 -38.5l-74 213
q174 67 367 67q202 0 311 -89t109 -250q0 -74 -28 -135.5t-84 -110.5q71 -64 107 -140t36 -164z" />
    <glyph glyph-name="uni0AEA" unicode="&#xaea;" horiz-adv-x="1168" 
d="M202 1234q119 -97 215 -181t169 -154q84 83 176.5 166.5t193.5 168.5l183 -192q-111 -87 -206 -165.5t-174 -148.5q97 -101 142.5 -195t45.5 -214q0 -154 -99.5 -246.5t-279.5 -92.5q-178 0 -280 92.5t-102 242.5q0 68 19 127t67.5 125.5t138.5 158.5q-97 88 -191.5 167
t-187.5 149zM578 562q-69 -69 -96.5 -120t-27.5 -107q0 -60 29.5 -94.5t82.5 -34.5t83 34t30 90q0 65 -25 118.5t-76 113.5zM165 1001z" />
    <glyph glyph-name="uni0AEB" unicode="&#xaeb;" horiz-adv-x="1168" 
d="M731 374q-101 -53 -224 -53q-121 0 -200.5 46t-116 124.5t-36.5 231.5v106q0 46 -6.5 75.5t-21.5 44.5t-36 22.5t-70 7.5l20 233h30q110 0 180 -22.5t109 -71t54.5 -110t15.5 -159.5v-105q0 -84 12 -119t39 -53t80 -18q87 0 171 78v602l275 -22v-829q0 -51 8 -80.5
t25 -44.5t40.5 -20t68.5 -5l-20 -233h-38q-108 0 -178 21.5t-110 69t-55.5 104.5t-15.5 155v24z" />
    <glyph glyph-name="uni0AEC" unicode="&#xaec;" horiz-adv-x="1168" 
d="M309 625q-144 132 -144 289q0 147 110.5 233.5t311.5 86.5q144 0 284 -29l-45 -223q-111 19 -195 19q-95 0 -141.5 -27.5t-46.5 -85.5q0 -70 67 -127q101 37 224 37q108 0 192 -18l-42 -227q-82 13 -155 13q-213 0 -213 -134q0 -61 56.5 -106t171.5 -80q171 -51 255 -128
t84 -203q0 -72 -33 -138t-114 -152l-207 152q63 63 63 107q0 28 -14.5 49t-63.5 47t-152 64q-175 65 -249 156t-74 232q0 105 70 193zM826 -548zM879 239z" />
    <glyph glyph-name="uni0AED" unicode="&#xaed;" horiz-adv-x="1168" 
d="M39 538l269 37q37 -187 103 -274t182 -87t164.5 91t48.5 302q0 177 -53.5 287t-146.5 110q-57 0 -86.5 -28t-29.5 -79q0 -67 64 -102.5t207 -45.5v-231q-266 7 -405 109.5t-139 287.5q0 143 99.5 231t278.5 88q141 0 252 -73t174.5 -221.5t63.5 -357.5q0 -601 -464 -601
q-249 0 -384.5 138.5t-197.5 418.5z" />
    <glyph glyph-name="uni0AEE" unicode="&#xaee;" horiz-adv-x="1168" 
d="M826 1236l202 -209l-486 -443q-95 -87 -123 -130.5t-28 -96.5q0 -68 50.5 -105.5t141.5 -37.5q84 0 171.5 26.5t193.5 85.5l108 -216q-156 -80 -264 -105t-234 -25q-199 0 -322 101.5t-123 282.5q0 120 63.5 220.5t195.5 225.5zM907 1003z" />
    <glyph glyph-name="uni0AEF" unicode="&#xaef;" horiz-adv-x="1168" 
d="M832 998q-231 -67 -337 -167.5t-106 -274.5q0 -164 94.5 -253t255.5 -89q154 0 289 54l94 -221q-183 -67 -391 -67q-194 0 -335.5 73.5t-215 205.5t-73.5 304q0 245 167.5 420t486.5 251zM1079 545l-499 -129l-68 246l502 123z" />
    <glyph glyph-name="uni0AF0" unicode="&#xaf0;" horiz-adv-x="812" 
d="M407 0q-145 0 -240 87.5t-95 228.5q0 137 93.5 225.5t241.5 88.5q144 0 238.5 -87.5t94.5 -226.5q0 -138 -94.5 -227t-238.5 -89zM406 446q-61 0 -99 -37t-38 -93q0 -58 39 -95t98 -37q60 0 98.5 37.5t38.5 94.5q0 56 -38.5 93t-98.5 37zM440 1234z" />
    <glyph glyph-name="uni0AF1" unicode="&#xaf1;" horiz-adv-x="1759" 
d="M1354 0q-145 0 -240 87.5t-95 228.5q0 137 93.5 225.5t241.5 88.5q144 0 238.5 -87.5t94.5 -226.5q0 -138 -94.5 -227t-238.5 -89zM1353 446q-61 0 -99 -37t-38 -93q0 -58 39 -95t98 -37q60 0 98.5 37.5t38.5 94.5q0 56 -38.5 93t-98.5 37zM1387 1234zM864 345
q0 -122 -69.5 -208t-202.5 -125q69 -79 120 -115.5t93 -47.5t98 -11h38l-18 -240h-38q-196 0 -318 90.5t-250 294.5q-128 6 -198 52t-70 130q0 70 46 109.5t129 39.5q58 0 106.5 -24.5t100.5 -73.5q76 11 115.5 51t39.5 104q0 84 -89 154q-93 -25 -211 -35l-48 228
q346 22 346 169q0 60 -44 88t-134 28q-65 0 -123.5 -10.5t-136.5 -38.5l-74 213q174 67 367 67q202 0 311 -89t109 -250q0 -157 -124 -257q129 -123 129 -293zM337 1234zM568 -548z" />
    <glyph glyph-name="uni200B" unicode="&#x200b;" 
 />
    <glyph glyph-name="uni200B" unicode="&#xfeff;" 
 />
    <glyph glyph-name="uni200C" unicode="&#x200c;" 
d="M-54 -339v1952h108v-1952h-108zM33 1836zM25 -548z" />
    <glyph glyph-name="uni200D" unicode="&#x200d;" 
d="M74 1323l225 -220l-75 -73l-170 169v-1537h-108v1537l-170 -169l-75 73l225 220l-225 217l75 73l224 -220l224 220l75 -74zM-43 1836zM36 -548z" />
    <glyph glyph-name="endash" unicode="&#x2013;" horiz-adv-x="1024" 
d="M82 496v230h860v-230h-860zM684 1212z" />
    <glyph glyph-name="emdash" unicode="&#x2014;" horiz-adv-x="2048" 
d="M82 496v230h1884v-230h-1884zM684 1212z" />
    <glyph glyph-name="quoteleft" unicode="&#x2018;" horiz-adv-x="666" 
d="M135 1014q50 197 176 479h220q-65 -266 -101 -501h-280zM528 1836zM584 1212z" />
    <glyph glyph-name="quoteright" unicode="&#x2019;" horiz-adv-x="666" 
d="M531 1471q-50 -197 -176 -479h-219q70 303 100 501h280zM498 1836zM554 1212z" />
    <glyph glyph-name="quotedblleft" unicode="&#x201c;" horiz-adv-x="1133" 
d="M603 1014q50 197 176 479h219q-70 -303 -100 -501h-280zM136 1014q50 197 176 479h220q-65 -266 -101 -501h-280zM528 1836zM584 1212z" />
    <glyph glyph-name="quotedblright" unicode="&#x201d;" horiz-adv-x="1133" 
d="M530 1471q-50 -197 -176 -479h-219q70 303 100 501h280zM997 1471q-50 -197 -176 -479h-220q65 266 101 501h280zM528 1836zM584 1212z" />
    <glyph glyph-name="ellipsis" unicode="&#x2026;" horiz-adv-x="1751" 
d="M293 313q81 0 127.5 -43t46.5 -127q0 -80 -47 -125t-127 -45q-83 0 -129.5 44.5t-46.5 125.5q0 85 46 127.5t130 42.5zM877 313q81 0 127.5 -43t46.5 -127q0 -80 -47 -125t-127 -45q-84 0 -130.5 44t-46.5 126q0 85 46 127.5t131 42.5zM1460 313q81 0 127.5 -43
t46.5 -127q0 -80 -47 -125t-127 -45q-83 0 -129.5 44.5t-46.5 125.5q0 85 46 127.5t130 42.5z" />
    <glyph glyph-name="uni20B9" unicode="&#x20b9;" horiz-adv-x="1168" 
d="M757 754q-24 -119 -105.5 -195t-221.5 -109l401 -450h-338l-369 435l38 196h53q151 0 200.5 34.5t67.5 88.5h-359v206h356q-16 39 -44.5 64t-68.5 34.5t-124 9.5h-119v206h932v-206h-387q46 -36 74 -108h313v-206h-299zM530 1212z" />
    <glyph glyph-name="minus" unicode="&#x2212;" horiz-adv-x="1168" 
d="M108 512v219h952v-219h-952zM530 1212z" />
    <glyph glyph-name="uni25CC" unicode="&#x25cc;" horiz-adv-x="1044" 
d="M581 995q0 -59 -60 -59q-58 0 -58 59q0 58 58 58q60 0 60 -58zM316 893q0 -59 -59 -59t-59 59t59 59t59 -59zM846 893q0 -59 -59 -59t-59 59t59 59t59 -59zM938 638q0 -59 -60 -59q-59 0 -59 59t59 59q60 0 60 -59zM224 638q0 -59 -59 -59t-59 59t59 59t59 -59zM316 383
q0 -59 -59 -59t-59 59t59 59t59 -59zM846 383q0 -59 -59 -59t-59 59t59 59t59 -59zM581 281q0 -59 -60 -59q-58 0 -58 59t58 59q60 0 60 -59z" />
    <glyph glyph-name="uniA830" unicode="&#xa830;" horiz-adv-x="583" 
d="M154 0v1212h275v-1212h-275z" />
    <glyph glyph-name="uniA831" unicode="&#xa831;" horiz-adv-x="1014" 
d="M585 0v1212h275v-1212h-275zM154 0v1212h275v-1212h-275z" />
    <glyph glyph-name="uniA832" unicode="&#xa832;" horiz-adv-x="1445" 
d="M585 0v1212h275v-1212h-275zM154 0v1212h275v-1212h-275zM1016 0v1212h275v-1212h-275z" />
    <glyph glyph-name="uniA833" unicode="&#xa833;" horiz-adv-x="1282" 
d="M73 967l1072 268l64 -248l-1071 -267z" />
    <glyph glyph-name="uniA834" unicode="&#xa834;" horiz-adv-x="1282" 
d="M73 967l1072 268l64 -248l-1071 -267zM73 608l1072 268l64 -248l-1071 -267z" />
    <glyph glyph-name="uniA835" unicode="&#xa835;" horiz-adv-x="1282" 
d="M73 967l1072 268l64 -248l-1071 -267zM73 608l1072 268l64 -248l-1071 -267zM73 250l1072 268l64 -248l-1071 -267z" />
    <glyph glyph-name="uniA836" unicode="&#xa836;" horiz-adv-x="974" 
d="M488 279q-101 0 -185 42t-133.5 121.5t-49.5 184.5q0 149 102.5 247t265.5 98q160 0 263 -96.5t103 -248.5q0 -100 -47 -179.5t-131.5 -124t-187.5 -44.5zM487 770q-70 0 -110.5 -41.5t-40.5 -101.5q0 -63 43 -104t108 -41q66 0 108.5 41t42.5 104q0 62 -42.5 102.5
t-108.5 40.5zM50 1212z" />
    <glyph glyph-name="uniA837" unicode="&#xa837;" horiz-adv-x="1076" 
d="M885 914q-111 -87 -218 -160q86 -43 131.5 -120t45.5 -177t-47 -179.5t-131.5 -124t-187.5 -44.5q-159 0 -263.5 96.5t-104.5 251.5q0 99 51.5 169.5t157.5 152.5l603 467l152 -183zM477 600q-68 0 -109.5 -40.5t-41.5 -102.5q0 -63 43 -104t108 -41q66 0 108.5 41
t42.5 104q0 62 -42.5 102.5t-108.5 40.5zM494 803zM1082 1043zM50 1212z" />
    <glyph glyph-name="uniA838" unicode="&#xa838;" horiz-adv-x="703" 
d="M-285 -213q96 -22 181 -22q148 0 239.5 58t135.5 182t44 339q0 189 -34.5 414.5t-95.5 439.5l276 37q62 -212 97 -459t35 -442q0 -316 -77.5 -482t-229.5 -241t-385 -75q-87 0 -202 22z" />
    <glyph glyph-name="uniA839" unicode="&#xa839;" horiz-adv-x="731" 
d="M-297 -272q38 -6 109 -6q168 0 285 39t177.5 115.5t60.5 182.5q0 87 -29 173t-84 193q-55 106 -84.5 193t-29.5 174q0 166 133.5 277.5t405.5 166.5l84 -235q-183 -37 -264.5 -90t-81.5 -133q0 -45 17.5 -97.5t97.5 -212.5q51 -105 82.5 -210.5t31.5 -217.5
q0 -256 -199 -403.5t-586 -147.5q-73 0 -130 6zM671 1005zM-171 -548z" />
    <glyph glyph-name="uni0A95_uni0ABC.nukt" horiz-adv-x="1108" 
d="M812 986q-89 19 -180 19q-175 0 -175 -99q0 -33 26 -63t92 -66l410 149l97 -222l-260 -85q98 -61 141 -134.5t43 -167.5q0 -154 -120.5 -246t-352.5 -92q-279 0 -495 133l130 199q104 -54 182 -75.5t159 -21.5q103 0 159.5 33.5t56.5 93.5q0 59 -50.5 103t-131.5 79
l-386 -139l-91 220l251 84q-70 55 -104.5 116t-34.5 128q0 137 119.5 219.5t322.5 82.5q138 0 238 -25zM567 0zM584 1234zM431 1234zM1105 693zM47 617zM554 -122q63 0 106.5 -43.5t43.5 -109.5t-43.5 -109.5t-106.5 -43.5t-106.5 43.5t-43.5 109.5t43.5 109.5t106.5 43.5z
M554 0z" />
    <glyph glyph-name="uni0A96_uni0ABC.nukt" horiz-adv-x="1661" 
d="M1219 549q-57 -31 -136 -31q-71 0 -121 26q-40 -115 -134 -169t-256 -54q-102 0 -178 25t-129 80t-73 126.5t-20 190.5v86q0 51 -8 81t-26.5 45.5t-42.5 19.5t-82 4l20 233h55q110 0 180 -22.5t109 -71t54.5 -110t15.5 -159.5v-112q0 -83 16 -117.5t46.5 -50t65.5 -15.5
q58 0 88.5 21t46.5 61t16 118v244l275 -22v-181q24 -44 83 -44q76 0 135 56v427l275 -22v-829q0 -51 8 -80.5t26 -45t42 -20t83 -4.5l-20 -233h-55q-142 0 -214 35.5t-108.5 108t-36.5 218.5v187zM608 189q63 0 106.5 -43.5t43.5 -109.5t-43.5 -109.5t-106.5 -43.5
t-106.5 43.5t-43.5 109.5t43.5 109.5t106.5 43.5z" />
    <glyph glyph-name="uni0A97_uni0ABC.nukt" horiz-adv-x="1462" 
d="M467 339q-140 0 -251.5 67.5t-204.5 211.5l202 120q56 -88 109.5 -125.5t117.5 -37.5q82 0 119 49t37 152q0 116 -45.5 171.5t-149.5 55.5q-108 0 -217 -48l-75 210q148 69 325 69q205 0 321 -123t116 -340q0 -211 -108 -321.5t-296 -110.5zM1020 1234l275 -22v-829
q0 -51 8 -80.5t26 -45t42 -20t83 -4.5l-20 -233h-55q-128 0 -204 31t-115.5 107.5t-39.5 223.5v872zM501 209q63 0 106.5 -43.5t43.5 -109.5t-43.5 -109.5t-106.5 -43.5t-106.5 43.5t-43.5 109.5t43.5 109.5t106.5 43.5z" />
    <glyph glyph-name="uni0A98_uni0ABC.nukt" horiz-adv-x="1349" 
d="M908 303q-81 -51 -165 -72t-189 -21q-173 0 -285.5 88.5t-112.5 235.5q0 93 47 164q-133 112 -133 260q0 128 101 202t280 74q124 0 223 -23l-45 -218q-52 13 -143 13q-74 0 -109.5 -22t-35.5 -59q0 -55 58 -92q70 19 147 19q82 0 157 -17l-35 -222q-52 11 -113 11
q-66 0 -98.5 -23.5t-32.5 -64.5q0 -95 151 -95q178 0 332 137v656l275 -21v-830q0 -51 8 -80.5t26 -45t42 -20t83 -4.5l-20 -233h-55q-196 0 -274 75.5t-84 227.5zM511 79q63 0 106.5 -43.5t43.5 -109.5t-43.5 -109.5t-106.5 -43.5t-106.5 43.5t-43.5 109.5t43.5 109.5
t106.5 43.5zM511 201z" />
    <glyph glyph-name="uni0A99_uni0ABC.nukt" horiz-adv-x="1112" 
d="M816 980q-101 26 -185 26q-133 0 -133 -75q0 -28 11.5 -47t45.5 -42t129 -73q179 -93 257.5 -187t78.5 -238q0 -164 -117.5 -264t-316.5 -100q-178 0 -319.5 77.5t-255.5 239.5l214 127q155 -211 347 -211q82 0 126 32.5t44 91.5q0 62 -45 109.5t-174 113.5
q-157 80 -229.5 164.5t-72.5 208.5q0 132 110 216.5t292 84.5q132 0 244 -24zM944 980q61 0 100.5 -41t39.5 -102q0 -62 -40 -103t-100 -41t-100.5 41.5t-40.5 102.5q0 60 40 101.5t101 41.5zM572 0zM598 1234zM526 0zM460 1234zM45 218zM504 536zM556 -122
q63 0 106.5 -43.5t43.5 -109.5t-43.5 -109.5t-106.5 -43.5t-106.5 43.5t-43.5 109.5t43.5 109.5t106.5 43.5zM556 0z" />
    <glyph glyph-name="uni0A9A_uni0ABC.nukt" horiz-adv-x="1450" 
d="M1009 311q-125 -75 -292 -75q-157 0 -254.5 53.5t-168.5 155.5h-32q-101 0 -154.5 41.5t-53.5 117.5q0 67 39.5 101.5t115.5 34.5q93 0 173 -70q63 27 97 73t34 106q0 77 -47 117.5t-139 40.5q-103 0 -201 -41l-76 206q154 62 298 62q203 0 316.5 -99t113.5 -271
q0 -114 -54.5 -204.5t-161.5 -147.5q67 -46 154 -46q165 0 292 130v638l275 -22v-829q0 -51 8 -80.5t26 -45t42 -20t83 -4.5l-20 -233h-55q-198 0 -274.5 76.5t-83.5 234.5zM536 119q63 0 106.5 -43.5t43.5 -109.5t-43.5 -109.5t-106.5 -43.5t-106.5 43.5t-43.5 109.5
t43.5 109.5t106.5 43.5zM536 241z" />
    <glyph glyph-name="uni0A9B_uni0ABC.nukt" horiz-adv-x="1602" 
d="M228 610q-77 66 -117.5 140.5t-40.5 163.5q0 148 103 234t283 86q119 0 218 -23l-45 -223q-58 13 -126 13q-73 0 -114 -29t-41 -84q0 -85 93 -147q85 25 182 25q82 0 121 -9l-31 -227q-25 4 -84 4q-97 0 -152.5 -40t-55.5 -108q0 -173 258 -173q176 0 308.5 74.5t204 207
t71.5 273.5q0 119 -37.5 179.5t-108.5 60.5q-49 0 -75 -29t-26 -74q0 -123 208 -164l-72 -228q-197 47 -292.5 147.5t-95.5 258.5q0 140 90.5 227.5t247.5 87.5q202 0 320.5 -124t118.5 -362q0 -225 -103 -401.5t-299.5 -272t-466.5 -95.5q-253 0 -390.5 107.5t-137.5 288.5
q0 134 84 235zM782 0zM1059 1234zM716 0zM921 1234zM801 -122q63 0 106.5 -43.5t43.5 -109.5t-43.5 -109.5t-106.5 -43.5t-106.5 43.5t-43.5 109.5t43.5 109.5t106.5 43.5zM801 0z" />
    <glyph glyph-name="uni0A9C_uni0ABC.nukt" horiz-adv-x="1906" 
d="M1329 959q108 75 222 143.5t234 131.5l141 -219q-132 -71 -234.5 -130t-175.5 -107q86 -103 127 -205.5t41 -214.5q0 -173 -109.5 -276t-301.5 -103q-190 0 -295.5 102.5t-105.5 258.5q0 137 62.5 242t198.5 223q-62 54 -141.5 95t-175.5 69q29 -85 29 -159
q0 -154 -102 -245.5t-300 -91.5q-178 0 -283 101t-105 266q0 110 63.5 201t182 142t275.5 51q229 0 410 -67t343 -208zM559 1012q-110 0 -171.5 -47t-61.5 -124q0 -65 33.5 -101.5t91.5 -36.5q70 0 108 40t38 105q0 87 -38 164zM1305 631q-75 -64 -118.5 -131t-43.5 -149
q0 -69 34 -106.5t96 -37.5q66 0 101 37.5t35 107.5q0 72 -26 141.5t-78 137.5zM1235 0zM1403 1234zM1265 1234zM1232 0zM1829 1001zM1281 -122q63 0 106.5 -43.5t43.5 -109.5t-43.5 -109.5t-106.5 -43.5t-106.5 43.5t-43.5 109.5t43.5 109.5t106.5 43.5zM1281 0z" />
    <glyph glyph-name="uni0A9D_uni0ABC.nukt" horiz-adv-x="1544" 
d="M922 587q7 -62 7 -111q0 -244 -113.5 -370t-316.5 -126q-150 0 -264 68t-215 217l206 123q74 -102 127.5 -136.5t122.5 -34.5q88 0 131.5 65t43.5 197q0 147 -53.5 221t-160.5 74q-123 0 -236 -52l-77 216q157 69 342 69q127 0 222 -49t157 -146q63 20 125 27v395
l275 -22v-401q114 -45 175 -141t61 -224q0 -140 -53.5 -250.5t-170.5 -215.5l-203 181q152 124 152 269q0 86 -46 134.5t-129 48.5q-55 0 -109 -26zM1042 0zM772 -122q63 0 106.5 -43.5t43.5 -109.5t-43.5 -109.5t-106.5 -43.5t-106.5 43.5t-43.5 109.5t43.5 109.5
t106.5 43.5zM772 0z" />
    <glyph glyph-name="uni0A9E_uni0ABC.nukt" horiz-adv-x="1520" 
d="M1078 673q-76 -41 -183 -41q-31 0 -43 2q-30 -143 -131 -219t-254 -76q-140 0 -251.5 67.5t-204.5 211.5l202 120q56 -88 109.5 -125.5t117.5 -37.5q82 0 119 49.5t37 151.5q0 119 -46 173t-149 54q-108 0 -217 -48l-75 210q148 69 325 69t289 -95t137 -277l15 -1
q40 -3 96.5 9t106.5 56v308l275 -22v-829q0 -51 8 -80.5t26 -45t42 -20t83 -4.5l-20 -233h-55q-128 0 -204 31t-115.5 107.5t-39.5 223.5v311zM501 209q63 0 106.5 -43.5t43.5 -109.5t-43.5 -109.5t-106.5 -43.5t-106.5 43.5t-43.5 109.5t43.5 109.5t106.5 43.5z" />
    <glyph glyph-name="uni0A9F_uni0ABC.nukt" horiz-adv-x="999" 
d="M904 308l108 -216q-133 -61 -244.5 -86.5t-231.5 -25.5q-212 0 -339.5 101.5t-127.5 266.5q0 127 82 223.5t285 195.5q157 76 184.5 102.5t27.5 59.5q0 37 -31.5 57t-86.5 20q-149 0 -287 -55l-77 216q185 67 372 67q185 0 285 -79t100 -216q0 -131 -78 -212.5
t-268 -176.5q-134 -67 -182 -108.5t-48 -99.5q0 -128 185 -128q206 0 372 94zM537 0zM499 0zM400 1234zM499 -122q63 0 106.5 -43.5t43.5 -109.5t-43.5 -109.5t-106.5 -43.5t-106.5 43.5t-43.5 109.5t43.5 109.5t106.5 43.5zM499 0z" />
    <glyph glyph-name="uni0AA0_uni0ABC.nukt" horiz-adv-x="1126" 
d="M871 982q-94 26 -183 26q-63 0 -92 -14t-29 -44q0 -33 30 -56.5t107 -64.5q191 -101 281.5 -210.5t90.5 -264.5q0 -175 -131 -274.5t-368 -99.5t-373.5 111t-136.5 301q0 130 80.5 229.5t228.5 147.5q-37 43 -55.5 91.5t-18.5 103.5q0 117 98.5 193.5t275.5 76.5
q126 0 246 -24zM635 583h-6q-132 0 -208 -52.5t-76 -140.5q0 -86 59.5 -132t168.5 -46q107 0 166 41.5t59 117.5q0 66 -39.5 113t-123.5 99zM592 0zM638 1234zM546 0zM480 1234zM563 -122q63 0 106.5 -43.5t43.5 -109.5t-43.5 -109.5t-106.5 -43.5t-106.5 43.5t-43.5 109.5
t43.5 109.5t106.5 43.5zM563 0z" />
    <glyph glyph-name="uni0AA1_uni0ABC.nukt" horiz-adv-x="1070" 
d="M816 980q-101 26 -185 26q-133 0 -133 -75q0 -28 11.5 -47t45.5 -42t129 -73q179 -93 257.5 -187t78.5 -238q0 -164 -117.5 -264t-316.5 -100q-178 0 -319.5 77.5t-255.5 239.5l214 127q155 -211 347 -211q82 0 126 32.5t44 91.5q0 62 -45 109.5t-174 113.5
q-157 80 -229.5 164.5t-72.5 208.5q0 132 110 216.5t292 84.5q132 0 244 -24zM572 0zM598 1234zM535 0zM460 1234zM623 536zM116 218zM535 -122q63 0 106.5 -43.5t43.5 -109.5t-43.5 -109.5t-106.5 -43.5t-106.5 43.5t-43.5 109.5t43.5 109.5t106.5 43.5zM535 0z" />
    <glyph glyph-name="uni0AA2_uni0ABC.nukt" horiz-adv-x="1118" 
d="M268 957l-77 216q181 61 344 61q187 0 286 -75t99 -212q0 -80 -29 -136t-100 -109t-218 -122q-96 -45 -143.5 -77.5t-66.5 -64t-19 -78.5q0 -54 35.5 -95t102.5 -57q-20 63 -20 121q0 111 90 182t229 71q144 0 230 -78.5t86 -203.5q0 -151 -127 -235.5t-352 -84.5
q-254 0 -401 103.5t-147 276.5q0 133 78 226.5t270 180.5q137 62 182 94t45 77q0 34 -30.5 51t-85.5 17q-60 0 -130 -12.5t-131 -36.5zM691 200q172 8 172 106q0 34 -22 54t-63 20q-46 0 -74.5 -24.5t-28.5 -69.5q0 -48 16 -86zM609 0zM548 1234zM559 0zM420 1234zM708 208z
M433 808zM559 -122q63 0 106.5 -43.5t43.5 -109.5t-43.5 -109.5t-106.5 -43.5t-106.5 43.5t-43.5 109.5t43.5 109.5t106.5 43.5zM559 0z" />
    <glyph glyph-name="uni0AA3_uni0ABC.nukt" horiz-adv-x="1848" 
d="M138 1234l275 -22v-574q0 -91 4 -125t21 -62.5t59.5 -54t208.5 -94.5q110 -46 179.5 -87t104 -79.5t48.5 -76.5t14 -96q0 -67 -28 -129.5t-119 -160.5l-208 152q33 28 48.5 57t15.5 50q0 30 -15 53t-62.5 51t-166.5 79q-149 63 -219 103.5t-102.5 82.5t-45 98t-12.5 169
v666zM1406 1234l275 -22v-829q0 -72 14 -101t40.5 -39t104.5 -10l-20 -233h-55q-107 0 -176.5 21.5t-109.5 67t-56.5 109t-16.5 164.5v872zM495 664l188 120q51 -80 96 -113t96 -33q70 0 99.5 40.5t29.5 132.5q0 99 -38.5 147.5t-119.5 48.5q-45 0 -84 -8t-100 -33l-79 204
q146 64 303 64q182 0 287 -115t105 -313q0 -194 -97.5 -297t-268.5 -103q-129 0 -235 65.5t-182 192.5zM950 -548zM857 23zM461 -122q63 0 106.5 -43.5t43.5 -109.5t-43.5 -109.5t-106.5 -43.5t-106.5 43.5t-43.5 109.5t43.5 109.5t106.5 43.5zM461 0z" />
    <glyph glyph-name="uni0AA4_uni0ABC.nukt" horiz-adv-x="1274" 
d="M832 676h-211q-106 0 -157 -11t-83.5 -44t-32.5 -86q0 -71 56 -149t185 -188l-186 -174q-177 157 -255 285.5t-78 259.5q0 102 49 178.5t146 119t301 42.5h266v325l275 -22v-829q0 -51 8 -80.5t26 -45t42 -20t83 -4.5l-20 -233h-55q-142 0 -214 35.5t-108.5 108
t-36.5 218.5v314zM492 257zM516 -94q63 0 106.5 -43.5t43.5 -109.5t-43.5 -109.5t-106.5 -43.5t-106.5 43.5t-43.5 109.5t43.5 109.5t106.5 43.5zM516 28z" />
    <glyph glyph-name="uni0AA5_uni0ABC.nukt" horiz-adv-x="1411" 
d="M969 369q-149 -92 -345 -92q-195 0 -334 98.5t-207 287.5q196 53 308 131t112 167q0 37 -21 60t-62 23q-37 0 -58.5 -19.5t-21.5 -51.5q0 -51 54 -92l-216 -110q-104 82 -104 214q0 105 92.5 177t248.5 72q172 0 260.5 -75.5t88.5 -198.5q0 -253 -325 -396
q78 -54 198 -54q91 0 178 36.5t154 107.5v580l275 -22v-829q0 -51 8 -80.5t26 -45t42 -20t83 -4.5l-20 -233h-55q-142 0 -214 35.5t-108.5 108t-36.5 218.5v7zM83 437zM535 143q63 0 106.5 -43.5t43.5 -109.5t-43.5 -109.5t-106.5 -43.5t-106.5 43.5t-43.5 109.5t43.5 109.5
t106.5 43.5zM535 265z" />
    <glyph glyph-name="uni0AA6_uni0ABC.nukt" horiz-adv-x="1037" 
d="M686 984q-89 17 -163 17q-175 0 -175 -113q0 -85 97 -149q98 27 213 27q75 0 157 -17l-42 -227q-72 12 -129 12q-107 0 -165 -41.5t-58 -124.5q0 -72 58.5 -116.5t158.5 -44.5q45 0 88 9v18q0 69 42 108.5t115 39.5q72 0 115.5 -45t43.5 -111q0 -115 -104 -180.5
t-291 -65.5q-239 0 -371 104.5t-132 279.5q0 145 85 245q-77 66 -118 141t-41 164q0 151 106 235.5t301 84.5q131 0 254 -27zM597 0zM484 1234zM346 1234zM518 -122q63 0 106.5 -43.5t43.5 -109.5t-43.5 -109.5t-106.5 -43.5t-106.5 43.5t-43.5 109.5t43.5 109.5t106.5 43.5
zM518 0z" />
    <glyph glyph-name="uni0AA7_uni0ABC.nukt" horiz-adv-x="1329" 
d="M1162 1213v-830q0 -51 8 -80.5t26 -45t42 -20t83 -4.5l-20 -233h-55q-197 0 -275 76.5t-83 229.5q-80 -53 -160.5 -74.5t-186.5 -21.5q-166 0 -276 89t-110 235q0 94 47 165q-132 112 -132 260q0 260 394 373l100 -225q-102 -26 -161 -61.5t-59 -96.5q0 -69 62 -114
q63 17 139 17q82 0 157 -17l-35 -222q-52 11 -113 11q-66 0 -98.5 -23.5t-32.5 -64.5q0 -95 151 -95q158 0 313 141v652zM614 1099zM511 79q63 0 106.5 -43.5t43.5 -109.5t-43.5 -109.5t-106.5 -43.5t-106.5 43.5t-43.5 109.5t43.5 109.5t106.5 43.5zM511 201z" />
    <glyph glyph-name="uni0AA8_uni0ABC.nukt" horiz-adv-x="1249" 
d="M807 608h-325v-61q0 -82 -33 -121.5t-102 -39.5q-60 0 -133.5 50.5t-122 125t-48.5 137.5q0 74 36.5 108t107.5 34h620v393l275 -22v-829q0 -51 8 -80.5t26 -45t42 -20t83 -4.5l-20 -233h-55q-142 0 -214 35.5t-108.5 108t-36.5 218.5v246zM453 239q63 0 106.5 -43.5
t43.5 -109.5t-43.5 -109.5t-106.5 -43.5t-106.5 43.5t-43.5 109.5t43.5 109.5t106.5 43.5z" />
    <glyph glyph-name="uni0AAA_uni0ABC.nukt" horiz-adv-x="1245" 
d="M803 381q-115 -60 -253 -60q-128 0 -213.5 47.5t-125 129.5t-39.5 245v86q0 51 -8 81t-26.5 45.5t-42.5 19.5t-82 4l20 233h55q110 0 180 -22.5t109 -71t54.5 -110t15.5 -159.5v-88q0 -85 12.5 -126t44 -61t86.5 -20q110 0 213 92v588l275 -22v-829q0 -51 8 -80.5t26 -45
t42 -20t83 -4.5l-20 -233h-55q-108 0 -178 21.5t-110 69t-55.5 104.5t-15.5 155v31zM417 178q63 0 106.5 -43.5t43.5 -109.5t-43.5 -109.5t-106.5 -43.5t-106.5 43.5t-43.5 109.5t43.5 109.5t106.5 43.5zM417 300z" />
    <glyph glyph-name="uni0AAB_uni0ABC.nukt" horiz-adv-x="1108" 
d="M66 604l251 84q-70 55 -104.5 116t-34.5 128q0 137 119.5 219.5t322.5 82.5q138 0 238 -25l-46 -223q-89 19 -180 19q-175 0 -175 -99q0 -33 26 -63t92 -66l410 149l97 -222l-260 -85q98 -61 141 -134.5t43 -167.5q0 -139 -99 -227t-289 -105q43 -38 94 -56.5t138 -18.5
h43l-27 -240h-46q-172 0 -296.5 81.5t-232.5 242.5q-111 18 -166.5 64.5t-55.5 130.5q0 55 40.5 92.5t104.5 37.5q57 0 107.5 -23.5t108.5 -80.5q31 -5 79 -5q101 0 158.5 34.5t57.5 96.5q0 59 -50.5 103t-131.5 79l-386 -139zM584 1234zM431 1234zM690 -548zM1105 693z
M67 617zM733 -21zM291 -231q63 0 106.5 -43.5t43.5 -109.5t-43.5 -109.5t-106.5 -43.5t-106.5 43.5t-43.5 109.5t43.5 109.5t106.5 43.5zM291 -109z" />
    <glyph glyph-name="uni0AAC_uni0ABC.nukt" horiz-adv-x="1633" 
d="M1191 485q-57 -31 -136 -31q-86 0 -141 38q-48 -94 -142.5 -140.5t-244.5 -46.5q-207 0 -332 115.5t-125 310.5q0 185 126.5 317.5t357.5 185.5l64 -236q-270 -67 -270 -265q0 -97 46 -146t136 -49q62 0 99.5 24.5t53 67.5t15.5 150v146l275 -22v-173q24 -44 83 -44
q76 0 135 56v491l275 -22v-829q0 -51 8 -80.5t26 -45t42 -20t83 -4.5l-20 -233h-55q-142 0 -214 35.5t-108.5 108t-36.5 218.5v123zM661 169q63 0 106.5 -43.5t43.5 -109.5t-43.5 -109.5t-106.5 -43.5t-106.5 43.5t-43.5 109.5t43.5 109.5t106.5 43.5zM661 291z" />
    <glyph glyph-name="uni0AAD_uni0ABC.nukt" horiz-adv-x="1763" 
d="M751 770v16q0 215 -173 215q-110 0 -170 -67.5t-60 -177.5q0 -131 65.5 -244.5t207.5 -234.5l-186 -174q-191 174 -278 334.5t-87 329.5q0 134 62.5 241.5t176 166.5t255.5 59q224 0 341 -117.5t120 -346.5h296v464l275 -22v-829q0 -51 8 -80.5t26 -45t42 -20t83 -4.5
l-20 -233h-55q-142 0 -214 35.5t-108.5 108t-36.5 218.5v177h-295v-39q0 -82 -34 -122.5t-109 -40.5q-55 0 -127.5 50t-120.5 122t-48 132q0 67 36 98t109 31h19zM605 336zM915 169q63 0 106.5 -43.5t43.5 -109.5t-43.5 -109.5t-106.5 -43.5t-106.5 43.5t-43.5 109.5
t43.5 109.5t106.5 43.5zM915 291z" />
    <glyph glyph-name="uni0AAE_uni0ABC.nukt" horiz-adv-x="1291" 
d="M849 429h-333v-39q0 -82 -34 -122.5t-109 -40.5q-55 0 -127.5 50t-120.5 122t-48 132q0 67 36 98t109 31h20v169q0 51 -8 81t-26.5 45.5t-42.5 19.5t-82 4l20 233h55q105 0 173 -20t106.5 -61t58.5 -99.5t20 -173.5v-198h333v574l275 -22v-829q0 -51 8 -80.5t26 -45
t42 -20t83 -4.5l-20 -233h-55q-142 0 -214 35.5t-108.5 108t-36.5 218.5v67zM478 88q63 0 106.5 -43.5t43.5 -109.5t-43.5 -109.5t-106.5 -43.5t-106.5 43.5t-43.5 109.5t43.5 109.5t106.5 43.5zM478 210z" />
    <glyph glyph-name="uni0AAF_uni0ABC.nukt" horiz-adv-x="1328" 
d="M886 393q-122 -72 -286 -72q-190 0 -319.5 100t-198.5 300q132 31 194.5 77t62.5 111q0 48 -34 73.5t-99 25.5q-61 0 -121 -18l-57 215q90 29 197 29q185 0 285.5 -87.5t100.5 -236.5q0 -93 -43 -163.5t-135 -127.5q68 -65 175 -65q80 0 146.5 30.5t131.5 96.5v553
l275 -22v-829q0 -51 8 -80.5t26 -45t42 -20t83 -4.5l-20 -233h-55q-142 0 -214 35.5t-108.5 108t-36.5 218.5v31zM82 495zM462 178q63 0 106.5 -43.5t43.5 -109.5t-43.5 -109.5t-106.5 -43.5t-106.5 43.5t-43.5 109.5t43.5 109.5t106.5 43.5zM462 300z" />
    <glyph glyph-name="uni0AB0_uni0ABC.nukt" horiz-adv-x="976" 
d="M918 0q-204 0 -337 84.5t-262 264.5l-20 -1q-107 -5 -173 37.5t-66 129.5q0 69 46 108.5t128 39.5q86 0 164 -61q96 32 150.5 91t54.5 135q0 83 -55.5 128t-161.5 45q-136 0 -251 -52l-77 216q167 69 360 69q211 0 338.5 -108t127.5 -297q0 -137 -78 -248.5t-219 -173.5
q61 -64 116.5 -100.5t106.5 -51.5t119 -15h45l-18 -240h-38zM532 0zM478 1234zM488 0zM340 1234zM859 581zM458 -42q63 0 106.5 -43.5t43.5 -109.5t-43.5 -109.5t-106.5 -43.5t-106.5 43.5t-43.5 109.5t43.5 109.5t106.5 43.5zM458 80z" />
    <glyph glyph-name="uni0AB2_uni0ABC.nukt" horiz-adv-x="1438" 
d="M900 252q-60 -27 -139.5 -42.5t-154.5 -15.5q-254 0 -395 130.5t-141 363.5q0 208 151.5 351t435.5 195l66 -239q-191 -36 -283 -114.5t-92 -204.5q0 -119 72.5 -184t201.5 -65q102 0 182 35zM996 649l-410 -84l-57 231l467 92v346l275 -22v-829q0 -51 8 -80.5t26 -45
t42 -20t83 -4.5l-20 -233h-55q-142 0 -214 35.5t-108.5 108t-36.5 218.5v287zM569 39q63 0 106.5 -43.5t43.5 -109.5t-43.5 -109.5t-106.5 -43.5t-106.5 43.5t-43.5 109.5t43.5 109.5t106.5 43.5zM569 161z" />
    <glyph glyph-name="uni0AB3_uni0ABC.nukt" horiz-adv-x="1639" 
d="M1197 774q0 87 -10 129t-35.5 62t-65.5 20q-52 0 -78.5 -33.5t-26.5 -144.5v-40q0 -189 -48 -291t-144.5 -155.5t-252.5 -53.5q-210 0 -338 122t-128 329q0 185 127 322.5t357 193.5l64 -236q-270 -74 -270 -282q0 -106 48.5 -161t136.5 -55q70 0 108 29t52 79.5
t14 145.5v45q0 155 35.5 234.5t115.5 129t222 49.5q130 0 217 -49.5t131 -137t44 -249.5v-393q0 -51 8 -80.5t26 -45t42 -20t83 -4.5l-20 -233h-55q-142 0 -214 35.5t-108.5 108t-36.5 218.5v412zM1034 1234zM690 134q63 0 106.5 -43.5t43.5 -109.5t-43.5 -109.5
t-106.5 -43.5t-106.5 43.5t-43.5 109.5t43.5 109.5t106.5 43.5zM690 256z" />
    <glyph glyph-name="uni0AB5_uni0ABC.nukt" horiz-adv-x="1268" 
d="M826 406q-133 -85 -311 -85q-199 0 -322 107.5t-123 291.5q0 181 126.5 288.5t334.5 107.5q101 0 209 -16l-23 -230q-54 13 -150 13q-107 0 -164 -44.5t-57 -125.5q0 -78 47.5 -118.5t134.5 -40.5q83 0 153 29t145 96v555l275 -21v-830q0 -51 8 -80.5t26 -45t42 -20
t83 -4.5l-20 -233h-55q-142 0 -214 35.5t-108.5 107.5t-36.5 219v44zM458 178q63 0 106.5 -43.5t43.5 -109.5t-43.5 -109.5t-106.5 -43.5t-106.5 43.5t-43.5 109.5t43.5 109.5t106.5 43.5zM458 300z" />
    <glyph glyph-name="uni0AB6_uni0ABC.nukt" horiz-adv-x="1522" 
d="M455 659q-342 65 -342 306q0 121 95 195t260 74q206 0 328.5 -108.5t122.5 -300.5q0 -152 -88 -270.5t-250 -180.5q71 -73 135.5 -103.5t147.5 -30.5h35l-27 -240h-46q-157 0 -278 77.5t-243 243.5l-19 -1q-52 -3 -110 10.5t-93.5 53.5t-35.5 103q0 69 48 108.5t130 39.5
q89 0 182 -75q115 34 179 109.5t64 174.5q0 86 -53 136t-131 50q-100 0 -100 -74q0 -83 168 -113zM1080 1234l275 -22v-829q0 -51 8 -80.5t26 -45t42 -20t83 -4.5l-20 -233h-55q-142 0 -214 35.5t-108.5 108t-36.5 218.5v872zM596 553zM458 -42q63 0 106.5 -43.5
t43.5 -109.5t-43.5 -109.5t-106.5 -43.5t-106.5 43.5t-43.5 109.5t43.5 109.5t106.5 43.5zM458 80z" />
    <glyph glyph-name="uni0AB7_uni0ABC.nukt" horiz-adv-x="1260" 
d="M818 391q-126 -70 -275 -70q-127 0 -212 49t-122 130.5t-37 242.5v95q0 81 -18.5 105t-41.5 30t-99 6l20 233h55q164 0 243 -52l425 -285q28 -19 62 -46v405l275 -22v-829q0 -51 8 -80.5t26 -45t42 -20t83 -4.5l-20 -233h-55q-108 0 -178 21.5t-110 69t-55.5 104.5
t-15.5 155v41zM447 761q0 -85 12.5 -126t44 -61t86.5 -20q123 0 225 86l-193 129q-85 56 -180 134q5 -45 5 -108v-34zM869 873zM874 407zM426 178q63 0 106.5 -43.5t43.5 -109.5t-43.5 -109.5t-106.5 -43.5t-106.5 43.5t-43.5 109.5t43.5 109.5t106.5 43.5zM426 300z" />
    <glyph glyph-name="uni0AB8_uni0ABC.nukt" horiz-adv-x="1552" 
d="M1110 553q-78 -41 -182 -41q-99 0 -178 34q-73 -86 -173 -133q62 -67 118.5 -104.5t107 -53t121.5 -15.5h45l-18 -240h-38q-204 0 -337 84.5t-262 264.5l-20 -1q-107 -5 -173 37.5t-66 129.5q0 69 46 108.5t128 39.5q84 0 162 -59q84 32 130.5 90t46.5 134
q0 84 -52.5 128.5t-150.5 44.5q-127 0 -235 -52l-77 216q164 69 353 69q199 0 321 -108.5t122 -296.5q0 -33 -7 -77q39 -11 87 -11q105 0 181 66v427l275 -22v-829q0 -51 8 -80.5t26 -45t42 -20t83 -4.5l-20 -233h-55q-142 0 -214 35.5t-108.5 108t-36.5 218.5v191zM459 581
zM458 -42q63 0 106.5 -43.5t43.5 -109.5t-43.5 -109.5t-106.5 -43.5t-106.5 43.5t-43.5 109.5t43.5 109.5t106.5 43.5zM458 80z" />
    <glyph glyph-name="uni0AB9_uni0ABC.nukt" horiz-adv-x="1361" 
d="M602 699q67 -83 144.5 -126.5t156.5 -43.5q101 0 101 69q0 26 -22 47.5t-109 49.5q-293 95 -293 288q0 117 94 184t267 67q100 0 214 -22l-43 -201q-79 22 -175 22q-50 0 -73.5 -12t-23.5 -38q0 -25 22.5 -41.5t96.5 -39.5q164 -51 236.5 -122t72.5 -194
q0 -119 -96.5 -192t-256.5 -73q-298 0 -496 253zM413 863q-67 -133 -67 -267q0 -178 132 -282.5t369 -104.5q239 0 411 88l112 -218q-253 -98 -526 -98q-239 0 -412.5 76t-265.5 220t-92 328q0 187 87 358zM742 0zM868 1234zM730 1234zM680 -122q63 0 106.5 -43.5
t43.5 -109.5t-43.5 -109.5t-106.5 -43.5t-106.5 43.5t-43.5 109.5t43.5 109.5t106.5 43.5zM680 0z" />
    <glyph glyph-name="uni0A95_uni0ACD_uni0AB7.akhn" horiz-adv-x="1600" 
d="M1158 569q-128 -59 -335 -59q-76 0 -154.5 14.5t-158.5 44.5q-74 -34 -117 -74t-43 -96q0 -58 51.5 -89t147.5 -31q31 0 66 4v10q0 69 42 108.5t115 39.5q72 0 115.5 -45t43.5 -111q0 -61 -32 -109q23 -33 51 -47.5t85 -14.5h36l-27 -226h-27q-117 0 -198.5 42
t-138.5 133q-53 -10 -138 -10q-222 0 -344.5 91t-122.5 243q0 98 50.5 166.5t165.5 131.5q-75 57 -112.5 124.5t-37.5 146.5q0 122 101 200t279 78q181 0 281.5 -69.5t100.5 -194.5q0 -64 -34.5 -123t-103.5 -114q19 -2 63 -2q187 0 330 84v419l275 -22v-829q0 -51 8 -80.5
t26 -45t42 -20t83 -4.5l-20 -233h-55q-108 0 -178 21.5t-110 69t-55.5 104.5t-15.5 155v219zM515 793q63 32 94.5 67t31.5 73q0 43 -30 68t-87 25q-55 0 -88 -27t-33 -72q0 -35 28.5 -70t83.5 -64z" />
    <glyph glyph-name="uni0A9C_uni0ACD_uni0A9E.akhn" horiz-adv-x="1537" 
d="M1095 796q-49 -12 -106 -12q-58 0 -111.5 11.5t-103 34t-155.5 82.5q-94 52 -152 52q-87 0 -87 -69q0 -42 36.5 -67t155.5 -48q194 -37 283 -116t89 -210q0 -134 -91.5 -219.5t-257.5 -106.5q66 -44 166 -44h55l-29 -216h-39q-138 0 -249.5 64t-212.5 204
q-229 39 -229 191q0 55 40.5 92.5t104.5 37.5q59 0 111 -24.5t119 -92.5q27 -3 57 -3q89 0 136 28.5t47 79.5t-39.5 75.5t-126.5 40.5q-208 37 -301 121t-93 225q0 123 93 206t252 83q140 0 303 -90q84 -46 139.5 -68t108.5 -22t87 13v205l275 -22v-829q0 -51 8 -80.5
t26 -45t42 -20t83 -4.5l-20 -233h-55q-142 0 -214 35.5t-108.5 108t-36.5 218.5v434z" />
    <glyph glyph-name="uni0AB0_uni0ACD.rphf" 
d="M-446 1277q-83 131 -83 250q0 146 99 227.5t268 81.5q127 0 239 -31l-50 -196q-60 21 -131 21q-73 0 -112.5 -36.5t-39.5 -107.5q0 -83 55 -173zM-442 1234zM-382 1234z" />
    <glyph glyph-name="uni0AB0_uni0ACD.blwf" 
d="M-440 -254l-413 -272l-143 217l483 272h162l310 -336l-186 -127zM-518 0zM-628 -548z" />
    <glyph glyph-name="uni0A95_uni0ACD.half" horiz-adv-x="1108" 
d="M812 986q-89 19 -180 19q-175 0 -175 -99q0 -33 26 -63t92 -66l1 1h586v-228h-153q-75 0 -113 4q57 -46 83.5 -103t26.5 -134q0 -154 -120.5 -246t-352.5 -92q-279 0 -495 133l130 199q104 -54 182 -75.5t159 -21.5q103 0 159.5 33.5t56.5 93.5q0 59 -50.5 103t-131.5 79
l-386 -139l-91 220l251 84q-70 55 -104.5 116t-34.5 128q0 137 119.5 219.5t322.5 82.5q138 0 238 -25zM37 617z" />
    <glyph glyph-name="uni0A96_uni0ACD.half" horiz-adv-x="1222" 
d="M1271 573q-50 -33 -92 -44t-96 -11q-71 0 -121 26q-40 -115 -134 -169t-256 -54q-102 0 -178 25t-129 80t-73 126.5t-20 190.5v86q0 51 -8 81t-26.5 45.5t-42.5 19.5t-82 4l20 233h55q110 0 180 -22.5t109 -71t54.5 -110t15.5 -159.5v-112q0 -83 16 -117.5t46.5 -50
t65.5 -15.5q58 0 88.5 21t46.5 61t16 118v244l275 -22v-181q24 -44 83 -44q58 0 104 31zM1219 1234z" />
    <glyph glyph-name="uni0A97_uni0ACD.half" horiz-adv-x="917" 
d="M467 339q-140 0 -251.5 67.5t-204.5 211.5l202 120q56 -88 109.5 -125.5t117.5 -37.5q82 0 119 49t37 152q0 116 -45.5 171.5t-149.5 55.5q-108 0 -217 -48l-75 210q148 69 325 69q205 0 321 -123t116 -340q0 -211 -108 -321.5t-296 -110.5z" />
    <glyph glyph-name="uni0A98_uni0ACD.half" horiz-adv-x="900" 
d="M979 332q-124 -72 -216 -97t-209 -25q-173 0 -285.5 88.5t-112.5 235.5q0 93 47 164q-133 112 -133 260q0 128 101 202t280 74q124 0 223 -23l-45 -218q-52 13 -143 13q-74 0 -109.5 -22t-35.5 -59q0 -55 58 -92q70 19 147 19q82 0 157 -17l-35 -222q-52 11 -113 11
q-66 0 -98.5 -23.5t-32.5 -64.5q0 -95 151 -95q83 0 156 27t150 85z" />
    <glyph glyph-name="uni0A99_uni0ACD.half" horiz-adv-x="1112" 
d="M816 980q-101 26 -185 26q-133 0 -133 -75q0 -28 11.5 -47t45.5 -42t129 -73q179 -93 257.5 -187t78.5 -238q0 -164 -117.5 -264t-316.5 -100q-178 0 -319.5 77.5t-255.5 239.5l214 127q155 -211 347 -211q82 0 126 32.5t44 91.5q0 62 -45 109.5t-174 113.5
q-157 80 -229.5 164.5t-72.5 208.5q0 132 110 216.5t292 84.5q132 0 244 -24zM944 980q61 0 100.5 -41t39.5 -102q0 -62 -40 -103t-100 -41t-100.5 41.5t-40.5 102.5q0 60 40 101.5t101 41.5zM572 0zM598 1234zM526 0zM460 1234zM45 218zM504 536zM321 -82q81 27 182 27
q166 0 300 -78.5t300 -289.5l-190 -125q-118 149 -202.5 204t-205.5 55q-66 0 -112 -17zM308 0zM1073 -342z" />
    <glyph glyph-name="uni0A9A_uni0ACD.half" horiz-adv-x="985" 
d="M1075 351q-145 -115 -358 -115q-157 0 -254.5 53.5t-168.5 155.5h-32q-101 0 -154.5 41.5t-53.5 117.5q0 67 39.5 101.5t115.5 34.5q93 0 173 -70q63 27 97 73t34 106q0 77 -47 117.5t-139 40.5q-103 0 -201 -41l-76 206q154 62 298 62q203 0 316.5 -99t113.5 -271
q0 -114 -54.5 -204.5t-161.5 -147.5q67 -46 154 -46q73 0 133 23t117 68z" />
    <glyph glyph-name="uni0A9B_uni0ACD.half" horiz-adv-x="1602" 
d="M228 610q-77 66 -117.5 140.5t-40.5 163.5q0 148 103 234t283 86q119 0 218 -23l-45 -223q-58 13 -126 13q-73 0 -114 -29t-41 -84q0 -85 93 -147q85 25 182 25q82 0 121 -9l-31 -227q-25 4 -84 4q-97 0 -152.5 -40t-55.5 -108q0 -173 258 -173q176 0 308.5 74.5t204 207
t71.5 273.5q0 119 -37.5 179.5t-108.5 60.5q-49 0 -75 -29t-26 -74q0 -123 208 -164l-72 -228q-197 47 -292.5 147.5t-95.5 258.5q0 140 90.5 227.5t247.5 87.5q202 0 320.5 -124t118.5 -362q0 -225 -103 -401.5t-299.5 -272t-466.5 -95.5q-253 0 -390.5 107.5t-137.5 288.5
q0 134 84 235zM782 0zM1059 1234zM716 0zM921 1234zM565 -82q81 27 182 27q166 0 300 -78.5t300 -289.5l-190 -125q-118 149 -202.5 204t-205.5 55q-66 0 -112 -17zM552 0zM1317 -342z" />
    <glyph glyph-name="uni0A9C_uni0ACD.half" horiz-adv-x="1875" 
d="M1437 877q95 17 257 17h191v-228h-268h-13q-6 -1 -12 -1q46 -71 69 -145.5t23 -153.5q0 -182 -108.5 -284.5t-302.5 -102.5q-190 0 -295.5 104.5t-105.5 270.5q0 146 73 256.5t214 180.5q-73 63 -159 108t-185 71q30 -85 30 -160q0 -154 -102 -245.5t-300 -91.5
q-178 0 -283 101t-105 266q0 110 63.5 201t182 142t275.5 51q255 0 461.5 -85t399.5 -272zM559 1012q-110 0 -171.5 -47t-61.5 -124q0 -65 33.5 -101.5t91.5 -36.5q70 0 108 40t38 105q0 87 -38 164zM1319 617q-85 -36 -130.5 -101t-45.5 -154q0 -76 33.5 -115.5t96.5 -39.5
q136 0 136 153q0 67 -22.5 131.5t-67.5 125.5z" />
    <glyph glyph-name="uni0A9D_uni0ACD.half" horiz-adv-x="1422" 
d="M922 587q7 -62 7 -111q0 -244 -113.5 -370t-316.5 -126q-150 0 -264 68t-215 217l206 123q74 -102 127.5 -136.5t122.5 -34.5q88 0 131.5 65t43.5 197q0 147 -53.5 221t-160.5 74q-123 0 -236 -52l-77 216q157 69 342 69q127 0 222 -49t158 -146q57 19 124 27v395
l275 -22v-398q59 -21 111 -60t97 -96l-234 -156q-46 60 -85.5 85.5t-102.5 25.5q-55 0 -109 -26z" />
    <glyph glyph-name="uni0A9E_uni0ACD.half" horiz-adv-x="1043" 
d="M1112 680q-46 -25 -94.5 -36.5t-114.5 -11.5q-29 0 -50 2q-32 -147 -134.5 -221t-251.5 -74q-140 0 -251.5 67.5t-204.5 211.5l202 120q56 -88 109.5 -125.5t117.5 -37.5q82 0 119 49.5t37 151.5q0 119 -46 173t-149 54q-108 0 -217 -48l-75 210q148 69 325 69t289 -95
t137 -277l15 -1q42 -3 89.5 7.5t82.5 33.5z" />
    <glyph glyph-name="uni0A9F_uni0ACD.half" horiz-adv-x="999" 
d="M904 308l108 -216q-133 -61 -244.5 -86.5t-231.5 -25.5q-212 0 -339.5 101.5t-127.5 266.5q0 127 82 223.5t285 195.5q157 76 184.5 102.5t27.5 59.5q0 37 -31.5 57t-86.5 20q-149 0 -287 -55l-77 216q185 67 372 67q185 0 285 -79t100 -216q0 -131 -78 -212.5
t-268 -176.5q-134 -67 -182 -108.5t-48 -99.5q0 -128 185 -128q206 0 372 94zM537 0zM499 0zM400 1234zM275 -82q81 27 182 27q166 0 300 -78.5t300 -289.5l-190 -125q-118 149 -202.5 204t-205.5 55q-66 0 -112 -17zM262 0zM1027 -342z" />
    <glyph glyph-name="uni0AA0_uni0ACD.half" horiz-adv-x="1126" 
d="M871 982q-94 26 -183 26q-63 0 -92 -14t-29 -44q0 -33 30 -56.5t107 -64.5q191 -101 281.5 -210.5t90.5 -264.5q0 -175 -131 -274.5t-368 -99.5t-373.5 111t-136.5 301q0 130 80.5 229.5t228.5 147.5q-37 43 -55.5 91.5t-18.5 103.5q0 117 98.5 193.5t275.5 76.5
q126 0 246 -24zM635 583h-6q-132 0 -208 -52.5t-76 -140.5q0 -86 59.5 -132t168.5 -46q107 0 166 41.5t59 117.5q0 66 -39.5 113t-123.5 99zM592 0zM638 1234zM546 0zM480 1234zM310 -82q81 27 182 27q166 0 300 -78.5t300 -289.5l-190 -125q-118 149 -202.5 204t-205.5 55
q-66 0 -112 -17zM297 0zM1062 -342z" />
    <glyph glyph-name="uni0AA1_uni0ACD.half" horiz-adv-x="1070" 
d="M816 980q-101 26 -185 26q-133 0 -133 -75q0 -28 11.5 -47t45.5 -42t129 -73q179 -93 257.5 -187t78.5 -238q0 -164 -117.5 -264t-316.5 -100q-178 0 -319.5 77.5t-255.5 239.5l214 127q155 -211 347 -211q82 0 126 32.5t44 91.5q0 62 -45 109.5t-174 113.5
q-157 80 -229.5 164.5t-72.5 208.5q0 132 110 216.5t292 84.5q132 0 244 -24zM572 0zM598 1234zM535 0zM460 1234zM623 536zM116 218zM321 -82q81 27 182 27q166 0 300 -78.5t300 -289.5l-190 -125q-118 149 -202.5 204t-205.5 55q-66 0 -112 -17zM308 0zM1073 -342z" />
    <glyph glyph-name="uni0AA2_uni0ACD.half" horiz-adv-x="1118" 
d="M268 957l-77 216q181 61 344 61q187 0 286 -75t99 -212q0 -80 -29 -136t-100 -109t-218 -122q-96 -45 -143.5 -77.5t-66.5 -64t-19 -78.5q0 -54 35.5 -95t102.5 -57q-20 63 -20 121q0 111 90 182t229 71q144 0 230 -78.5t86 -203.5q0 -151 -127 -235.5t-352 -84.5
q-254 0 -401 103.5t-147 276.5q0 133 78 226.5t270 180.5q137 62 182 94t45 77q0 34 -30.5 51t-85.5 17q-60 0 -130 -12.5t-131 -36.5zM691 200q172 8 172 106q0 34 -22 54t-63 20q-46 0 -74.5 -24.5t-28.5 -69.5q0 -48 16 -86zM609 0zM548 1234zM559 0zM420 1234zM708 208z
M433 808zM332 -82q81 27 182 27q166 0 300 -78.5t300 -289.5l-190 -125q-118 149 -202.5 204t-205.5 55q-66 0 -112 -17zM319 0zM1084 -342z" />
    <glyph glyph-name="uni0AA3_uni0ACD.half" horiz-adv-x="1324" 
d="M138 1234l275 -22v-574q0 -91 4 -125t21 -62.5t59.5 -54t208.5 -94.5q110 -46 179.5 -87t104 -79.5t48.5 -76.5t14 -96q0 -67 -28 -129.5t-119 -160.5l-208 152q33 28 48.5 57t15.5 50q0 30 -15 53t-62.5 51t-166.5 79q-149 63 -219 103.5t-102.5 82.5t-45 98t-12.5 169
v666zM495 664l188 120q51 -80 96 -113t96 -33q70 0 99.5 40.5t29.5 132.5q0 99 -38.5 147.5t-119.5 48.5q-45 0 -84 -8t-100 -33l-79 204q146 64 303 64q182 0 287 -115t105 -313q0 -194 -97.5 -297t-268.5 -103q-129 0 -235 65.5t-182 192.5zM843 23zM919 -548z" />
    <glyph glyph-name="uni0AA4_uni0ACD.half" horiz-adv-x="792" 
d="M832 676h-211q-106 0 -157 -11t-83.5 -44t-32.5 -86q0 -71 56 -149t185 -188l-186 -174q-177 157 -255 285.5t-78 259.5q0 102 49 178.5t146 119t301 42.5h266v-233zM398 1234zM477 257z" />
    <glyph glyph-name="uni0AA5_uni0ACD.half" horiz-adv-x="969" 
d="M1053 417q-101 -73 -202.5 -106.5t-226.5 -33.5q-195 0 -334 98.5t-207 287.5q196 53 308 131t112 167q0 37 -21 60t-62 23q-37 0 -58.5 -19.5t-21.5 -51.5q0 -51 54 -92l-216 -110q-104 82 -104 214q0 105 92.5 177t248.5 72q172 0 260.5 -75.5t88.5 -198.5
q0 -253 -325 -396q78 -54 198 -54q164 0 296 110zM91 437z" />
    <glyph glyph-name="uni0AA6_uni0ACD.half" horiz-adv-x="1037" 
d="M686 984q-89 17 -163 17q-175 0 -175 -113q0 -85 97 -149q98 27 213 27q75 0 157 -17l-42 -227q-72 12 -129 12q-107 0 -165 -41.5t-58 -124.5q0 -72 58.5 -116.5t158.5 -44.5q45 0 88 9v18q0 69 42 108.5t115 39.5q72 0 115.5 -45t43.5 -111q0 -115 -104 -180.5
t-291 -65.5q-239 0 -371 104.5t-132 279.5q0 145 85 245q-77 66 -118 141t-41 164q0 151 106 235.5t301 84.5q131 0 254 -27zM597 0zM484 1234zM346 1234zM353 -82q81 27 182 27q166 0 300 -78.5t300 -289.5l-190 -125q-118 149 -202.5 204t-205.5 55q-66 0 -112 -17zM340 0
zM1105 -342z" />
    <glyph glyph-name="uni0AA7_uni0ACD.half" horiz-adv-x="880" 
d="M955 319q-103 -61 -197.5 -85t-209.5 -24q-168 0 -280.5 89t-112.5 235q0 94 47 165q-132 112 -132 260q0 260 394 373l100 -225q-102 -26 -161 -61.5t-59 -96.5q0 -69 62 -114q63 17 139 17q82 0 157 -17l-35 -222q-52 11 -113 11q-66 0 -98.5 -23.5t-32.5 -64.5
q0 -95 156 -95q151 0 282 99zM606 1099zM673 1234z" />
    <glyph glyph-name="uni0AA8_uni0ACD.half" horiz-adv-x="797" 
d="M807 608h-325v-61q0 -82 -33 -121.5t-102 -39.5q-60 0 -133.5 50.5t-122 125t-48.5 137.5q0 74 36.5 108t107.5 34h620v-233zM531 1234z" />
    <glyph glyph-name="uni0AAA_uni0ACD.half" horiz-adv-x="808" 
d="M859 403q-82 -44 -155 -63t-154 -19q-128 0 -213.5 47.5t-125 129.5t-39.5 245v86q0 51 -8 81t-26.5 45.5t-42.5 19.5t-82 4l20 233h55q110 0 180 -22.5t109 -71t54.5 -110t15.5 -159.5v-88q0 -85 12.5 -126t44 -61t86.5 -20q97 0 188 71zM445 1234z" />
    <glyph glyph-name="uni0AAB_uni0ACD.half" horiz-adv-x="1108" 
d="M509 210q101 0 158.5 34.5t57.5 96.5q0 59 -50.5 103t-131.5 79l-386 -139l-91 220l251 84q-70 55 -104.5 116t-34.5 128q0 137 119.5 219.5t322.5 82.5q138 0 238 -25l-46 -223q-89 19 -180 19q-175 0 -175 -99q0 -33 26 -63t92 -66l1 1h586v-228h-153q-54 0 -101 3
q49 -47 73.5 -106t24.5 -130q0 -139 -99 -227t-289 -105q43 -38 94 -56.5t138 -18.5h43l-27 -240h-46q-166 0 -291.5 79.5t-238.5 244.5q-110 18 -165.5 64.5t-55.5 130.5q0 55 40.5 92.5t104.5 37.5q57 0 107.5 -23.5t108.5 -80.5q31 -5 79 -5zM44 617zM691 -548zM494 -21z
" />
    <glyph glyph-name="uni0AAC_uni0ACD.half" horiz-adv-x="1194" 
d="M1243 509q-50 -33 -92 -44t-96 -11q-86 0 -141 38q-48 -94 -142.5 -140.5t-244.5 -46.5q-207 0 -332 115.5t-125 310.5q0 185 126.5 317.5t357.5 185.5l64 -236q-270 -67 -270 -265q0 -97 46 -146t136 -49q62 0 99.5 24.5t53 67.5t15.5 150v146l275 -22v-173
q24 -44 83 -44q58 0 104 31z" />
    <glyph glyph-name="uni0AAD_uni0ACD.half" horiz-adv-x="1291" 
d="M1321 539h-295v-39q0 -82 -34 -122.5t-109 -40.5q-55 0 -127.5 50t-120.5 122t-48 132q0 67 36 98t109 31h19v16q0 215 -173 215q-110 0 -170 -67.5t-60 -177.5q0 -131 65.5 -244.5t207.5 -234.5l-186 -174q-191 174 -278 334.5t-87 329.5q0 134 62.5 241.5t176 166.5
t255.5 59q224 0 341 -117.5t120 -346.5h296v-231zM512 336z" />
    <glyph glyph-name="uni0AAE_uni0ACD.half" horiz-adv-x="831" 
d="M849 429h-333v-39q0 -82 -34 -122.5t-109 -40.5q-55 0 -127.5 50t-120.5 122t-48 132q0 67 36 98t109 31h20v169q0 51 -8 81t-26.5 45.5t-42.5 19.5t-82 4l20 233h55q105 0 173 -20t106.5 -61t58.5 -99.5t20 -173.5v-198h333v-231zM502 1234z" />
    <glyph glyph-name="uni0AAF_uni0ACD.half" horiz-adv-x="903" 
d="M959 433q-85 -60 -171 -86t-188 -26q-190 0 -319.5 100t-198.5 300q132 31 194.5 77t62.5 111q0 48 -34 73.5t-99 25.5q-61 0 -121 -18l-57 215q90 29 197 29q185 0 285.5 -87.5t100.5 -236.5q0 -93 -43 -163.5t-135 -127.5q68 -65 175 -65q65 0 120 19.5t119 70.5z
M108 495z" />
    <glyph glyph-name="uni0AB0_uni0ACD.half" horiz-adv-x="976" 
d="M918 0q-204 0 -337 84.5t-262 264.5l-20 -1q-107 -5 -173 37.5t-66 129.5q0 69 46 108.5t128 39.5q86 0 164 -61q96 32 150.5 91t54.5 135q0 83 -55.5 128t-161.5 45q-136 0 -251 -52l-77 216q167 69 360 69q211 0 338.5 -108t127.5 -297q0 -137 -78 -248.5t-219 -173.5
q61 -64 116.5 -100.5t106.5 -51.5t119 -15h45l-18 -240h-38zM532 0zM478 1234zM488 0zM340 1234zM859 581zM360 -82q81 27 182 27q166 0 300 -78.5t300 -289.5l-190 -125q-118 149 -202.5 204t-205.5 55q-66 0 -112 -17zM347 0zM1112 -342z" />
    <glyph glyph-name="uni0AB2_uni0ACD.half" horiz-adv-x="996" 
d="M900 252q-60 -27 -139.5 -42.5t-154.5 -15.5q-254 0 -395 130.5t-141 363.5q0 208 151.5 351t435.5 195l66 -239q-191 -36 -283 -114.5t-92 -204.5q0 -119 72.5 -184t201.5 -65q102 0 182 35zM1020 654l-434 -89l-57 231l448 88z" />
    <glyph glyph-name="uni0AB3_uni0ACD.half" horiz-adv-x="1144" 
d="M1138 872q-34 12 -77 12q-37 0 -58.5 -20t-21.5 -92v-5q0 -189 -48 -291t-144.5 -155.5t-252.5 -53.5q-210 0 -338 122t-128 329q0 185 127 322.5t357 193.5l64 -236q-270 -74 -270 -282q0 -106 48.5 -161t136.5 -55q70 0 108 29t52 79.5t14 145.5v18q0 127 40 198.5
t117.5 108.5t178.5 37q82 0 155 -21z" />
    <glyph glyph-name="uni0AB5_uni0ACD.half" horiz-adv-x="875" 
d="M922 462q-107 -78 -199 -109.5t-208 -31.5q-199 0 -322 107.5t-123 291.5q0 181 126.5 288.5t334.5 107.5q101 0 209 -16l-23 -230q-54 13 -150 13q-107 0 -164 -44.5t-57 -125.5q0 -78 47.5 -118.5t134.5 -40.5q77 0 143 26.5t137 88.5zM528 1234z" />
    <glyph glyph-name="uni0AB6_uni0ACD.half" horiz-adv-x="965" 
d="M455 659q-342 65 -342 306q0 121 95 195t260 74q206 0 328.5 -108.5t122.5 -300.5q0 -152 -88 -270.5t-250 -180.5q71 -73 135.5 -103.5t147.5 -30.5h35l-27 -240h-46q-157 0 -278 77.5t-243 243.5l-19 -1q-52 -3 -110 10.5t-93.5 53.5t-35.5 103q0 69 48 108.5t130 39.5
q89 0 182 -75q115 34 179 109.5t64 174.5q0 86 -53 136t-131 50q-100 0 -100 -74q0 -83 168 -113zM592 553z" />
    <glyph glyph-name="uni0AB7_uni0ACD.half" horiz-adv-x="891" 
d="M922 452q-176 -131 -379 -131q-127 0 -212 49t-122 130.5t-37 242.5v95q0 81 -18.5 105t-41.5 30t-99 6l20 233h55q164 0 243 -52l425 -285q86 -58 166 -124v-299zM447 761q0 -85 12.5 -126t44 -61t86.5 -20q123 0 225 86l-193 129q-85 56 -180 134q5 -45 5 -108v-34z
M916 873zM907 407zM357 1234z" />
    <glyph glyph-name="uni0AB8_uni0ACD.half" horiz-adv-x="1110" 
d="M1130 555q-92 -43 -202 -43q-99 0 -178 34q-73 -86 -173 -133q62 -67 118.5 -104.5t107 -53t121.5 -15.5h45l-18 -240h-38q-204 0 -337 84.5t-262 264.5l-20 -1q-107 -5 -173 37.5t-66 129.5q0 69 46 108.5t128 39.5q84 0 162 -59q84 32 130.5 90t46.5 134
q0 84 -52.5 128.5t-150.5 44.5q-127 0 -235 -52l-77 216q164 69 353 69q199 0 321 -108.5t122 -296.5q0 -33 -7 -77q39 -11 87 -11q83 0 151 40zM462 581z" />
    <glyph glyph-name="uni0AB9_uni0ACD.half" horiz-adv-x="1025" 
d="M779 984q-98 19 -162 19q-159 0 -159 -112q0 -66 58 -121q91 19 180 19q217 0 399 -74l-88 -224q-140 65 -303 65q-165 0 -258.5 -81t-93.5 -219q0 -112 69 -196t221 -155l-131 -218q-222 109 -329.5 254t-107.5 335q0 120 52 221.5t151 171.5q-97 112 -97 245
q0 146 108.5 233t298.5 87q129 0 239 -25zM611 -548zM537 -80z" />
    <glyph glyph-name="uni0A95_uni0ACD_uni0AB7.akhn_uni0ACD.half" horiz-adv-x="1091" 
d="M1136 559q-119 -49 -313 -49q-76 0 -154.5 14.5t-158.5 44.5q-74 -34 -117 -74t-43 -96q0 -58 51.5 -89t147.5 -31q31 0 66 4v10q0 69 42 108.5t115 39.5q72 0 115.5 -45t43.5 -111q0 -61 -32 -109q23 -33 51 -47.5t85 -14.5h36l-27 -226h-27q-117 0 -198.5 42
t-138.5 133q-53 -10 -138 -10q-222 0 -344.5 91t-122.5 243q0 98 50.5 166.5t165.5 131.5q-75 57 -112.5 124.5t-37.5 146.5q0 122 101 200t279 78q181 0 281.5 -69.5t100.5 -194.5q0 -64 -34.5 -123t-103.5 -114q19 -2 63 -2q134 0 241 42zM515 793q63 32 94.5 67t31.5 73
q0 43 -30 68t-87 25q-55 0 -88 -27t-33 -72q0 -35 28.5 -70t83.5 -64z" />
    <glyph glyph-name="uni0A9C_uni0ACD_uni0A9E.akhn_uni0ACD.half" horiz-adv-x="1095" 
d="M1095 796q-49 -12 -106 -12q-58 0 -111.5 11.5t-103 34t-155.5 82.5q-94 52 -152 52q-87 0 -87 -69q0 -42 36.5 -67t155.5 -48q194 -37 283 -116t89 -210q0 -134 -91.5 -219.5t-257.5 -106.5q66 -44 166 -44h55l-29 -216h-39q-138 0 -249.5 64t-212.5 204
q-229 39 -229 191q0 55 40.5 92.5t104.5 37.5q59 0 111 -24.5t119 -92.5q27 -3 57 -3q89 0 136 28.5t47 79.5t-39.5 75.5t-126.5 40.5q-208 37 -301 121t-93 225q0 123 93 206t252 83q140 0 303 -90q84 -46 139.5 -68t108.5 -22t87 13v-233zM758 1234z" />
    <glyph glyph-name="uni0A95_uni0ABC.nukt_uni0ACD.half" horiz-adv-x="1108" 
d="M812 986q-89 19 -180 19q-175 0 -175 -99q0 -33 26 -63t92 -66l1 1h586v-228h-153q-75 0 -113 4q57 -46 83.5 -103t26.5 -134q0 -154 -120.5 -246t-352.5 -92q-279 0 -495 133l130 199q104 -54 182 -75.5t159 -21.5q103 0 159.5 33.5t56.5 93.5q0 59 -50.5 103t-131.5 79
l-386 -139l-91 220l251 84q-70 55 -104.5 116t-34.5 128q0 137 119.5 219.5t322.5 82.5q138 0 238 -25zM37 617zM554 -122q63 0 106.5 -43.5t43.5 -109.5t-43.5 -109.5t-106.5 -43.5t-106.5 43.5t-43.5 109.5t43.5 109.5t106.5 43.5zM554 0z" />
    <glyph glyph-name="uni0A96_uni0ABC.nukt_uni0ACD.half" horiz-adv-x="1222" 
d="M1271 573q-50 -33 -92 -44t-96 -11q-71 0 -121 26q-40 -115 -134 -169t-256 -54q-102 0 -178 25t-129 80t-73 126.5t-20 190.5v86q0 51 -8 81t-26.5 45.5t-42.5 19.5t-82 4l20 233h55q110 0 180 -22.5t109 -71t54.5 -110t15.5 -159.5v-112q0 -83 16 -117.5t46.5 -50
t65.5 -15.5q58 0 88.5 21t46.5 61t16 118v244l275 -22v-181q24 -44 83 -44q58 0 104 31zM1219 1234zM608 189q63 0 106.5 -43.5t43.5 -109.5t-43.5 -109.5t-106.5 -43.5t-106.5 43.5t-43.5 109.5t43.5 109.5t106.5 43.5z" />
    <glyph glyph-name="uni0A97_uni0ABC.nukt_uni0ACD.half" horiz-adv-x="917" 
d="M467 339q-140 0 -251.5 67.5t-204.5 211.5l202 120q56 -88 109.5 -125.5t117.5 -37.5q82 0 119 49t37 152q0 116 -45.5 171.5t-149.5 55.5q-108 0 -217 -48l-75 210q148 69 325 69q205 0 321 -123t116 -340q0 -211 -108 -321.5t-296 -110.5zM501 209q63 0 106.5 -43.5
t43.5 -109.5t-43.5 -109.5t-106.5 -43.5t-106.5 43.5t-43.5 109.5t43.5 109.5t106.5 43.5z" />
    <glyph glyph-name="uni0A98_uni0ABC.nukt_uni0ACD.half" horiz-adv-x="900" 
d="M979 332q-124 -72 -216 -97t-209 -25q-173 0 -285.5 88.5t-112.5 235.5q0 93 47 164q-133 112 -133 260q0 128 101 202t280 74q124 0 223 -23l-45 -218q-52 13 -143 13q-74 0 -109.5 -22t-35.5 -59q0 -55 58 -92q70 19 147 19q82 0 157 -17l-35 -222q-52 11 -113 11
q-66 0 -98.5 -23.5t-32.5 -64.5q0 -95 151 -95q83 0 156 27t150 85zM511 79q63 0 106.5 -43.5t43.5 -109.5t-43.5 -109.5t-106.5 -43.5t-106.5 43.5t-43.5 109.5t43.5 109.5t106.5 43.5zM511 201z" />
    <glyph glyph-name="uni0A99_uni0ABC.nukt_uni0ACD.half" horiz-adv-x="1112" 
d="M816 980q-101 26 -185 26q-133 0 -133 -75q0 -28 11.5 -47t45.5 -42t129 -73q179 -93 257.5 -187t78.5 -238q0 -164 -117.5 -264t-316.5 -100q-178 0 -319.5 77.5t-255.5 239.5l214 127q155 -211 347 -211q82 0 126 32.5t44 91.5q0 62 -45 109.5t-174 113.5
q-157 80 -229.5 164.5t-72.5 208.5q0 132 110 216.5t292 84.5q132 0 244 -24zM944 980q61 0 100.5 -41t39.5 -102q0 -62 -40 -103t-100 -41t-100.5 41.5t-40.5 102.5q0 60 40 101.5t101 41.5zM572 0zM598 1234zM526 0zM460 1234zM45 218zM504 536zM245 -122
q63 0 106.5 -43.5t43.5 -109.5t-43.5 -109.5t-106.5 -43.5t-106.5 43.5t-43.5 109.5t43.5 109.5t106.5 43.5zM245 0zM422 -82q81 27 182 27q166 0 300 -78.5t300 -289.5l-190 -125q-118 149 -202.5 204t-205.5 55q-66 0 -112 -17zM409 0zM1174 -342z" />
    <glyph glyph-name="uni0A9A_uni0ABC.nukt_uni0ACD.half" horiz-adv-x="985" 
d="M1075 351q-145 -115 -358 -115q-157 0 -254.5 53.5t-168.5 155.5h-32q-101 0 -154.5 41.5t-53.5 117.5q0 67 39.5 101.5t115.5 34.5q93 0 173 -70q63 27 97 73t34 106q0 77 -47 117.5t-139 40.5q-103 0 -201 -41l-76 206q154 62 298 62q203 0 316.5 -99t113.5 -271
q0 -114 -54.5 -204.5t-161.5 -147.5q67 -46 154 -46q73 0 133 23t117 68zM536 119q63 0 106.5 -43.5t43.5 -109.5t-43.5 -109.5t-106.5 -43.5t-106.5 43.5t-43.5 109.5t43.5 109.5t106.5 43.5zM536 241z" />
    <glyph glyph-name="uni0A9B_uni0ABC.nukt_uni0ACD.half" horiz-adv-x="1602" 
d="M228 610q-77 66 -117.5 140.5t-40.5 163.5q0 148 103 234t283 86q119 0 218 -23l-45 -223q-58 13 -126 13q-73 0 -114 -29t-41 -84q0 -85 93 -147q85 25 182 25q82 0 121 -9l-31 -227q-25 4 -84 4q-97 0 -152.5 -40t-55.5 -108q0 -173 258 -173q176 0 308.5 74.5t204 207
t71.5 273.5q0 119 -37.5 179.5t-108.5 60.5q-49 0 -75 -29t-26 -74q0 -123 208 -164l-72 -228q-197 47 -292.5 147.5t-95.5 258.5q0 140 90.5 227.5t247.5 87.5q202 0 320.5 -124t118.5 -362q0 -225 -103 -401.5t-299.5 -272t-466.5 -95.5q-253 0 -390.5 107.5t-137.5 288.5
q0 134 84 235zM782 0zM1059 1234zM716 0zM921 1234zM485 -122q63 0 106.5 -43.5t43.5 -109.5t-43.5 -109.5t-106.5 -43.5t-106.5 43.5t-43.5 109.5t43.5 109.5t106.5 43.5zM485 0zM702 -82q81 27 182 27q166 0 300 -78.5t300 -289.5l-190 -125q-118 149 -202.5 204
t-205.5 55q-66 0 -112 -17zM689 0zM1454 -342z" />
    <glyph glyph-name="uni0A9C_uni0ABC.nukt_uni0ACD.half" horiz-adv-x="1875" 
d="M1437 877q95 17 257 17h191v-228h-268h-13q-6 -1 -12 -1q46 -71 69 -145.5t23 -153.5q0 -182 -108.5 -284.5t-302.5 -102.5q-190 0 -295.5 104.5t-105.5 270.5q0 146 73 256.5t214 180.5q-73 63 -159 108t-185 71q30 -85 30 -160q0 -154 -102 -245.5t-300 -91.5
q-178 0 -283 101t-105 266q0 110 63.5 201t182 142t275.5 51q255 0 461.5 -85t399.5 -272zM559 1012q-110 0 -171.5 -47t-61.5 -124q0 -65 33.5 -101.5t91.5 -36.5q70 0 108 40t38 105q0 87 -38 164zM1319 617q-85 -36 -130.5 -101t-45.5 -154q0 -76 33.5 -115.5t96.5 -39.5
q136 0 136 153q0 67 -22.5 131.5t-67.5 125.5zM1281 -122q63 0 106.5 -43.5t43.5 -109.5t-43.5 -109.5t-106.5 -43.5t-106.5 43.5t-43.5 109.5t43.5 109.5t106.5 43.5zM1281 0z" />
    <glyph glyph-name="uni0A9D_uni0ABC.nukt_uni0ACD.half" horiz-adv-x="1422" 
d="M922 587q7 -62 7 -111q0 -244 -113.5 -370t-316.5 -126q-150 0 -264 68t-215 217l206 123q74 -102 127.5 -136.5t122.5 -34.5q88 0 131.5 65t43.5 197q0 147 -53.5 221t-160.5 74q-123 0 -236 -52l-77 216q157 69 342 69q127 0 222 -49t158 -146q57 19 124 27v395
l275 -22v-398q59 -21 111 -60t97 -96l-234 -156q-46 60 -85.5 85.5t-102.5 25.5q-55 0 -109 -26zM772 -122q63 0 106.5 -43.5t43.5 -109.5t-43.5 -109.5t-106.5 -43.5t-106.5 43.5t-43.5 109.5t43.5 109.5t106.5 43.5zM772 0z" />
    </font>
</defs>
</svg>
