<?xml version="1.0" standalone="no"?>
<!DOCTYPE svg PUBLIC "-//W3C//DTD SVG 1.1//EN" "http://www.w3.org/Graphics/SVG/1.1/DTD/svg11.dtd" >
<svg xmlns="http://www.w3.org/2000/svg" xmlns:xlink="http://www.w3.org/1999/xlink" version="1.1">
<metadata>
Created by FontForge 20190801 at Mon Apr 13 04:13:08 2020
 By www-data
Copyright 2016 Google Inc. All Rights Reserved.
</metadata>
<defs>
<font id="NotoSansCherokeeVF" horiz-adv-x="0" >
  <font-face 
    font-family="NotoSansCherokeeVF"
    font-weight="400"
    font-stretch="normal"
    units-per-em="1000"
    panose-1="0 0 0 0 0 0 0 0 0 0"
    ascent="800"
    descent="-200"
    bbox="-493 -269 1277 783"
    underline-thickness="50"
    underline-position="-125"
    unicode-range="U+000D-ABBF"
  />
<missing-glyph horiz-adv-x="600" 
d="M94 714h411v-714h-411v714zM145 663v-612h309v612h-309z" />
    <glyph glyph-name=".notdef" horiz-adv-x="600" 
d="M94 714h411v-714h-411v714zM145 663v-612h309v612h-309z" />
    <glyph glyph-name=".null" 
 />
    <glyph glyph-name="nonmarkingreturn" horiz-adv-x="333" 
 />
    <glyph glyph-name="NULL" 
 />
    <glyph glyph-name="NULL" 
 />
    <glyph glyph-name="CR" unicode="&#xd;" horiz-adv-x="260" 
 />
    <glyph glyph-name="space" unicode=" " horiz-adv-x="260" 
 />
    <glyph glyph-name="uni00A0" unicode="&#xa0;" horiz-adv-x="260" 
 />
    <glyph glyph-name="gravecomb" unicode="&#x300;" 
d="M-388 766q11 -22 27.5 -49.5t35 -53.5t33.5 -45v-12h-59q-17 14 -38 33.5t-41.5 41t-37 41.5t-25.5 34v10h105z" />
    <glyph glyph-name="acutecomb" unicode="&#x301;" 
d="M-144 766v-10q-9 -14 -26 -34t-37.5 -41.5t-41 -41t-38.5 -33.5h-58v12q15 19 32.5 45t34.5 53.5t28 49.5h106z" />
    <glyph glyph-name="uni0302" unicode="&#x302;" 
d="M46 766q12 -22 34.5 -49.5t47 -54t43.5 -45.5v-11h-62q-26 16 -54 39.5t-55 50.5q-27 -27 -54 -50t-53 -40h-60v11q19 20 42.5 46t45.5 53.5t35 49.5h90z" />
    <glyph glyph-name="uni0304" unicode="&#x304;" 
d="M149 677v-71h-297v71h297z" />
    <glyph glyph-name="uni030B" unicode="&#x30b;" 
d="M233 766v-10q-8 -13 -23 -33t-34.5 -42t-39 -41.5t-36.5 -33.5h-50v12q14 19 30 45t31.5 53.5t25.5 49.5h96zM57 766v-10q-8 -13 -23 -33t-34.5 -42t-39 -41.5t-36.5 -33.5h-50v12q14 19 30 45t31 53.5t26 49.5h96z" />
    <glyph glyph-name="uni030C" unicode="&#x30c;" 
d="M169 766v-13q-19 -19 -43.5 -45t-47 -52.5t-34.5 -49.5h-90q-13 23 -35 49.5t-46 52.5t-42 45v13h60q26 -17 54 -41t53 -51q27 27 55 51t54 41h62z" />
    <glyph glyph-name="dotbelowcomb" unicode="&#x323;" 
d="M-351 -120q0 29 15.5 42.5t36.5 13.5t36.5 -13.5t15.5 -42.5q0 -28 -15.5 -42t-36.5 -14t-36.5 14t-15.5 42z" />
    <glyph glyph-name="uni0324" unicode="&#x324;" 
d="M-141 681q0 26 14 37.5t33 11.5t33 -11.5t14 -37.5q0 -25 -14 -37.5t-33 -12.5t-33 12.5t-14 37.5zM47 681q0 26 13.5 37.5t32.5 11.5t33 -11.5t14 -37.5q0 -25 -14 -37.5t-33 -12.5t-32.5 12.5t-13.5 37.5z" />
    <glyph glyph-name="uni0330" unicode="&#x330;" 
d="M183 -55q-6 -58 -34 -93t-75 -35q-21 0 -41 8.5t-39.5 20t-37 20t-34.5 8.5q-24 0 -36 -14.5t-19 -43.5h-51q6 59 34.5 93.5t75.5 34.5q22 0 42.5 -8.5t39.5 -20t36.5 -20t33.5 -8.5q23 0 35.5 14.5t19.5 43.5h50z" />
    <glyph glyph-name="uni0331" unicode="&#x331;" 
d="M149 -76v-71h-297v71h297z" />
    <glyph glyph-name="uni13A0" unicode="&#x13a0;" horiz-adv-x="804" 
d="M70 0v51l83 9v594l-83 9v51h308q161 0 250 -92t89 -259q0 -176 -92.5 -269.5t-267.5 -93.5h-287zM238 62h111q138 0 209 76t71 222q0 142 -68 217t-197 75h-126v-590z" />
    <glyph glyph-name="uni13A1" unicode="&#x13a1;" horiz-adv-x="732" 
d="M621 -5q-54 0 -74.5 27.5t-28.5 68.5l-14 81q-7 43 -20 73t-32 47.5t-44 22.5h-171v-258l90 -8v-49h-257v49l83 8v600l-83 8v49h296q88 0 146 -20.5t86.5 -61.5t28.5 -103q0 -75 -37.5 -122t-108.5 -62v-4q27 -9 47.5 -29.5t34 -50t20.5 -66.5l18 -89q5 -28 18 -39.5
t36 -11.5q9 0 15.5 0.5t10.5 1.5l6 -51q-11 -4 -27 -7.5t-39 -3.5zM237 375h142q80 0 120 35t40 107q0 58 -22 86.5t-64 38.5t-102 10h-114v-277z" />
    <glyph glyph-name="uni13A2" unicode="&#x13a2;" horiz-adv-x="698" 
d="M205 0v49l102 8v595h-202l-8 -113h-63v175h630v-175h-63l-8 113h-202v-595l101 -8v-49h-287z" />
    <glyph glyph-name="uni13A3" unicode="&#x13a3;" horiz-adv-x="877" 
d="M548 -11v63q63 12 104.5 38.5t62.5 68t21 97.5q0 95 -67 154t-193 84q-16 -15 -33 -28.5t-34 -24.5t-34 -20q30 -20 50.5 -48.5t31 -63.5t10.5 -77q0 -67 -25.5 -117.5t-71.5 -78.5t-108 -28q-96 0 -150.5 57.5t-54.5 158.5q0 69 25.5 119.5t71.5 78t108 27.5
q10 0 19.5 -1t19.5 -3q36 17 66.5 40.5t49.5 48t20 44.5v79l-85 8v49h249v-49l-85 -8v-108q152 -35 226.5 -107t74.5 -185q0 -74 -33 -132t-93.5 -93.5t-142.5 -42.5zM262 69q60 0 94 43t34 118q0 74 -33.5 115.5t-94.5 41.5q-59 0 -93 -43t-34 -117t33.5 -116t93.5 -42z
" />
    <glyph glyph-name="uni13A4" unicode="&#x13a4;" horiz-adv-x="1103" 
d="M371 -11q-101 0 -170 42t-104 124.5t-35 202.5q0 118 36.5 199.5t106.5 124.5t169 43q114 0 185.5 -61t102.5 -185q19 -76 63.5 -120t105.5 -44q74 0 109.5 49t35.5 151q0 71 -21.5 106.5t-64.5 35.5q-39 0 -57.5 -25.5t-18.5 -79.5v-16v-16h-59q-1 8 -2 21t-1 32
q0 68 35.5 107t98.5 39q76 0 117.5 -53t41.5 -151q0 -85 -24.5 -145.5t-71 -92.5t-111.5 -32q-55 0 -95 21t-70 67q-10 -169 -87 -256.5t-215 -87.5zM371 57q73 0 121.5 33t73 100t24.5 167q0 150 -54.5 225t-161.5 75q-74 0 -124 -33.5t-75 -100t-25 -166.5q0 -98 25 -165
t74 -101t122 -34z" />
    <glyph glyph-name="uni13A5" unicode="&#x13a5;" horiz-adv-x="339" 
d="M45 0v49l85 8v411h80v-411l85 -8v-49h-250zM170 606q-25 0 -39 16t-14 44q0 29 14 44t39 15t38.5 -15.5t13.5 -43.5t-14 -44t-38 -16z" />
    <glyph glyph-name="uni13A6" unicode="&#x13a6;" horiz-adv-x="706" 
d="M319 -11q-53 0 -100.5 15.5t-76.5 45t-29 72.5q0 30 16 48t42 18q25 0 39 -12.5t14 -35.5q0 -16 -8.5 -27t-27.5 -18q10 -12 29 -21t45.5 -14t56.5 -5q54 0 92 13.5t58 40t20 63.5q0 33 -16.5 61t-51.5 52.5t-91 46.5h-242v56h67q27 0 47 -0.5t34 -2.5v4q-37 24 -60 48.5
t-33.5 51.5t-10.5 58q0 54 27.5 94t78.5 62t119 22q53 0 101 -16.5t78.5 -46.5t30.5 -73q0 -31 -14.5 -48.5t-42.5 -17.5q-25 0 -39 12.5t-14 34.5q0 15 8 27.5t21 19.5q-7 14 -25.5 23.5t-45.5 15t-59 5.5q-69 0 -106.5 -27.5t-37.5 -79.5q0 -34 14.5 -61t48 -50t89.5 -48
h254v-56h-85q-23 0 -43 1t-37 2v-5q45 -28 71 -53.5t36.5 -51.5t10.5 -58q0 -58 -30 -99.5t-86.5 -63.5t-135.5 -22z" />
    <glyph glyph-name="uni13A7" unicode="&#x13a7;" horiz-adv-x="820" 
d="M393 -11q-97 0 -172.5 36.5t-118.5 104.5t-43 160q0 70 24 122t68.5 80.5t103.5 28.5q81 0 128 -47t47 -127q0 -56 -23 -102.5t-67.5 -82t-109.5 -58.5q29 -23 70 -35t93 -12q87 0 149 40t95 110t33 160q0 68 -19.5 121.5t-57.5 91t-91 57.5t-121 20q-36 0 -75 -8.5
t-73.5 -23.5t-59.5 -35l-39 51q29 26 68.5 45t86.5 29t96 10q117 0 200.5 -43t128 -123t44.5 -192q0 -114 -45 -199t-127 -132t-193 -47zM189 148q49 15 84.5 44t54.5 68.5t19 85.5q0 53 -23.5 84.5t-64.5 31.5q-55 0 -85.5 -45t-30.5 -125q0 -43 12 -82t34 -62z" />
    <glyph glyph-name="uni13A8" unicode="&#x13a8;" horiz-adv-x="716" 
d="M70 0v49l83 8v600l-83 8v49h249v-49l-81 -8v-273l187 114v0q13 -50 25 -87.5t31.5 -57.5t53.5 -20q40 0 64 33t37 104l60 -6q-12 -103 -52 -151.5t-114 -48.5q-36 0 -64.5 14.5t-49.5 44.5t-35 75l-143 -85v-256l81 -8v-49h-249z" />
    <glyph glyph-name="uni13A9" unicode="&#x13a9;" horiz-adv-x="752" 
d="M212 -11q-50 0 -76 23t-26 55q0 24 15 39t43 15q23 0 35.5 -12t12.5 -32q0 -7 -2 -12t-4 -8q2 -4 6 -6.5t11 -2.5q30 0 60.5 28t61.5 86l-252 495l-66 8v49h254v-49l-89 -8l152 -325q11 -23 22.5 -49t20.5 -50h3q7 16 14.5 34t16 36t15.5 34l150 320l-90 8v49h232v-49
l-59 -8l-199 -409q-22 -46 -47 -92t-55 -84t-69.5 -60.5t-90.5 -22.5z" />
    <glyph glyph-name="uni13AA" unicode="&#x13aa;" horiz-adv-x="748" 
d="M8 0v49l81 8l240 657h106l224 -657l81 -8v-49h-262v49l90 8l-52 165h-288l-58 -165l90 -8v-49h-252zM249 284h247l-64 207q-20 65 -33 109t-18 66h-4q-6 -22 -20 -66t-37 -112z" />
    <glyph glyph-name="uni13AB" unicode="&#x13ab;" horiz-adv-x="592" 
d="M225 -11q-53 0 -99 17t-74 49t-28 76q0 37 16 57.5t44 20.5q25 0 39 -12.5t14 -33.5q0 -19 -8 -31t-25 -18q8 -20 23.5 -33.5t39 -20t54.5 -6.5q76 0 113 51.5t37 154.5v397l-88 8v49h254v-49l-82 -8v-390q0 -137 -58.5 -207.5t-171.5 -70.5z" />
    <glyph glyph-name="uni13AC" unicode="&#x13ac;" horiz-adv-x="705" 
d="M70 0v49l83 8v600l-83 8v49h566v-166h-66l-5 104h-327v-254h176l5 75h58v-211h-58l-5 75h-176v-275h336l5 104h66v-166h-575z" />
    <glyph glyph-name="uni13AD" unicode="&#x13ad;" horiz-adv-x="1000" 
d="M527 0v370l-130 -82q-9 -76 -58 -120t-123 -44q-82 0 -131.5 53t-49.5 143q0 89 50.5 143t132.5 54q72 0 119.5 -42t58.5 -117l131 80v219l-100 8v49h265v-49l-87 -8v-317q0 -75 -2 -146t-5 -124h3q17 34 41 74.5t56 91.5l117 186l-85 8v49h248v-49l-81 -7l-277 -423h-93
zM216 182q52 0 81 37t29 101q0 66 -28 102t-80 36t-81 -36.5t-29 -101.5t28.5 -101.5t79.5 -36.5z" />
    <glyph glyph-name="uni13AE" unicode="&#x13ae;" horiz-adv-x="627" 
d="M70 0v49l83 8v433l-83 8v49h243v-49l-76 -8v-115h55q107 0 159.5 44t52.5 135q0 77 -53.5 119t-153.5 42q-45 0 -92.5 -9.5t-84.5 -26.5l-25 54q35 23 90.5 36.5t116.5 13.5q85 0 148 -28t97.5 -79t34.5 -119q0 -60 -18.5 -105.5t-55 -76.5t-90 -47t-123.5 -16h-58v-255
l83 -8v-49h-250z" />
    <glyph glyph-name="uni13AF" unicode="&#x13af;" horiz-adv-x="770" 
d="M96 -5q-34 0 -55 16t-21 43q0 23 14.5 38t36.5 15q18 0 32 -9.5t14 -32.5v-4.5v-4.5q27 5 44.5 30.5t28 66.5t17 93.5t10.5 110.5q11 138 38.5 218.5t78 115t128.5 34.5q74 0 120 -28.5t70.5 -80t34 -122.5t9.5 -156q0 -83 -10.5 -147t-32 -107.5t-54 -66t-76.5 -22.5
q-34 0 -55 16t-21 43q0 23 14 37.5t36 14.5q18 0 33 -8.5t15 -29.5v-5v-6q19 1 31.5 24.5t20 61t11 79.5t3.5 79h-319q-9 -65 -22 -120.5t-35 -97.5t-55.5 -65t-83.5 -23zM298 364h314q-1 66 -7 120.5t-22 93.5t-46 60.5t-79 21.5q-54 0 -87 -29.5t-49.5 -94.5t-23.5 -172z
" />
    <glyph glyph-name="uni13B0" unicode="&#x13b0;" horiz-adv-x="610" 
d="M70 0v49l83 8v600l-83 8v49h250v-49l-82 -8v-257h244l9 94h53v-250h-53l-9 89h-244v-276l82 -8v-49h-250z" />
    <glyph glyph-name="uni13B1" unicode="&#x13b1;" horiz-adv-x="641" 
d="M70 0v49l83 8v600l-83 8v49h547v-190h-67l-6 128h-305v-595l94 -8v-49h-263z" />
    <glyph glyph-name="uni13B2" unicode="&#x13b2;" horiz-adv-x="910" 
d="M241 -11q-97 0 -144 53.5t-47 150.5q0 17 1 31.5t3 27.5h71q-1 -7 -1.5 -21t-0.5 -28q0 -73 29.5 -110t89.5 -37q34 0 65.5 16.5t62.5 49.5q-46 54 -79 115t-50 124.5t-17 124.5q0 110 54.5 174.5t146.5 64.5q88 0 139 -59.5t51 -161.5q0 -60 -18.5 -128t-51.5 -133
t-76 -117q33 -35 67.5 -52.5t70.5 -17.5q67 0 100 37.5t39 118.5l-91 8v49h237v-49l-75 -8q-7 -106 -62 -164.5t-147 -58.5q-33 0 -65 9.5t-62.5 28t-60.5 45.5q-39 -40 -85 -61.5t-94 -21.5zM422 170q33 49 58.5 106.5t39.5 115.5t14 107q0 78 -28 119.5t-82 41.5
q-53 0 -85 -44t-32 -117q0 -56 14 -114t39.5 -113t61.5 -102z" />
    <glyph glyph-name="uni13B3" unicode="&#x13b3;" horiz-adv-x="1077" 
d="M279 0l-185 657l-82 8v49h256v-49l-83 -8l123 -476q5 -20 9.5 -39t8 -37t6.5 -36h4q7 26 14.5 54.5t16.5 57.5l135 458l-4 18l-82 8v49h246v-49l-85 -8l118 -472q7 -26 11 -44.5t7.5 -35t7.5 -37.5h4q5 21 10.5 40l11 38t11.5 39l144 472l-87 8v49h250v-49l-81 -8
l-216 -657h-99l-88 346q-10 38 -22 89.5t-20 92.5h-4q-9 -38 -21.5 -82.5t-30.5 -104.5l-104 -341h-100z" />
    <glyph glyph-name="uni13B4" unicode="&#x13b4;" horiz-adv-x="783" 
d="M242 -11q-90 0 -143 63t-53 170q0 73 26.5 128.5t73.5 86.5t109 31q50 0 84.5 -19.5t49.5 -52.5h4q0 12 -0.5 24t-1 25.5t-0.5 28.5v42q0 66 22.5 113t64.5 71.5t101 24.5q50 0 89 -19.5t61.5 -54.5t22.5 -80q0 -42 -15.5 -63.5t-45.5 -21.5q-24 0 -38 13t-14 35
q0 18 9 30.5t28 20.5q-2 38 -28 59t-68 21q-54 0 -81.5 -35t-27.5 -102l4 -240q0 -148 -57 -223.5t-176 -75.5zM256 51q66 0 102.5 53t36.5 144q0 70 -36 113t-95 43q-46 0 -76 -24.5t-44.5 -65t-14.5 -89.5q0 -82 33.5 -128t93.5 -46z" />
    <glyph glyph-name="uni13B5" unicode="&#x13b5;" horiz-adv-x="679" 
d="M55 0v49l83 8v382q0 140 66 213t191 73q70 0 124 -27.5t84.5 -76.5t30.5 -112q0 -62 -21.5 -110.5t-59 -76.5t-86.5 -28q-29 0 -47 14.5t-18 38.5q0 23 14 36.5t36 13.5q17 0 28.5 -9t15.5 -26q19 9 32.5 29t20.5 49t7 65q0 48 -19.5 83t-56 53.5t-86.5 18.5
q-84 0 -128 -56t-44 -161v-386l83 -8v-49h-250z" />
    <glyph glyph-name="uni13B6" unicode="&#x13b6;" horiz-adv-x="705" 
d="M387 -11q-103 0 -176 42.5t-111 123t-38 195.5q0 114 40 198t115.5 130.5t182.5 46.5q46 0 92 -11t84 -29.5t59 -41.5v-120h-67l-6 88q-23 21 -67.5 33.5t-94.5 12.5q-81 0 -137 -34.5t-84.5 -102.5t-28.5 -167q0 -96 28 -162t82 -100t132 -34q58 0 100 17.5t65.5 49.5
t23.5 75q0 62 -29 90t-91 28l-3 -94h-64v241h64l3 -86q66 -1 109 -21t64 -57.5t21 -94.5q0 -68 -36.5 -116.5t-97 -74t-134.5 -25.5z" />
    <glyph glyph-name="uni13B7" unicode="&#x13b7;" horiz-adv-x="1002" 
d="M70 0v49l82 8v600l-82 8v49h232l165 -521q11 -34 18 -60.5t12 -49.5h7q5 23 13.5 52t18.5 60l170 519h226v-49l-82 -8v-600l82 -8v-49h-236v49l71 8v321q0 54 0.5 98t1 85.5t1.5 85.5h-13l-218 -647h-91l-214 647h-12q2 -35 3.5 -76t2 -91t0.5 -113v-310l70 -8v-49h-228z
" />
    <glyph glyph-name="uni13B8" unicode="&#x13b8;" horiz-adv-x="811" 
d="M500 0v49l89 8v225q-19 -19 -40 -33.5t-45 -24.5t-51 -14.5t-56 -4.5q-69 0 -112.5 26t-65.5 81h-99l-5 -95h-63v250h63l5 -91h160q7 -36 21.5 -59t38.5 -34t58 -11q42 0 79 12.5t66 36.5t46 56v44q0 116 -43.5 178t-136.5 62q-30 0 -53.5 -6.5t-38.5 -16.5t-22 -21
q16 -7 23.5 -18t7.5 -27q0 -21 -13.5 -34t-37.5 -13q-27 0 -42.5 15.5t-15.5 42.5q0 33 21.5 65.5t66.5 54.5t114 22q133 0 193.5 -78.5t60.5 -233.5v-356l83 -8v-49h-256z" />
    <glyph glyph-name="uni13B9" unicode="&#x13b9;" horiz-adv-x="988" 
d="M337 -8q-76 0 -118.5 43.5t-42.5 120.5q0 36 8.5 70.5t25 68t41.5 65.5q-3 1 -8.5 1.5t-12.5 0.5q-53 0 -90 -31.5t-46 -81.5h-68q7 54 36.5 92.5t77 59.5t105.5 21q17 0 29.5 -1t17.5 -2q26 33 34 75.5t8 88.5v76l-85 3v52h251v-52l-84 -3v-96q5 -12 18 -19t34 -7
q35 0 66.5 20t64.5 48q36 30 67 50t62 30t64 10q74 0 118 -40t44 -106q0 -48 -20.5 -83t-58.5 -56t-89 -28v66q42 6 68 30.5t26 64.5q0 39 -23.5 60.5t-65.5 21.5q-27 0 -51 -9t-48 -26t-53 -41q-45 -37 -83 -58.5t-81 -21.5q-25 0 -43 7.5t-27 17.5q-7 -25 -17 -47.5
t-24 -42.5q70 -28 107 -82.5t37 -125.5q0 -64 -20.5 -109.5t-58.5 -70t-92 -24.5zM338 55q45 0 69.5 37t24.5 104q0 56 -28 97.5t-78 57.5q-27 -33 -44 -62.5t-24.5 -58.5t-7.5 -62q0 -53 23 -83t65 -30z" />
    <glyph glyph-name="uni13BA" unicode="&#x13ba;" horiz-adv-x="1054" 
d="M384 -10q-103 0 -175 43t-109.5 125t-37.5 200q0 117 38 199t110.5 125t174.5 43q93 0 161 -38t108 -110.5t48 -176.5h154v313h84v-713h-84v338h-154q-3 -108 -43 -186t-110 -120t-165 -42zM384 57q77 0 128.5 34.5t78 101.5t26.5 164q0 98 -26.5 165t-78 101.5
t-127.5 34.5q-77 0 -129.5 -34.5t-79 -101.5t-26.5 -165q0 -96 27 -163t79.5 -102t127.5 -35z" />
    <glyph glyph-name="uni13BB" unicode="&#x13bb;" horiz-adv-x="849" 
d="M70 0v49l83 8v600l-83 8v49h250v-49l-82 -8v-257h374v257l-82 8v49h249v-49l-82 -8v-600l82 -8v-49h-249v49l82 8v281h-374v-281l82 -8v-49h-250z" />
    <glyph glyph-name="uni13BC" unicode="&#x13bc;" horiz-adv-x="809" 
d="M478 -11q-81 0 -138.5 28t-87.5 80t-31 123h81q2 -76 50 -119.5t127 -43.5q58 0 104.5 23.5t73.5 72t27 123.5q0 104 -63 157.5t-182 57.5q-58 -74 -122.5 -109.5t-138.5 -35.5q-52 0 -94.5 23t-67.5 64l48 45q29 -32 58 -46t65 -14q43 0 82 19.5t72 51.5t56 68v100
l-86 8v49h251v-49l-85 -8v-102q143 -7 216.5 -79t73.5 -196q0 -83 -34.5 -149t-99.5 -104t-155 -38z" />
    <glyph glyph-name="uni13BD" unicode="&#x13bd;" horiz-adv-x="808" 
d="M250 -11q-52 0 -88.5 20t-56 59.5t-21.5 97.5l-69 8v49h207v-49l-59 -8q0 -54 23 -83t67 -29q26 0 49 12.5t45 38.5t44 66l-317 543h101l209 -363q14 -23 27 -49.5t23 -50.5h3q12 26 24 52.5t25 51.5l146 302l-96 8v49h252v-49l-71 -8l-228 -460q-35 -71 -70 -117
t-76 -68.5t-93 -22.5z" />
    <glyph glyph-name="uni13BE" unicode="&#x13be;" horiz-adv-x="773" 
d="M387 -10q-104 0 -177 42.5t-110.5 125t-37.5 200.5q0 116 39 198t112.5 125.5t175.5 43.5t174 -43.5t110 -125.5t38 -199q0 -113 -39.5 -195.5t-112 -127t-172.5 -44.5zM387 57q74 0 125.5 32t80 95t31.5 154h-475q3 -91 31.5 -153.5t80.5 -95t126 -32.5zM150 407h473
q-12 122 -72 186.5t-162 64.5q-71 0 -121.5 -28.5t-80 -84.5t-37.5 -138z" />
    <glyph glyph-name="uni13BF" unicode="&#x13bf;" horiz-adv-x="776" 
d="M545 -78v151h-3q-23 -39 -64.5 -61.5t-106.5 -22.5q-97 0 -150.5 55.5t-53.5 164.5v304h-136v62h138l4 139h78v-139h175v-62h-175v-299q0 -79 33.5 -118t97.5 -39q57 0 93 19.5t53 59t17 98.5v8h-136v62h346v-62h-136v-320h-74z" />
    <glyph glyph-name="uni13C0" unicode="&#x13c0;" horiz-adv-x="778" 
d="M361 -10q-94 0 -161 43t-102.5 123.5t-35.5 194.5q0 113 40.5 197t118 130.5t187.5 46.5q48 0 94 -10.5t83 -28t57 -40.5v-132h-72l-5 97q-26 22 -67.5 34t-89.5 12q-84 0 -141.5 -34.5t-87 -102t-29.5 -167.5q0 -92 26 -158.5t75 -102t117 -35.5q52 0 95 18t71 50.5
t35 74.5v53l-87 9v49h246v-49l-81 -9v-253h-78v92q-33 -51 -85 -76.5t-123 -25.5z" />
    <glyph glyph-name="uni13C1" unicode="&#x13c1;" horiz-adv-x="834" 
d="M96 -6q-34 0 -55 17t-21 45q0 23 14.5 38.5t36.5 15.5q21 0 33.5 -12.5t12.5 -33.5q0 -3 -0.5 -6t-0.5 -5q23 4 39.5 24t27.5 58t19.5 96.5t15.5 139.5q12 130 40.5 207.5t81 112t134.5 34.5q111 0 166.5 -64t55.5 -201v-403l83 -8v-49h-250v49l81 8v397q0 107 -34 155
t-110 48q-63 0 -96 -33.5t-48 -99t-25 -161.5q-8 -75 -18.5 -141.5t-31 -117.5t-56.5 -80.5t-95 -29.5z" />
    <glyph glyph-name="uni13C2" unicode="&#x13c2;" horiz-adv-x="773" 
d="M70 0v49l83 8v600l-83 8v49h257v-49l-89 -8v-174q0 -33 -1 -58t-3 -44h4q18 33 47 56.5t67.5 36.5t83.5 13q111 0 164 -59t53 -181v-190l83 -8v-49h-249v49l82 8v185q0 89 -35 133.5t-108 44.5q-63 0 -105 -24t-62.5 -73t-20.5 -124v-142l82 -8v-49h-250z" />
    <glyph glyph-name="uni13C3" unicode="&#x13c3;" horiz-adv-x="635" 
d="M50 0v63l445 589h-360l-8 -113h-63v175h520v-63l-445 -589h374l9 113h63v-175h-535z" />
    <glyph glyph-name="uni13C4" unicode="&#x13c4;" horiz-adv-x="726" 
d="M421 0v49l84 8v72q0 37 1 72t2 59h-4q-12 -21 -30.5 -38t-42.5 -29.5t-54 -19.5t-65 -7q-92 0 -149.5 47.5t-67.5 130.5l-64 7v48h228v-48l-83 -6q5 -52 42 -83t104 -31q60 0 100.5 28t61.5 77t21 112q0 105 -42 158.5t-129 53.5q-74 0 -113.5 -33t-44.5 -82l83 -5v-49
h-228v49l64 6q10 54 40.5 94t80.5 62.5t117 22.5q126 0 190.5 -71t64.5 -209v-388l83 -8v-49h-250z" />
    <glyph glyph-name="uni13C5" unicode="&#x13c5;" horiz-adv-x="1127" 
d="M371 -10q-100 0 -169 42t-104.5 124t-35.5 202q0 118 36.5 199.5t106.5 124.5t169 43q68 0 121.5 -21t91 -62.5t59.5 -102.5t27 -141l163 100h2q19 -85 41 -125t67 -40q41 0 65 33t37 104l59 -6q-11 -102 -51.5 -151t-113.5 -49q-36 0 -64 14.5t-49 44t-37 75.5l-118 -70
q-5 -105 -43.5 -181t-104 -116.5t-155.5 -40.5zM371 57q74 0 122.5 33t72.5 100t24 167q0 150 -54.5 225.5t-161.5 75.5q-74 0 -124 -33.5t-75 -100.5t-25 -167q0 -98 25 -165t74 -101t122 -34z" />
    <glyph glyph-name="uni13C6" unicode="&#x13c6;" horiz-adv-x="773" 
d="M92 0v175h63l8 -113h179v590h-197l-8 -113h-63v175h600v-175h-63l-8 113h-177v-590h202l7 113h64v-175h-607z" />
    <glyph glyph-name="uni13C7" unicode="&#x13c7;" horiz-adv-x="1035" 
d="M270 -11q-108 0 -164 60t-56 175q0 32 5.5 64.5t15.5 60.5t21 44l69 -3q-13 -27 -21.5 -67t-8.5 -84q0 -89 35.5 -135.5t105.5 -46.5q48 0 84 21t60.5 62t35.5 100q0 35 5 77t9 66h81q-4 -25 -7.5 -54.5t-3.5 -58.5q0 -103 39 -158t118 -55q65 0 108.5 34.5t65.5 102.5
t22 167q0 88 -31.5 153.5t-86.5 102t-128 36.5q-64 0 -109 -24.5t-73 -65.5l-55 43q25 39 61 65.5t82.5 40t102.5 13.5q102 0 174.5 -47.5t111 -130t38.5 -186.5q0 -123 -32.5 -205.5t-96.5 -124.5t-159 -42q-51 0 -91.5 16.5t-68 48.5t-40.5 79h-3q-18 -47 -49 -79.5
t-73 -48.5t-93 -16z" />
    <glyph glyph-name="uni13C8" unicode="&#x13c8;" horiz-adv-x="868" 
d="M419 -11q-90 0 -139.5 59.5t-49.5 167.5q0 95 40.5 194.5t112.5 180.5q-28 32 -63 49.5t-69 17.5q-41 0 -70.5 -19t-45 -54.5t-15.5 -87.5q0 -13 0.5 -22t0.5 -17h-69q-1 9 -1.5 18.5t-0.5 21.5q0 73 24 123.5t70 77t111 26.5q46 0 94 -22t86 -61q46 41 96.5 62t104.5 21
q90 0 143 -45.5t53 -122.5q0 -43 -16.5 -77t-46.5 -56t-71 -28v63q18 7 30.5 20.5t19.5 33.5t7 44q0 46 -33 73.5t-87 27.5q-42 0 -79.5 -16.5t-71.5 -49.5q46 -55 76.5 -114.5t46 -122.5t15.5 -131q0 -69 -26 -122t-71.5 -83t-105.5 -30zM421 55q53 0 84.5 45.5t31.5 122.5
q0 64 -11.5 119.5t-34.5 105t-59 95.5q-35 -40 -62.5 -95t-43 -115t-15.5 -116q0 -79 28.5 -120.5t81.5 -41.5z" />
    <glyph glyph-name="uni13C9" unicode="&#x13c9;" horiz-adv-x="1307" 
d="M533 0l-82 317h-3q-16 -49 -51 -88.5t-84 -62t-108 -22.5q-76 0 -125.5 43t-49.5 120q0 68 42 109.5t109 41.5q50 0 72 -19.5t22 -49.5q0 -23 -13.5 -37.5t-36.5 -14.5q-20 0 -32 11.5t-12 31.5q0 10 3.5 17.5t8.5 11.5l7 -17q-6 2 -11.5 2.5t-10.5 0.5q-37 0 -55.5 -26
t-18.5 -59q0 -47 27 -73.5t82 -26.5q44 0 81 19.5t64 53t42 77t16 91.5l-69 263h87l117 -491q11 -43 21.5 -90t15.5 -79h4q7 31 20 75t28 88l106 327q17 51 27 86t16 61v23h80v-23q6 -16 22.5 -24.5t40.5 -8.5q14 0 35.5 7.5t51.5 21.5q29 14 54.5 20t47.5 6
q69 0 112.5 -41.5t43.5 -106.5q0 -49 -21.5 -86.5t-60 -58.5t-88.5 -21q-62 0 -102 29t-53 84l61 19q11 -36 34.5 -54t59.5 -18q44 0 72 28.5t28 73.5q0 40 -24 63t-65 23q-21 0 -45 -5.5t-52 -19.5q-26 -13 -48 -19.5t-39 -6.5q-26 0 -46.5 7t-36.5 22l-211 -625h-107z" />
    <glyph glyph-name="uni13CA" unicode="&#x13ca;" horiz-adv-x="1068" 
d="M275 -11q-108 0 -166.5 61.5t-58.5 173.5q0 32 5.5 65.5t15.5 61t21 42.5l69 -3q-13 -27 -21.5 -66.5t-8.5 -82.5q0 -88 37.5 -136t106.5 -48q50 0 87 21.5t61.5 65t36.5 107.5q11 57 32 94t53 54.5t74 17.5q38 0 59 -18.5t21 -47.5q0 -24 -13 -39t-36 -15q-21 0 -32 12
t-11 28q0 24 17 27l13 -17q-4 2 -10.5 3t-13.5 1q-34 0 -55.5 -37.5t-21.5 -93.5q0 -47 19.5 -84t55 -58t83.5 -21q73 0 123.5 37.5t77.5 107t27 165.5q0 84 -31 149.5t-88 103t-137 37.5q-64 0 -115 -23t-85 -61l-47 46q26 30 62 54t83.5 38t106.5 14q104 0 179.5 -44
t117 -124.5t41.5 -189.5q0 -117 -38.5 -201.5t-110 -130.5t-172.5 -46q-54 0 -96 17.5t-69 49t-37 71.5h-4q-16 -42 -46 -73t-71 -48t-90 -17z" />
    <glyph glyph-name="uni13CB" unicode="&#x13cb;" horiz-adv-x="665" 
d="M338 -11q-130 0 -201 53.5t-71 151.5q0 51 19.5 92t57 68t89.5 37v4q-68 12 -103 51t-35 100q0 55 30 95t85.5 62t129.5 22q69 0 123.5 -12t95.5 -35l-31 -58q-34 17 -83.5 27t-96.5 10q-53 0 -91.5 -14t-59 -39.5t-20.5 -62.5q0 -56 48.5 -83.5t143.5 -27.5h132v-68
h-132q-104 0 -159.5 -42t-55.5 -115t48 -110.5t141 -37.5q83 0 131 25t48 68q0 26 -18 38.5t-53 12.5h-14v59h22q47 0 78 -13.5t46.5 -39t15.5 -61.5q0 -47 -32.5 -82.5t-90.5 -55t-137 -19.5z" />
    <glyph glyph-name="uni13CC" unicode="&#x13cc;" horiz-adv-x="819" 
d="M412 -9q-141 0 -208 58t-67 180v428l-82 8v49h249v-49l-83 -8v-240h377v240l-83 8v49h249v-49l-82 -8v-435q0 -112 -69.5 -171.5t-200.5 -59.5zM412 59q96 0 141 41.5t45 132.5v122h-377v-117q0 -93 46 -136t145 -43z" />
    <glyph glyph-name="uni13CD" unicode="&#x13cd;" horiz-adv-x="1047" 
d="M255 -11q-96 0 -150.5 57.5t-54.5 158.5q0 68 25.5 118.5t71.5 78.5t108 28q84 0 136.5 -44t65.5 -127l142 63l2 61l-85 9v48h240v-48l-78 -9v-175q0 -82 21 -119.5t68 -37.5q44 0 74 31t45.5 91t15.5 147q0 108 -39.5 182t-115.5 112t-187 38q-61 0 -113 -15
t-93.5 -38.5t-70.5 -49.5l-42 55q32 31 79 58.5t108.5 45t134.5 17.5q101 0 180 -27.5t133.5 -80t83 -127.5t28.5 -171q0 -103 -27 -177t-76.5 -113.5t-119.5 -39.5q-56 0 -93 21.5t-55 66t-18 113.5v71l-140 -72q-7 -93 -61.5 -146.5t-142.5 -53.5zM255 50q59 0 93 43
t34 118q0 74 -33.5 116t-93.5 42t-93.5 -43t-33.5 -118q0 -74 33.5 -116t93.5 -42z" />
    <glyph glyph-name="uni13CE" unicode="&#x13ce;" horiz-adv-x="637" 
d="M305 0v49l82 8v125h-367v65l341 469h110v-467h107v-67h-107v-125l81 -8v-49h-247zM106 249h281v247l3 152h-4l-33 -56z" />
    <glyph glyph-name="uni13CF" unicode="&#x13cf;" horiz-adv-x="672" 
d="M70 0v49l83 8v600l-83 8v49h257v-49l-90 -8v-246h104q99 0 162 -21.5t93.5 -65.5t30.5 -113q0 -105 -76 -158t-227 -53h-254zM237 62h100q105 0 155 36t50 111q0 51 -20 81.5t-64.5 44t-117.5 13.5h-103v-286z" />
    <glyph glyph-name="uni13D0" unicode="&#x13d0;" horiz-adv-x="684" 
d="M217 0v49l83 8v600l-83 8v49h250v-49l-83 -8v-600l83 -8v-49h-250zM171 240q-67 0 -107 35t-40 94q0 35 19 57t48 22q24 0 38 -13t14 -34q0 -20 -12.5 -30t-27.5 -10q-6 0 -11.5 2.5t-10.5 6.5l18 18q-3 -12 -3 -22q0 -34 23.5 -49.5t55.5 -15.5q29 0 66 19t67 53v-77
q-39 -31 -72 -43.5t-65 -12.5zM593 266q-24 0 -38 13t-14 34q0 20 12.5 30t27.5 10q6 0 12 -2t10 -7l-18 -18q3 12 3 22q0 34 -23.5 49.5t-55.5 15.5q-30 0 -67 -18.5t-66 -53.5v77q39 31 72.5 43.5t64.5 12.5q68 0 107.5 -35t39.5 -94q0 -35 -19 -57t-48 -22z" />
    <glyph glyph-name="uni13D1" unicode="&#x13d1;" horiz-adv-x="877" 
d="M359 -8q-79 0 -121.5 44.5t-42.5 126.5q0 34 7 74.5t18 88t24 100.5q-7 -1 -14 -1h-14q-86 0 -130 41.5t-44 114.5q0 63 42.5 103.5t109.5 40.5q49 0 82.5 -17t51 -51.5t17.5 -86.5q0 -17 -1.5 -31.5t-4.5 -29.5q38 14 69 37t60 49t59.5 48.5t67.5 37t84 14.5
q74 0 117.5 -38.5t43.5 -106.5q0 -47 -19.5 -82.5t-56.5 -57.5t-90 -28v61q43 7 68.5 33.5t25.5 66.5q0 36 -23.5 59t-69.5 23q-35 0 -66 -15.5t-62 -39t-64 -49.5t-71 -47.5t-85 -32.5q-8 -34 -16 -68.5t-16 -69.5h27q101 0 150.5 -38.5t49.5 -116.5q0 -45 -19.5 -80
t-56 -55.5t-87.5 -20.5zM363 54q39 0 62 24.5t23 65.5q0 55 -35 79.5t-112 24.5h-18q-4 -20 -7 -40t-3 -40q0 -58 22 -86t68 -28zM221 488q11 0 19.5 1t17.5 2q4 18 6.5 38t2.5 36q0 52 -19 77t-57 25q-37 0 -60 -23.5t-23 -60.5q0 -49 28 -72t85 -23z" />
    <glyph glyph-name="uni13D2" unicode="&#x13d2;" horiz-adv-x="747" 
d="M70 0v49l83 8v600l-83 8v49h320q95 0 154 -25.5t87 -70.5t28 -106q0 -85 -43.5 -136.5t-130.5 -65.5l133 -255l87 -6v-49h-258v49l77 6l-175 361h81l31 -60q58 11 84 48t26 99q0 47 -18.5 80t-61.5 51t-118 18h-135v-595l87 -8v-49h-255z" />
    <glyph glyph-name="uni13D3" unicode="&#x13d3;" horiz-adv-x="630" 
d="M361 -11q-115 0 -169 67.5t-54 209.5v391l-83 8v49h250v-49l-83 -8v-400q0 -102 35 -152t105 -50q73 0 112.5 47t39.5 134q0 53 -15 80t-45 27q-27 0 -41 -20t-14 -60q0 -15 -0.5 -30t-1.5 -30h-59q-1 14 -1.5 30t-0.5 32q0 68 31.5 105.5t87.5 37.5q43 0 72.5 -20
t45 -59.5t15.5 -96.5q0 -75 -27.5 -129.5t-78 -84t-121.5 -29.5z" />
    <glyph glyph-name="uni13D4" unicode="&#x13d4;" horiz-adv-x="995" 
d="M270 0l-244 714h94l165 -512q11 -33 19.5 -60.5t15 -49t10.5 -36.5h4q9 24 17.5 47t17 46.5t17.5 46.5l67 169l-116 349h88l76 -257l90 257h82l-136 -352l55 -170q10 -30 18 -55.5t14 -45.5t10 -35h4q10 31 24.5 72.5t27.5 77.5l189 508h90l-283 -714h-110l-88 274
l-108 -274h-110z" />
    <glyph glyph-name="uni13D5" unicode="&#x13d5;" horiz-adv-x="716" 
d="M287 -11q-36 0 -75 7t-73 19t-56 27v132h64l6 -88q28 -16 62 -23t75 -7q57 0 97 14.5t60.5 42t20.5 67.5q0 39 -21.5 64t-64 45t-105.5 44q-58 23 -98.5 47.5t-62 60.5t-21.5 92t29.5 99.5t81.5 68t118 24.5q98 0 153 -36t68 -107h131v-63h-199v16q0 59 -40 92t-114 33
q-67 0 -107.5 -32.5t-40.5 -85.5q0 -41 20 -67t58 -45t90 -40q66 -25 109.5 -48t67.5 -52t30 -73h126v-62h-126q-6 -52 -39.5 -89t-90 -57t-133.5 -20z" />
    <glyph glyph-name="uni13D6" unicode="&#x13d6;" horiz-adv-x="789" 
d="M515 -11q-105 0 -159 66t-54 175v422h-197l-8 -113h-63v175h618v-62h-266v-220q0 -22 -0.5 -41t-1.5 -41h4q17 31 54.5 50t86.5 19q92 0 143 -56t51 -155q0 -64 -27 -113.5t-73.5 -77.5t-107.5 -28zM514 55q59 0 94.5 41t35.5 112t-32 108.5t-93 37.5q-42 0 -71.5 -18
t-45 -50t-15.5 -76q0 -76 33 -115.5t94 -39.5z" />
    <glyph glyph-name="uni13D7" unicode="&#x13d7;" horiz-adv-x="715" 
d="M140 -13q-52 0 -82.5 22.5t-30.5 59.5q0 27 16.5 45t41.5 18t39 -12t14 -33q0 -12 -4 -19.5t-12 -15.5q6 -1 13 -2t17 -1q50 0 96.5 28.5t86.5 76t71 106t50 119.5t22 115v163l-88 8v49h255v-49l-82 -8v-600l82 -8v-49h-167v128q0 38 1 76t2 69h-4q-26 -64 -62.5 -117
t-80 -90.5t-92.5 -58t-102 -20.5z" />
    <glyph glyph-name="uni13D8" unicode="&#x13d8;" horiz-adv-x="750" 
d="M140 -13q-52 0 -82.5 22.5t-30.5 59.5q0 27 16.5 45t41.5 18t39 -12t14 -33q0 -12 -4 -19.5t-12 -15.5q6 -1 13 -2t17 -1q55 0 106 27.5t93.5 73.5t75 104t52 120t22.5 120v158h-249l-8 -126h-63v188h509v-62h-105v-652h-84v128q0 38 1 76t2 69h-4q-26 -64 -64.5 -117
t-85.5 -90.5t-100.5 -58t-109.5 -20.5z" />
    <glyph glyph-name="uni13D9" unicode="&#x13d9;" horiz-adv-x="748" 
d="M311 0l-222 657l-81 8v49h263v-49l-90 -8l160 -505q5 -16 9.5 -32t9 -31t7.5 -30h5q4 14 9 29t10.5 31t10.5 32l176 506l-90 8v49h252v-49l-80 -8l-240 -657h-109z" />
    <glyph glyph-name="uni13DA" unicode="&#x13da;" horiz-adv-x="615" 
d="M288 -11q-59 0 -115.5 15t-89.5 38v132h64l6 -88q23 -15 57.5 -22t79.5 -7q52 0 87 14t52.5 42t17.5 69t-20.5 66.5t-59 45t-92.5 41.5q-64 26 -103.5 54.5t-57.5 65t-18 83.5q0 55 28.5 96.5t80 65t119.5 23.5q57 0 109.5 -13t83.5 -35v-131h-63l-7 89q-20 13 -51 19
t-73 6q-68 0 -107.5 -30.5t-39.5 -85.5q0 -38 21 -64t59 -46t87 -41q59 -23 101 -49.5t65 -62.5t23 -89q0 -62 -29.5 -107.5t-84 -69.5t-130.5 -24z" />
    <glyph glyph-name="uni13DB" unicode="&#x13db;" horiz-adv-x="1062" 
d="M256 -11q-69 0 -112 35t-62.5 105.5t-19.5 175.5q0 126 39 220.5t116.5 147t192.5 52.5q67 0 114.5 -15.5t77.5 -47t43 -79.5h8q15 46 41.5 77.5t62.5 48t80 16.5q56 0 98.5 -20.5t66.5 -58.5t24 -91q0 -46 -19.5 -82.5t-53 -57t-77.5 -20.5q-34 0 -59.5 11t-42.5 32
l42 42q11 -12 26 -18t33 -6q35 0 57.5 26t22.5 67q0 52 -31.5 80.5t-87.5 28.5q-52 0 -86.5 -28.5t-52.5 -77t-21 -108.5h-71q-3 112 -39.5 161.5t-126.5 53.5v-402q0 -130 -47 -199t-136 -69zM257 57q52 0 76 47t24 146v405q-61 -7 -108 -48t-74 -116t-27 -184
q0 -83 11.5 -138.5t35.5 -83.5t62 -28z" />
    <glyph glyph-name="uni13DC" unicode="&#x13dc;" horiz-adv-x="813" 
d="M196 -11q-71 0 -112.5 40.5t-41.5 112.5q0 59 31.5 103.5t88.5 80.5q30 19 59 34.5t59.5 30t63.5 30.5q-47 26 -72 61.5t-25 89.5q0 48 21.5 82t58 52.5t80.5 18.5q67 0 113 -39.5t46 -110.5q0 -35 -12 -63.5t-34 -51t-53 -39.5q23 -11 54.5 -25.5t65 -30.5t60.5 -32
q64 -37 94 -84t30 -106q0 -70 -44.5 -112t-112.5 -42q-72 0 -112.5 41.5t-40.5 111.5q0 56 29.5 96t82.5 63q-19 11 -50.5 25.5t-63.5 29t-56 24.5q-20 -9 -50 -23.5t-59.5 -29t-49.5 -25.5q56 -27 82.5 -66.5t26.5 -92.5q0 -46 -20.5 -81t-56 -54t-80.5 -19zM196 49
q41 0 64.5 27t23.5 68q0 47 -23.5 76.5t-69.5 45.5q-40 -20 -60 -50.5t-20 -71.5q0 -43 23 -69t62 -26zM614 49q40 0 64.5 26.5t24.5 69.5q0 42 -19.5 71t-60.5 50q-45 -14 -69.5 -44.5t-24.5 -80.5q0 -41 23 -66.5t62 -25.5zM406 455q32 15 52.5 31.5t31 37.5t10.5 49
q0 42 -26 67.5t-67 25.5q-40 0 -67 -26t-27 -67q0 -43 23.5 -69t69.5 -49z" />
    <glyph glyph-name="uni13DD" unicode="&#x13dd;" horiz-adv-x="689" 
d="M55 0v49l83 8v371q0 146 66 221.5t194 75.5q63 0 104.5 -16.5t66 -41t35 -50t10.5 -44.5q0 -32 -15 -50.5t-44 -18.5q-24 0 -38.5 13.5t-14.5 36.5q0 18 8.5 30t26.5 18q-12 18 -32 30.5t-45.5 18.5t-56.5 6q-89 0 -135 -52.5t-46 -153.5v-389h320l9 132h63v-194h-559z
" />
    <glyph glyph-name="uni13DE" unicode="&#x13de;" horiz-adv-x="651" 
d="M70 0v49l83 8v600l-83 8v49h262v-49l-94 -8v-595h307l9 132h63v-194h-547z" />
    <glyph glyph-name="uni13DF" unicode="&#x13df;" horiz-adv-x="700" 
d="M374 -11q-102 0 -171.5 41t-105 121.5t-35.5 198.5q0 117 40 201t115.5 129t179.5 45q45 0 89.5 -11t81 -29.5t57.5 -41.5v-132h-71l-6 100q-26 23 -65.5 34.5t-85.5 11.5q-81 0 -136 -34.5t-83 -102t-28 -167.5q0 -99 25.5 -164.5t76.5 -98.5t127 -33q74 0 121.5 34
t59.5 97h73q-7 -91 -76.5 -145t-182.5 -54z" />
    <glyph glyph-name="uni13E0" unicode="&#x13e0;" horiz-adv-x="873" 
d="M507 -11q-72 0 -118.5 26.5t-69 80.5t-22.5 138v86h-36q-114 0 -172 45.5t-58 133.5q0 50 23 89.5t63 62t91 22.5q82 0 125 -47.5t43 -138.5v-100h275v270l-82 8v49h249v-49l-83 -8v-391q0 -97 -23.5 -158t-74 -90t-130.5 -29zM249 387h48v105q0 59 -22.5 88.5
t-68.5 29.5q-45 0 -73 -30t-28 -77q0 -57 36.5 -86.5t107.5 -29.5zM508 55q57 0 88 24.5t43 71t12 112.5v57h-275v-76q0 -66 13.5 -108t43 -61.5t75.5 -19.5z" />
    <glyph glyph-name="uni13E1" unicode="&#x13e1;" horiz-adv-x="899" 
d="M474 -11q-88 0 -139 59.5t-51 161.5q0 60 18.5 128t51.5 133.5t76 116.5q-33 35 -67.5 52.5t-70.5 17.5q-67 0 -100 -37.5t-39 -118.5l91 -8v-49h-237v49l75 8q7 107 62 165t147 58q34 0 65.5 -9.5t62.5 -27.5t60 -46q39 40 85 61.5t94 21.5q97 0 144 -53t47 -151
q0 -16 -1 -31t-3 -28h-71q1 8 1.5 21.5t0.5 27.5q0 74 -29.5 110.5t-89.5 36.5q-34 0 -65.5 -16.5t-62.5 -49.5q47 -54 79.5 -115t49.5 -124.5t17 -124.5q0 -110 -54.5 -174.5t-146.5 -64.5zM475 54q53 0 85 44t32 117q0 56 -13.5 114t-39.5 113t-62 102q-33 -48 -58.5 -106
t-39.5 -115.5t-14 -107.5q0 -78 28 -119.5t82 -41.5z" />
    <glyph glyph-name="uni13E2" unicode="&#x13e2;" horiz-adv-x="672" 
d="M70 0v49l83 8v600l-83 8v49h266q149 0 220 -50t71 -154q0 -73 -31 -122t-93 -73t-156 -24h-109v-234l90 -8v-49h-258zM238 353h109q67 0 110 16.5t64 51t21 86.5q0 74 -49.5 109.5t-155.5 35.5h-99v-299z" />
    <glyph glyph-name="uni13E3" unicode="&#x13e3;" horiz-adv-x="737" 
d="M377 -11q-101 0 -171.5 42.5t-107 123.5t-36.5 198q0 110 38 194t112 131t180 47q59 0 111 -21t87 -60.5t41 -96.5l64 -8v-49h-231v48l83 9q2 31 -18 54.5t-56 37t-84 13.5q-79 0 -132.5 -33t-80 -99t-26.5 -164q0 -94 27 -159.5t78.5 -100t125.5 -34.5q53 0 92.5 13
t66 38t38.5 61q-29 2 -44.5 15t-15.5 35q0 24 16.5 39t43.5 15q32 0 50.5 -22t18.5 -62q0 -66 -37.5 -111.5t-98.5 -69.5t-134 -24z" />
    <glyph glyph-name="uni13E4" unicode="&#x13e4;" horiz-adv-x="807" 
d="M297 0v652h-192l-8 -113h-63v175h464v-62h-119v-312q0 -75 -2.5 -147.5t-5.5 -125.5h4q14 36 32 76.5t44 92.5l241 478h91l-382 -714h-104z" />
    <glyph glyph-name="uni13E5" unicode="&#x13e5;" horiz-adv-x="907" 
d="M70 0v49l83 8v600l-83 8v49h250v-49l-82 -8v-221q0 -28 -1.5 -57t-2.5 -47h4q27 40 74.5 70.5t116.5 47.5t158 17q92 0 159 -20t104 -55t37 -80q0 -34 -15.5 -53.5t-44.5 -19.5q-25 0 -40 13t-15 35q0 18 8.5 30t24.5 19q-2 15 -29 29t-70.5 23t-96.5 9v-340l84 -8v-49
h-251v49l83 8v340q-76 -2 -141.5 -24t-105.5 -65.5t-40 -110.5v-140l82 -8v-49h-250z" />
    <glyph glyph-name="uni13E6" unicode="&#x13e6;" horiz-adv-x="777" 
d="M70 0v49l83 8v600l-83 8v49h250v-49l-82 -8v-358l95 109l226 251l-84 6v49h242v-49l-67 -6l-225 -242l244 -359l70 -9v-49h-256v49l84 9l-200 296l-71 -76l-58 -60v-161l82 -8v-49h-250z" />
    <glyph glyph-name="uni13E7" unicode="&#x13e7;" horiz-adv-x="589" 
d="M232 -11q-60 0 -105.5 26t-70.5 73.5t-25 111.5q0 67 25 115.5t70 75.5t106 27q45 0 80 -16t54 -48h4q-1 24 -1.5 47t-0.5 63v193l-83 8v49h249v-49l-82 -8v-388q0 -90 -24.5 -152.5t-73 -95t-122.5 -32.5zM236 54q61 0 95.5 44.5t34.5 123.5q0 39 -15 68.5t-43 46.5
t-67 17q-67 0 -100 -42t-33 -109q0 -69 35 -109t93 -40z" />
    <glyph glyph-name="uni13E8" unicode="&#x13e8;" horiz-adv-x="828" 
d="M362 -11q-97 0 -164 42t-101.5 123.5t-34.5 199.5q0 108 36 191.5t106 131.5t172 48q71 0 120.5 -26t80.5 -82l67 78h2l64 -80l57 73h3l38 -45l-96 -122h-3l-67 86l-71 -84h-2q-40 74 -85.5 104t-107.5 30q-71 0 -122 -36.5t-77.5 -104.5t-26.5 -165q0 -96 24.5 -161.5
t72.5 -99t118 -33.5q63 0 113 32.5t93 103.5h2l65 -85l71 88h2l95 -115l-38 -48h-2l-59 70l-68 -84h-2l-68 80q-22 -36 -54 -60.5t-70.5 -37t-82.5 -12.5z" />
    <glyph glyph-name="uni13E9" unicode="&#x13e9;" horiz-adv-x="888" 
d="M360 -11q-94 0 -160.5 42.5t-102 123t-35.5 194.5q0 113 41.5 197.5t118.5 131.5t184 47q82 0 136 -23t81 -59t27 -75q0 -30 -15 -48.5t-43 -18.5q-25 0 -40.5 14t-15.5 36q0 17 8 28.5t24 18.5q-9 18 -33 31t-57.5 20.5t-71.5 7.5q-82 0 -139.5 -35.5t-87 -103.5
t-29.5 -166q0 -92 26 -158.5t74.5 -101.5t116.5 -35q77 0 129 37t64 100v62l-87 8v48h247v-48l-82 -8v-47q0 -75 20.5 -112.5t63.5 -37.5q41 0 61.5 24.5t22.5 78.5v16v15h62q1 -10 1.5 -24t0.5 -30q0 -63 -39 -101.5t-104 -38.5q-58 0 -92.5 21.5t-53.5 69.5
q-33 -50 -88.5 -75.5t-132.5 -25.5z" />
    <glyph glyph-name="uni13EA" unicode="&#x13ea;" horiz-adv-x="1078" 
d="M237 -11q-94 0 -140.5 53.5t-46.5 150.5q0 17 1 31.5t3 27.5h71q-1 -7 -1.5 -21t-0.5 -28q0 -73 30.5 -109.5t87.5 -36.5q39 0 70.5 16.5t55.5 46.5q-43 50 -73 109.5t-46 126t-16 136.5q0 113 48 173t132 60q83 0 129 -57.5t46 -167.5q0 -64 -16 -131.5t-44 -130.5
t-66 -114q32 -34 73.5 -50.5t92.5 -16.5q73 0 128.5 28.5t93.5 86.5q-73 60 -110.5 148.5t-37.5 194.5q0 93 43 147.5t115 54.5q81 0 121 -53.5t40 -164.5q0 -56 -11.5 -124t-38 -136t-71.5 -124.5t-111.5 -91t-157.5 -34.5q-68 0 -121.5 20t-95.5 60q-35 -39 -79.5 -59.5
t-96.5 -20.5zM414 170q29 49 49.5 102.5t31 110.5t10.5 116q0 82 -24 121.5t-69 39.5q-46 0 -72 -42.5t-26 -124.5q0 -99 25 -178.5t75 -144.5zM886 231q17 35 30 81.5t20.5 96.5t7.5 92q0 82 -19.5 119t-63.5 37q-39 0 -62 -37.5t-23 -104.5q0 -56 13.5 -110t38 -99
t58.5 -75z" />
    <glyph glyph-name="uni13EB" unicode="&#x13eb;" horiz-adv-x="775" 
d="M387 -10q-103 0 -176 43t-111 124.5t-38 198.5q0 116 39 198.5t112.5 126.5t175.5 44q103 0 175.5 -43t110.5 -124.5t38 -198.5q0 -115 -39 -198t-112 -127t-175 -44zM387 57q89 0 147.5 49t81.5 141h-257l-17 171h-190l-2 -32t-1 -30q0 -97 27 -163.5t80.5 -101
t130.5 -34.5zM431 309h193q2 8 2 19.5v30.5q0 146 -60.5 222.5t-176.5 76.5q-57 0 -102.5 -20.5t-76.5 -60t-48 -97.5h251z" />
    <glyph glyph-name="uni13EC" unicode="&#x13ec;" horiz-adv-x="1062" 
d="M526 -8q-103 0 -187.5 32.5t-145.5 92.5t-94 143t-33 183q0 94 27.5 156.5t76.5 94t113 31.5q87 0 138.5 -63t51.5 -170q0 -77 -21.5 -142.5t-62 -119t-97.5 -94.5q52 -37 110.5 -55.5t124.5 -18.5q89 0 161.5 26t124.5 75.5t79.5 120t27.5 159.5q0 69 -14 114.5
t-42.5 68t-72.5 22.5q-48 0 -78 -29t-30 -76q0 -28 9 -49t26.5 -33.5t41.5 -15.5v-68q-46 2 -79.5 22t-51.5 55.5t-18 83.5q0 52 23 91.5t63.5 62t92.5 22.5q73 0 119 -35t68.5 -95t22.5 -136q0 -84 -26.5 -165t-83.5 -146.5t-147 -105t-217 -39.5zM244 179q52 43 83.5 90.5
t46.5 102t15 119.5q0 82 -27.5 125.5t-80.5 43.5q-63 0 -95.5 -53.5t-32.5 -157.5q0 -82 22.5 -149.5t68.5 -120.5z" />
    <glyph glyph-name="uni13ED" unicode="&#x13ed;" horiz-adv-x="632" 
d="M288 -11q-111 0 -170 54t-59 162q0 16 1 28.5t2 18.5h73q-1 -5 -1.5 -17.5t-0.5 -26.5q0 -86 39.5 -119.5t115.5 -33.5q40 0 73 16.5t57.5 48t37.5 75.5q-98 38 -176.5 82.5t-124 103t-45.5 136.5q0 62 28.5 108.5t78.5 73t115 26.5q78 0 131 -36.5t80 -108t27 -178.5
q0 -65 -10.5 -125.5t-32.5 -113t-55.5 -91.5t-79 -61t-104.5 -22zM475 261q5 34 8 70t3 74q0 88 -16.5 145t-51 84.5t-88.5 27.5q-39 0 -70 -19t-49 -51t-18 -73q0 -53 27 -96t89 -81.5t166 -80.5z" />
    <glyph glyph-name="uni13EE" unicode="&#x13ee;" horiz-adv-x="634" 
d="M317 -9q-120 0 -180.5 78.5t-60.5 226.5q0 101 19 180t56 135t89.5 85t118.5 29q50 0 95 -16.5t73.5 -46.5t28.5 -70q0 -32 -14.5 -50t-40.5 -18q-23 0 -37.5 12.5t-14.5 33.5q0 16 8 28t23 19q-16 22 -45 33t-73 11q-53 0 -91.5 -26t-63.5 -70.5t-37 -101.5t-14 -120h4
q11 24 35 46.5t61.5 37t90.5 14.5q104 0 161.5 -58.5t57.5 -159.5q0 -67 -31 -119.5t-87 -82.5t-131 -30zM320 56q77 0 120.5 46t43.5 120q0 71 -39.5 112.5t-113.5 41.5q-52 0 -89 -20.5t-56.5 -56t-19.5 -81.5q0 -73 40.5 -117.5t113.5 -44.5z" />
    <glyph glyph-name="uni13EF" unicode="&#x13ef;" horiz-adv-x="1074" 
d="M275 -11q-106 0 -165.5 66t-59.5 178q0 49 13 92.5t29 67.5l69 -3q-12 -28 -21 -66t-9 -83q0 -88 40 -136t112 -48q50 0 88.5 19t66 55.5t43.5 90.5q-3 26 -15.5 53t-28.5 46.5t-32 23.5q-16 0 -47 -7t-58 -17l-5 61q26 14 52.5 20.5t51.5 6.5q41 0 70 -24t47 -77h4
q19 52 41 75t50 23q10 0 25 -4.5t32.5 -9.5t32.5 -5q11 0 23 1.5t25 5.5l5 -64q-15 -5 -30.5 -8t-32.5 -3q-22 0 -41.5 6.5t-36.5 17.5q-11 -6 -24 -27t-24 -47.5t-16 -51.5q24 -82 62 -121t108 -39q92 0 150.5 73t58.5 213q0 90 -39.5 161t-112 112t-173.5 41
q-70 0 -127 -21t-95 -53l-41 53q27 25 65.5 45t89.5 32t112 12q123 0 214.5 -48t142.5 -132t51 -193q0 -112 -37 -193.5t-103.5 -125.5t-155.5 -44q-87 0 -135.5 40.5t-73.5 101.5h-3q-19 -42 -52 -74t-78 -50t-102 -18z" />
    <glyph glyph-name="uni13F0" unicode="&#x13f0;" horiz-adv-x="774" 
d="M267 -269v279q-115 34 -171.5 106.5t-57.5 187.5h71q4 -79 45 -137.5t113 -84.5v400q0 76 28.5 131t82.5 85t130 30q105 0 156 -45t51 -118q0 -39 -14.5 -67.5t-38 -50.5t-50.5 -40l-57 -38v-6q66 -19 103 -43.5t52.5 -55.5t15.5 -70q0 -63 -34.5 -109t-98.5 -71
t-153 -25q-28 0 -50.5 2t-39.5 5v-265h-83zM443 57q99 0 149.5 35t50.5 97q0 39 -24 65.5t-87 49.5q-25 9 -36.5 22.5t-11.5 33.5q0 17 10 31t34 30q47 31 76 61.5t29 80.5q0 44 -29.5 72t-94.5 28q-79 0 -119 -47.5t-40 -139.5v-412q20 -3 44 -5t49 -2z" />
    <glyph glyph-name="uni13F1" unicode="&#x13f1;" horiz-adv-x="823" 
d="M539 -8q-58 0 -100 18.5t-64.5 53.5t-22.5 83q0 45 19 78t54 52.5t82 20.5v-58q-24 -2 -41.5 -13t-27 -29.5t-9.5 -44.5q0 -30 13.5 -52t38 -34.5t56.5 -12.5q50 0 87 25.5t57 68.5t20 95q0 80 -31.5 130t-91.5 77t-147 37q-22 -37 -56 -72.5t-78.5 -68.5t-99.5 -65
l-32 62q73 43 121.5 85.5t73 81.5t25.5 68v79l-86 8v49h251v-49l-86 -8v-107q167 -25 245 -98.5t78 -204.5q0 -73 -31.5 -130.5t-87.5 -91t-129 -33.5zM37 72v57q50 2 79.5 32.5t29.5 79.5t-24 77.5t-71 33.5v58q53 -3 90.5 -25t57.5 -59t20 -85q0 -49 -22.5 -86.5
t-63.5 -59t-96 -23.5z" />
    <glyph glyph-name="uni13F2" unicode="&#x13f2;" horiz-adv-x="769" 
d="M55 0v49l83 8v365q0 149 69 226t205 77q69 0 111 -15.5t64.5 -39t30.5 -47.5t8 -40q0 -31 -14.5 -49.5t-43.5 -18.5q-25 0 -40 13.5t-15 35.5q0 17 8.5 29.5t24.5 19.5q-5 8 -20 19.5t-42.5 20t-71.5 8.5q-93 0 -141.5 -55.5t-48.5 -156.5v-29q0 -27 -0.5 -48t-2.5 -38h4
q15 31 40.5 53.5t62 35t83.5 12.5q110 0 163.5 -58t53.5 -179v-141l83 -8v-49h-250v49l83 8v137q0 88 -36 132.5t-107 44.5q-58 0 -97.5 -22.5t-59.5 -67.5t-20 -113v-111l83 -8v-49h-250z" />
    <glyph glyph-name="uni13F3" unicode="&#x13f3;" horiz-adv-x="817" 
d="M364 -11q-98 0 -165.5 42t-102 123.5t-34.5 199.5q0 108 36 191.5t106 131.5t172 48q71 0 120.5 -26t80.5 -82l67 78h2l64 -80l57 73h3l38 -45l-96 -122h-3l-67 86l-71 -84h-2q-40 74 -85.5 104t-107.5 30q-71 0 -122 -36.5t-77.5 -104.5t-26.5 -165q0 -96 24.5 -161.5
t73.5 -99t120 -33.5q52 0 95 19.5t72 53.5t37 78v48l-87 8v48h246v-48l-82 -8v-256h-76v111q-34 -61 -86.5 -91.5t-122.5 -30.5z" />
    <glyph glyph-name="uni13F4" unicode="&#x13f4;" horiz-adv-x="732" 
d="M70 0v49l95 8v600l-95 8v49h291q146 0 214.5 -40.5t68.5 -135.5q0 -40 -16 -73.5t-46 -55.5t-74 -30v-4q54 -8 89 -31t51.5 -58.5t16.5 -83.5q0 -68 -32 -113t-97 -67t-165 -22h-301zM250 62h121q107 0 156.5 34.5t49.5 110.5q0 46 -18.5 75.5t-57.5 44t-99 14.5h-152
v-279zM250 403h147q85 0 123.5 29.5t38.5 96.5q0 66 -46.5 94.5t-153.5 28.5h-109v-249z" />
    <glyph glyph-name="uni13F5" unicode="&#x13f5;" horiz-adv-x="778" 
d="M378 -10q-105 0 -175 34.5t-105.5 96t-35.5 142.5q0 90 34.5 164t102.5 131.5t170.5 99.5t238.5 69l20 -70q-155 -36 -262 -86.5t-161.5 -124.5t-54.5 -181q0 -93 57 -150.5t178 -57.5q59 0 105.5 9t78.5 22v165l-87 9v49h246v-49l-81 -9v-211q-45 -18 -110.5 -35
t-158.5 -17z" />
    <glyph glyph-name="uni13F8" unicode="&#x13f8;" horiz-adv-x="624" 
d="M211 -206v215q-89 25 -133.5 79t-45.5 142h68q2 -56 31 -95.5t80 -56.5v279q0 89 49.5 139.5t146.5 50.5q84 0 126 -35t42 -93q0 -46 -25 -71.5t-57 -45.5l-40 -24v-3q68 -18 99 -49t31 -78q0 -72 -61 -113.5t-168 -41.5q-19 0 -35.5 1t-28.5 3v-203h-79zM357 55
q74 0 111 24.5t37 67.5q0 29 -19 47.5t-65 35.5q-19 8 -28 17t-9 25q0 15 8 25.5t27 21.5q37 22 57 41t20 53t-22 54t-69 20q-58 0 -86.5 -33.5t-28.5 -99.5v-294q14 -2 31.5 -3.5t35.5 -1.5z" />
    <glyph glyph-name="uni13F9" unicode="&#x13f9;" horiz-adv-x="665" 
d="M435 -9q-70 0 -108.5 32.5t-38.5 89.5q0 36 15.5 61.5t43.5 39.5t65 15v-54q-25 -1 -40.5 -16t-15.5 -44q0 -32 20 -49t60 -17q58 0 87.5 37t29.5 96q0 83 -52 122t-146 54q-27 -43 -77.5 -86t-119.5 -79l-28 57q56 30 96 62t62.5 62t25.5 54v55l-66 5v47h205v-47l-66 -5
v-69q123 -23 183.5 -78.5t60.5 -149.5q0 -58 -24.5 -102t-68.5 -68.5t-103 -24.5zM31 44v54q38 2 61 23t23 58q0 35 -19.5 55.5t-54.5 23.5v54q65 -2 102 -38.5t37 -93.5q0 -40 -19 -70t-52.5 -47t-77.5 -19z" />
    <glyph glyph-name="uni13FA" unicode="&#x13fa;" horiz-adv-x="612" 
d="M44 0v46l62 6v265q0 112 55.5 170.5t164.5 58.5q68 0 105 -18t51.5 -44t14.5 -49q0 -24 -13 -38.5t-36 -14.5q-22 0 -34.5 11.5t-12.5 30.5q0 11 5.5 18t15.5 11q-7 11 -29 23t-69 12q-69 0 -104 -39.5t-35 -110.5v-35q0 -16 -0.5 -29.5t-2.5 -24.5h3q16 34 53 56.5
t95 22.5q85 0 127.5 -45t42.5 -135v-96l63 -6v-46h-204v46l62 6v91q0 59 -26.5 90.5t-81.5 31.5q-66 0 -98.5 -36.5t-32.5 -105.5v-71l63 -6v-46h-204z" />
    <glyph glyph-name="uni13FB" unicode="&#x13fb;" horiz-adv-x="653" 
d="M279 -8q-72 0 -123 31t-78.5 91t-27.5 148q0 84 29 147t85 98.5t135 35.5q57 0 95.5 -19.5t62.5 -55.5l52 57h1l50 -58l46 54h2l35 -37l-81 -96h-2l-52 63l-55 -62h-2q-30 51 -64.5 72.5t-83.5 21.5q-54 0 -92 -25.5t-58.5 -74.5t-20.5 -120q0 -70 19 -117t55 -70t87 -23
q55 0 94 27.5t49 70.5v37l-65 6v46h197v-46l-60 -6v-188h-71v74q-25 -40 -64.5 -61t-93.5 -21z" />
    <glyph glyph-name="uni13FC" unicode="&#x13fc;" horiz-adv-x="582" 
d="M56 0v46l69 6v430l-69 6v47h239q115 0 167 -32t52 -100q0 -31 -12.5 -56t-35.5 -41t-55 -22v-3q39 -6 65 -22t39.5 -42.5t13.5 -63.5q0 -76 -56.5 -114.5t-166.5 -38.5h-250zM205 56h98q74 0 108.5 25t34.5 77q0 47 -31.5 70t-97.5 23h-112v-195zM205 306h109
q62 0 90.5 21.5t28.5 65.5q0 47 -33 66.5t-107 19.5h-88v-173z" />
    <glyph glyph-name="uni13FD" unicode="&#x13fd;" horiz-adv-x="610" 
d="M300 -8q-125 0 -187.5 56.5t-62.5 150.5q0 91 49.5 159.5t145.5 115t234 70.5l19 -64q-122 -24 -203.5 -61.5t-122 -91t-40.5 -127.5q0 -67 42.5 -107t130.5 -40q43 0 75 6t55 14v114l-66 6v46h198v-46l-60 -6v-159q-35 -13 -85 -24.5t-122 -11.5z" />
    <glyph glyph-name="uniAB70" unicode="&#xab70;" horiz-adv-x="628" 
d="M56 0v47l61 6v428l-61 6v48h237q130 0 200.5 -68t70.5 -195q0 -133 -74 -202.5t-214 -69.5h-220zM196 59h77q102 0 155.5 53t53.5 159q0 102 -50 153.5t-147 51.5h-89v-417z" />
    <glyph glyph-name="uniAB71" unicode="&#xab71;" horiz-adv-x="583" 
d="M489 -4q-29 0 -47 9t-28 27.5t-15 44.5l-10 53q-9 49 -27.5 72t-47.5 27h-118v-177l63 -6v-46h-203v46l61 6v431l-61 5v47h239q104 0 153 -35t49 -106q0 -55 -29.5 -91t-85.5 -47v-2q21 -6 37 -19.5t27 -34.5t17 -50l12 -57q5 -25 15 -34.5t29 -9.5q8 0 13 0.5t9 1.5
l6 -45q-10 -4 -24 -7t-34 -3zM196 283h100q58 0 88.5 24t30.5 76q0 56 -33.5 75.5t-100.5 19.5h-85v-195z" />
    <glyph glyph-name="uniAB72" unicode="&#xab72;" horiz-adv-x="552" 
d="M159 0v46l77 7v425h-144l-7 -86h-52v143h486v-143h-52l-7 86h-144v-425l76 -7v-46h-233z" />
    <glyph glyph-name="uniAB73" unicode="&#xab73;" horiz-adv-x="693" 
d="M434 -9v59q66 10 102 44.5t36 94.5q0 69 -50.5 111t-141.5 61q-16 -14 -34.5 -27t-37.5 -22q32 -20 50.5 -54.5t18.5 -81.5q0 -52 -21 -90.5t-58 -59.5t-87 -21q-76 0 -120.5 43.5t-44.5 121.5q0 79 46 124.5t120 45.5q8 0 14.5 -0.5t13.5 -2.5q28 12 51 28t36.5 33
t14.5 30v55l-65 5v47h203v-47l-64 -5v-70q115 -28 172.5 -82.5t57.5 -139.5q0 -87 -57.5 -139.5t-154.5 -60.5zM211 62q43 0 68 30t25 82q0 53 -24 80.5t-68 27.5q-43 0 -68 -29t-25 -81t24.5 -81t67.5 -29z" />
    <glyph glyph-name="uniAB74" unicode="&#xab74;" horiz-adv-x="867" 
d="M290 -8q-79 0 -132.5 33t-80.5 94.5t-27 148.5q0 86 28 147.5t82 94.5t132 33q91 0 147 -46.5t78 -135.5q14 -57 47 -89t82 -32q56 0 83 35t27 110q0 53 -16 77.5t-47 24.5q-27 0 -40.5 -17t-13.5 -53q0 -7 0.5 -13.5t0.5 -12.5h-59q-1 7 -1.5 17t-0.5 23q0 54 30 84.5
t82 30.5q62 0 96.5 -42t34.5 -119q0 -65 -20 -112t-58 -72t-91 -25q-43 0 -74 15t-54 47q-6 -79 -34.5 -134t-78.5 -83.5t-122 -28.5zM290 57q80 0 118 54t38 157t-38.5 157t-115.5 54q-54 0 -89 -24.5t-52.5 -71.5t-17.5 -115q0 -67 17.5 -114.5t52.5 -72t87 -24.5z" />
    <glyph glyph-name="uniAB75" unicode="&#xab75;" horiz-adv-x="287" 
d="M37 0v46l67 7v298h80v-298l67 -7v-46h-214zM144 442q-22 0 -34.5 13t-12.5 35q0 47 47 47q23 0 35 -12.5t12 -34.5t-12.5 -35t-34.5 -13z" />
    <glyph glyph-name="uniAB76" unicode="&#xab76;" horiz-adv-x="527" 
d="M239 -11q-47 0 -85 13t-60 37t-22 57q0 25 13 39.5t35 14.5q21 0 32 -10.5t11 -30.5q0 -10 -5 -17t-16 -11q9 -14 35.5 -23.5t62.5 -9.5q59 0 91.5 22t32.5 65q0 35 -27 61t-87 49h-196v53h51q17 0 31 -0.5t25 -1.5v2q-38 23 -56 49.5t-18 62.5q0 62 49.5 99t134.5 37
q47 0 85 -13t60.5 -37t22.5 -57q0 -25 -12 -39t-35 -14q-21 0 -32 10.5t-11 29.5q0 10 4.5 17.5t13.5 11.5q-8 15 -33.5 24.5t-62.5 9.5q-52 0 -80 -20.5t-28 -58.5q0 -24 10.5 -43t34.5 -34.5t63 -31.5h202v-52h-59q-16 0 -29.5 0.5t-27.5 1.5v-3q45 -26 64 -52t19 -62
q0 -43 -23 -75.5t-68 -51t-110 -18.5z" />
    <glyph glyph-name="uniAB77" unicode="&#xab77;" horiz-adv-x="653" 
d="M313 -8q-80 0 -140 28t-93 79t-33 119q0 79 43 124t111 45q62 0 98.5 -34.5t36.5 -93.5q0 -41 -17.5 -74.5t-49.5 -57.5t-77 -39q21 -15 51 -23.5t70 -8.5q64 0 111 27.5t72.5 76.5t25.5 114q0 64 -26.5 110t-75 70.5t-116.5 24.5q-46 0 -89 -13.5t-70 -32.5l-33 51
q32 26 83 42.5t115 16.5q93 0 158.5 -32.5t100 -93t34.5 -143.5q0 -84 -36 -147.5t-101 -99t-153 -35.5zM153 125q33 10 58.5 28.5t40 44.5t14.5 58q0 35 -17 55t-46 20q-38 0 -60.5 -28.5t-22.5 -79.5q0 -31 9 -56.5t24 -41.5z" />
    <glyph glyph-name="uniAB78" unicode="&#xab78;" horiz-adv-x="577" 
d="M56 0v46l63 6v430l-63 6v47h203v-47l-60 -5v-194l147 82l3 -14q13 -50 28 -77.5t50 -27.5q32 0 49 25.5t27 74.5l56 -6q-10 -76 -42.5 -116t-92.5 -40q-31 0 -53.5 11.5t-38 33.5t-25.5 53l-108 -62v-174l60 -6v-46h-203z" />
    <glyph glyph-name="uniAB79" unicode="&#xab79;" horiz-adv-x="587" 
d="M166 -8q-46 0 -67.5 20t-21.5 51q0 21 13 35.5t37 14.5q19 0 29.5 -9.5t10.5 -25.5q0 -6 -2 -10.5t-4 -7.5q2 -3 6 -5.5t11 -2.5q24 0 45.5 20.5t42.5 58.5l-189 352l-53 5v47h204v-47l-63 -5l107 -214q8 -17 18 -36.5t17 -37.5h2q8 19 19 41.5t18 38.5l97 208l-64 5v47
h190v-47l-48 -5l-153 -310q-24 -49 -50.5 -90t-62.5 -66t-89 -25z" />
    <glyph glyph-name="uniAB7A" unicode="&#xab7a;" horiz-adv-x="589" 
d="M9 0v46l59 6l181 484h101l172 -484l58 -6v-46h-206v46l62 6l-36 111h-215l-40 -111l64 -6v-46h-200zM203 220h180l-48 146q-13 41 -22.5 71.5t-14.5 48.5h-3q-5 -18 -15 -48.5t-25 -72.5z" />
    <glyph glyph-name="uniAB7B" unicode="&#xab7b;" horiz-adv-x="478" 
d="M177 -11q-52 0 -86 14t-51.5 39t-17.5 57q0 27 13 43.5t38 16.5q21 0 33 -10.5t12 -27.5q0 -13 -5.5 -21.5t-16.5 -11.5q8 -19 28.5 -30t54.5 -11q60 0 87.5 38t27.5 111v287l-66 6v46h206v-46l-61 -6v-279q0 -105 -49 -160t-147 -55z" />
    <glyph glyph-name="uniAB7C" unicode="&#xab7c;" horiz-adv-x="558" 
d="M56 0v46l64 6v430l-64 6v47h447v-135h-54l-5 78h-244v-175h127l4 55h49v-167h-49l-4 57h-127v-191h250l4 78h55v-135h-453z" />
    <glyph glyph-name="uniAB7D" unicode="&#xab7d;" horiz-adv-x="811" 
d="M418 0v268l-94 -55q-8 -57 -47.5 -90.5t-99.5 -33.5q-67 0 -107 40t-40 110t41 110.5t108 40.5q60 0 98 -31.5t47 -87.5l94 54v158l-71 5v47h211v-47l-64 -5v-239v-90.5t-2 -81.5h2q13 23 30 49t40 60l87 128l-62 5v47h201v-47l-59 -5l-214 -309h-99zM177 142
q38 0 59.5 26t21.5 72q0 47 -20.5 71.5t-58.5 24.5t-59.5 -25t-21.5 -71q0 -47 21 -72.5t58 -25.5z" />
    <glyph glyph-name="uniAB7E" unicode="&#xab7e;" horiz-adv-x="509" 
d="M56 0v46l63 6v305l-63 6v46h199v-46l-56 -6v-78h39q77 0 116 30.5t39 93.5q0 58 -35.5 89t-112.5 31q-43 0 -78.5 -9t-62.5 -21l-23 57q28 14 70.5 25t99.5 11q107 0 163 -48t56 -131q0 -43 -14.5 -77.5t-43 -59.5t-71.5 -38.5t-100 -13.5h-42v-166l62 -6v-46h-205z" />
    <glyph glyph-name="uniAB7F" unicode="&#xab7f;" horiz-adv-x="628" 
d="M90 -4q-32 0 -51 15t-19 42q0 20 12 33.5t33 13.5q17 0 28 -9t11 -26v-6.5t-1 -4.5q24 3 38.5 29.5t23.5 75t14 116.5q8 99 30.5 158.5t65 86t108.5 26.5q72 0 113 -32.5t58 -96t17 -156.5q0 -86 -16.5 -145t-49.5 -89.5t-83 -30.5q-32 0 -51 15t-19 42q0 20 12 33t33 13
q17 0 28.5 -8.5t11.5 -24.5q0 -3 -0.5 -6.5t-1.5 -5.5q13 0 23 14t17 39t11 57.5t5 70.5h-240q-7 -79 -25 -132t-51 -80t-85 -27zM257 291h235q-1 64 -11.5 107.5t-34 65.5t-65.5 22q-43 0 -68 -20t-37.5 -63t-18.5 -112z" />
    <glyph glyph-name="uniAB80" unicode="&#xab80;" horiz-adv-x="485" 
d="M56 0v46l63 6v430l-63 6v47h204v-47l-61 -5v-179h182l7 68h45v-193h-45l-8 68h-181v-195l61 -6v-46h-204z" />
    <glyph glyph-name="uniAB81" unicode="&#xab81;" horiz-adv-x="511" 
d="M56 0v46l64 6v430l-64 6v47h433v-147h-55l-5 90h-229v-426l70 -6v-46h-214z" />
    <glyph glyph-name="uniAB82" unicode="&#xab82;" horiz-adv-x="723" 
d="M187 -8q-77 0 -116 40.5t-39 114.5q0 14 1 27t3 24h69q-1 -7 -1.5 -18t-0.5 -23q0 -52 21.5 -77.5t64.5 -25.5q26 0 50 12t46 34q-53 58 -82 126t-29 135q0 85 44 133.5t120 48.5q72 0 114 -44.5t42 -123.5q0 -69 -31 -142.5t-82 -130.5q24 -23 49 -35.5t54 -12.5
q46 0 70 24t28 76l-62 6v46h187v-46l-53 -6q-7 -76 -50.5 -119t-117.5 -43q-45 0 -82 16t-71 45q-31 -28 -67 -44.5t-79 -16.5zM334 150q37 49 59.5 109t22.5 112q0 56 -20.5 84t-58.5 28t-61 -30t-23 -84q0 -57 22 -114.5t59 -104.5z" />
    <glyph glyph-name="uniAB83" unicode="&#xab83;" horiz-adv-x="845" 
d="M210 0l-138 483l-60 5v47h207v-47l-65 -6l87 -322q4 -14 7.5 -30t7 -31.5t5.5 -29.5h2q6 21 13 44t14 47l97 308l-4 15l-58 5v47h198v-47l-62 -5l85 -315q5 -19 9 -35.5t7.5 -32t6.5 -32.5h3q4 17 8 34.5t9 34.5t9 31l97 315l-63 5v47h201v-47l-62 -5l-157 -483h-92
l-71 260q-7 26 -15 56t-14 58h-3q-6 -26 -14.5 -53.5t-19.5 -62.5l-83 -258h-92z" />
    <glyph glyph-name="uniAB84" unicode="&#xab84;" horiz-adv-x="618" 
d="M200 -8q-74 0 -117.5 46.5t-43.5 130.5t44.5 132.5t115.5 48.5q41 0 68 -15.5t38 -37.5h3q0 10 -0.5 17t-1 17t-0.5 26v38q0 74 40 113t110 39q60 0 98 -31.5t38 -81.5q0 -30 -12.5 -45.5t-36.5 -15.5q-20 0 -31.5 10.5t-11.5 28.5q0 22 22 31q-1 23 -18.5 36.5
t-45.5 13.5q-36 0 -55 -21t-19 -65v-190q0 -110 -44.5 -167.5t-139.5 -57.5zM209 49q47 0 73 35t26 98q0 50 -25.5 80t-68.5 30q-49 0 -73 -35t-24 -88q0 -58 24.5 -89t67.5 -31z" />
    <glyph glyph-name="uniAB85" unicode="&#xab85;" horiz-adv-x="543" 
d="M44 0v46l62 6v275q0 108 54.5 164t157.5 56q59 0 101 -22t64 -62t22 -94q0 -42 -17.5 -77.5t-48.5 -56.5t-73 -21q-27 0 -43 13t-16 34q0 19 11 29.5t30 10.5q14 0 22.5 -7t11.5 -19q23 8 37.5 33t14.5 62q0 55 -30 87t-87 32q-63 0 -97.5 -39.5t-34.5 -119.5v-278l63 -6
v-46h-204z" />
    <glyph glyph-name="uniAB86" unicode="&#xab86;" horiz-adv-x="559" 
d="M305 -8q-83 0 -140 32t-86 92.5t-29 145.5q0 87 31 150t90 97t144 34q56 0 106 -16t77 -41v-102h-57l-6 68q-17 14 -48 22.5t-69 8.5q-60 0 -101.5 -24.5t-63 -73.5t-21.5 -121q0 -70 21 -117t61 -70.5t98 -23.5q66 0 103 28t37 72t-22.5 62.5t-66.5 18.5l-3 -65h-54v181
h54l3 -59q77 -1 116.5 -33t39.5 -100q0 -50 -26.5 -87.5t-74.5 -58t-113 -20.5z" />
    <glyph glyph-name="uniAB87" unicode="&#xab87;" horiz-adv-x="801" 
d="M56 0v46l63 6v430l-63 6v47h188l129 -364q8 -23 14.5 -44t10.5 -41h3q5 20 12 42l14 44l132 363h186v-47l-64 -6v-430l64 -6v-46h-196v46l56 6v237q0 49 1 91t2 81h-6l-168 -461h-77l-168 461h-5q2 -33 3 -77t1 -101v-231l57 -6v-46h-189z" />
    <glyph glyph-name="uniAB88" unicode="&#xab88;" horiz-adv-x="649" 
d="M398 0v46l66 6v150q-17 -16 -39 -29t-50 -21t-62 -8q-55 0 -89.5 20.5t-50.5 57.5h-70l-4 -67h-54v202h54l4 -65h122q7 -40 29 -61t68 -21q33 0 61 10t48.5 27t32.5 37v41q0 80 -32 121.5t-100 41.5q-36 0 -58 -11t-29 -24q20 -7 20 -29q0 -16 -11.5 -27.5t-32.5 -11.5
q-23 0 -36 14t-13 36q0 27 18 52.5t55 42t94 16.5q105 0 154.5 -56.5t49.5 -169.5v-268l62 -6v-46h-207z" />
    <glyph glyph-name="uniAB89" unicode="&#xab89;" horiz-adv-x="796" 
d="M281 -11q-61 0 -95.5 35t-34.5 101q0 44 16 77t41 64q-3 1 -7.5 1.5t-10.5 0.5q-43 0 -71 -24t-33 -63h-62q4 43 26.5 74.5t61 49.5t89.5 18q15 0 25.5 -1t17.5 -2q17 23 23.5 51.5t6.5 62.5v50l-64 3v48h202v-48l-64 -4v-61q4 -8 13.5 -13t25.5 -5q26 0 49 13t48 35
q40 35 75 52t78 17q60 0 95 -30.5t35 -83.5q0 -58 -37.5 -91.5t-102.5 -38.5v57q33 3 53 20t20 47q0 29 -16.5 44t-51.5 15q-29 0 -53.5 -13.5t-58.5 -42.5q-34 -28 -63.5 -44t-64.5 -16q-19 0 -33 5.5t-21 12.5q-4 -16 -11.5 -31t-16.5 -27q53 -22 81.5 -62.5t28.5 -95.5
q0 -74 -37 -115.5t-102 -41.5zM283 45q32 0 50 25t18 75q0 40 -20.5 69t-55.5 41q-26 -31 -41 -62t-15 -66q0 -40 17 -61t47 -21z" />
    <glyph glyph-name="uniAB8A" unicode="&#xab8a;" horiz-adv-x="831" 
d="M299 -8q-82 0 -137.5 33t-83.5 95t-28 148t28.5 147.5t84 94.5t137.5 33q74 0 126 -28.5t82 -81t36 -126.5h121v227h79v-534h-79v245h-120q-5 -117 -69 -185t-177 -68zM299 57q83 0 124.5 55t41.5 156q0 66 -18.5 113t-55 72.5t-91.5 25.5q-56 0 -93 -25t-55.5 -72
t-18.5 -114q0 -66 18.5 -113.5t55.5 -72.5t92 -25z" />
    <glyph glyph-name="uniAB8B" unicode="&#xab8b;" horiz-adv-x="670" 
d="M56 0v46l63 6v430l-63 6v47h204v-47l-61 -5v-177h272v177l-61 5v47h204v-47l-63 -6v-430l63 -6v-46h-204v46l61 6v196h-272v-196l61 -6v-46h-204z" />
    <glyph glyph-name="uniAB8C" unicode="&#xab8c;" horiz-adv-x="658" 
d="M395 -9q-64 0 -108.5 22t-67.5 60.5t-24 89.5h74q1 -49 34.5 -79.5t92.5 -30.5q42 0 75.5 16t52.5 49.5t19 83.5q0 77 -48 116t-139 42q-44 -53 -93.5 -81t-111.5 -28q-45 0 -79.5 19t-54.5 50l46 43q20 -22 42.5 -34t52.5 -12q49 0 89.5 28.5t71.5 72.5v65l-65 5v47h204
v-47l-65 -5v-67q111 -7 169 -60.5t58 -148.5q0 -63 -27.5 -112t-78 -76.5t-119.5 -27.5z" />
    <glyph glyph-name="uniAB8D" unicode="&#xab8d;" horiz-adv-x="629" 
d="M195 -8q-43 0 -71.5 15.5t-43.5 44.5t-17 69l-51 5v46h169v-46l-45 -5q0 -34 15.5 -52.5t47.5 -18.5q31 0 54.5 21.5t46.5 63.5l-245 400h92l154 -255q11 -16 20.5 -35t17.5 -37h3q8 19 17 37.5t17 34.5l103 203l-67 5v47h199v-47l-53 -5l-171 -333q-27 -52 -54 -87.5
t-60 -53t-78 -17.5z" />
    <glyph glyph-name="uniAB8E" unicode="&#xab8e;" horiz-adv-x="612" 
d="M306 -7q-84 0 -141 32.5t-86 94.5t-29 148q0 85 30 146.5t87.5 95t140.5 33.5t139.5 -33t85.5 -94.5t29 -147.5q0 -84 -30 -146t-87 -95.5t-139 -33.5zM306 53q82 0 125.5 50t47.5 143h-346q3 -61 23.5 -104.5t58 -66t91.5 -22.5zM134 304h345q-8 86 -51 132.5t-120 46.5
q-53 0 -90 -21t-58 -61t-26 -97z" />
    <glyph glyph-name="uniAB8F" unicode="&#xab8f;" horiz-adv-x="618" 
d="M430 -59v113h-2q-17 -27 -49.5 -44t-83.5 -17q-77 0 -120.5 43t-43.5 125v216h-104v55h105l3 103h77v-103h134v-55h-134v-212q0 -56 26 -83t75 -27q41 0 66.5 14t38 41t12.5 65v9h-101v55h270v-55h-99v-243h-70z" />
    <glyph glyph-name="uniAB90" unicode="&#xab90;" horiz-adv-x="610" 
d="M278 -7q-109 0 -168.5 70.5t-59.5 195.5q0 90 31 154.5t91 99t147 34.5q58 0 107.5 -15.5t75.5 -39.5v-110h-60l-6 74q-19 14 -48 22.5t-66 8.5q-62 0 -104.5 -25t-64 -75t-21.5 -126q0 -67 19 -113.5t55 -70.5t87 -24q56 0 94 26.5t48 67.5v46l-66 6v46h198v-46l-60 -6
v-193h-72v65q-25 -35 -64 -53.5t-93 -18.5z" />
    <glyph glyph-name="uniAB91" unicode="&#xab91;" horiz-adv-x="669" 
d="M91 -5q-32 0 -51 15.5t-19 43.5q0 20 12 33.5t33 13.5q19 0 29 -10.5t10 -26.5q0 -8 -2 -12q16 2 28 15t21 40.5t16 71t13 106.5q9 92 33 149.5t66 84.5t104 27q95 0 137 -48t42 -148v-298l62 -6v-46h-204v46l62 6v298q0 70 -22 102.5t-75 32.5q-45 0 -71 -23
t-38.5 -69.5t-19.5 -117.5q-8 -81 -24 -144.5t-49 -99.5t-93 -36z" />
    <glyph glyph-name="uniAB92" unicode="&#xab92;" horiz-adv-x="620" 
d="M57 0v46l62 6v430l-63 6v47h208v-47l-65 -5v-129q0 -19 -1 -34.5t-2 -27.5h3q17 35 56.5 58t96.5 23q86 0 128.5 -50t42.5 -145v-126l62 -6v-46h-203v46l62 6v119q0 64 -27.5 100t-86.5 36q-66 0 -98.5 -38.5t-32.5 -112.5v-104l62 -6v-46h-204z" />
    <glyph glyph-name="uniAB93" unicode="&#xab93;" horiz-adv-x="503" 
d="M40 0v54l333 424h-261l-7 -82h-53v139h409v-55l-332 -423h272l7 83h53v-140h-421z" />
    <glyph glyph-name="uniAB94" unicode="&#xab94;" horiz-adv-x="587" 
d="M339 0v46l63 6v59q0 22 0.5 43t1.5 36h-2q-12 -17 -32 -32.5t-48.5 -25t-67.5 -9.5q-76 0 -121.5 36t-53.5 97l-53 6v43h193v-43l-63 -5q5 -34 32 -55t78 -21q45 0 75.5 20t45.5 55t15 80q0 75 -31.5 113.5t-96.5 38.5q-53 0 -82.5 -21.5t-35.5 -54.5l63 -5v-44h-193v44
l53 5q8 39 32.5 69.5t65.5 47.5t97 17q103 0 155 -54t52 -160v-280l62 -6v-46h-204z" />
    <glyph glyph-name="uniAB95" unicode="&#xab95;" horiz-adv-x="885" 
d="M290 -7q-79 0 -132.5 32.5t-80.5 94t-27 148.5q0 86 28 147.5t82.5 94.5t132.5 33q68 0 119 -25.5t80.5 -79.5t34.5 -140l128 74l4 -15q13 -54 29 -79.5t48 -25.5t49 25.5t27 74.5l55 -6q-10 -76 -42 -116t-92 -40q-31 0 -53 11.5t-37.5 33t-26.5 52.5l-90 -52
q-8 -115 -71 -178.5t-165 -63.5zM290 57q80 0 118 54t38 157t-38.5 157t-115.5 54q-54 0 -89 -24.5t-52.5 -71.5t-17.5 -115q0 -67 17.5 -114.5t52.5 -72t87 -24.5z" />
    <glyph glyph-name="uniAB96" unicode="&#xab96;" horiz-adv-x="600" 
d="M70 0v143h52l7 -86h130v421h-144l-7 -86h-52v143h470v-143h-52l-7 86h-129v-421h146l7 86h53v-143h-474z" />
    <glyph glyph-name="uniAB97" unicode="&#xab97;" horiz-adv-x="818" 
d="M215 -8q-84 0 -128.5 45.5t-44.5 133.5q0 36 9.5 70.5t22.5 53.5l64 -4q-9 -19 -16 -47t-7 -62q0 -62 26.5 -94.5t78.5 -32.5q53 0 87.5 33t46.5 98q0 27 4 57t8 47l71 -2q-4 -18 -6.5 -39.5t-2.5 -44.5q0 -71 29.5 -110t88.5 -39q69 0 107 53t38 159q0 96 -51.5 153.5
t-135.5 57.5q-51 0 -86.5 -20t-57.5 -49l-48 41q19 28 47 48.5t66.5 32.5t86.5 12q84 0 141.5 -35.5t87 -97.5t29.5 -142q0 -90 -27 -151.5t-77.5 -93t-121.5 -31.5q-44 0 -76 13.5t-52.5 38t-29.5 55.5h-2q-13 -33 -36.5 -57t-56.5 -37t-76 -13z" />
    <glyph glyph-name="uniAB98" unicode="&#xab98;" horiz-adv-x="706" 
d="M343 -8q-73 0 -114 45t-41 127q0 71 30.5 141t85.5 128q-22 22 -46.5 34.5t-52.5 12.5q-43 0 -68 -27.5t-25 -80.5q0 -10 0.5 -19.5t0.5 -17.5h-68l-2 20t-1 20q0 81 43.5 124.5t120.5 43.5q43 0 80 -16t68 -45q35 29 76 45t88 16q76 0 117 -35.5t41 -94.5
q0 -37 -15.5 -64t-42.5 -43t-62 -20v59q20 6 33.5 23t13.5 44q0 31 -23 49.5t-64 18.5q-33 0 -62 -11.5t-53 -34.5q53 -58 80 -124t27 -138q0 -82 -45.5 -131t-119.5 -49zM345 54q38 0 60.5 30.5t22.5 85.5q0 62 -19 115.5t-57 99.5q-39 -43 -62.5 -103t-23.5 -117
q0 -55 21 -83t58 -28z" />
    <glyph glyph-name="uniAB99" unicode="&#xab99;" horiz-adv-x="1035" 
d="M414 0l-62 229h-2q-12 -33 -38 -61.5t-63 -45.5t-84 -17q-64 0 -101.5 34t-37.5 92q0 53 34 85t88 32q40 0 58 -15.5t18 -39.5q0 -19 -10.5 -30.5t-30.5 -11.5q-16 0 -25 9t-9 24q0 7 3 12.5t7 8.5l5 -15q-4 2 -8.5 2.5t-8.5 0.5q-27 0 -41.5 -17t-14.5 -42
q0 -32 20.5 -50.5t60.5 -18.5q45 0 78 24.5t51.5 63.5t21.5 82l-55 200h80l90 -357q8 -29 15 -62t11 -54h3q5 21 15 51.5t20 61.5l83 240q12 35 20 59.5t12 44.5v16h74v-17q4 -10 15.5 -17t29.5 -7q12 0 27 4.5t36 14.5q22 10 42.5 15t41.5 5q58 0 92 -32.5t34 -84.5
q0 -37 -17 -66t-48 -45.5t-73 -16.5q-51 0 -82.5 24t-42.5 66l55 17q8 -25 25.5 -38t44.5 -13q33 0 53 19.5t20 49.5q0 29 -18.5 45t-48.5 16q-16 0 -33 -4t-37 -13q-21 -10 -37.5 -14.5t-31.5 -4.5q-20 0 -35.5 5.5t-26.5 15.5l-165 -459h-97z" />
    <glyph glyph-name="uniAB9A" unicode="&#xab9a;" horiz-adv-x="854" 
d="M221 -8q-85 0 -132 47t-47 132q0 37 9.5 71.5t22.5 52.5l66 -4q-10 -19 -16.5 -47t-6.5 -60q0 -62 28.5 -95.5t80.5 -33.5q36 0 63 14t46 44t29 78q14 68 46.5 97t81.5 29q35 0 53 -16.5t18 -40.5q0 -20 -10.5 -32.5t-30.5 -12.5q-18 0 -27 10t-9 23q0 20 15 23l10 -16
q-4 2 -9 3.5t-12 1.5q-25 0 -40.5 -25t-15.5 -64q0 -49 31.5 -82.5t89.5 -33.5q53 0 91.5 25t59 73t20.5 117q0 62 -24 109t-68 73.5t-105 26.5q-52 0 -92 -18t-66 -46l-44 46q20 22 49 40.5t68.5 30t89.5 11.5q86 0 147 -34t93 -95t32 -143q0 -87 -31 -149.5t-87.5 -96
t-133.5 -33.5q-46 0 -80 14t-55 38t-29 52h-3q-19 -46 -62 -75t-104 -29z" />
    <glyph glyph-name="uniAB9B" unicode="&#xab9b;" horiz-adv-x="526" 
d="M269 -9q-104 0 -159.5 41.5t-55.5 117.5q0 43 17 74t46.5 50t66.5 25v2q-52 9 -78.5 37t-26.5 73q0 60 51 96t141 36q53 0 94.5 -9t70.5 -23l-25 -53q-25 11 -58.5 18t-71.5 7q-61 0 -93 -20.5t-32 -57.5t33.5 -55.5t102.5 -18.5h96v-58h-95q-76 0 -117.5 -30t-41.5 -83
t36 -80.5t104 -27.5q62 0 97 17.5t35 48.5q0 20 -15 29t-42 9h-12v52h16q58 0 89.5 -22.5t31.5 -69.5q0 -58 -55.5 -91.5t-149.5 -33.5z" />
    <glyph glyph-name="uniAB9C" unicode="&#xab9c;" horiz-adv-x="645" 
d="M323 -7q-109 0 -163.5 45.5t-54.5 136.5v308l-61 5v47h203v-47l-62 -5v-166h275v166l-62 5v47h203v-47l-61 -5v-311q0 -86 -56 -132.5t-161 -46.5zM324 54q69 0 102.5 29t33.5 93v84h-275v-81q0 -65 34 -95t105 -30z" />
    <glyph glyph-name="uniAB9D" unicode="&#xab9d;" horiz-adv-x="844" 
d="M205 -8q-76 0 -119.5 43t-43.5 121q0 79 45 124.5t118 45.5q68 0 109.5 -34t50.5 -97l106 46l1 40l-61 6v46h194v-46l-57 -6v-125q0 -53 15.5 -78.5t51.5 -25.5q48 0 74 47.5t26 141.5q0 76 -29.5 128t-86.5 79t-140 27q-49 0 -91 -11t-74 -28t-53 -35l-37 55
q24 21 61 41t87 33t112 13q107 0 181 -37t112.5 -104.5t38.5 -159.5q0 -115 -48 -182.5t-137 -67.5q-49 0 -80 17.5t-45.5 51t-14.5 81.5v46l-105 -50q-7 -68 -50 -107t-111 -39zM205 49q41 0 65.5 29.5t24.5 81.5q0 53 -24 81t-66 28t-66.5 -29t-24.5 -82q0 -52 24.5 -80.5
t66.5 -28.5z" />
    <glyph glyph-name="uniAB9E" unicode="&#xab9e;" horiz-adv-x="493" 
d="M230 0v46l61 6v82h-273v58l259 344h93v-342h82v-60h-82v-82l60 -6v-46h-200zM95 194h196v158l3 106h-4l-27 -44z" />
    <glyph glyph-name="uniAB9F" unicode="&#xab9f;" horiz-adv-x="534" 
d="M56 0v46l62 6v431l-62 5v47h206v-47l-65 -5v-168h83q110 0 163 -37.5t53 -114.5q0 -80 -58 -121.5t-169 -41.5h-213zM197 57h78q71 0 106 25t35 78t-33.5 75t-106.5 22h-79v-200z" />
    <glyph glyph-name="uniABA0" unicode="&#xaba0;" horiz-adv-x="542" 
d="M168 0v46l63 6v430l-63 6v47h206v-47l-63 -5v-431l63 -6v-46h-206zM137 181q-54 0 -84.5 26t-30.5 71q0 29 15.5 46t40.5 17q20 0 32 -10.5t12 -27.5q0 -16 -9.5 -24t-23.5 -8q-5 0 -10 2t-9 6l17 15q-1 -4 -1.5 -7.5t-0.5 -6.5q0 -23 16.5 -34t41.5 -11q23 0 51 13
t51 37v-64q-28 -21 -54.5 -30.5t-53.5 -9.5zM464 194q-20 0 -32 11t-12 27q0 17 10 25t23 8q5 0 10 -2t8 -7l-16 -15q1 4 1.5 7.5t0.5 7.5q0 23 -16 34t-42 11q-24 0 -51.5 -13.5t-50.5 -37.5v64q27 21 54 31t54 10q54 0 84.5 -26.5t30.5 -71.5q0 -28 -15.5 -45.5
t-40.5 -17.5z" />
    <glyph glyph-name="uniABA1" unicode="&#xaba1;" horiz-adv-x="702" 
d="M297 -9q-62 0 -97.5 35.5t-35.5 101.5q0 27 5 56.5t13.5 61.5t17.5 65q-7 -1 -13.5 -1h-13.5q-67 0 -102 33.5t-35 88.5q0 54 35.5 85.5t91.5 31.5q59 0 92 -32.5t33 -90.5q0 -11 -1 -20.5t-3 -19.5q33 13 60 35.5t54.5 45.5t61 38.5t79.5 15.5q61 0 96.5 -31t35.5 -85
q0 -58 -37.5 -91.5t-102.5 -38.5v55q32 4 52.5 22t20.5 48q0 27 -19 42.5t-52 15.5t-61 -16.5t-56.5 -40.5t-63 -46.5t-79.5 -33.5q-6 -22 -12.5 -43.5t-11.5 -44.5h25q79 0 116.5 -31.5t37.5 -90.5q0 -52 -37 -86t-94 -34zM300 46q29 0 46 18t17 49q0 37 -25.5 53.5
t-78.5 16.5h-20q-3 -13 -4.5 -26.5t-1.5 -27.5q0 -43 16.5 -63t50.5 -20zM182 366q8 0 16.5 1t15.5 2q3 13 5 26t2 25q0 38 -16 56.5t-45 18.5q-28 0 -44.5 -16.5t-16.5 -44.5q0 -34 21.5 -51t61.5 -17z" />
    <glyph glyph-name="uniABA2" unicode="&#xaba2;" horiz-adv-x="591" 
d="M56 0v46l61 6v431l-61 5v47h254q110 0 160.5 -41.5t50.5 -115.5q0 -62 -34.5 -101t-92.5 -53l93 -172l54 -6v-46h-193v46l55 5l-136 262h77l22 -39q36 8 56 32t20 65q0 34 -14.5 58t-46.5 36.5t-85 12.5h-99v-426l60 -6v-46h-201z" />
    <glyph glyph-name="uniABA3" unicode="&#xaba3;" horiz-adv-x="514" 
d="M291 -8q-94 0 -139.5 51.5t-45.5 160.5v279l-62 6v46h204v-46l-63 -6v-286q0 -74 27.5 -110t83.5 -36q54 0 84 33t30 95q0 41 -11.5 59.5t-32.5 18.5q-20 0 -30.5 -14t-10.5 -44v-22.5t-1 -20.5h-56q-1 10 -1.5 22.5t-0.5 24.5q0 55 26.5 84.5t73.5 29.5q37 0 61.5 -16
t37 -46.5t12.5 -74.5q0 -57 -22 -99t-63.5 -65.5t-100.5 -23.5z" />
    <glyph glyph-name="uniABA4" unicode="&#xaba4;" horiz-adv-x="808" 
d="M207 0l-187 535h90l123 -371q11 -31 19.5 -59.5t13.5 -48.5h3q9 25 19 52t20 52l49 118l-90 257h80l55 -176l65 176h79l-107 -257l40 -120q10 -28 18.5 -56t13.5 -46h3q8 22 18 50.5t20 53.5l148 375h87l-224 -535h-102l-68 202l-83 -202h-103z" />
    <glyph glyph-name="uniABA5" unicode="&#xaba5;" horiz-adv-x="564" 
d="M224 -8q-47 0 -90.5 11t-71.5 27v113h53l6 -71q20 -10 47 -16t58 -6q61 0 94 22.5t33 63.5q0 28 -15.5 45t-46.5 31.5t-78 31.5q-45 17 -77.5 35.5t-49.5 46.5t-17 71q0 68 52 107t134 39q74 0 118 -25.5t55 -76.5h102v-56h-168v14q0 43 -28.5 65.5t-81.5 22.5
q-48 0 -77.5 -22t-29.5 -60q0 -29 15 -47t43.5 -31t68.5 -28q50 -18 83.5 -35t51.5 -38.5t23 -54.5h100v-55h-102q-8 -57 -61.5 -90.5t-142.5 -33.5z" />
    <glyph glyph-name="uniABA6" unicode="&#xaba6;" horiz-adv-x="634" 
d="M408 -8q-85 0 -129 47t-44 139v300h-143l-7 -86h-52v143h483v-57h-202v-152q0 -16 -0.5 -30t-0.5 -30h2q13 20 42 35t72 15q71 0 111 -41.5t40 -115.5q0 -75 -47.5 -121t-124.5 -46zM409 51q43 0 69 28t26 77t-23 75.5t-69 26.5q-47 0 -72 -27.5t-25 -72.5
q0 -52 24.5 -79.5t69.5 -27.5z" />
    <glyph glyph-name="uniABA7" unicode="&#xaba7;" horiz-adv-x="571" 
d="M115 -9q-45 0 -69.5 19.5t-24.5 51.5q0 23 14.5 38.5t36.5 15.5q21 0 32 -10.5t11 -25.5q0 -9 -3 -14.5t-8 -10.5q5 -1 10 -1.5t12 -0.5q45 0 87.5 30.5t77.5 79.5t57 106t25 109v105l-65 5v47h207v-47l-62 -5v-431l62 -6v-46h-142v100q0 25 0.5 50.5t1.5 47.5h-2
q-19 -45 -47 -82.5t-61.5 -65.5t-71.5 -43.5t-78 -15.5z" />
    <glyph glyph-name="uniABA8" unicode="&#xaba8;" horiz-adv-x="599" 
d="M115 -9q-45 0 -69.5 19.5t-24.5 51.5q0 23 14.5 38.5t36.5 15.5q21 0 32 -10.5t11 -25.5q0 -9 -3 -14.5t-8 -10.5q5 -1 10 -1.5t12 -0.5q39 0 75.5 19.5t68.5 53t57 76t40 88t18 88.5v100h-184l-6 -89h-53v146h409v-57h-87v-478h-79v100q0 25 0.5 50.5t1.5 47.5h-2
q-19 -45 -48 -82.5t-64.5 -65.5t-75.5 -43.5t-82 -15.5z" />
    <glyph glyph-name="uniABA9" unicode="&#xaba9;" horiz-adv-x="591" 
d="M235 0l-168 483l-58 5v47h210v-47l-64 -5l112 -340q4 -12 8 -26t8 -27.5t7 -25.5h3q4 12 8.5 26t9.5 28t9 26l123 339l-65 5v47h204v-47l-58 -5l-183 -483h-106z" />
    <glyph glyph-name="uniABAA" unicode="&#xabaa;" horiz-adv-x="483" 
d="M224 -8q-49 0 -91.5 11t-70.5 27v113h53l6 -71q18 -10 44.5 -15.5t60.5 -5.5q56 0 86 21.5t30 64.5q0 29 -15 46.5t-44 31.5t-71 30q-48 19 -80 39.5t-47.5 48t-15.5 66.5q0 67 51.5 105t134.5 38q46 0 85.5 -9.5t64.5 -24.5v-112h-53l-6 72q-16 8 -38 13t-54 5
q-51 0 -79.5 -21.5t-28.5 -59.5q0 -28 15.5 -46t44 -31t66.5 -28q48 -18 81.5 -37.5t50.5 -47t17 -68.5q0 -46 -23 -81t-67 -54.5t-107 -19.5z" />
    <glyph glyph-name="uniABAB" unicode="&#xabab;" horiz-adv-x="852" 
d="M208 -11q-53 0 -88.5 25.5t-52.5 78.5t-17 134q0 93 32 165t94.5 113t152.5 41q55 0 92.5 -14t60 -38.5t31.5 -56.5h5q11 31 31 55.5t50.5 39t70.5 14.5q70 0 111 -37t41 -98q0 -55 -34.5 -91.5t-90.5 -36.5q-30 0 -51 9t-34 23l34 46q8 -8 19.5 -13t26.5 -5
q28 0 44.5 18.5t16.5 46.5q0 35 -22 54.5t-63 19.5q-40 0 -66 -21t-39 -57.5t-15 -82.5h-75q-1 80 -28 117.5t-89 41.5v-294q0 -94 -37 -145.5t-111 -51.5zM211 51q36 0 53.5 31.5t17.5 101.5v294q-47 -8 -81 -42t-52 -87.5t-18 -123.5q0 -61 9 -99.5t27 -56.5t44 -18z" />
    <glyph glyph-name="uniABAC" unicode="&#xabac;" horiz-adv-x="659" 
d="M163 -8q-60 0 -94 32t-34 87q0 45 23 77.5t68 58.5q23 14 47.5 24.5t49 20.5t46.5 19q-38 22 -55.5 49t-17.5 65q0 55 38.5 86.5t96.5 31.5t95.5 -31t37.5 -85q0 -38 -18.5 -65.5t-57.5 -49.5q17 -7 42.5 -17t52 -21.5t48.5 -23.5q47 -26 70 -59t23 -77q0 -55 -35 -88.5
t-94 -33.5q-39 0 -67.5 14.5t-44.5 41t-16 62.5q0 41 22.5 70.5t62.5 45.5q-15 8 -38.5 17.5l-47 19t-39.5 16.5q-15 -7 -36.5 -16.5t-42.5 -18.5t-38 -17q41 -19 61.5 -47.5t20.5 -68.5q0 -36 -17 -62.5t-46 -41.5t-66 -15zM164 43q29 0 46.5 19t17.5 50q0 32 -18 54
t-51 33q-31 -16 -45 -37.5t-14 -50.5q0 -32 17 -50t47 -18zM495 43q29 0 47 18.5t18 51.5q0 29 -13.5 49.5t-44.5 36.5q-34 -10 -52.5 -32t-18.5 -56q0 -31 17 -49.5t47 -18.5zM329 340q39 19 55 39t16 48q0 29 -19.5 47.5t-49.5 18.5q-31 0 -51 -19t-20 -48q0 -28 16 -48
t53 -38z" />
    <glyph glyph-name="uniABAD" unicode="&#xabad;" horiz-adv-x="540" 
d="M44 0v46l64 6v271q0 109 53 166t157 57q64 0 101.5 -18.5t54 -45t16.5 -51.5q0 -26 -13.5 -40.5t-36.5 -14.5q-22 0 -33.5 11.5t-11.5 31.5q0 11 5 18t16 11q-11 17 -36 28t-60 11q-66 0 -99.5 -39t-33.5 -110v-281h242l6 91h53v-148h-444z" />
    <glyph glyph-name="uniABAE" unicode="&#xabae;" horiz-adv-x="520" 
d="M56 0v46l64 6v430l-64 6v47h214v-47l-70 -6v-425h230l6 91h53v-148h-433z" />
    <glyph glyph-name="uniABAF" unicode="&#xabaf;" horiz-adv-x="550" 
d="M297 -8q-122 0 -184.5 69.5t-62.5 201.5q0 85 31 148t90 97.5t143 34.5q55 0 103.5 -16t75.5 -41v-110h-59l-7 76q-19 14 -47 22.5t-63 8.5q-61 0 -102 -24.5t-62 -73.5t-21 -121q0 -104 43 -157.5t128 -53.5q56 0 90 23.5t43 69.5h67q-7 -70 -60.5 -112t-145.5 -42z" />
    <glyph glyph-name="uniABB0" unicode="&#xabb0;" horiz-adv-x="703" 
d="M413 -13q-58 0 -96 21t-56.5 63.5t-18.5 104.5v63h-38q-85 0 -130.5 35.5t-45.5 103.5q0 60 40.5 97.5t106.5 37.5q68 0 104.5 -37t36.5 -106v-70h204v182l-63 6v47h202v-47l-63 -6v-292q0 -67 -19 -112t-59.5 -68t-104.5 -23zM202 300h40v70q0 42 -17.5 63t-51.5 21
t-54.5 -20.5t-20.5 -54.5q0 -39 26.5 -59t77.5 -20zM414 47q42 0 65 17.5t32 50t9 75.5v49h-204v-58q0 -44 10 -74t31.5 -45t56.5 -15z" />
    <glyph glyph-name="uniABB1" unicode="&#xabb1;" horiz-adv-x="723" 
d="M536 543q77 0 116 -40.5t39 -114.5q0 -14 -1 -27t-3 -24h-69q1 7 1.5 18t0.5 23q0 52 -21.5 77.5t-64.5 25.5q-26 0 -50 -12t-46 -34q53 -58 82 -126t29 -135q0 -85 -44 -133.5t-120 -48.5q-72 0 -114 44.5t-42 123.5q0 69 31 142.5t82 130.5q-24 23 -49 35.5t-54 12.5
q-46 0 -70 -24t-28 -76l62 -6v-46h-187v46l53 6q7 76 50.5 119t117.5 43q45 0 82 -16t71 -45q31 28 67 44.5t79 16.5zM389 385q-37 -49 -59.5 -109t-22.5 -112q0 -56 20.5 -84t58.5 -28t61 30t23 84q0 57 -22 114.5t-59 104.5z" />
    <glyph glyph-name="uniABB2" unicode="&#xabb2;" horiz-adv-x="534" 
d="M56 0v46l62 6v431l-62 5v47h222q111 0 164.5 -38.5t53.5 -120.5t-54.5 -126t-161.5 -44h-82v-154l65 -6v-46h-207zM198 264h80q69 0 103.5 27.5t34.5 82.5q0 54 -34.5 78.5t-107.5 24.5h-76v-213z" />
    <glyph glyph-name="uniABB3" unicode="&#xabb3;" horiz-adv-x="581" 
d="M300 -8q-82 0 -138 33t-84 94t-28 146q0 82 30 144.5t88 98t141 35.5q54 0 94.5 -16.5t65.5 -47t30 -71.5l49 -6v-45h-186v45l60 6q-1 32 -31 51.5t-83 19.5q-57 0 -96 -24t-59.5 -71t-20.5 -117q0 -99 44 -154.5t129 -55.5q58 0 93 20t46 54q-18 2 -28.5 12t-10.5 26
q0 18 13.5 30.5t37.5 12.5q27 0 42.5 -16.5t15.5 -48.5q0 -46 -27 -81t-75.5 -54.5t-111.5 -19.5z" />
    <glyph glyph-name="uniABB4" unicode="&#xabb4;" horiz-adv-x="659" 
d="M231 0v478h-139l-7 -86h-52v143h369v-57h-93v-234q0 -47 -1 -93.5t-3 -78.5h3q11 26 24 52.5t33 63.5l185 347h87l-300 -535h-106z" />
    <glyph glyph-name="uniABB5" unicode="&#xabb5;" horiz-adv-x="727" 
d="M56 0v46l63 6v430l-63 6v47h204v-47l-61 -5v-153q0 -20 -1 -38.5t-2 -31.5h3q18 27 53 48.5t88 34t124 12.5q80 0 134.5 -16.5t82 -45t27.5 -64.5q0 -27 -13.5 -42t-37.5 -15q-22 0 -34 10.5t-12 27.5q0 23 21 32q-2 12 -20 23t-49 18.5t-73 8.5v-240l63 -6v-46h-203v46
l60 6v240q-59 -2 -107 -19t-76 -48.5t-28 -79.5v-93l60 -6v-46h-203z" />
    <glyph glyph-name="uniABB6" unicode="&#xabb6;" horiz-adv-x="616" 
d="M56 0v46l63 6v431l-63 5v47h203v-47l-60 -5v-243l59 63l175 181l-60 4v47h196v-47l-51 -5l-171 -174l182 -256l53 -7v-46h-207v46l60 6l-142 204l-53 -50l-41 -39v-115l60 -6v-46h-203z" />
    <glyph glyph-name="uniABB7" unicode="&#xabb7;" horiz-adv-x="483" 
d="M194 -8q-76 0 -120.5 43t-44.5 119q0 75 43 118.5t115 43.5q38 0 66 -13.5t41 -34.5h3q-1 17 -1.5 33t-0.5 40v141l-65 6v47h209v-47l-65 -6v-280q0 -100 -44 -155t-136 -55zM198 50q45 0 70.5 30.5t25.5 84.5q0 41 -24.5 67t-68.5 26q-49 0 -73 -28.5t-24 -75.5
q0 -49 25.5 -76.5t68.5 -27.5z" />
    <glyph glyph-name="uniABB8" unicode="&#xabb8;" horiz-adv-x="659" 
d="M287 -8q-75 0 -128 31t-81 92t-28 150q0 82 29 144.5t85 98t135 35.5q57 0 95.5 -19.5t62.5 -55.5l51 57h2l50 -58l46 54h2l35 -37l-81 -96h-2l-52 63l-55 -62h-2q-30 51 -64.5 72.5t-83.5 21.5q-54 0 -92 -25.5t-58.5 -74.5t-20.5 -120q0 -70 19.5 -117t55.5 -70t87 -23
q49 0 87.5 23t69.5 74h2l53 -62l55 65h2l79 -95l-36 -39h-2l-46 54l-52 -61h-2l-53 58q-26 -37 -68 -57.5t-96 -20.5z" />
    <glyph glyph-name="uniABB9" unicode="&#xabb9;" horiz-adv-x="704" 
d="M284 -8q-76 0 -128 31.5t-79 91.5t-27 143q0 91 32 155.5t92 99.5t145 35q66 0 108.5 -18t63.5 -46.5t21 -58.5q0 -25 -13 -40t-36 -15q-22 0 -34 12t-12 29q0 12 5.5 20.5t16.5 12.5q-9 18 -41 31.5t-77 13.5q-61 0 -103 -25.5t-64 -76t-22 -126.5q0 -67 19 -113.5
t55 -70.5t87 -24q56 0 91.5 24.5t45.5 67.5v43l-65 6v46h198v-46l-61 -6v-41q0 -46 15.5 -69.5t46.5 -23.5q32 0 47.5 17.5t15.5 54.5q0 6 -0.5 11.5t-0.5 11.5h55q1 -8 1.5 -17t0.5 -20q0 -52 -31.5 -82.5t-87.5 -30.5q-85 0 -114 63q-25 -34 -66 -52t-100 -18z" />
    <glyph glyph-name="uniABBA" unicode="&#xabba;" horiz-adv-x="869" 
d="M190 -8q-76 0 -114 41.5t-38 117.5q0 14 1 26t3 22h69q-1 -7 -1.5 -18t-0.5 -22q0 -53 22.5 -79t63.5 -26q29 0 51.5 11.5t40.5 31.5q-49 54 -75 123t-26 144q0 86 39 132.5t109 46.5q67 0 104.5 -43.5t37.5 -126.5q0 -73 -26.5 -145.5t-70.5 -127.5q23 -22 54.5 -34
t71.5 -12q55 0 95.5 20t67.5 56q-58 44 -87 107.5t-29 137.5q0 75 35.5 118t97.5 43q66 0 100.5 -42t34.5 -126q0 -45 -10 -96.5t-32.5 -101t-59 -90t-89 -64.5t-123.5 -24q-55 0 -98.5 15.5t-75.5 43.5q-28 -28 -62.5 -43.5t-79.5 -15.5zM333 149q21 32 36 68.5t22.5 75.5
t7.5 78q0 59 -17 85.5t-49 26.5q-33 0 -51.5 -28.5t-18.5 -87.5q0 -66 18 -120t52 -98zM704 187q18 35 30 85t12 96q0 59 -15.5 84.5t-44.5 25.5q-28 0 -44.5 -26t-16.5 -76q0 -56 21.5 -106.5t57.5 -82.5z" />
    <glyph glyph-name="uniABBB" unicode="&#xabbb;" horiz-adv-x="613" 
d="M306 -7q-83 0 -140.5 33t-86.5 94.5t-29 146.5t30 147t87.5 95.5t140.5 33.5t140 -32.5t86 -94t29 -147.5q0 -85 -29.5 -147t-86.5 -95.5t-141 -33.5zM306 53q65 0 107 33t59 93h-190l-13 126h-136q-1 -10 -1.5 -20.5t-0.5 -20.5q0 -67 19.5 -114t58.5 -72t97 -25z
M344 237h137q1 9 1 17v18q0 101 -44 156t-130 55q-64 0 -106 -31t-59 -89h187z" />
    <glyph glyph-name="uniABBC" unicode="&#xabbc;" horiz-adv-x="848" 
d="M416 -7q-111 0 -193.5 43.5t-127.5 120t-45 175.5q0 106 48 158.5t127 52.5q68 0 109.5 -43t41.5 -132q0 -55 -16.5 -103t-46.5 -86.5t-71 -67.5q35 -24 79.5 -37.5t99.5 -13.5q95 0 162 33t102.5 93.5t35.5 142.5q0 72 -27 108t-76 36q-37 0 -60 -19.5t-23 -57.5
q0 -29 14.5 -46t41.5 -19v-61q-58 2 -92 34.5t-34 91.5q0 60 41 99.5t111 39.5q89 0 135 -55.5t46 -147.5q0 -97 -44.5 -173.5t-129.5 -121t-208 -44.5zM193 151q35 26 59 58t36 71.5t12 85.5q0 57 -20.5 86t-58.5 29q-45 0 -69 -36t-24 -107q0 -55 16.5 -103t48.5 -84z" />
    <glyph glyph-name="uniABBD" unicode="&#xabbd;" horiz-adv-x="506" 
d="M229 -8q-88 0 -134.5 43t-46.5 122q0 10 0.5 17.5t1.5 12.5h70q0 -4 -0.5 -11.5t-0.5 -15.5q0 -56 29 -80.5t84 -24.5q29 0 53 11.5t41.5 33t26.5 50.5q-82 29 -141.5 61.5t-92 74.5t-32.5 98q0 72 49 115.5t128 43.5q94 0 142.5 -60.5t48.5 -183.5q0 -46 -8 -90.5
t-25 -83.5t-43.5 -69t-63.5 -47t-86 -17zM368 212q4 22 6 45t2 45q0 95 -28 138t-85 43q-42 0 -70 -27t-28 -70q0 -36 19.5 -65t64 -55t119.5 -54z" />
    <glyph glyph-name="uniABBE" unicode="&#xabbe;" horiz-adv-x="501" 
d="M251 -7q-95 0 -142.5 59t-47.5 175q0 104 27 174t77.5 106t118.5 36q45 0 80 -13.5t55 -36t20 -51.5q0 -25 -12 -39t-34 -14q-20 0 -31.5 10t-11.5 28q0 11 5 18t14 11q-10 15 -31 23t-53 8q-48 0 -80 -28t-48.5 -78t-18.5 -116h3q12 24 45.5 45.5t92.5 21.5
q78 0 122.5 -43t44.5 -120q0 -78 -53 -127t-142 -49zM253 50q55 0 85.5 31.5t30.5 84.5q0 50 -28 79.5t-81 29.5q-37 0 -63 -14.5t-39.5 -39t-13.5 -55.5q0 -53 28.5 -84.5t80.5 -31.5z" />
    <glyph glyph-name="uniABBF" unicode="&#xabbf;" horiz-adv-x="847" 
d="M221 -12q-84 0 -131.5 51t-47.5 136q0 38 10 69.5t22 50.5l66 -4q-9 -19 -16 -46t-7 -61q0 -62 30 -97.5t82 -35.5q50 0 86 29t55 87q-8 33 -26 56t-35 28q-13 0 -34 -5t-41 -11l-5 58q20 10 40 15t42 5q32 0 56 -17.5t39 -58.5h3q17 41 37 57.5t43 16.5q18 0 33.5 -7.5
t34.5 -7.5q8 0 17 1.5t19 3.5l4 -62q-11 -3 -23 -5t-25 -2q-16 0 -31 4.5t-28 11.5q-13 -7 -26 -30.5t-21 -52.5q17 -58 45.5 -86t75.5 -28q69 0 112 52.5t43 152.5q0 66 -29 117.5t-83 81t-129 29.5q-58 0 -101.5 -16t-72.5 -39l-36 52q22 18 52.5 33.5t71 24.5t91.5 9
q97 0 168 -38t109.5 -103t38.5 -147q0 -85 -29 -146t-81 -93.5t-122 -32.5q-67 0 -106 29.5t-59 76.5h-2q-24 -49 -69 -77.5t-110 -28.5z" />
    <glyph glyph-name="uni13A0.alt" horiz-adv-x="739" 
d="M66 0v48l75 8v535l-75 7v48h279q151 0 233 -82.5t82 -234.5q0 -160 -85.5 -244.5t-248.5 -84.5h-260zM220 59h100q127 0 192 67.5t65 199.5q0 128 -62 195t-181 67h-114v-529z" />
    <glyph glyph-name="uni13A1.alt" horiz-adv-x="677" 
d="M573 -5q-33 0 -53 11.5t-30 32t-15 48.5l-12 70q-7 40 -19.5 66.5t-30 41t-40.5 18.5h-153v-230l79 -7v-46h-233v46l75 7v540l-75 7v46h273q122 0 180 -42t58 -126q0 -67 -35 -110t-100 -57v-3q25 -8 43.5 -25.5t31.5 -43.5t20 -61l16 -76q5 -28 17 -39.5t34 -11.5
q8 0 14.5 0.5t10.5 1.5l6 -47q-10 -4 -25.5 -7.5t-36.5 -3.5zM220 339h128q73 0 110 31.5t37 96.5q0 50 -19.5 76t-57 35.5t-93.5 9.5h-105v-249z" />
    <glyph glyph-name="uni13A2.alt" horiz-adv-x="640" 
d="M188 0v46l92 8v534h-182l-7 -104h-57v162h572v-162h-57l-7 104h-182v-534l91 -8v-46h-263z" />
    <glyph glyph-name="uni13A3.alt" horiz-adv-x="809" 
d="M505 -10v59q56 10 94 33t57.5 60t19.5 88q0 86 -61.5 139t-175.5 76q-21 -19 -44.5 -36t-47.5 -29q40 -25 62.5 -68t22.5 -102q0 -61 -23.5 -107t-66.5 -71t-100 -25q-88 0 -139 52t-51 145q0 62 24 107.5t66.5 70.5t99.5 25q9 0 17.5 -0.5t17.5 -2.5q34 15 62 35.5
t45 42.5t18 39v72l-78 7v46h230v-46l-78 -7v-96q138 -32 207 -98t69 -168q0 -68 -30.5 -120.5t-86 -83.5t-130.5 -37zM242 65q54 0 85.5 38t31.5 106q0 66 -30.5 103t-86.5 37q-54 0 -85.5 -38.5t-31.5 -104.5q0 -67 31 -104t86 -37z" />
    <glyph glyph-name="uni13A4.alt" horiz-adv-x="1014" 
d="M341 -10q-93 0 -155.5 38.5t-94.5 113.5t-32 182q0 105 33 179.5t97 113.5t155 39q106 0 171.5 -56t92.5 -166q17 -70 58 -109.5t98 -39.5q67 0 100 44t33 136q0 65 -20.5 97.5t-59.5 32.5q-35 0 -52 -23t-17 -70v-14.5t1 -15.5h-58q-1 8 -1.5 20t-0.5 28q0 62 33 98
t92 36q71 0 109.5 -49t38.5 -139q0 -78 -23 -133t-65.5 -84.5t-103.5 -29.5q-51 0 -88 19t-64 61q-9 -151 -79.5 -230t-197.5 -79zM341 55q67 0 111 30t66 90t22 148q0 134 -49.5 201.5t-146.5 67.5q-67 0 -112 -30.5t-67.5 -90.5t-22.5 -148q0 -87 22 -146.5t66.5 -90.5
t110.5 -31z" />
    <glyph glyph-name="uni13A5.alt" horiz-adv-x="321" 
d="M44 0v46l77 8v369h79v-369l78 -8v-46h-234zM161 544q-23 0 -36 14t-13 39q0 26 12.5 39.5t36.5 13.5q23 0 35.5 -14t12.5 -39t-12.5 -39t-35.5 -14z" />
    <glyph glyph-name="uni13A6.alt" horiz-adv-x="648" 
d="M294 -10q-51 0 -94.5 14.5t-70 42.5t-26.5 67q0 27 14.5 42.5t38.5 15.5q23 0 35 -11.5t12 -31.5q0 -14 -7 -23.5t-23 -14.5q12 -18 45 -29t77 -11q73 0 113.5 28t40.5 80q0 30 -15 54.5t-47 46t-82 40.5h-224v53h63q23 0 40.5 -0.5t30.5 -1.5v3q-33 20 -54 41.5
t-31 45.5t-10 53q0 50 26 86.5t73 56t111 19.5q51 0 95.5 -15t71.5 -43t27 -67q0 -28 -13 -43.5t-39 -15.5q-22 0 -35 11.5t-13 31.5q0 13 6.5 23.5t18.5 15.5q-9 20 -41 31.5t-79 11.5q-63 0 -98 -25.5t-35 -72.5q0 -32 13.5 -56t43.5 -44t80 -41h234v-52h-77
q-20 0 -37 0.5t-34 1.5v-4q40 -23 63 -45t33.5 -45.5t10.5 -53.5q0 -52 -27.5 -90.5t-79 -59t-125.5 -20.5z" />
    <glyph glyph-name="uni13A7.alt" horiz-adv-x="761" 
d="M365 -10q-91 0 -160.5 33.5t-109 95t-39.5 144.5q0 64 22 110t64.5 71.5t102.5 25.5q68 0 109 -42t41 -114q0 -51 -21.5 -92.5t-62 -72.5t-97.5 -51q26 -21 64 -32.5t87 -11.5q79 0 136 35.5t88 98t31 144.5q0 81 -32 139.5t-91.5 89.5t-140.5 31q-52 0 -105.5 -17
t-86.5 -43l-36 49q39 34 100 54.5t132 20.5q107 0 183.5 -38.5t117.5 -111t41 -174.5t-41.5 -179t-117.5 -120t-178 -43zM175 138q43 13 75.5 38t51 60t18.5 76q0 47 -22 74.5t-59 27.5q-49 0 -77.5 -39t-28.5 -109q0 -40 11.5 -74t30.5 -54z" />
    <glyph glyph-name="uni13A8.alt" horiz-adv-x="664" 
d="M66 0v46l76 7v540l-76 7v46h229v-46l-73 -7v-247l173 103l2 -8q16 -65 34 -102.5t64 -37.5q37 0 59 30.5t33 93.5l57 -6q-11 -91 -48.5 -136.5t-105.5 -45.5q-34 0 -60 13.5t-44.5 41t-31.5 67.5l-132 -78v-228l73 -7v-46h-229z" />
    <glyph glyph-name="uni13A9.alt" horiz-adv-x="693" 
d="M196 -10q-48 0 -72 22t-24 53q0 23 14 36.5t39 13.5q21 0 32.5 -10.5t11.5 -28.5q0 -7 -2 -12t-5 -8q2 -4 6.5 -7t13.5 -3q29 0 56.5 25.5t55.5 76.5l-230 445l-62 7v46h232v-46l-79 -7l140 -288q11 -21 21 -44t17 -44h3q9 22 20 46.5t21 45.5l134 284l-80 7v46h214v-46
l-56 -7l-183 -375q-28 -58 -60 -110t-74.5 -85t-103.5 -33z" />
    <glyph glyph-name="uni13AA.alt" horiz-adv-x="692" 
d="M10 0v46l72 7l221 594h100l207 -594l72 -7v-46h-238v46l80 7l-48 148h-264l-53 -148l80 -7v-46h-229zM231 259h226l-61 190q-17 54 -28.5 92t-16.5 59h-3q-6 -21 -18 -59.5t-32 -94.5z" />
    <glyph glyph-name="uni13AB.alt" horiz-adv-x="551" 
d="M209 -11q-51 0 -93 16.5t-66.5 45.5t-24.5 68q0 32 15 50.5t40 18.5q23 0 36 -11.5t13 -30.5q0 -16 -7.5 -26.5t-21.5 -15.5q9 -26 35.5 -40.5t70.5 -14.5q71 0 105.5 47t34.5 140v357l-80 7v46h233v-46l-74 -7v-350q0 -125 -54.5 -189.5t-161.5 -64.5z" />
    <glyph glyph-name="uni13AC.alt" horiz-adv-x="651" 
d="M66 0v46l76 7v540l-76 7v46h521v-153h-60l-4 95h-301v-227h162l5 68h53v-194h-53l-5 70h-162v-247h308l5 96h59v-154h-528z" />
    <glyph glyph-name="uni13AD.alt" horiz-adv-x="932" 
d="M489 0v333l-117 -72q-8 -70 -53.5 -110t-114.5 -40q-77 0 -123 48t-46 130t47 131t124 49q68 0 112 -38.5t54 -106.5l117 70v199l-88 7v46h241v-46l-78 -7v-294q0 -64 -2 -124.5t-4 -107.5h2q16 29 37 64.5t50 80.5l110 168l-76 7v47h228v-47l-72 -6l-257 -381h-91z
M204 165q47 0 74.5 33t27.5 92t-26.5 91.5t-73.5 32.5q-49 0 -75.5 -33t-26.5 -92t26.5 -91.5t73.5 -32.5z" />
    <glyph glyph-name="uni13AE.alt" horiz-adv-x="584" 
d="M66 0v46l76 7v387l-76 7v47h224v-47l-69 -7v-103h51q96 0 144.5 39.5t48.5 121.5q0 71 -48.5 109t-139.5 38q-43 0 -86 -9.5t-77 -24.5l-23 53q32 20 83.5 32.5t107.5 12.5q79 0 137 -25.5t89.5 -72t31.5 -109.5q0 -54 -17 -95.5t-50.5 -70.5t-83 -44t-114.5 -15h-54
v-224l76 -7v-46h-231z" />
    <glyph glyph-name="uni13AF.alt" horiz-adv-x="717" 
d="M93 -5q-33 0 -52.5 15.5t-19.5 42.5q0 22 13 35.5t35 13.5q17 0 29.5 -9t12.5 -29q0 -8 -1 -11q23 3 39 24.5t26.5 57.5t17.5 84.5t11 106.5q10 122 35 194.5t72 104.5t121 32q65 0 107 -24t66 -69t34 -109t10 -145q0 -78 -10.5 -136.5t-31 -98.5t-51 -60t-71.5 -20
q-33 0 -52.5 15.5t-19.5 42.5q0 21 13 34.5t34 13.5q17 0 30.5 -8t13.5 -27q0 -3 -0.5 -6t-0.5 -6q17 1 29 20.5t20 51t12 70.5t5 78h-294q-9 -87 -29.5 -149.5t-57 -96t-95.5 -33.5zM281 332h289q-1 63 -7.5 112t-21.5 83t-42.5 51.5t-70.5 17.5q-50 0 -80 -26t-45.5 -84
t-21.5 -154z" />
    <glyph glyph-name="uni13B0.alt" horiz-adv-x="566" 
d="M66 0v46l76 7v540l-76 7v46h230v-46l-74 -7v-231h224l8 85h49v-227h-49l-8 82h-224v-249l74 -7v-46h-230z" />
    <glyph glyph-name="uni13B1.alt" horiz-adv-x="594" 
d="M66 0v46l76 7v540l-76 7v46h504v-171h-60l-6 113h-281v-535l85 -7v-46h-242z" />
    <glyph glyph-name="uni13B2.alt" horiz-adv-x="846" 
d="M224 -10q-88 0 -132 48.5t-44 136.5q0 16 1 30t3 26h68q-1 -7 -1.5 -19.5t-0.5 -26.5q0 -66 27 -99t81 -33q32 0 61.5 15.5t57.5 44.5q-42 49 -72 103.5t-45.5 111.5t-15.5 112q0 100 50 158t136 58q82 0 129.5 -53.5t47.5 -146.5q0 -56 -17 -117t-47.5 -118.5
t-70.5 -104.5q30 -31 61.5 -47t66.5 -16q59 0 89.5 33.5t35.5 104.5l-80 7v46h216v-46l-67 -7q-7 -96 -57 -148.5t-136 -52.5q-49 0 -92 19.5t-84 56.5q-37 -36 -79.5 -56t-89.5 -20zM394 160q31 43 54.5 93.5t36.5 101.5t13 96q0 71 -26 107.5t-75 36.5t-78 -39t-29 -106
q0 -49 12.5 -100.5t36 -99.5t55.5 -90z" />
    <glyph glyph-name="uni13B3.alt" horiz-adv-x="989" 
d="M255 0l-168 593l-74 7v46h234v-46l-76 -7l111 -421q5 -18 9 -36t7.5 -35t5.5 -34h4q6 25 13.5 51t15.5 54l123 404l-5 17l-73 7v46h226v-46l-77 -7l108 -416q9 -35 14.5 -58t10.5 -52h3q5 19 10 37t10.5 36.5t10.5 36.5l127 416l-78 7v46h229v-46l-74 -7l-193 -593h-93
l-85 324q-8 32 -18.5 74.5t-17.5 76.5h-4q-7 -32 -18 -69t-26 -85l-100 -321h-92z" />
    <glyph glyph-name="uni13B4.alt" horiz-adv-x="720" 
d="M227 -10q-83 0 -132.5 56.5t-49.5 155.5q0 67 24 116.5t67 77t99 27.5q47 0 79.5 -18.5t45.5 -47.5h3q0 11 -0.5 21t-1 22t-0.5 29v42q0 60 20.5 101t59.5 62.5t92 21.5q68 0 112.5 -38t44.5 -99q0 -36 -14 -54.5t-40 -18.5q-22 0 -35 12t-13 31q0 16 8 26t24 17
q-3 32 -25.5 50t-59.5 18q-48 0 -73 -29t-25 -88l3 -225q1 -132 -51.5 -200t-161.5 -68zM239 48q59 0 92 46.5t33 127.5q0 64 -32.5 102.5t-85.5 38.5q-63 0 -93 -46t-30 -113q0 -75 31 -115.5t85 -40.5z" />
    <glyph glyph-name="uni13B5.alt" horiz-adv-x="630" 
d="M52 0v46l75 7v344q0 126 61 192.5t178 66.5q66 0 115.5 -25.5t77 -69.5t27.5 -101q0 -56 -20 -100t-55.5 -69t-81.5 -25q-28 0 -44.5 13.5t-16.5 35.5q0 20 12.5 32.5t32.5 12.5q15 0 25.5 -8.5t14.5 -22.5q27 11 43.5 44t16.5 84q0 43 -17.5 74t-50.5 48t-80 17
q-78 0 -118.5 -50.5t-40.5 -145.5v-347l76 -7v-46h-230z" />
    <glyph glyph-name="uni13B6.alt" horiz-adv-x="652" 
d="M357 -10q-96 0 -162.5 38.5t-101 112t-34.5 176.5t36.5 179t106 118t168.5 42q43 0 84.5 -9.5t75.5 -25.5t54 -36v-115h-61l-6 83q-21 18 -60.5 29t-85.5 11q-75 0 -126 -31.5t-77 -92.5t-26 -150q0 -87 25 -146t74.5 -89.5t121.5 -30.5q54 0 92.5 16t59.5 45.5t21 67.5
q0 56 -27 80.5t-84 24.5l-3 -83h-58v216h58l3 -76q91 -1 135.5 -40t44.5 -117q0 -61 -32.5 -105t-88.5 -68t-127 -24z" />
    <glyph glyph-name="uni13B7.alt" horiz-adv-x="927" 
d="M66 0v46l75 7v540l-75 7v46h211l156 -468q9 -28 15.5 -52t11.5 -45h6q5 21 13 47t17 52l160 466h205v-46l-75 -7v-540l75 -7v-46h-219v46l66 7v303q0 44 0.5 81t1 71.5t1.5 69.5h-10l-203 -578h-82l-200 578h-10q2 -29 3.5 -63t2 -75.5t0.5 -92.5v-294l65 -7v-46h-211z
" />
    <glyph glyph-name="uni13B8.alt" horiz-adv-x="750" 
d="M464 0v46l80 7v201q-21 -21 -47.5 -37.5t-59.5 -25.5t-72 -9q-64 0 -104 24.5t-59 72.5h-90l-5 -85h-57v231h57l5 -82h145q6 -32 19.5 -53.5t36 -32t56.5 -10.5q40 0 74 12t60 33.5t41 48.5v45q0 103 -39.5 157.5t-123.5 54.5q-44 0 -71.5 -14t-35.5 -30q27 -10 27 -38
q0 -19 -12.5 -31t-35.5 -12q-24 0 -38.5 14.5t-14.5 39.5q0 31 20.5 60.5t62.5 49.5t106 20q122 0 178 -69.5t56 -207.5v-327l75 -7v-46h-234z" />
    <glyph glyph-name="uni13B9.alt" horiz-adv-x="920" 
d="M317 -8q-70 0 -109.5 40t-39.5 116q0 32 7.5 61.5t22.5 58.5t37 58q-4 1 -9.5 1.5t-12.5 0.5q-51 0 -83 -29t-40 -76h-64q6 49 32 85t69 56t99 20q17 0 28.5 -1t18.5 -2q22 29 31.5 66.5t9.5 79.5v67l-77 4v48h230v-48l-77 -4v-84q4 -11 16.5 -18t32.5 -7q32 0 60.5 18.5
t59.5 43.5q32 27 60.5 45t56.5 27.5t60 9.5q69 0 109.5 -36.5t40.5 -97.5q0 -67 -42.5 -105t-114.5 -47v60q40 5 64 27.5t24 59.5q0 35 -22 54.5t-61 19.5q-25 0 -46.5 -8t-43 -23t-47.5 -37q-42 -34 -77 -53.5t-75 -19.5q-24 0 -41 6.5t-25 16.5q-5 -22 -14 -42.5
t-22 -37.5q64 -26 98 -76t34 -119q0 -82 -42 -130.5t-116 -48.5zM318 50q41 0 63.5 31.5t22.5 85.5q0 58 -26 96.5t-71 52.5q-24 -29 -39.5 -55.5t-23 -53t-7.5 -56.5q0 -48 21.5 -74.5t59.5 -26.5z" />
    <glyph glyph-name="uni13BA.alt" horiz-adv-x="975" 
d="M353 -9q-95 0 -160.5 39.5t-99.5 114t-34 179.5q0 104 34 178.5t100 114t161 39.5q86 0 148 -35t98.5 -100.5t43.5 -157.5h145v282h80v-645h-80v303h-145q-3 -96 -39 -166t-100 -108t-152 -38zM353 55q105 0 158 69.5t53 199.5q0 85 -23.5 145t-70 91.5t-116.5 31.5
t-117 -31t-71 -91t-24 -147q0 -85 24 -145t71 -91.5t116 -31.5z" />
    <glyph glyph-name="uni13BB.alt" horiz-adv-x="784" 
d="M66 0v46l76 7v540l-76 7v46h230v-46l-74 -7v-229h341v229l-75 7v46h230v-46l-75 -7v-540l75 -7v-46h-230v46l75 7v252h-341v-252l74 -7v-46h-230z" />
    <glyph glyph-name="uni13BC.alt" horiz-adv-x="747" 
d="M439 -10q-74 0 -126.5 25.5t-80 72t-28.5 109.5h76q2 -66 44.5 -105t115.5 -39q53 0 95 21t66.5 64t24.5 109q0 95 -58.5 143.5t-168.5 52.5q-53 -66 -111.5 -99t-128.5 -33q-49 0 -88.5 21t-62.5 58l46 43q25 -28 52 -41.5t61 -13.5q59 0 109 37t85 89v89l-79 7v46h231
v-46l-78 -7v-91q132 -7 200.5 -72t68.5 -179q0 -76 -32.5 -135t-91.5 -92.5t-141 -33.5z" />
    <glyph glyph-name="uni13BD.alt" horiz-adv-x="743" 
d="M229 -10q-48 0 -81.5 18.5t-51 54t-19.5 85.5l-63 7v46h192v-46l-55 -7q0 -46 20.5 -72t61.5 -26q25 0 46 12t40.5 35.5t39.5 59.5l-290 489h94l190 -327q12 -20 24 -43t22 -44h3q11 23 21.5 45t21.5 44l133 272l-85 7v46h229v-46l-65 -7l-206 -413q-32 -64 -64.5 -106.5
t-70 -63t-87.5 -20.5z" />
    <glyph glyph-name="uni13BE.alt" horiz-adv-x="716" 
d="M358 -9q-97 0 -163.5 39t-101 113.5t-34.5 180.5q0 104 35.5 178t103 114t162.5 40t161.5 -39.5t101 -114t34.5 -179.5q0 -101 -36 -176t-102.5 -115.5t-160.5 -40.5zM358 53q68 0 115 29t73 85t29 137h-434q3 -80 28.5 -136.5t73 -85.5t115.5 -29zM142 366h432
q-10 111 -64.5 169.5t-149.5 58.5q-65 0 -111.5 -26.5t-73 -77t-33.5 -124.5z" />
    <glyph glyph-name="uni13BF.alt" horiz-adv-x="718" 
d="M505 -71v139h-3q-20 -34 -59 -55t-99 -21q-89 0 -139 50t-50 149v272h-125v57h127v126h78v-126h161v-57h-161v-267q0 -71 31.5 -106t90.5 -35q51 0 84 18t48.5 53t15.5 86v10h-124v57h316v-57h-123v-293h-69z" />
    <glyph glyph-name="uni13C0.alt" horiz-adv-x="717" 
d="M332 -9q-87 0 -148 39t-93 111.5t-32 174.5q0 104 37 180t108 118t172 42q67 0 126 -19.5t88 -49.5v-124h-65l-5 90q-24 19 -61 29.5t-82 10.5q-77 0 -129.5 -31t-79 -92.5t-26.5 -151.5q0 -83 23.5 -142.5t68 -91t107.5 -31.5q71 0 120.5 35.5t60.5 90.5v50l-79 7v47
h225v-47l-73 -7v-229h-73v84q-29 -46 -77 -69.5t-113 -23.5z" />
    <glyph glyph-name="uni13C1.alt" horiz-adv-x="772" 
d="M94 -5q-32 0 -52 16t-20 43q0 22 13 36t35 14q20 0 31 -11t11 -30q0 -8 -2 -12q20 3 35 20t26 51t19.5 87.5t15.5 129.5q11 113 37 183t74.5 102.5t126.5 32.5q101 0 151 -57t50 -179v-368l75 -7v-46h-230v46l75 7v365q0 92 -31 134t-99 42q-57 0 -87.5 -29.5t-44.5 -88
t-23 -145.5q-7 -72 -18 -133t-30.5 -106.5t-52.5 -71t-85 -25.5z" />
    <glyph glyph-name="uni13C2.alt" horiz-adv-x="719" 
d="M66 0v46l76 7v540l-76 7v46h235v-46l-79 -7v-164q0 -27 -1 -48t-3 -36l4 -1q15 30 41 52.5t62 35t80 12.5q101 0 150 -53t49 -163v-175l76 -7v-46h-229v46l74 7v169q0 79 -32 118.5t-100 39.5q-58 0 -96 -22t-56.5 -65t-18.5 -108v-132l75 -7v-46h-231z" />
    <glyph glyph-name="uni13C3.alt" horiz-adv-x="588" 
d="M47 0v57l406 531h-328l-7 -102h-57v160h478v-57l-406 -531h341l8 102h57v-160h-492z" />
    <glyph glyph-name="uni13C4.alt" horiz-adv-x="677" 
d="M395 0v46l76 7v75q0 31 1 60.5t2 49.5h-4q-14 -23 -38 -43t-58.5 -31.5t-79.5 -11.5q-87 0 -140 43.5t-63 118.5l-61 6v45h214v-45l-76 -5q5 -46 39.5 -74.5t96.5 -28.5q55 0 92 25t56 69.5t19 100.5q0 94 -38.5 142t-118.5 48q-67 0 -104 -29.5t-42 -73.5l76 -5v-45
h-214v45l61 6q9 48 37.5 84.5t75 57t109.5 20.5q117 0 176.5 -64.5t59.5 -189.5v-350l76 -7v-46h-230z" />
    <glyph glyph-name="uni13C5.alt" horiz-adv-x="1038" 
d="M341 -9q-93 0 -155.5 38.5t-94.5 113t-32 181.5q0 105 33.5 179.5t97.5 113.5t155 39q61 0 109.5 -18.5t83.5 -55.5t56 -92.5t25 -130.5l150 91l3 -9q16 -72 36 -106t60 -34q38 0 60 30.5t34 93.5l56 -6q-11 -91 -48 -136.5t-105 -45.5q-34 0 -60 13.5t-44.5 40.5
t-32.5 68l-109 -65q-7 -143 -81 -223t-197 -80zM341 55q67 0 111 30t66 90t22 148q0 134 -49.5 201.5t-146.5 67.5q-67 0 -112 -30.5t-67.5 -90.5t-22.5 -148q0 -87 22 -146.5t66.5 -90.5t110.5 -31z" />
    <glyph glyph-name="uni13C6.alt" horiz-adv-x="707" 
d="M84 0v162h57l8 -104h163v530h-180l-7 -104h-57v162h549v-162h-57l-7 104h-162v-530h184l6 104h58v-162h-555z" />
    <glyph glyph-name="uni13C7.alt" horiz-adv-x="957" 
d="M250 -10q-99 0 -150.5 54.5t-51.5 159.5q0 43 11 86t27 65l65 -3q-11 -24 -19.5 -59t-8.5 -76q0 -80 33 -121.5t97 -41.5q44 0 77.5 19t56 55.5t31.5 90.5q0 33 5 70t9 58h74q-4 -22 -7 -48.5t-3 -55.5q0 -91 36 -140t108 -49q58 0 98 30.5t61 91t21 149.5
q0 80 -28.5 139.5t-79.5 92t-119 32.5q-61 0 -102.5 -23t-67.5 -60l-51 41q22 34 55 58.5t77 37.5t97 13q95 0 162 -42.5t102.5 -117.5t35.5 -171q0 -109 -30.5 -184t-89.5 -113t-145 -38q-49 0 -86.5 16t-62 45.5t-35.5 70.5h-3q-16 -42 -44.5 -71.5t-67.5 -45t-87 -15.5z
" />
    <glyph glyph-name="uni13C8.alt" horiz-adv-x="810" 
d="M392 -10q-83 0 -129.5 54t-46.5 151q0 87 37 175.5t103 161.5q-26 29 -58 45t-64 16q-36 0 -62.5 -16.5t-41 -47.5t-14.5 -77q0 -12 0.5 -22t0.5 -19h-67q-1 10 -1.5 20t-0.5 23q0 65 22.5 110t64.5 68.5t101 23.5q46 0 90 -20.5t80 -55.5q41 38 89 57t100 19
q85 0 132.5 -41.5t47.5 -111.5q0 -41 -16 -72.5t-45 -50.5t-68 -25v60q26 8 41 31t15 57q0 41 -29.5 65.5t-79.5 24.5q-40 0 -74.5 -15.5t-65.5 -44.5q42 -49 70 -102t42.5 -110t14.5 -117q0 -64 -23.5 -112t-66 -75t-98.5 -27zM394 53q49 0 77.5 39.5t28.5 109.5
q0 56 -10.5 105t-32 93.5t-54.5 84.5q-32 -36 -57 -84.5t-39 -101t-14 -102.5q0 -71 26.5 -107.5t74.5 -36.5z" />
    <glyph glyph-name="uni13C9.alt" horiz-adv-x="1207" 
d="M491 0l-76 286h-2q-15 -43 -46 -78.5t-75.5 -56.5t-100.5 -21q-71 0 -116 39t-45 109q0 62 39 100t101 38q47 0 67 -17.5t20 -44.5q0 -21 -12 -34t-34 -13q-18 0 -28.5 10t-10.5 28q0 8 3.5 15t7.5 10l6 -15q-5 2 -10.5 2.5t-10.5 0.5q-34 0 -52 -23t-18 -54
q0 -42 25.5 -66t75.5 -24q54 0 94.5 30t64.5 79t26 105l-64 241h81l109 -444q9 -37 18 -78t14 -68h3q6 26 18 64.5t25 76.5l100 299q14 44 23.5 75t15.5 55v20h75v-19q5 -15 20 -23t37 -8q14 0 32.5 5.5t44.5 18.5t49 18.5t46 5.5q63 0 104.5 -38t41.5 -97
q0 -44 -19.5 -78.5t-55 -53.5t-82.5 -19q-58 0 -94 27t-48 76l56 18q11 -31 32 -48t54 -17q41 0 66 25.5t25 65.5q0 37 -23.5 57.5t-60.5 20.5q-21 0 -39 -5t-42 -17q-25 -13 -45 -18.5t-39 -5.5q-24 0 -43.5 7t-33.5 20l-195 -564h-99z" />
    <glyph glyph-name="uni13CA.alt" horiz-adv-x="991" 
d="M256 -10q-99 0 -153.5 56t-54.5 158q0 44 11 87.5t27 63.5l65 -3q-11 -24 -19 -59t-8 -74q0 -79 35 -122t99 -43q45 0 78.5 19t56.5 57.5t34 97.5q15 79 51.5 114.5t94.5 35.5q38 0 57 -17.5t19 -44.5q0 -22 -11.5 -35.5t-33.5 -13.5q-19 0 -29 11t-10 26q0 22 17 25
l11 -16q-4 2 -10 3.5t-14 1.5q-32 0 -51.5 -33.5t-19.5 -83.5q0 -42 18 -75.5t51 -52.5t78 -19q66 0 112.5 32.5t71 94t24.5 148.5q0 78 -29 137t-82 92.5t-126 33.5q-61 0 -108 -21t-78 -56l-44 44q23 27 56.5 49t78 35t100.5 13q97 0 167 -40t108.5 -113.5t38.5 -173.5
q0 -105 -35.5 -181t-101.5 -117t-157 -41q-52 0 -91 16.5t-64 45.5t-34 65h-3q-15 -38 -43 -67t-66 -44.5t-84 -15.5z" />
    <glyph glyph-name="uni13CB.alt" horiz-adv-x="616" 
d="M314 -10q-121 0 -186 49t-65 139q0 49 19 85.5t53.5 60.5t81.5 32v3q-62 11 -94.5 46t-32.5 90q0 73 60.5 117t165.5 44q62 0 111.5 -10.5t85.5 -30.5l-28 -54q-31 15 -74 24t-87 9q-75 0 -116 -28t-41 -76q0 -49 43.5 -74t130.5 -25h117v-62h-117q-96 0 -146.5 -37.5
t-50.5 -103.5q0 -67 44.5 -101t129.5 -34q77 0 120.5 22.5t43.5 62.5q0 24 -17 36t-50 12h-14v55h20q44 0 73 -12t44 -35.5t15 -58.5q0 -66 -65 -105.5t-174 -39.5z" />
    <glyph glyph-name="uni13CC.alt" horiz-adv-x="756" 
d="M380 -8q-129 0 -191.5 53t-62.5 164v384l-74 7v46h229v-46l-75 -7v-216h345v216l-76 7v46h229v-46l-74 -7v-390q0 -102 -64.5 -156.5t-185.5 -54.5zM380 55q87 0 129 37t42 119v109h-345v-104q0 -84 42.5 -122.5t131.5 -38.5z" />
    <glyph glyph-name="uni13CD.alt" horiz-adv-x="973" 
d="M237 -10q-88 0 -138.5 52t-50.5 144q0 62 23.5 108t66 71t99.5 25q78 0 126.5 -40.5t59.5 -115.5l130 57l2 55l-77 7v46h221v-46l-71 -7v-160q0 -70 19.5 -103.5t63.5 -33.5q41 0 68.5 28t42 82t14.5 131q0 97 -36.5 163t-106 100.5t-169.5 34.5q-58 0 -107 -14t-87 -35
t-64 -44l-39 53q29 27 72 51.5t100.5 40.5t127.5 16q93 0 165.5 -25t122.5 -72.5t76 -115t26 -153.5q0 -93 -24.5 -160.5t-71.5 -103.5t-113 -36q-52 0 -86.5 20t-51.5 60t-17 101v64l-129 -64q-7 -85 -57 -133t-130 -48zM237 47q53 0 84 38.5t31 105.5t-30 104.5t-85 37.5
t-85.5 -38.5t-30.5 -105.5t31 -104.5t85 -37.5z" />
    <glyph glyph-name="uni13CE.alt" horiz-adv-x="584" 
d="M279 0v46l75 7v112h-333v59l312 424h100v-421h98v-62h-98v-112l73 -7v-46h-227zM101 227h253v216l2 135h-3l-32 -52z" />
    <glyph glyph-name="uni13CF.alt" horiz-adv-x="621" 
d="M66 0v46l75 7v540l-75 7v46h235v-46l-81 -7v-219h99q88 0 145 -19.5t85 -59.5t28 -103q0 -95 -68.5 -143.5t-202.5 -48.5h-240zM220 58h95q93 0 137.5 32.5t44.5 99.5q0 46 -18.5 73t-58 39.5t-103.5 12.5h-97v-257z" />
    <glyph glyph-name="uni13D0.alt" horiz-adv-x="629" 
d="M199 0v46l76 7v540l-76 7v46h231v-46l-76 -7v-540l76 -7v-46h-231zM158 220q-62 0 -98 31.5t-36 83.5q0 32 17 51.5t44 19.5q23 0 35.5 -11.5t12.5 -30.5q0 -18 -11 -27.5t-25 -9.5t-21 10l17 16q-1 -5 -2 -9.5t-1 -9.5q0 -30 20.5 -44t51.5 -14q28 0 61.5 16.5
t61.5 46.5v-69q-35 -27 -66 -38.5t-61 -11.5zM543 240q-22 0 -35 12t-13 31q0 18 11.5 27t25.5 9q6 0 11.5 -2t9.5 -7l-17 -16q3 9 3 19q0 29 -21 43t-51 14q-28 0 -62 -16t-61 -47v69q35 27 66 39t61 12q62 0 98 -31.5t36 -84.5q0 -32 -17.5 -51.5t-44.5 -19.5z" />
    <glyph glyph-name="uni13D1.alt" horiz-adv-x="816" 
d="M339 -7q-71 0 -111.5 41.5t-40.5 115.5q0 32 6.5 69.5t17 79t21.5 86.5q-7 -1 -14.5 -1.5t-15.5 -0.5q-79 0 -119.5 38t-40.5 104q0 59 39.5 96t102.5 37q68 0 104.5 -35.5t36.5 -105.5q0 -15 -1.5 -27.5t-4.5 -26.5q42 16 75.5 43.5t67 55.5t73.5 47.5t94 19.5
q69 0 110 -35.5t41 -98.5q0 -66 -41 -106t-115 -47v56q40 6 64 30t24 61q0 34 -22.5 54.5t-64.5 20.5q-40 0 -75 -20.5t-70.5 -49.5t-77 -56t-94.5 -40q-7 -31 -14.5 -61.5t-14.5 -60.5h27q93 0 138 -37t45 -111q0 -38 -19.5 -69t-53 -48.5t-77.5 -17.5zM342 50
q37 0 58 22.5t21 59.5q0 48 -31.5 70t-101.5 22h-20q-4 -18 -6.5 -36t-2.5 -35q0 -52 20.5 -77.5t62.5 -25.5zM207 441q11 0 20 1t18 3q4 17 6 34t2 32q0 47 -18 69.5t-53 22.5q-34 0 -56 -21t-22 -55q0 -43 25.5 -64.5t77.5 -21.5z" />
    <glyph glyph-name="uni13D2.alt" horiz-adv-x="686" 
d="M66 0v46l75 7v540l-75 7v46h293q87 0 141.5 -22.5t80 -64t25.5 -97.5q0 -76 -40.5 -122.5t-118.5 -60.5l120 -227l78 -6v-46h-233v46l69 6l-161 325h76l28 -53q52 10 76 42.5t24 87.5q0 42 -17 72t-56.5 46t-106.5 16h-123v-535l76 -7v-46h-231z" />
    <glyph glyph-name="uni13D3.alt" horiz-adv-x="589" 
d="M336 -10q-106 0 -157.5 61t-51.5 190v352l-75 7v46h230v-46l-76 -7v-359q0 -93 33 -138t99 -45q67 0 103.5 42t36.5 121q0 50 -14.5 74t-41.5 24q-25 0 -38 -18t-13 -55q0 -14 -0.5 -27t-0.5 -26h-57q-1 12 -1.5 26.5t-0.5 28.5q0 63 30 97.5t82 34.5q40 0 67.5 -18.5
t42 -54.5t14.5 -88q0 -68 -25.5 -118t-72.5 -77t-113 -27z" />
    <glyph glyph-name="uni13D4.alt" horiz-adv-x="924" 
d="M247 0l-223 646h89l152 -461q13 -41 23.5 -74.5t15.5 -55.5h4q8 21 15.5 41.5t15.5 41.5t16 41l63 155l-107 312h82l69 -227l83 227h77l-124 -313l52 -156q8 -25 15 -48t13 -41.5t9 -32.5h3q9 27 22 63t25 67l177 461h85l-262 -646h-103l-82 252l-102 -252h-103z" />
    <glyph glyph-name="uni13D5.alt" horiz-adv-x="664" 
d="M265 -10q-52 0 -104.5 13.5t-83.5 32.5v126h58l6 -83q25 -14 56.5 -20.5t69.5 -6.5q77 0 119 28.5t42 83.5q0 35 -19.5 57t-57.5 39.5t-95 39.5q-53 21 -91 43t-58 55t-20 84q0 52 27.5 91t75.5 61t110 22q88 0 139 -32t63 -96h123v-58h-188v15q0 53 -36 82.5t-103 29.5
q-61 0 -98 -29t-37 -78q0 -37 18.5 -60t52.5 -40t82 -35q60 -22 100 -43t62 -47.5t27 -66.5h120v-57h-121q-8 -70 -71.5 -110.5t-167.5 -40.5z" />
    <glyph glyph-name="uni13D6.alt" horiz-adv-x="727" 
d="M475 -10q-97 0 -147 59t-50 160v379h-180l-7 -104h-57v162h566v-58h-243v-197q0 -20 -0.5 -37.5t-1.5 -37.5h3q16 28 51 45.5t81 17.5q85 0 132 -50.5t47 -139.5q0 -59 -25 -104t-68.5 -70t-100.5 -25zM474 51q54 0 87 36.5t33 100.5q0 63 -29.5 97t-85.5 34
q-39 0 -66 -16t-41 -45t-14 -68q0 -67 30.5 -103t85.5 -36z" />
    <glyph glyph-name="uni13D7.alt" horiz-adv-x="663" 
d="M130 -11q-49 0 -76.5 20.5t-27.5 55.5q0 25 15 41t39 16q23 0 35.5 -10.5t12.5 -29.5q0 -10 -4 -17t-10 -14q5 -1 11 -1.5t16 -0.5q44 0 86.5 25t79.5 67t66 94.5t47 108t22 107.5v142l-80 7v46h235v-46l-75 -7v-540l75 -7v-46h-155v123q0 33 1 66.5t2 61.5h-4
q-24 -58 -57 -106t-74 -83t-86.5 -54t-93.5 -19z" />
    <glyph glyph-name="uni13D8.alt" horiz-adv-x="695" 
d="M130 -11q-49 0 -76.5 20.5t-27.5 55.5q0 25 15 41t39 16q23 0 35.5 -10.5t12.5 -29.5q0 -10 -4 -17t-10 -14q5 -1 11 -1.5t16 -0.5q49 0 94.5 24t84.5 65t69 93t48.5 109t22.5 111v137h-228l-8 -112h-57v170h471v-58h-99v-588h-79v123q0 33 0.5 66.5t1.5 61.5h-3
q-24 -58 -59 -106t-78 -83t-92 -54t-100 -19z" />
    <glyph glyph-name="uni13D9.alt" horiz-adv-x="693" 
d="M287 0l-204 593l-73 7v46h240v-46l-81 -7l145 -445q5 -15 9.5 -30.5t9 -30.5t7.5 -29h4q4 14 8.5 28.5t10 30t10.5 30.5l159 446l-80 7v46h231v-46l-72 -7l-221 -593h-103z" />
    <glyph glyph-name="uni13DA.alt" horiz-adv-x="568" 
d="M265 -10q-55 0 -106 13.5t-82 32.5v126h58l6 -83q22 -13 53.5 -20t72.5 -7q71 0 108 28.5t37 84.5q0 37 -19 60t-54 40.5t-85 36.5q-58 23 -94.5 48t-54 58t-17.5 78q0 51 27 89t74.5 58.5t110.5 20.5q53 0 100 -11.5t76 -30.5v-124h-57l-7 84q-19 11 -47 17t-66 6
q-63 0 -99 -27.5t-36 -77.5q0 -35 19 -58t53.5 -40.5t79.5 -35.5q55 -21 94 -45t60 -56.5t21 -81.5q0 -56 -27 -97t-77.5 -63.5t-121.5 -22.5z" />
    <glyph glyph-name="uni13DB.alt" horiz-adv-x="987" 
d="M239 -10q-62 0 -102 31t-59 94.5t-19 159.5q0 111 38 197t111 135t179 49q60 0 103 -15t69.5 -44t38.5 -71h6q13 40 37 69t58.5 45t77.5 16q53 0 92 -19t61 -53.5t22 -82.5q0 -43 -18 -77t-50 -53t-74 -19q-33 0 -57 11t-40 29l38 42q10 -10 24 -16.5t33 -6.5q34 0 55 24
t21 61q0 46 -28.5 71.5t-79.5 25.5q-48 0 -80 -25.5t-48.5 -70t-18.5 -100.5h-70q-2 101 -36 146.5t-115 49.5v-364q0 -115 -43 -177t-126 -62zM241 53q47 0 69 41.5t22 129.5v366q-60 -11 -103 -53t-66 -108.5t-23 -152.5q0 -76 11 -125.5t33.5 -73.5t56.5 -24z" />
    </font>
</defs>
</svg>
