<?xml version="1.0" standalone="no"?>
<!DOCTYPE svg PUBLIC "-//W3C//DTD SVG 1.1//EN" "http://www.w3.org/Graphics/SVG/1.1/DTD/svg11.dtd" >
<svg xmlns="http://www.w3.org/2000/svg" xmlns:xlink="http://www.w3.org/1999/xlink" version="1.1">
<metadata>
Created by FontForge 20190801 at Mon Apr 13 04:57:36 2020
 By www-data
Copyright 2019 Google Inc. All Rights Reserved.
</metadata>
<defs>
<font id="NotoSerifMalayalamVF" horiz-adv-x="559" >
  <font-face 
    font-family="NotoSerifMalayalamVF"
    font-weight="400"
    font-stretch="normal"
    units-per-em="1000"
    panose-1="0 0 0 0 0 0 0 0 0 0"
    ascent="800"
    descent="-200"
    bbox="-762 -383 2332 864"
    underline-thickness="50"
    underline-position="-125"
    unicode-range="U+000D-25CC"
  />
<missing-glyph horiz-adv-x="600" 
d="M94 0v714h411v-714h-411zM145 51h309v612h-309v-612z" />
    <glyph glyph-name="gadotabove" unicode="&#xd17;&#x307;" horiz-adv-x="847" 
d="M256 -6q-65 0 -113.5 32.5t-74.5 95.5t-26 153q0 65 16 117.5t41.5 90t53 57.5t49.5 20q11 0 20.5 -4t16.5 -13q-39 -29 -70.5 -66t-49.5 -87t-18 -119q0 -66 16 -114.5t48.5 -75t82.5 -26.5q40 0 68 15t43 52.5t15 102.5v89q0 80 25 135t72.5 83t114.5 28
q68 0 117 -32.5t75.5 -95.5t26.5 -153q0 -65 -16 -117.5t-41.5 -90t-52.5 -57.5t-50 -20q-10 0 -19.5 4t-17.5 13q40 30 71 66.5t49 86.5t18 119q0 66 -16.5 114.5t-49 75t-81.5 26.5q-59 0 -92.5 -36t-33.5 -134v-89q0 -80 -24 -135t-72.5 -83t-120.5 -28zM424 646
q-24 0 -40.5 14t-16.5 48q0 35 16.5 48.5t40.5 13.5q23 0 40 -13.5t17 -48.5q0 -34 -17 -48t-40 -14z" />
    <glyph glyph-name="gadotbelow" unicode="&#xd17;&#x323;" horiz-adv-x="847" 
d="M256 -6q-65 0 -113.5 32.5t-74.5 95.5t-26 153q0 65 16 117.5t41.5 90t53 57.5t49.5 20q11 0 20.5 -4t16.5 -13q-39 -29 -70.5 -66t-49.5 -87t-18 -119q0 -66 16 -114.5t48.5 -75t82.5 -26.5q40 0 68 15t43 52.5t15 102.5v89q0 80 25 135t72.5 83t114.5 28
q68 0 117 -32.5t75.5 -95.5t26.5 -153q0 -65 -16 -117.5t-41.5 -90t-52.5 -57.5t-50 -20q-10 0 -19.5 4t-17.5 13q40 30 71 66.5t49 86.5t18 119q0 66 -16.5 114.5t-49 75t-81.5 26.5q-59 0 -92.5 -36t-33.5 -134v-89q0 -80 -24 -135t-72.5 -83t-120.5 -28zM424 -212
q-24 0 -40.5 14t-16.5 48q0 35 16.5 48.5t40.5 13.5q23 0 40 -13.5t17 -48.5q0 -34 -17 -48t-40 -14z" />
    <glyph glyph-name="dhadotabove" unicode="&#xd27;&#x307;" horiz-adv-x="909" 
d="M281 -6q-49 0 -92.5 18.5t-76.5 55.5t-51.5 92.5t-18.5 128.5q0 66 16.5 117t43 86t57 52.5t58.5 17.5q14 0 24 -2.5t16 -5.5q-38 -27 -64 -69.5t-39.5 -92.5t-13.5 -101q0 -61 12 -105.5t33.5 -73.5t49 -43.5t57.5 -14.5q61 0 96.5 42t35.5 102v356h95v-355
q0 -44 15.5 -76.5t43.5 -50.5t65 -18q55 0 91.5 31t55 81t18.5 105q0 69 -18 119t-49 87t-71 66q7 9 17 13t20 4q23 0 50 -20t52.5 -57.5t41.5 -90t16 -117.5q0 -75 -27 -139t-78 -103t-124 -39q-54 0 -94.5 19.5t-67 54t-38.5 78.5l42 -5q-25 -59 -57.5 -91t-68.5 -44
t-73 -12zM472 646q-24 0 -40.5 14t-16.5 48q0 35 16.5 48.5t40.5 13.5q23 0 40 -13.5t17 -48.5q0 -34 -17 -48t-40 -14z" />
    <glyph glyph-name="dhadotbelow" unicode="&#xd27;&#x323;" horiz-adv-x="909" 
d="M281 -6q-49 0 -92.5 18.5t-76.5 55.5t-51.5 92.5t-18.5 128.5q0 66 16.5 117t43 86t57 52.5t58.5 17.5q14 0 24 -2.5t16 -5.5q-38 -27 -64 -69.5t-39.5 -92.5t-13.5 -101q0 -61 12 -105.5t33.5 -73.5t49 -43.5t57.5 -14.5q61 0 96.5 42t35.5 102v356h95v-355
q0 -44 15.5 -76.5t43.5 -50.5t65 -18q55 0 91.5 31t55 81t18.5 105q0 69 -18 119t-49 87t-71 66q7 9 17 13t20 4q23 0 50 -20t52.5 -57.5t41.5 -90t16 -117.5q0 -75 -27 -139t-78 -103t-124 -39q-54 0 -94.5 19.5t-67 54t-38.5 78.5l42 -5q-25 -59 -57.5 -91t-68.5 -44
t-73 -12zM462 -212q-24 0 -40.5 14t-16.5 48q0 35 16.5 48.5t40.5 13.5q23 0 40 -13.5t17 -48.5q0 -34 -17 -48t-40 -14z" />
    <glyph glyph-name="nidotabove" unicode="&#xd28;&#xd3f;&#x307;" horiz-adv-x="1147" 
d="M202 -6q-22 0 -49.5 20t-53 57.5t-41.5 90t-16 117.5q0 75 27.5 139t79.5 103t125 39q53 0 92.5 -19.5t66 -53.5t38.5 -79l-42 5q26 60 58 91.5t68.5 43.5t73.5 12q48 0 91 -18.5t76 -55.5t52 -92t19 -129q0 -66 -16.5 -117t-43 -86t-57 -52.5t-58.5 -17.5q-13 0 -24 2.5
t-16 5.5q38 28 64 70t39.5 92.5t13.5 100.5q0 61 -12 105.5t-33.5 73.5t-49 43.5t-57.5 14.5q-61 0 -96.5 -42t-35.5 -103v-355h-95v354q0 45 -15.5 77.5t-43.5 50.5t-66 18q-54 0 -90.5 -31t-55 -80.5t-18.5 -105.5q0 -69 18 -118.5t49 -86.5t71 -67q-7 -8 -16.5 -12.5
t-20.5 -4.5zM981 0v619q0 63 -13 100t-37.5 53t-57.5 16q-43 0 -68 -28t-25 -81q0 -13 2.5 -29t6.5 -26q-5 -2 -11.5 -3t-11.5 -1q-19 0 -31.5 18t-12.5 44q0 50 23.5 86t62 55.5t84.5 19.5q60 0 100.5 -26.5t61.5 -75t21 -115.5v-626h-94zM446 646q-24 0 -40.5 14t-16.5 48
q0 35 16.5 48.5t40.5 13.5q23 0 40 -13.5t17 -48.5q0 -34 -17 -48t-40 -14z" />
    <glyph glyph-name="nidotbelow" unicode="&#xd28;&#xd3f;&#x323;" horiz-adv-x="1147" 
d="M202 -6q-22 0 -49.5 20t-53 57.5t-41.5 90t-16 117.5q0 75 27.5 139t79.5 103t125 39q53 0 92.5 -19.5t66 -53.5t38.5 -79l-42 5q26 60 58 91.5t68.5 43.5t73.5 12q48 0 91 -18.5t76 -55.5t52 -92t19 -129q0 -66 -16.5 -117t-43 -86t-57 -52.5t-58.5 -17.5q-13 0 -24 2.5
t-16 5.5q38 28 64 70t39.5 92.5t13.5 100.5q0 61 -12 105.5t-33.5 73.5t-49 43.5t-57.5 14.5q-61 0 -96.5 -42t-35.5 -103v-355h-95v354q0 45 -15.5 77.5t-43.5 50.5t-66 18q-54 0 -90.5 -31t-55 -80.5t-18.5 -105.5q0 -69 18 -118.5t49 -86.5t71 -67q-7 -8 -16.5 -12.5
t-20.5 -4.5zM981 0v619q0 63 -13 100t-37.5 53t-57.5 16q-43 0 -68 -28t-25 -81q0 -13 2.5 -29t6.5 -26q-5 -2 -11.5 -3t-11.5 -1q-19 0 -31.5 18t-12.5 44q0 50 23.5 86t62 55.5t84.5 19.5q60 0 100.5 -26.5t61.5 -75t21 -115.5v-626h-94zM438 -212q-24 0 -40.5 14
t-16.5 48q0 35 16.5 48.5t40.5 13.5q23 0 40 -13.5t17 -48.5q0 -34 -17 -48t-40 -14z" />
    <glyph glyph-name="padotabove" unicode="&#xd2a;&#x307;" horiz-adv-x="892" 
d="M148 -6q-19 0 -39 13t-37 36.5t-27.5 55t-10.5 68.5q0 58 25.5 101t69.5 67t99 24q53 0 97.5 -21.5t71.5 -61t27 -94.5q0 -34 -14 -68t-43 -60h384v-54h-486l-10 17q14 12 32.5 33t32 52.5t13.5 74.5q0 51 -32 86.5t-85 35.5q-39 0 -67 -18t-43 -48t-15 -66
q0 -38 13.5 -67t34 -50.5t41.5 -35.5q-6 -10 -12.5 -15t-19.5 -5zM725 0v554h95v-554h-95zM427 646q-24 0 -40.5 14t-16.5 48q0 35 16.5 48.5t40.5 13.5q23 0 40 -13.5t17 -48.5q0 -34 -17 -48t-40 -14z" />
    <glyph glyph-name="padotbelow" unicode="&#xd2a;&#x323;" horiz-adv-x="892" 
d="M148 -6q-19 0 -39 13t-37 36.5t-27.5 55t-10.5 68.5q0 58 25.5 101t69.5 67t99 24q53 0 97.5 -21.5t71.5 -61t27 -94.5q0 -34 -14 -68t-43 -60h384v-54h-486l-10 17q14 12 32.5 33t32 52.5t13.5 74.5q0 51 -32 86.5t-85 35.5q-39 0 -67 -18t-43 -48t-15 -66
q0 -38 13.5 -67t34 -50.5t41.5 -35.5q-6 -10 -12.5 -15t-19.5 -5zM725 0v554h95v-554h-95zM427 -212q-24 0 -40.5 14t-16.5 48q0 35 16.5 48.5t40.5 13.5q23 0 40 -13.5t17 -48.5q0 -34 -17 -48t-40 -14z" />
    <glyph glyph-name="madotabove" unicode="&#xd2e;&#x307;" horiz-adv-x="686" 
d="M64 0v296q0 92 39.5 150.5t104 86t139.5 27.5q58 0 108 -17t87.5 -49.5t58.5 -80.5t21 -110v-303h-558zM156 25l-33 29q63 37 113 82t79 97t29 107q0 32 -10.5 58.5t-33 42.5t-60.5 16q-32 0 -58.5 -15t-42.5 -51t-16 -100v-237h413v244q0 54 -14.5 93.5t-41 64.5t-65 37
t-86.5 12q-58 0 -95.5 -12.5t-60.5 -31.5l-11 5q23 12 49.5 20t54.5 8q55 0 94.5 -20.5t61 -57t21.5 -85.5q0 -53 -29 -107.5t-92 -105t-166 -93.5zM343 646q-24 0 -40.5 14t-16.5 48q0 35 16.5 48.5t40.5 13.5q23 0 40 -13.5t17 -48.5q0 -34 -17 -48t-40 -14z" />
    <glyph glyph-name="madotbelow" unicode="&#xd2e;&#x323;" horiz-adv-x="686" 
d="M64 0v296q0 92 39.5 150.5t104 86t139.5 27.5q58 0 108 -17t87.5 -49.5t58.5 -80.5t21 -110v-303h-558zM156 25l-33 29q63 37 113 82t79 97t29 107q0 32 -10.5 58.5t-33 42.5t-60.5 16q-32 0 -58.5 -15t-42.5 -51t-16 -100v-237h413v244q0 54 -14.5 93.5t-41 64.5t-65 37
t-86.5 12q-58 0 -95.5 -12.5t-60.5 -31.5l-11 5q23 12 49.5 20t54.5 8q55 0 94.5 -20.5t61 -57t21.5 -85.5q0 -53 -29 -107.5t-92 -105t-166 -93.5zM343 -212q-24 0 -40.5 14t-16.5 48q0 35 16.5 48.5t40.5 13.5q23 0 40 -13.5t17 -48.5q0 -34 -17 -48t-40 -14z" />
    <glyph glyph-name="ridotabove" unicode="&#xd30;&#xd3f;&#x307;" horiz-adv-x="923" 
d="M201 -6q-24 0 -51.5 19.5t-52 54.5t-40 83t-15.5 105q0 97 41 165t108.5 103.5t144.5 35.5q95 0 164 -42.5t106 -116.5t37 -167q0 -64 -23 -118.5t-67.5 -88t-108.5 -33.5q-58 0 -98 26.5t-60.5 74t-20.5 109.5q0 65 20 122t56.5 106t86.5 91l33 -39q-44 -36 -75 -82
t-47 -97.5t-16 -105.5q0 -70 31 -107.5t80 -37.5q31 0 56.5 16t40.5 55t15 107q0 50 -13.5 97t-40.5 85.5t-68 61t-96 22.5q-67 0 -118 -30t-80 -85t-29 -129q0 -82 39 -143.5t98 -99.5q-6 -8 -16 -12.5t-21 -4.5zM757 0v619q0 63 -13 100t-37.5 53t-57.5 16q-43 0 -68 -28
t-25 -81q0 -13 2.5 -29t6.5 -26q-5 -2 -11.5 -3t-11.5 -1q-19 0 -31.5 18t-12.5 44q0 50 23.5 86t62 55.5t84.5 19.5q60 0 100.5 -26.5t61.5 -75t21 -115.5v-626h-94zM343 646q-24 0 -40.5 14t-16.5 48q0 35 16.5 48.5t40.5 13.5q23 0 40 -13.5t17 -48.5q0 -34 -17 -48
t-40 -14z" />
    <glyph glyph-name="ridotbelow" unicode="&#xd30;&#xd3f;&#x323;" horiz-adv-x="923" 
d="M201 -6q-24 0 -51.5 19.5t-52 54.5t-40 83t-15.5 105q0 97 41 165t108.5 103.5t144.5 35.5q95 0 164 -42.5t106 -116.5t37 -167q0 -64 -23 -118.5t-67.5 -88t-108.5 -33.5q-58 0 -98 26.5t-60.5 74t-20.5 109.5q0 65 20 122t56.5 106t86.5 91l33 -39q-44 -36 -75 -82
t-47 -97.5t-16 -105.5q0 -70 31 -107.5t80 -37.5q31 0 56.5 16t40.5 55t15 107q0 50 -13.5 97t-40.5 85.5t-68 61t-96 22.5q-67 0 -118 -30t-80 -85t-29 -129q0 -82 39 -143.5t98 -99.5q-6 -8 -16 -12.5t-21 -4.5zM757 0v619q0 63 -13 100t-37.5 53t-57.5 16q-43 0 -68 -28
t-25 -81q0 -13 2.5 -29t6.5 -26q-5 -2 -11.5 -3t-11.5 -1q-19 0 -31.5 18t-12.5 44q0 50 23.5 86t62 55.5t84.5 19.5q60 0 100.5 -26.5t61.5 -75t21 -115.5v-626h-94zM342 -212q-24 0 -40.5 14t-16.5 48q0 35 16.5 48.5t40.5 13.5q23 0 40 -13.5t17 -48.5q0 -34 -17 -48
t-40 -14z" />
    <glyph glyph-name="sadotabove" unicode="&#xd38;&#x307;" horiz-adv-x="1182" 
d="M980 560q23 0 50 -20t52.5 -57.5t41.5 -90t16 -117.5q0 -90 -26 -153t-74 -95.5t-114 -32.5q-72 0 -120 28t-72.5 83t-24.5 135v92q0 92 -27.5 130t-80.5 38q-27 0 -53.5 -15t-44.5 -47t-18 -83v-355h-95v354q0 45 -15.5 77.5t-43.5 50.5t-66 18q-54 0 -90.5 -31
t-55 -80.5t-18.5 -105.5q0 -69 18 -118.5t49 -86.5t71 -67q-7 -9 -16.5 -13t-20.5 -4q-22 0 -49.5 20t-53 57.5t-41.5 90t-16 117.5q0 75 27 139t78.5 103t123.5 39q55 0 95 -19.5t66.5 -53.5t38.5 -79l-42 5q18 52 47 84.5t65 47.5t75 15q54 0 97.5 -25t69 -77.5
t25.5 -136.5v-96q0 -65 15 -102.5t43.5 -52.5t67.5 -15q50 0 82.5 26.5t48.5 75t16 114.5q0 69 -18 119t-49 87t-71 66q8 9 17.5 13t19.5 4zM591 646q-24 0 -40.5 14t-16.5 48q0 35 16.5 48.5t40.5 13.5q23 0 40 -13.5t17 -48.5q0 -34 -17 -48t-40 -14z" />
    <glyph glyph-name="sadotbelow" unicode="&#xd38;&#x323;" horiz-adv-x="1182" 
d="M980 560q23 0 50 -20t52.5 -57.5t41.5 -90t16 -117.5q0 -90 -26 -153t-74 -95.5t-114 -32.5q-72 0 -120 28t-72.5 83t-24.5 135v92q0 92 -27.5 130t-80.5 38q-27 0 -53.5 -15t-44.5 -47t-18 -83v-355h-95v354q0 45 -15.5 77.5t-43.5 50.5t-66 18q-54 0 -90.5 -31
t-55 -80.5t-18.5 -105.5q0 -69 18 -118.5t49 -86.5t71 -67q-7 -9 -16.5 -13t-20.5 -4q-22 0 -49.5 20t-53 57.5t-41.5 90t-16 117.5q0 75 27 139t78.5 103t123.5 39q55 0 95 -19.5t66.5 -53.5t38.5 -79l-42 5q18 52 47 84.5t65 47.5t75 15q54 0 97.5 -25t69 -77.5
t25.5 -136.5v-96q0 -65 15 -102.5t43.5 -52.5t67.5 -15q50 0 82.5 26.5t48.5 75t16 114.5q0 69 -18 119t-49 87t-71 66q8 9 17.5 13t19.5 4zM591 -212q-24 0 -40.5 14t-16.5 48q0 35 16.5 48.5t40.5 13.5q23 0 40 -13.5t17 -48.5q0 -34 -17 -48t-40 -14z" />
    <glyph glyph-name=".notdef" horiz-adv-x="600" 
d="M94 0v714h411v-714h-411zM145 51h309v612h-309v-612z" />
    <glyph glyph-name=".null" horiz-adv-x="0" 
 />
    <glyph glyph-name="nonmarkingreturn" horiz-adv-x="333" 
 />
    <glyph glyph-name="NULL" horiz-adv-x="0" 
 />
    <glyph glyph-name="NULL" horiz-adv-x="0" 
 />
    <glyph glyph-name="CR" unicode="&#xd;" horiz-adv-x="309" 
 />
    <glyph glyph-name="space" unicode=" " horiz-adv-x="309" 
 />
    <glyph glyph-name="exclam.mlym" unicode="!" horiz-adv-x="266" 
d="M110 201l-35 513h116l-35 -513h-46zM133 -7q-26 0 -44.5 15t-18.5 53q0 39 18.5 53.5t44.5 14.5t44.5 -14.5t18.5 -53.5q0 -38 -18.5 -53t-44.5 -15z" />
    <glyph glyph-name="quotedbl.mlym" unicode="&#x22;" horiz-adv-x="418" 
d="M280 565l-30 235h106l-30 -235h-46zM92 565l-30 235h106l-30 -235h-46z" />
    <glyph glyph-name="numbersign.mlym" unicode="#" 
d="M79 0l38 203h-92v59h103l38 196h-109v59h120l36 197h61l-37 -197h139l37 197h60l-37 -197h98v-59h-109l-37 -196h114v-59h-126l-38 -203h-60l38 203h-139l-38 -203h-60zM189 262h139l37 196h-139z" />
    <glyph glyph-name="percent.mlym" unicode="%" horiz-adv-x="896" 
d="M235 0l357 714h66l-357 -714h-66zM209 280q-86 0 -125 61.5t-39 161.5q0 101 39 161t126 60q82 0 122.5 -60t40.5 -161q0 -67 -18 -117t-54.5 -78t-91.5 -28zM209 321q28 0 43.5 21.5t22.5 62.5t7 98q0 85 -15.5 132t-56.5 47q-27 0 -43.5 -21t-24 -61t-7.5 -97
q0 -86 17 -134t57 -48zM687 -10q-86 0 -125 61.5t-39 161.5q0 101 39 161t126 60q82 0 122.5 -60t40.5 -161q0 -67 -18 -117t-54.5 -78t-91.5 -28zM687 31q28 0 43.5 21.5t22.5 62.5t7 98q0 85 -15.5 132t-56.5 47q-27 0 -43.5 -21t-24 -61t-7.5 -97q0 -86 17 -134t57 -48z
" />
    <glyph glyph-name="quotesingle.mlym" unicode="'" horiz-adv-x="230" 
d="M92 565l-30 235h106l-30 -235h-46z" />
    <glyph glyph-name="parenleft.mlym" unicode="(" horiz-adv-x="357" 
d="M325 -244q-99 44 -158 112.5t-84.5 170t-25.5 242.5t26 242t84.5 170t157.5 112v-48q-56 -38 -89.5 -90.5t-50 -114.5t-22 -131t-5.5 -140t5.5 -140t22 -131.5t50 -115t89.5 -90.5v-48z" />
    <glyph glyph-name="parenright.mlym" unicode=")" horiz-adv-x="357" 
d="M32 805q100 -43 158.5 -112t84 -170t25.5 -243q0 -141 -26 -242t-84.5 -169.5t-157.5 -112.5v48q56 38 89.5 90.5t50 114.5t22 131t5.5 140t-5.5 140t-22 131.5t-50 115t-89.5 90.5v48z" />
    <glyph glyph-name="asterisk.mlym" unicode="*" horiz-adv-x="494" 
d="M204 418l25 158l-153 -95l-35 78l168 50l-168 50l35 79l154 -97l-26 159h87l-28 -158l155 94l35 -78l-169 -49l169 -49l-35 -77l-155 93l28 -158h-87z" />
    <glyph glyph-name="plus.mlym" unicode="+" 
d="M249 143v185h-184v59h184v185h60v-185h185v-59h-185v-185h-60z" />
    <glyph glyph-name="comma.mlym" unicode="," horiz-adv-x="255" 
d="M35 -154v42q49 16 72 38.5t23 51.5q0 15 -11 23t-25.5 15t-25.5 19t-11 35q0 29 18.5 44t46.5 15q31 0 54 -23.5t23 -71.5q0 -38 -16 -75t-52 -66t-96 -47z" />
    <glyph glyph-name="hyphen.mlym" unicode="-" horiz-adv-x="320" 
d="M40 232v75h240v-75h-240z" />
    <glyph glyph-name="period.mlym" unicode="." horiz-adv-x="250" 
d="M125 -7q-26 0 -44.5 15t-18.5 53q0 39 18.5 53.5t44.5 14.5t44.5 -14.5t18.5 -53.5q0 -38 -18.5 -53t-44.5 -15z" />
    <glyph glyph-name="slash.mlym" unicode="/" horiz-adv-x="358" 
d="M25 -244l246 1044h62l-246 -1044h-62z" />
    <glyph glyph-name="zero.mlym" unicode="0" 
d="M280 -10q-82 0 -134 46t-76.5 129t-24.5 194t24.5 193t76.5 127t135 45q78 0 130 -45t77.5 -127.5t25.5 -193.5t-26 -193.5t-77.5 -128.5t-130.5 -46zM280 44q73 0 101.5 83t28.5 231q0 149 -28.5 230.5t-100.5 81.5q-73 0 -102.5 -81.5t-29.5 -230.5q0 -148 29 -231
t102 -83z" />
    <glyph glyph-name="one.mlym" unicode="1" 
d="M96 0v42h67q23 0 41.5 5t29.5 20.5t11 46.5v525q-38 -46 -68.5 -75t-60.5 -29q-22 0 -36 15t-14 39q30 8 63.5 24t82.5 53l70 52h64v-604q0 -31 11 -46.5t30 -20.5t41 -5h49v-42h-381z" />
    <glyph glyph-name="two.mlym" unicode="2" 
d="M50 0v73l167 193q53 62 84 107.5t44.5 86.5t13.5 87q0 38 -11 66.5t-33.5 44.5t-57.5 16q-45 0 -69 -21t-32.5 -54.5t-8.5 -73.5q-24 0 -43.5 5.5t-31 20t-11.5 39.5q0 39 22 69t66 47.5t108 17.5q63 0 108.5 -20.5t70 -58t24.5 -88.5q0 -28 -7.5 -55t-21.5 -54
t-34 -55.5t-46 -59.5t-58 -66l-169 -187h231q45 0 61 23t23 52l4 18h42l-5 -173h-430z" />
    <glyph glyph-name="three.mlym" unicode="3" 
d="M234 -10q-66 0 -107.5 15.5t-61.5 41t-20 54.5q0 30 17.5 47t45.5 17q0 -52 33 -86.5t94 -34.5q40 0 73.5 15.5t54.5 50.5t21 95q0 63 -48.5 101t-132.5 38h-32v51h32q44 0 79.5 19t56.5 54t21 82q0 59 -24.5 91.5t-82.5 32.5q-45 0 -69 -21t-32.5 -54.5t-8.5 -73.5
q-36 0 -61 13.5t-25 51.5q0 39 22 69t66 47.5t108 17.5q95 0 152.5 -41.5t57.5 -117.5q0 -45 -21 -82.5t-57 -64t-82 -37.5q28 -3 60 -12.5t60.5 -29.5t46.5 -52.5t18 -82.5q0 -60 -23 -101.5t-61 -66t-82.5 -35.5t-87.5 -11z" />
    <glyph glyph-name="four.mlym" unicode="4" 
d="M215 0v42h28q23 0 41.5 5t29.5 20.5t11 46.5v82h-308v41l309 477h95v-462h124v-56h-124v-82q0 -31 11 -46.5t30 -20.5t41 -5h13v-42h-301zM89 252h236v185q0 29 0.5 65.5t2.5 73.5t4 68q-5 -10 -16 -30t-25 -43.5t-27 -45t-22 -35.5z" />
    <glyph glyph-name="five.mlym" unicode="5" 
d="M244 -10q-74 0 -115 16t-57.5 39.5t-16.5 45.5q0 28 15.5 43.5t47.5 15.5q0 -28 13.5 -51t40.5 -36.5t67 -13.5q41 0 73.5 16t51 53t18.5 100q0 53 -19 87.5t-53 51.5t-80 17q-52 0 -78 -7t-45 -15l-24 7l32 354h334l5 -151h-42l-4 30q-1 14 -6 23t-16 13.5t-32 4.5h-194
l-19 -220q15 5 44 10.5t73 5.5q65 0 116.5 -23.5t81.5 -70t30 -117.5q0 -41 -10.5 -76t-30.5 -63t-49.5 -48t-67.5 -30.5t-84 -10.5z" />
    <glyph glyph-name="six.mlym" unicode="6" 
d="M293 -10q-66 0 -118.5 37.5t-83 119t-30.5 213.5q0 71 16 136.5t48 117t81.5 81t115.5 29.5q56 0 92.5 -15t54.5 -39t18 -51q0 -28 -19.5 -44t-57.5 -16q0 33 -8.5 59.5t-28 42t-51.5 15.5q-50 0 -84 -33.5t-52 -98.5t-22 -162q25 20 59.5 36t83.5 16q92 0 146.5 -54.5
t54.5 -150.5q0 -70 -25.5 -124t-73.5 -84.5t-116 -30.5zM296 45q53 0 81.5 41.5t28.5 132.5q0 86 -30.5 125t-88.5 39q-26 0 -49 -8.5t-42 -22t-33 -27.5q2 -150 37.5 -215t95.5 -65z" />
    <glyph glyph-name="seven.mlym" unicode="7" 
d="M175 0l236 633h-263q-27 0 -41.5 -13t-16.5 -38l-4 -50h-42l5 181h447v-29l-246 -684h-75z" />
    <glyph glyph-name="eight.mlym" unicode="8" 
d="M273 -10q-75 0 -125.5 25.5t-76 68.5t-25.5 95q0 48 20 81t54.5 57t77.5 45q-57 32 -93 76t-36 107q0 46 22 87t69.5 66.5t124.5 25.5q63 0 107 -22t67 -61t23 -89q0 -66 -37 -102.5t-98 -66.5q50 -23 87 -51t58 -62.5t21 -78.5q0 -95 -65 -148t-175 -53zM278 36
q65 0 104.5 37.5t39.5 95.5q0 34 -17 62t-55.5 53.5t-103.5 53.5q-47 -25 -75 -66t-28 -97q0 -62 34 -100.5t101 -38.5zM298 406q56 28 75.5 62t19.5 86q0 31 -11 59t-36 46t-67 18q-56 0 -86 -34t-30 -86q0 -36 15 -62t45 -47t75 -42z" />
    <glyph glyph-name="nine.mlym" unicode="9" 
d="M227 -11q-56 0 -88 13t-44.5 32.5t-12.5 40.5q0 19 9.5 31.5t20.5 16.5q9 -21 24 -39t38 -29t54 -11q83 0 122.5 74t44.5 225q-14 -17 -35 -33t-49 -25.5t-63 -9.5q-58 0 -102.5 22.5t-69.5 68t-25 112.5q0 72 25.5 127.5t73.5 87t115 31.5q68 0 120.5 -35t82.5 -109
t30 -192q0 -79 -15 -150.5t-47.5 -127.5t-84 -88.5t-124.5 -32.5zM270 334q49 0 81 24.5t45 56.5q-2 134 -37.5 194t-93.5 60q-35 0 -60 -21t-38 -61t-13 -99q0 -82 29 -118t87 -36z" />
    <glyph glyph-name="colon.mlym" unicode=":" horiz-adv-x="270" 
d="M135 -7q-26 0 -44.5 15t-18.5 53q0 39 18.5 53.5t44.5 14.5t44.5 -14.5t18.5 -53.5q0 -38 -18.5 -53t-44.5 -15zM135 413q-26 0 -44.5 15t-18.5 53q0 39 18.5 53.5t44.5 14.5t44.5 -14.5t18.5 -53.5q0 -38 -18.5 -53t-44.5 -15z" />
    <glyph glyph-name="semicolon.mlym" unicode=";" horiz-adv-x="275" 
d="M45 -154v42q49 16 72 38.5t23 51.5q0 15 -11 23t-25.5 15t-25.5 19t-11 35q0 29 18.5 44t46.5 15q31 0 54 -23.5t23 -71.5q0 -38 -16 -75t-52 -66t-96 -47zM137 413q-26 0 -44.5 15t-18.5 53q0 39 18.5 53.5t44.5 14.5t44.5 -14.5t18.5 -53.5q0 -38 -18.5 -53t-44.5 -15z
" />
    <glyph glyph-name="less.mlym" unicode="&#x3c;" 
d="M494 110l-429 230v35l429 231v-67l-336 -182l336 -180v-67z" />
    <glyph glyph-name="equal.mlym" unicode="=" 
d="M65 426v59h429v-59h-429zM65 229v59h429v-59h-429z" />
    <glyph glyph-name="greater.mlym" unicode="&#x3e;" 
d="M65 110v67l336 180l-336 182v67l429 -231v-35z" />
    <glyph glyph-name="question.mlym" unicode="?" horiz-adv-x="470" 
d="M181 201v152q58 24 91.5 57t47.5 71.5t14 78.5q0 52 -25.5 83.5t-83.5 31.5q-41 0 -66 -17.5t-35.5 -46.5t-10.5 -64q-36 0 -59.5 16.5t-23.5 48.5t20 57.5t61.5 40t105.5 14.5q63 0 112.5 -21.5t78 -62t28.5 -97.5q0 -55 -22.5 -97t-66 -74t-105.5 -58v-113h-61zM210 -7
q-26 0 -44.5 15t-18.5 53q0 39 18.5 53.5t44.5 14.5t44.5 -14.5t18.5 -53.5q0 -38 -18.5 -53t-44.5 -15z" />
    <glyph glyph-name="bracketleft.mlym" unicode="[" horiz-adv-x="357" 
d="M100 -244v1044h220v-42h-43q-34 0 -58 -12.5t-24 -59.5v-816q0 -47 24 -59.5t58 -12.5h43v-42h-220z" />
    <glyph glyph-name="backslash.mlym" unicode="\" horiz-adv-x="358" 
d="M271 -244l-246 1044h62l246 -1044h-62z" />
    <glyph glyph-name="bracketright.mlym" unicode="]" horiz-adv-x="357" 
d="M37 -244v42h43q34 0 58 12.5t24 59.5v816q0 32 -11 47t-29.5 20t-41.5 5h-43v42h220v-1044h-220z" />
    <glyph glyph-name="asciicircum.mlym" unicode="^" 
d="M51 266l210 448h35l211 -448h-67l-162 356l-160 -356h-67z" />
    <glyph glyph-name="underscore.mlym" unicode="_" horiz-adv-x="459" 
d="M-5 -142v59h469v-59h-469z" />
    <glyph glyph-name="braceleft.mlym" unicode="{" horiz-adv-x="425" 
d="M305 -244q-68 0 -104.5 39t-36.5 105v250q0 41 -15.5 63.5t-42.5 32t-60 10.5v42q33 1 60 10.5t42.5 32t15.5 62.5v254q0 68 36.5 105.5t104.5 37.5h81v-43h-45q-44 0 -63 -26.5t-19 -78.5v-251q0 -49 -27.5 -81.5t-83.5 -41.5v-1q57 -10 84 -42t27 -82v-249
q0 -51 19 -78t63 -27h45v-43h-81z" />
    <glyph glyph-name="bar.mlym" unicode="|" 
d="M249 -244v1043h60v-1043h-60z" />
    <glyph glyph-name="braceright.mlym" unicode="}" horiz-adv-x="425" 
d="M39 -244v43h45q44 0 63 26.5t19 78.5v251q0 49 28 81.5t83 41.5v1q-57 10 -84 42.5t-27 81.5v249q0 51 -19 78t-63 27h-45v43h81q68 0 104.5 -39t36.5 -105v-250q0 -41 16 -63.5t42.5 -31.5t59.5 -11v-42q-33 -1 -59.5 -10.5t-42.5 -31.5t-16 -63v-254
q0 -68 -36.5 -105.5t-104.5 -37.5h-81z" />
    <glyph glyph-name="asciitilde.mlym" unicode="~" 
d="M54 269q3 29 9 59.5t19 57t35.5 42.5t58.5 16q23 0 42.5 -7.5t39.5 -22t43 -36.5q21 -19 41 -34.5t41 -15.5q28 0 41 30.5t20 85.5h60q-3 -26 -9.5 -56t-19 -57t-34.5 -44.5t-56 -17.5q-23 0 -43.5 8t-40 22t-39.5 33q-15 15 -29 27t-27.5 19t-29.5 7q-29 0 -43.5 -28.5
t-19.5 -87.5h-59z" />
    <glyph glyph-name="uni00A0.mlym" unicode="&#xa0;" horiz-adv-x="309" 
 />
    <glyph glyph-name="uni00AD.mlym" unicode="&#xad;" horiz-adv-x="320" 
d="M40 232v75h240v-75h-240z" />
    <glyph glyph-name="multiply.mlym" unicode="&#xd7;" 
d="M113 150l-42 43l166 166l-166 165l42 42l166 -166l166 167l42 -43l-166 -166l166 -166l-42 -42l-166 166z" />
    <glyph glyph-name="divide.mlym" unicode="&#xf7;" 
d="M65 328v59h429v-59h-429zM280 113q-22 0 -36.5 12t-14.5 43q0 32 14.5 43.5t36.5 11.5q21 0 36 -11.5t15 -43.5q0 -31 -15 -43t-36 -12zM280 492q-22 0 -36.5 12t-14.5 43q0 32 14.5 43.5t36.5 11.5q21 0 36 -11.5t15 -43.5q0 -31 -15 -43t-36 -12z" />
    <glyph glyph-name="uni0307" unicode="&#x307;" horiz-adv-x="0" 
d="M-280 646q-24 0 -40.5 14t-16.5 48q0 35 16.5 48.5t40.5 13.5q23 0 40 -13.5t17 -48.5q0 -34 -17 -48t-40 -14z" />
    <glyph glyph-name="uni0323" unicode="&#x323;" horiz-adv-x="0" 
d="M-280 -212q-24 0 -40.5 14t-16.5 48q0 35 16.5 48.5t40.5 13.5q23 0 40 -13.5t17 -48.5q0 -34 -17 -48t-40 -14z" />
    <glyph glyph-name="uni0951" unicode="&#x951;" horiz-adv-x="0" 
d="M-310 653v211h60v-211h-60z" />
    <glyph glyph-name="uni0952" unicode="&#x952;" horiz-adv-x="0" 
d="M-67 -174h-426v55h426v-55z" />
    <glyph glyph-name="uni0964.mlym" unicode="&#x964;" horiz-adv-x="327" 
d="M176 -59v676h69v-676h-69z" />
    <glyph glyph-name="uni0965.mlym" unicode="&#x965;" horiz-adv-x="519" 
d="M176 -59v676h69v-676h-69zM368 -59v676h69v-676h-69z" />
    <glyph glyph-name="candrabindumlym" unicode="&#xd01;" horiz-adv-x="0" 
d="M-269 654q-75 0 -116.5 18.5t-57.5 46.5t-16 57q0 35 19.5 54t43.5 19q5 0 10 -1t11 -3q-4 -10 -5.5 -20.5t-1.5 -20.5q0 -44 27.5 -68t84.5 -24q51 0 80.5 21.5t29.5 66.5q0 12 -2.5 23.5t-7.5 21.5q5 2 10 2.5t9 0.5q18 0 29 -9.5t16.5 -24.5t5.5 -32q0 -36 -19.5 -65
t-57 -46t-92.5 -17zM-275 759q-22 0 -36 14t-14 37q0 21 14 35.5t36 14.5t36.5 -14.5t14.5 -35.5q0 -23 -14.5 -37t-36.5 -14z" />
    <glyph glyph-name="anusvaramlym" unicode="&#xd02;" horiz-adv-x="464" 
d="M230 9q-61 0 -105 27.5t-67 73t-23 98.5t23.5 98t67.5 72.5t104 27.5q55 0 100 -23.5t72 -67.5t27 -107q0 -61 -26 -105.5t-71 -69t-102 -24.5zM217 68q53 0 87 32.5t34 105.5q0 76 -34 108.5t-87 32.5q-43 0 -71.5 -20t-42.5 -52t-14 -68q0 -35 14 -67t42.5 -52
t71.5 -20z" />
    <glyph glyph-name="visargamlym" unicode="&#xd03;" horiz-adv-x="274" 
d="M133 7q-43 0 -73 27t-30 79q0 50 30 78t76 28q48 0 78 -28.5t30 -77.5t-30.5 -77.5t-80.5 -28.5zM123 54q19 0 34 14.5t15 44.5t-15 44.5t-34 14.5q-22 0 -36.5 -15t-14.5 -44q0 -28 14.5 -43.5t36.5 -15.5zM133 313q-43 0 -73 27t-30 79q0 50 30 78t76 28q48 0 78 -28.5
t30 -77.5t-30.5 -77.5t-80.5 -28.5zM123 360q19 0 34 14.5t15 44.5t-15 44.5t-34 14.5q-22 0 -36.5 -15t-14.5 -44q0 -28 14.5 -43.5t36.5 -15.5z" />
    <glyph glyph-name="amlym" unicode="&#xd05;" horiz-adv-x="1397" 
d="M202 -6q-24 0 -51.5 18t-52 51.5t-40.5 82.5t-16 110q0 70 22.5 126t62.5 96t94 61t118 21q44 0 87.5 -5.5t82.5 -21.5l24 -21q49 -17 82.5 -53.5t33.5 -89.5q0 -35 -16.5 -57.5t-42 -35t-53.5 -17.5v-4q29 -5 54.5 -21.5t42 -42.5t16.5 -62q0 -40 -21 -70.5t-58.5 -47.5
t-89.5 -17q-79 0 -126 35t-68 92.5t-21 122.5q0 67 24.5 124.5t69 100.5t104 67t129.5 24q95 0 160 -46.5t101 -134.5l-37 22q26 68 89 113.5t151 45.5q89 0 156 -42.5t104.5 -116.5t37.5 -167q0 -64 -23 -118.5t-67.5 -88t-108.5 -33.5q-58 0 -98 26.5t-60.5 74
t-20.5 109.5q0 65 20 122t56.5 106t86.5 91l33 -39q-44 -36 -75 -82t-47 -97.5t-16 -105.5q0 -70 31 -107.5t80 -37.5q31 0 56.5 16t40.5 55t15 107q0 50 -13.5 97.5t-40 86t-66 61.5t-92.5 23q-63 0 -103.5 -28.5t-60 -74.5t-19.5 -101v-296h-95v294q0 56 -19.5 103.5
t-61 76.5t-107.5 29q-45 0 -90 -15.5t-83 -48t-60.5 -83.5t-22.5 -121q0 -59 18.5 -99.5t50 -61t70.5 -20.5q29 0 49.5 9.5t31.5 28t11 44.5q0 36 -15.5 57.5t-41.5 30.5t-58 9v48q57 0 87 23t30 62q0 47 -30 76.5t-79.5 43.5t-109.5 14q-54 0 -98 -18t-75 -51t-47.5 -78
t-16.5 -99q0 -59 18 -104.5t49 -79.5t70 -59q-7 -8 -16 -12.5t-20 -4.5z" />
    <glyph glyph-name="aamlym" unicode="&#xd06;" horiz-adv-x="1583" 
d="M853 296v-296h-85v294q0 56 -19.5 103.5t-61 76.5t-107.5 29q-45 0 -90 -15.5t-83 -48t-60.5 -83.5t-22.5 -121q0 -59 18.5 -99.5t50 -61t70.5 -20.5q29 0 49.5 9.5t31.5 28t11 44.5q0 36 -15.5 57.5t-41.5 30.5t-58 9v48q57 0 87 23t30 62q0 47 -30 76.5t-79.5 43.5
t-109.5 14q-54 0 -98 -18t-75 -51t-47.5 -78t-16.5 -99q0 -59 18 -104.5t49 -79.5t70 -59q-7 -8 -16 -12.5t-20 -4.5q-24 0 -51.5 18t-52 51.5t-40.5 82.5t-16 110q0 70 22.5 126t62.5 96t94 61t118 21q44 0 87.5 -5.5t82.5 -21.5l24 -21q49 -17 82.5 -53.5t33.5 -89.5
q0 -35 -16.5 -57.5t-42 -35t-53.5 -17.5v-4q29 -5 54.5 -21.5t42 -42.5t16.5 -62q0 -40 -21 -70.5t-58.5 -47.5t-89.5 -17q-79 0 -126 35t-68 92.5t-21 122.5q0 67 24.5 124.5t69 100.5t104 67t129.5 24q95 0 160 -46.5t101 -134.5zM1231 -170q-73 0 -114.5 12.5t-58.5 30.5
t-17 32q0 6 1.5 13.5t3.5 11.5q41 -19 80 -29.5t91 -10.5q76 0 128 30t79.5 86t27.5 134q0 87 -26.5 142.5t-74.5 82t-114 26.5q-57 0 -105 -23.5t-77 -68.5t-29 -110q0 -73 33 -104t76 -31q53 0 84 39.5t31 135.5q0 51 -13 99.5t-38.5 87t-64.5 61.5t-92 23
q-61 0 -100.5 -28.5t-59 -74.5t-19.5 -101v-296h-85v293l39 108q18 45 52 81t80 57t101 21q88 0 154 -42.5t102.5 -115t36.5 -162.5q0 -66 -22.5 -122t-67 -90t-110.5 -34q-57 0 -96 25.5t-59.5 68.5t-20.5 96q0 80 35.5 138.5t101 90.5t154.5 32q56 0 107 -17.5t92 -54.5
t64.5 -95.5t23.5 -141.5q0 -98 -37.5 -166.5t-107.5 -104t-169 -35.5z" />
    <glyph glyph-name="imlym" unicode="&#xd07;" horiz-adv-x="1006" 
d="M230 -197q-91 0 -135 34t-44 94q0 62 44 92.5t117 30.5h382q63 0 113 13t84.5 42t52.5 77.5t18 118.5q0 60 -18 104t-50.5 67.5t-77.5 23.5q-59 0 -94.5 -41.5t-35.5 -103.5v-235h-95v196q0 65 -24 105.5t-64 59.5t-88 19q-72 0 -120.5 -25.5t-73.5 -69.5t-25 -101
q0 -49 17.5 -79.5t43 -44.5t48.5 -14q42 0 64 24t22 64q0 25 -10 45t-28 32t-43 12q-35 0 -65.5 -24t-53.5 -76l-9 64q25 41 63.5 67.5t83.5 26.5q51 0 84.5 -20.5t50 -53.5t16.5 -72q0 -70 -45 -108.5t-122 -38.5q-43 0 -81.5 21t-63 64t-24.5 109q0 58 20.5 105.5t58 81.5
t89 52.5t112.5 18.5q58 0 102 -15.5t76 -41.5t53 -58l-15 -10q24 47 53 74t64 39t74 12q70 0 122 -33.5t80.5 -91t28.5 -130.5q0 -105 -39 -172.5t-114 -100t-183 -32.5h-407q-55 0 -75 -16.5t-20 -44.5q0 -17 9 -30.5t30 -21.5t58 -8h730v-76h-721z" />
    <glyph glyph-name="iimlym" unicode="&#xd08;" horiz-adv-x="1744" 
d="M230 -197q-91 0 -135 34t-44 94q0 62 44 92.5t117 30.5h382q63 0 113 13t84.5 42t52.5 77.5t18 118.5q0 60 -18 104t-50.5 67.5t-77.5 23.5q-59 0 -94.5 -41.5t-35.5 -103.5v-235h-95v196q0 65 -24 105.5t-64 59.5t-88 19q-72 0 -120.5 -25.5t-73.5 -69.5t-25 -101
q0 -49 17.5 -79.5t43 -44.5t48.5 -14q42 0 64 24t22 64q0 25 -10 45t-28 32t-43 12q-35 0 -65.5 -24t-53.5 -76l-9 64q25 41 63.5 67.5t83.5 26.5q51 0 84.5 -20.5t50 -53.5t16.5 -72q0 -70 -45 -108.5t-122 -38.5q-43 0 -81.5 21t-63 64t-24.5 109q0 58 20.5 105.5t58 81.5
t89 52.5t112.5 18.5q58 0 102 -15.5t76 -41.5t53 -58l-15 -10q24 47 53 74t64 39t74 12q70 0 122 -33.5t80.5 -91t28.5 -130.5q0 -105 -39 -172.5t-114 -100t-183 -32.5h-407q-55 0 -75 -16.5t-20 -44.5q0 -17 9 -30.5t30 -21.5t58 -8h730v-76h-721zM1407 -6
q-68 0 -107.5 12t-56.5 29.5t-17 31.5q0 6 1.5 13.5t3.5 11.5q38 -17 76.5 -27.5t93.5 -10.5q51 0 88.5 14.5t63 44.5t38 78.5t12.5 115.5q0 86 -25.5 139.5t-86.5 53.5q-41 0 -72 -31t-31 -99v-137h-95v133q0 68 -25 101t-72 33q-48 0 -76 -34t-28 -81q0 -46 14.5 -80
t45.5 -68q-7 -5 -14 -7t-14 -2q-21 0 -41.5 19.5t-34 55.5t-13.5 85q0 48 21.5 87t60.5 62t91 23q59 0 104.5 -35t60.5 -97l-39 6q20 45 47 72.5t58.5 40.5t66.5 13q69 0 111.5 -33t62.5 -90.5t20 -132.5q0 -70 -15.5 -127t-50 -98t-90.5 -63t-137 -22z" />
    <glyph glyph-name="umlym" unicode="&#xd09;" horiz-adv-x="671" 
d="M231 -197q-91 0 -135 34t-44 94q0 62 44 92.5t117 30.5h63q58 0 104.5 12.5t79.5 40t51 71t18 106.5q0 103 -59.5 159.5t-154.5 56.5q-72 0 -120.5 -25.5t-73.5 -69.5t-25 -101q0 -49 17.5 -79.5t43 -44.5t48.5 -14q42 0 64 24t22 64q0 25 -10 45t-28 32t-43 12
q-35 0 -65.5 -24t-53.5 -76l-9 64q25 41 63.5 67.5t83.5 26.5q51 0 84.5 -20.5t50 -53.5t16.5 -72q0 -70 -45 -108.5t-122 -38.5q-43 0 -81.5 21t-63 64t-24.5 109q0 78 36 136t100 90t147 32q93 0 161 -35.5t104.5 -97t36.5 -139.5q0 -96 -39 -160t-112 -96t-175 -32h-83
q-55 0 -75 -16.5t-20 -44.5q0 -17 9 -30.5t30 -21.5t58 -8h396v-76h-387z" />
    <glyph glyph-name="uumlym" unicode="&#xd0a;" horiz-adv-x="1409" 
d="M231 -197q-91 0 -135 34t-44 94q0 62 44 92.5t117 30.5h63q58 0 104.5 12.5t79.5 40t51 71t18 106.5q0 103 -59.5 159.5t-154.5 56.5q-72 0 -120.5 -25.5t-73.5 -69.5t-25 -101q0 -49 17.5 -79.5t43 -44.5t48.5 -14q42 0 64 24t22 64q0 25 -10 45t-28 32t-43 12
q-35 0 -65.5 -24t-53.5 -76l-9 64q25 41 63.5 67.5t83.5 26.5q51 0 84.5 -20.5t50 -53.5t16.5 -72q0 -70 -45 -108.5t-122 -38.5q-43 0 -81.5 21t-63 64t-24.5 109q0 78 36 136t100 90t147 32q93 0 161 -35.5t104.5 -97t36.5 -139.5q0 -96 -39 -160t-112 -96t-175 -32h-83
q-55 0 -75 -16.5t-20 -44.5q0 -17 9 -30.5t30 -21.5t58 -8h396v-76h-387zM1072 -6q-68 0 -107.5 12t-56.5 29.5t-17 31.5q0 6 1.5 13.5t3.5 11.5q38 -17 76.5 -27.5t93.5 -10.5q51 0 88.5 14.5t63 44.5t38 78.5t12.5 115.5q0 86 -25.5 139.5t-86.5 53.5q-41 0 -72 -31
t-31 -99v-137h-95v133q0 68 -25 101t-72 33q-48 0 -76 -34t-28 -81q0 -46 14.5 -80t45.5 -68q-7 -5 -14 -7t-14 -2q-21 0 -41.5 19.5t-34 55.5t-13.5 85q0 48 21.5 87t60.5 62t91 23q59 0 104.5 -35t60.5 -97l-39 6q20 45 47 72.5t58.5 40.5t66.5 13q69 0 111.5 -33
t62.5 -90.5t20 -132.5q0 -70 -15.5 -127t-50 -98t-90.5 -63t-137 -22z" />
    <glyph glyph-name="rvocalicmlym" unicode="&#xd0b;" horiz-adv-x="800" 
d="M402 89q-66 0 -131.5 12.5t-119.5 42.5t-86.5 83t-32.5 135q0 67 25.5 111t66.5 65.5t87 21.5q40 0 75 -17t57 -50t22 -80q0 -39 -17.5 -72t-50.5 -53t-80 -20q-38 0 -68 11t-52 30t-35 42l10 67q22 -43 50 -68.5t73 -25.5q41 0 62.5 26.5t21.5 63.5q0 38 -21 64t-62 26
q-24 0 -49.5 -14t-43 -46.5t-17.5 -88.5q0 -72 40 -121t111 -73.5t163 -24.5q96 0 166.5 25t109 74.5t38.5 122.5q0 54 -16.5 86t-42 46t-51.5 14q-40 0 -61 -26t-21 -64q0 -37 22 -63.5t62 -26.5q44 0 71.5 22.5t46.5 62.5l6 -67q-13 -20 -34.5 -37t-49.5 -27t-63 -10
q-47 0 -80 20t-50 53t-17 72q0 47 22.5 80t59 50t76.5 17q43 0 83 -20t65.5 -63t25.5 -114q0 -80 -30.5 -133t-82 -84t-117 -44t-136.5 -13zM396 -207q-118 0 -191 21.5t-107 60t-34 89.5q0 47 31.5 83.5t104.5 57.5t196 21q122 0 195 -20.5t105.5 -57t32.5 -84.5
q0 -51 -32.5 -89.5t-105.5 -60t-195 -21.5zM396 -153q93 0 146 14.5t75.5 40.5t22.5 61q0 37 -20.5 64t-73 42t-150.5 15q-91 0 -144.5 -14.5t-76 -41.5t-22.5 -65q0 -35 22 -61t75 -40.5t146 -14.5z" />
    <glyph glyph-name="lvocalicmlym" unicode="&#xd0c;" horiz-adv-x="1153" 
d="M252 -6q-53 0 -92.5 22t-65.5 58.5t-39 82.5t-13 94q0 77 25 135t68 96.5t96 58t110 19.5q48 0 95.5 -13.5t88.5 -43.5t68 -80l16 -62v-361h-85v292q0 102 -54 155t-141 53q-58 0 -111 -27.5t-87 -83t-34 -139.5q0 -67 21.5 -110.5t53.5 -64.5t62 -21q32 0 53.5 14
t32.5 38t11 53q0 50 -28 76t-68 26q-45 0 -79.5 -33t-56.5 -76l-9 61q19 32 44 56.5t56.5 38.5t68.5 14q49 0 85.5 -21.5t57 -58t20.5 -83.5t-20 -84.5t-58 -59t-92 -21.5zM534 294l39 107q26 68 89 113.5t151 45.5q89 0 156 -42.5t104.5 -116.5t37.5 -167q0 -64 -23 -118.5
t-67.5 -88t-108.5 -33.5q-58 0 -98 26.5t-60.5 74t-20.5 109.5q0 65 20 122t56.5 106t86.5 91l33 -39q-44 -36 -75 -82t-47 -97.5t-16 -105.5q0 -70 31 -107.5t80 -37.5q31 0 56.5 16t40.5 55t15 107q0 50 -13.5 97.5t-40 86t-66 61.5t-92.5 23q-63 0 -103.5 -28.5
t-60 -74.5t-19.5 -101v-296h-85v294z" />
    <glyph glyph-name="emlym" unicode="&#xd0e;" horiz-adv-x="1305" 
d="M148 -6q-19 0 -39 13t-37 36.5t-27.5 55t-10.5 68.5q0 58 25.5 101t69.5 67t99 24q53 0 97.5 -21.5t71.5 -61t27 -94.5q0 -34 -14 -68t-43 -60h484v-54h-586l-10 17q14 12 32.5 33t32 52.5t13.5 74.5q0 51 -32 86.5t-85 35.5q-39 0 -67 -18t-43 -48t-15 -66
q0 -38 13.5 -67t34 -50.5t41.5 -35.5q-6 -10 -12.5 -15t-19.5 -5zM1051 -230q-9 0 -18 2t-17 5q74 59 110.5 153t36.5 211q0 71 -17 135t-50.5 114t-84 79t-117.5 29q-77 0 -144.5 -42.5t-109 -127t-41.5 -209.5q0 -82 18 -145.5t56 -99.5t97 -36q30 0 44 17.5t14 57.5v505
h95v-499q0 -50 -16.5 -83t-48 -48.5t-77.5 -15.5q-64 0 -110 29t-75 78.5t-43 112.5t-14 130q0 108 29.5 190t80 137t114 83t131.5 28q81 0 141.5 -23t103.5 -64t70 -94.5t39.5 -114.5t12.5 -125q0 -82 -17.5 -150t-47.5 -117t-67.5 -75.5t-77.5 -26.5z" />
    <glyph glyph-name="eemlym" unicode="&#xd0f;" horiz-adv-x="1293" 
d="M781 -228q-64 0 -110 29t-75 78.5t-43 112.5t-14 130q0 145 53 242t145.5 146.5t209.5 49.5q81 0 149 -25t108.5 -75t40.5 -125q0 -71 -38 -114t-95 -62v-3q71 -15 116.5 -63.5t45.5 -126.5q0 -64 -24 -107t-63 -65t-83 -22q-53 0 -80.5 15.5t-27.5 39.5v6.5t1 7.5
q11 -4 27 -6.5t37 -2.5q40 0 65.5 17t37.5 48t12 73q0 65 -38.5 110.5t-115.5 46.5v51q53 0 89 40t36 104q0 78 -53 127t-160 49q-67 0 -127.5 -23t-107.5 -70t-73.5 -118t-26.5 -168q0 -81 18 -144.5t56 -100t97 -36.5q30 0 44 17.5t14 57.5v505h95v-499q0 -50 -16.5 -83
t-48 -48.5t-77.5 -15.5zM148 -6q-19 0 -39 13t-37 36.5t-27.5 55t-10.5 68.5q0 58 25.5 101t69.5 67t99 24q53 0 97.5 -21.5t71.5 -61t27 -94.5q0 -34 -14 -68t-43 -60h484v-54h-586l-10 17q14 12 32.5 33t32 52.5t13.5 74.5q0 51 -32 86.5t-85 35.5q-39 0 -67 -18t-43 -48
t-15 -66q0 -38 13.5 -67t34 -50.5t41.5 -35.5q-6 -10 -12.5 -15t-19.5 -5z" />
    <glyph glyph-name="aimlym" unicode="&#xd10;" horiz-adv-x="1999" 
d="M252 -6q-54 0 -94 21.5t-65.5 58.5t-38 82t-12.5 91q0 105 42.5 174.5t112.5 104t151 34.5q93 0 161.5 -39.5t105.5 -108t37 -157.5q0 -65 -16.5 -114.5t-43 -82.5t-57 -49.5t-58.5 -16.5q-13 0 -22 2.5t-15 5.5q36 28 61.5 64.5t39 84t13.5 107.5q0 76 -27.5 129.5
t-76.5 82t-115 28.5q-63 0 -117.5 -27t-87.5 -82t-33 -141q0 -65 20.5 -107.5t52.5 -63.5t64 -21t53.5 14t32.5 38t11 53q0 50 -28 76t-68 26q-45 0 -79.5 -33t-56.5 -76l-9 61q19 32 44 56.5t56.5 38.5t68.5 14q49 0 85.5 -21.5t57 -58t20.5 -83.5t-20 -84.5t-58 -59
t-92 -21.5zM842 -6q-19 0 -39 13t-37 36.5t-27.5 55t-10.5 68.5q0 58 25.5 101t69.5 67t99 24q53 0 97.5 -21.5t71.5 -61t27 -94.5q0 -34 -14 -68t-43 -60h484v-54h-586l-10 17q14 12 32.5 33t32 52.5t13.5 74.5q0 51 -32 86.5t-85 35.5q-39 0 -67 -18t-43 -48t-15 -66
q0 -38 13.5 -67t34 -50.5t41.5 -35.5q-6 -10 -12.5 -15t-19.5 -5zM1745 -230q-9 0 -18 2t-17 5q74 59 110.5 153t36.5 211q0 71 -17 135t-50.5 114t-84 79t-117.5 29q-77 0 -144.5 -42.5t-109 -127t-41.5 -209.5q0 -82 18 -145.5t56 -99.5t97 -36q30 0 44 17.5t14 57.5v505
h95v-499q0 -50 -16.5 -83t-48 -48.5t-77.5 -15.5q-64 0 -110 29t-75 78.5t-43 112.5t-14 130q0 108 29.5 190t80 137t114 83t131.5 28q81 0 141.5 -23t103.5 -64t70 -94.5t39.5 -114.5t12.5 -125q0 -82 -17.5 -150t-47.5 -117t-67.5 -75.5t-77.5 -26.5z" />
    <glyph glyph-name="omlym" unicode="&#xd12;" horiz-adv-x="747" 
d="M249 -6q-55 0 -94.5 21t-65 56t-37.5 78t-12 87q0 100 49.5 172.5t137 112t201.5 39.5q69 0 120 -11t84 -31.5t49.5 -50.5t16.5 -68q0 -37 -28 -71.5t-89 -47.5v-4q62 -10 95 -51t33 -91q0 -60 -41 -100t-125 -40q-37 0 -60.5 8t-34.5 21t-11 28q0 4 1.5 10l2.5 10
q20 -8 39 -12.5t36 -4.5q40 0 69 23.5t29 70.5q0 50 -32 77.5t-91 27.5h-18v50h12q54 0 86.5 25.5t32.5 68.5q0 53 -49.5 78t-137.5 25q-98 0 -170.5 -32.5t-112 -92t-39.5 -139.5q0 -62 20 -102.5t51.5 -60t64.5 -19.5q32 0 53 14t32 38t11 53q0 50 -28 76t-68 26
q-45 0 -79.5 -33t-56.5 -76l-9 61q19 32 44 56.5t56.5 38.5t68.5 14q49 0 85.5 -21.5t57 -58t20.5 -83.5t-20 -84.5t-58 -59t-91 -21.5z" />
    <glyph glyph-name="oomlym" unicode="&#xd13;" horiz-adv-x="1246" 
d="M249 -6q-55 0 -94.5 21t-65 56t-37.5 78t-12 87q0 100 49.5 172.5t137 112t201.5 39.5q69 0 120 -11t84 -31.5t49.5 -50.5t16.5 -68q0 -37 -28 -71.5t-89 -47.5v-4q62 -10 95 -51t33 -91q0 -60 -41 -100t-125 -40q-37 0 -60.5 8t-34.5 21t-11 28q0 4 1.5 10l2.5 10
q20 -8 39 -12.5t36 -4.5q40 0 69 23.5t29 70.5q0 50 -32 77.5t-91 27.5h-18v50h12q54 0 86.5 25.5t32.5 68.5q0 53 -49.5 78t-137.5 25q-98 0 -170.5 -32.5t-112 -92t-39.5 -139.5q0 -62 20 -102.5t51.5 -60t64.5 -19.5q32 0 53 14t32 38t11 53q0 50 -28 76t-68 26
q-45 0 -79.5 -33t-56.5 -76l-9 61q19 32 44 56.5t56.5 38.5t68.5 14q49 0 85.5 -21.5t57 -58t20.5 -83.5t-20 -84.5t-58 -59t-91 -21.5zM977 -6q-50 0 -87.5 16.5t-62.5 42.5t-37.5 54.5t-12.5 53.5q0 16 8.5 27.5t24.5 11.5q8 -38 27 -71.5t50.5 -54t75.5 -20.5q55 0 87 33
t45.5 84.5t13.5 105.5q0 40 -7.5 79.5t-24.5 72t-45 52t-69 19.5q-44 0 -75.5 -20.5t-50.5 -54t-27 -71.5q-16 0 -24.5 11.5t-8.5 26.5q0 25 12.5 54t37.5 55t62.5 42.5t87.5 16.5q60 0 103.5 -24.5t70.5 -65.5t40 -91t13 -102t-13 -102t-40 -91t-70.5 -65.5t-103.5 -24.5z
" />
    <glyph glyph-name="aumlym" unicode="&#xd14;" horiz-adv-x="1485" 
d="M249 -6q-55 0 -94.5 21t-65 56t-37.5 78t-12 87q0 100 49.5 172.5t137 112t201.5 39.5q69 0 120 -11t84 -31.5t49.5 -50.5t16.5 -68q0 -37 -28 -71.5t-89 -47.5v-4q62 -10 95 -51t33 -91q0 -60 -41 -100t-125 -40q-37 0 -60.5 8t-34.5 21t-11 28q0 4 1.5 10l2.5 10
q20 -8 39 -12.5t36 -4.5q40 0 69 23.5t29 70.5q0 50 -32 77.5t-91 27.5h-18v50h12q54 0 86.5 25.5t32.5 68.5q0 53 -49.5 78t-137.5 25q-98 0 -170.5 -32.5t-112 -92t-39.5 -139.5q0 -62 20 -102.5t51.5 -60t64.5 -19.5q32 0 53 14t32 38t11 53q0 50 -28 76t-68 26
q-45 0 -79.5 -33t-56.5 -76l-9 61q19 32 44 56.5t56.5 38.5t68.5 14q49 0 85.5 -21.5t57 -58t20.5 -83.5t-20 -84.5t-58 -59t-91 -21.5zM1148 -6q-68 0 -107.5 12t-56.5 29.5t-17 31.5q0 6 1.5 13.5t3.5 11.5q38 -17 76.5 -27.5t93.5 -10.5q51 0 88.5 14.5t63 44.5t38 78.5
t12.5 115.5q0 86 -25.5 139.5t-86.5 53.5q-41 0 -72 -31t-31 -99v-137h-95v133q0 68 -25 101t-72 33q-48 0 -76 -34t-28 -81q0 -46 14.5 -80t45.5 -68q-7 -5 -14 -7t-14 -2q-21 0 -41.5 19.5t-34 55.5t-13.5 85q0 48 21.5 87t60.5 62t91 23q59 0 104.5 -35t60.5 -97l-39 6
q20 45 47 72.5t58.5 40.5t66.5 13q69 0 111.5 -33t62.5 -90.5t20 -132.5q0 -70 -15.5 -127t-50 -98t-90.5 -63t-137 -22z" />
    <glyph glyph-name="kamlym" unicode="&#xd15;" horiz-adv-x="997" 
d="M195 -6q-74 0 -117 40.5t-43 106.5q0 41 17.5 72t52 53t83.5 33t112 11h429q111 0 172 -45t61 -121q0 -48 -19.5 -81.5t-51.5 -51t-70 -17.5q-31 0 -52 15.5t-21 42.5q5 -1 10.5 -1h9.5q30 0 52 11t34.5 32.5t12.5 50.5q0 61 -38 87.5t-112 26.5h-420q-50 0 -88 -12
t-59.5 -38t-21.5 -70q0 -35 13 -55t32.5 -27.5t39.5 -7.5q43 0 70.5 27t40.5 81l42 -31q-23 -65 -65 -98.5t-106 -33.5zM501 -6q-55 0 -95.5 22.5t-67 62t-39 90.5t-12.5 108t12.5 108t39 90.5t67 62t95.5 22.5q80 0 128.5 -38t71 -102.5t22.5 -142.5t-22.5 -142.5
t-71 -102.5t-128.5 -38zM489 54q55 0 84.5 27.5t41.5 78t12 117.5q0 68 -11.5 118t-40.5 77.5t-81 27.5t-85.5 -32t-49 -82.5t-15.5 -108.5q0 -57 15.5 -108t47.5 -83t82 -32z" />
    <glyph glyph-name="khamlym" unicode="&#xd16;" horiz-adv-x="991" 
d="M252 -6q-53 0 -92.5 22t-65.5 58.5t-39 82.5t-13 94q0 77 25.5 135t69.5 96.5t100.5 58t117.5 19.5q98 0 164 -39t99.5 -101.5t33.5 -133.5q0 -79 -27 -146t-97 -117l-43 31h339v500h95v-554h-466l-13 26q58 44 86 106t28 137q0 65 -22 116t-69.5 81t-123.5 30
q-63 0 -118 -26.5t-89.5 -81t-34.5 -138.5q0 -67 21.5 -110.5t53.5 -64.5t62 -21q32 0 53.5 14t32.5 38t11 53q0 50 -28 76t-68 26q-45 0 -79.5 -33t-56.5 -76l-9 61q19 32 44 56.5t56.5 38.5t68.5 14q49 0 85.5 -21.5t57 -58t20.5 -83.5t-20 -84.5t-58 -59t-92 -21.5z" />
    <glyph glyph-name="gamlym" unicode="&#xd17;" horiz-adv-x="847" 
d="M256 -6q-65 0 -113.5 32.5t-74.5 95.5t-26 153q0 65 16 117.5t41.5 90t53 57.5t49.5 20q11 0 20.5 -4t16.5 -13q-39 -29 -70.5 -66t-49.5 -87t-18 -119q0 -66 16 -114.5t48.5 -75t82.5 -26.5q40 0 68 15t43 52.5t15 102.5v89q0 80 25 135t72.5 83t114.5 28
q68 0 117 -32.5t75.5 -95.5t26.5 -153q0 -65 -16 -117.5t-41.5 -90t-52.5 -57.5t-50 -20q-10 0 -19.5 4t-17.5 13q40 30 71 66.5t49 86.5t18 119q0 66 -16.5 114.5t-49 75t-81.5 26.5q-59 0 -92.5 -36t-33.5 -134v-89q0 -80 -24 -135t-72.5 -83t-120.5 -28z" />
    <glyph glyph-name="ghamlym" unicode="&#xd18;" horiz-adv-x="1293" 
d="M532 0v328q0 62 18 106t49 72t70.5 41t81.5 13q97 0 152.5 -56.5t55.5 -175.5v-107h-368v53h309v64q0 75 -31 118.5t-102 43.5q-41 0 -73 -16t-50 -51t-18 -93v-286h500v500h95v-554h-689zM143 215q-20 0 -46 20t-44.5 57t-18.5 87q0 46 21 87t63 67.5t106 26.5
q57 0 99 -23t65 -61t23 -83q0 -34 -14.5 -69t-50.5 -64l-12 14h239v-53h-312l-10 17q37 31 53 68t16 82q0 27 -12.5 52.5t-37 42.5t-60.5 17t-63 -16t-41.5 -43t-14.5 -62q0 -49 26 -86t58 -58q-4 -8 -11.5 -14t-20.5 -6z" />
    <glyph glyph-name="ngamlym" unicode="&#xd19;" horiz-adv-x="1084" 
d="M252 -6q-53 0 -92.5 22t-65.5 58.5t-39 82.5t-13 94q0 77 25 135t68 96.5t96 58t110 19.5q48 0 95.5 -13.5t88.5 -43.5t68 -80l16 -62v-361h-85v292q0 102 -54 155t-141 53q-58 0 -111 -27.5t-87 -83t-34 -139.5q0 -67 21.5 -110.5t53.5 -64.5t62 -21q32 0 53.5 14
t32.5 38t11 53q0 50 -28 76t-68 26q-45 0 -79.5 -33t-56.5 -76l-9 61q19 32 44 56.5t56.5 38.5t68.5 14q49 0 85.5 -21.5t57 -58t20.5 -83.5t-20 -84.5t-58 -59t-92 -21.5zM828 560q63 0 109.5 -19.5t72 -55t25.5 -83.5q0 -39 -28 -74t-89 -48v-4q62 -10 95 -51t33 -91
q0 -60 -41 -100t-125 -40q-42 0 -72 10t-45.5 25t-15.5 30q0 4 1.5 10l2.5 10q47 -25 102 -25q40 0 69 23.5t29 70.5q0 50 -32 77.5t-91 27.5h-37v50h31q54 0 86.5 25.5t32.5 68.5q0 50 -35.5 76.5t-91.5 26.5q-38 0 -73 -12t-62.5 -37.5t-43.5 -65t-16 -95.5v-290h-85v294
l43 105q19 45 53.5 81.5t84 58t113.5 21.5z" />
    <glyph glyph-name="camlym" unicode="&#xd1a;" horiz-adv-x="934" 
d="M17 0v54h750v500h95v-554h-845zM390 22l-20 17q17 14 33 36t26.5 53t10.5 71q0 54 -31 85.5t-80 31.5q-61 0 -89 -35.5t-28 -83.5q0 -13 2.5 -27.5t7.5 -29.5q-3 -1 -8 -2t-9 -1q-27 0 -39 22t-12 58t21.5 73t63 61.5t101.5 24.5q54 0 97.5 -19.5t68.5 -58t25 -95.5
q0 -44 -12 -77t-33 -58t-47 -48z" />
    <glyph glyph-name="chamlym" unicode="&#xd1b;" horiz-adv-x="1312" 
d="M1071 -6q-58 0 -98 26.5t-60.5 74t-20.5 109.5q0 65 20 122t56.5 106t86.5 91l33 -39q-44 -36 -75 -82t-47 -97.5t-16 -105.5q0 -70 31 -107.5t80 -37.5q31 0 56.5 16t40.5 55t15 107q0 50 -13.5 97t-40.5 85.5t-68 61t-96 22.5q-67 0 -118 -30t-80 -85t-29 -129
q0 -70 28 -124t71 -92l-24 -38h-786v54h723q-31 34 -51 86.5t-20 115.5q0 97 41 165t108.5 103.5t145.5 35.5q95 0 163.5 -42.5t105.5 -116.5t37 -167q0 -64 -23 -118.5t-67.5 -88t-108.5 -33.5zM388 22l-20 17q17 14 33 36t26.5 53t10.5 71q0 54 -31 85.5t-80 31.5
q-61 0 -89 -35.5t-28 -83.5q0 -13 2.5 -27.5t7.5 -29.5q-3 -1 -8 -2t-9 -1q-27 0 -39 22t-12 58t21.5 73t63 61.5t101.5 24.5q54 0 97.5 -19.5t68.5 -58t25 -95.5q0 -44 -12 -77t-33 -58t-47 -48z" />
    <glyph glyph-name="jamlym" unicode="&#xd1c;" horiz-adv-x="967" 
d="M214 -6q-60 0 -98 12t-56 36.5t-18 62.5q0 51 40 76t110 25h399q66 0 107.5 7t65.5 21q35 20 49 52.5t14 80.5q0 42 -16.5 71.5t-45 45.5t-65.5 16q-32 0 -62.5 -13.5t-49.5 -46.5t-19 -93v-103h-95v92q0 63 -27 99.5t-71.5 51.5t-96.5 15q-70 0 -109.5 -20t-55 -50
t-15.5 -60q0 -40 22.5 -66t79.5 -26q45 0 63.5 16.5t18.5 42.5q0 22 -17 40t-55 18q-40 0 -67 -23t-46 -62l-19 41q29 48 65.5 74t88.5 26q46 0 75 -17.5t43 -44t14 -52.5q0 -31 -15.5 -56.5t-49 -41t-89.5 -15.5q-76 0 -119.5 40t-43.5 107q0 33 14 66t43.5 60.5t77.5 44
t117 16.5q54 0 104.5 -14t92 -49.5t68.5 -98.5l-58 -18q7 50 35 91t74 65t106 24q61 0 106.5 -25t71 -66.5t25.5 -92.5q0 -61 -31.5 -110t-108.5 -70q-15 -4 -30.5 -8t-32.5 -7.5t-34 -7.5t-34 -7q-23 -4 -70.5 -8t-115.5 -4h-276q-31 0 -49.5 -12.5t-18.5 -39.5
q0 -28 27 -40t79 -12q42 0 86.5 7t93.5 21.5t106 36.5t124 52q5 2 11.5 4.5t14 5t17 4.5t20.5 3q25 8 42.5 12t44.5 4q44 0 71 -14.5t39.5 -37.5t12.5 -47q0 -46 -34.5 -78t-104.5 -32q-47 0 -78.5 17t-51.5 43.5t-31 56.5l47 22q20 -43 42 -62.5t62 -19.5q30 0 48.5 15.5
t18.5 40.5q0 26 -16 43t-51 17q-22 0 -49 -9.5t-56 -26.5l-18 -11q-44 -23 -94.5 -45t-105.5 -39.5t-112.5 -28t-114.5 -10.5z" />
    <glyph glyph-name="jhamlym" unicode="&#xd1d;" horiz-adv-x="1564" 
d="M201 -6q-24 0 -51.5 18t-52 51.5t-40 82.5t-15.5 110q0 70 22 126t61.5 96t91.5 61t112 21q69 0 126.5 -26t99.5 -72t65 -104t23 -123q0 -64 -23 -119t-67 -88.5t-108 -33.5q-58 0 -98 28t-61 78t-21 114q0 85 29.5 149.5t77.5 108.5t107 66t117 22q51 0 92 -12t73 -35
q30 -21 51 -51.5t32 -73t11 -101.5v-65q0 -91 27.5 -129.5t80.5 -38.5q27 0 54 15t44.5 47t17.5 83v355h95v-354q0 -44 15.5 -77t44 -51t65.5 -18q55 0 91 31t54.5 81t18.5 105q0 69 -18 118.5t-49 86.5t-71 67q7 8 17 12.5t20 4.5q23 0 50 -20t52.5 -57.5t41.5 -90
t16 -117.5q0 -74 -27.5 -138.5t-79.5 -103.5t-125 -39q-52 0 -92 19.5t-66 54t-39 78.5l42 -5q-18 -52 -47 -84.5t-65 -47.5t-75 -15q-54 0 -97 25t-68 77.5t-25 136.5v45q0 74 -15 115t-39 63q-26 24 -55.5 34t-67.5 10q-46 0 -91.5 -18t-83 -54t-60 -91t-22.5 -129
q0 -47 14 -82t39 -53.5t58 -18.5q31 0 57 16.5t42 53t16 95.5q0 76 -25.5 140t-76 102.5t-125.5 38.5q-49 0 -89.5 -18t-70 -51t-46 -78t-16.5 -99q0 -59 18 -104.5t49 -79.5t70 -59q-6 -8 -16 -12.5t-21 -4.5z" />
    <glyph glyph-name="nyamlym" unicode="&#xd1e;" horiz-adv-x="1416" 
d="M252 -6q-53 0 -92.5 22t-65.5 58.5t-39 82.5t-13 94q0 77 25 135t68 96.5t96 58t110 19.5q49 0 96.5 -13.5t88 -43.5t67.5 -80l16 -62v-361h-85v292q0 102 -54 155t-141 53q-58 0 -111 -27.5t-87 -83t-34 -139.5q0 -67 21.5 -110.5t53.5 -64.5t62 -21q32 0 53.5 14
t32.5 38t11 53q0 50 -28 76t-68 26q-45 0 -79.5 -33t-56.5 -76l-9 61q19 32 44 56.5t56.5 38.5t68.5 14q49 0 85.5 -21.5t57 -58t20.5 -83.5t-20 -84.5t-58 -59t-92 -21.5zM811 560q65 0 119.5 -26t95.5 -72t63.5 -104t22.5 -123q0 -64 -23 -119t-67 -88.5t-108 -33.5
q-58 0 -98 28t-61 78t-21 114q0 85 29 149.5t78 108.5t109.5 66t124.5 22q59 0 112.5 -19t95.5 -57t66.5 -95t24.5 -134q0 -64 -16.5 -113t-43.5 -82.5t-57.5 -50.5t-58.5 -17q-13 0 -23.5 2.5t-15.5 5.5q55 40 85.5 110t30.5 144q0 83 -32 137.5t-81.5 81.5t-104.5 27
q-50 0 -97 -18t-85 -54t-60 -91t-22 -129q0 -47 14 -82t39 -53.5t58 -18.5q31 0 57 16.5t42 53t16 95.5q0 76 -25 140t-73 102.5t-118 38.5q-63 0 -104 -28.5t-60.5 -74.5t-19.5 -101v-296h-85v284l39 117q27 68 89.5 113.5t148.5 45.5z" />
    <glyph glyph-name="ttamlym" unicode="&#xd1f;" horiz-adv-x="562" 
d="M279 -6q-68 0 -124 14t-89 36.5t-33 46.5q0 5 3 14t7 13q17 -11 52 -27t82 -28t101 -12q77 0 121.5 20.5t44.5 72.5q0 29 -16 50t-52.5 34t-100.5 16q-71 4 -123.5 21t-81.5 49.5t-29 84.5q0 57 33 92.5t86 52t112 16.5q66 0 118.5 -11.5t83 -31t30.5 -42.5
q0 -8 -2.5 -15t-6.5 -13q-38 21 -91.5 38.5t-122.5 17.5q-88 0 -123 -25.5t-35 -64.5q0 -24 14.5 -43t51 -31t101.5 -16q77 -4 130 -23t80.5 -55t27.5 -91q0 -56 -31.5 -91.5t-87.5 -52t-130 -16.5z" />
    <glyph glyph-name="tthamlym" unicode="&#xd20;" horiz-adv-x="652" 
d="M323 -6q-59 0 -110 19t-90 55.5t-60.5 89t-21.5 119.5t22 119.5t61 89t90 55.5t109 19q56 0 107.5 -19t92.5 -55.5t64.5 -89t23.5 -119.5t-23 -119.5t-63.5 -89t-92.5 -55.5t-109 -19zM309 54q40 0 76.5 13.5t65 41t45 69.5t16.5 99q0 76 -28.5 125t-74.5 73.5t-100 24.5
q-41 0 -78.5 -14.5t-67 -42.5t-46.5 -69.5t-17 -96.5q0 -73 29.5 -123t77.5 -75t102 -25z" />
    <glyph glyph-name="ddamlym" unicode="&#xd21;" horiz-adv-x="1182" 
d="M202 -6q-22 0 -49.5 20t-53 57.5t-41.5 90t-16 117.5q0 90 26.5 153t75 95.5t114.5 32.5q71 0 119 -28t72 -83t24 -135v-92q0 -91 27.5 -129.5t80.5 -38.5q27 0 54 15t44.5 47t17.5 83v355h95v-354q0 -44 15.5 -77t44 -51t65.5 -18q54 0 90.5 31t55 81t18.5 105
q0 69 -18 118.5t-49 86.5t-71 67q7 9 17 13t20 4q23 0 50 -20t52.5 -57.5t41.5 -90t16 -117.5q0 -74 -27 -138.5t-78 -103.5t-124 -39q-54 0 -94.5 19.5t-66.5 54t-39 78.5l42 -5q-18 -52 -47 -84.5t-65 -47.5t-75 -15q-54 0 -97.5 25t-69 77.5t-25.5 136.5v96q0 66 -15 103
t-43 52t-68 15q-50 0 -82.5 -26.5t-48.5 -74.5t-16 -115q0 -69 18 -119t49.5 -86.5t70.5 -66.5q-7 -9 -16.5 -13t-20.5 -4z" />
    <glyph glyph-name="ddhamlym" unicode="&#xd22;" horiz-adv-x="1316" 
d="M202 -6q-22 0 -49.5 20t-53 57.5t-41.5 90t-16 117.5q0 90 26.5 153t75 95.5t114.5 32.5q71 0 119 -28t72 -83t24 -135v-92q0 -91 27.5 -129.5t80.5 -38.5q27 0 54 15t44.5 47t17.5 83v355h85v-354l-29 -59q-18 -52 -47 -84.5t-65 -47.5t-75 -15q-54 0 -97.5 25t-69 77.5
t-25.5 136.5v96q0 66 -15 103t-43 52t-68 15q-50 0 -82.5 -26.5t-48.5 -74.5t-16 -115q0 -69 18 -119t49.5 -86.5t70.5 -66.5q-7 -9 -16.5 -13t-20.5 -4zM1064 560q71 0 117.5 -36.5t69.5 -95t23 -125.5q0 -103 -41.5 -171.5t-110.5 -103t-152 -34.5q-46 0 -93 12t-87.5 41
t-68.5 81l-14 65v361h85v-307q0 -65 25 -108t67.5 -64t96.5 -21q66 0 120 27.5t86 83.5t32 139q0 67 -21.5 110.5t-54 64.5t-65.5 21q-32 0 -53.5 -14t-32.5 -37.5t-11 -53.5q0 -49 28 -75.5t68 -26.5q48 0 80.5 32t55.5 77l9 -61q-18 -33 -43.5 -57.5t-57 -38t-68.5 -13.5
q-50 0 -87 21.5t-56.5 58t-19.5 82.5q0 48 20.5 85.5t59.5 59t94 21.5z" />
    <glyph glyph-name="nnamlym" unicode="&#xd23;" horiz-adv-x="1375" 
d="M252 -6q-53 0 -92.5 22t-65.5 58.5t-39 82.5t-13 94q0 77 25 135t68 96.5t96 58t110 19.5q44 0 88.5 -11.5t84.5 -37.5t67 -69l-13 2q17 38 43 63.5t61 39t77 13.5q64 0 112.5 -30.5t75.5 -83.5l-24 2q20 40 48 64.5t62.5 36t71.5 11.5q49 0 92 -18.5t76 -55.5t51.5 -92
t18.5 -129q0 -66 -16.5 -117t-43 -86t-57 -52.5t-58.5 -17.5q-13 0 -23.5 2.5t-16.5 5.5q38 28 64 70t39.5 92.5t13.5 100.5q0 61 -12 105.5t-33.5 73.5t-49 43.5t-57.5 14.5q-61 0 -96.5 -42t-35.5 -103v-355h-95v363q0 62 -27.5 99.5t-89.5 37.5q-58 0 -89 -35.5
t-31 -103.5v-361h-95v292q0 102 -54 155t-141 53q-58 0 -111 -27.5t-87 -83t-34 -139.5q0 -67 21.5 -110.5t53.5 -64.5t62 -21q32 0 53.5 14t32.5 38t11 53q0 50 -28 76t-68 26q-45 0 -79.5 -33t-56.5 -76l-9 61q19 32 44 56.5t56.5 38.5t68.5 14q49 0 85.5 -21.5t57 -58
t20.5 -83.5t-20 -84.5t-58 -59t-92 -21.5z" />
    <glyph glyph-name="tamlym" unicode="&#xd24;" horiz-adv-x="947" 
d="M201 -6q-24 0 -51.5 18t-52 51.5t-40 82.5t-15.5 110q0 70 22 126t61.5 96t91.5 61t112 21q69 0 126.5 -26t99.5 -72t65 -104t23 -123q0 -64 -23 -119t-67 -88.5t-108 -33.5q-58 0 -98 28t-61 78t-21 114q0 85 29 149.5t78 108.5t109.5 66t124.5 22q59 0 112.5 -19
t95.5 -57t66.5 -95t24.5 -134q0 -64 -16.5 -113t-43.5 -82.5t-57.5 -50.5t-58.5 -17q-13 0 -23.5 2.5t-15.5 5.5q55 40 85.5 110t30.5 144q0 83 -32 137.5t-81.5 81.5t-104.5 27q-50 0 -97 -18t-85 -54t-60 -91t-22 -129q0 -47 14 -82t39 -53.5t58 -18.5q31 0 57 16.5t42 53
t16 95.5q0 77 -25.5 140.5t-75.5 102t-124 38.5q-49 0 -90.5 -18t-71 -51t-46 -78t-16.5 -99q0 -59 18 -104.5t49 -79.5t70 -59q-6 -8 -16 -12.5t-21 -4.5z" />
    <glyph glyph-name="thamlym" unicode="&#xd25;" horiz-adv-x="897" 
d="M72 0v554h95v-500h190v258q0 74 28 129.5t81.5 87t128.5 31.5q80 0 132.5 -34t78.5 -94t26 -138v-294h-760zM452 54h321v232q0 95 -37 154.5t-123 59.5q-81 0 -121 -52t-40 -142v-252z" />
    <glyph glyph-name="damlym" unicode="&#xd26;" horiz-adv-x="617" 
d="M143 -9q-19 0 -41.5 24.5t-39 78t-16.5 139.5q0 62 18 120t55 105t95 74.5t137 27.5q67 0 115.5 -20t75 -55.5t26.5 -82.5q0 -39 -27.5 -74t-88.5 -48v-4q62 -10 94.5 -51t32.5 -91q0 -66 -48 -103t-131 -37q-53 0 -86 10t-47.5 26t-14.5 32q0 5 1 9.5t3 8.5
q23 -10 50.5 -18t64.5 -8q53 0 82.5 25.5t29.5 71.5q0 47 -32.5 74.5t-91.5 27.5h-63v50h58q54 0 86.5 25.5t32.5 68.5q0 50 -39 76.5t-95 26.5q-64 0 -109 -24t-72.5 -63t-40 -86t-12.5 -94q0 -53 7 -93t20.5 -73.5t31.5 -69.5q-9 -6 -21 -6z" />
    <glyph glyph-name="dhamlym" unicode="&#xd27;" horiz-adv-x="909" 
d="M281 -6q-49 0 -92.5 18.5t-76.5 55.5t-51.5 92.5t-18.5 128.5q0 66 16.5 117t43 86t57 52.5t58.5 17.5q14 0 24 -2.5t16 -5.5q-38 -27 -64 -69.5t-39.5 -92.5t-13.5 -101q0 -61 12 -105.5t33.5 -73.5t49 -43.5t57.5 -14.5q61 0 96.5 42t35.5 102v356h95v-355
q0 -44 15.5 -76.5t43.5 -50.5t65 -18q55 0 91.5 31t55 81t18.5 105q0 69 -18 119t-49 87t-71 66q7 9 17 13t20 4q23 0 50 -20t52.5 -57.5t41.5 -90t16 -117.5q0 -75 -27 -139t-78 -103t-124 -39q-54 0 -94.5 19.5t-67 54t-38.5 78.5l42 -5q-25 -59 -57.5 -91t-68.5 -44
t-73 -12z" />
    <glyph glyph-name="namlym" unicode="&#xd28;" horiz-adv-x="909" 
d="M202 -6q-22 0 -49.5 20t-53 57.5t-41.5 90t-16 117.5q0 75 27.5 139t79.5 103t125 39q53 0 92.5 -19.5t66 -53.5t38.5 -79l-42 5q26 60 58 91.5t68.5 43.5t73.5 12q48 0 91 -18.5t76 -55.5t52 -92t19 -129q0 -66 -16.5 -117t-43 -86t-57 -52.5t-58.5 -17.5q-13 0 -24 2.5
t-16 5.5q38 28 64 70t39.5 92.5t13.5 100.5q0 61 -12 105.5t-33.5 73.5t-49 43.5t-57.5 14.5q-61 0 -96.5 -42t-35.5 -103v-355h-95v354q0 45 -15.5 77.5t-43.5 50.5t-66 18q-54 0 -90.5 -31t-55 -80.5t-18.5 -105.5q0 -69 18 -118.5t49 -86.5t71 -67q-7 -8 -16.5 -12.5
t-20.5 -4.5z" />
    <glyph glyph-name="nnnamlym" unicode="&#xd29;" horiz-adv-x="1043" 
d="M252 -6q-53 0 -92.5 22t-65.5 58.5t-39 82.5t-13 94q0 77 25 135t68 96.5t96 58t110 19.5q48 0 95.5 -13.5t88.5 -43.5t68 -80l16 -62v-361h-85v292q0 102 -54 155t-141 53q-58 0 -111 -27.5t-87 -83t-34 -139.5q0 -67 21.5 -110.5t53.5 -64.5t62 -21q32 0 53.5 14
t32.5 38t11 53q0 50 -28 76t-68 26q-45 0 -79.5 -33t-56.5 -76l-9 61q19 32 44 56.5t56.5 38.5t68.5 14q49 0 85.5 -21.5t57 -58t20.5 -83.5t-20 -84.5t-58 -59t-92 -21.5zM763 560q48 0 91 -18.5t76 -55.5t52 -92t19 -129q0 -66 -16.5 -117t-43 -86t-57 -52.5t-58.5 -17.5
q-13 0 -24 2.5t-16 5.5q38 28 64 70t39.5 92.5t13.5 100.5q0 61 -12 105.5t-33.5 73.5t-49 43.5t-57.5 14.5q-61 0 -96.5 -42t-35.5 -103v-355h-85v354l29 59q26 60 58 91.5t68.5 43.5t73.5 12z" />
    <glyph glyph-name="pamlym" unicode="&#xd2a;" horiz-adv-x="892" 
d="M148 -6q-19 0 -39 13t-37 36.5t-27.5 55t-10.5 68.5q0 58 25.5 101t69.5 67t99 24q53 0 97.5 -21.5t71.5 -61t27 -94.5q0 -34 -14 -68t-43 -60h384v-54h-486l-10 17q14 12 32.5 33t32 52.5t13.5 74.5q0 51 -32 86.5t-85 35.5q-39 0 -67 -18t-43 -48t-15 -66
q0 -38 13.5 -67t34 -50.5t41.5 -35.5q-6 -10 -12.5 -15t-19.5 -5zM725 0v554h95v-554h-95z" />
    <glyph glyph-name="phamlym" unicode="&#xd2b;" horiz-adv-x="1122" 
d="M148 -6q-19 0 -39 13t-37 36.5t-27.5 55t-10.5 68.5q0 58 25.5 101t69.5 67t99 24q53 0 97.5 -21.5t71.5 -61t27 -94.5q0 -34 -14 -68t-43 -60h404v-54h-506l-10 17q14 12 32.5 33t32 52.5t13.5 74.5q0 51 -32 86.5t-85 35.5q-39 0 -67 -18t-43 -48t-15 -66
q0 -38 13.5 -67t34 -50.5t41.5 -35.5q-6 -10 -12.5 -15t-19.5 -5zM582 0v312q0 74 28 129.5t81.5 87t128.5 31.5q80 0 132.5 -34t78.5 -94t26 -138v-294h-475zM677 54h321v232q0 95 -37 154.5t-123 59.5q-81 0 -121 -52t-40 -142v-252z" />
    <glyph glyph-name="bamlym" unicode="&#xd2c;" horiz-adv-x="1342" 
d="M252 -6q-53 0 -92.5 22t-65.5 58.5t-39 82.5t-13 94q0 77 25 135t68 96.5t96 58t110 19.5q48 0 95.5 -13.5t88.5 -43.5t68 -80l16 -62v-361h-85v292q0 102 -54 155t-141 53q-58 0 -111 -27.5t-87 -83t-34 -139.5q0 -67 21.5 -110.5t53.5 -64.5t62 -21q32 0 53.5 14
t32.5 38t11 53q0 50 -28 76t-68 26q-45 0 -79.5 -33t-56.5 -76l-9 61q19 32 44 56.5t56.5 38.5t68.5 14q49 0 85.5 -21.5t57 -58t20.5 -83.5t-20 -84.5t-58 -59t-92 -21.5zM763 560q48 0 91 -18.5t76 -55t52 -91t19 -126.5q0 -45 -10 -86t-28 -75.5t-42 -62.5l-19 9h272v500
h96v-554h-434l-13 28q35 44 57.5 103.5t22.5 133.5q0 60 -12 104t-33.5 73.5t-49 43.5t-57.5 14q-61 0 -96.5 -42t-35.5 -103v-355h-85v292l29 121q26 60 58 91.5t68.5 43.5t73.5 12z" />
    <glyph glyph-name="bhamlym" unicode="&#xd2d;" horiz-adv-x="629" 
d="M143 -9q-19 0 -41.5 24.5t-39 78t-16.5 139.5q0 65 18.5 124t58 104.5t100 72t144.5 26.5q73 0 123.5 -19.5t77 -52.5t26.5 -74q0 -42 -25 -71t-86 -29q-19 0 -38.5 1t-37.5 1q-33 0 -51.5 -10.5t-18.5 -35.5q0 -29 24 -41t63 -12h19q68 0 105.5 -26.5t37.5 -77.5
q0 -55 -47.5 -87t-136.5 -32q-56 0 -90.5 12t-50 29.5t-15.5 33.5q0 10 5 20q27 -15 62.5 -27t80.5 -12q56 0 78.5 15t22.5 46q0 29 -23.5 42t-65.5 13h-12q-67 0 -107.5 24.5t-40.5 75.5q0 48 34 72.5t97 24.5q17 0 31.5 -1t33.5 -1q33 0 46 13.5t13 38.5q0 41 -37.5 64
t-105.5 23q-90 0 -145.5 -37t-81.5 -97.5t-26 -132.5q0 -53 7 -92.5t20.5 -73.5t31.5 -69q-10 -7 -21 -7z" />
    <glyph glyph-name="mamlym" unicode="&#xd2e;" horiz-adv-x="686" 
d="M64 0v296q0 92 39.5 150.5t104 86t139.5 27.5q58 0 108 -17t87.5 -49.5t58.5 -80.5t21 -110v-303h-558zM156 25l-33 29q63 37 113 82t79 97t29 107q0 32 -10.5 58.5t-33 42.5t-60.5 16q-32 0 -58.5 -15t-42.5 -51t-16 -100v-237h413v244q0 54 -14.5 93.5t-41 64.5t-65 37
t-86.5 12q-58 0 -95.5 -12.5t-60.5 -31.5l-11 5q23 12 49.5 20t54.5 8q55 0 94.5 -20.5t61 -57t21.5 -85.5q0 -53 -29 -107.5t-92 -105t-166 -93.5z" />
    <glyph glyph-name="yamlym" unicode="&#xd2f;" horiz-adv-x="977" 
d="M337 -6q-91 0 -157 42.5t-102 115t-36 162.5q0 73 26 128.5t73.5 86.5t113.5 31q44 0 75 -11.5t60 -34.5l-36 -58q-21 23 -46.5 33.5t-55.5 10.5q-52 0 -85.5 -25t-49.5 -67t-16 -93q0 -72 27.5 -131t81 -94.5t130.5 -35.5q65 0 110.5 25t74 66.5t42 90t13.5 94.5
q0 61 -17.5 98t-45.5 54.5t-60 17.5q-31 0 -58.5 -17t-44.5 -51.5t-17 -87.5q0 -64 20 -117.5t56.5 -92t87 -59.5t112.5 -21q59 0 110 27t82 82t31 139t-30 146t-79 103q8 5 18 7t18 2q32 0 62.5 -18.5t55.5 -53t39.5 -82t14.5 -106.5q0 -97 -40 -165.5t-108.5 -104.5
t-153.5 -36q-73 0 -137 23.5t-113 68.5t-77 110t-28 148q0 71 27 119t71 72.5t96 24.5q48 0 94 -24.5t76.5 -76.5t30.5 -137q0 -66 -23.5 -125t-67 -104.5t-105.5 -72t-140 -26.5z" />
    <glyph glyph-name="ramlym" unicode="&#xd30;" horiz-adv-x="685" 
d="M201 -6q-24 0 -51.5 19.5t-52 54.5t-40 83t-15.5 105q0 97 41 165t108.5 103.5t144.5 35.5q95 0 164 -42.5t106 -116.5t37 -167q0 -64 -23 -118.5t-67.5 -88t-108.5 -33.5q-58 0 -98 26.5t-60.5 74t-20.5 109.5q0 65 20 122t56.5 106t86.5 91l33 -39q-44 -36 -75 -82
t-47 -97.5t-16 -105.5q0 -70 31 -107.5t80 -37.5q31 0 56.5 16t40.5 55t15 107q0 50 -13.5 97t-40.5 85.5t-68 61t-96 22.5q-67 0 -118 -30t-80 -85t-29 -129q0 -82 39 -143.5t98 -99.5q-6 -8 -16 -12.5t-21 -4.5z" />
    <glyph glyph-name="rramlym" unicode="&#xd31;" horiz-adv-x="653" 
d="M199 -6q-24 0 -51 20t-51 56t-39.5 85.5t-15.5 107.5q0 96 39.5 162t103 100.5t136.5 34.5q65 0 118 -22.5t91.5 -63.5t59.5 -97t21 -122q0 -63 -17 -112t-44.5 -82t-58.5 -50t-60 -17q-13 0 -23.5 2.5t-16.5 5.5q58 41 90 109t32 148q0 73 -27 126t-72.5 82t-103.5 29
q-55 0 -102.5 -25.5t-77 -77t-29.5 -130.5q0 -88 38 -150.5t96 -101.5q-5 -8 -15 -12.5t-21 -4.5z" />
    <glyph glyph-name="lamlym" unicode="&#xd32;" horiz-adv-x="827" 
d="M66 0v328q0 62 18 106t49 72t70.5 41t81.5 13q97 0 152.5 -56.5t55.5 -175.5v-107h-370v53h311v64q0 75 -31 118.5t-102 43.5q-41 0 -73 -16t-50 -51t-18 -93v-286h500v500h95v-554h-689z" />
    <glyph glyph-name="llamlym" unicode="&#xd33;" horiz-adv-x="695" 
d="M230 -197q-91 0 -134.5 34.5t-43.5 92.5q0 63 44 93.5t117 30.5h214q53 0 82.5 12t41 34t11.5 53q0 34 -15 55.5t-43.5 33t-69.5 11.5v50q51 2 84.5 25t33.5 65q0 43 -25.5 66t-68 32t-93.5 9q-85 0 -145.5 -25.5t-92 -70.5t-31.5 -105q0 -47 18 -76.5t43.5 -43
t49.5 -13.5q41 0 62.5 25.5t21.5 62.5q0 25 -10 45t-28 32t-43 12q-35 0 -65.5 -24t-53.5 -76l-9 64q25 41 63.5 67.5t83.5 26.5q51 0 84.5 -20.5t50 -53.5t16.5 -72q0 -70 -45 -108.5t-122 -38.5q-42 0 -80.5 20.5t-63.5 63t-25 107.5q0 79 41.5 137.5t118 91t180.5 32.5
q59 0 107.5 -9.5t83 -29.5t53 -50t18.5 -72q0 -38 -28.5 -72t-89.5 -47l1 -4q60 -10 94 -49t34 -86q0 -51 -25 -82t-72 -45t-114 -14h-226q-55 0 -75 -16.5t-20 -44.5q0 -17 9 -30.5t30 -21.5t58 -8h423v-76h-415z" />
    <glyph glyph-name="lllamlym" unicode="&#xd34;" horiz-adv-x="634" 
d="M288 -6q-37 0 -60.5 7t-36 18t-17.5 23.5t-5 23.5q0 3 0.5 6.5t1.5 8.5q23 -10 45 -15t44 -5q54 0 76 20.5t22 55.5q0 26 -11 53t-34 62q-20 31 -37 69t-17 84q0 51 24.5 85.5t64 52t82.5 17.5q74 0 122 -43t48 -116q0 -67 -39 -113.5t-102 -70t-137 -23.5
q-99 0 -162 26.5t-93 73.5t-30 110q0 46 18 80t46.5 53.5t59.5 19.5q7 0 13.5 -0.5t10.5 -2.5q-28 -28 -40.5 -65t-12.5 -72q0 -51 20.5 -89.5t66.5 -60.5t121 -22q53 0 99 17.5t75 52.5t29 88q0 49 -28.5 74t-68.5 25q-42 0 -69.5 -24t-27.5 -72q0 -40 15.5 -74t34.5 -66
q19 -31 34 -62.5t15 -69.5q0 -44 -21 -75.5t-57 -48t-82 -16.5z" />
    <glyph glyph-name="vamlym" unicode="&#xd35;" horiz-adv-x="938" 
d="M199 -6q-24 0 -51 19.5t-51 55.5t-39.5 85t-15.5 107q0 97 39 163.5t102 101t135 34.5q90 0 152.5 -39t95.5 -101.5t33 -133.5q0 -79 -27.5 -146t-96.5 -117l-32 31h328v500h95v-554h-466l-13 26q58 44 86 106t28 137q0 65 -21.5 116t-65 81t-110.5 30q-52 0 -98.5 -25.5
t-75.5 -77t-29 -130.5q0 -88 38.5 -151t95.5 -101q-5 -8 -15 -12.5t-21 -4.5z" />
    <glyph glyph-name="shamlym" unicode="&#xd36;" horiz-adv-x="1005" 
d="M255 -6q-65 0 -113 32.5t-74 95.5t-26 153q0 65 16 117.5t41.5 90t53 57.5t49.5 20q11 0 20.5 -4t16.5 -13q-39 -29 -70.5 -66t-49.5 -87t-18 -119q0 -66 16 -114.5t48.5 -75t82.5 -26.5q40 0 68 15t43 52.5t15 102.5v67q0 91 37 150t99.5 88.5t139.5 29.5q72 0 130 -24
t98.5 -67.5t62.5 -103.5t22 -131q0 -64 -23 -118.5t-67.5 -88t-108.5 -33.5q-58 0 -98 26.5t-60.5 73.5t-20.5 110q0 65 20 122t56.5 106t86.5 91l33 -39q-44 -36 -75 -82t-47 -97.5t-16 -105.5q0 -70 31 -107.5t80 -37.5q31 0 56.5 16t40.5 55t15 107q0 50 -13 98.5
t-39.5 88.5t-67.5 64t-97 24q-51 0 -90.5 -22t-62.5 -70t-23 -127v-48q0 -80 -24.5 -135t-72.5 -83t-121 -28z" />
    <glyph glyph-name="ssamlym" unicode="&#xd37;" horiz-adv-x="1122" 
d="M148 -6q-19 0 -39 13t-37 36.5t-27.5 55t-10.5 68.5q0 58 25.5 101t69.5 67t99 24q53 0 97.5 -21.5t71.5 -61t27 -94.5q0 -34 -14 -68t-43 -60h404v-54h-506l-10 17q14 12 32.5 33t32 52.5t13.5 74.5q0 51 -32 86.5t-85 35.5q-39 0 -67 -18t-43 -48t-15 -66
q0 -38 13.5 -67t34 -50.5t41.5 -35.5q-6 -10 -12.5 -15t-19.5 -5zM654 0v398q0 50 -16 76t-51 26t-54.5 -23t-19.5 -59q0 -45 23.5 -76t65.5 -46.5t99 -15.5q53 0 101 17.5t88 52t70.5 86t47.5 118.5l42 -3v-551h-396zM747 54h210v169q0 34 1 79t5 76l55 59
q-27 -64 -74 -111.5t-109.5 -73t-136.5 -25.5q-69 0 -123.5 21.5t-86 63.5t-31.5 104q0 48 20.5 80t54 48t71.5 16q36 0 69 -15.5t54 -51t21 -94.5v-345z" />
    <glyph glyph-name="samlym" unicode="&#xd38;" horiz-adv-x="1182" 
d="M980 560q23 0 50 -20t52.5 -57.5t41.5 -90t16 -117.5q0 -90 -26 -153t-74 -95.5t-114 -32.5q-72 0 -120 28t-72.5 83t-24.5 135v92q0 92 -27.5 130t-80.5 38q-27 0 -53.5 -15t-44.5 -47t-18 -83v-355h-95v354q0 45 -15.5 77.5t-43.5 50.5t-66 18q-54 0 -90.5 -31
t-55 -80.5t-18.5 -105.5q0 -69 18 -118.5t49 -86.5t71 -67q-7 -9 -16.5 -13t-20.5 -4q-22 0 -49.5 20t-53 57.5t-41.5 90t-16 117.5q0 75 27 139t78.5 103t123.5 39q55 0 95 -19.5t66.5 -53.5t38.5 -79l-42 5q18 52 47 84.5t65 47.5t75 15q54 0 97.5 -25t69 -77.5
t25.5 -136.5v-96q0 -65 15 -102.5t43.5 -52.5t67.5 -15q50 0 82.5 26.5t48.5 75t16 114.5q0 69 -18 119t-49 87t-71 66q8 9 17.5 13t19.5 4z" />
    <glyph glyph-name="hamlym" unicode="&#xd39;" horiz-adv-x="1162" 
d="M940 -8q-14 0 -24 2.5t-15 5.5q56 41 88.5 109t32.5 150q0 67 -22.5 120.5t-66.5 85t-107 31.5q-56 0 -102.5 -27t-74 -79t-27.5 -127q0 -81 29 -134t69 -91l-24 -38h-431l-10 17q13 11 31 31.5t32.5 52.5t14.5 76q0 51 -32 86.5t-85 35.5q-39 0 -67 -18t-43 -48t-15 -66
q0 -38 13.5 -67t34 -50.5t41.5 -35.5q-6 -10 -12.5 -15t-19.5 -5q-19 0 -39 13t-37 36.5t-27.5 55t-10.5 68.5q0 58 25.5 101t69.5 67t99 24q53 0 97.5 -21.5t71.5 -61t27 -94.5q0 -34 -14 -68t-43 -60h279l1 -16q-25 30 -44 64.5t-29.5 74.5t-10.5 84q0 100 39 166
t102 99.5t133 33.5q67 0 119.5 -23t89 -64.5t55.5 -97t19 -120.5q0 -64 -17 -113t-44.5 -82.5t-58.5 -50.5t-60 -17z" />
    <glyph glyph-name="tttamlym" unicode="&#xd3a;" horiz-adv-x="749" 
d="M42 0l-21 26l198 530l91 -30l-179 -472h601v-54h-690zM362 -179v215h95v-215h-95z" />
    <glyph glyph-name="avagrahamlym" unicode="&#xd3d;" horiz-adv-x="298" 
d="M47 -220q-32 0 -54 7t-33 18.5t-11 23.5q0 14 7 24q17 -7 34 -11.5t33 -4.5q44 0 62.5 25.5t18.5 73.5v655q0 38 10 69t29 53t46.5 34t62.5 12q33 0 54.5 -7t32.5 -18t11 -24q0 -6 -1.5 -12.5t-5.5 -11.5q-16 8 -33.5 12t-33.5 4q-44 0 -62.5 -25t-18.5 -74v-655
q0 -42 -10 -73.5t-29 -52.5t-46.5 -31.5t-62.5 -10.5z" />
    <glyph glyph-name="aavowelsignmlym" unicode="&#xd3e;" horiz-adv-x="499" 
d="M230 -6q-50 0 -87.5 16.5t-62.5 42.5t-37.5 54.5t-12.5 53.5q0 16 8.5 27.5t24.5 11.5q8 -38 27 -71.5t50.5 -54t75.5 -20.5q55 0 87 33t45.5 84.5t13.5 105.5q0 40 -7.5 79.5t-24.5 72t-45 52t-69 19.5q-44 0 -75.5 -20.5t-50.5 -54t-27 -71.5q-16 0 -24.5 11.5
t-8.5 26.5q0 25 12.5 54t37.5 55t62.5 42.5t87.5 16.5q60 0 103.5 -24.5t70.5 -65.5t40 -91t13 -102t-13 -102t-40 -91t-70.5 -65.5t-103.5 -24.5z" />
    <glyph glyph-name="ivowelsignmlym" unicode="&#xd3f;" horiz-adv-x="238" 
d="M72 0v619q0 63 -13 100t-37.5 53t-57.5 16q-43 0 -68 -28t-25 -81q0 -13 2.5 -29t6.5 -26q-5 -2 -11.5 -3t-11.5 -1q-19 0 -31.5 18t-12.5 44q0 50 23.5 86t62 55.5t84.5 19.5q60 0 100.5 -26.5t61.5 -75t21 -115.5v-626h-94z" />
    <glyph glyph-name="iivowelsignmlym" unicode="&#xd40;" horiz-adv-x="238" 
d="M72 0v605q0 77 -20.5 117.5t-51.5 55.5t-64 15q-43 0 -68.5 -16t-36.5 -38.5t-11 -42.5q0 -28 15.5 -45t43.5 -17t44 17.5t16 44.5q0 22 -16 49t-56 43l19 22q50 -12 83.5 -43.5t33.5 -81.5q0 -44 -28.5 -75t-90.5 -31q-58 0 -87 35t-29 80q0 38 20.5 72t61.5 55.5
t101 21.5q65 0 113.5 -26t75 -76t26.5 -122v-619h-94z" />
    <glyph glyph-name="uvowelsignmlym" unicode="&#xd41;" horiz-adv-x="297" 
d="M140 -228q-59 0 -96 22t-54.5 57.5t-17.5 75.5q0 68 44 116.5t119 86.5h11q76 -39 118 -88.5t42 -117.5q0 -43 -20.5 -77.5t-58 -54.5t-87.5 -20zM131 -168q51 0 76.5 27t25.5 74q0 46 -30.5 82t-74.5 61l8 1q-44 -25 -78 -60.5t-34 -87.5q0 -22 10.5 -44.5t34 -37.5
t62.5 -15zM149 95l-42 8q27 69 40 147.5t13 142.5q0 44 -12 65.5t-30.5 28.5t-38.5 7q-10 0 -21.5 -2t-19.5 -4q-1 2 -1 8v8q0 23 22.5 40.5t58.5 17.5q43 0 68 -22t36 -57t11 -75q0 -45 -11 -100.5t-30 -111t-43 -101.5z" />
    <glyph glyph-name="uuvowelsignmlym" unicode="&#xd42;" horiz-adv-x="297" 
d="M140 -228q-57 0 -94.5 22t-55.5 57.5t-18 75.5q0 68 44 116.5t120 86.5h10q76 -39 118 -88.5t42 -117.5q0 -43 -21 -77.5t-58.5 -54.5t-86.5 -20zM136 -168q47 0 80 26.5t33 78.5q0 39 -13 65t-38 47l3 2q12 -15 20.5 -32t8.5 -38q0 -31 -13.5 -49.5t-35.5 -26.5t-47 -8
q-22 0 -43 8t-35 26.5t-14 49.5q0 19 8 36t19 31l2 -3q-22 -19 -35 -45.5t-13 -64.5q0 -25 11 -49t36 -39t66 -15zM136 -47q27 0 40.5 13t13.5 34q0 22 -18.5 47.5t-56.5 45.5h42q-40 -23 -57.5 -47t-17.5 -46q0 -20 13 -33.5t41 -13.5zM149 95l-42 8q27 69 40 147.5
t13 142.5q0 44 -12 65.5t-30.5 28.5t-38.5 7q-10 0 -21.5 -2t-19.5 -4q-1 2 -1 8v8q0 23 22.5 40.5t58.5 17.5q43 0 68 -22t36 -57t11 -75q0 -45 -11 -100.5t-30 -111t-43 -101.5z" />
    <glyph glyph-name="rvocalicvowelsignmlym" unicode="&#xd43;" horiz-adv-x="245" 
d="M65 -310q-88 0 -135 42.5t-47 112.5q0 65 39 98.5t97 33.5q48 0 76.5 -18t41.5 -47t13 -61q0 -31 -9.5 -63t-29.5 -57l-48 8q17 25 24.5 49t7.5 48q0 18 -7 36.5t-24 31.5t-46 13q-35 0 -55.5 -21t-20.5 -56q0 -32 15.5 -54t44 -32.5t67.5 -10.5q46 0 73.5 20t39.5 53.5
t12 75.5q0 43 -8.5 80.5t-25.5 77.5t-42 89q-35 71 -62 140t-27 139q0 53 17 84t44.5 44.5t56.5 13.5q7 0 13 -0.5t12 -1.5q-15 -24 -28 -63.5t-13 -103.5q0 -63 17.5 -129t45.5 -135q18 -44 31.5 -83t20.5 -77.5t7 -81.5q0 -89 -51 -142t-137 -53z" />
    <glyph glyph-name="rrvocalicvowelsignmlym" unicode="&#xd44;" horiz-adv-x="245" 
d="M13 -310q-56 0 -99.5 10.5t-73 31.5t-45 52t-15.5 72q0 40 15.5 65t40.5 37t51 12q37 0 59.5 -21.5t27.5 -55.5l-12 5q6 30 32 51t61 21q45 0 71 -26t26 -73q0 -36 -9.5 -57.5t-24.5 -30.5t-32 -9q-4 0 -9.5 1.5t-9.5 3.5q10 12 18 32t8 49q0 21 -7 34t-18 19t-25 6
q-24 0 -36.5 -15t-12.5 -41v-81h-56v81q0 26 -11.5 41t-37.5 15q-21 0 -36 -17t-15 -49q0 -50 38 -80t132 -30q57 0 93.5 11t56.5 30.5t28 47t8 60.5q0 38 -8.5 76t-25.5 80t-42 91q-35 71 -62 140.5t-27 140.5q0 53 17.5 83.5t45 43.5t55.5 13q6 0 12.5 -0.5t11.5 -2.5
q-15 -24 -27.5 -63t-12.5 -103q0 -63 17.5 -129t45.5 -135q18 -44 31.5 -83t20.5 -77.5t7 -81.5q0 -88 -57.5 -141.5t-182.5 -53.5z" />
    <glyph glyph-name="evowelsignmlym" unicode="&#xd46;" horiz-adv-x="694" 
d="M252 -6q-54 0 -94 21.5t-65.5 58.5t-38 82t-12.5 91q0 105 42.5 174.5t112.5 104t151 34.5q93 0 161.5 -39.5t105.5 -108t37 -157.5q0 -65 -16.5 -114.5t-43 -82.5t-57 -49.5t-58.5 -16.5q-13 0 -22 2.5t-15 5.5q36 28 61.5 64.5t39 84t13.5 107.5q0 76 -27.5 129.5
t-76.5 82t-115 28.5q-63 0 -117.5 -27t-87.5 -82t-33 -141q0 -65 20.5 -107.5t52.5 -63.5t64 -21t53.5 14t32.5 38t11 53q0 50 -28 76t-68 26q-45 0 -79.5 -33t-56.5 -76l-9 61q19 32 44 56.5t56.5 38.5t68.5 14q49 0 85.5 -21.5t57 -58t20.5 -83.5t-20 -84.5t-58 -59
t-92 -21.5z" />
    <glyph glyph-name="eevowelsignmlym" unicode="&#xd47;" horiz-adv-x="564" 
d="M338 -6q-76 0 -132 24t-92.5 64.5t-54.5 90.5t-18 103t17.5 103.5t53 91.5t90.5 65t129 24q70 0 113.5 -22.5t64.5 -56.5t21 -70q0 -45 -31 -80.5t-90 -35.5q-37 0 -63.5 15t-40 39t-13.5 52q0 29 21 61t62 48l43 -11q-37 -18 -52 -42.5t-15 -45.5q0 -25 16 -43.5
t44 -18.5t43.5 18.5t15.5 43.5q0 27 -14.5 48t-41 33t-61.5 12q-60 0 -101.5 -19.5t-67 -52t-37 -73t-11.5 -83.5q0 -42 11 -82.5t36 -72.5t66.5 -51.5t102.5 -19.5q39 0 65 12.5t39.5 33.5t13.5 46q0 24 -15.5 43t-43.5 19t-44 -18.5t-16 -43.5q0 -28 18 -50.5t51 -38.5
l-47 -9q-40 15 -60.5 47t-20.5 61q0 42 30.5 73.5t86.5 31.5q59 0 90 -35t31 -79q0 -35 -19.5 -69.5t-62 -57t-110.5 -22.5z" />
    <glyph glyph-name="aivowelsignmlym" unicode="&#xd48;" horiz-adv-x="1388" 
d="M252 -6q-54 0 -94 21.5t-65.5 58.5t-38 82t-12.5 91q0 105 42.5 174.5t112.5 104t151 34.5q93 0 161.5 -39.5t105.5 -108t37 -157.5q0 -65 -16.5 -114.5t-43 -82.5t-57 -49.5t-58.5 -16.5q-13 0 -22 2.5t-15 5.5q36 28 61.5 64.5t39 84t13.5 107.5q0 76 -27.5 129.5
t-76.5 82t-115 28.5q-63 0 -117.5 -27t-87.5 -82t-33 -141q0 -65 20.5 -107.5t52.5 -63.5t64 -21t53.5 14t32.5 38t11 53q0 50 -28 76t-68 26q-45 0 -79.5 -33t-56.5 -76l-9 61q19 32 44 56.5t56.5 38.5t68.5 14q49 0 85.5 -21.5t57 -58t20.5 -83.5t-20 -84.5t-58 -59
t-92 -21.5zM946 -6q-54 0 -94 21.5t-65.5 58.5t-38 82t-12.5 91q0 105 42.5 174.5t112.5 104t151 34.5q93 0 161.5 -39.5t105.5 -108t37 -157.5q0 -65 -16.5 -114.5t-43 -82.5t-57 -49.5t-58.5 -16.5q-13 0 -22 2.5t-15 5.5q36 28 61.5 64.5t39 84t13.5 107.5
q0 76 -27.5 129.5t-76.5 82t-115 28.5q-63 0 -117.5 -27t-87.5 -82t-33 -141q0 -65 20.5 -107.5t52.5 -63.5t64 -21t53.5 14t32.5 38t11 53q0 50 -28 76t-68 26q-45 0 -79.5 -33t-56.5 -76l-9 61q19 32 44 56.5t56.5 38.5t68.5 14q49 0 85.5 -21.5t57 -58t20.5 -83.5
t-20 -84.5t-58 -59t-92 -21.5z" />
    <glyph glyph-name="ovowelsignmlym" unicode="&#xd4a;" horiz-adv-x="1372" 
d="M252 -6q-54 0 -94 21.5t-65.5 58.5t-38 82t-12.5 91q0 105 42.5 174.5t112.5 104t151 34.5q93 0 161.5 -39.5t105.5 -108t37 -157.5q0 -65 -16.5 -114.5t-43 -82.5t-57 -49.5t-58.5 -16.5q-13 0 -22 2.5t-15 5.5q36 28 61.5 64.5t39 84t13.5 107.5q0 76 -27.5 129.5
t-76.5 82t-115 28.5q-63 0 -117.5 -27t-87.5 -82t-33 -141q0 -65 20.5 -107.5t52.5 -63.5t64 -21t53.5 14t32.5 38t11 53q0 50 -28 76t-68 26q-45 0 -79.5 -33t-56.5 -76l-9 61q19 32 44 56.5t56.5 38.5t68.5 14q49 0 85.5 -21.5t57 -58t20.5 -83.5t-20 -84.5t-58 -59
t-92 -21.5zM1103 -6q-50 0 -87.5 16.5t-62.5 42.5t-37.5 54.5t-12.5 53.5q0 16 8.5 27.5t24.5 11.5q8 -38 27 -71.5t50.5 -54t75.5 -20.5q55 0 87 33t45.5 84.5t13.5 105.5q0 40 -7.5 79.5t-24.5 72t-45 52t-69 19.5q-44 0 -75.5 -20.5t-50.5 -54t-27 -71.5
q-16 0 -24.5 11.5t-8.5 26.5q0 25 12.5 54t37.5 55t62.5 42.5t87.5 16.5q60 0 103.5 -24.5t70.5 -65.5t40 -91t13 -102t-13 -102t-40 -91t-70.5 -65.5t-103.5 -24.5zM786 233q-26 0 -44.5 15t-18.5 53q0 39 18.5 53.5t44.5 14.5t44.5 -14.5t18.5 -53.5q0 -38 -18.5 -53
t-44.5 -15z" />
    <glyph glyph-name="oovowelsignmlym" unicode="&#xd4b;" horiz-adv-x="1219" 
d="M338 -6q-76 0 -132 24t-92.5 64.5t-54.5 90.5t-18 103t17.5 103.5t53 91.5t90.5 65t129 24q70 0 113.5 -22.5t64.5 -56.5t21 -70q0 -45 -31 -80.5t-90 -35.5q-37 0 -63.5 15t-40 39t-13.5 52q0 29 21 61t62 48l43 -11q-37 -18 -52 -42.5t-15 -45.5q0 -25 16 -43.5
t44 -18.5t43.5 18.5t15.5 43.5q0 27 -14.5 48t-41 33t-61.5 12q-60 0 -101.5 -19.5t-67 -52t-37 -73t-11.5 -83.5q0 -42 11 -82.5t36 -72.5t66.5 -51.5t102.5 -19.5q39 0 65 12.5t39.5 33.5t13.5 46q0 24 -15.5 43t-43.5 19t-44 -18.5t-16 -43.5q0 -28 18 -50.5t51 -38.5
l-47 -9q-40 15 -60.5 47t-20.5 61q0 42 30.5 73.5t86.5 31.5q59 0 90 -35t31 -79q0 -35 -19.5 -69.5t-62 -57t-110.5 -22.5zM950 -6q-50 0 -87.5 16.5t-62.5 42.5t-37.5 54.5t-12.5 53.5q0 16 8.5 27.5t24.5 11.5q8 -38 27 -71.5t50.5 -54t75.5 -20.5q55 0 87 33t45.5 84.5
t13.5 105.5q0 40 -7.5 79.5t-24.5 72t-45 52t-69 19.5q-44 0 -75.5 -20.5t-50.5 -54t-27 -71.5q-16 0 -24.5 11.5t-8.5 26.5q0 25 12.5 54t37.5 55t62.5 42.5t87.5 16.5q60 0 103.5 -24.5t70.5 -65.5t40 -91t13 -102t-13 -102t-40 -91t-70.5 -65.5t-103.5 -24.5zM641 233
q-26 0 -44.5 15t-18.5 53q0 39 18.5 53.5t44.5 14.5t44.5 -14.5t18.5 -53.5q0 -38 -18.5 -53t-44.5 -15z" />
    <glyph glyph-name="auvowelsignmlym" unicode="&#xd4c;" horiz-adv-x="1628" 
d="M252 -6q-54 0 -94 21.5t-65.5 58.5t-38 82t-12.5 91q0 105 42.5 174.5t112.5 104t151 34.5q93 0 161.5 -39.5t105.5 -108t37 -157.5q0 -65 -16.5 -114.5t-43 -82.5t-57 -49.5t-58.5 -16.5q-13 0 -22 2.5t-15 5.5q36 28 61.5 64.5t39 84t13.5 107.5q0 76 -27.5 129.5
t-76.5 82t-115 28.5q-63 0 -117.5 -27t-87.5 -82t-33 -141q0 -65 20.5 -107.5t52.5 -63.5t64 -21t53.5 14t32.5 38t11 53q0 50 -28 76t-68 26q-45 0 -79.5 -33t-56.5 -76l-9 61q19 32 44 56.5t56.5 38.5t68.5 14q49 0 85.5 -21.5t57 -58t20.5 -83.5t-20 -84.5t-58 -59
t-92 -21.5zM1291 -6q-68 0 -107.5 12t-56.5 29.5t-17 31.5q0 6 1.5 13.5t3.5 11.5q38 -17 76.5 -27.5t93.5 -10.5q51 0 88.5 14.5t63 44.5t38 78.5t12.5 115.5q0 86 -25.5 139.5t-86.5 53.5q-41 0 -72 -31t-31 -99v-137h-95v133q0 68 -25 101t-72 33q-48 0 -76 -34t-28 -81
q0 -46 14.5 -80t45.5 -68q-7 -5 -14 -7t-14 -2q-21 0 -41.5 19.5t-34 55.5t-13.5 85q0 48 21.5 87t60.5 62t91 23q59 0 104.5 -35t60.5 -97l-39 6q20 45 47 72.5t58.5 40.5t66.5 13q69 0 111.5 -33t62.5 -90.5t20 -132.5q0 -70 -15.5 -127t-50 -98t-90.5 -63t-137 -22z
M786 233q-26 0 -44.5 15t-18.5 53q0 39 18.5 53.5t44.5 14.5t44.5 -14.5t18.5 -53.5q0 -38 -18.5 -53t-44.5 -15z" />
    <glyph glyph-name="viramamlym" unicode="&#xd4d;" horiz-adv-x="0" 
d="M-93 605q-71 0 -109.5 18.5t-53.5 46.5t-15 57q0 35 23.5 54t51.5 19q5 0 11 -1t12 -3q-4 -10 -5.5 -20.5t-1.5 -20.5q0 -44 25 -68t68 -24q42 0 66.5 21.5t24.5 66.5q0 12 -2.5 23.5t-7.5 21.5q5 2 10 2.5t9 0.5q18 0 29 -9.5t16.5 -24.5t5.5 -32q0 -36 -18 -65
t-52.5 -46t-86.5 -17z" />
    <glyph glyph-name="rephmlym" unicode="&#xd4e;" horiz-adv-x="0" 
d="M-280 620q-10 0 -25 12t-26 33.5t-11 50.5q0 33 17 51.5t45 18.5q29 0 45.5 -18.5t16.5 -51.5q0 -29 -11 -50.5t-25.5 -33.5t-25.5 -12z" />
    <glyph glyph-name="uni0D4F" unicode="&#xd4f;" horiz-adv-x="1207" 
d="M697 292l29 121q26 60 58.5 91.5t69.5 43.5t75 12q49 0 91.5 -18.5t75 -57t51 -96t18.5 -135.5q0 -145 -67 -244.5t-195 -151t-313 -51.5q-123 0 -223 26t-172 79t-110.5 135.5t-38.5 196.5q0 66 13.5 122t35.5 97.5t47.5 64t50.5 22.5q21 0 27 -10q-27 -28 -53.5 -69
t-44 -97.5t-17.5 -133.5q0 -101 37 -172t102.5 -115t152.5 -64t186 -20q148 0 256.5 40.5t168 125t59.5 216.5q0 66 -12 113t-32.5 77.5t-48 45t-57.5 14.5q-62 0 -98.5 -42t-36.5 -103v-355h-85v292zM415 -6q-53 0 -92.5 22t-65.5 58.5t-39 82.5t-13 94q0 77 25 135
t68 96.5t96 58t110 19.5q48 0 95.5 -13.5t88.5 -43.5t68 -80l16 -62v-361h-85v292q0 102 -54 155t-141 53q-58 0 -111 -27.5t-87 -83t-34 -139.5q0 -67 21.5 -110.5t53.5 -64.5t62 -21q32 0 53.5 14t32.5 38t11 53q0 50 -28 76t-68 26q-45 0 -79.5 -33t-56.5 -76l-9 61
q19 32 44 56.5t56.5 38.5t68.5 14q49 0 85.5 -21.5t57 -58t20.5 -83.5t-20 -84.5t-58 -59t-92 -21.5z" />
    <glyph glyph-name="machillumlym" unicode="&#xd54;" horiz-adv-x="582" 
d="M64 0v293q0 62 17 109t47.5 78.5t71.5 47.5t90 16q55 0 99 -23.5t69.5 -67t25.5 -102.5q0 -66 -44 -127.5t-119 -112t-168 -83.5l-30 26q84 50 142.5 96t89 94t30.5 103q0 44 -14.5 76t-42 50t-65.5 18q-41 0 -73 -22.5t-49.5 -67t-17.5 -110.5v-237h352q-80 52 -132 95
t-81.5 81t-41.5 74.5t-12 74.5q0 44 10.5 78.5t23.5 66.5t21.5 60t8.5 64q0 41 -24.5 64t-68.5 23q-14 0 -26.5 -1.5t-26.5 -6.5q-1 5 -1 9v6q0 16 11 30.5t31.5 23.5t49.5 9q32 0 61.5 -13.5t48 -42.5t18.5 -78q0 -37 -12.5 -76t-28.5 -77q-14 -33 -25.5 -66.5t-11.5 -69.5
q0 -39 13 -72.5t45.5 -68t91 -79t148.5 -106.5v-56h-501z" />
    <glyph glyph-name="yachillumlym" unicode="&#xd55;" horiz-adv-x="948" 
d="M617 -6q-66 0 -127 23.5t-108.5 68.5t-75.5 110t-28 148q0 71 27 119t71 72.5t96 24.5q51 0 98.5 -24.5t78 -76.5t30.5 -137q0 -66 -24 -125t-69 -104.5t-108 -72t-141 -26.5q-91 0 -157 42.5t-102 115t-36 162.5q0 73 26 128.5t73.5 86.5t113.5 31q44 0 75 -11.5
t60 -34.5l-36 -58q-21 23 -46.5 33.5t-55.5 10.5q-52 0 -85.5 -25t-49.5 -67t-16 -93q0 -72 27.5 -131t81 -94.5t130.5 -35.5q65 0 110.5 25t74 66.5t42 90t13.5 94.5q0 61 -17.5 98t-45.5 54.5t-60 17.5q-31 0 -58.5 -17t-44.5 -51.5t-17 -87.5q0 -64 20 -118t57 -93
t88 -60.5t112 -21.5q65 0 115 25.5t78.5 79t28.5 135.5q0 56 -14.5 105t-38.5 102q-19 42 -34.5 86t-15.5 87q0 39 14.5 69t43 47.5t70.5 17.5q29 0 49.5 -9t31.5 -23.5t11 -30.5v-6t-1 -9q-13 5 -26 6.5t-27 1.5q-44 0 -68.5 -23t-24.5 -64q0 -38 9.5 -70.5t25.5 -70.5
q20 -46 37.5 -99t17.5 -121q0 -84 -30 -150.5t-92 -104.5t-157 -38z" />
    <glyph glyph-name="lllachillumlym" unicode="&#xd56;" horiz-adv-x="661" 
d="M288 -6q-48 0 -83.5 18.5t-55 54.5t-19.5 88q0 26 8 58.5t22.5 68.5t32.5 74t37 77q30 59 45.5 96.5t21 64.5t5.5 54q0 41 -24.5 64t-68.5 23q-14 0 -26.5 -1.5t-26.5 -6.5q-1 5 -1 9v6q0 16 11 30.5t31.5 23.5t49.5 9q67 0 97.5 -40t30.5 -94q0 -30 -10 -66t-30.5 -82.5
t-53.5 -111.5q-30 -59 -50.5 -104t-31 -81t-10.5 -69q0 -27 9 -50.5t30 -37.5t56 -14q45 0 67 21t22 61q0 38 -11.5 69t-25.5 62t-26 64t-12 74q0 48 22.5 82.5t60 53t82.5 18.5q74 0 117 -43t43 -116q0 -67 -38.5 -113.5t-104.5 -70t-147 -23.5q-99 0 -164.5 26.5
t-98.5 73.5t-33 110q0 46 18 80t46.5 53.5t59.5 19.5q15 0 24 -3q-28 -28 -41.5 -65t-13.5 -72q0 -54 23 -92.5t72 -59t126 -20.5q61 0 109.5 17.5t77 52.5t28.5 88q0 50 -25 74.5t-66 24.5t-65.5 -24t-24.5 -72q0 -27 11 -57t25 -62q16 -37 29.5 -75.5t13.5 -77.5
q0 -44 -20 -75.5t-59.5 -48t-96.5 -16.5z" />
    <glyph glyph-name="aulengthmarkmlym" unicode="&#xd57;" horiz-adv-x="738" 
d="M401 -6q-68 0 -107.5 12t-56.5 29.5t-17 31.5q0 6 1.5 13.5t3.5 11.5q38 -17 76.5 -27.5t93.5 -10.5q51 0 88.5 14.5t63 44.5t38 78.5t12.5 115.5q0 86 -25.5 139.5t-86.5 53.5q-41 0 -72 -31t-31 -99v-137h-95v133q0 68 -25 101t-72 33q-48 0 -76 -34t-28 -81
q0 -46 14.5 -80t45.5 -68q-7 -5 -14 -7t-14 -2q-21 0 -41.5 19.5t-34 55.5t-13.5 85q0 48 21.5 87t60.5 62t91 23q59 0 104.5 -35t60.5 -97l-39 6q20 45 47 72.5t58.5 40.5t66.5 13q69 0 111.5 -33t62.5 -90.5t20 -132.5q0 -70 -15.5 -127t-50 -98t-90.5 -63t-137 -22z" />
    <glyph glyph-name="uni0D58" unicode="&#xd58;" horiz-adv-x="1248" 
d="M509 199l-29 -58q-25 -59 -57.5 -91t-68.5 -44t-73 -12q-49 0 -92.5 18.5t-76.5 55.5t-51.5 92.5t-18.5 128.5q0 66 16.5 117t43 86t57 52.5t58.5 17.5q14 0 24 -2.5t16 -5.5q-38 -27 -64 -69.5t-39.5 -92.5t-13.5 -101q0 -61 12 -105.5t33.5 -73.5t49 -43.5t57.5 -14.5
q61 0 96.5 42t35.5 102v356h85v-355zM434 199v355h85v-363q0 -61 28 -99t89 -38q58 0 89 36t31 103v361h85v-354l-36 -93q-16 -36 -41.5 -61t-60 -38.5t-77.5 -13.5q-64 0 -112.5 31t-75.5 83zM766 193v361h85v-354q0 -44 15.5 -77t44 -51t65.5 -18q57 0 94.5 31.5t56 87.5
t18.5 127q0 96 -25 175t-78.5 135.5t-140.5 87.5t-211 31q-60 0 -111.5 -5t-98 -14.5t-92.5 -25.5q-1 4 -1.5 8t-0.5 9q0 22 26.5 38t71 26.5t98.5 16t109 5.5q133 0 229.5 -34.5t159.5 -98t93.5 -152.5t30.5 -199q0 -94 -27.5 -163.5t-80 -107.5t-126.5 -38
q-54 0 -94.5 19.5t-66.5 54t-39 78.5z" />
    <glyph glyph-name="uni0D59" unicode="&#xd59;" horiz-adv-x="1012" 
d="M200 -6q-24 0 -51 19.5t-51.5 54.5t-40 83t-15.5 105q0 97 41 165t108.5 103.5t144.5 35.5q95 0 163 -42.5t104.5 -115.5t36.5 -164q0 -79 -27 -133.5t-76.5 -82.5t-117.5 -28q-38 0 -75 15t-60.5 49.5t-23.5 91.5q0 53 29 92t84 60.5t133 21.5h289q50 0 77.5 26.5
t27.5 67.5q0 43 -20.5 63t-52.5 20q-38 0 -58.5 -23.5t-20.5 -59.5q0 -31 14 -60t38 -55h-67q-19 26 -31 57t-12 65q0 42 18.5 72t52 46.5t77.5 16.5q71 0 112.5 -37.5t41.5 -96.5q0 -45 -22.5 -79.5t-68 -54t-113.5 -19.5h-284q-65 0 -106 -16.5t-60.5 -43.5t-19.5 -61
q0 -31 12.5 -52.5t34.5 -33.5t49 -12q38 0 68 17t47 56t17 105q0 50 -13.5 97t-40.5 85.5t-68 61t-96 22.5q-67 0 -118 -30t-80 -85t-29 -129q0 -82 39 -143.5t98 -99.5q-5 -8 -15.5 -12.5t-22.5 -4.5z" />
    <glyph glyph-name="uni0D5A" unicode="&#xd5a;" horiz-adv-x="1046" 
d="M274 560q53 0 92.5 -19.5t66 -53.5t38.5 -79l4 -53v-130h-85v129q0 45 -15.5 77.5t-43.5 50.5t-66 18q-54 0 -90.5 -31t-55 -80.5t-18.5 -105.5q0 -69 18 -118.5t49 -86.5t71 -67q-7 -8 -16.5 -12.5t-20.5 -4.5q-22 0 -49.5 20t-53 57.5t-41.5 90t-16 117.5
q0 75 27.5 139t79.5 103t125 39zM483 0v54h413v244q0 54 -14.5 93.5t-41 64.5t-65 37t-86.5 12q-58 0 -95.5 -12.5t-60.5 -31.5l-11 5q23 12 49.5 20t54.5 8q55 0 94.5 -20.5t61 -57t21.5 -85.5q0 -53 -29 -107.5t-92 -105t-166 -93.5l-33 29q63 37 113 82t79 97t29 107
q0 32 -10.5 58.5t-33 42.5t-60.5 16q-32 0 -58.5 -15t-42.5 -51t-16 -100v-66h-59v71q0 92 39.5 150.5t104 86t139.5 27.5q58 0 108 -17t87.5 -49.5t58.5 -80.5t21 -110v-303h-499z" />
    <glyph glyph-name="uni0D5B" unicode="&#xd5b;" horiz-adv-x="938" 
d="M739 560q24 0 51 -19.5t51 -55.5t39.5 -85t15.5 -107q0 -96 -39 -163t-102 -101.5t-135 -34.5q-89 0 -152 39t-96 101.5t-33 133.5q0 79 27.5 146t96.5 117l32 -31h-328v-500h-95v554h466l13 -26q-58 -43 -86 -105.5t-28 -137.5q0 -64 21.5 -115.5t65 -81.5t110.5 -30
q52 0 98.5 25.5t75.5 77t29 130.5q0 88 -38.5 151t-95.5 101q5 8 15.5 12.5t20.5 4.5z" />
    <glyph glyph-name="uni0D5C" unicode="&#xd5c;" horiz-adv-x="1457" 
d="M574 -6q-59 0 -104 23t-70.5 72.5t-25.5 127.5v112q0 66 -15 103t-43 52t-68 15q-50 0 -82.5 -26.5t-48.5 -74.5t-16 -115q0 -69 18 -119t49.5 -86.5t70.5 -66.5q-7 -8 -16.5 -12.5t-20.5 -4.5q-22 0 -49.5 20t-53 57.5t-41.5 90t-16 116.5q0 91 26.5 153.5t75 95.5
t114.5 33q71 0 119 -28t72 -83t24 -135v-111q0 -76 25 -115.5t77 -39.5t79 39.5t27 115.5v137q0 71 26 120t71.5 74.5t104.5 25.5q58 0 103 -23t71 -71.5t26 -125.5v-115q0 -65 15.5 -102.5t43.5 -52.5t67 -15q50 0 82.5 26.5t48.5 75t16 114.5q0 69 -18 119t-49 87t-71 66
q8 9 17.5 13t19.5 4q23 0 50 -20t52.5 -57.5t41.5 -89.5t16 -117q0 -90 -26 -153t-74 -96t-114 -33q-72 0 -120 28t-72.5 83t-24.5 135v111q0 77 -24.5 116t-77.5 39q-52 0 -79 -39t-27 -116v-134q0 -70 -25.5 -120t-71 -76.5t-105.5 -26.5z" />
    <glyph glyph-name="uni0D5D" unicode="&#xd5d;" horiz-adv-x="2038" 
d="M1054 340v-137q0 -76 25 -115.5t77 -39.5t79 39.5t27 115.5v137q0 71 26 120t71.5 74.5t104.5 25.5q58 0 103 -23t71 -71.5t26 -125.5v-115q0 -65 15.5 -102.5t43.5 -52.5t67 -15q50 0 82.5 26.5t48.5 75t16 114.5q0 69 -18 119t-49 87t-71 66q8 9 17.5 13t19.5 4
q23 0 50 -20t52.5 -57.5t41.5 -89.5t16 -117q0 -90 -26 -153t-74 -96t-114 -33q-72 0 -120 28t-72.5 83t-24.5 135v111q0 77 -24.5 116t-77.5 39q-52 0 -79 -39t-27 -116v-134q0 -70 -25.5 -120t-71 -76.5t-105.5 -26.5q-59 0 -104 23t-70.5 72.5t-25.5 127.5v134
q0 77 -23.5 116t-78.5 39q-52 0 -79 -38.5t-27 -116.5v-121q0 -87 -27.5 -139t-74.5 -74.5t-106 -22.5q-35 0 -72 11t-68 42.5t-50 91.5l40 2q-20 -56 -52 -88.5t-71 -45.5t-81 -13q-39 0 -69 10t-50.5 27.5t-31.5 39t-11 44.5q0 27 11.5 42.5t28.5 20.5q11 -34 28 -62
t44.5 -45t68.5 -17q43 0 71.5 19.5t43 52t14.5 72.5v356h95v-362q0 -45 12.5 -77.5t37 -49.5t61.5 -17q54 0 83.5 36.5t29.5 118.5v137q0 70 26 119t71.5 75t104.5 26q58 0 103 -23t71 -71.5t26 -125.5z" />
    <glyph glyph-name="uni0D5E" unicode="&#xd5e;" horiz-adv-x="1293" 
d="M200 -6q-24 0 -51 19.5t-51.5 54.5t-40 83t-15.5 105q0 97 41 165t108.5 103.5t144.5 35.5q95 0 163 -42.5t104.5 -115.5t36.5 -164q0 -79 -27 -133.5t-76.5 -82.5t-117.5 -28q-38 0 -75 15t-60.5 49.5t-23.5 91.5q0 53 29 92t84 60.5t133 21.5h52v-51h-54
q-65 0 -106 -16.5t-60.5 -43.5t-19.5 -61q0 -31 12.5 -52.5t34.5 -33.5t49 -12q38 0 68 17t47 56t17 105q0 50 -13.5 97t-40.5 85.5t-68 61t-96 22.5q-67 0 -118 -30t-80 -85t-29 -129q0 -82 39 -143.5t98 -99.5q-5 -8 -15.5 -12.5t-22.5 -4.5zM571 324h13q50 0 81.5 11
t46.5 32.5t15 52.5q0 42 -17.5 64.5t-48.5 47.5l10 22h184l-5 -54h-118l-2 22q30 -17 46 -42.5t16 -61.5q0 -45 -24 -77.5t-67.5 -50t-102.5 -17.5h-26zM1152 560q19 0 39 -13t37 -36.5t27.5 -55t10.5 -68.5q0 -58 -25.5 -101t-69.5 -67t-99 -24q-53 0 -97.5 21.5t-71.5 61
t-27 94.5q0 34 14 68.5t43 59.5h-87v54h189l10 -17q-14 -12 -32.5 -33t-32 -52t-13.5 -75q0 -51 32 -86.5t85 -35.5q40 0 67.5 18t42.5 48t15 66q0 38 -13.5 67.5t-33.5 50.5t-42 35q6 11 12.5 15.5t19.5 4.5z" />
    <glyph glyph-name="uni0D5F" unicode="&#xd5f;" horiz-adv-x="1187" 
d="M133 181q-43 0 -73 27t-30 79q0 50 30 78t76 28q48 0 78 -28.5t30 -77.5t-30.5 -77.5t-80.5 -28.5zM123 228q19 0 34 14.5t15 44.5t-15 44.5t-34 14.5q-22 0 -36.5 -15t-14.5 -44q0 -28 14.5 -43.5t36.5 -15.5zM1046 181q-43 0 -73 27t-30 79q0 50 30 78t76 28
q48 0 78 -28.5t30 -77.5t-30.5 -77.5t-80.5 -28.5zM1036 228q19 0 34 14.5t15 44.5t-15 44.5t-34 14.5q-22 0 -36.5 -15t-14.5 -44q0 -28 14.5 -43.5t36.5 -15.5zM453 -6q-24 0 -51.5 19.5t-52 54.5t-40 83t-15.5 105q0 97 41 165t108.5 103.5t144.5 35.5q95 0 164 -42.5
t106 -116.5t37 -167q0 -64 -23 -118.5t-67.5 -88t-108.5 -33.5q-58 0 -98 26.5t-60.5 74t-20.5 109.5q0 65 20 122t56.5 106t86.5 91l33 -39q-44 -36 -75 -82t-47 -97.5t-16 -105.5q0 -70 31 -107.5t80 -37.5q31 0 56.5 16t40.5 55t15 107q0 50 -13.5 97t-40.5 85.5t-68 61
t-96 22.5q-67 0 -118 -30t-80 -85t-29 -129q0 -82 39 -143.5t98 -99.5q-6 -8 -16 -12.5t-21 -4.5z" />
    <glyph glyph-name="rrvocalicmlym" unicode="&#xd60;" horiz-adv-x="800" 
d="M402 89q-66 0 -131.5 12.5t-119.5 42.5t-86.5 83t-32.5 135q0 67 25.5 111t66.5 65.5t87 21.5q40 0 75 -17t57 -50t22 -80q0 -39 -17.5 -72t-50.5 -53t-80 -20q-38 0 -68 11t-52 30t-35 42l10 67q22 -43 50 -68.5t73 -25.5q41 0 62.5 26.5t21.5 63.5q0 38 -21 64t-62 26
q-24 0 -49.5 -14t-43 -46.5t-17.5 -88.5q0 -72 40 -121t111 -73.5t163 -24.5q96 0 166.5 25t109 74.5t38.5 122.5q0 54 -16.5 86t-42 46t-51.5 14q-40 0 -61 -26t-21 -64q0 -37 22 -63.5t62 -26.5q44 0 71.5 22.5t46.5 62.5l6 -67q-13 -20 -34.5 -37t-49.5 -27t-63 -10
q-47 0 -80 20t-50 53t-17 72q0 47 22.5 80t59 50t76.5 17q43 0 83 -20t65.5 -63t25.5 -114q0 -80 -30.5 -133t-82 -84t-117 -44t-136.5 -13zM396 -207q-118 0 -191 21.5t-107 60t-34 89.5q0 47 31.5 83.5t104.5 57.5t196 21q122 0 195 -20.5t105.5 -57t32.5 -84.5
q0 -51 -32.5 -89.5t-105.5 -60t-195 -21.5zM396 -153q98 0 153.5 14.5t78 40.5t22.5 61q0 37 -21 64t-75.5 42t-157.5 15q-96 0 -151.5 -14.5t-78.5 -41.5t-23 -65q0 -35 22 -61t77.5 -40.5t153.5 -14.5zM275 -123q-19 0 -39 20.5t-20 63.5q0 36 15 55.5t36 27t38 7.5
q38 0 61.5 -19t29.5 -47h-7q6 28 30.5 47t60.5 19q44 0 70 -23.5t26 -64.5q0 -45 -18 -65.5t-43 -20.5q-4 0 -11.5 1t-11.5 3q10 11 17.5 29t7.5 42q0 17 -7 28t-18 16.5t-24 5.5q-22 0 -34.5 -16t-12.5 -45v-57h-56v54q0 29 -12.5 46.5t-34.5 17.5q-13 0 -24 -5t-18 -16.5
t-7 -28.5q0 -24 7.5 -42t17.5 -29q-1 -3 -8 -3.5t-11 -0.5z" />
    <glyph glyph-name="llvocalicmlym" unicode="&#xd61;" horiz-adv-x="1339" 
d="M252 -6q-53 0 -92.5 22t-65.5 58.5t-39 82.5t-13 94q0 77 25 135t68 96.5t96 58t110 19.5q48 0 95.5 -13.5t88.5 -43.5t68 -80l16 -62v-361h-85v292q0 102 -54 155t-141 53q-58 0 -111 -27.5t-87 -83t-34 -139.5q0 -67 21.5 -110.5t53.5 -64.5t62 -21q32 0 53.5 14
t32.5 38t11 53q0 50 -28 76t-68 26q-45 0 -79.5 -33t-56.5 -76l-9 61q19 32 44 56.5t56.5 38.5t68.5 14q49 0 85.5 -21.5t57 -58t20.5 -83.5t-20 -84.5t-58 -59t-92 -21.5zM987 -170q-73 0 -114.5 12.5t-58.5 30.5t-17 32q0 6 1.5 13.5t3.5 11.5q41 -19 80 -29.5t91 -10.5
q76 0 128 30t79.5 86t27.5 134q0 87 -26.5 142.5t-74.5 82t-114 26.5q-57 0 -105 -23.5t-77 -68.5t-29 -110q0 -73 33 -104t76 -31q53 0 84 39t31 132q0 53 -12 102t-37 88t-64.5 62t-94.5 23q-61 0 -100.5 -28.5t-59 -74.5t-19.5 -101v-296h-85v293l39 108q18 45 52 81
t80 57t101 21q88 0 154 -42.5t102.5 -116t36.5 -165.5q0 -64 -22.5 -119.5t-67 -89t-110.5 -33.5q-57 0 -96 25.5t-59.5 68.5t-20.5 96q0 80 35.5 138.5t101 90.5t154.5 32q56 0 107 -17.5t92 -54.5t64.5 -95.5t23.5 -141.5q0 -98 -37.5 -166.5t-107.5 -104t-169 -35.5z" />
    <glyph glyph-name="lvocalicvowelsignmlym" unicode="&#xd62;" horiz-adv-x="0" 
d="M-623 -362q-48 0 -78.5 22.5t-45.5 58t-15 73.5q0 62 28.5 104t74.5 63t97 21q38 0 70.5 -9t58.5 -28t45 -50l10 -33l8 -218h-72v156q0 40 -14.5 69.5t-42.5 46t-70 16.5q-40 0 -72.5 -15t-51.5 -45t-19 -77q0 -53 23.5 -79t58.5 -26q28 0 43.5 17t15.5 45t-15.5 44.5
t-43.5 16.5t-50 -18.5t-42 -51.5l-8 45q20 33 49.5 54t72.5 21q30 0 55 -12.5t40 -36t15 -58.5q0 -36 -15 -62t-43 -40t-67 -14zM-435 -181l35 64q12 28 35 50t55.5 34.5t72.5 12.5q64 0 108.5 -26.5t68.5 -71t24 -99.5q0 -64 -34 -104.5t-99 -40.5q-55 0 -88.5 32.5
t-33.5 94.5q0 54 29.5 102.5t78.5 90.5l34 -23q-42 -40 -66 -83.5t-24 -89.5q0 -34 17 -53.5t44 -19.5q26 0 43.5 22t17.5 71q0 21 -5.5 46t-19.5 48.5t-39 38.5t-64 15q-63 0 -90.5 -37t-27.5 -96v-155h-72v177z" />
    <glyph glyph-name="llvocalicvowelsignmlym" unicode="&#xd63;" horiz-adv-x="0" 
d="M-623 -362q-48 0 -78.5 22.5t-45.5 58t-15 73.5q0 62 28.5 104t74.5 63t97 21q38 0 70.5 -9t58.5 -28t45 -50l10 -33l8 -218h-72v156q0 40 -14.5 69.5t-42.5 46t-70 16.5q-40 0 -72.5 -15t-51.5 -45t-19 -77q0 -53 23.5 -79t58.5 -26q28 0 43.5 17t15.5 45t-15.5 44.5
t-43.5 16.5t-50 -18.5t-42 -51.5l-8 45q20 33 49.5 54t72.5 21q30 0 55 -12.5t40 -36t15 -58.5q0 -36 -15 -62t-43 -40t-67 -14zM2 -383q-14 0 -24 6.5t-10 19.5q31 6 46.5 31.5t15.5 62.5q0 65 -37.5 96t-100.5 31q-58 0 -98 -24.5t-40 -83.5q0 -34 18 -51.5t43 -17.5
q38 0 53 26.5t15 68.5q0 21 -5.5 46t-19.5 48.5t-39 38.5t-64 15q-63 0 -90.5 -37t-27.5 -96v-155h-64v177l27 64q12 28 35 50t55.5 34.5t72.5 12.5q62 0 106.5 -25.5t68.5 -69t24 -98.5q0 -67 -34 -108t-106 -41q-61 0 -90.5 33.5t-29.5 82.5q0 72 54 113.5t145 41.5
q51 0 98 -17t77 -54t30 -97q0 -30 -11 -58.5t-34 -47t-59 -18.5z" />
    <glyph glyph-name="zeromlym" unicode="&#xd66;" horiz-adv-x="580" 
d="M282 41q-65 0 -119.5 27.5t-87.5 81t-33 130.5t33 130.5t87.5 81t119.5 27.5q72 0 130 -27.5t92 -81t34 -130.5t-33 -130.5t-90.5 -81t-132.5 -27.5zM270 101q44 0 82.5 18.5t62.5 58.5t24 102q0 63 -24 102.5t-62.5 58t-82.5 18.5t-83 -19.5t-62.5 -59t-23.5 -100.5
q0 -60 23.5 -100t62.5 -59.5t83 -19.5z" />
    <glyph glyph-name="onemlym" unicode="&#xd67;" horiz-adv-x="897" 
d="M357 0v312q0 74 28 129.5t81.5 87t128.5 31.5q80 0 132.5 -34t78.5 -94t26 -138v-294h-475zM452 54h321v232q0 95 -37 154.5t-123 59.5q-81 0 -121 -52t-40 -142v-252zM416 0h-237q-55 0 -75 -16.5t-20 -44.5q0 -17 9 -30.5t30 -21.5t58 -8h230v-76h-221q-91 0 -135 34
t-44 94q0 62 44 92.5t117 30.5h242z" />
    <glyph glyph-name="twomlym" unicode="&#xd68;" horiz-adv-x="831" 
d="M199 -6q-24 0 -51 19.5t-51 55.5t-39.5 85t-15.5 107q0 97 39 163.5t102 101t135 34.5q90 0 152.5 -39t95.5 -101.5t33 -133.5q0 -79 -27.5 -146t-96.5 -117l-32 31h371v-54h-414l-13 26q58 44 86 106t28 137q0 65 -21.5 116t-65 81t-110.5 30q-52 0 -98.5 -25.5
t-75.5 -77t-29 -130.5q0 -88 38.5 -151t95.5 -101q-5 -8 -15 -12.5t-21 -4.5z" />
    <glyph glyph-name="threemlym" unicode="&#xd69;" horiz-adv-x="1079" 
d="M274 560q79 0 128.5 -42.5t68.5 -109.5l4 -53v-355h-85v354q0 45 -15.5 77.5t-43.5 50.5t-66 18q-54 0 -90.5 -31t-55 -80.5t-18.5 -105.5q0 -69 18 -118.5t49 -86.5t71 -67q-7 -8 -16.5 -12.5t-20.5 -4.5q-22 0 -49.5 20t-53 57.5t-41.5 90t-16 117.5q0 75 27.5 139
t79.5 103t125 39zM629 560q48 0 91 -18.5t76 -55t52 -91t19 -126.5q0 -45 -10 -86t-28 -75.5t-42 -62.5l-19 9h294v-54h-360l-13 28q35 44 57.5 103.5t22.5 133.5q0 60 -12 104t-33.5 73.5t-49 43.5t-57.5 14q-61 0 -96.5 -42t-35.5 -103v-355h-85v292l29 121q26 60 58 91.5
t68.5 43.5t73.5 12z" />
    <glyph glyph-name="fourmlym" unicode="&#xd6a;" horiz-adv-x="689" 
d="M201 -6q-24 0 -51.5 19.5t-52 54.5t-40 83t-15.5 105q0 94 40 162t106.5 105t146.5 37q98 0 166.5 -44t105 -117.5t36.5 -164.5q0 -64 -23 -118.5t-67.5 -88t-110.5 -33.5q-56 0 -96.5 26t-61.5 71.5t-21 101.5q0 68 28.5 121t73 95.5t93.5 77.5l35 -39
q-47 -35 -86 -71.5t-62.5 -80.5t-23.5 -103q0 -67 31.5 -103t79.5 -36q49 0 81.5 40t32.5 137q0 51 -13.5 99t-40.5 86.5t-68 61t-96 22.5q-67 0 -118 -31.5t-80 -87t-29 -127.5q0 -82 39 -143.5t98 -99.5q-6 -8 -16 -12.5t-21 -4.5zM503 457l-34 40q41 26 64 56.5t23 77.5
q0 34 -16.5 62t-37.5 48q5 2 11.5 3t13.5 1q55 0 86.5 -31.5t31.5 -78.5q0 -42 -20.5 -75t-53 -58t-68.5 -45z" />
    <glyph glyph-name="fivemlym" unicode="&#xd6b;" horiz-adv-x="925" 
d="M417 -174q-124 0 -206.5 54.5t-123 147.5t-40.5 208q0 99 30.5 181t87 141t135.5 91.5t176 32.5q92 0 166 -29t126.5 -83.5t81 -132t28.5 -173.5q0 -42 -7 -88.5t-22 -86.5t-37 -65.5t-52 -25.5q-7 0 -16 3q29 68 40 128t11 127q0 90 -23 158.5t-66.5 114.5t-103.5 69.5
t-134 23.5q-79 0 -145.5 -26.5t-115 -76.5t-75 -119.5t-26.5 -156.5q0 -103 26.5 -172t70 -109.5t95 -58t101.5 -17.5q65 0 110 19.5t68.5 57.5t23.5 92q0 47 -18.5 81t-53.5 52t-83 18h-31v50h58q54 0 86.5 25.5t32.5 68.5q0 50 -36 76.5t-88 26.5q-63 0 -108 -24.5
t-69 -74t-24 -124.5q0 -70 17 -120.5t45 -103.5q-9 -6 -22 -6q-19 0 -42 24.5t-40 76t-17 133.5q0 87 32.5 149.5t93.5 96t147 33.5q63 0 109 -20t71.5 -55.5t25.5 -82.5q0 -39 -29 -74t-98 -49v-4q65 -18 101 -64t36 -112q0 -76 -37.5 -126.5t-101 -75t-141.5 -24.5z" />
    <glyph glyph-name="sixmlym" unicode="&#xd6c;" horiz-adv-x="1247" 
d="M853 -175q-31 0 -63.5 6t-55 19.5t-22.5 34.5q0 4 1 10.5t2 9.5q26 -10 56 -15.5t58 -5.5q93 0 154 43t91 120t30 178q0 72 -12 124t-33.5 85.5t-49.5 49.5t-60 16q-61 0 -96.5 -42t-35.5 -103v-355h-95v363q0 62 -27.5 99.5t-89.5 37.5q-58 0 -89 -35.5t-31 -103.5v-361
h-95v354q0 45 -15.5 77.5t-43.5 50.5t-66 18q-54 0 -90.5 -31t-55 -80.5t-18.5 -105.5q0 -69 18 -118.5t49 -86.5t70 -67q-6 -8 -15.5 -12.5t-20.5 -4.5q-22 0 -49.5 20t-53 57.5t-41.5 90t-16 117.5q0 75 27.5 139t79.5 103t125 39q53 0 92.5 -19.5t66 -53.5t38.5 -79
l-35 39q16 36 41.5 61.5t60.5 38.5t77 13q64 0 112.5 -30.5t75.5 -83.5l-42 -33q26 60 58 91.5t68.5 43.5t73.5 12q51 0 94.5 -19t77 -59.5t52 -103.5t18.5 -150q0 -114 -38.5 -205t-116 -144.5t-195.5 -53.5z" />
    <glyph glyph-name="sevenmlym" unicode="&#xd6d;" horiz-adv-x="744" 
d="M342 -175q-31 0 -63.5 6t-55 19.5t-22.5 34.5q0 4 1 10.5t2 9.5q26 -10 56 -15.5t58 -5.5q87 0 150.5 38t97.5 110t34 173q0 77 -20.5 132t-56.5 90t-81.5 52t-95.5 17q-69 0 -125.5 -27t-90 -82t-33.5 -141q0 -65 20.5 -107.5t52.5 -63.5t64 -21t53.5 14t32.5 38t11 53
q0 50 -28 76t-68 26q-45 0 -79.5 -33t-56.5 -76l-9 61q19 32 44 56.5t56.5 38.5t68.5 14q49 0 85.5 -21.5t57 -58t20.5 -83.5t-20 -84.5t-58 -59t-92 -21.5t-94 21.5t-65.5 58.5t-38 82t-12.5 91q0 105 43 174.5t115.5 104t159.5 34.5q73 0 134.5 -24t107.5 -69.5
t71.5 -111.5t25.5 -150q0 -112 -42.5 -198t-122 -134t-192.5 -48z" />
    <glyph glyph-name="eightmlym" unicode="&#xd6e;" horiz-adv-x="938" 
d="M199 -6q-24 0 -51 19.5t-51 55.5t-39.5 85t-15.5 107q0 100 39 166t102 99.5t135 33.5q90 0 152.5 -39t95.5 -101.5t33 -133.5q0 -79 -27.5 -146t-96.5 -117l-32 31h341v-54h-384l-13 26q58 44 86 106t28 137q0 65 -21.5 116t-65 81t-110.5 30q-49 0 -96 -25t-77 -77.5
t-30 -134.5q0 -86 38.5 -148t95.5 -100q-4 -8 -13 -12.5t-23 -4.5zM567 -209q-31 0 -64 6t-55 19.5t-22 34.5q0 4 1 10t2 10q26 -10 56 -15.5t58 -5.5q86 0 136 30t71 85.5t21 130.5v458h95v-458q0 -102 -33.5 -170t-100 -101.5t-165.5 -33.5z" />
    <glyph glyph-name="ninemlym" unicode="&#xd6f;" horiz-adv-x="1023" 
d="M475 361v-361h-85v354q0 45 -15.5 77.5t-43.5 50.5t-66 18q-54 0 -90.5 -31t-55 -80.5t-18.5 -105.5q0 -69 18 -118.5t49 -86.5t71 -67q-7 -8 -16.5 -12.5t-20.5 -4.5q-22 0 -49.5 20t-53 57.5t-41.5 90t-16 117.5q0 75 27.5 139t79.5 103t125 39q53 0 92.5 -19.5
t66 -53.5t38.5 -79zM400 354l39 47q18 45 52 81t81.5 57t105.5 21q90 0 157.5 -44t104.5 -117.5t37 -164.5q0 -64 -23 -118.5t-67.5 -88t-110.5 -33.5q-56 0 -96.5 26t-61.5 71.5t-21 101.5q0 68 28.5 121t73 95.5t93.5 77.5l35 -39q-47 -35 -86 -71.5t-62.5 -80.5
t-23.5 -103q0 -67 31.5 -103t79.5 -36q49 0 81.5 40.5t32.5 137.5q0 51 -13.5 98.5t-40 86t-66 61t-92.5 22.5q-63 0 -103.5 -28.5t-60 -74.5t-19.5 -101v-296h-85v354zM837 457l-34 40q41 26 64 56.5t23 77.5q0 34 -16.5 62t-37.5 48q5 2 11.5 3t13.5 1q55 0 86.5 -31.5
t31.5 -78.5q0 -42 -20.5 -75t-53 -58t-68.5 -45z" />
    <glyph glyph-name="tenmlym" unicode="&#xd70;" horiz-adv-x="983" 
d="M2 -209q-31 0 -64 6t-55 19.5t-22 34.5q0 4 1 10t2 10q26 -10 56 -15.5t58 -5.5q66 0 107.5 26t61 81.5t19.5 143.5v453h85v-445q0 -119 -29.5 -188.5t-85 -99.5t-134.5 -30zM172 554h89v-363q0 -61 28 -99t89 -38q58 0 89 36t31 103v361h95v-354q0 -44 15.5 -77t44 -51
t65.5 -18q54 0 90.5 31t55 81t18.5 105q0 69 -18 118.5t-49 86.5t-71 67q7 9 17 13t20 4q23 0 50 -20t52.5 -57.5t41.5 -90t16 -117.5q0 -74 -27 -138.5t-78 -103.5t-124 -39q-54 0 -94.5 19.5t-66.5 54t-39 78.5l37 -36q-17 -37 -43 -63t-60.5 -39.5t-77.5 -13.5
q-42 0 -75 14t-57.5 39.5t-42.5 60.5z" />
    <glyph glyph-name="hundredmlym" unicode="&#xd71;" horiz-adv-x="915" 
d="M475 355v-355h-85v354q0 45 -15.5 77.5t-43.5 50.5t-66 18q-54 0 -90.5 -31t-55 -80.5t-18.5 -105.5q0 -69 18 -118.5t49 -86.5t71 -67q-7 -8 -16.5 -12.5t-20.5 -4.5q-22 0 -49.5 20t-53 57.5t-41.5 90t-16 117.5q0 75 27.5 139t79.5 103t125 39q53 0 92.5 -19.5
t66 -53.5t38.5 -79zM400 363l29 50q26 60 58 91.5t68.5 43.5t73.5 12q51 0 94.5 -19t77 -59.5t52 -103.5t18.5 -150q0 -114 -38.5 -205t-116 -144.5t-195.5 -53.5q-31 0 -63.5 6t-55 19.5t-22.5 34.5q0 4 1 10.5t2 9.5q26 -10 56 -15.5t58 -5.5q93 0 154 43t91 120t30 178
q0 72 -12 124t-33.5 85.5t-49.5 49.5t-60 16q-61 0 -96.5 -42t-35.5 -103v-355h-85v363z" />
    <glyph glyph-name="thousandmlym" unicode="&#xd72;" horiz-adv-x="1346" 
d="M475 361v-361h-85v354q0 45 -15.5 77.5t-43.5 50.5t-66 18q-54 0 -90.5 -31t-55 -80.5t-18.5 -105.5q0 -69 18 -118.5t49 -86.5t71 -67q-7 -8 -16.5 -12.5t-20.5 -4.5q-22 0 -49.5 20t-53 57.5t-41.5 90t-16 117.5q0 75 27.5 139t79.5 103t125 39q53 0 92.5 -19.5
t66 -53.5t38.5 -79zM594 150q0 53 29 92t84 60.5t133 21.5h289q50 0 77.5 26.5t27.5 67.5q0 43 -20.5 63t-52.5 20q-38 0 -58.5 -23.5t-20.5 -59.5q0 -31 14 -60t38 -55h-67q-19 26 -31 57t-12 65q0 42 18.5 72t52 46.5t77.5 16.5q71 0 112.5 -37.5t41.5 -96.5
q0 -45 -22.5 -79.5t-68 -54t-113.5 -19.5h-284q-65 0 -106 -16.5t-60.5 -43.5t-19.5 -61q0 -31 12.5 -52.5t34.5 -33.5t49 -12q57 0 94.5 40.5t37.5 137.5q0 51 -13.5 98.5t-40 86t-66 61t-92.5 22.5q-63 0 -103.5 -28.5t-60 -74.5t-19.5 -101v-296h-85v354l39 47
q18 45 52 81t81.5 57t105.5 21q90 0 156.5 -44t103 -117.5t36.5 -164.5q0 -77 -27 -130.5t-76.5 -81.5t-117.5 -28q-38 0 -75 15t-60.5 49.5t-23.5 91.5z" />
    <glyph glyph-name="onequartermlym" unicode="&#xd73;" horiz-adv-x="766" 
d="M243 -6q-53 0 -91.5 20t-63 53t-36.5 73t-12 81q0 98 43.5 162t127.5 95t206 31h326v-60h-352q-90 0 -156 -23t-102.5 -71.5t-36.5 -127.5q0 -47 15.5 -86.5t44.5 -63t69 -23.5q34 0 56 13.5t33.5 37t11.5 52.5q0 51 -28 77.5t-68 26.5q-43 0 -78 -32t-61 -73l-5 66
q16 26 41 49t57.5 37t68.5 14q49 0 85.5 -21.5t57.5 -58t21 -83.5t-21 -84.5t-60 -59t-93 -21.5z" />
    <glyph glyph-name="onehalfmlym" unicode="&#xd74;" horiz-adv-x="890" 
d="M243 -6q-71 0 -116 34t-66 87.5t-21 109.5q0 77 28.5 138.5t82 105.5t128 67.5t165.5 23.5q115 0 206.5 -41t144.5 -116.5t53 -180.5q0 -68 -24 -119.5t-66 -80t-97 -28.5q-42 0 -80 19t-62 66.5t-24 135.5v585h60v-578q0 -65 12.5 -101.5t35.5 -51.5t52 -15q27 0 49 17
t34.5 50.5t12.5 82.5q0 88 -38 154.5t-108 104t-167 37.5q-74 0 -136.5 -18.5t-108.5 -53.5t-71.5 -85.5t-25.5 -115.5q0 -47 15.5 -86.5t45.5 -63t71 -23.5q32 0 53.5 14t32.5 38t11 53q0 50 -28 76t-67 26q-43 0 -78 -32t-61 -73l-5 66q16 26 41 49t57.5 37t68.5 14
q49 0 85.5 -21.5t57.5 -58t21 -83.5t-21 -84.5t-60 -59t-93 -21.5z" />
    <glyph glyph-name="threequartermlym" unicode="&#xd75;" horiz-adv-x="1157" 
d="M252 -6q-53 0 -92.5 22t-65.5 58.5t-39 82.5t-13 94q0 77 25 135t68 96.5t96 58t110 19.5q48 0 95.5 -13.5t88.5 -43.5t68 -80l16 -62v-361h-85v292q0 102 -54 155t-141 53q-58 0 -111 -27.5t-87 -83t-34 -139.5q0 -67 21.5 -110.5t53.5 -64.5t62 -21q32 0 53.5 14
t32.5 38t11 53q0 50 -28 76t-68 26q-45 0 -79.5 -33t-56.5 -76l-9 61q19 32 44 56.5t56.5 38.5t68.5 14q49 0 85.5 -21.5t57 -58t20.5 -83.5t-20 -84.5t-58 -59t-92 -21.5zM534 354l39 47q18 45 52 81t81.5 57t105.5 21q90 0 157.5 -44t104.5 -117.5t37 -164.5
q0 -64 -23 -118.5t-67.5 -88t-110.5 -33.5q-56 0 -96.5 26t-61.5 71.5t-21 101.5q0 68 28.5 121t73 95.5t93.5 77.5l35 -39q-47 -35 -86 -71.5t-62.5 -80.5t-23.5 -103q0 -67 31.5 -103t79.5 -36q49 0 81.5 40.5t32.5 137.5q0 51 -13.5 98.5t-40 86t-66 61t-92.5 22.5
q-63 0 -103.5 -28.5t-60 -74.5t-19.5 -101v-296h-85v354zM971 457l-34 40q41 26 64 56.5t23 77.5q0 34 -16.5 62t-37.5 48q5 2 11.5 3t13.5 1q55 0 86.5 -31.5t31.5 -78.5q0 -42 -20.5 -75t-53 -58t-68.5 -45z" />
    <glyph glyph-name="uni0D76" unicode="&#xd76;" horiz-adv-x="1358" 
d="M148 -6q-19 0 -39 13t-37 36.5t-27.5 55t-10.5 68.5q0 58 25.5 101t69.5 67t99 24q53 0 97.5 -21.5t71.5 -61t27 -94.5q0 -34 -14 -68t-43 -60h404v-54h-506l-10 17q14 12 32.5 33t32 52.5t13.5 74.5q0 51 -32 86.5t-85 35.5q-39 0 -67 -18t-43 -48t-15 -66
q0 -38 13.5 -67t34 -50.5t41.5 -35.5q-6 -10 -12.5 -15t-19.5 -5zM736 0v296q0 92 39.5 150.5t104 86t139.5 27.5q58 0 108 -17t87.5 -49.5t58.5 -80.5t21 -110v-303h-558zM828 25l-33 29q63 37 113 82t79 97t29 107q0 32 -10.5 58.5t-33 42.5t-60.5 16q-32 0 -58.5 -15
t-42.5 -51t-16 -100v-237h413v244q0 54 -14.5 93.5t-41 64.5t-65 37t-86.5 12q-58 0 -95.5 -12.5t-60.5 -31.5l-11 5q23 12 49.5 20t54.5 8q55 0 94.5 -20.5t61 -57t21.5 -85.5q0 -53 -29 -107.5t-92 -105t-166 -93.5z" />
    <glyph glyph-name="uni0D77" unicode="&#xd77;" horiz-adv-x="1706" 
d="M990 355v-130h-85v129q0 45 -15.5 77.5t-43 50.5t-63.5 18q-54 0 -90 -31t-53.5 -80.5t-17.5 -105.5q0 -86 26.5 -141.5t74.5 -103.5l-15 -38h-443l-10 17q14 12 32.5 33t32 52.5t13.5 74.5q0 51 -32 86.5t-85 35.5q-39 0 -67 -18t-43 -48t-15 -66q0 -38 13.5 -67
t34 -50.5t41.5 -35.5q-6 -10 -12.5 -15t-19.5 -5q-19 0 -39 13t-37 36.5t-27.5 55t-10.5 68.5q0 58 25.5 101t69.5 67t99 24q53 0 97.5 -21.5t71.5 -61t27 -94.5q0 -34 -14 -68t-43 -60h292l-10 -10q-23 22 -43 57t-31.5 80t-11.5 98q0 75 27 139t78 103t124 39
q47 0 86 -17.5t66.5 -51.5t41.5 -83zM1103 150q0 53 29 92t84 60.5t133 21.5h117q71 0 104 23t33 73q0 27 -10.5 48t-30.5 34q9 8 18 11t25 3q25 0 43 -12.5t28 -33.5t10 -49q0 -43 -23 -76.5t-68 -52.5t-111 -19h-137q-65 0 -106 -16.5t-60.5 -43.5t-19.5 -61
q0 -31 12.5 -52.5t34.5 -33.5t49 -12q57 0 94.5 40.5t37.5 137.5q0 51 -13 98.5t-39.5 86t-65.5 61t-91 22.5q-63 0 -103 -28.5t-58.5 -74.5t-18.5 -101v-71h-85v129l39 47q26 68 87.5 113.5t148.5 45.5q89 0 154.5 -44t102 -117.5t36.5 -164.5q0 -77 -27 -130.5
t-76.5 -81.5t-117.5 -28q-38 0 -75 15t-60.5 49.5t-23.5 91.5z" />
    </font>
</defs>
</svg>
