<?xml version="1.0" standalone="no"?>
<!DOCTYPE svg PUBLIC "-//W3C//DTD SVG 1.1//EN" "http://www.w3.org/Graphics/SVG/1.1/DTD/svg11.dtd" >
<svg xmlns="http://www.w3.org/2000/svg" xmlns:xlink="http://www.w3.org/1999/xlink" version="1.1">
<metadata>
Created by FontForge 20190801 at Wed Sep 23 21:37:02 2015
 By www-data
Copyright 2015 Google Inc. All Rights Reserved.
</metadata>
<defs>
<font id="NotoSansOriyaUIBold" horiz-adv-x="0" >
  <font-face 
    font-family="NotoSansOriyaUIBold"
    font-weight="700"
    font-stretch="normal"
    units-per-em="2048"
    panose-1="2 11 8 2 4 5 4 2 2 4"
    ascent="1638"
    descent="-410"
    bbox="-1522 -555 2263 2068"
    underline-thickness="102"
    underline-position="-205"
    unicode-range="U+000D-25CC"
  />
<missing-glyph horiz-adv-x="1229" 
d="M193 1652h841v-1462h-841v1462zM297 294h633v1254h-633v-1254z" />
    <glyph glyph-name=".notdef" horiz-adv-x="1229" 
d="M193 1652h841v-1462h-841v1462zM297 294h633v1254h-633v-1254z" />
    <glyph glyph-name=".null" 
 />
    <glyph glyph-name="nonmarkingreturn" unicode="&#xd;" horiz-adv-x="880" 
 />
    <glyph glyph-name="NULL" 
 />
    <glyph glyph-name="NULL" 
 />
    <glyph glyph-name="space" unicode=" " horiz-adv-x="881" 
 />
    <glyph glyph-name="space" unicode="&#xa0;" horiz-adv-x="881" 
 />
    <glyph glyph-name="exclam.orya" unicode="!" horiz-adv-x="641" 
d="M444 675h-243l-43 977h329zM322 512q81 0 127.5 -43.5t46.5 -126.5q0 -82 -46.5 -126t-127.5 -44q-83 0 -130 44t-47 126q0 84 46.5 127t130.5 43z" />
    <glyph glyph-name="quotedbl.orya" unicode="&#x22;" horiz-adv-x="1020" 
d="M444 1777l-41 -526h-208l-41 526h290zM866 1777l-41 -526h-209l-41 526h291z" />
    <glyph glyph-name="numbersign.orya" unicode="#" horiz-adv-x="1352" 
d="M1210 743v-205h-282l-64 -348h-219l65 348h-194l-63 -348h-215l62 348h-226v205h263l45 252h-237v209h274l60 332h219l-60 -332h196l63 332h215l-61 -332h227v-209h-266l-46 -252h244zM554 743h194l47 252h-195z" />
    <glyph glyph-name="percent.orya" unicode="%" horiz-adv-x="1845" 
d="M408 755q-166 0 -255.5 104.5t-89.5 297.5q0 399 345 399q165 0 257.5 -101t92.5 -298q0 -199 -88 -300.5t-262 -101.5zM410 954q104 0 104 201q0 200 -104 200q-54 0 -78.5 -50t-24.5 -150q0 -101 24.5 -151t78.5 -50zM1446 1536l-811 -1346h-240l811 1346h240z
M1432 172q-166 0 -255.5 104t-89.5 297q0 399 345 399q168 0 259 -103t91 -296q0 -199 -88 -300t-262 -101zM1434 370q104 0 104 201t-104 201q-54 0 -78.5 -50.5t-24.5 -150.5t24.5 -150.5t78.5 -50.5z" />
    <glyph glyph-name="quotesingle.orya" unicode="'" horiz-adv-x="586" 
d="M154 1777h278l-41 -528h-196z" />
    <glyph glyph-name="parenleft.orya" unicode="(" horiz-adv-x="782" 
d="M424 1882h250q-150 -234 -227.5 -508t-77.5 -568q0 -287 77 -558.5t226 -503.5h-248q-148 210 -227.5 484t-79.5 574q0 303 79 580.5t228 499.5z" />
    <glyph glyph-name="parenright.orya" unicode=")" horiz-adv-x="782" 
d="M358 -256h-249q149 233 227 506t78 569q0 289 -77 560t-226 503h247q149 -212 228.5 -485t79.5 -574q0 -305 -79.5 -581t-228.5 -498z" />
    <glyph glyph-name="asterisk.orya" unicode="*" horiz-adv-x="1100" 
d="M676 1777l-41 -356l362 100l33 -244l-330 -24l218 -287l-222 -119l-151 306l-133 -304l-230 117l215 287l-327 27l39 241l352 -100l-39 356h254z" />
    <glyph glyph-name="plus.orya" unicode="+" horiz-adv-x="1171" 
d="M475 759h-387v219h387v390h219v-390h387v-219h-387v-385h-219v385z" />
    <glyph glyph-name="comma.orya" unicode="," horiz-adv-x="584" 
d="M481 405q-54 -211 -176 -479h-219q71 299 100 502h281z" />
    <glyph glyph-name="hyphen.orya" unicode="-" horiz-adv-x="700" 
d="M82 753v250h536v-250h-536z" />
    <glyph glyph-name="period.orya" unicode="." horiz-adv-x="584" 
d="M293 509q82 0 128 -43.5t46 -125.5t-46.5 -126t-127.5 -44q-83 0 -129.5 44t-46.5 126q0 83 45.5 126t130.5 43z" />
    <glyph glyph-name="slash.orya" unicode="/" horiz-adv-x="946" 
d="M885 1882l-570 -2138h-254l570 2138h254z" />
    <glyph glyph-name="zero.orya" unicode="0" horiz-adv-x="1171" 
d="M584 170q-232 0 -350.5 175t-118.5 515q0 352 117 524t352 172q471 0 471 -694q0 -361 -115 -526.5t-356 -165.5zM584 395q114 0 163.5 109.5t49.5 357.5q0 252 -49.5 360.5t-163.5 108.5q-81 0 -127 -52t-65 -154t-19 -265q0 -246 50 -355.5t161 -109.5z" />
    <glyph glyph-name="one.orya" unicode="1" horiz-adv-x="1171" 
d="M530 417v551q0 174 7 269q-28 -39 -101 -99l-155 -125l-140 178l434 345h213v-1119h238v-227h-737v227h241z" />
    <glyph glyph-name="two.orya" unicode="2" horiz-adv-x="1171" 
d="M1063 190h-940v199l350 346q196 194 244.5 269t48.5 155q0 77 -47 120.5t-127 43.5q-79 0 -155 -31.5t-173 -108.5l-145 181q105 79 167.5 113.5t141.5 56.5t172 22q191 0 307.5 -104t116.5 -265q0 -99 -37.5 -187.5t-115.5 -179t-238 -239.5l-158 -147v-11h588v-233z
" />
    <glyph glyph-name="three.orya" unicode="3" horiz-adv-x="1171" 
d="M723 899v-7q324 -40 324 -323q0 -186 -139 -292.5t-398 -106.5q-221 0 -387 73v240q83 -41 180.5 -64.5t190.5 -23.5q147 0 219.5 46t72.5 142q0 107 -81 151t-261 44h-114v211h108q158 0 239 41t81 145q0 74 -49 115t-152 41q-76 0 -149 -23.5t-156 -75.5l-127 193
q212 131 446 131q206 0 324.5 -86.5t118.5 -235.5q0 -126 -75.5 -213.5t-215.5 -121.5z" />
    <glyph glyph-name="four.orya" unicode="4" horiz-adv-x="1171" 
d="M1094 479h-174v-289h-254v289h-586v194l590 863h250v-840h174v-217zM666 696v235q0 195 12 291h-6q-39 -85 -88 -160l-246 -366h328z" />
    <glyph glyph-name="five.orya" unicode="5" horiz-adv-x="1171" 
d="M139 251v240q165 -88 361 -88q143 0 210.5 52t67.5 163q0 101 -71.5 154t-206.5 53q-121 0 -221 -31l-113 70l51 672h729v-232h-497l-21 -278q85 20 184 20q192 0 308 -108t116 -295q0 -223 -138 -344t-396 -121q-226 0 -363 73z" />
    <glyph glyph-name="six.orya" unicode="6" horiz-adv-x="1171" 
d="M973 1544v-230q-93 17 -168 17q-224 0 -329.5 -95.5t-119.5 -322.5h11q91 156 303 156q183 0 290 -114.5t107 -313.5q0 -218 -123 -344.5t-336 -126.5q-152 0 -264 74t-169.5 213.5t-57.5 336.5q0 376 170.5 569t505.5 193q106 0 180 -12zM815 634q0 106 -53 163t-154 57
q-99 0 -166 -58.5t-67 -134.5q0 -113 62.5 -189.5t166.5 -76.5q97 0 154 59.5t57 179.5z" />
    <glyph glyph-name="seven.orya" unicode="7" horiz-adv-x="1171" 
d="M256 190l532 1112h-690v234h965v-175l-533 -1171h-274z" />
    <glyph glyph-name="eight.orya" unicode="8" horiz-adv-x="1171" 
d="M774 901q148 -78 215.5 -166.5t67.5 -196.5q0 -165 -130.5 -266.5t-340.5 -101.5q-224 0 -348.5 96t-124.5 266q0 118 63 207t195 153q-217 135 -217 338q0 149 121 237.5t311 88.5q191 0 310.5 -87.5t119.5 -240.5q0 -210 -242 -327zM586 1011q103 43 142.5 89.5
t39.5 107.5q0 65 -50.5 103t-133.5 38q-80 0 -130.5 -37t-50.5 -104q0 -60 42 -107t141 -90zM571 784q-211 -89 -211 -236q0 -80 58 -126t164 -46q110 0 168.5 44.5t58.5 125.5q0 61 -49 115t-162 109z" />
    <glyph glyph-name="nine.orya" unicode="9" horiz-adv-x="1171" 
d="M199 182v231q75 -18 168 -18q227 0 334 98.5t116 327.5h-12q-52 -91 -125.5 -126.5t-181.5 -35.5q-184 0 -289 115.5t-105 322.5q0 213 124.5 336t334.5 123q227 0 359.5 -162t132.5 -461q0 -373 -169 -568t-505 -195q-108 0 -182 12zM356 1101q0 -227 205 -227
q100 0 168 59t68 134q0 106 -63.5 185t-166.5 79q-99 0 -155 -60t-56 -170z" />
    <glyph glyph-name="colon.orya" unicode=":" horiz-adv-x="625" 
d="M313 1325q81 0 127.5 -42.5t46.5 -127.5q0 -82 -46.5 -126t-127.5 -44t-128.5 42.5t-47.5 127.5q0 83 45.5 126.5t130.5 43.5zM313 509q82 0 128 -43t46 -126q0 -82 -46.5 -126t-127.5 -44q-83 0 -129.5 44t-46.5 126q0 83 45.5 126t130.5 43z" />
    <glyph glyph-name="semicolon.orya" unicode=";" horiz-adv-x="625" 
d="M313 1325q81 0 127.5 -42.5t46.5 -127.5q0 -82 -46.5 -126t-127.5 -44t-128.5 42.5t-47.5 127.5q0 83 45.5 126.5t130.5 43.5zM467 383l14 -23q-54 -211 -176 -479h-219q71 299 100 502h281z" />
    <glyph glyph-name="less.orya" unicode="&#x3c;" horiz-adv-x="1171" 
d="M1081 350l-993 438v143l993 496v-240l-684 -317l684 -281v-239z" />
    <glyph glyph-name="equal.orya" unicode="=" horiz-adv-x="1171" 
d="M88 954v217h993v-217h-993zM88 565v219h993v-219h-993z" />
    <glyph glyph-name="greater.orya" unicode="&#x3e;" horiz-adv-x="1171" 
d="M88 589l684 281l-684 317v240l993 -496v-143l-993 -438v239z" />
    <glyph glyph-name="question.orya" unicode="?" horiz-adv-x="1026" 
d="M305 675v74q0 100 44.5 170.5t156.5 147.5q104 72 141 119t37 108q0 71 -51.5 109t-145.5 38q-155 0 -350 -98l-100 205q226 125 473 125q140 0 241.5 -46.5t154 -129t52.5 -187.5q0 -104 -45 -183t-194 -187q-93 -68 -120.5 -105t-27.5 -100v-60h-266zM451 509
q82 0 128 -43.5t46 -125.5t-46.5 -126t-127.5 -44q-83 0 -130 44t-47 126q0 83 46 126t131 43z" />
    <glyph glyph-name="bracketleft.orya" unicode="[" horiz-adv-x="809" 
d="M678 -256h-483v2138h483v-211h-240v-1717h240v-210z" />
    <glyph glyph-name="backslash.orya" unicode="\" horiz-adv-x="946" 
d="M315 1882l570 -2138h-254l-570 2138h254z" />
    <glyph glyph-name="bracketright.orya" unicode="]" horiz-adv-x="809" 
d="M131 -46h240v1717h-240v211h485v-2138h-485v210z" />
    <glyph glyph-name="asciicircum.orya" unicode="^" horiz-adv-x="1171" 
d="M283 720h-236l438 951h144l495 -951h-239l-322 644z" />
    <glyph glyph-name="underscore.orya" unicode="_" horiz-adv-x="842" 
d="M846 6v-140h-850v140h850z" />
    <glyph glyph-name="braceleft.orya" unicode="{" horiz-adv-x="918" 
d="M348 1603q0 116 45 173.5t140 81.5t253 24v-211q-108 -2 -149 -36t-41 -106v-491q0 -186 -217 -221v-13q217 -35 217 -221v-489q0 -73 43.5 -107t146.5 -35v-208q-186 0 -277 30.5t-126 88.5t-35 157v502q0 91 -62 134.5t-194 43.5v223q137 0 196.5 45t59.5 133v502z" />
    <glyph glyph-name="bar.orya" unicode="|" horiz-adv-x="1128" 
d="M455 1882h219v-2138h-219v2138z" />
    <glyph glyph-name="braceright.orya" unicode="}" horiz-adv-x="918" 
d="M569 22q0 -117 -46.5 -174.5t-141.5 -80.5t-250 -23v210q107 2 149 35t42 107v489q0 187 217 221v11q-217 37 -217 223v491q0 72 -41.5 106t-149.5 36v209q160 0 255 -24.5t139 -82t44 -170.5v-504q0 -91 61.5 -134.5t194.5 -43.5v-223q-133 0 -194.5 -45t-61.5 -135
v-498z" />
    <glyph glyph-name="asciitilde.orya" unicode="~" horiz-adv-x="1171" 
d="M88 698v231q103 109 256 109q69 0 128 -13.5t149 -50.5q68 -29 121 -42t106 -13q55 0 117 33t116 88v-232q-102 -108 -256 -108q-77 0 -141 16.5t-135 46.5q-77 32 -128 44t-99 12q-53 0 -114.5 -32t-119.5 -89z" />
    <glyph glyph-name="sfthyphen.orya" unicode="&#xad;" horiz-adv-x="700" 
d="M82 753v250h536v-250h-536z" />
    <glyph glyph-name="multiply.orya" unicode="&#xd7;" horiz-adv-x="1171" 
d="M428 870l-299 301l152 154l301 -299l305 299l153 -150l-305 -305l301 -303l-149 -152l-305 301l-301 -299l-150 152z" />
    <glyph glyph-name="divide.orya" unicode="&#xf7;" horiz-adv-x="1171" 
d="M584 1370q66 0 102.5 -39.5t36.5 -112.5q0 -72 -38.5 -111.5t-100.5 -39.5q-38 0 -69.5 15t-51 49.5t-19.5 86.5q0 74 36 113t104 39zM88 759v219h993v-219h-993zM584 671q66 0 102.5 -39t36.5 -112q0 -72 -38.5 -112t-100.5 -40q-65 0 -102.5 40t-37.5 112q0 73 36 112
t104 39z" />
    <glyph glyph-name="danda.orya" unicode="&#x964;" horiz-adv-x="901" 
d="M442 1536h248v-1346h-248v1346z" />
    <glyph glyph-name="dbldanda.orya" unicode="&#x965;" horiz-adv-x="1315" 
d="M442 1536h248v-1346h-248v1346zM856 1536h248v-1346h-248v1346z" />
    <glyph glyph-name="candrabinduorya" unicode="&#xb01;" 
d="M-147 1951q0 -53 -35 -86t-94 -33t-94.5 33.5t-35.5 85.5q0 51 35.5 84t94.5 33t94 -33t35 -84zM172 2017q-23 -202 -140.5 -311t-307.5 -109q-194 0 -309.5 108.5t-137.5 311.5l213 24q10 -129 70.5 -197.5t163.5 -68.5q101 0 161 67.5t72 198.5z" />
    <glyph glyph-name="anusvaraorya" unicode="&#xb02;" horiz-adv-x="729" 
d="M365 917q-146 0 -237 83t-91 226q0 138 90 224t238 86q88 0 163 -35.5t119.5 -106t44.5 -168.5q0 -138 -89.5 -223.5t-237.5 -85.5zM365 1343q-56 0 -84.5 -33.5t-28.5 -83.5q0 -58 29.5 -87t83.5 -29t83 33.5t29 82.5q0 54 -30 85.5t-82 31.5z" />
    <glyph glyph-name="visargaorya" unicode="&#xb03;" horiz-adv-x="952" 
d="M287 864q-115 87 -164 172.5t-49 187.5q0 145 109.5 238.5t293.5 93.5q115 0 206.5 -39.5t143.5 -116t52 -178.5t-49.5 -186.5t-165.5 -169.5q117 -88 168 -175t51 -192q0 -146 -110 -237.5t-298 -91.5q-187 0 -296 91.5t-109 237.5q0 105 49.5 191t167.5 174zM474 996
q91 64 128 111.5t37 104.5q0 62 -44.5 98.5t-117.5 36.5q-79 0 -121.5 -37t-42.5 -98q0 -60 37.5 -108t123.5 -108zM474 732q-93 -67 -128 -114t-35 -111q0 -58 44.5 -93.5t117.5 -35.5q80 0 124 35t44 96t-35 107.5t-132 115.5z" />
    <glyph glyph-name="aorya" unicode="&#xb05;" horiz-adv-x="1454" 
d="M1339 190h-245l4 210q-110 -113 -249 -171.5t-294 -58.5q-149 0 -252 46t-157 137t-54 214q0 310 408 436l26 8q79 24 131 54.5t76.5 71t24.5 104.5q0 49 -20 76.5t-56 27.5q-26 0 -42 -12t-25 -32.5t-9 -74.5v-110h-203v90q0 70 -5.5 93t-21.5 34.5t-40 11.5
q-32 0 -50 -22t-18 -58q0 -54 23 -121l-203 -47q-39 115 -39 201q0 116 67 187t173 71q68 0 116.5 -22.5t93.5 -79.5q44 53 93.5 77.5t122.5 24.5q128 0 204 -87.5t76 -238.5q0 -101 -31.5 -175t-110 -138t-222.5 -113l-19 -6q-64 -20 -111 -39t-84.5 -47.5t-55 -63.5
t-17.5 -81q0 -80 57 -124t160 -44q306 0 533 310v827h245v-1346z" />
    <glyph glyph-name="aaorya" unicode="&#xb06;" horiz-adv-x="1929" 
d="M1339 190h-245l4 210q-110 -113 -249 -171.5t-294 -58.5q-149 0 -252 46t-157 137t-54 214q0 310 408 436l26 8q79 24 131 54.5t76.5 71t24.5 104.5q0 49 -20 76.5t-56 27.5q-26 0 -42 -12t-25 -32.5t-9 -74.5v-110h-203v90q0 70 -5.5 93t-21.5 34.5t-40 11.5
q-32 0 -50 -22t-18 -58q0 -54 23 -121l-203 -47q-39 115 -39 201q0 116 67 187t173 71q68 0 116.5 -22.5t93.5 -79.5q44 53 93.5 77.5t122.5 24.5q128 0 204 -87.5t76 -238.5q0 -101 -31.5 -175t-110 -138t-222.5 -113l-19 -6q-64 -20 -111 -39t-84.5 -47.5t-55 -63.5
t-17.5 -81q0 -80 57 -124t160 -44q306 0 533 310v827h245v-1346zM1814 1536v-1346h-245v1346h245z" />
    <glyph glyph-name="iorya" unicode="&#xb07;" horiz-adv-x="1532" 
d="M612 263q-68 -89 -184 -89q-126 0 -196 91t-70 263q0 68 14 124q-110 144 -110 333q0 167 78.5 298t227.5 202t351 71q342 0 531.5 -174t189.5 -483q0 -217 -101 -404l205 -233l-219 -154l-248 328q113 174 113 424q0 218 -122.5 339t-348.5 121q-197 0 -306.5 -95.5
t-109.5 -252.5q0 -70 23 -123q50 21 106 21q110 0 175 -88q67 88 184 88q73 0 132 -35.5t95.5 -114.5t36.5 -198q0 -165 -69 -256.5t-195 -91.5q-116 0 -183 89zM440 665q-73 0 -73 -141q0 -146 69 -146q74 0 74 142q0 145 -70 145zM782 665q-73 0 -73 -141q0 -146 69 -146
q74 0 74 142q0 145 -70 145z" />
    <glyph glyph-name="iiorya" unicode="&#xb08;" horiz-adv-x="1550" 
d="M630 263q-68 -89 -184 -89q-126 0 -196 91t-70 263q0 26 2 52q-121 127 -121 308q0 131 69.5 230t194.5 140q85 148 220.5 223t316.5 75q174 0 311.5 -78t213 -224.5t75.5 -338.5q0 -233 -104 -420l205 -233l-220 -154l-247 328q116 177 116 452q0 194 -100 316.5
t-260 122.5q-125 0 -204 -62q126 -32 212 -119l-151 -145q-51 43 -96.5 60.5t-96.5 17.5q-103 0 -163 -56t-60 -147q0 -33 7 -55q66 49 155 49q110 0 174 -88q68 88 184 88q122 0 193 -91t71 -257q0 -165 -69 -256.5t-195 -91.5q-116 0 -183 89zM801 665q-74 0 -74 -141
q0 -146 70 -146q38 0 55.5 34.5t17.5 107.5q0 145 -69 145zM459 665q-74 0 -74 -141q0 -146 70 -146q38 0 55.5 34.5t17.5 107.5q0 145 -69 145z" />
    <glyph glyph-name="uorya" unicode="&#xb09;" horiz-adv-x="1520" 
d="M842 917l166 -164l-68 -59q88 -82 88 -209q0 -138 -104 -226.5t-291 -88.5q-190 0 -302 99.5t-112 274.5q0 35 4 55q-74 74 -115.5 174t-41.5 212q0 166 77.5 297t225 202.5t348.5 71.5q339 0 527 -175t188 -482q0 -217 -101 -404l205 -233l-219 -154l-248 328
q113 174 113 424q0 217 -121 338.5t-344 121.5q-195 0 -302.5 -94.5t-107.5 -253.5q0 -84 35 -147q50 52 111 92l131 -162q-64 -36 -98.5 -86t-34.5 -119q0 -79 49.5 -127.5t132.5 -48.5q85 0 125.5 29.5t40.5 75.5q0 42 -30 66l-85 -74l-154 149z" />
    <glyph glyph-name="uuorya" unicode="&#xb0a;" horiz-adv-x="1548" 
d="M842 917l166 -164l-68 -59q88 -82 88 -209q0 -138 -104 -226.5t-291 -88.5q-190 0 -302 99.5t-112 274.5q0 36 4 56q-76 77 -116.5 181t-40.5 222q0 158 78.5 285.5t224 197.5t338.5 70q303 0 465.5 -157t162.5 -449q0 -31 -4 -56q90 -29 136 -92.5t46 -152.5
q0 -158 -149 -232l145 -159l-215 -150l-225 303l76 127q135 13 135 107q0 51 -38 75.5t-122 24.5h-57q27 84 27 186q0 389 -388 389q-187 0 -291 -94t-104 -243q0 -92 35 -158q44 47 111 92l131 -162q-64 -36 -98.5 -86t-34.5 -119q0 -79 49.5 -127.5t132.5 -48.5
q85 0 125.5 29.5t40.5 75.5q0 42 -30 66l-85 -74l-154 149z" />
    <glyph glyph-name="rvocalicorya" unicode="&#xb0b;" horiz-adv-x="1511" 
d="M1026 745q27 77 27 186q0 190 -95.5 289.5t-275.5 99.5q-173 0 -274 -95t-101 -242q0 -117 62 -201q102 88 258 88q102 0 186.5 -44.5t131 -124.5t46.5 -181q0 -157 -100.5 -253.5t-267.5 -96.5q-102 0 -185.5 39t-133.5 118.5t-50 192.5q0 25 3 49q-92 78 -141.5 191
t-49.5 243q0 156 77 283.5t218.5 198.5t328.5 71q290 0 449 -159t159 -447q0 -24 -3 -56q87 -29 134.5 -92.5t47.5 -152.5q0 -158 -150 -232l146 -159l-216 -150l-225 303l76 127q135 13 135 107q0 51 -38 75.5t-122 24.5h-57zM623 661q-66 0 -102 -38t-36 -103
q0 -69 37.5 -105.5t100.5 -36.5q62 0 99.5 38.5t37.5 103.5q0 66 -36.5 103.5t-100.5 37.5z" />
    <glyph glyph-name="lvocalicorya" unicode="&#xb0c;" horiz-adv-x="1161" 
d="M391 1083l-229 -64q-17 36 -29 85.5t-12 86.5q0 168 115.5 266.5t291.5 98.5q188 0 299 -94.5t111 -257.5q0 -84 -19.5 -140t-57 -101t-101.5 -85.5t-156 -71.5l-26 -8q-160 -49 -214.5 -101.5t-54.5 -129.5q0 -81 55 -126t169 -57q-31 73 -31 144q0 127 88.5 208
t234.5 81q142 0 227 -84.5t85 -223.5q0 -152 -134.5 -245.5t-386.5 -93.5q-276 0 -417.5 106t-141.5 291q0 310 408 436l27 8q63 19 109.5 44.5t68.5 59t22 87.5q0 63 -39.5 99t-117.5 36q-62 0 -101 -22.5t-54 -55t-15 -68.5q0 -60 26 -108zM760 390q162 28 162 140
q0 42 -25.5 68t-67.5 26q-53 0 -82.5 -32t-29.5 -85q0 -62 43 -117z" />
    <glyph glyph-name="eorya" unicode="&#xb0f;" horiz-adv-x="1425" 
d="M1311 190h-314q-201 131 -475 378.5t-522 518.5l197 166q186 -219 431 -445.5t440 -355.5q-3 83 -3 164v689q-71 -20 -133.5 -67t-97.5 -113q79 -33 79 -134q0 -64 -42.5 -100.5t-118.5 -36.5q-79 0 -128 51.5t-49 138.5q0 108 65 211.5t182 178.5t261 102h228v-1346z
" />
    <glyph glyph-name="aiorya" unicode="&#xb10;" horiz-adv-x="1892" 
d="M1311 1032q39 -15 86 -15q71 0 135 45v539q59 36 88 69.5t29 71.5q0 88 -101 88q-31 0 -77.5 -10.5t-137.5 -37.5q-163 -48 -260 -48q-133 0 -204.5 50t-120.5 147l182 106q27 -47 64.5 -69.5t97.5 -22.5q43 0 92 11t137 37q160 48 287 48q144 0 214 -58.5t70 -160.5
q0 -67 -25 -123t-89 -116v-1393h-246v622q-68 -36 -135 -36q-45 0 -86 13v-599h-314q-201 131 -475 378.5t-522 518.5l197 166q186 -219 431 -445.5t440 -355.5q-3 83 -3 164v689q-71 -20 -133.5 -67t-97.5 -113q79 -33 79 -134q0 -64 -42.5 -100.5t-118.5 -36.5
q-79 0 -128 51.5t-49 138.5q0 108 65 211.5t182 178.5t261 102h228v-504z" />
    <glyph glyph-name="oorya" unicode="&#xb13;" horiz-adv-x="1407" 
d="M604 897q98 46 187 77q130 47 185 78.5t81 67.5t26 86q0 57 -38 94t-105 37q-74 0 -114 -34.5t-40 -102.5q0 -55 25 -105l-231 -51q-39 77 -39 174q0 156 111 247t284 91q186 0 289.5 -90t103.5 -229q0 -110 -50.5 -190.5t-146.5 -138.5q109 -44 163.5 -130t54.5 -191
q0 -199 -137 -308t-406 -109q-165 0 -299.5 49.5t-230 147t-145.5 237t-50 313.5q0 246 105.5 465t306.5 381l172 -187q-169 -121 -252.5 -280.5t-83.5 -370.5q0 -240 124.5 -383t352.5 -143q144 0 219.5 52t75.5 140q0 79 -49.5 122.5t-145.5 43.5q-101 0 -202 -51z" />
    <glyph glyph-name="auorya" unicode="&#xb14;" horiz-adv-x="1870" 
d="M604 897q98 46 187 77q130 47 185 78.5t81 67.5t26 86q0 57 -38 94t-105 37q-74 0 -114 -34.5t-40 -102.5q0 -55 25 -105l-231 -51q-39 77 -39 174q0 156 111 247t284 91q186 0 289.5 -90t103.5 -229q0 -110 -50.5 -190.5t-146.5 -138.5q53 -20 94 -54q36 -22 71 -32.5
t96 -10.5q62 0 116 32v758q59 36 88 69.5t29 71.5q0 88 -100 88q-32 0 -78.5 -10.5t-136.5 -37.5q-164 -48 -260 -48q-135 0 -206.5 51t-119.5 146l182 106q27 -47 64.5 -69.5t97.5 -22.5q41 0 90.5 11t138.5 37q160 48 287 48q145 0 215 -58.5t70 -160.5q0 -65 -24 -120.5
t-91 -118.5v-1393h-246v406q-60 -27 -116 -27q-21 0 -44 3q-6 -197 -143.5 -299.5t-398.5 -102.5q-165 0 -299.5 49.5t-230 147t-145.5 237t-50 313.5q0 246 105.5 465t306.5 381l172 -187q-169 -121 -252.5 -280.5t-83.5 -370.5q0 -240 124.5 -383t352.5 -143
q144 0 219.5 52t75.5 140q0 79 -49.5 122.5t-145.5 43.5q-101 0 -202 -51z" />
    <glyph glyph-name="kaorya" unicode="&#xb15;" horiz-adv-x="1475" 
d="M1143 798q16 69 16 148q0 167 -117 270.5t-309 103.5q-126 0 -223.5 -43.5t-150 -119t-52.5 -160.5q0 -82 18 -126q65 46 158 46q53 0 101 -23.5t82 -72.5q41 51 90 73.5t116 22.5q81 0 142.5 -31t98 -87.5t36.5 -145.5v-463h-240v367q0 63 -4.5 88.5t-20.5 41t-46 15.5
q-31 0 -47 -16t-21.5 -44t-5.5 -90v-362h-240v117q-24 -6 -57 -6q-115 0 -192.5 83.5t-77.5 231.5q0 31 2 43q-133 124 -133 342q0 155 83 284.5t234.5 200t349.5 70.5q204 0 357 -68.5t236 -204t83 -325.5q0 -109 -27 -227zM481 712q-80 0 -80 -100q0 -55 22.5 -83
t57.5 -28q37 0 58.5 27t21.5 76q0 53 -22 80.5t-58 27.5z" />
    <glyph glyph-name="khaorya" unicode="&#xb16;" horiz-adv-x="1487" 
d="M249 596q-183 162 -183 409q0 152 75 278t213 197.5t316 71.5q46 0 92 -4l170 -72q-60 -93 -60 -192q0 -71 38.5 -107.5t103.5 -36.5q70 0 112 38v358h246v-1346h-246v760q-54 -19 -122 -19q-157 0 -258 92.5t-101 247.5q0 31 2 45q-157 -13 -248.5 -104t-91.5 -215
q0 -120 65 -204q97 77 238 77q98 0 181.5 -38.5t135.5 -119t52 -192.5q0 -157 -101 -253.5t-268 -96.5q-164 0 -266 94t-102 256q0 45 7 76zM610 661q-65 0 -101 -38t-36 -103q0 -69 38 -105.5t99 -36.5q63 0 100.5 39t37.5 103q0 66 -37 103.5t-101 37.5z" />
    <glyph glyph-name="gaorya" unicode="&#xb17;" horiz-adv-x="1464" 
d="M1104 190v919q-163 211 -418 211q-111 0 -197 -42.5t-134 -118.5t-48 -162q0 -120 65 -204q97 77 238 77q98 0 181.5 -38.5t135.5 -119t52 -192.5q0 -157 -101 -253.5t-268 -96.5q-164 0 -266 94t-102 256q0 45 7 76q-183 162 -183 409q0 153 77.5 281t215 199t309.5 71
q132 0 235.5 -36.5t203.5 -119.5l-3 136h246v-1346h-246zM610 661q-65 0 -101 -38t-36 -103q0 -69 38 -105.5t99 -36.5q63 0 100.5 39t37.5 103q0 66 -37 103.5t-101 37.5z" />
    <glyph glyph-name="ghaorya" unicode="&#xb18;" horiz-adv-x="1448" 
d="M1096 190v31q-59 -51 -133 -51q-117 0 -170 101q-76 -101 -218 -101q-146 0 -231.5 91.5t-85.5 243.5q0 41 5 79q-197 163 -197 421q0 151 75.5 279t214 200t312.5 72q124 0 224.5 -37.5t198.5 -118.5l-4 136h246v-1346h-237zM365 803q50 61 133 120l151 -155
q-160 -106 -160 -250q0 -61 25.5 -98t73.5 -37q49 0 69.5 31t20.5 100v145h240v-158q0 -60 17.5 -89t61.5 -29q30 0 51 16t39 41v670q-165 210 -405 210q-110 0 -194.5 -41.5t-132.5 -117.5t-48 -164q0 -114 58 -194z" />
    <glyph glyph-name="ngaorya" unicode="&#xb19;" horiz-adv-x="1583" 
d="M856 917l166 -164l-68 -59q88 -82 88 -209q0 -138 -103.5 -226.5t-291.5 -88.5q-122 0 -215.5 43t-146 128t-52.5 203q0 35 4 55q-83 78 -127 181t-44 221q0 160 76.5 287.5t221.5 197.5t343 70q189 0 331 -63q76 43 181 43q88 0 163 -35.5t119.5 -106t44.5 -168.5
q0 -138 -89.5 -223.5t-237.5 -85.5q-146 0 -237 83t-91 226q0 32 5 64q-81 30 -194 30q-189 0 -292 -91.5t-103 -241.5q0 -97 43 -168q41 46 117 98l131 -162q-64 -36 -98.5 -86t-34.5 -119q0 -79 49.5 -127.5t132.5 -48.5q85 0 125.5 29.5t40.5 75.5q0 42 -30 66l-85 -74
l-153 149zM1219 1343q-54 0 -83.5 -32t-29.5 -85q0 -58 29.5 -87t83.5 -29q51 0 81.5 32t30.5 84q0 54 -30 85.5t-82 31.5z" />
    <glyph glyph-name="caorya" unicode="&#xb1a;" horiz-adv-x="1366" 
d="M257 568q-191 164 -191 435q0 157 74 284.5t212.5 198t325.5 70.5q298 0 460 -154t162 -434q0 -168 -57 -313l-235 84q25 65 34 113t9 106q0 167 -99.5 264.5t-277.5 97.5q-171 0 -269 -94.5t-98 -238.5q0 -126 61 -206q102 89 259 89q102 0 186.5 -44.5t131 -124.5
t46.5 -181q0 -157 -100.5 -253.5t-267.5 -96.5q-102 0 -185.5 39t-133.5 118.5t-50 192.5q0 24 3 48zM623 661q-66 0 -102 -38t-36 -103q0 -69 37.5 -105.5t100.5 -36.5q62 0 99.5 38.5t37.5 103.5q0 66 -36.5 103.5t-100.5 37.5z" />
    <glyph glyph-name="chaorya" unicode="&#xb1b;" horiz-adv-x="1391" 
d="M658 298q-77 -74 -142.5 -101t-142.5 -27q-129 0 -205 67t-76 180q0 84 66 144q-50 4 -72 4l35 172q107 -7 201 -64q-5 18 -7 34q-129 70 -189 164t-60 222q0 130 72 237t208 166.5t322 59.5q320 0 488.5 -155t168.5 -449q0 -96 -20 -180l-244 57q14 69 14 121
q0 170 -107.5 270t-303.5 100q-121 0 -203 -36t-119 -92t-37 -119q0 -92 56 -148q46 70 124 109t177 39q159 0 256.5 -89.5t97.5 -244.5q0 -46 -12 -84q105 -15 165 -80.5t60 -159.5q0 -110 -76 -177.5t-207 -67.5q-83 0 -147.5 28t-140.5 100zM662 606q66 0 99.5 36.5
t33.5 96.5q0 64 -35.5 98.5t-97.5 34.5q-63 0 -98.5 -36.5t-35.5 -96.5q0 -63 35.5 -98t98.5 -35zM785 435q41 -42 72 -58.5t73 -16.5q41 0 65.5 19t24.5 53t-24.5 53.5t-69.5 19.5q-66 0 -141 -70zM531 430q-44 43 -75.5 59t-66.5 16q-40 0 -64 -17.5t-24 -55.5
q0 -32 24 -52t66 -20q35 0 66 15t74 55z" />
    <glyph glyph-name="jaorya" unicode="&#xb1c;" horiz-adv-x="1475" 
d="M823 475q0 -146 -81 -225.5t-228 -79.5q-157 0 -249.5 92.5t-92.5 253.5q0 63 21 126q-127 141 -127 359q0 158 82.5 286.5t234.5 198.5t350 70q322 0 499 -154t177 -434q0 -120 -27 -237l-239 67q16 68 16 160q0 165 -115.5 263.5t-310.5 98.5q-133 0 -230.5 -45
t-146.5 -122.5t-49 -174.5q0 -80 24 -133q41 39 89 72l131 -162q-148 -86 -148 -246q0 -65 28 -101t81 -36q72 0 92 63q-82 65 -82 167q0 123 101.5 195.5t283.5 72.5q45 0 108.5 -5t98.5 -11v-664h-227v475h-15q-50 0 -84 -22t-34 -62q0 -30 15 -51.5t54 -38.5v-16z" />
    <glyph glyph-name="jhaorya" unicode="&#xb1d;" horiz-adv-x="1425" 
d="M1167 170l-263 124q-104 -124 -294 -124q-164 0 -266 94t-102 256q0 45 7 76q-183 162 -183 409q0 152 75 278t213 197.5t316 71.5q46 0 92 -4l170 -72q-60 -93 -60 -192q0 -71 37 -107.5t101 -36.5q63 0 100 38t37 106q0 84 -55 159l213 97q84 -109 84 -258
q0 -156 -103 -253.5t-274 -97.5q-104 0 -187.5 39t-131.5 116t-48 183q0 25 3 47q-157 -13 -249 -104t-92 -215q0 -120 65 -204q97 77 238 77q98 0 181.5 -38.5t135.5 -119t52 -192.5v-8q-1 -4 -1 -8l279 -101zM610 661q-65 0 -101 -38t-36 -103q0 -69 38 -105.5t99 -36.5
q63 0 100.5 39t37.5 103q0 66 -37 103.5t-101 37.5z" />
    <glyph glyph-name="nyaorya" unicode="&#xb1e;" horiz-adv-x="1499" 
d="M1268 943q80 -36 123 -110.5t43 -175.5q0 -234 -180 -360.5t-502 -126.5q-333 0 -505.5 142t-172.5 394q0 178 100 338q-61 105 -61 236q0 140 69 276l217 -68q-53 -96 -53 -198q0 -152 103.5 -221.5t316.5 -69.5q408 0 408 223q0 60 -25.5 91.5t-69.5 31.5
q-31 0 -50 -12t-28.5 -36t-9.5 -83v-98h-203v88q0 61 -4 87t-20 40t-43 14q-33 0 -50.5 -22t-17.5 -58q0 -54 23 -121l-203 -47q-39 115 -39 201q0 116 67 187t173 71q70 0 118 -23t97 -84q45 55 100 81t133 26q130 0 209.5 -87t79.5 -226q0 -196 -143 -300zM450 836
q-57 18 -104 44q-39 -77 -39 -170q0 -162 111.5 -240.5t335.5 -78.5q217 0 327.5 69.5t110.5 200.5q0 147 -98 147q-45 0 -69 -27.5t-24 -109.5v-133h-202v117q0 55 -4.5 78.5t-21.5 40t-48 16.5q-38 0 -60 -25.5t-22 -68.5q0 -61 23 -129l-203 -45q-39 108 -39 192
q0 70 26 122z" />
    <glyph glyph-name="ttaorya" unicode="&#xb1f;" horiz-adv-x="1430" 
d="M1083 923v182q-163 215 -403 215q-168 0 -270.5 -94t-102.5 -229q0 -124 70 -210q99 83 246 83q161 0 264.5 -95.5t103.5 -254.5q0 -157 -100.5 -253.5t-267.5 -96.5q-102 0 -185.5 39t-133.5 118.5t-50 192.5q0 34 5 66q-193 160 -193 431q0 144 75 268.5t210.5 197.5
t303.5 73q126 0 223.5 -34.5t208.5 -125.5l-4 140h246v-613h-246zM623 661q-66 0 -102 -38t-36 -103q0 -69 37.5 -105.5t100.5 -36.5q62 0 99.5 38.5t37.5 103.5q0 66 -36.5 103.5t-100.5 37.5z" />
    <glyph glyph-name="tthaorya" unicode="&#xb20;" horiz-adv-x="1520" 
d="M760 170q-319 0 -501.5 186t-182.5 506q0 210 84 368.5t238.5 242t361.5 83.5q211 0 365 -83.5t236.5 -242t82.5 -368.5q0 -326 -181.5 -509t-502.5 -183zM760 1320q-197 0 -312.5 -125t-115.5 -333q0 -215 113 -336t315 -121q199 0 313.5 123.5t114.5 333.5
q0 212 -115.5 335t-312.5 123z" />
    <glyph glyph-name="ddaorya" unicode="&#xb21;" horiz-adv-x="1423" 
d="M856 917l166 -164l-68 -59q88 -82 88 -209q0 -138 -103.5 -226.5t-291.5 -88.5q-122 0 -215.5 43t-146 128t-52.5 203q0 35 4 55q-80 75 -125.5 178.5t-45.5 225.5q0 158 76.5 285.5t221.5 197.5t343 70q207 0 353 -68t222 -200t76 -320q0 -95 -21 -193t-57 -163
l-223 106q51 115 51 240q0 173 -105 267.5t-301 94.5q-189 0 -292 -91.5t-103 -241.5q0 -97 43 -168q41 46 117 98l131 -162q-64 -36 -98.5 -86t-34.5 -119q0 -79 49.5 -127.5t132.5 -48.5q85 0 125.5 29.5t40.5 75.5q0 42 -30 66l-85 -74l-153 149z" />
    <glyph glyph-name="ddhaorya" unicode="&#xb22;" horiz-adv-x="1411" 
d="M1051 735q45 110 45 223q0 172 -103.5 267t-296.5 95q-183 0 -286 -94t-103 -239q0 -102 40 -172q49 55 120 102l131 -162q-64 -36 -98.5 -86t-34.5 -119q0 -80 46 -128t122 -57q-78 87 -78 181q0 103 70 166.5t188 63.5q129 0 200.5 -71t71.5 -183q0 -116 -71 -204
q26 -11 110 -40l-106 -184q-128 73 -172 103q-82 -27 -180 -27q-200 0 -316.5 99.5t-116.5 274.5q0 22 2 43q-169 162 -169 416q0 159 77 287t220 197t337 69q311 0 478.5 -153t167.5 -435q0 -89 -18.5 -181t-49.5 -155zM830 408q57 41 57 106q0 40 -19 62t-55 22
q-29 0 -47 -21t-18 -51q0 -62 82 -118z" />
    <glyph glyph-name="nnaorya" unicode="&#xb23;" horiz-adv-x="1438" 
d="M1077 190v937q-80 99 -178.5 151.5t-202.5 52.5q-77 0 -123.5 -32t-46.5 -89v-6q27 4 74 4q166 0 305 -76l-104 -180q-93 41 -201 41q-122 0 -193.5 -52.5t-87.5 -154.5q105 25 222 25q180 0 293.5 -82.5t113.5 -235.5q0 -155 -98.5 -239t-290.5 -84q-137 0 -250 61
t-174 180.5t-61 290.5q0 148 57 258.5t165 173.5q-9 43 -9 88q0 147 108 240.5t287 93.5q219 0 398 -148l-3 128h246v-1346h-246zM322 585q16 -96 74 -147t153 -51q58 0 93 15.5t49 38.5t14 50q0 56 -47.5 85.5t-129.5 29.5q-113 0 -206 -21z" />
    <glyph glyph-name="taorya" unicode="&#xb24;" horiz-adv-x="1411" 
d="M1063 763q33 97 33 195q0 172 -103.5 267t-296.5 95q-183 0 -286 -94t-103 -239q0 -102 40 -172q49 55 120 102l131 -162q-133 -76 -133 -200q0 -80 47.5 -130.5t130.5 -50.5q87 0 136.5 50.5t49.5 132.5q0 23 -7 54q-16 -5 -34 -5q-122 0 -122 129q0 61 40 98t109 37
q108 0 177 -86t69 -225q0 -106 -51 -197.5t-146.5 -141.5t-226.5 -50q-122 0 -213 43.5t-141 128t-50 202.5q0 22 2 43q-169 162 -169 416q0 159 77 287t220 197t337 69q311 0 478.5 -153t167.5 -435q0 -74 -13 -152.5t-35 -136.5z" />
    <glyph glyph-name="thaorya" unicode="&#xb25;" horiz-adv-x="1419" 
d="M1059 709v827h246v-1346h-246l4 210q-109 -113 -247 -171.5t-296 -58.5q-149 0 -252 46t-157 137t-54 214q0 310 408 436l27 8q63 19 109.5 44.5t68.5 59t22 87.5q0 63 -39.5 99t-117.5 36q-62 0 -101 -22.5t-54 -55t-15 -68.5q0 -60 26 -108l-229 -64q-17 36 -29 85.5
t-12 86.5q0 168 115.5 266.5t291.5 98.5q188 0 299 -94.5t111 -257.5q0 -84 -19.5 -140t-57 -101t-101.5 -85.5t-156 -71.5l-26 -8q-162 -50 -216.5 -101t-54.5 -130q0 -81 57 -124.5t162 -43.5q306 0 533 310z" />
    <glyph glyph-name="daorya" unicode="&#xb26;" horiz-adv-x="1411" 
d="M1044 718q52 114 52 240q0 172 -103.5 267t-296.5 95q-118 0 -205.5 -41.5t-135.5 -118.5t-48 -173q0 -101 39 -171q49 53 119 101l131 -162q-56 -33 -82.5 -65.5t-26.5 -81.5q0 -48 30.5 -75.5t82.5 -27.5q49 0 87.5 19.5t74.5 55.5v274h239v-664h-239v171
q-81 -58 -178 -58q-137 0 -224 69t-102 194q-192 165 -192 437q0 159 77 287t220 197t337 69q311 0 478.5 -153t167.5 -435q0 -97 -21 -193t-57 -163z" />
    <glyph glyph-name="dhaorya" unicode="&#xb27;" horiz-adv-x="1290" 
d="M1176 1536v-1346h-246l2 112q-153 -132 -363 -132q-154 0 -269 59.5t-176 167.5t-61 250q0 137 71.5 254t206.5 193l-243 313l217 151l525 -704l-201 -142l-154 197q-69 -39 -108 -81.5t-53.5 -86t-14.5 -102.5q0 -110 70.5 -175t195.5 -65q225 0 355 203v934h246z" />
    <glyph glyph-name="naorya" unicode="&#xb28;" horiz-adv-x="1411" 
d="M1044 718q30 71 41 126t11 114q0 172 -103.5 267t-296.5 95q-183 0 -286 -94t-103 -239q0 -80 23 -137.5t74 -108.5q163 129 413 129q101 0 176 -16v-664h-239v447q-213 -15 -279 -191q84 -28 84 -127q0 -70 -41.5 -106.5t-118.5 -36.5q-81 0 -126.5 51.5t-45.5 132.5
q0 106 39 200q-200 165 -200 443q0 159 77 287t220 197t337 69q311 0 478.5 -153t167.5 -435q0 -98 -20.5 -191t-57.5 -165z" />
    <glyph glyph-name="paorya" unicode="&#xb2a;" horiz-adv-x="1448" 
d="M1087 190l2 117q-145 -137 -358 -137q-191 0 -302 98.5t-119 280.5q-244 169 -244 456q0 151 75.5 279t214 200t312.5 72q124 0 224.5 -37.5t198.5 -118.5l-4 136h246v-1346h-246zM1087 623v487q-165 210 -403 210q-112 0 -197.5 -43t-132.5 -118.5t-47 -161.5
q0 -123 70 -209q41 67 121 135l157 -149q-60 -44 -89 -92t-29 -111q0 -76 54 -124t148 -48q111 0 194.5 52.5t153.5 171.5z" />
    <glyph glyph-name="phaorya" unicode="&#xb2b;" horiz-adv-x="1772" 
d="M1087 190l2 117q-145 -137 -358 -137q-191 0 -302 98.5t-119 280.5q-244 169 -244 456q0 152 76 280t214 199.5t310 71.5q125 0 226 -37t199 -119l-4 136h242l-1 -25q53 25 116 25q125 0 208 -79.5t83 -211.5q0 -127 -82.5 -208t-212.5 -81q-62 0 -107 19v-785h-246z
M1425 1347q-47 0 -73.5 -27.5t-26.5 -74.5q0 -49 26 -75t74 -26q47 0 74 27.5t27 73.5q0 47 -27.5 74.5t-73.5 27.5zM1087 623v487q-164 210 -403 210q-112 0 -197.5 -43t-132.5 -118.5t-47 -161.5q0 -126 72 -206q47 74 119 132l157 -149q-60 -44 -89 -92t-29 -111
q0 -76 54 -124t148 -48q111 0 194.5 52.5t153.5 171.5z" />
    <glyph glyph-name="baorya" unicode="&#xb2c;" horiz-adv-x="1395" 
d="M743 190v129q-51 -18 -116 -18q-128 0 -221 64t-115 181q-225 169 -225 455q0 162 76.5 289t219 196.5t332.5 69.5q199 0 341.5 -67.5t218 -200t75.5 -320.5q0 -94 -20.5 -190t-57.5 -166l-223 106q51 110 51 240q0 171 -101.5 266.5t-287.5 95.5q-180 0 -281.5 -93
t-101.5 -240q0 -107 48 -183q100 113 290 113q95 0 171 -33t121.5 -104.5t45.5 -177.5v-412h-240zM635 712q-59 0 -91 -26.5t-32 -77.5t33.5 -78t91.5 -27t90.5 27.5t32.5 75.5q0 50 -32.5 78t-92.5 28z" />
    <glyph glyph-name="bhaorya" unicode="&#xb2d;" horiz-adv-x="1554" 
d="M813 430q-115 5 -183.5 72t-68.5 188q0 88 35 180l207 -29q-23 -80 -23 -135q0 -100 80 -100h5l1 14v234h219v-246q0 -138 -52 -236.5t-150.5 -150t-218.5 -51.5q-130 0 -230 47t-156.5 139.5t-56.5 220.5v12q0 5 1 11q-75 75 -115.5 175.5t-40.5 209.5q0 167 78.5 298
t229.5 202t359 71q235 0 400 -80t249 -228t84 -349q0 -216 -100 -404l205 -233l-219 -154l-248 328q113 174 113 424q0 218 -124 339t-356 121q-207 0 -318.5 -93t-111.5 -255q0 -73 25 -127q24 30 67 72l152 -143q-53 -46 -80 -96.5t-27 -114.5q0 -90 59 -142.5t159 -52.5
q103 0 151 62z" />
    <glyph glyph-name="maorya" unicode="&#xb2e;" horiz-adv-x="1448" 
d="M858 716q-268 -66 -382 -266q40 -14 62.5 -50t22.5 -83q0 -65 -43.5 -103t-109.5 -38q-84 0 -133.5 54.5t-49.5 141.5q0 100 50 202q-209 165 -209 431q0 151 75.5 279t214 200t312.5 72q124 0 224.5 -37.5t198.5 -118.5l-4 136h246v-1346h-246v920q-165 210 -403 210
q-112 0 -197.5 -43t-132.5 -118.5t-47 -161.5q0 -73 24 -130.5t84 -112.5q156 140 353 177z" />
    <glyph glyph-name="yaorya" unicode="&#xb2f;" horiz-adv-x="1536" 
d="M1176 190l1 116q-145 -136 -356 -136q-197 0 -303.5 97t-113.5 280q-48 -41 -91 -83q45 -41 45 -112q0 -65 -43.5 -103.5t-109.5 -38.5q-82 0 -128 46.5t-46 123.5q0 48 18 88.5t66.5 90t143.5 121.5q-105 139 -105 325q0 151 75.5 279t214 200t312.5 72q121 0 222 -36.5
t201 -119.5l-3 136h245v-1346h-245zM748 763q-123 -72 -123 -192q0 -77 54 -124.5t148 -47.5q114 0 197.5 54t151.5 172v484q-163 211 -404 211q-112 0 -197.5 -43t-132.5 -118.5t-47 -161.5q0 -106 50 -183l171 117z" />
    <glyph glyph-name="raorya" unicode="&#xb30;" horiz-adv-x="1475" 
d="M246 578q-85 75 -132.5 181.5t-47.5 225.5q0 165 77 296.5t219.5 203t333.5 71.5q216 0 372.5 -80t238.5 -228.5t82 -348.5q0 -217 -101 -404l203 -233l-219 -154l-246 328q113 168 113 424q0 211 -118.5 335.5t-322.5 124.5q-180 0 -285.5 -96.5t-105.5 -251.5
q0 -107 59 -184q98 82 248 82q158 0 261.5 -95t103.5 -255q0 -157 -101 -253.5t-268 -96.5q-164 0 -266 94t-102 256q0 36 4 58zM610 661q-65 0 -101 -38t-36 -103q0 -69 38 -105.5t99 -36.5q63 0 100.5 39t37.5 103q0 66 -37 103.5t-101 37.5z" />
    <glyph glyph-name="laorya" unicode="&#xb32;" horiz-adv-x="1616" 
d="M680 831q34 40 84 63t106 23q83 0 142 -37t87.5 -93.5t28.5 -168.5v-428h-227v397q0 70 -15.5 92.5t-45.5 22.5q-31 0 -47.5 -26t-16.5 -89v-397h-227v416q0 96 -55 96q-78 0 -78 -172q0 -155 39 -315l-219 -41q-50 192 -50 383q0 40 5 76q-125 147 -125 376
q0 158 81 284t238.5 194.5t374.5 68.5q370 0 569 -176t199 -490q0 -215 -101 -395l205 -233l-219 -154l-248 328q113 174 113 416q0 225 -131.5 346.5t-382.5 121.5q-220 0 -339.5 -94t-119.5 -254q0 -65 16 -109q74 54 166 54q60 0 106 -18.5t87 -67.5z" />
    <glyph glyph-name="llaorya" unicode="&#xb33;" horiz-adv-x="1475" 
d="M1141 798q16 69 16 148q0 167 -117 270.5t-309 103.5q-126 0 -223.5 -43.5t-150 -119t-52.5 -160.5q0 -90 23 -138q77 58 172 58q61 0 107 -19t85 -67q35 41 85.5 63.5t105.5 22.5q85 0 144.5 -38.5t86.5 -96.5t27 -164v-428h-228v397q0 70 -15.5 92.5t-45.5 22.5
q-64 0 -64 -115v-397h-227v416q0 51 -13 73.5t-42 22.5q-78 0 -78 -172q0 -155 39 -315l-219 -41q-49 187 -49 383q0 50 8 94q-141 128 -141 350q0 155 83 284.5t234.5 200t349.5 70.5q204 0 357 -68.5t236 -204t83 -325.5q0 -109 -27 -227z" />
    <glyph glyph-name="vaorya" unicode="&#xb35;" horiz-adv-x="1395" 
d="M1028 718q51 110 51 240q0 171 -101.5 266.5t-287.5 95.5q-180 0 -281.5 -93t-101.5 -240q0 -107 48 -183q100 113 290 113q95 0 171 -33t121.5 -104.5t45.5 -177.5v-412h-240v129q-51 -18 -116 -18q-128 0 -221 64t-115 181q-225 169 -225 455q0 162 76.5 289t219 196.5
t332.5 69.5q199 0 341.5 -67.5t218 -200t75.5 -320.5q0 -94 -20.5 -190t-57.5 -166zM635 735q-67 0 -105 -34t-38 -89q0 -65 38.5 -98t106.5 -33t105.5 33t37.5 92q0 62 -38.5 95.5t-106.5 33.5zM637 526q-36 0 -60 23t-24 59q0 35 24 58.5t60 23.5t60 -23.5t24 -58.5
q0 -37 -24 -59.5t-60 -22.5z" />
    <glyph glyph-name="shaorya" unicode="&#xb36;" horiz-adv-x="1479" 
d="M1118 190v937q-80 99 -178.5 151.5t-202.5 52.5q-48 0 -87 -13.5t-59 -38.5q159 -19 279 -131l-155 -147q-87 78 -189 78t-160.5 -55.5t-58.5 -147.5q0 -67 34 -118q107 112 280 112q161 0 264.5 -94.5t103.5 -255.5q0 -157 -100.5 -253.5t-267.5 -96.5q-102 0 -185.5 39
t-133.5 118.5t-50 192.5q-94 66 -142.5 160t-48.5 208q0 129 70 228.5t199 141.5q16 139 122.5 218.5t270.5 79.5q216 0 398 -148l-3 128h246v-1346h-246zM621 661q-69 0 -103.5 -39.5t-34.5 -101.5q0 -69 37.5 -105.5t100.5 -36.5q62 0 99.5 38.5t37.5 103.5
q0 66 -36.5 103.5t-100.5 37.5z" />
    <glyph glyph-name="ssaorya" unicode="&#xb37;" horiz-adv-x="1477" 
d="M1116 190l2 142q-153 -162 -389 -162q-188 0 -299.5 97t-119.5 281q-244 167 -244 457q0 152 76 280t214 199.5t310 71.5q132 0 236.5 -38.5t217.5 -131.5l-4 150h246v-1346h-246zM946 827q114 -153 170 -238v496q-91 122 -196 178.5t-238 56.5q-59 0 -101 -10
q21 -23 144 -186zM373 792q70 108 197 180l-85 113q-14 18 -93 127q-85 -88 -85 -215q0 -121 66 -205zM949 471l-248 328q-164 -86 -164 -228q0 -83 51.5 -129.5t138.5 -46.5q133 0 222 76z" />
    <glyph glyph-name="saorya" unicode="&#xb38;" horiz-adv-x="1438" 
d="M1077 190l-850 178l-55 139l112 104q-115 67 -166.5 160t-51.5 234q0 152 76 280t214 199.5t310 71.5q119 0 215 -32.5t199 -114.5l-3 127h246v-1346h-246zM544 540l533 -120v702q-159 198 -393 198q-112 0 -197.5 -43t-132.5 -118.5t-47 -161.5q0 -165 148 -227l209 194
l167 -178z" />
    <glyph glyph-name="haorya" unicode="&#xb39;" horiz-adv-x="1374" 
d="M733 356v132q-73 -54 -166 -54h-2l-93 -93l658 -100l-34 -209l-838 117l-82 174l177 190q-41 43 -59 95q-228 152 -228 420q0 145 75.5 268.5t213 191.5t317.5 68q303 0 470 -154.5t167 -433.5q0 -88 -17 -174t-47 -153l-229 96q43 103 43 221q0 168 -103.5 265
t-289.5 97q-109 0 -191 -39.5t-126 -110.5t-44 -149q0 -88 32 -141q47 65 128 121l123 -154q-45 -25 -68.5 -56t-23.5 -75q0 -41 26.5 -63.5t71.5 -22.5q77 0 139 73v235h230v-582h-230z" />
    <glyph glyph-name="nuktaorya" unicode="&#xb3c;" 
d="M-586 -263q-62 0 -108.5 45.5t-46.5 110.5q0 64 45.5 110t109.5 46t110 -45t46 -111q0 -69 -44.5 -112.5t-111.5 -43.5z" />
    <glyph glyph-name="avagrahaorya" unicode="&#xb3d;" horiz-adv-x="801" 
d="M776 395l-108 -225l-609 280v182l373 229l-373 228v182l609 285l108 -225l-391 -174l348 -213v-164l-347 -214z" />
    <glyph glyph-name="aavowelsignorya" unicode="&#xb3e;" horiz-adv-x="475" 
d="M360 1536v-1346h-245v1346h245z" />
    <glyph glyph-name="ivowelsignorya" unicode="&#xb3f;" 
d="M-1360 1724q284 270 635 270q345 0 635 -268l-143 -150q-130 113 -246 160t-248 47t-250.5 -50t-239.5 -159z" />
    <glyph glyph-name="iivowelsignorya" unicode="&#xb40;" horiz-adv-x="711" 
d="M596 1536v-1346h-246v1070l-219 -159l-135 197l366 238h234z" />
    <glyph glyph-name="uvowelsignorya" unicode="&#xb41;" 
d="M-359 20l1 22v148l243 43v-98q0 -164 -42 -265q28 -18 59.5 -30t68.5 -12q57 0 107 55l133 -135q-48 -58 -99 -84.5t-128 -26.5q-65 0 -119.5 22.5t-116.5 71.5q-61 -61 -138 -91t-181 -30q-136 0 -218.5 67.5t-82.5 184.5q0 116 74.5 183t191.5 67q72 0 126.5 -21.5
t120.5 -70.5zM-409 -135q-56 46 -92.5 63.5t-71.5 17.5q-45 0 -70 -22.5t-25 -63.5q0 -38 25.5 -61t73.5 -23q103 0 160 89z" />
    <glyph glyph-name="uuvowelsignorya" unicode="&#xb42;" 
d="M-115 -39h-53q-121 0 -166 -23t-45 -72q0 -44 30 -65t81 -21q144 0 262 174q57 -48 102.5 -74.5t83 -37t90.5 -10.5q31 0 60 10l35 -189q-37 -16 -99 -16q-61 0 -130.5 26.5t-125.5 72.5q-60 -63 -130.5 -94.5t-168.5 -31.5q-86 0 -156.5 30t-108.5 87.5t-38 138.5
q0 96 63 161.5t171 85.5v77l243 43v-272z" />
    <glyph glyph-name="rvocalicvowelsignorya" unicode="&#xb43;" 
d="M-162 26q69 33 146 33q68 0 116.5 -30t72.5 -78t24 -103q0 -111 -84 -174.5t-240 -63.5q-179 0 -277 78t-98 223q0 98 60.5 190.5t222.5 215.5l133 -147q-113 -84 -156 -138t-43 -123q0 -65 42.5 -100t115.5 -35q68 0 98.5 20.5t30.5 51.5q0 26 -16.5 39.5t-40.5 13.5
q-28 0 -54 -10z" />
    <glyph glyph-name="rrvocalicvowelsignorya" unicode="&#xb44;" 
d="M-72 -279l-53 129q65 29 143 29q66 0 115.5 -25.5t74.5 -68.5t25 -93q0 -103 -81 -160t-236 -57q-110 0 -193 28.5t-129.5 88t-46.5 145.5q0 141 127 216q-68 24 -103.5 67t-35.5 98q0 86 70.5 137.5t212.5 77.5l67 -143q-61 -8 -88.5 -23.5t-27.5 -50.5
q0 -32 30.5 -49.5t79.5 -17.5h25l-13 -158q-127 -28 -127 -125q0 -62 40.5 -96.5t113.5 -34.5q59 0 90 14.5t31 40.5q0 20 -15.5 30.5t-41.5 10.5q-28 0 -54 -10z" />
    <glyph glyph-name="evowelsignorya" unicode="&#xb47;" horiz-adv-x="995" 
d="M1036 1482l-106 -205q-87 43 -197 43q-183 0 -285 -100.5t-118 -302.5q101 18 192 18q139 0 250 -47.5t168 -138t57 -213.5q0 -179 -104 -272.5t-305 -93.5q-98 0 -185 33t-161 110t-117 212.5t-43 323.5q0 216 75.5 376.5t218.5 245.5t331 85t329 -74zM335 712
q17 -152 79.5 -233.5t167.5 -81.5q82 0 125 37t43 106q0 90 -68 137.5t-190 47.5q-75 0 -157 -13z" />
    <glyph glyph-name="aivowelsignorya" unicode="&#xb48;" horiz-adv-x="1802" 
d="M1036 1482l-106 -205q-87 43 -197 43q-183 0 -285 -100.5t-118 -302.5q101 18 192 18q139 0 250 -47.5t168 -138t57 -213.5q0 -179 -104 -272.5t-305 -93.5q-98 0 -185 33t-161 110t-117 212.5t-43 323.5q0 216 75.5 376.5t218.5 245.5t331 85t329 -74zM335 712
q17 -152 79.5 -233.5t167.5 -81.5q82 0 125 37t43 106q0 90 -68 137.5t-190 47.5q-75 0 -157 -13zM1501 1640q28 22 42.5 49.5t14.5 52.5q0 88 -100 88q-30 0 -74 -9.5t-142 -38.5q-164 -48 -261 -48q-134 0 -205.5 51t-118.5 146l182 106q27 -47 64.5 -69.5t97.5 -22.5
q42 0 91 10.5t138 37.5q161 48 287 48q140 0 212.5 -56.5t72.5 -162.5q0 -73 -30 -134.5t-97 -121.5zM1224 657q-62 0 -108.5 45.5t-46.5 110.5q0 64 45.5 110t109.5 46t110 -45t46 -111q0 -69 -44.5 -112.5t-111.5 -43.5z" />
    <glyph glyph-name="ovowelsignorya" unicode="&#xb4b;" horiz-adv-x="1880" 
d="M1036 1482l-106 -205q-87 43 -197 43q-183 0 -285 -100.5t-118 -302.5q101 18 192 18q139 0 250 -47.5t168 -138t57 -213.5q0 -179 -104 -272.5t-305 -93.5q-98 0 -185 33t-161 110t-117 212.5t-43 323.5q0 216 75.5 376.5t218.5 245.5t331 85t329 -74zM335 712
q17 -152 79.5 -233.5t167.5 -81.5q82 0 125 37t43 106q0 90 -68 137.5t-190 47.5q-75 0 -157 -13zM1765 1536v-1346h-245v1346h245zM1224 657q-62 0 -108.5 45.5t-46.5 110.5q0 64 45.5 110t109.5 46t110 -45t46 -111q0 -69 -44.5 -112.5t-111.5 -43.5z" />
    <glyph glyph-name="auvowelsignorya" unicode="&#xb4c;" horiz-adv-x="1880" 
d="M1036 1482l-106 -205q-87 43 -197 43q-183 0 -285 -100.5t-118 -302.5q101 18 192 18q139 0 250 -47.5t168 -138t57 -213.5q0 -179 -104 -272.5t-305 -93.5q-98 0 -185 33t-161 110t-117 212.5t-43 323.5q0 216 75.5 376.5t218.5 245.5t331 85t329 -74zM335 712
q17 -152 79.5 -233.5t167.5 -81.5q82 0 125 37t43 106q0 90 -68 137.5t-190 47.5q-75 0 -157 -13zM1520 190v1411q59 36 87.5 69.5t28.5 71.5q0 88 -100 88q-31 0 -77.5 -10.5t-137.5 -37.5q-163 -48 -260 -48q-135 0 -206.5 51t-119.5 146l183 106q26 -47 63.5 -69.5
t97.5 -22.5q42 0 91 10.5t138 37.5q161 48 287 48q140 0 212.5 -56.5t72.5 -162.5q0 -65 -24 -120.5t-91 -118.5v-1393h-245zM1224 657q-62 0 -108.5 45.5t-46.5 110.5q0 64 45.5 110t109.5 46t110 -45t46 -111q0 -69 -44.5 -112.5t-111.5 -43.5z" />
    <glyph glyph-name="viramaorya" unicode="&#xb4d;" 
d="M-387 16l186 137l283 -397l-166 -129z" />
    <glyph glyph-name="ailengthmarkorya" unicode="&#xb56;" 
d="M-301 1640q28 22 42.5 49.5t14.5 52.5q0 88 -100 88q-30 0 -74 -9.5t-142 -38.5q-164 -48 -261 -48q-134 0 -205.5 51t-118.5 146l182 106q27 -47 64.5 -69.5t97.5 -22.5q42 0 91 10.5t138 37.5q161 48 287 48q140 0 212.5 -56.5t72.5 -162.5q0 -73 -30 -134.5
t-97 -121.5z" />
    <glyph glyph-name="aulengthmarkorya" unicode="&#xb57;" horiz-adv-x="475" 
d="M115 190v1411q59 36 87.5 69.5t28.5 71.5q0 88 -100 88q-31 0 -77.5 -10.5t-137.5 -37.5q-163 -48 -260 -48q-135 0 -206.5 51t-119.5 146l183 106q26 -47 63.5 -69.5t97.5 -22.5q42 0 91 10.5t138 37.5q161 48 287 48q140 0 212.5 -56.5t72.5 -162.5q0 -65 -24 -120.5
t-91 -118.5v-1393h-245z" />
    <glyph glyph-name="rraorya" unicode="&#xb5c;" horiz-adv-x="1423" 
d="M856 917l166 -164l-68 -59q88 -82 88 -209q0 -138 -103.5 -226.5t-291.5 -88.5q-122 0 -215.5 43t-146 128t-52.5 203q0 35 4 55q-80 75 -125.5 178.5t-45.5 225.5q0 158 76.5 285.5t221.5 197.5t343 70q207 0 353 -68t222 -200t76 -320q0 -95 -21 -193t-57 -163
l-223 106q51 115 51 240q0 173 -105 267.5t-301 94.5q-189 0 -292 -91.5t-103 -241.5q0 -97 43 -168q41 46 117 98l131 -162q-64 -36 -98.5 -86t-34.5 -119q0 -79 49.5 -127.5t132.5 -48.5q85 0 125.5 29.5t40.5 75.5q0 42 -30 66l-85 -74l-153 149zM667 -263
q-62 0 -108.5 45.5t-46.5 110.5q0 64 45.5 110t109.5 46t110 -45t46 -111q0 -69 -44.5 -112.5t-111.5 -43.5z" />
    <glyph glyph-name="rhaorya" unicode="&#xb5d;" horiz-adv-x="1411" 
d="M1051 735q45 110 45 223q0 172 -103.5 267t-296.5 95q-183 0 -286 -94t-103 -239q0 -102 40 -172q49 55 120 102l131 -162q-64 -36 -98.5 -86t-34.5 -119q0 -80 46 -128t122 -57q-78 87 -78 181q0 103 70 166.5t188 63.5q129 0 200.5 -71t71.5 -183q0 -116 -71 -204
q26 -11 110 -40l-106 -184q-128 73 -172 103q-82 -27 -180 -27q-200 0 -316.5 99.5t-116.5 274.5q0 22 2 43q-169 162 -169 416q0 159 77 287t220 197t337 69q311 0 478.5 -153t167.5 -435q0 -89 -18.5 -181t-49.5 -155zM830 408q57 41 57 106q0 40 -19 62t-55 22
q-29 0 -47 -21t-18 -51q0 -62 82 -118zM686 -263q-62 0 -108.5 45.5t-46.5 110.5q0 64 45.5 110t109.5 46t110 -45t46 -111q0 -69 -44.5 -112.5t-111.5 -43.5z" />
    <glyph glyph-name="yyaorya" unicode="&#xb5f;" horiz-adv-x="1622" 
d="M403 541l-87 -80q42 -41 42 -109q0 -65 -43.5 -103.5t-109.5 -38.5q-82 0 -128 46.5t-46 121.5q0 52 19 92.5t68 90.5t141 119q-105 139 -105 325q0 151 75.5 279t214 200t312.5 72q121 0 222 -36.5t201 -119.5l-3 136h245v-917q95 -24 151 -92.5t56 -152.5
q0 -132 -113 -202l177 -43l-60 -215l-510 149l49 190l97 -22q127 6 127 92q0 39 -24 61.5t-64 22.5q-47 0 -87.5 -21.5t-99.5 -70.5q-100 -82 -175 -113.5t-173 -31.5q-166 0 -265 98t-104 273zM754 770q-129 -82 -129 -215q0 -69 39 -112.5t108 -43.5q47 0 96.5 18
t139.5 92q53 43 89.5 65t78.5 35v500q-163 211 -404 211q-112 0 -197.5 -43t-132.5 -118.5t-47 -161.5q0 -106 50 -183l171 117z" />
    <glyph glyph-name="rrvocalicorya" unicode="&#xb60;" horiz-adv-x="1518" 
d="M1108 639q71 3 103 20.5t32 54.5q0 35 -31 50.5t-100 15.5h-76q13 54 15 79.5t2 71.5q0 190 -95.5 289.5t-275.5 99.5q-173 0 -274 -95t-101 -242q0 -117 62 -201q102 88 258 88q102 0 186.5 -44.5t131 -124.5t46.5 -181q0 -157 -100.5 -253.5t-267.5 -96.5
q-102 0 -185.5 39t-133.5 118.5t-50 192.5q0 25 3 49q-92 78 -141.5 191t-49.5 243q0 156 77 283.5t218.5 198.5t328.5 71q290 0 449 -159t159 -447v-12q0 -7 -1 -14q88 -23 134 -74.5t46 -120.5q0 -66 -32 -108t-98 -67q130 -54 130 -167q0 -66 -36 -109.5t-112 -72.5
l127 -136l-215 -149l-209 282l76 125q72 3 103.5 20t31.5 54q0 32 -30 50t-80 18h-35zM623 661q-66 0 -102 -38t-36 -103q0 -69 37.5 -105.5t100.5 -36.5q62 0 99.5 38.5t37.5 103.5q0 66 -36.5 103.5t-100.5 37.5z" />
    <glyph glyph-name="llvocalicorya" unicode="&#xb61;" horiz-adv-x="1161" 
d="M616 170q-276 0 -417.5 106t-141.5 291q0 310 408 436l27 8q63 19 109.5 44.5t68.5 59t22 87.5q0 63 -39.5 99t-117.5 36q-62 0 -101 -22.5t-54 -55t-15 -68.5q0 -60 26 -108l-229 -64q-17 36 -29 85.5t-12 86.5q0 168 115.5 266.5t291.5 98.5q188 0 299 -94.5
t111 -257.5q0 -84 -19.5 -140t-57 -101t-101.5 -85.5t-156 -71.5l-26 -8q-160 -49 -214.5 -101.5t-54.5 -129.5q0 -81 54.5 -125.5t165.5 -56.5q-27 74 -27 143q0 127 88.5 208t234.5 81q142 0 227 -84.5t85 -223.5q0 -104 -65.5 -183.5t-188.5 -119.5q100 -123 180 -200
l-215 -150q-138 181 -221 314h-11zM750 388q172 26 172 142q0 42 -25.5 68t-67.5 26q-53 0 -82.5 -33t-29.5 -88q0 -58 33 -115z" />
    <glyph glyph-name="lvocalicvowelsignorya" unicode="&#xb62;" 
d="M-328 -54l-184 -35q-20 47 -20 95q0 94 84.5 145t228.5 51q145 0 227 -53t82 -145q0 -50 -19.5 -85t-78.5 -69.5t-172 -65.5l-64 -16q-38 -10 -72.5 -24t-47.5 -29.5t-13 -40.5q0 -40 38 -59.5t107 -25.5q-14 31 -14 62q0 74 65 118t181 44q108 0 168.5 -46t60.5 -126
q0 -89 -95.5 -141.5t-285.5 -52.5q-426 0 -426 231q0 73 35 115.5t99 71.5t163 53l48 10q80 17 104.5 32.5t24.5 43.5q0 24 -26.5 39.5t-82.5 15.5q-125 0 -125 -70q0 -20 10 -43zM-62 -411q121 9 121 56q0 39 -59 39q-36 0 -55 -14t-19 -39q0 -22 12 -42z" />
    <glyph glyph-name="llvocalicvowelsignUIorya" unicode="&#xb63;" 
d="M15 -412q39 -39 69 -66l-141 -75q-78 81 -115 129q-199 2 -302.5 51.5t-103.5 144.5q0 83 72.5 127t224.5 74l48 8q79 13 104 24.5t25 32.5q0 22 -26.5 31.5t-82.5 9.5q-125 0 -125 -51q0 -18 10 -37l-184 -26q-20 38 -20 75q0 77 83.5 119.5t229.5 42.5q145 0 227 -43.5
t82 -120.5q0 -38 -18.5 -67t-77.5 -58t-174 -55l-64 -14q-62 -14 -88.5 -24.5t-35.5 -22t-9 -29.5q0 -58 137 -69q-6 27 -6 51q0 60 65 96.5t181 36.5q108 0 168.5 -38.5t60.5 -103.5q0 -58 -55.5 -98t-158.5 -55zM-69 -301q128 9 128 47q0 28 -59 28q-74 0 -74 -49
q0 -12 5 -26z" />
    <glyph glyph-name="zeroorya" unicode="&#xb66;" horiz-adv-x="1171" 
d="M586 356q-161 0 -279 63.5t-179.5 180t-61.5 270.5q0 234 142 373t378 139q240 0 380 -139.5t140 -374.5t-141 -373.5t-379 -138.5zM586 1146q-123 0 -197 -76t-74 -202q0 -128 73 -202.5t198 -74.5q122 0 196 75.5t74 201.5q0 129 -73 203.5t-197 74.5z" />
    <glyph glyph-name="oneorya" unicode="&#xb67;" horiz-adv-x="1171" 
d="M402 820q39 -146 175 -248.5t392 -162.5l-70 -233q-378 89 -569 291t-191 511q0 172 64 303.5t180 203t264 71.5q174 0 285.5 -110.5t111.5 -280.5q0 -181 -115.5 -288t-305.5 -107q-117 0 -221 50zM387 1047q95 -62 205 -62q92 0 149.5 50.5t57.5 133.5q0 79 -46 125.5
t-128 46.5q-93 0 -158 -78t-80 -216z" />
    <glyph glyph-name="twoorya" unicode="&#xb68;" horiz-adv-x="1171" 
d="M203 409q256 61 392.5 163.5t175.5 248.5q-103 -51 -222 -51q-193 0 -307.5 107t-114.5 288q0 171 116.5 281t307.5 110q136 0 246.5 -71.5t172.5 -203.5t62 -303q0 -309 -191 -511t-569 -291zM783 1046q-16 140 -81 217.5t-157 77.5q-84 0 -128 -46.5t-44 -125.5
q0 -83 57.5 -133.5t149.5 -50.5q111 0 203 61z" />
    <glyph glyph-name="threeorya" unicode="&#xb69;" horiz-adv-x="1171" 
d="M600 1484q77 72 193 72q81 0 142.5 -36.5t91.5 -107.5t30 -233v-989h-228v1026q0 61 -16.5 89t-44.5 28q-29 0 -47.5 -28t-18.5 -91v-1024h-227v494q-41 -17 -94 -17q-104 0 -178.5 54.5t-112 149.5t-37.5 216q0 149 47.5 254.5t131.5 160t180 54.5q63 0 107 -17t81 -55z
M475 1187v31q0 67 -17 91t-55 24q-48 0 -80.5 -38.5t-43.5 -121.5q60 29 120 29q43 0 76 -15zM274 996q6 -147 101 -147q37 0 62.5 21t25.5 65q0 43 -24 67t-64 24q-46 0 -101 -30z" />
    <glyph glyph-name="fourorya" unicode="&#xb6a;" horiz-adv-x="1171" 
d="M870 1550l263 -41q-20 -170 -106.5 -311t-254.5 -265q123 -98 179.5 -190t56.5 -221q0 -150 -112 -251t-316 -101q-130 0 -225 44.5t-146 126.5t-51 179q0 127 57.5 221t182.5 194q-163 123 -247.5 257t-109.5 317l262 41q20 -153 82.5 -257.5t198.5 -214.5
q148 119 208 224.5t78 247.5zM583 806q-89 -64 -134.5 -127.5t-45.5 -136.5q0 -72 47 -114.5t136 -42.5q83 0 129.5 45.5t46.5 109.5q0 77 -43 137t-136 129z" />
    <glyph glyph-name="fiveorya" unicode="&#xb6b;" horiz-adv-x="1171" 
d="M321 813q-194 55 -303 165l144 166q104 -115 219 -155q-54 64 -78 123.5t-24 126.5q0 136 105.5 226.5t281.5 90.5q169 0 268.5 -89t99.5 -235q0 -184 -184 -320q191 -53 303 -163l-143 -166q-97 108 -217 154q104 -124 104 -250q0 -137 -104.5 -227t-278.5 -90
q-177 0 -278 88.5t-101 234.5q0 183 186 320zM629 982q162 95 162 230q0 61 -35.5 98t-98.5 37q-65 0 -104 -40.5t-39 -102.5q0 -57 27 -109t88 -113zM544 743q-79 -45 -122 -101.5t-43 -127.5q0 -62 38 -99t99 -37q48 0 81.5 20t49 52.5t15.5 71.5q0 55 -27.5 105.5
t-90.5 115.5z" />
    <glyph glyph-name="sixorya" unicode="&#xb6c;" horiz-adv-x="1171" 
d="M47 952l176 86q90 -162 189 -162q37 0 59.5 19t22.5 53q0 27 -17 47.5t-74 60.5q-75 56 -113 114t-38 128q0 116 88.5 187t230.5 71q153 0 273.5 -71.5t187 -202.5t66.5 -295q0 -328 -227.5 -533.5t-677.5 -283.5l-72 225q390 67 559.5 203t169.5 380q0 106 -39.5 188.5
t-107.5 128.5t-138 46q-38 0 -58 -16t-20 -41q0 -23 16.5 -41.5t59.5 -48.5q65 -45 99.5 -80.5t52.5 -79t18 -103.5q0 -116 -84.5 -185t-220.5 -69q-129 0 -225.5 68.5t-155.5 206.5z" />
    <glyph glyph-name="sevenorya" unicode="&#xb6d;" horiz-adv-x="1171" 
d="M182 170l-71 225q379 69 559 221.5t180 400.5q0 149 -77.5 236.5t-205.5 87.5q-96 0 -166 -44.5t-99 -123.5q68 29 142 29q127 0 201 -72.5t74 -191.5q0 -124 -81 -197.5t-230 -73.5q-101 0 -178 52.5t-119.5 145.5t-42.5 210q0 132 64.5 244t181.5 174.5t272 62.5
q150 0 265 -63.5t181 -185.5t66 -288q0 -337 -227 -547.5t-689 -301.5zM289 990q3 -68 31.5 -106.5t78.5 -38.5q45 0 70 22.5t25 65.5q0 44 -25 68.5t-68 24.5q-53 0 -112 -36z" />
    <glyph glyph-name="eightorya" unicode="&#xb6e;" horiz-adv-x="1171" 
d="M1065 1536v-236h-614v-1110h-250v1346h864z" />
    <glyph glyph-name="nineorya" unicode="&#xb6f;" horiz-adv-x="1171" 
d="M1079 954l-262 -43l-293 327q-192 -150 -192 -374q0 -214 133.5 -331.5t394.5 -133.5l-22 -229q-231 6 -401.5 94.5t-261.5 247t-91 350.5q0 215 120.5 392.5t352.5 303.5l290 -347q-9 72 -9 202v123h241v-582z" />
    <glyph glyph-name="issharorya" unicode="&#xb70;" horiz-adv-x="1272" 
d="M1204 1413q-43 -219 -91 -386t-97.5 -284t-103.5 -197t-109.5 -125t-118 -65.5t-149.5 -20.5q-170 0 -292.5 155t-174.5 464l247 43q19 -120 44 -214t56 -140.5t61 -63t71 -16.5q39 0 72.5 17t73.5 68t83.5 158t88 268.5t93.5 393.5zM569 837q-62 0 -108.5 45.5
t-46.5 110.5q0 64 45 109.5t110 45.5t110.5 -45t45.5 -110q0 -69 -44.5 -112.5t-111.5 -43.5z" />
    <glyph glyph-name="waorya" unicode="&#xb71;" horiz-adv-x="1298" 
d="M883 190v122q-63 -35 -121 -50t-127 -15q-165 0 -262 76.5t-97 224.5q0 56 21 128q-225 150 -225 460q0 113 41 232.5t114 220.5l203 -115q-58 -86 -85.5 -165t-27.5 -179q0 -165 109 -256.5t315 -91.5q127 0 188.5 22t61.5 74q0 35 -36 53.5t-103 18.5q-95 0 -203 -43
l-88 172q86 31 162 49q106 26 160.5 47t72 42t17.5 52q0 36 -28 56t-87 20q-71 0 -106 -24.5t-35 -67.5q0 -22 6 -37l-215 -47q-10 22 -17.5 57t-7.5 62q0 120 102 194t271 74q178 0 270.5 -70t92.5 -180q0 -83 -35.5 -136.5t-108.5 -92.5q162 -61 162 -217
q0 -137 -119 -214v-456h-235zM883 503v70q-59 -8 -150 -8q-112 0 -218 22q-3 -19 -3 -39q0 -112 145 -112q57 0 106.5 12.5t119.5 54.5z" />
    <glyph glyph-name="uni0B72" unicode="&#xb72;" horiz-adv-x="532" 
d="M389 1331v-1141h-246v1141h246z" />
    <glyph glyph-name="uni0B73" unicode="&#xb73;" horiz-adv-x="889" 
d="M528 190v504q-68 -33 -151 -33q-97 0 -165 39t-104 120t-36 204q0 139 34 313l254 -19q-14 -58 -22 -128t-8 -119q0 -96 23.5 -137.5t78.5 -41.5q59 0 96 29v410h246v-1141h-246z" />
    <glyph glyph-name="uni0B74" unicode="&#xb74;" horiz-adv-x="1200" 
d="M840 190v498q-48 -27 -99 -27q-103 0 -173 90q-37 -46 -83 -68t-118 -22q-143 0 -219 91t-76 269q0 128 34 316l246 -17q-33 -137 -33 -249q0 -94 17.5 -136.5t60.5 -42.5q62 0 62 84v355h246v-348q0 -91 65 -91q40 0 70 30v409h245v-1141h-245z" />
    <glyph glyph-name="uni0B75" unicode="&#xb75;" horiz-adv-x="1012" 
d="M983 1128q-327 -440 -760 -901l-194 184q212 223 415.5 464t337.5 425z" />
    <glyph glyph-name="uni0B76" unicode="&#xb76;" horiz-adv-x="1212" 
d="M580 243q27 79 36 132.5t9 109.5q0 114 -59.5 184t-157.5 70q-93 0 -151 -53q47 18 85 18q91 0 148 -55t57 -144q0 -107 -66 -167t-180 -60q-108 0 -182 77.5t-74 219.5q0 98 47 184.5t131 135.5t189 49t192.5 -52.5t138.5 -150.5q21 74 54 182l131 414l239 -62
l-356 -1095zM211 533q7 -101 88 -101q78 0 78 65q0 33 -20 50.5t-56 17.5q-51 0 -90 -32z" />
    <glyph glyph-name="uni0B77" unicode="&#xb77;" horiz-adv-x="1356" 
d="M853 615q28 117 73 257l145 465l240 -62l-359 -1093l-221 28q23 92 23 152q0 119 -70 119q-26 0 -43 -13.5t-26 -38t-9 -92.5v-147h-203v176q0 44 -4 66.5t-19.5 35.5t-39.5 13q-33 0 -52.5 -29t-19.5 -82q0 -74 25 -155l-205 -41q-39 126 -39 229q0 132 68 210.5
t178 78.5q67 0 113 -23t91 -78q76 101 193 101q105 0 161 -77z" />
    <glyph glyph-name="uni200B" unicode="&#x200b;" 
 />
    <glyph glyph-name="uni200B" unicode="&#xfeff;" 
 />
    <glyph glyph-name="uni200C" unicode="&#x200c;" 
d="M-53 1804h106v-1954h-106v1954z" />
    <glyph glyph-name="uni200D" unicode="&#x200d;" 
d="M299 1294l-76 -74l-170 168v-1536h-106v1536l-170 -168l-76 74l225 219l-225 217l76 74l223 -221l223 221l76 -76l-225 -215z" />
    <glyph glyph-name="endash.orya" unicode="&#x2013;" horiz-adv-x="1024" 
d="M82 763v230h860v-230h-860z" />
    <glyph glyph-name="emdash.orya" unicode="&#x2014;" horiz-adv-x="2048" 
d="M82 763v230h1884v-230h-1884z" />
    <glyph glyph-name="quoteleft.orya" unicode="&#x2018;" horiz-adv-x="618" 
d="M125 1277l-12 21q46 199 174 479h219q-72 -302 -100 -500h-281z" />
    <glyph glyph-name="quoteright.orya" unicode="&#x2019;" horiz-adv-x="618" 
d="M494 1777l12 -20q-52 -203 -176 -480h-217q64 280 98 500h283z" />
    <glyph glyph-name="quotedblleft.orya" unicode="&#x201c;" horiz-adv-x="1055" 
d="M549 1298q51 211 174 479h219q-72 -302 -100 -500h-281zM113 1298q46 199 174 479h219q-72 -302 -100 -500h-281z" />
    <glyph glyph-name="quotedblright.orya" unicode="&#x201d;" horiz-adv-x="1055" 
d="M506 1757q-52 -203 -176 -480h-217q64 280 98 500h283zM942 1757q-54 -213 -176 -480h-217q69 297 98 500h281z" />
    <glyph glyph-name="ellipsis.orya" unicode="&#x2026;" horiz-adv-x="1751" 
d="M293 509q82 0 128 -43.5t46 -125.5t-46.5 -126t-127.5 -44q-83 0 -129.5 44t-46.5 126q0 83 45.5 126t130.5 43zM877 509q82 0 128 -43.5t46 -125.5t-46.5 -126t-127.5 -44q-83 0 -130 44t-47 126q0 83 46 126t131 43zM1460 509q82 0 128 -43.5t46 -125.5t-46.5 -126
t-127.5 -44q-83 0 -129.5 44t-46.5 126q0 83 45.5 126t130.5 43z" />
    <glyph glyph-name="uni20B9.orya" unicode="&#x20b9;" horiz-adv-x="1171" 
d="M780 989q-51 -249 -341 -319l429 -480h-358l-389 457l39 209h47q145 0 200.5 30t81.5 103h-368v215h364q-14 48 -49 71q-23 23 -61.5 34t-138.5 11h-115v216h944v-216h-379q42 -27 78 -116h301v-215h-285z" />
    <glyph glyph-name="minus.orya" unicode="&#x2212;" horiz-adv-x="1171" 
d="M88 759v219h993v-219h-993z" />
    <glyph glyph-name="uni25CC" unicode="&#x25cc;" horiz-adv-x="1044" 
d="M582 1185q0 -59 -62 -59q-30 0 -43.5 14t-13.5 45q0 58 57 58q62 0 62 -58zM315 1083q0 -59 -59 -59q-57 0 -57 59q0 31 13.5 45t43.5 14q31 0 45 -14t14 -45zM846 1083q0 -59 -60 -59q-59 0 -59 59t59 59q60 0 60 -59zM938 829q0 -59 -59 -59q-60 0 -60 59q0 57 60 57
q59 0 59 -57zM223 829q0 -31 -13.5 -45t-43.5 -14q-31 0 -45.5 14t-14.5 45q0 57 60 57q57 0 57 -57zM315 573q0 -31 -14 -45t-45 -14q-30 0 -43.5 14t-13.5 45t13.5 45t43.5 14q31 0 45 -14t14 -45zM846 573q0 -59 -60 -59q-59 0 -59 59t59 59q60 0 60 -59zM582 471
q0 -60 -62 -60q-57 0 -57 60q0 31 13.5 45t43.5 14q62 0 62 -59z" />
    <glyph glyph-name="kanuktaorya" horiz-adv-x="1475" 
d="M1143 798q16 69 16 148q0 167 -117 270.5t-309 103.5q-126 0 -223.5 -43.5t-150 -119t-52.5 -160.5q0 -82 18 -126q65 46 158 46q53 0 101 -23.5t82 -72.5q41 51 90 73.5t116 22.5q81 0 142.5 -31t98 -87.5t36.5 -145.5v-463h-240v367q0 63 -4.5 88.5t-20.5 41t-46 15.5
q-31 0 -47 -16t-21.5 -44t-5.5 -90v-362h-240v117q-24 -6 -57 -6q-115 0 -192.5 83.5t-77.5 231.5q0 31 2 43q-133 124 -133 342q0 155 83 284.5t234.5 200t349.5 70.5q204 0 357 -68.5t236 -204t83 -325.5q0 -109 -27 -227zM481 712q-80 0 -80 -100q0 -55 22.5 -83
t57.5 -28q37 0 58.5 27t21.5 76q0 53 -22 80.5t-58 27.5zM737 -263q-62 0 -108.5 45.5t-46.5 110.5q0 64 45.5 110t109.5 46t110 -45t46 -111q0 -69 -44.5 -112.5t-111.5 -43.5z" />
    <glyph glyph-name="khanuktaorya" horiz-adv-x="1487" 
d="M249 596q-183 162 -183 409q0 152 75 278t213 197.5t316 71.5q46 0 92 -4l170 -72q-60 -93 -60 -192q0 -71 38.5 -107.5t103.5 -36.5q70 0 112 38v358h246v-1346h-246v760q-54 -19 -122 -19q-157 0 -258 92.5t-101 247.5q0 31 2 45q-157 -13 -248.5 -104t-91.5 -215
q0 -120 65 -204q97 77 238 77q98 0 181.5 -38.5t135.5 -119t52 -192.5q0 -157 -101 -253.5t-268 -96.5q-164 0 -266 94t-102 256q0 45 7 76zM610 661q-65 0 -101 -38t-36 -103q0 -69 38 -105.5t99 -36.5q63 0 100.5 39t37.5 103q0 66 -37 103.5t-101 37.5zM610 -263
q-62 0 -108.5 45.5t-46.5 110.5q0 64 45.5 110t109.5 46t110 -45t46 -111q0 -69 -44.5 -112.5t-111.5 -43.5z" />
    <glyph glyph-name="ganuktaorya" horiz-adv-x="1464" 
d="M1104 190v919q-163 211 -418 211q-111 0 -197 -42.5t-134 -118.5t-48 -162q0 -120 65 -204q97 77 238 77q98 0 181.5 -38.5t135.5 -119t52 -192.5q0 -157 -101 -253.5t-268 -96.5q-164 0 -266 94t-102 256q0 45 7 76q-183 162 -183 409q0 153 77.5 281t215 199t309.5 71
q132 0 235.5 -36.5t203.5 -119.5l-3 136h246v-1346h-246zM610 661q-65 0 -101 -38t-36 -103q0 -69 38 -105.5t99 -36.5q63 0 100.5 39t37.5 103q0 66 -37 103.5t-101 37.5zM608 -263q-62 0 -108.5 45.5t-46.5 110.5q0 64 45.5 110t109.5 46t110 -45t46 -111
q0 -69 -44.5 -112.5t-111.5 -43.5z" />
    <glyph glyph-name="ghanuktaorya" horiz-adv-x="1448" 
d="M1096 190v31q-59 -51 -133 -51q-117 0 -170 101q-76 -101 -218 -101q-146 0 -231.5 91.5t-85.5 243.5q0 41 5 79q-197 163 -197 421q0 151 75.5 279t214 200t312.5 72q124 0 224.5 -37.5t198.5 -118.5l-4 136h246v-1346h-237zM365 803q50 61 133 120l151 -155
q-160 -106 -160 -250q0 -61 25.5 -98t73.5 -37q49 0 69.5 31t20.5 100v145h240v-158q0 -60 17.5 -89t61.5 -29q30 0 51 16t39 41v670q-165 210 -405 210q-110 0 -194.5 -41.5t-132.5 -117.5t-48 -164q0 -114 58 -194zM661 -263q-62 0 -108.5 45.5t-46.5 110.5q0 64 45.5 110
t109.5 46t110 -45t46 -111q0 -69 -44.5 -112.5t-111.5 -43.5z" />
    <glyph glyph-name="nganuktaorya" horiz-adv-x="1583" 
d="M856 917l166 -164l-68 -59q88 -82 88 -209q0 -138 -103.5 -226.5t-291.5 -88.5q-122 0 -215.5 43t-146 128t-52.5 203q0 35 4 55q-83 78 -127 181t-44 221q0 160 76.5 287.5t221.5 197.5t343 70q189 0 331 -63q76 43 181 43q88 0 163 -35.5t119.5 -106t44.5 -168.5
q0 -138 -89.5 -223.5t-237.5 -85.5q-146 0 -237 83t-91 226q0 32 5 64q-81 30 -194 30q-189 0 -292 -91.5t-103 -241.5q0 -97 43 -168q41 46 117 98l131 -162q-64 -36 -98.5 -86t-34.5 -119q0 -79 49.5 -127.5t132.5 -48.5q85 0 125.5 29.5t40.5 75.5q0 42 -30 66l-85 -74
l-153 149zM1219 1343q-54 0 -83.5 -32t-29.5 -85q0 -58 29.5 -87t83.5 -29q51 0 81.5 32t30.5 84q0 54 -30 85.5t-82 31.5zM669 -263q-62 0 -108.5 45.5t-46.5 110.5q0 64 45.5 110t109.5 46t110 -45t46 -111q0 -69 -44.5 -112.5t-111.5 -43.5z" />
    <glyph glyph-name="canuktaorya" horiz-adv-x="1366" 
d="M257 568q-191 164 -191 435q0 157 74 284.5t212.5 198t325.5 70.5q298 0 460 -154t162 -434q0 -168 -57 -313l-235 84q25 65 34 113t9 106q0 167 -99.5 264.5t-277.5 97.5q-171 0 -269 -94.5t-98 -238.5q0 -126 61 -206q102 89 259 89q102 0 186.5 -44.5t131 -124.5
t46.5 -181q0 -157 -100.5 -253.5t-267.5 -96.5q-102 0 -185.5 39t-133.5 118.5t-50 192.5q0 24 3 48zM623 661q-66 0 -102 -38t-36 -103q0 -69 37.5 -105.5t100.5 -36.5q62 0 99.5 38.5t37.5 103.5q0 66 -36.5 103.5t-100.5 37.5zM626 -263q-62 0 -108.5 45.5t-46.5 110.5
q0 64 45.5 110t109.5 46t110 -45t46 -111q0 -69 -44.5 -112.5t-111.5 -43.5z" />
    <glyph glyph-name="chanuktaorya" horiz-adv-x="1391" 
d="M658 298q-77 -74 -142.5 -101t-142.5 -27q-129 0 -205 67t-76 180q0 84 66 144q-50 4 -72 4l35 172q107 -7 201 -64q-5 18 -7 34q-129 70 -189 164t-60 222q0 130 72 237t208 166.5t322 59.5q320 0 488.5 -155t168.5 -449q0 -96 -20 -180l-244 57q14 69 14 121
q0 170 -107.5 270t-303.5 100q-121 0 -203 -36t-119 -92t-37 -119q0 -92 56 -148q46 70 124 109t177 39q159 0 256.5 -89.5t97.5 -244.5q0 -46 -12 -84q105 -15 165 -80.5t60 -159.5q0 -110 -76 -177.5t-207 -67.5q-83 0 -147.5 28t-140.5 100zM662 606q66 0 99.5 36.5
t33.5 96.5q0 64 -35.5 98.5t-97.5 34.5q-63 0 -98.5 -36.5t-35.5 -96.5q0 -63 35.5 -98t98.5 -35zM785 435q41 -42 72 -58.5t73 -16.5q41 0 65.5 19t24.5 53t-24.5 53.5t-69.5 19.5q-66 0 -141 -70zM531 430q-44 43 -75.5 59t-66.5 16q-40 0 -64 -17.5t-24 -55.5
q0 -32 24 -52t66 -20q35 0 66 15t74 55zM663 -263q-62 0 -108.5 45.5t-46.5 110.5q0 64 45.5 110t109.5 46t110 -45t46 -111q0 -69 -44.5 -112.5t-111.5 -43.5z" />
    <glyph glyph-name="januktaorya" horiz-adv-x="1475" 
d="M823 475q0 -146 -81 -225.5t-228 -79.5q-157 0 -249.5 92.5t-92.5 253.5q0 63 21 126q-127 141 -127 359q0 158 82.5 286.5t234.5 198.5t350 70q322 0 499 -154t177 -434q0 -120 -27 -237l-239 67q16 68 16 160q0 165 -115.5 263.5t-310.5 98.5q-133 0 -230.5 -45
t-146.5 -122.5t-49 -174.5q0 -80 24 -133q41 39 89 72l131 -162q-148 -86 -148 -246q0 -65 28 -101t81 -36q72 0 92 63q-82 65 -82 167q0 123 101.5 195.5t283.5 72.5q45 0 108.5 -5t98.5 -11v-664h-227v475h-15q-50 0 -84 -22t-34 -62q0 -30 15 -51.5t54 -38.5v-16z
M676 -263q-62 0 -108.5 45.5t-46.5 110.5q0 64 45.5 110t109.5 46t110 -45t46 -111q0 -69 -44.5 -112.5t-111.5 -43.5z" />
    <glyph glyph-name="jhanuktaorya" horiz-adv-x="1425" 
d="M1167 170l-263 124q-104 -124 -294 -124q-164 0 -266 94t-102 256q0 45 7 76q-183 162 -183 409q0 152 75 278t213 197.5t316 71.5q46 0 92 -4l170 -72q-60 -93 -60 -192q0 -71 37 -107.5t101 -36.5q63 0 100 38t37 106q0 84 -55 159l213 97q84 -109 84 -258
q0 -156 -103 -253.5t-274 -97.5q-104 0 -187.5 39t-131.5 116t-48 183q0 25 3 47q-157 -13 -249 -104t-92 -215q0 -120 65 -204q97 77 238 77q98 0 181.5 -38.5t135.5 -119t52 -192.5v-8q-1 -4 -1 -8l279 -101zM610 661q-65 0 -101 -38t-36 -103q0 -69 38 -105.5t99 -36.5
q63 0 100.5 39t37.5 103q0 66 -37 103.5t-101 37.5zM610 -263q-62 0 -108.5 45.5t-46.5 110.5q0 64 45.5 110t109.5 46t110 -45t46 -111q0 -69 -44.5 -112.5t-111.5 -43.5z" />
    <glyph glyph-name="nyanuktaorya" horiz-adv-x="1499" 
d="M1268 943q80 -36 123 -110.5t43 -175.5q0 -234 -180 -360.5t-502 -126.5q-333 0 -505.5 142t-172.5 394q0 178 100 338q-61 105 -61 236q0 140 69 276l217 -68q-53 -96 -53 -198q0 -152 103.5 -221.5t316.5 -69.5q408 0 408 223q0 60 -25.5 91.5t-69.5 31.5
q-31 0 -50 -12t-28.5 -36t-9.5 -83v-98h-203v88q0 61 -4 87t-20 40t-43 14q-33 0 -50.5 -22t-17.5 -58q0 -54 23 -121l-203 -47q-39 115 -39 201q0 116 67 187t173 71q70 0 118 -23t97 -84q45 55 100 81t133 26q130 0 209.5 -87t79.5 -226q0 -196 -143 -300zM450 836
q-57 18 -104 44q-39 -77 -39 -170q0 -162 111.5 -240.5t335.5 -78.5q217 0 327.5 69.5t110.5 200.5q0 147 -98 147q-45 0 -69 -27.5t-24 -109.5v-133h-202v117q0 55 -4.5 78.5t-21.5 40t-48 16.5q-38 0 -60 -25.5t-22 -68.5q0 -61 23 -129l-203 -45q-39 108 -39 192
q0 70 26 122zM749 -263q-62 0 -108.5 45.5t-46.5 110.5q0 64 45.5 110t109.5 46t110 -45t46 -111q0 -69 -44.5 -112.5t-111.5 -43.5z" />
    <glyph glyph-name="ttanuktaorya" horiz-adv-x="1430" 
d="M1083 923v182q-163 215 -403 215q-168 0 -270.5 -94t-102.5 -229q0 -124 70 -210q99 83 246 83q161 0 264.5 -95.5t103.5 -254.5q0 -157 -100.5 -253.5t-267.5 -96.5q-102 0 -185.5 39t-133.5 118.5t-50 192.5q0 34 5 66q-193 160 -193 431q0 144 75 268.5t210.5 197.5
t303.5 73q126 0 223.5 -34.5t208.5 -125.5l-4 140h246v-613h-246zM623 661q-66 0 -102 -38t-36 -103q0 -69 37.5 -105.5t100.5 -36.5q62 0 99.5 38.5t37.5 103.5q0 66 -36.5 103.5t-100.5 37.5zM610 -263q-62 0 -108.5 45.5t-46.5 110.5q0 64 45.5 110t109.5 46t110 -45
t46 -111q0 -69 -44.5 -112.5t-111.5 -43.5z" />
    <glyph glyph-name="tthanuktaorya" horiz-adv-x="1520" 
d="M760 170q-319 0 -501.5 186t-182.5 506q0 210 84 368.5t238.5 242t361.5 83.5q211 0 365 -83.5t236.5 -242t82.5 -368.5q0 -326 -181.5 -509t-502.5 -183zM760 1320q-197 0 -312.5 -125t-115.5 -333q0 -215 113 -336t315 -121q199 0 313.5 123.5t114.5 333.5
q0 212 -115.5 335t-312.5 123zM760 -263q-62 0 -108.5 45.5t-46.5 110.5q0 64 45.5 110t109.5 46t110 -45t46 -111q0 -69 -44.5 -112.5t-111.5 -43.5z" />
    <glyph glyph-name="nnanuktaorya" horiz-adv-x="1438" 
d="M1077 190v937q-80 99 -178.5 151.5t-202.5 52.5q-77 0 -123.5 -32t-46.5 -89v-6q27 4 74 4q166 0 305 -76l-104 -180q-93 41 -201 41q-122 0 -193.5 -52.5t-87.5 -154.5q105 25 222 25q180 0 293.5 -82.5t113.5 -235.5q0 -155 -98.5 -239t-290.5 -84q-137 0 -250 61
t-174 180.5t-61 290.5q0 148 57 258.5t165 173.5q-9 43 -9 88q0 147 108 240.5t287 93.5q219 0 398 -148l-3 128h246v-1346h-246zM322 585q16 -96 74 -147t153 -51q58 0 93 15.5t49 38.5t14 50q0 56 -47.5 85.5t-129.5 29.5q-113 0 -206 -21zM669 -263q-62 0 -108.5 45.5
t-46.5 110.5q0 64 45.5 110t109.5 46t110 -45t46 -111q0 -69 -44.5 -112.5t-111.5 -43.5z" />
    <glyph glyph-name="tanuktaorya" horiz-adv-x="1411" 
d="M1063 763q33 97 33 195q0 172 -103.5 267t-296.5 95q-183 0 -286 -94t-103 -239q0 -102 40 -172q49 55 120 102l131 -162q-133 -76 -133 -200q0 -80 47.5 -130.5t130.5 -50.5q87 0 136.5 50.5t49.5 132.5q0 23 -7 54q-16 -5 -34 -5q-122 0 -122 129q0 61 40 98t109 37
q108 0 177 -86t69 -225q0 -106 -51 -197.5t-146.5 -141.5t-226.5 -50q-122 0 -213 43.5t-141 128t-50 202.5q0 22 2 43q-169 162 -169 416q0 159 77 287t220 197t337 69q311 0 478.5 -153t167.5 -435q0 -74 -13 -152.5t-35 -136.5zM645 -263q-62 0 -108.5 45.5t-46.5 110.5
q0 64 45.5 110t109.5 46t110 -45t46 -111q0 -69 -44.5 -112.5t-111.5 -43.5z" />
    <glyph glyph-name="thanuktaorya" horiz-adv-x="1419" 
d="M1059 709v827h246v-1346h-246l4 210q-109 -113 -247 -171.5t-296 -58.5q-149 0 -252 46t-157 137t-54 214q0 310 408 436l27 8q63 19 109.5 44.5t68.5 59t22 87.5q0 63 -39.5 99t-117.5 36q-62 0 -101 -22.5t-54 -55t-15 -68.5q0 -60 26 -108l-229 -64q-17 36 -29 85.5
t-12 86.5q0 168 115.5 266.5t291.5 98.5q188 0 299 -94.5t111 -257.5q0 -84 -19.5 -140t-57 -101t-101.5 -85.5t-156 -71.5l-26 -8q-162 -50 -216.5 -101t-54.5 -130q0 -81 57 -124.5t162 -43.5q306 0 533 310zM647 -263q-62 0 -108.5 45.5t-46.5 110.5q0 64 45.5 110
t109.5 46t110 -45t46 -111q0 -69 -44.5 -112.5t-111.5 -43.5z" />
    <glyph glyph-name="danuktaorya" horiz-adv-x="1411" 
d="M1044 718q52 114 52 240q0 172 -103.5 267t-296.5 95q-118 0 -205.5 -41.5t-135.5 -118.5t-48 -173q0 -101 39 -171q49 53 119 101l131 -162q-56 -33 -82.5 -65.5t-26.5 -81.5q0 -48 30.5 -75.5t82.5 -27.5q49 0 87.5 19.5t74.5 55.5v274h239v-664h-239v171
q-81 -58 -178 -58q-137 0 -224 69t-102 194q-192 165 -192 437q0 159 77 287t220 197t337 69q311 0 478.5 -153t167.5 -435q0 -97 -21 -193t-57 -163zM663 -263q-62 0 -108.5 45.5t-46.5 110.5q0 64 45.5 110t109.5 46t110 -45t46 -111q0 -69 -44.5 -112.5t-111.5 -43.5z
" />
    <glyph glyph-name="dhanuktaorya" horiz-adv-x="1290" 
d="M1176 1536v-1346h-246l2 112q-153 -132 -363 -132q-154 0 -269 59.5t-176 167.5t-61 250q0 137 71.5 254t206.5 193l-243 313l217 151l525 -704l-201 -142l-154 197q-69 -39 -108 -81.5t-53.5 -86t-14.5 -102.5q0 -110 70.5 -175t195.5 -65q225 0 355 203v934h246z
M583 -263q-62 0 -108.5 45.5t-46.5 110.5q0 64 45.5 110t109.5 46t110 -45t46 -111q0 -69 -44.5 -112.5t-111.5 -43.5z" />
    <glyph glyph-name="nanuktaorya" horiz-adv-x="1411" 
d="M1044 718q30 71 41 126t11 114q0 172 -103.5 267t-296.5 95q-183 0 -286 -94t-103 -239q0 -80 23 -137.5t74 -108.5q163 129 413 129q101 0 176 -16v-664h-239v447q-213 -15 -279 -191q84 -28 84 -127q0 -70 -41.5 -106.5t-118.5 -36.5q-81 0 -126.5 51.5t-45.5 132.5
q0 106 39 200q-200 165 -200 443q0 159 77 287t220 197t337 69q311 0 478.5 -153t167.5 -435q0 -98 -20.5 -191t-57.5 -165zM684 -263q-62 0 -108.5 45.5t-46.5 110.5q0 64 45.5 110t109.5 46t110 -45t46 -111q0 -69 -44.5 -112.5t-111.5 -43.5z" />
    <glyph glyph-name="panuktaorya" horiz-adv-x="1448" 
d="M1087 190l2 117q-145 -137 -358 -137q-191 0 -302 98.5t-119 280.5q-244 169 -244 456q0 151 75.5 279t214 200t312.5 72q124 0 224.5 -37.5t198.5 -118.5l-4 136h246v-1346h-246zM1087 623v487q-165 210 -403 210q-112 0 -197.5 -43t-132.5 -118.5t-47 -161.5
q0 -123 70 -209q41 67 121 135l157 -149q-60 -44 -89 -92t-29 -111q0 -76 54 -124t148 -48q111 0 194.5 52.5t153.5 171.5zM682 -263q-62 0 -108.5 45.5t-46.5 110.5q0 64 45.5 110t109.5 46t110 -45t46 -111q0 -69 -44.5 -112.5t-111.5 -43.5z" />
    <glyph glyph-name="phanuktaorya" horiz-adv-x="1772" 
d="M1087 190l2 117q-145 -137 -358 -137q-191 0 -302 98.5t-119 280.5q-244 169 -244 456q0 152 76 280t214 199.5t310 71.5q125 0 226 -37t199 -119l-4 136h242l-1 -25q53 25 116 25q125 0 208 -79.5t83 -211.5q0 -127 -82.5 -208t-212.5 -81q-62 0 -107 19v-785h-246z
M1425 1347q-47 0 -73.5 -27.5t-26.5 -74.5q0 -49 26 -75t74 -26q47 0 74 27.5t27 73.5q0 47 -27.5 74.5t-73.5 27.5zM1087 623v487q-164 210 -403 210q-112 0 -197.5 -43t-132.5 -118.5t-47 -161.5q0 -126 72 -206q47 74 119 132l157 -149q-60 -44 -89 -92t-29 -111
q0 -76 54 -124t148 -48q111 0 194.5 52.5t153.5 171.5zM682 -263q-62 0 -108.5 45.5t-46.5 110.5q0 64 45.5 110t109.5 46t110 -45t46 -111q0 -69 -44.5 -112.5t-111.5 -43.5z" />
    <glyph glyph-name="banuktaorya" horiz-adv-x="1395" 
d="M743 190v129q-51 -18 -116 -18q-128 0 -221 64t-115 181q-225 169 -225 455q0 162 76.5 289t219 196.5t332.5 69.5q199 0 341.5 -67.5t218 -200t75.5 -320.5q0 -94 -20.5 -190t-57.5 -166l-223 106q51 110 51 240q0 171 -101.5 266.5t-287.5 95.5q-180 0 -281.5 -93
t-101.5 -240q0 -107 48 -183q100 113 290 113q95 0 171 -33t121.5 -104.5t45.5 -177.5v-412h-240zM635 712q-59 0 -91 -26.5t-32 -77.5t33.5 -78t91.5 -27t90.5 27.5t32.5 75.5q0 50 -32.5 78t-92.5 28zM676 -263q-62 0 -108.5 45.5t-46.5 110.5q0 64 45.5 110t109.5 46
t110 -45t46 -111q0 -69 -44.5 -112.5t-111.5 -43.5z" />
    <glyph glyph-name="bhanuktaorya" horiz-adv-x="1554" 
d="M813 430q-115 5 -183.5 72t-68.5 188q0 88 35 180l207 -29q-23 -80 -23 -135q0 -100 80 -100h5l1 14v234h219v-246q0 -138 -52 -236.5t-150.5 -150t-218.5 -51.5q-130 0 -230 47t-156.5 139.5t-56.5 220.5v12q0 5 1 11q-75 75 -115.5 175.5t-40.5 209.5q0 167 78.5 298
t229.5 202t359 71q235 0 400 -80t249 -228t84 -349q0 -216 -100 -404l205 -233l-219 -154l-248 328q113 174 113 424q0 218 -124 339t-356 121q-207 0 -318.5 -93t-111.5 -255q0 -73 25 -127q24 30 67 72l152 -143q-53 -46 -80 -96.5t-27 -114.5q0 -90 59 -142.5t159 -52.5
q103 0 151 62zM755 -263q-62 0 -108.5 45.5t-46.5 110.5q0 64 45.5 110t109.5 46t110 -45t46 -111q0 -69 -44.5 -112.5t-111.5 -43.5z" />
    <glyph glyph-name="manuktaorya" horiz-adv-x="1448" 
d="M858 716q-268 -66 -382 -266q40 -14 62.5 -50t22.5 -83q0 -65 -43.5 -103t-109.5 -38q-84 0 -133.5 54.5t-49.5 141.5q0 100 50 202q-209 165 -209 431q0 151 75.5 279t214 200t312.5 72q124 0 224.5 -37.5t198.5 -118.5l-4 136h246v-1346h-246v920q-165 210 -403 210
q-112 0 -197.5 -43t-132.5 -118.5t-47 -161.5q0 -73 24 -130.5t84 -112.5q156 140 353 177zM702 -263q-62 0 -108.5 45.5t-46.5 110.5q0 64 45.5 110t109.5 46t110 -45t46 -111q0 -69 -44.5 -112.5t-111.5 -43.5z" />
    <glyph glyph-name="yanuktaorya" horiz-adv-x="1536" 
d="M1176 190l1 116q-145 -136 -356 -136q-197 0 -303.5 97t-113.5 280q-48 -41 -91 -83q45 -41 45 -112q0 -65 -43.5 -103.5t-109.5 -38.5q-82 0 -128 46.5t-46 123.5q0 48 18 88.5t66.5 90t143.5 121.5q-105 139 -105 325q0 151 75.5 279t214 200t312.5 72q121 0 222 -36.5
t201 -119.5l-3 136h245v-1346h-245zM748 763q-123 -72 -123 -192q0 -77 54 -124.5t148 -47.5q114 0 197.5 54t151.5 172v484q-163 211 -404 211q-112 0 -197.5 -43t-132.5 -118.5t-47 -161.5q0 -106 50 -183l171 117zM788 -263q-62 0 -108.5 45.5t-46.5 110.5q0 64 45.5 110
t109.5 46t110 -45t46 -111q0 -69 -44.5 -112.5t-111.5 -43.5z" />
    <glyph glyph-name="ranuktaorya" horiz-adv-x="1475" 
d="M246 578q-85 75 -132.5 181.5t-47.5 225.5q0 165 77 296.5t219.5 203t333.5 71.5q216 0 372.5 -80t238.5 -228.5t82 -348.5q0 -217 -101 -404l203 -233l-219 -154l-246 328q113 168 113 424q0 211 -118.5 335.5t-322.5 124.5q-180 0 -285.5 -96.5t-105.5 -251.5
q0 -107 59 -184q98 82 248 82q158 0 261.5 -95t103.5 -255q0 -157 -101 -253.5t-268 -96.5q-164 0 -266 94t-102 256q0 36 4 58zM610 661q-65 0 -101 -38t-36 -103q0 -69 38 -105.5t99 -36.5q63 0 100.5 39t37.5 103q0 66 -37 103.5t-101 37.5zM614 -263q-62 0 -108.5 45.5
t-46.5 110.5q0 64 45.5 110t109.5 46t110 -45t46 -111q0 -69 -44.5 -112.5t-111.5 -43.5z" />
    <glyph glyph-name="lanuktaorya" horiz-adv-x="1616" 
d="M680 831q34 40 84 63t106 23q83 0 142 -37t87.5 -93.5t28.5 -168.5v-428h-227v397q0 70 -15.5 92.5t-45.5 22.5q-31 0 -47.5 -26t-16.5 -89v-397h-227v416q0 96 -55 96q-78 0 -78 -172q0 -155 39 -315l-219 -41q-50 192 -50 383q0 40 5 76q-125 147 -125 376
q0 158 81 284t238.5 194.5t374.5 68.5q370 0 569 -176t199 -490q0 -215 -101 -395l205 -233l-219 -154l-248 328q113 174 113 416q0 225 -131.5 346.5t-382.5 121.5q-220 0 -339.5 -94t-119.5 -254q0 -65 16 -109q74 54 166 54q60 0 106 -18.5t87 -67.5zM737 -263
q-62 0 -108.5 45.5t-46.5 110.5q0 64 45.5 110t109.5 46t110 -45t46 -111q0 -69 -44.5 -112.5t-111.5 -43.5z" />
    <glyph glyph-name="llanuktaorya" horiz-adv-x="1475" 
d="M1141 798q16 69 16 148q0 167 -117 270.5t-309 103.5q-126 0 -223.5 -43.5t-150 -119t-52.5 -160.5q0 -90 23 -138q77 58 172 58q61 0 107 -19t85 -67q35 41 85.5 63.5t105.5 22.5q85 0 144.5 -38.5t86.5 -96.5t27 -164v-428h-228v397q0 70 -15.5 92.5t-45.5 22.5
q-64 0 -64 -115v-397h-227v416q0 51 -13 73.5t-42 22.5q-78 0 -78 -172q0 -155 39 -315l-219 -41q-49 187 -49 383q0 50 8 94q-141 128 -141 350q0 155 83 284.5t234.5 200t349.5 70.5q204 0 357 -68.5t236 -204t83 -325.5q0 -109 -27 -227zM737 -263q-62 0 -108.5 45.5
t-46.5 110.5q0 64 45.5 110t109.5 46t110 -45t46 -111q0 -69 -44.5 -112.5t-111.5 -43.5z" />
    <glyph glyph-name="vanuktaorya" horiz-adv-x="1395" 
d="M1028 718q51 110 51 240q0 171 -101.5 266.5t-287.5 95.5q-180 0 -281.5 -93t-101.5 -240q0 -107 48 -183q100 113 290 113q95 0 171 -33t121.5 -104.5t45.5 -177.5v-412h-240v129q-51 -18 -116 -18q-128 0 -221 64t-115 181q-225 169 -225 455q0 162 76.5 289t219 196.5
t332.5 69.5q199 0 341.5 -67.5t218 -200t75.5 -320.5q0 -94 -20.5 -190t-57.5 -166zM635 735q-67 0 -105 -34t-38 -89q0 -65 38.5 -98t106.5 -33t105.5 33t37.5 92q0 62 -38.5 95.5t-106.5 33.5zM637 526q-36 0 -60 23t-24 59q0 35 24 58.5t60 23.5t60 -23.5t24 -58.5
q0 -37 -24 -59.5t-60 -22.5zM676 -263q-62 0 -108.5 45.5t-46.5 110.5q0 64 45.5 110t109.5 46t110 -45t46 -111q0 -69 -44.5 -112.5t-111.5 -43.5z" />
    <glyph glyph-name="shanuktaorya" horiz-adv-x="1479" 
d="M1118 190v937q-80 99 -178.5 151.5t-202.5 52.5q-48 0 -87 -13.5t-59 -38.5q159 -19 279 -131l-155 -147q-87 78 -189 78t-160.5 -55.5t-58.5 -147.5q0 -67 34 -118q107 112 280 112q161 0 264.5 -94.5t103.5 -255.5q0 -157 -100.5 -253.5t-267.5 -96.5q-102 0 -185.5 39
t-133.5 118.5t-50 192.5q-94 66 -142.5 160t-48.5 208q0 129 70 228.5t199 141.5q16 139 122.5 218.5t270.5 79.5q216 0 398 -148l-3 128h246v-1346h-246zM621 661q-69 0 -103.5 -39.5t-34.5 -101.5q0 -69 37.5 -105.5t100.5 -36.5q62 0 99.5 38.5t37.5 103.5
q0 66 -36.5 103.5t-100.5 37.5zM626 -263q-62 0 -108.5 45.5t-46.5 110.5q0 64 45.5 110t109.5 46t110 -45t46 -111q0 -69 -44.5 -112.5t-111.5 -43.5z" />
    <glyph glyph-name="ssanuktaorya" horiz-adv-x="1477" 
d="M1116 190l2 142q-153 -162 -389 -162q-188 0 -299.5 97t-119.5 281q-244 167 -244 457q0 152 76 280t214 199.5t310 71.5q132 0 236.5 -38.5t217.5 -131.5l-4 150h246v-1346h-246zM946 827q114 -153 170 -238v496q-91 122 -196 178.5t-238 56.5q-59 0 -101 -10
q21 -23 144 -186zM373 792q70 108 197 180l-85 113q-14 18 -93 127q-85 -88 -85 -215q0 -121 66 -205zM949 471l-248 328q-164 -86 -164 -228q0 -83 51.5 -129.5t138.5 -46.5q133 0 222 76zM676 -263q-62 0 -108.5 45.5t-46.5 110.5q0 64 45.5 110t109.5 46t110 -45t46 -111
q0 -69 -44.5 -112.5t-111.5 -43.5z" />
    <glyph glyph-name="sanuktaorya" horiz-adv-x="1438" 
d="M1077 190l-850 178l-55 139l112 104q-115 67 -166.5 160t-51.5 234q0 152 76 280t214 199.5t310 71.5q119 0 215 -32.5t199 -114.5l-3 127h246v-1346h-246zM544 540l533 -120v702q-159 198 -393 198q-112 0 -197.5 -43t-132.5 -118.5t-47 -161.5q0 -165 148 -227l209 194
l167 -178zM657 -263q-62 0 -108.5 45.5t-46.5 110.5q0 64 45.5 110t109.5 46t110 -45t46 -111q0 -69 -44.5 -112.5t-111.5 -43.5z" />
    <glyph glyph-name="hanuktaorya" horiz-adv-x="1374" 
d="M733 356v132q-73 -54 -166 -54h-2l-93 -93l658 -100l-34 -209l-838 117l-82 174l177 190q-41 43 -59 95q-228 152 -228 420q0 145 75.5 268.5t213 191.5t317.5 68q303 0 470 -154.5t167 -433.5q0 -88 -17 -174t-47 -153l-229 96q43 103 43 221q0 168 -103.5 265
t-289.5 97q-109 0 -191 -39.5t-126 -110.5t-44 -149q0 -88 32 -141q47 65 128 121l123 -154q-45 -25 -68.5 -56t-23.5 -75q0 -41 26.5 -63.5t71.5 -22.5q77 0 139 73v235h230v-582h-230zM667 -301q-62 0 -108.5 45.5t-46.5 110.5q0 64 45.5 110t109.5 46t110 -45t46 -111
q0 -69 -44.5 -112.5t-111.5 -43.5z" />
    <glyph glyph-name="yyanuktaorya" horiz-adv-x="1622" 
d="M403 541l-87 -80q42 -41 42 -109q0 -65 -43.5 -103.5t-109.5 -38.5q-82 0 -128 46.5t-46 121.5q0 52 19 92.5t68 90.5t141 119q-105 139 -105 325q0 151 75.5 279t214 200t312.5 72q121 0 222 -36.5t201 -119.5l-3 136h245v-917q95 -24 151 -92.5t56 -152.5
q0 -132 -113 -202l177 -43l-60 -215l-510 149l49 190l97 -22q127 6 127 92q0 39 -24 61.5t-64 22.5q-47 0 -87.5 -21.5t-99.5 -70.5q-100 -82 -175 -113.5t-173 -31.5q-166 0 -265 98t-104 273zM754 770q-129 -82 -129 -215q0 -69 39 -112.5t108 -43.5q47 0 96.5 18
t139.5 92q53 43 89.5 65t78.5 35v500q-163 211 -404 211q-112 0 -197.5 -43t-132.5 -118.5t-47 -161.5q0 -106 50 -183l171 117zM790 -263q-62 0 -108.5 45.5t-46.5 110.5q0 64 45.5 110t109.5 46t110 -45t46 -111q0 -69 -44.5 -112.5t-111.5 -43.5z" />
    <glyph glyph-name="wanuktaorya" horiz-adv-x="1298" 
d="M883 190v122q-63 -35 -121 -50t-127 -15q-165 0 -262 76.5t-97 224.5q0 56 21 128q-225 150 -225 460q0 113 41 232.5t114 220.5l203 -115q-58 -86 -85.5 -165t-27.5 -179q0 -165 109 -256.5t315 -91.5q127 0 188.5 22t61.5 74q0 35 -36 53.5t-103 18.5q-95 0 -203 -43
l-88 172q86 31 162 49q106 26 160.5 47t72 42t17.5 52q0 36 -28 56t-87 20q-71 0 -106 -24.5t-35 -67.5q0 -22 6 -37l-215 -47q-10 22 -17.5 57t-7.5 62q0 120 102 194t271 74q178 0 270.5 -70t92.5 -180q0 -83 -35.5 -136.5t-108.5 -92.5q162 -61 162 -217
q0 -137 -119 -214v-456h-235zM883 503v70q-59 -8 -150 -8q-112 0 -218 22q-3 -19 -3 -39q0 -112 145 -112q57 0 106.5 12.5t119.5 54.5zM647 -263q-62 0 -108.5 45.5t-46.5 110.5q0 64 45.5 110t109.5 46t110 -45t46 -111q0 -69 -44.5 -112.5t-111.5 -43.5z" />
    <glyph glyph-name="rephorya" 
d="M-355 1772l216 -64l-62 -164l-391 137l37 229l575 158l52 -180z" />
    <glyph glyph-name="kasubscriptorya" 
d="M-199 -373v258q0 51 -4 73t-17.5 35t-39.5 13q-25 0 -38.5 -13t-18.5 -34.5t-5 -69.5v-262h-223v74q-18 -7 -57 -7q-117 0 -192.5 68t-75.5 190q0 110 71 179t185 69q127 0 204 -88q69 88 185 88q113 0 181.5 -64t68.5 -173v-336h-224zM-592 22q-33 0 -51.5 -18.5
t-18.5 -53.5q0 -38 20 -57.5t50 -19.5q32 0 51 19.5t19 53.5q0 35 -19.5 55.5t-50.5 20.5z" />
    <glyph glyph-name="khasubscriptorya" 
d="M-642 -332q-101 86 -101 227q0 127 101.5 215t266.5 88q35 0 45 -2l131 -47q-28 -46 -28 -86q0 -31 17.5 -47t47.5 -16q29 0 53 16v174h197v-731h-197v402q-26 -9 -61 -9q-95 0 -155.5 44.5t-69.5 121.5q-82 -4 -123 -41.5t-41 -97.5q0 -31 13 -59q61 36 128 36
q106 0 165.5 -55t59.5 -150q0 -92 -60 -148t-165 -56q-104 0 -164.5 54t-60.5 152v8q0 3 1 7zM-420 -291q-25 0 -40 -15.5t-15 -42.5t16 -42t39 -15q27 0 42.5 15t15.5 42q0 28 -15.5 43t-42.5 15z" />
    <glyph glyph-name="gasubscriptorya" 
d="M-624 -332q-101 86 -101 227q0 76 41 146t124.5 115.5t197.5 45.5q136 0 257 -81l-4 69h197v-731h-197v454q-111 107 -239 107q-89 0 -141 -38t-52 -103q0 -31 13 -59q61 36 129 36q106 0 165.5 -55t59.5 -150q0 -93 -60.5 -148.5t-164.5 -55.5t-165 54t-61 152v8
q0 3 1 7zM-401 -291q-25 0 -40.5 -15.5t-15.5 -42.5t16.5 -42t39.5 -15q26 0 41.5 15t15.5 42q0 28 -15.5 43t-41.5 15z" />
    <glyph glyph-name="ghasubscriptorya" 
d="M-109 -541l2 13q-32 -25 -75 -25q-63 0 -92 62q-53 -62 -148 -62q-79 0 -128.5 52.5t-49.5 137.5q0 6 1 12v12q-112 96 -112 244q0 129 96 213t261 84q135 0 248 -76l-3 64h197v-731h-197zM-109 -383v302q-106 101 -239 101q-61 0 -101.5 -19.5t-57.5 -48.5t-17 -63
q0 -31 9 -55q26 27 56 51l107 -107q-37 -28 -53.5 -55t-16.5 -61q0 -58 37 -58q35 0 35 49v74h178v-74q0 -26 7.5 -37.5t25.5 -11.5q17 0 30 13z" />
    <glyph glyph-name="ngasubscriptorya" 
d="M-266 -97l110 -110l-47 -35q49 -48 49 -119q0 -89 -66 -140.5t-181 -51.5q-121 0 -190 53.5t-76 153.5q-117 88 -117 241q0 138 106 222.5t299 84.5q145 0 250 -48q52 36 127 36q89 0 147 -52.5t58 -137.5t-55.5 -137t-149.5 -52q-84 0 -139.5 45t-62.5 123
q-67 41 -177 41q-108 0 -163.5 -38t-55.5 -105q0 -21 7 -44q24 25 61 50l90 -99q-32 -23 -48 -48t-16 -58q0 -40 28 -64t77 -24q88 0 88 47q0 17 -13 30l-53 -40l-90 94zM-2 51q-26 0 -38.5 -15.5t-12.5 -35.5q0 -25 14.5 -38.5t36.5 -13.5q27 0 40 15t13 37
q0 24 -14.5 37.5t-38.5 13.5z" />
    <glyph glyph-name="casubscriptorya" 
d="M-535 -335q-104 87 -104 230q0 84 45.5 155.5t131.5 111.5t200 40q133 0 220.5 -43t128 -117.5t40.5 -173.5q0 -90 -25 -161l-178 51q13 42 13 94q0 80 -51.5 124t-147.5 44q-92 0 -142.5 -38.5t-50.5 -102.5q0 -33 14 -59q56 36 132 36q107 0 166 -55.5t59 -149.5
q0 -93 -60.5 -148.5t-164.5 -55.5q-67 0 -118 23.5t-79.5 69.5t-28.5 113v12zM-311 -291q-25 0 -40.5 -16t-15.5 -42q0 -27 16.5 -42t39.5 -15q27 0 42 15t15 42q0 28 -15 43t-42 15z" />
    <glyph glyph-name="chasubscriptorya" 
d="M-277 -485q-47 -39 -88 -53.5t-88 -14.5q-80 0 -119.5 34.5t-39.5 96.5q0 50 41 82q-23 2 -45 2l20 94q71 -7 124 -37q-2 4 -7 18q-78 38 -116 90t-38 123q0 113 96.5 182.5t272.5 69.5q196 0 300.5 -85.5t104.5 -241.5q0 -51 -10 -109l-170 33q4 17 4 44q0 99 -64 143
t-171 44q-92 0 -141.5 -26t-49.5 -72q0 -29 18 -50q61 66 167 66q93 0 150.5 -47t57.5 -129q0 -30 -9 -54q65 -8 99.5 -45t34.5 -93q0 -62 -39.5 -97.5t-117.5 -35.5q-54 0 -93.5 15t-83.5 53zM-276 -295q30 0 45.5 16t15.5 41q0 28 -18 42.5t-43 14.5q-31 0 -47.5 -16
t-16.5 -41q0 -29 18 -43t46 -14zM-353 -407q-34 34 -75 34q-18 0 -30.5 -7.5t-12.5 -25.5q0 -31 45 -31q38 0 73 30zM-201 -405q22 -20 37 -26t35 -6q21 0 33 8.5t12 22.5q0 33 -45 33q-37 0 -72 -32z" />
    <glyph glyph-name="jasubscriptorya" 
d="M-480 -178q-63 54 -63 130q0 99 87.5 158.5t244.5 59.5q102 0 236 -17v-526h-224v360h-28q-97 0 -97 -59q0 -44 60 -59l6 -1v-6q0 -119 -78 -183t-221 -64q-150 0 -233.5 77.5t-83.5 206.5q0 191 217 336l137 -151q-127 -72 -127 -185q0 -47 24.5 -74.5t73.5 -27.5
q46 0 69 25z" />
    <glyph glyph-name="jhasubscriptorya" 
d="M-68 -553l-155 61q-64 -61 -170 -61q-104 0 -164.5 54t-60.5 152v14q-101 90 -101 228q0 127 102 215t267 88q35 0 47 -2l129 -47q-29 -44 -29 -86q0 -31 16 -47t46 -16q34 0 48.5 16t14.5 47q0 35 -22 78l168 53q38 -74 38 -147q0 -195 -243 -195q-99 0 -162 44t-72 122
q-80 -5 -122 -41t-42 -98q0 -31 13 -59q61 36 129 36q101 0 161.5 -51t63.5 -144l160 -46zM-395 -291q-25 0 -40.5 -16.5t-15.5 -41.5q0 -27 16.5 -42t39.5 -15q27 0 42 15t15 42q0 28 -15 43t-42 15z" />
    <glyph glyph-name="ttasubscriptorya" 
d="M-592 -337q-106 89 -106 232q0 76 41 146.5t122.5 115.5t192.5 45q131 0 247 -76l-3 64h202v-350h-202v81q-106 99 -228 99q-86 0 -137 -37.5t-51 -103.5q0 -36 15 -62q61 39 132 39q107 0 166.5 -55t59.5 -150q0 -93 -61 -148.5t-165 -55.5q-70 0 -122.5 25.5t-77.5 73
t-25 107.5v10zM-369 -291q-24 0 -39.5 -15.5t-15.5 -42.5t16 -42t39 -15q27 0 42.5 15t15.5 42q0 28 -15.5 43t-42.5 15z" />
    <glyph glyph-name="tthasubscriptorya" 
d="M-250 -461q-166 0 -261 90.5t-95 241.5q0 150 97 240.5t259 90.5q167 0 263 -90.5t96 -240.5q0 -155 -95.5 -243.5t-263.5 -88.5zM-250 8q-65 0 -106 -37.5t-41 -99.5q0 -66 39 -102t108 -36t109.5 37.5t40.5 100.5t-40.5 100t-109.5 37z" />
    <glyph glyph-name="ddasubscriptorya" 
d="M-160 -97l111 -110l-47 -35q49 -48 49 -119q0 -89 -66.5 -140.5t-181.5 -51.5q-121 0 -189.5 53.5t-75.5 153.5q-118 90 -118 241q0 136 104.5 221.5t297.5 85.5q215 0 326.5 -92t111.5 -270q0 -64 -15 -127l-184 39q8 29 8 67q0 97 -63.5 149t-186.5 52q-105 0 -160 -38
t-55 -105q0 -21 7 -44q24 25 61 50l90 -99q-31 -23 -47 -48t-16 -58q0 -40 27.5 -64t76.5 -24q88 0 88 47q0 17 -12 29l-53 -39l-90 94z" />
    <glyph glyph-name="ddhasubscriptorya" 
d="M246 -553q-255 0 -431.5 56t-266 165t-89.5 254q0 134 79.5 216.5t215.5 82.5q116 0 194.5 -67t78.5 -177q0 -116 -66 -179t-180 -63q-5 0 -11 1h-11q129 -99 493 -99zM-329 -92q27 -7 57 -7q96 0 96 76q0 32 -19 51t-51 19q-41 0 -63.5 -27.5t-22.5 -75.5q0 -18 3 -36z
" />
    <glyph glyph-name="nnasubscriptorya" 
d="M-109 -541v500q-48 43 -105.5 66.5t-111.5 23.5q-72 0 -79 -45h14q99 0 188 -41l-63 -125q-62 22 -125 22q-110 0 -135 -73q62 18 131 18q64 0 119.5 -21t84.5 -61t29 -96q0 -84 -64.5 -132t-189.5 -48q-128 0 -212.5 73.5t-84.5 210.5q0 158 134 231q-7 31 -7 58
q0 79 61.5 130.5t170.5 51.5q133 0 248 -76l-3 64h197v-731h-197zM-526 -341q8 -32 36.5 -50.5t73.5 -18.5q42 0 58 10t16 27q0 45 -82 45q-51 0 -102 -13z" />
    <glyph glyph-name="tasubscriptorya" 
d="M-969 86q87 -122 199.5 -192t230.5 -82q-39 56 -39 120q0 100 76 160.5t199 60.5q136 0 212.5 -67t76.5 -177q0 -133 -113.5 -207.5t-321.5 -74.5q-232 0 -400.5 86.5t-289.5 261.5zM-328 -177q105 23 105 91q0 30 -19.5 47.5t-54.5 17.5q-37 0 -57.5 -20.5t-20.5 -49.5
q0 -52 47 -86z" />
    <glyph glyph-name="thasubscriptorya" 
d="M-550 -242q-76 -74 -141.5 -101.5t-144.5 -27.5q-134 0 -207 70.5t-73 191.5q0 122 76 193t206 71q80 0 145 -28t142 -102q75 74 140.5 102t146.5 28q135 0 207.5 -71.5t72.5 -190.5q0 -124 -75 -194t-207 -70q-85 0 -150 29t-138 100zM-422 -106q44 -44 75.5 -59.5
t67.5 -15.5q41 0 66 18t25 54q0 34 -24.5 54t-70.5 20q-65 0 -139 -71zM-677 -110q-44 43 -75.5 59t-66.5 16q-37 0 -62.5 -16.5t-25.5 -55.5q0 -34 24 -54t66 -20q35 0 67.5 16.5t72.5 54.5z" />
    <glyph glyph-name="dasubscriptorya" 
d="M-41 -248q8 29 8 67q0 98 -61 149.5t-182 51.5q-111 0 -163.5 -39.5t-52.5 -103.5q0 -32 14 -58q29 37 64 64l103 -96q-25 -18 -38 -34.5t-13 -39.5q0 -22 13 -34.5t36 -12.5q30 0 59 22v156h176v-385h-176v65q-38 -18 -88 -18q-74 0 -120 32.5t-61 91.5
q-153 94 -153 265q0 136 104.5 221.5t297.5 85.5q214 0 323 -91.5t109 -270.5q0 -64 -15 -127z" />
    <glyph glyph-name="dhasubscriptorya" 
d="M-109 -541l3 49q-85 -61 -205 -61q-143 0 -226.5 73t-83.5 199q0 70 34.5 129t95.5 101l-119 141l159 114l297 -368l-147 -113l-81 96q-52 -34 -52 -94q0 -46 33.5 -73t95.5 -27q120 0 196 88v477h197v-731h-197z" />
    <glyph glyph-name="nasubscriptorya" 
d="M-332 -373v334q-180 -8 -251 -123q61 -31 61 -105q0 -57 -35.5 -87.5t-104.5 -30.5q-72 0 -113.5 43.5t-41.5 117.5q0 101 65.5 185.5t183 132t261.5 47.5q113 0 192 -14v-500h-217z" />
    <glyph glyph-name="pasubscriptorya" 
d="M-109 -541l2 41q-74 -53 -182 -53q-104 0 -170 44.5t-84 128.5q-168 106 -168 285q0 129 96 213t261 84q135 0 248 -76l-3 64h197v-731h-197zM-109 -295v214q-106 101 -239 101q-61 0 -101.5 -19.5t-57.5 -48.5t-17 -63q0 -47 20 -79q29 42 64 75l114 -98
q-45 -45 -45 -86q0 -34 24 -55t68 -21q105 0 170 80z" />
    <glyph glyph-name="phasubscriptorya" 
d="M-109 -541l2 41q-74 -53 -182 -53q-104 0 -170 44.5t-84 128.5q-168 106 -168 285q0 129 96 213t261 84q135 0 248 -76l-3 64h197v-15q33 15 76 15q86 0 139 -52.5t53 -146.5q0 -89 -52 -142.5t-142 -53.5q-38 0 -74 13v-349h-197zM135 45q-25 0 -38 -15t-13 -37
q0 -26 14.5 -39.5t36.5 -13.5q26 0 38.5 16t12.5 37q0 24 -13.5 38t-37.5 14zM-109 -295v214q-106 101 -239 101q-61 0 -101.5 -19.5t-57.5 -48.5t-17 -63q0 -47 20 -79q29 42 64 75l114 -98q-45 -45 -45 -86q0 -34 24 -55t68 -21q105 0 170 80z" />
    <glyph glyph-name="basubscriptorya" 
d="M-334 -373v149q-39 -27 -84.5 -43t-107.5 -16q-305 0 -305 274q0 64 18 140l211 -17q-10 -50 -10 -98q0 -119 106 -119q48 0 87.5 16t84.5 58v156h219v-500h-219z" />
    <glyph glyph-name="bhasubscriptorya" 
d="M-278 -383q-71 5 -112.5 42t-41.5 101q0 45 20 98l142 -24q-13 -30 -13 -56q0 -21 11 -33t30 -12h4v111h154v-109q0 -140 -76.5 -214t-214.5 -74q-115 0 -185.5 60t-74.5 169q-54 42 -83.5 101.5t-29.5 119.5q0 140 113.5 222.5t321.5 82.5q229 0 352 -93t123 -265
q0 -48 -8.5 -87.5t-32.5 -86.5l104 -109l-164 -114l-141 178q51 77 51 166q0 229 -282 229q-131 0 -196.5 -37t-65.5 -108q0 -16 5 -33q24 27 40 41l94 -80q-27 -35 -38 -59.5t-11 -53.5q0 -100 114 -100q57 0 91 27z" />
    <glyph glyph-name="masubscriptorya" 
d="M-332 -373v334q-17 2 -57 2q-36 0 -78 -5q57 -64 57 -139q0 -98 -64.5 -151t-184.5 -53q-114 0 -180 54.5t-66 141.5q0 101 83 171q-56 14 -104 18l37 165q136 -12 245 -67q104 43 263 43q65 0 143.5 -7t122.5 -16v-491h-217zM-643 -83q-40 -16 -57 -41t-17 -51
q0 -25 17 -40t43 -15q67 0 67 60q0 53 -53 87z" />
    <glyph glyph-name="rasubscriptorya" 
d="M-334 -9v156h219v-367h-948v211h729z" />
    <glyph glyph-name="lasubscriptorya" 
d="M-193 -373v278q0 56 -15 78.5t-44 22.5t-44 -26t-15 -71v-282h-217v291q0 45 -13.5 66.5t-42.5 21.5q-71 0 -71 -123q0 -110 39 -228l-209 -40q-49 150 -49 284q0 140 77 220.5t191 80.5q68 0 116.5 -21.5t86.5 -68.5q32 42 81 66t105 24q82 0 138.5 -38t80 -92
t23.5 -161v-84h184v-198h-402z" />
    <glyph glyph-name="llasubscriptorya" 
d="M-403 110q32 42 81 66t105 24q82 0 138.5 -38t80 -92t23.5 -161v-282h-218v278q0 56 -15 78.5t-44 22.5t-44 -26t-15 -71v-282h-217v291q0 45 -13.5 66.5t-42.5 21.5q-71 0 -71 -123q0 -110 39 -228l-209 -40q-49 150 -49 284q0 140 77 220.5t191 80.5q68 0 116.5 -21.5
t86.5 -68.5z" />
    <glyph glyph-name="shasubscriptorya" 
d="M-109 -541v500q-48 43 -105.5 66.5t-111.5 23.5q-34 0 -55 -11q58 -17 117 -57l-103 -100q-52 28 -110 28q-47 0 -76 -21t-29 -54q0 -23 13 -45q22 28 70.5 47.5t99.5 19.5q106 0 165.5 -55t59.5 -150q0 -93 -60.5 -148.5t-164.5 -55.5q-96 0 -155 46t-69 129
q-61 33 -97 90t-36 126q0 74 45 129.5t127 75.5q10 74 71 116.5t159 42.5q133 0 248 -76l-3 64h197v-731h-197zM-401 -291q-25 0 -40.5 -16.5t-15.5 -41.5q0 -27 16.5 -42t39.5 -15q26 0 41.5 15t15.5 42q0 28 -15.5 43t-41.5 15z" />
    <glyph glyph-name="ssasubscriptorya" 
d="M-109 -541l2 55q-82 -67 -202 -67q-104 0 -170 44t-84 129q-168 106 -168 285q0 129 96 213t260 84q152 0 269 -83l-3 71h197v-731h-197zM-258 -89l149 -202v202q-101 100 -235 109q43 -49 86 -109zM-438 -84q-22 27 -55 75q-52 -34 -52 -102q0 -45 21 -79q43 57 100 89z
M-218 -360l-117 147q-56 -32 -56 -86q0 -35 23 -57.5t65 -22.5q47 0 85 19z" />
    <glyph glyph-name="sasubscriptorya" 
d="M-109 -541l-507 86l-43 96l65 57q-111 75 -111 211q0 128 96 210.5t257 82.5q133 0 246 -76l-3 64h197v-731h-197zM-365 -325l256 -42v286q-106 101 -235 101q-82 0 -128 -35.5t-46 -87.5q0 -59 45 -91l117 103l123 -137z" />
    <glyph glyph-name="hasubscriptorya" 
d="M-233 -367v53q-22 -6 -50 -6h-7q-4 0 -9 1l-65 -60l407 -43l-18 -131l-510 53l-54 115l89 90q-99 28 -148 89t-49 144q0 116 103 190t286 74q210 0 319 -87t109 -253q0 -55 -14 -118l-183 45q7 35 7 53q0 184 -242 184q-209 0 -209 -98q0 -32 20 -52q11 45 62 95l94 -68
q-31 -36 -31 -63q0 -37 52 -37q23 0 41 9v132h155v-311h-155z" />
    <glyph glyph-name="kassasubscriptorya" 
d="M-109 -541l2 55q-82 -67 -202 -67q-114 0 -179 53t-73 152q-25 -18 -60 -50q19 -22 19 -55q0 -46 -29.5 -68t-79.5 -22q-51 0 -79.5 28.5t-28.5 83.5q0 41 31 79.5t103 88.5q-46 72 -46 168q0 129 96 213t260 84q152 0 269 -83l-3 71h197v-731h-197zM-258 -89l149 -202
v202q-101 100 -235 109q43 -49 86 -109zM-438 -84q-18 22 -55 76q-54 -35 -54 -103q0 -35 11 -61l117 65zM-218 -360l-117 147q-56 -32 -56 -86q0 -35 23 -57.5t65 -22.5q48 0 85 19z" />
    <glyph glyph-name="tarasubscriptorya" 
d="M-176 -541q-232 0 -418 60t-356 179l110 158q201 -127 338 -165t324 -38h28v398q-125 -5 -186 -80q62 -29 62 -105q0 -57 -35.5 -87.5t-104.5 -30.5q-72 0 -113.5 44t-41.5 119q0 89 59.5 162.5t166 115.5t232.5 42q100 0 179 -18v-754h-244z" />
    <glyph glyph-name="yapostorya" horiz-adv-x="881" 
d="M524 190v658q-64 -33 -151 -33q-149 0 -227 98t-78 291q0 151 34 338l254 -19q-30 -148 -30 -289q0 -99 24 -143.5t78 -44.5q59 0 96 29v461h246v-1346h-246z" />
    <glyph glyph-name="kattaorya" horiz-adv-x="1475" 
d="M1143 825q16 66 16 141q0 158 -117.5 256t-308.5 98q-125 0 -222 -40.5t-150.5 -111.5t-53.5 -151v-11q-1 -2 -1 -4q0 -3 1 -7q65 51 164 51q109 0 176 -96q42 53 88.5 74.5t112.5 21.5q112 0 188 -70t76 -194v-314q40 -16 86 -46l-2 65h203v-350h-203v80
q-108 100 -227 100q-86 0 -137.5 -36.5t-51.5 -104.5q0 -35 14 -62q61 39 134 39q106 0 165.5 -55t59.5 -150q0 -93 -60.5 -148.5t-164.5 -55.5q-67 0 -118 23.5t-79.5 69.5t-28.5 113v10q-106 87 -106 232q0 91 53 166h-143v108q-26 -6 -51 -6q-95 0 -166.5 62.5
t-87.5 174.5q-135 120 -135 329q0 149 83 272t235 190.5t349 67.5q204 0 356 -66t236 -196t84 -313q0 -105 -27 -220zM471 841q-70 0 -70 -86q0 -46 20 -71t50 -25q37 0 54.5 24t17.5 64q0 45 -18.5 69.5t-53.5 24.5zM745 446q53 33 127 46v202q0 58 -4.5 83t-18.5 39.5
t-40 14.5q-25 0 -39.5 -14.5t-19.5 -39.5t-5 -79v-252zM926 6q-25 0 -40.5 -15.5t-15.5 -42.5t16.5 -42t39.5 -15q27 0 42 15t15 42q0 28 -15 43t-42 15z" />
    <glyph glyph-name="kassaorya" horiz-adv-x="1565" 
d="M1204 190l2 142q-153 -162 -389 -162q-189 0 -297 97.5t-116 279.5q-48 -41 -91 -83q45 -41 45 -112q0 -65 -43.5 -103.5t-109.5 -38.5q-82 0 -128 46.5t-46 123.5q0 47 18.5 87t67.5 91.5t139 122.5q-102 136 -102 324q0 152 76 280t214 199.5t310 71.5
q132 0 236.5 -38.5t217.5 -131.5l-4 150h246v-1346h-246zM1034 827q114 -153 170 -238v498q-94 123 -198 178t-236 55q-59 0 -101 -10q21 -23 144 -186zM481 847q86 62 181 120l-89 118q-13 17 -93 127q-85 -88 -85 -215q0 -103 47 -178zM1037 471l-248 328
q-164 -86 -164 -228q0 -83 51.5 -129.5t138.5 -46.5q133 0 222 76z" />
    <glyph glyph-name="kasaorya" horiz-adv-x="1475" 
d="M1143 825q16 66 16 141q0 158 -117.5 256t-308.5 98q-125 0 -222 -40.5t-150.5 -111.5t-53.5 -151v-11q-1 -2 -1 -4q0 -3 1 -7q65 51 164 51q109 0 176 -96q42 53 88.5 74.5t112.5 21.5q112 0 188 -70t76 -194v-1028h-240l-507 86l-43 96l64 57q-110 75 -110 211
q0 101 61 175.5t169 102.5v15q-26 -6 -51 -6q-93 0 -162 54t-89 149q-138 120 -138 332q0 149 83 272t235 190.5t349 67.5q204 0 356 -66t236 -196t84 -313q0 -105 -27 -220zM471 845q-70 0 -70 -75q0 -40 19.5 -62t50.5 -22q72 0 72 77q0 40 -19 61t-53 21zM745 481
q66 -18 129 -61l-2 65v209q0 58 -4.5 83t-18.5 39.5t-40 14.5q-25 0 -39.5 -14.5t-19.5 -39.5t-5 -79v-217zM616 -30l256 -42v286q-106 101 -235 101q-81 0 -127.5 -36t-46.5 -87q0 -59 45 -91l117 103l123 -137z" />
    <glyph glyph-name="gadaorya" horiz-adv-x="1567" 
d="M1225 -244v66q-38 -19 -88 -19q-150 0 -183 125q-151 91 -151 264q0 118 78.5 198.5t222.5 101.5v608q-172 220 -442 220q-114 0 -196 -45t-120.5 -114t-38.5 -146q0 -73 24 -127l3 4q13 17 52.5 47t96.5 48t127 18q98 0 181.5 -38.5t135.5 -119t52 -192.5
q0 -157 -101 -253.5t-268 -96.5q-156 0 -257.5 86t-110.5 238q-176 152 -176 405q0 141 74 262.5t206.5 190.5t296.5 69q137 0 247 -36t218 -122l-4 138h246v-1050q286 -57 286 -349q0 -58 -14 -127l-184 39q8 29 8 67q0 99 -62 150t-182 51q-104 0 -159.5 -38t-55.5 -105
q0 -31 13 -57q27 33 65 63l102 -96q-24 -18 -37.5 -35t-13.5 -39t13 -34.5t36 -12.5q30 0 60 23v155h176v-385h-176zM610 796q-69 0 -103 -39.5t-34 -101.5q0 -68 37 -104.5t100 -36.5q65 0 101.5 39t36.5 102q0 66 -37 103.5t-101 37.5z" />
    <glyph glyph-name="ngakaorya" horiz-adv-x="1679" 
d="M988 1257q-134 63 -286 63q-189 0 -292 -91.5t-103 -241.5q0 -66 18 -117q56 47 134 47q95 0 150 -77q59 77 159 77q47 0 89.5 -21t73.5 -66q35 46 79 66.5t104 20.5q107 0 180.5 -68t73.5 -196v-463h-227v387q0 50 -4.5 73.5t-18.5 37.5t-39 14q-24 0 -38.5 -15
t-19.5 -40.5t-5 -81.5v-375h-228v113q-18 -2 -38 -2q-87 0 -142 80q-61 -80 -162 -80q-112 0 -177.5 82t-65.5 235v15q-137 154 -137 368q0 160 76.5 287.5t221.5 197.5t343 70q111 0 203 -19.5t196 -62.5q86 62 209 62q142 0 234.5 -83.5t92.5 -226.5q0 -138 -89.5 -223.5
t-237.5 -85.5q-89 0 -163 33.5t-119.5 104t-45.5 171.5v16q0 8 1 15zM1315 1343q-56 0 -84.5 -33.5t-28.5 -83.5q0 -57 29.5 -86.5t83.5 -29.5q51 0 81.5 31.5t30.5 84.5q0 54 -30 85.5t-82 31.5zM461 725q-60 0 -60 -117q0 -57 13.5 -88t50.5 -31q55 0 55 115q0 61 -16 91
t-43 30zM752 725q-60 0 -60 -115q0 -56 13.5 -86.5t46.5 -30.5q59 0 59 113q0 59 -16.5 89t-42.5 30z" />
    <glyph glyph-name="ngakhaorya" horiz-adv-x="1845" 
d="M612 263q-68 -89 -184 -89q-126 0 -196 91t-70 263q0 78 18 139q-114 144 -114 338q0 155 76.5 281t219 196t332.5 70q54 0 103 -4l170 -72q-60 -93 -60 -192q0 -71 38.5 -107.5t103.5 -36.5q70 0 112 38v358h242l-1 -25q53 25 116 25q76 0 142.5 -32.5t107 -99.5
t40.5 -159q0 -127 -82 -208t-213 -81q-58 0 -106 18v-784h-246v760q-52 -19 -123 -19q-157 0 -257.5 93t-100.5 247q0 24 3 46q-176 -7 -276 -98t-100 -222q0 -83 29 -145q45 18 100 18q110 0 175 -88q67 88 184 88q73 0 132 -35.5t95.5 -114.5t36.5 -198q0 -165 -69 -256.5
t-195 -91.5q-116 0 -183 89zM1499 1347q-47 0 -73.5 -27.5t-26.5 -74.5q0 -49 26 -75t74 -26q46 0 73 27t27 74q0 48 -27.5 75t-72.5 27zM440 665q-73 0 -73 -141q0 -146 69 -146q74 0 74 142q0 145 -70 145zM782 665q-73 0 -73 -141q0 -146 69 -146q74 0 74 142
q0 145 -70 145z" />
    <glyph glyph-name="ngagaorya" horiz-adv-x="1841" 
d="M612 263q-68 -89 -184 -89q-126 0 -196 91t-70 263q0 78 18 139q-114 144 -114 338q0 153 77.5 280.5t219 199t321.5 71.5q140 0 251 -36t226 -123l-4 139h242l-1 -25q53 25 115 25q125 0 208 -79t83 -212q0 -127 -82 -208t-213 -81q-58 0 -106 18v-784h-246v921
q-186 209 -450 209q-185 0 -292.5 -91t-107.5 -232q0 -83 29 -145q45 18 100 18q110 0 175 -88q67 88 184 88q73 0 132 -35.5t95.5 -114.5t36.5 -198q0 -165 -69 -256.5t-195 -91.5q-116 0 -183 89zM1495 1347q-47 0 -73.5 -27t-26.5 -75q0 -49 26 -75t74 -26q46 0 73 27
t27 74q0 48 -27.5 75t-72.5 27zM782 665q-73 0 -73 -141q0 -146 69 -146q74 0 74 142q0 145 -70 145zM440 665q-73 0 -73 -141q0 -146 69 -146q74 0 74 142q0 145 -70 145z" />
    <glyph glyph-name="ngaghaorya" horiz-adv-x="1772" 
d="M1096 190v31q-59 -51 -133 -51q-117 0 -170 101q-76 -101 -218 -101q-146 0 -231.5 91.5t-85.5 243.5q0 41 5 79q-197 163 -197 421q0 151 75.5 279t214 200t312.5 72q124 0 224.5 -37.5t198.5 -118.5l-4 136h242l-1 -23q48 23 104 23q61 0 115.5 -18.5t96.5 -55.5
t66.5 -91.5t24.5 -125.5q0 -127 -82.5 -208t-218.5 -81q-56 0 -101 18v-784h-237zM1425 1347q-47 0 -73.5 -27.5t-26.5 -74.5q0 -49 26 -75t74 -26q47 0 74 27.5t27 73.5q0 47 -27.5 74.5t-73.5 27.5zM365 803q50 61 133 120l151 -155q-160 -106 -160 -250q0 -61 25.5 -98
t73.5 -37q49 0 69.5 31t20.5 100v145h240v-158q0 -60 17.5 -89t61.5 -29q30 0 51 16t39 41v670q-165 210 -405 210q-110 0 -194.5 -41.5t-132.5 -117.5t-48 -164q0 -114 58 -194z" />
    <glyph glyph-name="ngakassaorya" horiz-adv-x="1583" 
d="M1092 -244l1 56q-81 -68 -202 -68q-113 0 -178.5 52.5t-74.5 152.5q-30 -24 -59 -50q19 -22 19 -55q0 -46 -29.5 -68t-79.5 -22q-51 0 -79.5 29t-28.5 83q0 41 31 80t103 88q-46 72 -46 168q0 77 48 141q-125 33 -191.5 118.5t-69.5 211.5q-190 147 -190 377
q0 144 77.5 260.5t221 181t333.5 64.5q199 0 340 -63q76 43 181 43q88 0 163 -35.5t119.5 -106t44.5 -168.5q0 -138 -89.5 -223.5t-237.5 -85.5q-146 0 -237 83t-91 226q0 32 5 64q-81 30 -202 30q-177 0 -282 -76t-105 -196q0 -77 35 -133q58 72 147 131l132 -162
q-134 -73 -134 -194q0 -75 49.5 -121.5t133.5 -46.5q87 0 126.5 27t39.5 67q0 38 -28 60l-87 -76l-154 149l312 297l165 -164l-66 -58q87 -77 87 -202q0 -86 -64 -165q54 -18 93 -43l-2 73h196v-731h-196zM1219 1343q-54 0 -83.5 -32t-29.5 -85q0 -58 29.5 -87t83.5 -29
q51 0 81.5 32t30.5 84q0 54 -30 85.5t-82 31.5zM1008 120q26 -34 84 -115v201q-102 101 -236 110q41 -46 86 -108zM780 190l-41 52q-13 17 -32 46q-54 -34 -54 -102q0 -35 11 -61zM982 -63l-118 147q-55 -31 -55 -87q0 -34 23.5 -56.5t64.5 -22.5q52 0 85 19z" />
    </font>
</defs>
</svg>
