<?xml version="1.0" standalone="no"?>
<!DOCTYPE svg PUBLIC "-//W3C//DTD SVG 1.1//EN" "http://www.w3.org/Graphics/SVG/1.1/DTD/svg11.dtd" >
<svg xmlns="http://www.w3.org/2000/svg" xmlns:xlink="http://www.w3.org/1999/xlink" version="1.1">
<metadata>
Created by FontForge 20190801 at Thu May 21 16:31:21 2020
 By www-data
Copyright 2020 Google LLC. All Rights Reserved.
</metadata>
<defs>
<font id="NotoSansTaiThamVF" horiz-adv-x="0" >
  <font-face 
    font-family="NotoSansTaiThamVF"
    font-weight="400"
    font-stretch="normal"
    units-per-em="1000"
    panose-1="0 0 0 0 0 0 0 0 0 0"
    ascent="800"
    descent="-200"
    bbox="-834 -520 2698 1059"
    underline-thickness="50"
    underline-position="-100"
    unicode-range="U+000D-2219"
  />
<missing-glyph horiz-adv-x="619" 
d="M104 0v714h410v-714h-410zM154 51h309v612h-309v-612z" />
    <glyph glyph-name="uni1AA9" unicode="&#x1aa8;&#x1aa8;" horiz-adv-x="466" 
d="M118 0v605h76v-605h-76zM271 0v605h76v-605h-76z" />
    <glyph glyph-name="wa_yaLowtham" unicode="&#x1a45;&#x1a3f;" horiz-adv-x="243" 
d="M-313 -454q-64 0 -102 20t-54.5 50.5t-16.5 61.5q0 27 11.5 55.5t26.5 59.5q25 49 56 84.5t76 35.5q43 0 73 -33t55 -82q16 -32 27.5 -63.5t11.5 -60.5q0 -33 -16 -62.5t-52 -47.5t-96 -18zM-316 -393q41 0 70.5 16t29.5 49q0 16 -8 45.5t-22 60.5t-32 52t-39 21
q-20 0 -38.5 -21.5t-32.5 -52t-22 -60t-8 -44.5q0 -32 29.5 -49t72.5 -17zM2 -452q-32 0 -56.5 11t-44.5 29l28 65q15 -16 31 -25t37 -9q39 0 66.5 31.5t27.5 109.5v774h75v-747q0 -65 -12 -110t-38 -76q-22 -27 -51.5 -40t-62.5 -13z" />
    <glyph glyph-name="uni1A55_uni1A20_uni1A70" unicode="&#x1a55;&#x1a20;&#x1a70;" horiz-adv-x="2017" 
d="M981 -466q-73 0 -121 35.5t-69 100.5q-7 22 -11 51.5t-4 54.5v982q0 70 28 126.5t80 87.5q23 14 46.5 21t50.5 7q22 0 38 -2.5t27 -4.5l-22 -70q-11 5 -23.5 7t-23.5 2q-56 0 -91 -43.5t-35 -114.5v-1016q0 -55 18 -89.5t47 -50.5t61 -16q11 0 23.5 2.5t23.5 6.5l22 -70
q-11 -2 -27 -4.5t-38 -2.5zM1196 -5q-40 32 -74.5 69.5t-55 87t-20.5 114.5q0 79 32.5 142t89.5 99.5t131 36.5q73 0 129.5 -36.5t88.5 -99.5t32 -142q0 -65 -21 -114.5t-55 -87t-74 -69.5l-49 61q53 33 86.5 86t33.5 124q0 57 -20.5 104t-58.5 75t-92 28t-93.5 -28
t-60.5 -75t-21 -104q0 -71 34 -124t87 -86zM1502 421q26 49 75.5 86t128.5 37q75 0 129.5 -36t83.5 -98.5t29 -140.5q0 -79 -29.5 -142t-83.5 -100t-128 -37q-35 0 -65.5 9t-58.5 25l40 58q18 -10 38.5 -15.5t43.5 -5.5q53 0 89.5 27.5t56 74t19.5 103.5t-19.5 104t-56 75
t-89.5 28q-45 0 -82 -23.5t-57 -69.5t-17 -114zM570 159q-23 -76 -81.5 -122.5t-146.5 -46.5q-72 0 -125 36t-82 99t-29 142t29 141.5t82 99t125 36.5q87 0 145.5 -46t82.5 -122l-74 -26q-16 54 -55 89.5t-99 35.5q-48 0 -83.5 -28.5t-55 -75.5t-19.5 -104t19.5 -104
t55 -74.5t83.5 -27.5q62 0 101 35.5t54 91.5zM339 487q-51 0 -95 19t-77 53.5t-51 80.5t-18 100q0 76 35.5 134.5t95.5 92.5t132 34q65 0 119 -26.5t93 -68.5l-42 -62q-32 38 -76.5 62.5t-94.5 24.5q-52 0 -94 -25.5t-66 -70t-24 -100.5t24.5 -99t63 -67.5t78.5 -24.5z" />
    <glyph glyph-name="uni1A55_uni1A20_uni1A6F" unicode="&#x1a55;&#x1a20;&#x1a6f;" horiz-adv-x="2554" 
d="M1505 -466q-73 0 -121 35.5t-69 100.5q-7 22 -11 51.5t-4 54.5v982q0 70 28 126.5t80 87.5q23 14 46.5 21t50.5 7q22 0 38 -2.5t27 -4.5l-22 -70q-11 5 -23.5 7t-23.5 2q-56 0 -91 -43.5t-35 -114.5v-1016q0 -55 18 -89.5t47 -50.5t61 -16q11 0 23.5 2.5t23.5 6.5l22 -70
q-11 -2 -27 -4.5t-38 -2.5zM1738 -5q-40 32 -74.5 69.5t-55 87t-20.5 114.5q0 79 32.5 142t89.5 99.5t131 36.5q73 0 129.5 -36.5t88.5 -99.5t32 -142q0 -65 -21 -114.5t-55 -87t-74 -69.5l-49 61q53 33 86.5 86t33.5 124q0 57 -20.5 104t-58.5 75t-92 28t-93.5 -28
t-60.5 -75t-21 -104q0 -71 34 -124t87 -86zM2044 421q26 49 75.5 86t128.5 37q75 0 129.5 -36t83.5 -98.5t29 -140.5q0 -79 -29.5 -142t-83.5 -100t-128 -37q-35 0 -65.5 9t-58.5 25l40 58q18 -10 38.5 -15.5t43.5 -5.5q53 0 89.5 27.5t56 74t19.5 103.5t-19.5 104t-56 75
t-89.5 28q-45 0 -82 -23.5t-57 -69.5t-17 -114zM477 409q-28 29 -60.5 47t-70.5 18q-53 0 -91 -28.5t-58.5 -76t-20.5 -105.5q0 -63 22 -110t57.5 -73t77.5 -26q33 0 59.5 14t45 35t27.5 44t7 41q-24 0 -48 -12t-44 -30q-22 -20 -37.5 -46t-25.5 -54l-67 19q20 48 50 88.5
t68 63.5q30 18 62.5 24t62.5 -1q19 -4 29.5 -11t15.5 -16q13 -22 5 -61.5t-34 -74.5q-29 -41 -73.5 -64.5t-99.5 -23.5q-72 0 -125.5 36t-83 99t-29.5 142t30.5 141.5t85.5 99t128 36.5q55 0 99.5 -20.5t79.5 -54.5zM1056 409q-28 29 -60.5 47t-70.5 18q-53 0 -91 -28.5
t-58.5 -76t-20.5 -105.5q0 -63 22 -110t57.5 -73t77.5 -26q33 0 59.5 14t45 35t27.5 44t7 41q-24 0 -48 -12t-44 -30q-22 -20 -37.5 -46t-25.5 -54l-67 19q20 48 50 88.5t68 63.5q30 18 62.5 24t62.5 -1q19 -4 29.5 -11t15.5 -16q13 -22 5 -61.5t-34 -74.5
q-29 -41 -73.5 -64.5t-99.5 -23.5q-72 0 -125.5 36t-83 99t-29.5 142t30.5 141.5t85.5 99t128 36.5q55 0 99.5 -20.5t79.5 -54.5z" />
    <glyph glyph-name="uni1A55_uni1A20_uni1A72" unicode="&#x1a55;&#x1a20;&#x1a72;" horiz-adv-x="2013" 
d="M968 -466q-73 0 -121 35.5t-69 100.5q-7 22 -11 51.5t-4 54.5v982q0 70 28 126.5t80 87.5q23 14 46.5 21t50.5 7q22 0 38 -2.5t27 -4.5l-22 -70q-11 5 -23.5 7t-23.5 2q-56 0 -91 -43.5t-35 -114.5v-1016q0 -55 18 -89.5t47 -50.5t61 -16q11 0 23.5 2.5t23.5 6.5l22 -70
q-11 -2 -27 -4.5t-38 -2.5zM1182 -5q-40 32 -74.5 69.5t-55 87t-20.5 114.5q0 79 32.5 142t89.5 99.5t131 36.5q73 0 129.5 -36.5t88.5 -99.5t32 -142q0 -65 -21 -114.5t-55 -87t-74 -69.5l-49 61q53 33 86.5 86t33.5 124q0 57 -20.5 104t-58.5 75t-92 28t-93.5 -28
t-60.5 -75t-21 -104q0 -71 34 -124t87 -86zM1488 421q26 49 75.5 86t128.5 37q75 0 129.5 -36t83.5 -98.5t29 -140.5q0 -79 -29.5 -142t-83.5 -100t-128 -37q-35 0 -65.5 9t-58.5 25l40 58q18 -10 38.5 -15.5t43.5 -5.5q53 0 89.5 27.5t56 74t19.5 103.5t-19.5 104t-56 75
t-89.5 28q-45 0 -82 -23.5t-57 -69.5t-17 -114zM333 -10q-72 0 -124.5 36t-81.5 99t-29 142t29 141.5t81.5 99t124.5 36.5q82 0 129 -42.5t80 -118.5l-56 -28q-14 52 -53.5 86t-99.5 34q-48 0 -83.5 -28.5t-54.5 -75.5t-19 -104t19 -104t54.5 -74.5t83.5 -27.5
q62 0 101.5 35.5t54.5 91.5l72 -29q-22 -76 -81 -122.5t-147 -46.5zM467 416v268q0 71 -19 127.5t-59 88.5t-103 31q-43 -1 -76 -15t-56 -28l-38 71q36 20 80 31t88 11q53 0 99.5 -18t82.5 -58t56 -105t20 -159v-278z" />
    <glyph glyph-name="uni1A55_uni1A20_uni1A71" unicode="&#x1a55;&#x1a20;&#x1a71;" horiz-adv-x="2006" 
d="M965 -466q-73 0 -121 35.5t-69 100.5q-7 22 -11 51.5t-4 54.5v982q0 70 28 126.5t80 87.5q23 14 46.5 21t50.5 7q22 0 38 -2.5t27 -4.5l-22 -70q-11 5 -23.5 7t-23.5 2q-56 0 -91 -43.5t-35 -114.5v-1016q0 -55 18 -89.5t47 -50.5t61 -16q11 0 23.5 2.5t23.5 6.5l22 -70
q-11 -2 -27 -4.5t-38 -2.5zM1185 9q-40 32 -74.5 69.5t-55 87t-20.5 114.5q0 79 32.5 142t89.5 99.5t131 36.5q73 0 129.5 -36.5t88.5 -99.5t32 -142q0 -65 -21 -114.5t-55 -87t-74 -69.5l-49 61q53 33 86.5 86t33.5 124q0 57 -20.5 104t-58.5 75t-92 28t-93.5 -28
t-60.5 -75t-21 -104q0 -71 34 -124t87 -86zM1491 435q26 49 75.5 86t128.5 37q75 0 129.5 -36t83.5 -98.5t29 -140.5q0 -79 -29.5 -142t-83.5 -100t-128 -37q-35 0 -65.5 9t-58.5 25l40 58q18 -10 38.5 -15.5t43.5 -5.5q53 0 89.5 27.5t56 74t19.5 103.5t-19.5 104t-56 75
t-89.5 28q-45 0 -82 -23.5t-57 -69.5t-17 -114zM199 950l51 53q33 -27 70 -73t73.5 -104t66.5 -122q21 -44 38.5 -88t31.5 -99t23 -133l-64 -31q-3 44 -9 84t-17.5 82.5t-33.5 92.5q-38 89 -97.5 180t-132.5 158zM561 159q-22 -76 -81 -122.5t-147 -46.5q-72 0 -124.5 36
t-81.5 99t-29 142t29 141.5t81.5 99t124.5 36.5q57 0 96.5 -21t68.5 -57t55 -82l-64 -31q-19 52 -56.5 87t-99.5 35q-48 0 -83.5 -28.5t-54.5 -75.5t-19 -104t19 -104t54.5 -74.5t83.5 -27.5q62 0 101.5 35.5t54.5 91.5z" />
    <glyph glyph-name="uni1A55_uni1A20_uni1A6E" unicode="&#x1a55;&#x1a20;&#x1a6e;" horiz-adv-x="2026" 
d="M948 -466q-73 0 -121 35.5t-69 100.5q-7 22 -11 51.5t-4 54.5v982q0 70 28 126.5t80 87.5q23 14 46.5 21t50.5 7q22 0 38 -2.5t27 -4.5l-22 -70q-11 5 -23.5 7t-23.5 2q-56 0 -91 -43.5t-35 -114.5v-1016q0 -55 18 -89.5t47 -50.5t61 -16q11 0 23.5 2.5t23.5 6.5l22 -70
q-11 -2 -27 -4.5t-38 -2.5zM1210 -5q-40 32 -74.5 69.5t-55 87t-20.5 114.5q0 79 32.5 142t89.5 99.5t131 36.5q73 0 129.5 -36.5t88.5 -99.5t32 -142q0 -65 -21 -114.5t-55 -87t-74 -69.5l-49 61q53 33 86.5 86t33.5 124q0 57 -20.5 104t-58.5 75t-92 28t-93.5 -28
t-60.5 -75t-21 -104q0 -71 34 -124t87 -86zM1516 421q26 49 75.5 86t128.5 37q75 0 129.5 -36t83.5 -98.5t29 -140.5q0 -79 -29.5 -142t-83.5 -100t-128 -37q-35 0 -65.5 9t-58.5 25l40 58q18 -10 38.5 -15.5t43.5 -5.5q53 0 89.5 27.5t56 74t19.5 103.5t-19.5 104t-56 75
t-89.5 28q-45 0 -82 -23.5t-57 -69.5t-17 -114zM477 409q-28 29 -60.5 47t-70.5 18q-53 0 -91 -28.5t-58.5 -76t-20.5 -105.5q0 -63 22 -110t57.5 -73t77.5 -26q33 0 59.5 14t45 35t27.5 44t7 41q-24 0 -48 -12t-44 -30q-22 -20 -37.5 -46t-25.5 -54l-67 19q20 48 50 88.5
t68 63.5q30 18 62.5 24t62.5 -1q19 -4 29.5 -11t15.5 -16q13 -22 5 -61.5t-34 -74.5q-29 -41 -73.5 -64.5t-99.5 -23.5q-72 0 -125.5 36t-83 99t-29.5 142t30.5 141.5t85.5 99t128 36.5q55 0 99.5 -20.5t79.5 -54.5z" />
    <glyph glyph-name="signI_maiKangLaitham" unicode="&#x1a65;&#x1a58;" 
d="M-392 599q-37 0 -61.5 31.5t-25.5 81.5q0 45 19 79.5t53 54.5t78 20q42 0 75 -18.5t52 -50.5t19 -73q0 -39 -16 -71.5t-40 -49.5l-44 41q41 32 41 80q0 38 -26 63.5t-64 25.5q-41 0 -67.5 -30.5t-24.5 -74.5l-18 2q27 30 58 30q29 0 48.5 -20.5t19.5 -49.5
q0 -30 -22 -50.5t-54 -20.5zM-389 642q12 0 19.5 8t7.5 19t-7.5 18.5t-18.5 7.5t-19 -7.5t-8 -18.5t7.5 -19t18.5 -8zM12.2949 808.418l-9.63379 -17.6611q-7.22461 7.22461 -20.0693 12.4434q-12.8447 5.21777 -28.0977 5.21777q-17.6621 0 -31.3096 -8.02832
q-13.6475 -8.02734 -13.6475 -24.8857q0 -15.2539 20.0703 -22.4785q20.0693 -7.22559 45.7588 -7.22559v-37.7314q-14.4502 0 -29.7031 -3.6123t-25.6895 -10.8379q-10.4365 -7.22461 -10.4365 -19.2666q0 -9.63379 12.8447 -15.2539q12.8447 -5.61914 32.915 -5.61914
q11.2393 0 19.668 2.00684q8.42969 2.00684 16.457 5.21875v-30.5068q-6.42188 -11.2393 -20.4707 -18.8652q-14.0488 -7.62695 -37.3301 -7.62695q-34.5205 0 -56.1953 18.0635q-21.6758 18.0625 -21.6758 46.9629q0 20.0703 10.4365 34.5205t30.5059 23.2812
q-21.6758 8.02734 -31.3086 23.2812q-9.63379 15.2529 -9.63379 34.5195q0 24.8867 12.8447 41.3438q12.8447 16.458 32.915 24.8867q20.0693 8.42969 40.1396 8.42969q24.8867 0 45.3574 -12.4434q20.4717 -12.4434 25.2881 -38.1328z" />
    <glyph glyph-name="maiSat_maiSattham" unicode="&#x1a62;&#x1a76;" 
d="M-460 747l-23 58l276 123l25 -55zM-418 613l-23 58l276 123l25 -55z" />
    <glyph glyph-name="maiSat_tone1tham" unicode="&#x1a62;&#x1a75;" 
d="M-433 608l-23 58l240 107l25 -55zM-456 701v135h60v-108z" />
    <glyph glyph-name="signI_maiKangtham" unicode="&#x1a65;&#x1a74;" 
d="M-423 530q-37 0 -61.5 31.5t-25.5 81.5q0 45 19 79.5t53 54.5t78 20q42 0 75 -18.5t52 -50.5t19 -73q0 -39 -16 -71.5t-40 -49.5l-44 41q41 32 41 80q0 38 -26 63.5t-64 25.5q-41 0 -67.5 -30.5t-24.5 -74.5l-18 2q27 30 58 30q29 0 48.5 -20.5t19.5 -49.5
q0 -30 -22 -50.5t-54 -20.5zM-420 573q12 0 19.5 8t7.5 19t-7.5 18.5t-18.5 7.5t-19 -7.5t-8 -18.5t7.5 -19t18.5 -8zM-140 749q-27 0 -50 13.5t-36.5 35.5t-13.5 49q0 41 29.5 69.5t70.5 28.5q29 0 52.5 -13t37.5 -35t14 -50q0 -27 -14 -49.5t-37.5 -35.5t-52.5 -13z
M-139 803q20 0 33.5 12.5t13.5 30.5q0 19 -13.5 32t-33.5 13q-18 0 -31.5 -13t-13.5 -32q0 -18 13.5 -30.5t31.5 -12.5z" />
    <glyph glyph-name="signO_maiSattham.blwf1" unicode="&#x1a6b;&#x1a62;" 
d="M-226 835l-30 49l142 92l28 -48zM-194 589q-10 47 -31.5 85.5t-41.5 58.5l5 10q7 -28 -3.5 -48.5t-30.5 -31.5t-43 -11q-39 0 -66 25t-27 62q0 38 27 64t66 26q44 0 83.5 -28.5t70.5 -76.5q17 -25 28.5 -53t18.5 -59zM-341 702q17 0 27.5 11t10.5 27q0 17 -10.5 28
t-27.5 11q-16 0 -27.5 -11t-11.5 -28q0 -16 11.5 -27t27.5 -11z" />
    <glyph glyph-name="maiKang_maiSattham.blwf1" unicode="&#x1a74;&#x1a62;" 
d="M-238 836l-30 49l142 92l28 -48zM-309 616q-27 0 -50 13.5t-36.5 35.5t-13.5 49q0 41 29.5 69.5t70.5 28.5q29 0 52.5 -13t37.5 -35t14 -50q0 -27 -14 -49.5t-37.5 -35.5t-52.5 -13zM-308 670q20 0 33.5 12.5t13.5 30.5q0 19 -13.5 32t-33.5 13q-18 0 -31.5 -13
t-13.5 -32q0 -18 13.5 -30.5t31.5 -12.5z" />
    <glyph glyph-name="signOaAbove_tone1tham.blwf1" unicode="&#x1a73;&#x1a75;" 
d="M-465 581l-20 63q43 15 73 39.5t45.5 58t15.5 76.5h68q0 -42 15.5 -76t45.5 -58.5t73 -39.5l-20 -63q-55 17 -91.5 48.5t-56.5 77.5q-19 -46 -55.5 -77.5t-92.5 -48.5zM-196 760v195h65v-195h-65z" />
    <glyph glyph-name="signO_tone1tham.blwf1" unicode="&#x1a6b;&#x1a75;" 
d="M-239 612q-10 47 -31.5 85.5t-41.5 58.5l5 10q7 -28 -3.5 -48.5t-30.5 -31.5t-43 -11q-39 0 -66 25t-27 62q0 38 27 64t66 26q44 0 83.5 -28.5t70.5 -76.5q17 -25 28.5 -53t18.5 -59zM-386 725q17 0 27.5 11t10.5 27q0 17 -10.5 28t-27.5 11q-16 0 -27.5 -11t-11.5 -28
q0 -16 11.5 -27t27.5 -11zM-217 808v179h61v-179h4h-65z" />
    <glyph glyph-name="maiKang_tone1tham.blwf1" unicode="&#x1a74;&#x1a75;" 
d="M-334 603q-32 0 -58.5 15.5t-42 41.5t-15.5 57q0 32 15.5 58t42 41.5t58.5 15.5q34 0 61.5 -15t43.5 -41t16 -59q0 -31 -16.5 -57t-43.5 -41.5t-61 -15.5zM-333 660q26 0 42.5 16t16.5 40t-16.5 41.5t-42.5 17.5q-24 0 -40.5 -17.5t-16.5 -41.5t16.5 -40t40.5 -16z
M-196 760v195h65v-195h-65z" />
    <glyph glyph-name=".notdef" horiz-adv-x="619" 
d="M104 0v714h410v-714h-410zM154 51h309v612h-309v-612z" />
    <glyph glyph-name=".null" 
 />
    <glyph glyph-name="nonmarkingreturn" horiz-adv-x="333" 
 />
    <glyph glyph-name="NULL" 
 />
    <glyph glyph-name="NULL" 
 />
    <glyph glyph-name="CR" unicode="&#xd;" horiz-adv-x="391" 
 />
    <glyph glyph-name="space" unicode=" " horiz-adv-x="391" 
 />
    <glyph glyph-name="uni00A0" unicode="&#xa0;" horiz-adv-x="391" 
 />
    <glyph glyph-name="uni1A20" unicode="&#x1a20;" horiz-adv-x="1058" 
d="M228 -5q-40 32 -74.5 69.5t-55 87t-20.5 114.5q0 79 32.5 142t89.5 99.5t131 36.5q73 0 129.5 -36.5t88.5 -99.5t32 -142q0 -65 -21 -114.5t-55 -87t-74 -69.5l-49 61q53 33 86.5 86t33.5 124q0 57 -20.5 104t-58.5 75t-92 28t-93.5 -28t-60.5 -75t-21 -104
q0 -71 34 -124t87 -86zM534 421q26 49 75.5 86t128.5 37q75 0 129.5 -36t83.5 -98.5t29 -140.5q0 -79 -29.5 -142t-83.5 -100t-128 -37q-35 0 -65.5 9t-58.5 25l40 58q18 -10 38.5 -15.5t43.5 -5.5q53 0 89.5 27.5t56 74t19.5 103.5t-19.5 104t-56 75t-89.5 28
q-45 0 -82 -23.5t-57 -69.5t-17 -114z" />
    <glyph glyph-name="uni1A21" unicode="&#x1a21;" horiz-adv-x="613" 
d="M73 429q38 53 90.5 84t119.5 31q71 0 122.5 -34t80 -92t28.5 -129q0 -60 -19.5 -113.5t-55 -95.5t-83.5 -66t-104 -24q-46 0 -87 17t-66.5 49t-25.5 76q0 16 3.5 31.5t9.5 28.5q20 42 62.5 67t94.5 25q64 0 122 -37t104.5 -101t76.5 -146l-65 -30q-26 72 -62.5 127.5
t-80.5 87t-93 31.5q-45 0 -68.5 -24.5t-23.5 -53.5q0 -31 27 -54.5t79 -23.5q56 0 95.5 27.5t61 76.5t21.5 112q0 62 -19.5 106t-54.5 67.5t-82 23.5q-48 0 -85.5 -23.5t-70.5 -67.5z" />
    <glyph glyph-name="uni1A22" unicode="&#x1a22;" horiz-adv-x="608" 
d="M267 -10q-48 0 -90 17.5t-68 50t-26 77.5q0 11 2 23.5t7 25.5q17 46 59 70.5t97 24.5q65 0 123.5 -35t105.5 -97.5t77 -146.5l-68 -31q-27 70 -62.5 124t-77.5 85t-91 31q-43 0 -69 -22t-26 -51q0 -31 31 -53.5t81 -22.5q54 0 94 28t62.5 77.5t22.5 114.5q0 64 -20.5 107
t-56 65t-81.5 22q-40 0 -71 -16t-50 -47l-79 8v217q0 104 21.5 174t59 111.5t86 60t102.5 18.5q44 0 85.5 -9.5t76.5 -29.5l-41 -66q-19 11 -49.5 22.5t-74.5 12.5q-65 1 -107 -29.5t-62 -82.5t-22 -114v-232l-4 11q23 29 58 45t81 16q68 0 118.5 -34t78.5 -92t28 -130
q0 -60 -19 -113.5t-54 -95t-83 -65.5t-105 -24z" />
    <glyph glyph-name="uni1A23" unicode="&#x1a23;" horiz-adv-x="659" 
d="M228 -5q-40 32 -74.5 69.5t-55 87t-20.5 114.5q0 79 32.5 142t89.5 99.5t131 36.5q73 0 129.5 -36.5t88.5 -99.5t32 -142q0 -65 -21 -114.5t-55 -87t-74 -69.5l-49 61q53 33 86.5 86t33.5 124q0 57 -20.5 104t-58.5 75t-92 28t-93.5 -28t-60.5 -75t-21 -104
q0 -71 34 -124t87 -86z" />
    <glyph glyph-name="uni1A24" unicode="&#x1a24;" horiz-adv-x="701" 
d="M89 267v369q0 86 22 154t63 115t100 71.5t134 24.5q93 0 173 -51l-45 -69q-30 24 -65.5 36t-74.5 13q-75 1 -127 -29t-78.5 -89.5t-26.5 -147.5v-257l-20 15q39 65 96 93.5t118 28.5q78 0 136.5 -36.5t91 -99t32.5 -141.5q0 -66 -21 -115.5t-55.5 -87t-77.5 -69.5l-49 61
q56 33 90.5 86t34.5 125q0 57 -21 104t-62 75t-102 28q-59 0 -101.5 -28t-65 -75t-22.5 -104q0 -72 34.5 -125t91.5 -86l-50 -61q-42 32 -76.5 69.5t-55.5 87t-21 115.5z" />
    <glyph glyph-name="uni1A25" unicode="&#x1a25;" horiz-adv-x="1177" 
d="M653 113l47 155q-3 -68 17 -114t57 -69.5t82 -23.5q53 0 89.5 28t56 75t19.5 104t-19.5 103.5t-56 74t-89.5 27.5q-23 0 -43.5 -5.5t-38.5 -15.5l-40 58q28 17 58.5 25.5t65.5 8.5q74 0 128 -37t83.5 -100t29.5 -142q0 -78 -29 -140t-83.5 -98.5t-129.5 -36.5
q-79 0 -128.5 37t-75.5 86zM476 500l47 60q64 -59 101 -115t55 -104t23 -83.5t5 -55.5q0 -65 -25.5 -112.5t-68 -73.5t-95.5 -26q-22 0 -49.5 7.5t-53 29.5t-43.5 65q-21 -49 -65 -75t-98 -26q-64 0 -100 33t-36 77q0 20 7 38t20 33q18 23 48 42t64.5 36.5t65.5 35.5
q41 23 70 53t29 76q0 20 -8.5 42t-34.5 22q-19 0 -32.5 -16t-30.5 -57l-52 20q3 26 -8.5 40t-29.5 14q-14 0 -26 -10t-12 -32q0 -14 7.5 -32t29.5 -41l-58 -23q-23 29 -35 55.5t-12 49.5q0 27 14 49t38 35t52 13q29 0 49.5 -13.5t30.5 -34.5q17 28 38.5 38t43.5 10
q35 0 58 -18t35 -47t12 -61q0 -28 -8.5 -53.5t-22.5 -47.5q-22 -32 -54.5 -56t-67.5 -43q-37 -19 -70.5 -36.5t-54 -35.5t-20.5 -42q0 -16 14 -30.5t52 -14.5q53 0 83 32.5t47 87.5l67 -24q15 -46 43 -71t66 -25q25 0 50.5 12.5t43 41.5t17.5 78q0 47 -17.5 101t-52 107.5
t-85.5 100.5z" />
    <glyph glyph-name="uni1A26" unicode="&#x1a26;" horiz-adv-x="694" 
d="M151 141q0 -21 12 -39.5t26 -27.5l-21 -8q30 49 55 75.5t49.5 37.5t51.5 11q56 0 84.5 -32t28.5 -74q0 -21 -8 -44.5t-25 -49.5l-72 15q9 14 20.5 33t11.5 37t-13.5 31t-33.5 13q-14 0 -29.5 -9t-35 -35t-45.5 -77l-74 15q-21 17 -40.5 51.5t-19.5 77.5q0 42 26 76t74 55
q-45 16 -72.5 49t-27.5 76q0 66 63 106t169 40q96 0 165.5 -36t107.5 -104t38 -164q0 -44 -6.5 -90.5t-16 -88.5t-18.5 -71l-78 18q9 26 18.5 62.5t16 79t6.5 84.5q0 116 -61.5 177.5t-169.5 61.5q-37 0 -73 -8t-59 -25.5t-23 -48.5q0 -39 40.5 -63.5t105.5 -31.5v-51
q-44 -2 -77 -14.5t-51 -35t-19 -54.5z" />
    <glyph glyph-name="uni1A27" unicode="&#x1a27;" horiz-adv-x="659" 
d="M297 -10q-68 0 -118.5 18.5t-78 52t-27.5 79.5q0 44 26 78t74 55q-45 16 -72.5 48.5t-27.5 75.5q0 44 29.5 77.5t81.5 52.5t119 19q86 0 147.5 -34t95.5 -98q16 -29 25.5 -65t9.5 -80q0 -77 -31.5 -139t-91.5 -99q-30 -19 -68.5 -30t-92.5 -11zM293 61q69 0 117.5 24
t71.5 78q10 22 15.5 50.5t5.5 59.5q0 98 -55.5 150t-150.5 52q-61 0 -103.5 -21.5t-42.5 -62.5q0 -39 41 -63.5t106 -31.5v-51q-66 -3 -106.5 -29t-40.5 -70q0 -45 40.5 -65t101.5 -20z" />
    <glyph glyph-name="uni1A28" unicode="&#x1a28;" horiz-adv-x="975" 
d="M653 -10q-82 0 -142 44t-75 127l53 106q-2 -77 20.5 -122t60.5 -64.5t82 -19.5q50 0 87.5 22t58.5 62.5t21 95.5q0 81 -42.5 125.5t-110.5 71.5q-41 17 -90 32.5t-102.5 38.5t-108.5 59q-37 25 -67 52t-51 56q-22 30 -34 63t-12 70q0 45 16.5 80.5t45 62t63.5 42.5
l49 -56q-23 -9 -45.5 -26.5t-36.5 -42.5t-14 -57q0 -38 20 -73.5t51.5 -65t63.5 -50.5q64 -43 130 -65.5t118 -41.5q53 -19 98 -43.5t77 -62.5q28 -31 44 -73t16 -96q0 -77 -32 -133.5t-87.5 -87t-124.5 -30.5zM254 -10q-73 0 -124.5 37.5t-77.5 100.5l71 27
q18 -43 51.5 -68.5t79.5 -25.5q48 0 83 27.5t54.5 74.5t19.5 104t-19.5 104t-54.5 75t-83 28q-42 0 -73 -22t-50 -57l-67 39q29 51 77.5 80.5t112.5 29.5q72 0 124.5 -36.5t81.5 -99t29 -141.5t-29 -142t-81.5 -99t-124.5 -36z" />
    <glyph glyph-name="uni1A29" unicode="&#x1a29;" horiz-adv-x="633" 
d="M266 -7q-71 18 -113 61t-60.5 99t-18.5 112q0 79 32 142t92 100t143 37q57 0 106 -18t78.5 -51t29.5 -78q0 -43 -27.5 -75.5t-72.5 -48.5q54 -31 79.5 -83t25.5 -109q0 -20 -3 -43t-9 -43l-74 14q5 23 6 42t1 29q0 76 -40 117.5t-111 48.5v51q65 6 106 30.5t41 63.5
q0 27 -20 45.5t-52 27.5t-68 9q-86 0 -135.5 -53.5t-49.5 -152.5q0 -169 145 -203z" />
    <glyph glyph-name="uni1A2A" unicode="&#x1a2a;" horiz-adv-x="713" 
d="M88 271l2 364q0 87 22 154.5t63.5 115t100 72t133.5 24.5q98 0 184 -51l-45 -69q-33 24 -71 36t-80 13q-75 1 -127 -29t-78.5 -90t-26.5 -148v-258l-18 26q32 44 72 69t85.5 35.5t91.5 10.5q65 0 116.5 -18.5t82 -52t30.5 -79.5q0 -42 -27.5 -74.5t-72.5 -48.5
q55 -31 80 -83t25 -111q0 -19 -3 -41.5t-9 -42.5l-74 14q5 23 6.5 42.5t1.5 34.5q0 71 -40.5 112t-111.5 48v51q65 6 106 30.5t41 61.5q0 29 -20.5 48t-54.5 28.5t-75 9.5q-64 0 -117.5 -25t-85 -73t-31.5 -117q0 -48 17 -89t46 -70t64 -42l-39 -69q-45 22 -82.5 60
t-59 93.5t-21.5 127.5z" />
    <glyph glyph-name="uni1A2B" unicode="&#x1a2b;" horiz-adv-x="1060" 
d="M734 -10q-77 0 -135.5 39.5t-72.5 114.5l48 64q7 -55 32 -87t59.5 -46t69.5 -14q55 0 92 26t56.5 71t19.5 102q0 86 -42.5 139.5t-113.5 80.5q-34 13 -74 22t-83 19.5t-88 27.5q-29 11 -57.5 26t-52.5 32q-52 38 -81.5 87.5t-29.5 103.5q0 43 17.5 78.5t46.5 62t63 41.5
l47 -48q-23 -9 -45.5 -27t-36.5 -44t-14 -59q0 -55 37.5 -96.5t90.5 -68.5q48 -25 100 -39t101 -26q53 -13 98 -29.5t83 -44.5q59 -44 85.5 -105t26.5 -129q0 -81 -31 -142.5t-86.5 -96.5t-129.5 -35zM297 -10q-68 0 -118.5 18.5t-78 52t-27.5 79.5q0 44 26 78t74 55
q-45 16 -72.5 48.5t-27.5 75.5q0 44 29.5 77.5t81.5 52.5t119 19q86 0 147.5 -34t95.5 -98q16 -29 25.5 -65t9.5 -80q0 -77 -31.5 -139t-91.5 -99q-30 -19 -68.5 -30t-92.5 -11zM293 61q69 0 117.5 24t71.5 78q10 22 15.5 50.5t5.5 59.5q0 98 -55.5 150t-150.5 52
q-61 0 -103.5 -21.5t-42.5 -62.5q0 -39 41 -63.5t106 -31.5v-51q-66 -3 -106.5 -29t-40.5 -70q0 -45 40.5 -65t101.5 -20z" />
    <glyph glyph-name="uni1A2C" unicode="&#x1a2c;" horiz-adv-x="1000" 
d="M895 -301q-13 -67 -65 -109t-137 -42h-397q-109 0 -162 73t-53 197v310l76 -85v-191q0 -72 6.5 -114t20.5 -63.5t35 -34.5q18 -11 39.5 -16t47.5 -5h371q48 0 77.5 11.5t46 35t24.5 59.5zM471 113l47 155q-3 -68 17 -114t57 -69.5t82 -23.5q53 0 89.5 28t56 75t19.5 104
t-19.5 103.5t-56 74t-89.5 27.5q-23 0 -43.5 -5.5t-38.5 -15.5l-40 58q28 17 58.5 25.5t65.5 8.5q74 0 128 -37t83.5 -100t29.5 -142q0 -78 -29 -140t-83.5 -98.5t-129.5 -36.5q-79 0 -128.5 37t-75.5 86zM283 -10q-73 0 -124.5 37.5t-77.5 100.5l71 27q18 -43 51.5 -68.5
t79.5 -25.5q48 0 83 27.5t54.5 74.5t19.5 104t-19.5 104t-54.5 75t-83 28q-42 0 -73 -22t-50 -57l-67 39q29 51 77.5 80.5t112.5 29.5q72 0 124.5 -36.5t81.5 -99t29 -141.5t-29 -142t-81.5 -99t-124.5 -36z" />
    <glyph glyph-name="uni1A2D" unicode="&#x1a2d;" horiz-adv-x="746" 
d="M498 549q61 -49 98 -105.5t54 -115.5t17 -115q0 -68 -22 -118.5t-60 -77.5t-87 -27q-19 0 -42 6.5t-46 25t-42 55.5q-27 -45 -62.5 -65.5t-79.5 -20.5t-78.5 18.5t-54.5 50.5t-20 72q0 47 28.5 86t79.5 63q-46 23 -67 55.5t-21 72.5q0 44 21 74t55 45.5t71 15.5
q38 0 69.5 -18t50.5 -60l-57 -42q-12 29 -29 39t-36 10q-26 0 -46.5 -16t-20.5 -48q0 -38 34.5 -65.5t96.5 -31.5v-63q-73 -9 -112 -43t-39 -74q0 -30 22 -50t55 -20q40 0 67.5 30t45.5 88l72 -27q13 -40 34 -66t52 -26q33 0 62 35.5t29 114.5q0 77 -37.5 157t-133.5 150z
" />
    <glyph glyph-name="uni1AE" unicode="&#x1a2e;" horiz-adv-x="684" 
d="M297 -453q-87 0 -139.5 27t-69.5 73q-4 10 -6 20.5t-2 22.5q0 47 27.5 81t71.5 52t91 18q26 0 55 -6t53 -19l-30 -62q-19 8 -39.5 12t-40.5 4q-46 0 -78 -22.5t-32 -54.5q0 -29 33.5 -52t109.5 -23q64 0 94 19.5t37 63.5q2 9 2.5 19.5t0.5 22.5v295l75 86v-356
q0 -91 -31.5 -141t-94.5 -69q-19 -5 -40.5 -8t-46.5 -3zM508 539q27 -37 49.5 -80t35.5 -90.5t13 -96.5q0 -38 -9 -74.5t-26 -68.5q-37 -67 -104.5 -104t-169.5 -36q-112 1 -167.5 44.5t-56.5 109.5q0 48 28.5 85t79.5 56q-46 23 -67 54.5t-21 70.5q0 43 21 73t54.5 46
t70.5 16q38 0 70 -18.5t51 -59.5l-57 -42q-12 28 -29 38.5t-36 10.5q-26 0 -46.5 -16.5t-20.5 -47.5q0 -38 34.5 -65.5t96.5 -31.5v-63q-67 -2 -109 -32t-42 -70q0 -20 13.5 -40t45.5 -33t87 -14q112 -1 171.5 55t59.5 155q0 74 -28.5 134.5t-63.5 103.5z" />
    <glyph glyph-name="uni1A2F" unicode="&#x1a2f;" horiz-adv-x="570" 
d="M69 -8l-15 68q69 17 133 40.5t114.5 55.5t80 74t29.5 97q0 68 -43.5 108t-111.5 40q-46 0 -82 -20t-64 -62l-58 47q35 51 89 78.5t119 27.5q73 0 124 -31t78.5 -81.5t27.5 -108.5q0 -77 -51.5 -143t-161.5 -113q61 -5 105.5 -26t81.5 -54t76 -74l-65 -47q-35 46 -74 77
t-85 46.5t-104 15.5q-28 0 -62.5 -3.5t-80.5 -11.5z" />
    <glyph glyph-name="uni1A30" unicode="&#x1a30;" horiz-adv-x="785" 
d="M476 500l47 60q64 -59 101 -115t55 -104t23 -83.5t5 -55.5q0 -65 -25.5 -112.5t-68 -73.5t-95.5 -26q-22 0 -49.5 7.5t-53 29.5t-43.5 65q-21 -49 -65 -75t-98 -26q-64 0 -100 33t-36 77q0 20 7 38t20 33q18 23 48 42t64.5 36.5t65.5 35.5q41 23 70 53t29 76
q0 20 -8.5 42t-34.5 22q-19 0 -32.5 -16t-30.5 -57l-52 20q3 26 -8.5 40t-29.5 14q-14 0 -26 -10t-12 -32q0 -14 7.5 -32t29.5 -41l-58 -23q-23 29 -35 55.5t-12 49.5q0 27 14 49t38 35t52 13q29 0 49.5 -13.5t30.5 -34.5q17 28 38.5 38t43.5 10q35 0 58 -18t35 -47t12 -61
q0 -28 -8.5 -53.5t-22.5 -47.5q-22 -32 -54.5 -56t-67.5 -43q-37 -19 -70.5 -36.5t-54 -35.5t-20.5 -42q0 -16 14 -30.5t52 -14.5q53 0 83 32.5t47 87.5l67 -24q15 -46 43 -71t66 -25q25 0 50.5 12.5t43 41.5t17.5 78q0 47 -17.5 101t-52 107.5t-85.5 100.5z" />
    <glyph glyph-name="uni1A31" unicode="&#x1a31;" horiz-adv-x="1162" 
d="M323 -10q-73 0 -128 37.5t-86 100.5t-31 139q0 79 29 141.5t83 99t129 36.5q72 0 123 -35t78.5 -93.5t27.5 -129.5q0 -25 -3.5 -50t-10.5 -53q-7 -29 -11 -46.5t-4 -24.5q0 -51 59 -51q31 0 47.5 14t16.5 37q0 7 -3.5 24.5t-11.5 46.5q-7 28 -10.5 53t-3.5 50
q0 72 28 130.5t79.5 93t122.5 34.5q75 0 129 -36.5t83 -99t29 -141.5q0 -76 -31 -139t-86.5 -100.5t-129.5 -37.5h-10.5h-11.5l11 71q63 0 102.5 26.5t58.5 73t19 106.5q0 57 -19.5 103.5t-57 74.5t-90.5 28q-68 0 -108 -49.5t-40 -140.5q0 -35 6.5 -61.5t10.5 -47.5
q5 -16 10 -36.5t5 -39.5q0 -50 -41 -79t-102 -29q-65 0 -103.5 32t-38.5 78q0 17 5 38t9 40q5 18 11.5 44t6.5 61q0 84 -36.5 137t-110.5 53q-53 0 -90.5 -28t-57 -74.5t-19.5 -103.5q0 -94 46.5 -150t128.5 -56l10 -71h-8.5h-9.5z" />
    <glyph glyph-name="uni1A32" unicode="&#x1a32;" horiz-adv-x="1016" 
d="M309 -10q-72 0 -123.5 36t-79.5 99t-28 142t28 141.5t79.5 99t123.5 36.5q71 0 122.5 -36.5t79.5 -99t28 -141.5t-28 -142t-79.5 -99t-122.5 -36zM309 61q48 0 82 27.5t51.5 74.5t17.5 104t-17.5 104t-51.5 75t-82 28t-82.5 -28t-52.5 -75t-18 -104t18 -104t52.5 -74.5
t82.5 -27.5zM492 421q26 49 75.5 86t128.5 37q75 0 129.5 -36t83.5 -98.5t29 -140.5q0 -79 -29.5 -142t-83.5 -100t-128 -37q-35 0 -65.5 9t-58.5 25l40 58q18 -10 38.5 -15.5t43.5 -5.5q53 0 89.5 27.5t56 74t19.5 103.5t-19.5 104t-56 75t-89.5 28q-45 0 -82 -23.5
t-57 -69.5t-17 -114z" />
    <glyph glyph-name="uni1A33" unicode="&#x1a33;" horiz-adv-x="782" 
d="M230 -10q-44 0 -80 21t-56.5 56.5t-20.5 79.5q0 90 90 135q-45 17 -67.5 44.5t-22.5 66.5q0 53 35.5 86.5t92.5 49t121 15.5q119 0 208 -51.5t132 -157.5q20 -48 30 -107t10 -120q0 -33 -2.5 -59t-6.5 -47l-80 -12q5 22 7.5 50t2.5 66q0 124 -35.5 205.5t-104 121.5
t-168.5 40q-71 0 -117.5 -20t-46.5 -62q0 -40 42 -62.5t112 -22.5v-59q-76 1 -115 -23t-39 -80q0 -40 20 -61.5t57 -21.5q36 0 54 22t26 74h57q8 -52 24.5 -74t44.5 -22q26 0 45.5 18.5t23.5 61.5l69 -18q-23 -133 -131 -133q-35 0 -61.5 15t-43.5 47q-17 -32 -44 -47
t-62 -15z" />
    <glyph glyph-name="uni1A34" unicode="&#x1a34;" horiz-adv-x="684" 
d="M176 539l72 -31q-35 -43 -63.5 -103.5t-28.5 -134.5q0 -99 59.5 -155t171.5 -55q55 1 87 14t45.5 33t13.5 40q0 40 -42 70t-109 32v63q62 4 96.5 31.5t34.5 65.5q0 31 -20.5 47.5t-46.5 16.5q-19 0 -36 -10.5t-29 -38.5l-57 42q20 41 51.5 59.5t69.5 18.5q37 0 70.5 -16
t54.5 -46t21 -73q0 -39 -20.5 -70.5t-67.5 -54.5q51 -19 79.5 -56t28.5 -85q-1 -66 -56.5 -109.5t-167.5 -44.5q-102 -1 -169.5 36t-104.5 104q-17 32 -26 68.5t-9 74.5q0 49 13.5 96.5t35.5 90.5t49 80z" />
    <glyph glyph-name="uni1A35" unicode="&#x1a35;" horiz-adv-x="693" 
d="M237 -11q-53 0 -88.5 35t-53 90t-17.5 113q0 65 20 122t56 101t85 69t108 25q77 0 137 -41.5t95 -112.5t35 -160q0 -63 -19.5 -118t-55.5 -89t-86 -34q-72 0 -110 78q-14 -37 -40.5 -57.5t-65.5 -20.5zM242 61q31 0 47 34.5t21 81.5h72q2 -48 19.5 -82t48.5 -34
q29 0 48.5 27.5t29 68.5t9.5 81q0 61 -22 114.5t-64 87t-103 33.5t-104 -34t-65.5 -88t-22.5 -113q0 -38 10 -79t29 -69.5t47 -28.5z" />
    <glyph glyph-name="uni1A36" unicode="&#x1a36;" horiz-adv-x="671" 
d="M375 114q57 1 101.5 -16.5t87.5 -52.5t93 -88l-65 -46q-41 45 -76.5 74.5t-71 44t-77.5 14.5q-47 0 -82 -15t-57 -31q-40 32 -74.5 69.5t-55 87t-20.5 114.5q0 78 32.5 140.5t89.5 98.5t131 36q69 0 123 -32.5t87.5 -88.5t38.5 -128l-78 -13q-2 53 -23 96.5t-58.5 69
t-89.5 25.5q-54 0 -93.5 -27.5t-60.5 -74t-21 -102.5q0 -63 28 -113t80 -89l-47 4q44 22 79.5 32.5t78.5 10.5z" />
    <glyph glyph-name="uni1A37" unicode="&#x1a37;" horiz-adv-x="659" 
d="M228 539l49 -61q-53 -33 -87 -86t-34 -124q0 -57 21 -104t60.5 -75t93.5 -28t92 28t58.5 75t20.5 104q0 71 -33.5 124t-86.5 86l49 61q40 -31 74 -69t55 -87t21 -115q0 -79 -32 -142t-88.5 -99.5t-129.5 -36.5q-74 0 -131 36.5t-89.5 99.5t-32.5 142q0 66 20.5 115t55 87
t74.5 69z" />
    <glyph glyph-name="uni1A38" unicode="&#x1a38;" horiz-adv-x="691" 
d="M719 1000q21 0 40 -3l-15 -72q-16 3 -30 3q-53 0 -82 -40t-29 -114v-459q0 -103 -31 -175.5t-89 -111t-140 -38.5q-65 0 -117 24t-87 65.5t-50 94.5q-5 18 -8 37.5t-3 40.5q0 56 19 110.5t49 101t64 77.5l51 -48q-45 -45 -75 -104t-30 -128q0 -57 22 -102t63.5 -71.5
t99.5 -26.5q63 0 104.5 29.5t61.5 85.5t20 134v448q0 74 23 128t66 84t103 30z" />
    <glyph glyph-name="uni1A39" unicode="&#x1a39;" horiz-adv-x="755" 
d="M226 -10q-44 0 -78.5 19t-54.5 52t-20 74q0 45 28.5 83.5t79.5 62.5q-46 23 -67 55.5t-21 72.5q0 44 21 74t54.5 45.5t70.5 15.5q39 0 70.5 -18t50.5 -60l-57 -42q-12 29 -29 39t-36 10q-26 0 -46.5 -16t-20.5 -48q0 -38 34.5 -65.5t96.5 -31.5v-63q-73 -9 -112 -43
t-39 -74q0 -30 22 -50.5t55 -20.5q40 0 67.5 30.5t45.5 88.5l71 -27q13 -40 34 -66t52 -26q29 0 49.5 21t34 55.5t19.5 74.5t6 77q0 47 -9 87t-25 67t-37 34q-28 -45 -28 -119q0 -61 27 -112t78 -91l18 -18q20 -13 41.5 -24.5t45.5 -21.5l-31 -67q-22 11 -43.5 22.5
t-41.5 24.5l-19 19q-69 51 -108.5 118t-39.5 143q0 31 6.5 62t18.5 57.5t29 45.5q13 14 26.5 21t29.5 7q31 0 56 -22.5t43 -59.5t27.5 -81.5t9.5 -87.5q0 -52 -12.5 -105.5t-36 -98t-58.5 -72t-80 -27.5q-18 0 -40.5 6.5t-45 25t-40.5 55.5q-27 -45 -62.5 -66t-79.5 -21z
" />
    <glyph glyph-name="uni1A3A" unicode="&#x1a3a;" horiz-adv-x="774" 
d="M314 581q79 0 146 -24.5t117.5 -70t79.5 -108.5q15 -31 24.5 -68.5t9.5 -82.5q0 -69 -22.5 -122t-61.5 -83t-89 -31q-24 0 -50.5 8t-49.5 29t-36 59q-31 -49 -73 -72.5t-88 -23.5q-36 0 -67 13.5t-50 39t-19 60.5q0 38 25 71.5t80 49.5q-43 17 -63 43t-20 60
q0 38 21 67.5t55 46.5t72 17q37 0 68.5 -19t50.5 -61l-58 -42q-11 29 -28.5 40t-35.5 11q-27 0 -47 -18.5t-20 -42.5q0 -29 31.5 -49.5t89.5 -22.5v-64q-72 -4 -108 -25t-36 -52q0 -22 18.5 -37t43.5 -15q38 0 76.5 32.5t61.5 85.5l67 -27q8 -40 29.5 -66t55.5 -26
q43 1 71 44.5t28 117.5q0 70 -26.5 123.5t-71.5 90t-102 55t-118 18.5q-30 0 -60.5 -5.5t-70.5 -20.5l-60 29v123q0 104 31 174t83.5 112t118 60.5t134.5 18.5q44 0 89 -11.5t94 -39.5l-45 -70q-25 17 -63 33.5t-89 17.5q-139 2 -207.5 -70t-69.5 -209l-1 -119l-21 20
q26 12 68.5 20t87.5 8z" />
    <glyph glyph-name="uni1A3B" unicode="&#x1a3b;" horiz-adv-x="703" 
d="M472 -6l-48 60q62 48 92 106t30 130q0 51 -12.5 92.5t-33 66t-46.5 24.5q-25 0 -40.5 -27t-26.5 -89h-72q-10 62 -26 89t-41 27t-46 -24.5t-33.5 -66t-12.5 -92.5q0 -72 30 -130t92 -106l-48 -60q-75 61 -113.5 138t-38.5 166q0 71 22 126.5t60 87.5t86 32q37 0 63 -19.5
t42 -57.5q16 38 42 57.5t63 19.5q49 0 86.5 -32t59.5 -87.5t22 -126.5q0 -89 -38.5 -166t-113.5 -138z" />
    <glyph glyph-name="uni1A3C" unicode="&#x1a3c;" horiz-adv-x="727" 
d="M88 291v345q0 86 22 154t63.5 115t100.5 71.5t134 24.5q106 0 199 -51l-45 -69q-36 24 -77.5 36t-88.5 13q-75 1 -127 -29.5t-78.5 -90t-26.5 -146.5v-247l-21 27q30 62 61.5 81t58.5 19q38 0 62.5 -20t37.5 -57q18 40 45 58.5t61 18.5q49 0 88.5 -33.5t63 -91
t23.5 -131.5q1 -67 -20.5 -124t-60.5 -101t-92 -73l-45 54q46 25 77 62t47 83t16 98q0 47 -13 89.5t-34.5 69.5t-49.5 27q-31 0 -48 -34t-19 -82h-73q-4 47 -18 81.5t-45 34.5q-27 0 -50 -28t-36.5 -71.5t-13.5 -88.5q0 -71 34 -135t95 -102l-46 -54q-74 47 -117.5 124.5
t-43.5 172.5z" />
    <glyph glyph-name="uni1A3D" unicode="&#x1a3d;" horiz-adv-x="966" 
d="M254 -10q-73 0 -124.5 37.5t-77.5 100.5l71 27q18 -43 51.5 -68.5t79.5 -25.5q48 0 83 27.5t54.5 74.5t19.5 104t-19.5 103.5t-54.5 74.5t-83 28q-42 0 -73 -21.5t-50 -56.5l-67 39q29 51 77.5 80.5t112.5 29.5q72 0 124.5 -36.5t81.5 -99t29 -141.5t-29 -142t-81.5 -99
t-124.5 -36zM442 421q26 49 75.5 86t128.5 37q75 0 129.5 -36t83.5 -98.5t29 -140.5q0 -79 -29.5 -142t-83.5 -100t-128 -37q-35 0 -65.5 9t-58.5 25l40 58q18 -10 38.5 -15.5t43.5 -5.5q53 0 89.5 27.5t56 74t19.5 103.5t-19.5 104t-56 75t-89.5 28q-45 0 -82 -23.5
t-57 -69.5t-17 -114z" />
    <glyph glyph-name="uni1A3E" unicode="&#x1a3e;" horiz-adv-x="661" 
d="M582 0l-70 -32q-21 46 -50 85.5t-68 72t-91 58.5l39 56q85 -42 146.5 -100t93.5 -140zM228 539l49 -61q-53 -33 -87 -86t-34 -124q0 -57 21 -104t60.5 -75t93.5 -28t92 28t58.5 75t20.5 104q0 71 -33.5 124t-86.5 86l49 61q40 -31 74 -69t55 -87t21 -115q0 -79 -32 -142
t-88.5 -99.5t-129.5 -36.5q-74 0 -131 36.5t-89.5 99.5t-32.5 142q0 66 20.5 115t55 87t74.5 69z" />
    <glyph glyph-name="uni1A3F" unicode="&#x1a3f;" horiz-adv-x="1058" 
d="M228 539l49 -61q-53 -33 -87 -86t-34 -124q0 -57 21 -104t60.5 -75t93.5 -28t92 28t58.5 75t20.5 104q0 71 -33.5 124t-86.5 86l49 61q40 -31 74 -69t55 -87t21 -115q0 -79 -32 -142t-88.5 -99.5t-129.5 -36.5q-74 0 -131 36.5t-89.5 99.5t-32.5 142q0 66 20.5 115t55 87
t74.5 69zM534 113l47 155q-3 -68 17 -114t57 -69.5t82 -23.5q53 0 89.5 28t56 75t19.5 104t-19.5 103.5t-56 74t-89.5 27.5q-23 0 -43.5 -5.5t-38.5 -15.5l-40 58q28 17 58.5 25.5t65.5 8.5q74 0 128 -37t83.5 -100t29.5 -142q0 -78 -29 -140t-83.5 -98.5t-129.5 -36.5
q-79 0 -128.5 37t-75.5 86z" />
    <glyph glyph-name="uni1A40" unicode="&#x1a40;" horiz-adv-x="651" 
d="M675 1000q25 0 44 -3l-15 -68q-16 3 -33 3q-49 0 -76.5 -41t-27.5 -117v-402q0 -137 -36.5 -221t-101.5 -122.5t-153 -38.5q-78 0 -122.5 24t-62.5 60.5t-18 73.5q0 47 26 83t77 53q-46 23 -67 54.5t-21 70.5q0 44 21 74t55 45.5t71 15.5q38 0 69.5 -18t50.5 -60l-57 -42
q-12 29 -29 39t-36 10q-26 0 -46.5 -16t-20.5 -48q0 -38 34.5 -65.5t96.5 -31.5v-63q-67 -2 -106.5 -32t-39.5 -71q0 -18 10 -38t38.5 -33.5t83.5 -13.5q68 1 114.5 31.5t70.5 94.5t24 163v408q0 74 22 128t63 84t98 30z" />
    <glyph glyph-name="uni1A41" unicode="&#x1a41;" horiz-adv-x="760" 
d="M269 -10q-55 0 -99.5 23.5t-70.5 64.5t-26 95q0 51 27 88l67 -41q-12 -21 -12 -50q0 -51 32 -81.5t84 -30.5q53 0 87 31t34 80q0 37 -19 61t-52.5 41.5t-76.5 33.5q-37 14 -61.5 24.5t-38.5 19.5q-19 12 -32 29.5t-13 40.5q0 33 28.5 62t77.5 46q26 9 55 13t63 4
q101 0 181.5 -37.5t128 -109t47.5 -175.5q0 -56 -12 -117.5t-34 -114.5l-67 31q21 65 28.5 108.5t7.5 78.5q0 92 -36 150.5t-100.5 86.5t-149.5 28q-61 0 -96 -13.5t-35 -38.5q0 -14 19 -26q10 -6 28 -14t46 -18q74 -26 115.5 -53.5t58.5 -59t17 -70.5q0 -53 -26 -96
t-71 -68.5t-104 -25.5z" />
    <glyph glyph-name="uni1A42" unicode="&#x1a42;" horiz-adv-x="718" 
d="M357 -453q-124 0 -192 51t-68 137q0 59 30 99t80.5 60.5t109.5 20.5q43 0 79.5 -9t73.5 -26l-29 -67q-25 14 -59 22.5t-66 8.5q-34 0 -66.5 -12t-53.5 -35.5t-21 -60.5q0 -52 48 -85t143 -33q59 0 99.5 14t61.5 43.5t21 74.5v538q0 50 -8.5 92t-27.5 67.5t-51 25.5
q-34 0 -58.5 -32t-34.5 -96l-65 2q-6 63 -26.5 95.5t-54.5 32.5q-27 0 -42.5 -19t-22 -50t-6.5 -68q0 -30 3.5 -59.5t8.5 -57.5l-81 12q-4 23 -6.5 46.5t-2.5 45.5q0 59 16.5 108.5t51.5 80t89 30.5q38 0 68 -18t47 -56q17 38 46.5 56t67.5 18q56 0 92 -34t54 -89.5
t18 -121.5v-539q0 -112 -69.5 -162.5t-196.5 -50.5zM676 -409l-55 -47q-27 38 -61 67.5t-69.5 51t-65.5 33.5l31 60q37 -17 76.5 -41t77 -55t66.5 -69z" />
    <glyph glyph-name="uni1A43" unicode="&#x1a43;" horiz-adv-x="981" 
d="M298 -10q-51 0 -91.5 23.5t-69.5 64t-44 92t-15 106.5q0 72 25 133t70.5 98t105.5 37q50 0 87 -26t67 -68.5t57 -93.5l95 -181q26 -49 53.5 -81.5t66.5 -32.5q37 0 64 28.5t41.5 75.5t14.5 101q0 65 -19.5 111t-52 71t-72.5 25q-51 0 -84 -35l-34 62q23 20 53.5 32
t66.5 12q52 0 92.5 -24t69 -64.5t43.5 -92t15 -106.5q0 -70 -24 -131t-68 -98.5t-105 -37.5q-49 0 -86 25.5t-66 68.5t-58 96l-96 181q-26 49 -52.5 80.5t-65.5 31.5q-33 0 -61.5 -23.5t-46.5 -68t-18 -108.5q0 -66 19.5 -113.5t52.5 -73t73 -25.5q50 0 83 35l34 -62
q-22 -20 -53 -32t-67 -12z" />
    <glyph glyph-name="uni1A44" unicode="&#x1a44;" horiz-adv-x="643" 
d="M339 54q71 -17 120 -55.5t75 -91.5t26 -115q0 -59 -22 -105t-59.5 -77t-85.5 -47t-99 -16q-59 0 -109.5 20.5t-81 57.5t-30.5 87q0 48 26.5 84.5t70.5 57t95 20.5q38 0 71 -11t73 -31l-26 -64q-27 19 -58.5 28.5t-58.5 9.5q-48 0 -81.5 -26.5t-33.5 -66.5q0 -43 40 -70.5
t103 -27.5q59 0 101 24.5t64.5 65t22.5 89.5q0 60 -32 106.5t-87.5 73t-126.5 26.5q-29 0 -56 -4.5t-48 -11.5l-17 70q101 20 182 58t128 90.5t47 118.5q0 46 -22 80t-58.5 53t-78.5 19q-49 0 -91 -24.5t-71 -77.5l-62 47q37 62 93.5 94t126.5 32q73 0 127 -31t84 -83
t30 -114q0 -50 -21.5 -96.5t-68 -88t-121.5 -77.5zM537 -459l-62 -34q-18 39 -46 71.5t-59.5 58t-59.5 41.5l38 50q37 -19 72 -46.5t65.5 -62.5t51.5 -78z" />
    <glyph glyph-name="uni1A45" unicode="&#x1a45;" horiz-adv-x="617" 
d="M309 -10q-72 0 -123.5 36t-79.5 99t-28 142t28 141.5t79.5 99t123.5 36.5q71 0 122.5 -36.5t79.5 -99t28 -141.5t-28 -142t-79.5 -99t-122.5 -36zM309 61q48 0 82 27.5t51.5 74.5t17.5 104t-17.5 104t-51.5 75t-82 28t-82.5 -28t-52.5 -75t-18 -104t18 -104t52.5 -74.5
t82.5 -27.5z" />
    <glyph glyph-name="uni1A46" unicode="&#x1a46;" horiz-adv-x="660" 
d="M582 536q-32 -82 -93.5 -140t-146.5 -100l-39 56q52 26 91 58.5t68 72t50 85.5zM228 -3q-40 32 -74.5 69.5t-55 87t-20.5 114.5q0 79 32.5 142t89.5 99.5t131 36.5q73 0 129.5 -36.5t88.5 -99.5t32 -142q0 -65 -21 -114.5t-55 -87t-74 -69.5l-49 61q53 33 86.5 86
t33.5 124q0 57 -20.5 104t-58.5 75t-92 28t-93.5 -28t-60.5 -75t-21 -104q0 -71 34 -124t87 -86z" />
    <glyph glyph-name="uni1A47" unicode="&#x1a47;" horiz-adv-x="969" 
d="M880 -27l-76 -18q-2 34 -18 67t-41 61q-22 26 -59.5 47t-69.5 32l33 56q38 -11 81 -34.5t71 -53.5q30 -32 51 -72t28 -85zM427 113l47 155q-3 -68 17 -114t57 -69.5t82 -23.5q53 0 89.5 28t56 75t19.5 104t-19.5 103.5t-56 74t-89.5 27.5q-23 0 -43.5 -5.5t-38.5 -15.5
l-40 58q28 17 58.5 25.5t65.5 8.5q74 0 128 -37t83.5 -100t29.5 -142q0 -78 -29 -140t-83.5 -98.5t-129.5 -36.5q-79 0 -128.5 37t-75.5 86zM239 -10q-73 0 -124.5 37.5t-77.5 100.5l71 27q18 -43 51.5 -68.5t79.5 -25.5q48 0 83 27.5t54.5 74.5t19.5 104t-19.5 104
t-54.5 75t-83 28q-42 0 -73 -22t-50 -57l-67 39q29 51 77.5 80.5t112.5 29.5q72 0 124.5 -36.5t81.5 -99t29 -141.5t-29 -142t-81.5 -99t-124.5 -36z" />
    <glyph glyph-name="uni1A48" unicode="&#x1a48;" horiz-adv-x="959" 
d="M435 113l47 155q-3 -68 17 -114t57 -69.5t82 -23.5q53 0 89.5 28t56 75t19.5 104t-19.5 103.5t-56 74t-89.5 27.5q-23 0 -43.5 -5.5t-38.5 -15.5l-40 58q28 17 58.5 25.5t65.5 8.5q74 0 128 -37t83.5 -100t29.5 -142q0 -78 -29 -140t-83.5 -98.5t-129.5 -36.5
q-79 0 -128.5 37t-75.5 86zM247 -10q-73 0 -124.5 37.5t-77.5 100.5l71 27q18 -43 51.5 -68.5t79.5 -25.5q48 0 83 27.5t54.5 74.5t19.5 104t-19.5 104t-54.5 75t-83 28q-42 0 -73 -22t-50 -57l-67 39q29 51 77.5 80.5t112.5 29.5q72 0 124.5 -36.5t81.5 -99t29 -141.5
t-29 -142t-81.5 -99t-124.5 -36z" />
    <glyph glyph-name="uni1A49" unicode="&#x1a49;" horiz-adv-x="981" 
d="M298 544q36 0 67 -12t53 -32l-34 -62q-33 35 -83 35q-40 0 -73 -25.5t-52.5 -73t-19.5 -113.5q0 -63 18 -108t46.5 -68.5t61.5 -23.5q39 0 65.5 31.5t52.5 80.5l96 181q29 53 58 96t66 68.5t86 25.5q61 0 105 -37.5t68 -98t24 -131.5q0 -55 -15 -106.5t-43.5 -92
t-69 -64.5t-92.5 -24q-36 0 -66.5 12t-53.5 32l34 62q33 -35 84 -35q40 0 72.5 25t52 71.5t19.5 110.5q0 55 -14.5 101.5t-41.5 75t-64 28.5q-39 0 -66.5 -32t-53.5 -82l-95 -181q-27 -51 -57 -93.5t-67 -68.5t-87 -26q-60 0 -105.5 37t-70.5 98t-25 133q0 56 15 107
t44 91.5t69.5 64t91.5 23.5z" />
    <glyph glyph-name="uni1A4A" unicode="&#x1a4a;" horiz-adv-x="699" 
d="M347 -453q-106 0 -157.5 50.5t-51.5 162.5v289l75 -23v-282q0 -64 28.5 -95t101.5 -31q77 0 118 23.5t41 58.5q0 32 -30.5 51.5t-71.5 19.5q-28 0 -57.5 -8.5t-49.5 -20.5l-20 56q26 17 56.5 27.5t67.5 10.5q46 0 86.5 -17t66 -49t25.5 -76q0 -45 -27.5 -78t-78.5 -51
t-122 -18zM153 141q0 -21 12 -39.5t26 -27.5l-21 -8q30 49 55 75.5t49.5 37.5t51.5 11q56 0 84.5 -32t28.5 -74q0 -21 -8 -44.5t-25 -49.5l-72 15q9 14 20.5 33t11.5 37t-13.5 31t-33.5 13q-14 0 -29.5 -9t-35 -35t-45.5 -77l-74 15q-21 17 -40.5 51.5t-19.5 77.5
q0 42 26 76t74 55q-45 16 -72.5 49t-27.5 76q0 66 63 106t169 40q96 0 165.5 -36t107.5 -104t38 -164q0 -44 -6.5 -90.5t-16 -88.5t-18.5 -71l-78 18q9 26 18.5 62.5t16 79t6.5 84.5q0 116 -61.5 177.5t-169.5 61.5q-37 0 -73 -8t-59 -25.5t-23 -48.5q0 -39 40.5 -63.5
t105.5 -31.5v-51q-44 -2 -77 -14.5t-51 -35t-19 -54.5z" />
    <glyph glyph-name="uni1A4B" unicode="&#x1a4b;" horiz-adv-x="955" 
d="M550 -7l-18 71q76 19 134.5 49.5t92 76.5t33.5 113q0 78 -42.5 124t-110.5 46q-49 0 -83 -25t-50.5 -71t-16.5 -110l-46 135q17 66 71 104t128 38q70 0 121 -32t79 -86t28 -120q0 -73 -41 -139t-138 -110q49 -10 85.5 -29.5t66.5 -47.5t61 -65l-64 -45q-48 65 -104 96
t-133 31q-12 0 -24 -1t-29 -3zM254 -10q-73 0 -124.5 37.5t-77.5 100.5l71 27q18 -43 51.5 -68.5t79.5 -25.5q48 0 83 27.5t54.5 74.5t19.5 104t-19.5 104t-54.5 75t-83 28q-42 0 -73 -22t-50 -57l-67 39q29 51 77.5 80.5t112.5 29.5q72 0 124.5 -36.5t81.5 -99t29 -141.5
t-29 -142t-81.5 -99t-124.5 -36z" />
    <glyph glyph-name="uni1A4C" unicode="&#x1a4c;" horiz-adv-x="981" 
d="M428 -463q-121 0 -185.5 41t-64.5 113q0 49 27.5 85t73 56.5t98.5 20.5q44 0 85 -13t78 -33l-27 -69q-26 20 -63.5 32t-69.5 12q-30 0 -58.5 -10.5t-47 -30t-18.5 -46.5q0 -41 45.5 -64t129.5 -23q101 0 148 32t47 100v310l78 -50v-250q0 -112 -71 -162.5t-205 -50.5z
M298 544q36 0 67 -12t53 -32l-34 -62q-33 35 -83 35q-40 0 -73 -25.5t-52.5 -73t-19.5 -113.5q0 -63 18 -108t46.5 -68.5t61.5 -23.5q39 0 65.5 31.5t52.5 80.5l96 181q29 53 58 96t66 68.5t86 25.5q61 0 105 -37.5t68 -98t24 -131.5q0 -55 -15 -106.5t-43.5 -92t-69 -64.5
t-92.5 -24q-36 0 -66.5 12t-53.5 32l34 62q33 -35 84 -35q40 0 72.5 25t52 71.5t19.5 110.5q0 55 -14.5 101.5t-41.5 75t-64 28.5q-39 0 -66.5 -32t-53.5 -82l-95 -181q-27 -51 -57 -93.5t-67 -68.5t-87 -26q-60 0 -105.5 37t-70.5 98t-25 133q0 56 15 107t44 91.5t69.5 64
t91.5 23.5z" />
    <glyph glyph-name="uni1A4D" unicode="&#x1a4d;" horiz-adv-x="719" 
d="M552 -477v66q0 96 -32 160.5t-82.5 97t-104.5 32.5q-46 0 -81.5 -21.5t-55 -56t-19.5 -74.5q0 -31 12 -53t27 -23l-22 -19q30 49 55 75.5t49.5 37.5t51.5 11q37 0 62 -15t38 -39t13 -52q0 -22 -9 -48t-29 -54l-66 23q9 14 20 33t11 37t-13.5 31t-33.5 13q-14 0 -29.5 -9
t-35 -35t-45.5 -77l-74 15q-10 12 -24 32t-25 49.5t-11 67.5q0 59 30.5 109.5t83.5 81.5t121 31q61 0 117.5 -27.5t100 -80.5t63.5 -130q8 -31 12.5 -69t2.5 -90zM483 -6l-48 60q62 48 92 106t30 130q0 51 -12.5 92.5t-33 66t-46.5 24.5q-25 0 -40.5 -27t-26.5 -89h-72
q-10 62 -26 89t-41 27t-46 -24.5t-33.5 -66t-12.5 -92.5q0 -72 30 -130t92 -106l-48 -60q-75 61 -113.5 138t-38.5 166q0 71 22 126.5t60 87.5t86 32q37 0 63 -19.5t42 -57.5q16 38 42 57.5t63 19.5q49 0 86.5 -32t59.5 -87.5t22 -126.5q0 -89 -38.5 -166t-113.5 -138z" />
    <glyph glyph-name="uni1A4E" unicode="&#x1a4e;" horiz-adv-x="921" 
d="M362 -429q7 14 15.5 31.5t8.5 39.5q0 24 -12.5 43.5t-38.5 19.5q-19 0 -40 -14.5t-36.5 -47t-20.5 -86.5l-81 18q-16 21 -30 44t-22.5 50t-8.5 59q0 58 29 108.5t83.5 82t131.5 31.5q62 0 126 -24.5t129 -84t130 -166.5l-14 -29v1062l9 -25q-44 -34 -113 -53.5
t-149 -19.5q-87 0 -150.5 23.5t-98.5 67t-35 101.5q0 46 22 82.5t64 62.5t101.5 39.5t134.5 13.5q77 0 149 -16.5t158 -54.5l-32 -69q-64 33 -137 50.5t-147 18.5q-109 2 -172 -32.5t-63 -95.5q0 -55 56 -87.5t152 -32.5q71 0 133.5 19.5t125.5 60.5l67 -20v-1156l-83 -10
q-49 91 -107.5 159t-124 106.5t-136.5 38.5q-58 0 -94 -22.5t-52.5 -56.5t-16.5 -71t13.5 -63.5t26.5 -39.5l-22 8q11 58 37 88t56.5 41.5t53.5 11.5q35 0 62.5 -16.5t44 -45t16.5 -64.5q0 -33 -12 -58t-25 -45zM482 -6l-48 60q62 48 92 106t30 130q0 51 -12.5 92.5t-33 66
t-46.5 24.5q-25 0 -40.5 -27t-26.5 -89h-72q-10 62 -26 89t-41 27t-46 -24.5t-33.5 -66t-12.5 -92.5q0 -72 30 -130t92 -106l-48 -60q-75 61 -113.5 138t-38.5 166q0 71 22 126.5t60 87.5t86 32q37 0 63 -19.5t42 -57.5q16 38 42 57.5t63 19.5q49 0 86.5 -32t59.5 -87.5
t22 -126.5q0 -89 -38.5 -166t-113.5 -138z" />
    <glyph glyph-name="uni1A4F" unicode="&#x1a4f;" horiz-adv-x="611" 
d="M326 -381q41 1 75 15.5t54 30.5l42 -65q-37 -26 -81.5 -39t-88.5 -13q-51 0 -95 18.5t-77 61t-52 113t-20 173.5l-2 242l81 1q19 -43 53 -69.5t81 -26.5q49 0 84.5 28t55 75t19.5 104t-19.5 103.5t-55.5 74t-87 27.5q-43 0 -78 -20t-64 -55l-48 45q26 33 56 55.5t64.5 34
t73.5 11.5q72 0 125 -36t82 -98.5t29 -141.5q0 -80 -29 -143t-80.5 -99t-120.5 -36q-49 0 -91 21.5t-77 67.5l21 41l2 -244q1 -77 18 -135t54 -90.5t96 -31.5z" />
    <glyph glyph-name="uni1A50" unicode="&#x1a50;" horiz-adv-x="629" 
d="M328 -452q-50 0 -94 18.5t-77.5 61t-52.5 113t-20 173.5l-2 242l81 1q19 -43 53 -69.5t82 -26.5q49 0 84 28t54.5 75t19.5 104t-19.5 103.5t-54.5 74t-84 27.5q-43 0 -75.5 -20.5t-52.5 -56.5l-84 23l1 217q0 104 22 174t59.5 111.5t86 60t103.5 18.5q92 0 162 -39
l-41 -66q-19 11 -49.5 22.5t-74.5 12.5q-65 1 -107 -30t-62 -83t-21 -113l-2 -248l-11 19q36 38 71 53.5t75 15.5q72 0 125 -36t82 -98.5t29 -141.5q0 -80 -29 -143t-80.5 -99t-120.5 -36q-49 0 -91 21.5t-77 67.5l22 41l2 -244q1 -77 18 -135t53.5 -90.5t95.5 -31.5
q41 1 75 15.5t54 30.5l42 -65q-37 -26 -81.5 -39t-88.5 -13z" />
    <glyph glyph-name="uni1A51" unicode="&#x1a51;" horiz-adv-x="653" 
d="M349 -452q-65 0 -114.5 23t-82.5 68.5t-50 113t-17 156.5v303q0 101 31.5 175.5t88.5 115.5t133 41q70 0 123 -34t82.5 -94.5t29.5 -142.5q0 -84 -29 -147.5t-80 -99.5t-119 -36q-38 0 -74 11t-67 32l26 67q48 -39 110 -39q72 0 113.5 57t41.5 155q0 94 -42.5 147
t-116.5 53q-82 0 -128.5 -74t-46.5 -207v-321q0 -124 48.5 -188.5t138.5 -63.5q35 1 65 10.5t59 32.5l42 -62q-37 -27 -77.5 -39.5t-87.5 -12.5z" />
    <glyph glyph-name="uni1A52" unicode="&#x1a52;" horiz-adv-x="1196" 
d="M776 -7l-18 71q76 19 134.5 49.5t92 76.5t33.5 113q0 78 -42.5 124t-110.5 46q-49 0 -83 -25t-50.5 -71t-16.5 -110l-46 135q17 66 71 104t128 38q70 0 121 -32t79 -86t28 -120q0 -73 -41 -139t-138 -110q49 -10 85.5 -29.5t66.5 -47.5t61 -65l-64 -45q-48 65 -104 96
t-133 31q-12 0 -24 -1t-29 -3zM480 -10q-73 0 -124.5 37.5t-77.5 100.5l71 27q18 -43 51.5 -68.5t79.5 -25.5q48 0 83 27.5t54.5 74.5t19.5 104t-19.5 104t-54.5 75t-83 28q-42 0 -73 -22t-50 -57l-67 39q29 51 77.5 80.5t112.5 29.5q72 0 124.5 -36.5t81.5 -99t29 -141.5
t-29 -142t-81.5 -99t-124.5 -36zM308 -466q-73 0 -121 35.5t-69 100.5q-7 22 -11 51.5t-4 54.5v982q0 70 28 126.5t80 87.5q23 14 46.5 21t50.5 7q22 0 38 -2.5t27 -4.5l-22 -70q-11 5 -23.5 7t-23.5 2q-56 0 -91 -43.5t-35 -114.5v-1016q0 -55 18 -89.5t47 -50.5t61 -16
q11 0 23.5 2.5t23.5 6.5l22 -70q-11 -2 -27 -4.5t-38 -2.5z" />
    <glyph glyph-name="uni1A53" unicode="&#x1a53;" horiz-adv-x="977" 
d="M303 -10q-50 0 -91.5 21.5t-71.5 60.5t-46 90t-16 109q0 74 27 136t76 99.5t114 37.5q49 0 83 -22.5t60 -59.5t50 -82l108 -205q27 -51 56 -82.5t66 -31.5q35 0 57 27t32.5 72t10.5 98v500q0 110 49 176t135 66q22 0 43 -3l-16 -70q-15 3 -30 3q-51 0 -78.5 -40
t-27.5 -116v-517q0 -76 -19.5 -136.5t-58.5 -95.5t-97 -35q-47 0 -84.5 24t-68.5 67t-61 99l-88 166q-18 34 -33.5 58.5t-30.5 40.5q-27 28 -61 28q-33 0 -64 -23.5t-51 -69.5t-20 -112q0 -64 21.5 -110.5t56 -71.5t73.5 -25q26 0 49 12t39 35l50 -47q-23 -32 -59 -51.5
t-83 -19.5z" />
    <glyph glyph-name="uni1A54" unicode="&#x1a54;" horiz-adv-x="1368" 
d="M445 113l47 155q-3 -68 17 -114t57 -69.5t82 -23.5q53 0 89.5 28t56 75t19.5 104t-19.5 103.5t-56 74t-89.5 27.5q-23 0 -43.5 -5.5t-38.5 -15.5l-40 58q28 17 58.5 25.5t65.5 8.5q74 0 128 -37t83.5 -100t29.5 -142q0 -78 -29 -140t-83.5 -98.5t-129.5 -36.5
q-79 0 -128.5 37t-75.5 86zM844 113l47 155q-3 -68 17 -114t57 -69.5t82 -23.5q53 0 89.5 28t56 75t19.5 104t-19.5 103.5t-56 74t-89.5 27.5q-23 0 -43.5 -5.5t-38.5 -15.5l-40 58q28 17 58.5 25.5t65.5 8.5q74 0 128 -37t83.5 -100t29.5 -142q0 -78 -29 -140t-83.5 -98.5
t-129.5 -36.5q-79 0 -128.5 37t-75.5 86zM257 -10q-73 0 -124.5 37.5t-77.5 100.5l71 27q18 -43 51.5 -68.5t79.5 -25.5q48 0 83 27.5t54.5 74.5t19.5 104t-19.5 104t-54.5 75t-83 28q-42 0 -73 -22t-50 -57l-67 39q29 51 77.5 80.5t112.5 29.5q72 0 124.5 -36.5t81.5 -99
t29 -141.5t-29 -142t-81.5 -99t-124.5 -36z" />
    <glyph glyph-name="uni1A55" unicode="&#x1a55;" horiz-adv-x="305" 
d="M303 -466q-73 0 -121 35.5t-69 100.5q-7 22 -11 51.5t-4 54.5v982q0 70 28 126.5t80 87.5q23 14 46.5 21t50.5 7q22 0 38 -2.5t27 -4.5l-22 -70q-11 5 -23.5 7t-23.5 2q-56 0 -91 -43.5t-35 -114.5v-1016q0 -55 18 -89.5t47 -50.5t61 -16q11 0 23.5 2.5t23.5 6.5l22 -70
q-11 -2 -27 -4.5t-38 -2.5z" />
    <glyph glyph-name="uni1A56" unicode="&#x1a56;" 
d="M-670 -452q-75 17 -119.5 67.5t-44.5 122.5q0 49 25.5 89t68 64t94.5 24q68 0 116.5 -34.5t92.5 -103.5q38 -59 66 -94t55 -50t59 -15q52 0 80.5 28t28.5 77q0 50 -31.5 79t-84.5 45l24 68q74 -15 121 -65t47 -124q0 -45 -23 -86t-64 -66.5t-97 -25.5q-53 0 -93.5 20.5
t-75.5 62.5t-74 104q-35 56 -70.5 83t-78.5 27q-46 0 -78 -28t-32 -84q0 -43 31 -74.5t78 -41.5z" />
    <glyph glyph-name="uni1A57" unicode="&#x1a57;" horiz-adv-x="293" 
d="M105 534h75v-733q0 -41 -5 -79t-14 -68.5t-23 -51.5q-17 -28 -42 -41t-57 -13q-46 0 -82.5 28.5t-80.5 98.5l-73 117q-25 40 -39 55t-31 15q-28 0 -45 -31.5t-17 -87.5q0 -57 19.5 -91.5t53.5 -34.5q14 0 27.5 7t24.5 20l43 -50q-19 -22 -44 -34t-54 -12q-41 0 -73.5 25
t-51 69.5t-18.5 100.5t17.5 98t48.5 65.5t71 23.5q25 0 46.5 -12t46 -40.5t56.5 -80.5l73 -116q21 -34 39 -49.5t37 -15.5q35 0 53.5 47.5t18.5 134.5v736zM258 -409l-53 -45q-30 46 -66.5 80t-74 59.5t-71.5 43.5l32 54q59 -31 122.5 -77t110.5 -115z" />
    <glyph glyph-name="uni1A58" unicode="&#x1a58;" 
d="M139 928l-42 -50q-18 19 -48.5 32t-62.5 13q-33 0 -56.5 -15t-23.5 -43q0 -31 28.5 -43.5t65.5 -9.5v-53q-22 0 -43.5 -3.5t-36 -13.5t-14.5 -30t16.5 -30t46.5 -10q14 0 29.5 2.5t32.5 9.5l18 -58q-22 -9 -42 -12.5t-38 -3.5q-56 0 -93 28.5t-37 74.5q0 23 11.5 39.5
t39.5 29.5q-27 14 -39 33.5t-12 46.5q0 41 22 68.5t57.5 41.5t75.5 14q44 0 80.5 -15.5t64.5 -42.5z" />
    <glyph glyph-name="uni1A59" unicode="&#x1a59;" 
d="M40 697q1 38 -19.5 64.5t-53.5 40t-70 13.5q-38 0 -68.5 -13.5t-48 -36.5t-17.5 -53q0 -13 4 -22.5t14 -15.5l-18 -15q22 36 41.5 57.5t39.5 31.5t43 10q38 0 63 -23.5t25 -58.5q0 -16 -5.5 -29.5t-15.5 -27.5l-51 19q7 9 9.5 16.5t2.5 14.5q0 13 -8 23t-25 10
q-21 0 -41 -20t-46 -67l-58 3q-19 24 -28.5 48.5t-9.5 52.5q0 47 25.5 83t70 57t102.5 21q36 0 72.5 -8.5t67 -27.5t50 -50.5t20.5 -77.5q1 -26 -4.5 -52.5t-15.5 -48.5l-68 3q11 24 16 42.5t5 36.5z" />
    <glyph glyph-name="uni1A5A" unicode="&#x1a5a;" 
d="M-386 601q-32 29 -51.5 75t-19.5 95q0 70 31.5 108.5t88.5 38.5q23 0 46 -11.5t38 -36.5q15 25 38 36.5t47 11.5q56 0 87.5 -38.5t31.5 -108.5q0 -49 -19.5 -95t-51.5 -75l-55 33q31 33 43.5 65t12.5 72t-14 62t-38 22q-25 0 -37 -17.5t-15 -53.5h-60q-4 38 -16 54.5
t-35 16.5q-25 0 -39 -22.5t-14 -61.5q0 -40 12.5 -71.5t43.5 -65.5z" />
    <glyph glyph-name="uni1A5B" unicode="&#x1a5b;" 
d="M-332 -453q-117 0 -180.5 41.5t-63.5 116.5q0 47 27.5 81.5t71 53.5t92.5 19q50 0 92 -13t79 -33l-27 -69q-26 20 -64.5 32t-76.5 12q-26 0 -53 -10.5t-45 -29t-18 -43.5q0 -38 45 -62.5t125 -24.5q104 0 153.5 32t49.5 99v171l75 38v-198q0 -112 -71 -162.5t-211 -50.5z
" />
    <glyph glyph-name="uni1A5C" unicode="&#x1a5c;" 
d="M-62 -461l-52 -13q-4 51 -40.5 87t-87.5 54l23 39q65 -20 106 -62.5t51 -104.5zM-162 -78q53 -30 80.5 -77t27.5 -107q0 -52 -22 -95t-60 -68.5t-87 -25.5q-48 0 -86.5 25t-61 67t-22.5 93q0 59 27 110t82 77l30 -55q-33 -13 -52.5 -46t-19.5 -89t29 -87.5t74 -31.5
q46 0 74.5 32t28.5 87q0 57 -21 90t-52 46z" />
    <glyph glyph-name="uni1A5D" unicode="&#x1a5d;" 
d="M-291 -79l35 -54q-33 -20 -54.5 -52t-21.5 -75q0 -52 28.5 -89.5t80.5 -37.5q51 0 79.5 37.5t28.5 89.5q0 43 -20.5 74t-55.5 53l35 54q44 -26 76.5 -70.5t32.5 -110.5q0 -54 -22.5 -97.5t-62 -69t-90.5 -25.5q-52 0 -92 25.5t-62.5 69t-22.5 97.5q0 64 31 110t77 71z
" />
    <glyph glyph-name="uni1A5E" unicode="&#x1a5e;" 
d="M-187 -94q80 -16 125.5 -64.5t45.5 -125.5q0 -54 -22.5 -93.5t-61 -60.5t-86.5 -21q-36 0 -68.5 14.5t-54.5 39t-27 52.5l36 85q1 -46 19 -74.5t44 -41.5t51 -13q44 0 73.5 31t29.5 76q0 43 -16 69.5t-45 42.5t-69 29zM-465 -397q46 0 72 37.5t26 91.5t-26 92t-73 38
q-27 0 -48 -13.5t-35 -36.5l-46 37q20 35 54 55.5t77 20.5q50 0 87 -25.5t57 -69t20 -98.5t-20 -98t-57 -68t-87 -25t-86 26t-54 69l49 32q13 -30 36 -47.5t54 -17.5z" />
    <glyph glyph-name="uni1A60" unicode="&#x1a60;" 
d="M295 -273v84h-79v68h79v77h71v-77h79v-68h-79v-84h-71z" />
    <glyph glyph-name="uni1A61" unicode="&#x1a61;" horiz-adv-x="497" 
d="M405 295l-64 24q12 26 12 58q0 47 -29.5 76.5t-76.5 29.5q-25 0 -45.5 -7.5t-28.5 -15.5l-1 13q41 -2 66 -26t25 -59q0 -37 -27 -63.5t-68 -26.5t-68 28t-27 71q0 38 22 73t60 55q39 21 89 21q51 0 93 -21t64 -59q11 -19 16.5 -40.5t5.5 -46.5q0 -23 -4.5 -44.5
t-13.5 -39.5zM405 -12l-64 24q12 26 12 58q0 47 -29.5 76.5t-75.5 29.5q-26 0 -46.5 -8.5t-31.5 -17.5l2 15q41 -1 66 -25.5t25 -59.5q0 -37 -27.5 -63.5t-68.5 -26.5q-40 0 -67 28t-27 71q0 39 22 73.5t60 55.5q40 20 89 20q51 0 93 -21t64 -59q11 -19 16.5 -40.5
t5.5 -46.5q0 -23 -4.5 -44t-13.5 -39zM173 350q15 0 25.5 10.5t10.5 25.5q0 16 -10.5 26t-25.5 10q-16 0 -26 -10t-10 -26q0 -15 10 -25.5t26 -10.5zM173 42q15 0 25.5 10.5t10.5 25.5q0 16 -10.5 26.5t-25.5 10.5q-16 0 -26 -10.5t-10 -26.5q0 -15 10 -25.5t26 -10.5z" />
    <glyph glyph-name="uni1A62" unicode="&#x1a62;" 
d="M-408 617l-23 58l276 123l25 -55z" />
    <glyph glyph-name="uni1A63" unicode="&#x1a63;" horiz-adv-x="565" 
d="M254 -10q-73 0 -124.5 37.5t-77.5 100.5l71 27q18 -43 51.5 -68.5t79.5 -25.5q48 0 83 27.5t54.5 74.5t19.5 104t-19.5 104t-54.5 75t-83 28q-42 0 -73 -22t-50 -57l-67 39q29 51 77.5 80.5t112.5 29.5q72 0 124.5 -36.5t81.5 -99t29 -141.5t-29 -142t-81.5 -99
t-124.5 -36z" />
    <glyph glyph-name="uni1A64" unicode="&#x1a64;" horiz-adv-x="252" 
d="M98 0v640q0 79 -17 144.5t-56.5 105.5t-107.5 40q-73 0 -121 -48t-75 -137l-74 22q36 110 104.5 171.5t169.5 61.5q65 0 113 -25.5t80 -72.5q29 -43 44.5 -103.5t15.5 -143.5v-655h-76z" />
    <glyph glyph-name="uni1A65" unicode="&#x1a65;" 
d="M-365 605q-37 0 -61.5 31.5t-25.5 81.5q0 45 19 79.5t53 54.5t78 20q42 0 75 -18.5t52 -50.5t19 -73q0 -39 -16 -71.5t-40 -49.5l-44 41q41 32 41 80q0 38 -26 63.5t-64 25.5q-41 0 -67.5 -30.5t-24.5 -74.5l-18 2q27 30 58 30q29 0 48.5 -20.5t19.5 -49.5
q0 -30 -22 -50.5t-54 -20.5zM-362 648q12 0 19.5 8t7.5 19t-7.5 18.5t-18.5 7.5t-19 -7.5t-8 -18.5t7.5 -19t18.5 -8z" />
    <glyph glyph-name="uni1A66" unicode="&#x1a66;" 
d="M-138 605q-50 3 -79 21t-29 49q0 19 8.5 30t17 21t8.5 24q0 25 -23.5 39t-52.5 14q-37 0 -63 -21.5t-26 -56.5q0 -18 11 -36.5t30 -30.5l-25 -52q-40 20 -61.5 51t-21.5 67q0 60 44.5 98t111.5 38q36 0 70 -12t54 -39q10 -13 14 -24.5t4 -22.5q0 -18 -9 -31t-18.5 -24
t-9.5 -23q0 -16 18 -21t44 -7z" />
    <glyph glyph-name="uni1A67" unicode="&#x1a67;" 
d="M-371 605q-37 0 -61.5 31.5t-25.5 81.5q0 45 19 79.5t53 54.5t78 20q42 0 75 -18.5t52 -50.5t19 -73q0 -39 -16 -71.5t-40 -49.5l-44 41q41 32 41 80q0 38 -26 63.5t-64 25.5q-41 0 -67.5 -30.5t-24.5 -74.5l-18 2q27 30 58 30q29 0 48.5 -20.5t19.5 -49.5
q0 -30 -22 -50.5t-54 -20.5zM-368 648q12 0 19.5 8t7.5 19t-7.5 18.5t-18.5 7.5t-19 -7.5t-8 -18.5t7.5 -19t18.5 -8zM-275 725q-10 0 -16.5 6.5t-6.5 16.5t6.5 16.5t16.5 6.5t16.5 -6.5t6.5 -16.5t-6.5 -16.5t-16.5 -6.5z" />
    <glyph glyph-name="uni1A68" unicode="&#x1a68;" 
d="M-301 606l-42 41q24 17 33 33t9 34q0 27 -18 47.5t-50 20.5t-50.5 -21.5t-18.5 -46.5q0 -20 9.5 -35.5t27.5 -31.5l-39 -41q-25 20 -40 45.5t-15 60.5q0 38 18 66.5t47 44t61 15.5q38 0 66 -19q8 7 22.5 13t33.5 6q35 0 62 -15.5t43 -44t16 -66.5q0 -37 -13.5 -63.5
t-30.5 -44.5l-50 33q17 17 26.5 36.5t9.5 40.5q0 34 -24 54.5t-55 13.5l-2 -4q6 -9 13 -25t7 -40q0 -31 -14 -57.5t-42 -49.5z" />
    <glyph glyph-name="uni1A69" unicode="&#x1a69;" 
d="M-250 -125v-115q0 -75 28.5 -109t77.5 -34q8 0 16.5 1t15.5 2l16 -68q-10 -1 -21.5 -2.5t-22.5 -1.5q-85 0 -135.5 59t-50.5 169v136z" />
    <glyph glyph-name="uni1A6A" unicode="&#x1a6a;" 
d="M-442 -440v354l76 -10v-344h-76zM-226 -125v-115q0 -75 28.5 -109t77.5 -34q8 0 16.5 1t15.5 2l16 -68q-10 -1 -21.5 -2.5t-22.5 -1.5q-85 0 -135.5 59t-50.5 169v136z" />
    <glyph glyph-name="uni1A6B" unicode="&#x1a6b;" 
d="M-186 594q-10 47 -31.5 85.5t-41.5 58.5l5 10q7 -28 -3.5 -48.5t-30.5 -31.5t-43 -11q-39 0 -66 25t-27 62q0 38 27 64t66 26q44 0 83.5 -28.5t70.5 -76.5q17 -25 28.5 -53t18.5 -59zM-333 707q17 0 27.5 11t10.5 27q0 17 -10.5 28t-27.5 11q-16 0 -27.5 -11t-11.5 -28
q0 -16 11.5 -27t27.5 -11z" />
    <glyph glyph-name="uni1A6C" unicode="&#x1a6c;" 
d="M-194 -452q-39 0 -76 22t-53 70q-22 -50 -60 -70.5t-77 -20.5q-41 0 -74.5 19.5t-53.5 52t-20 71.5q0 47 23 86t66.5 65t104.5 31l14 -60q-64 -1 -102.5 -35.5t-38.5 -81.5q0 -36 25 -61t62 -25q41 0 67.5 35.5t40.5 94.5l59 -15q6 -49 29 -82t64 -33q40 0 66.5 25.5
t46.5 74.5l53 -24q-15 -53 -43 -83.5t-60.5 -43t-62.5 -12.5z" />
    <glyph glyph-name="uni1A6D" unicode="&#x1a6d;" horiz-adv-x="276" 
d="M-79 -452q-56 0 -101 19t-71 54.5t-26 85.5q0 36 13.5 63t35.5 47t48 35l41 -58q-25 -16 -42.5 -37t-17.5 -52q0 -44 35.5 -64.5t82.5 -20.5q52 0 91.5 21.5t62 70.5t22.5 133v913q0 63 18 112t52 80q26 24 59.5 37t75.5 13q12 0 23 -0.5t21 -2.5l-15 -68q-8 2 -16 2.5
t-17 0.5q-58 0 -92 -41t-34 -117v-942q0 -36 -4 -68.5t-15 -61.5q-26 -70 -83.5 -112t-146.5 -42z" />
    <glyph glyph-name="uni1A6E" unicode="&#x1a6e;" horiz-adv-x="590" 
d="M457 409q-28 29 -60.5 47t-70.5 18q-53 0 -91 -28.5t-58.5 -76t-20.5 -105.5q0 -63 22 -110t57.5 -73t77.5 -26q33 0 59.5 14t45 35t27.5 44t7 41q-24 0 -48 -12t-44 -30q-22 -20 -37.5 -46t-25.5 -54l-67 19q20 48 50 88.5t68 63.5q30 18 62.5 24t62.5 -1
q19 -4 29.5 -11t15.5 -16q13 -22 5 -61.5t-34 -74.5q-29 -41 -73.5 -64.5t-99.5 -23.5q-72 0 -125.5 36t-83 99t-29.5 142t30.5 141.5t85.5 99t128 36.5q55 0 99.5 -20.5t79.5 -54.5z" />
    <glyph glyph-name="uni1A6F" unicode="&#x1a6f;" horiz-adv-x="1169" 
d="M457 409q-28 29 -60.5 47t-70.5 18q-53 0 -91 -28.5t-58.5 -76t-20.5 -105.5q0 -63 22 -110t57.5 -73t77.5 -26q33 0 59.5 14t45 35t27.5 44t7 41q-24 0 -48 -12t-44 -30q-22 -20 -37.5 -46t-25.5 -54l-67 19q20 48 50 88.5t68 63.5q30 18 62.5 24t62.5 -1
q19 -4 29.5 -11t15.5 -16q13 -22 5 -61.5t-34 -74.5q-29 -41 -73.5 -64.5t-99.5 -23.5q-72 0 -125.5 36t-83 99t-29.5 142t30.5 141.5t85.5 99t128 36.5q55 0 99.5 -20.5t79.5 -54.5zM1036 409q-28 29 -60.5 47t-70.5 18q-53 0 -91 -28.5t-58.5 -76t-20.5 -105.5
q0 -63 22 -110t57.5 -73t77.5 -26q33 0 59.5 14t45 35t27.5 44t7 41q-24 0 -48 -12t-44 -30q-22 -20 -37.5 -46t-25.5 -54l-67 19q20 48 50 88.5t68 63.5q30 18 62.5 24t62.5 -1q19 -4 29.5 -11t15.5 -16q13 -22 5 -61.5t-34 -74.5q-29 -41 -73.5 -64.5t-99.5 -23.5
q-72 0 -125.5 36t-83 99t-29.5 142t30.5 141.5t85.5 99t128 36.5q55 0 99.5 -20.5t79.5 -54.5z" />
    <glyph glyph-name="uni1A70" unicode="&#x1a70;" horiz-adv-x="625" 
d="M553 159q-23 -76 -81.5 -122.5t-146.5 -46.5q-72 0 -125 36t-82 99t-29 142t29 141.5t82 99t125 36.5q87 0 145.5 -46t82.5 -122l-74 -26q-16 54 -55 89.5t-99 35.5q-48 0 -83.5 -28.5t-55 -75.5t-19.5 -104t19.5 -104t55 -74.5t83.5 -27.5q62 0 101 35.5t54 91.5z
M322 487q-51 0 -95 19t-77 53.5t-51 80.5t-18 100q0 76 35.5 134.5t95.5 92.5t132 34q65 0 119 -26.5t93 -68.5l-42 -62q-32 38 -76.5 62.5t-94.5 24.5q-52 0 -94 -25.5t-66 -70t-24 -100.5t24.5 -99t63 -67.5t78.5 -24.5z" />
    <glyph glyph-name="uni1A71" unicode="&#x1a71;" horiz-adv-x="613" 
d="M182 950l51 53q33 -27 70 -73t73.5 -104t66.5 -122q21 -44 38.5 -88t31.5 -99t23 -133l-64 -31q-3 44 -9 84t-17.5 82.5t-33.5 92.5q-38 89 -97.5 180t-132.5 158zM544 159q-22 -76 -81 -122.5t-147 -46.5q-72 0 -124.5 36t-81.5 99t-29 142t29 141.5t81.5 99t124.5 36.5
q57 0 96.5 -21t68.5 -57t55 -82l-64 -31q-19 52 -56.5 87t-99.5 35q-48 0 -83.5 -28.5t-54.5 -75.5t-19 -104t19 -104t54.5 -74.5t83.5 -27.5q62 0 101.5 35.5t54.5 91.5z" />
    <glyph glyph-name="uni1A72" unicode="&#x1a72;" horiz-adv-x="623" 
d="M316 -10q-72 0 -124.5 36t-81.5 99t-29 142t29 141.5t81.5 99t124.5 36.5q82 0 129 -42.5t80 -118.5l-56 -28q-14 52 -53.5 86t-99.5 34q-48 0 -83.5 -28.5t-54.5 -75.5t-19 -104t19 -104t54.5 -74.5t83.5 -27.5q62 0 101.5 35.5t54.5 91.5l72 -29q-22 -76 -81 -122.5
t-147 -46.5zM450 416v268q0 71 -19 127.5t-59 88.5t-103 31q-43 -1 -76 -15t-56 -28l-38 71q36 20 80 31t88 11q53 0 99.5 -18t82.5 -58t56 -105t20 -159v-278z" />
    <glyph glyph-name="uni1A73" unicode="&#x1a73;" 
d="M-459 605l-20 63q43 15 73 39.5t45.5 58t15.5 76.5h68q0 -42 15.5 -76t45.5 -58.5t73 -39.5l-20 -63q-55 17 -91.5 48.5t-56.5 77.5q-19 -46 -55.5 -77.5t-92.5 -48.5z" />
    <glyph glyph-name="uni1A74" unicode="&#x1a74;" 
d="M-302 622q-27 0 -50 13.5t-36.5 35.5t-13.5 49q0 41 29.5 69.5t70.5 28.5q29 0 52.5 -13t37.5 -35t14 -50q0 -27 -14 -49.5t-37.5 -35.5t-52.5 -13zM-301 676q20 0 33.5 12.5t13.5 30.5q0 19 -13.5 32t-33.5 13q-18 0 -31.5 -13t-13.5 -32q0 -18 13.5 -30.5t31.5 -12.5z
" />
    <glyph glyph-name="uni1A75" unicode="&#x1a75;" 
d="M-356 609v229h65v-229h5h-70z" />
    <glyph glyph-name="uni1A76" unicode="&#x1a76;" 
d="M-249 626l-17 5v156h58v-85l-19 10l200 124l36 -49z" />
    <glyph glyph-name="uni1A77" unicode="&#x1a77;" 
d="M-236 603l-48 48l166 177l167 -176l-48 -49l-119 126z" />
    <glyph glyph-name="uni1A78" unicode="&#x1a78;" 
d="M-70 605q-55 0 -86 26t-31 70h68q0 -35 50 -35t50 48v136h68v-130q0 -69 -54 -100q-13 -7 -29 -11t-36 -4z" />
    <glyph glyph-name="uni1A79" unicode="&#x1a79;" 
d="M-104 703q0 -14 12.5 -25t37.5 -11q19 0 36 7t34 20l28 -50q-13 -12 -38.5 -25.5t-62.5 -13.5q-34 0 -60 14t-40 39q-7 12 -10 24.5t-3 25.5v87h66v-92zM-110 780q16 -10 40 -10q52 0 52 44q0 20 -12 31t-39 11q-16 0 -32.5 -5t-37.5 -18l-23 54q15 10 43.5 20.5
t60.5 10.5q47 0 77 -27.5t30 -75.5q0 -49 -31.5 -78t-80.5 -29q-18 0 -30 4t-21 11z" />
    <glyph glyph-name="uni1A7A" unicode="&#x1a7a;" 
d="M24 610l-55 21q13 38 19.5 71t6.5 61q0 34 -12 60.5t-32 45.5t-50.5 27.5t-63.5 8.5q-23 0 -47 -6t-24 -17q0 -6 17.5 -15.5t34.5 -14.5q38 -11 61 -25t38 -29q25 -25 25 -62q0 -34 -17.5 -62.5t-46.5 -45t-65 -16.5q-55 0 -91.5 33t-36.5 85q0 35 21 66l50 -33
q-4 -8 -7 -16.5t-3 -18.5q0 -25 19 -41.5t49 -16.5q29 0 47.5 18t18.5 43q0 26 -21 41t-65 31q-21 8 -42.5 17t-36 23t-14.5 35q0 26 20 44.5t52.5 29t68.5 10.5q46 0 85.5 -12.5t67.5 -38.5q29 -25 45 -61.5t16 -83.5q0 -37 -8 -78.5t-24 -77.5z" />
    <glyph glyph-name="uni1A7B" unicode="&#x1a7b;" 
d="M-55 888h-63v24q0 49 29 85.5t83 36.5q23 0 45.5 -11t35.5 -41l-42 -41q-7 14 -16.5 23t-25.5 9q-19 0 -32.5 -18t-13.5 -48v-19z" />
    <glyph glyph-name="uni1A7C" unicode="&#x1a7c;" 
d="M-376 604q-32 0 -65 19t-62 68l48 34q16 -38 38 -52t42 -14q23 0 36.5 12.5t13.5 32.5q0 27 -25 41.5t-63 13.5q-3 38 9 67t34.5 45t50.5 16q19 0 36 -6t32 -14q21 -10 35 -17t25 -7t17.5 10t7.5 33q1 10 -2.5 26t-9.5 29l58 9q4 -8 8.5 -30t4.5 -45q0 -34 -12 -54.5
t-30.5 -30t-37.5 -9.5q-16 0 -29.5 6t-33.5 16q-19 10 -34.5 16.5t-28.5 6.5q-26 0 -31 -27q43 -11 61.5 -36.5t18.5 -56.5q0 -46 -33 -74t-79 -28z" />
    <glyph glyph-name="uni1A7F" unicode="&#x1a7f;" 
d="M-100 -230q-29 0 -49 19.5t-20 46.5q0 28 20 47.5t50 19.5q29 0 49.5 -19t20.5 -47t-21 -47.5t-50 -19.5z" />
    <glyph glyph-name="uni1A80" unicode="&#x1a80;" horiz-adv-x="604" 
d="M305 -10q-72 0 -123.5 36t-79.5 99t-28 142t28 141.5t79.5 99t123.5 36.5q71 0 122.5 -36.5t79.5 -99t28 -141.5t-28 -142t-79.5 -99t-122.5 -36zM305 61q48 0 82 27.5t51.5 74.5t17.5 104t-17.5 104t-51.5 75t-82 28t-82.5 -28t-52.5 -75t-18 -104t18 -104t52.5 -74.5
t82.5 -27.5z" />
    <glyph glyph-name="uni1A81" unicode="&#x1a81;" horiz-adv-x="624" 
d="M135 145q37 -44 71.5 -64t77.5 -20q54 0 93 28t59.5 76.5t20.5 107.5q0 62 -21 107.5t-56 70.5t-78 25q-42 0 -74 -22.5t-48.5 -53t-13.5 -54.5q28 1 57 16.5t51 39.5q17 19 28.5 40.5t15.5 43.5l57 -23q-7 -43 -36 -81t-73 -64q-31 -18 -61 -24.5t-59 -0.5
q-19 4 -30.5 11.5t-16.5 16.5q-13 23 -5 63t33 75q29 41 74 63t100 22h1q70 0 122.5 -36t81.5 -98t29 -142q0 -79 -30 -142t-85.5 -99.5t-132.5 -36.5q-55 0 -105 22.5t-92 71.5z" />
    <glyph glyph-name="uni1A82" unicode="&#x1a82;" horiz-adv-x="534" 
d="M257 548q44 0 75 -25.5t47 -75.5t16 -123v-305q0 -94 -18 -158t-49.5 -102t-73 -54.5t-88.5 -16.5q-48 0 -89 14.5t-73 44.5l41 66q17 -19 47 -36t75 -18q59 -1 92 26.5t46.5 74.5t13.5 102v303q0 52 -1 96t-7 77t-22 51q-32 3 -58 -8t-44 -30t-27 -39t-6 -35
q26 0 54 19.5t48.5 49.5t23.5 58l53 -21q-8 -40 -31 -79t-62 -61q-26 -14 -52.5 -16.5t-48.5 2.5q-19 5 -28.5 12.5t-14.5 15.5q-7 13 -7.5 32.5t6.5 42t21 43.5q25 35 63.5 54t77.5 19z" />
    <glyph glyph-name="uni1A83" unicode="&#x1a83;" horiz-adv-x="671" 
d="M356 -347l-73 -29l-166 483l60 31zM177 138q29 -37 64.5 -57t81.5 -20q51 0 88.5 28t58 75t20.5 104q0 64 -21 110.5t-56.5 72t-77.5 25.5t-74.5 -22.5t-49 -53t-13.5 -54.5q28 2 56.5 16.5t50.5 38.5q17 18 28.5 39.5t14.5 42.5l60 -20q-7 -43 -36.5 -81t-70.5 -62
q-33 -19 -64 -26t-64 0q-16 3 -26 11t-16 18q-12 21 -4.5 60.5t32.5 70.5q29 44 74.5 67t100.5 23q71 0 123.5 -36t81.5 -98t29 -142q0 -79 -30.5 -142t-85 -99.5t-128.5 -36.5q-35 0 -66.5 10.5t-59 31t-50.5 49.5z" />
    <glyph glyph-name="uni1A84" unicode="&#x1a84;" horiz-adv-x="662" 
d="M316 -347l179 485l60 -31l-166 -483zM495 138l29 -57q-23 -29 -50.5 -49.5t-58.5 -31t-67 -10.5q-73 0 -128 36.5t-85.5 99.5t-30.5 142q0 80 29 142t82 98t123 36q55 0 100.5 -23t74.5 -67q26 -31 33 -70.5t-5 -60.5q-6 -10 -16 -18t-26 -11q-33 -7 -64 0t-64 26
q-41 24 -70 62t-37 81l60 20q3 -21 14.5 -42.5t28.5 -39.5q22 -24 50.5 -38.5t56.5 -16.5q4 24 -13 54.5t-49 53t-75 22.5q-42 0 -77.5 -25.5t-56.5 -72t-21 -110.5q0 -57 20.5 -104t58 -75t88.5 -28q46 0 81.5 20t64.5 57z" />
    <glyph glyph-name="uni1A85" unicode="&#x1a85;" horiz-adv-x="622" 
d="M301 -278q-48 0 -87 19t-70 56q-32 41 -41 99l67 21q12 -56 44.5 -90.5t84.5 -34.5q48 0 77.5 23t45 62t21 89.5t5.5 104.5v96q0 65 -6 123t-24 101q-16 39 -44 61.5t-71 22.5q-47 0 -80 -25t-51 -62t-19 -73q-1 -43 18 -74.5t45 -48.5t46 -18q1 31 -19 62t-49.5 53
t-59.5 25l29 59q41 -9 78 -38t58 -73q14 -28 15 -56t-7 -57q-3 -13 -10.5 -22.5t-16.5 -14.5q-13 -6 -32 -4.5t-40 10.5t-41 24q-36 28 -57 69.5t-21 93.5q0 63 26.5 120t75.5 89q25 16 52.5 24t61.5 8q112 0 165 -89t53 -283v-93q0 -119 -25.5 -199t-74.5 -120t-122 -40z
" />
    <glyph glyph-name="uni1A86" unicode="&#x1a86;" horiz-adv-x="632" 
d="M330 -10q-73 0 -121.5 41t-73 126.5t-24.5 220.5v83q0 134 24 220t73.5 127.5t125.5 41.5q48 0 89 -22.5t70.5 -62t42.5 -90.5l-67 -20q-15 56 -52 90t-85 34q-57 0 -88.5 -39t-44 -108.5t-12.5 -160.5v-102q0 -145 30 -226t109 -81q38 0 70 18t51 44.5t17 51.5l22 -15
q-80 10 -128.5 37.5t-68.5 66t-15 81.5q6 43 33.5 79t67.5 55q36 17 73 16.5t54 -14.5q8 -6 13.5 -16.5t6.5 -27.5q3 -55 -35 -101q-29 -34 -70.5 -48.5t-82.5 -14.5l-9 56q29 -1 61 12.5t56 36t30 46.5q-23 8 -54 -2.5t-55.5 -39t-29.5 -75.5q16 -29 48 -46.5t76.5 -27
t94.5 -14.5q-10 -67 -37 -117t-75 -81q-25 -16 -51.5 -24t-58.5 -8z" />
    <glyph glyph-name="uni1A87" unicode="&#x1a87;" horiz-adv-x="691" 
d="M604 -290q-39 2 -69 21.5t-50.5 56t-32.5 88.5q-9 39 -10 86t0 102l4 98q2 64 -2 108t-10 76q-13 63 -47 95.5t-83 32.5q-36 0 -64 -15.5t-45.5 -41.5t-23.5 -59q-10 -51 4 -89t41 -59t54 -22q0 28 -16.5 56.5t-43.5 51t-58 31.5l15 66q44 -13 82 -44.5t56 -68.5
q17 -31 17.5 -61.5t-7.5 -56.5q-4 -13 -11.5 -22.5t-16.5 -14.5q-13 -6 -33.5 -3t-42.5 12.5t-42 24.5q-38 29 -56.5 72.5t-17.5 95.5q2 64 28.5 112.5t73.5 77.5q24 15 50.5 22t55.5 7q114 0 171.5 -93.5t49.5 -286.5l-2 -76q-2 -57 -1 -102t5 -79q8 -67 27.5 -96.5
t52.5 -31.5q23 -1 46 10.5t39 30.5l47 -56q-36 -32 -67.5 -44.5t-66.5 -11.5z" />
    <glyph glyph-name="uni1A88" unicode="&#x1a88;" horiz-adv-x="642" 
d="M369 54q33 19 56.5 49.5t36.5 71t13 88.5q0 59 -19 107t-55.5 76.5t-88.5 28.5q-47 0 -85 -22.5t-60 -60.5t-22 -86q0 -42 16.5 -72.5t41.5 -45.5t48 -14q-1 28 -19.5 56.5t-44 51t-51.5 30.5l12 60q41 -10 76 -36.5t57 -67.5q16 -29 20.5 -59t-3.5 -56
q-4 -16 -11.5 -25.5t-15.5 -14.5q-13 -7 -33.5 -6t-43 9.5t-43.5 24.5q-35 27 -56 69.5t-21 94.5q0 63 29 117t76 85q26 17 60.5 28t74.5 11q75 0 128.5 -37t82 -100.5t28.5 -145.5q0 -61 -16.5 -112t-46.5 -90t-73 -65z" />
    <glyph glyph-name="uni1A89" unicode="&#x1a89;" horiz-adv-x="587" 
d="M315 547q32 0 58.5 -8t51.5 -24q48 -31 75 -81t37 -117q-50 -5 -94.5 -14.5t-76.5 -27t-48 -46.5q5 -47 29.5 -75.5t55.5 -38.5t54 -3q-6 25 -30 47t-56 36t-61 12l9 56q41 0 82.5 -14t70.5 -49q38 -46 35 -101q-1 -16 -6.5 -27t-13.5 -17q-17 -13 -54 -13.5t-73 15.5
q-40 20 -67.5 55.5t-33.5 78.5q-5 44 15 82t68.5 65.5t128.5 37.5l-22 -15q2 26 -17 52t-51 44t-70 18q-79 0 -109 -80.5t-30 -226.5v-102q0 -91 12.5 -160.5t44 -108.5t88.5 -39q48 0 85 34.5t52 89.5l67 -20q-13 -50 -42.5 -90t-70.5 -62.5t-89 -22.5q-76 0 -125.5 41.5
t-73.5 127.5t-24 220v83q0 135 24.5 220.5t73 126.5t121.5 41z" />
    <glyph glyph-name="uni1A90" unicode="&#x1a90;" horiz-adv-x="628" 
d="M331 -10q-72 0 -123.5 36t-79.5 99t-28 142t28 141.5t79.5 99t123.5 36.5q71 0 122.5 -36.5t79.5 -99t28 -141.5t-28 -142t-79.5 -99t-122.5 -36zM331 61q48 0 82 27.5t51.5 74.5t17.5 104t-17.5 104t-51.5 75t-82 28t-82.5 -28t-52.5 -75t-18 -104t18 -104t52.5 -74.5
t82.5 -27.5z" />
    <glyph glyph-name="uni1A91" unicode="&#x1a91;" horiz-adv-x="750" 
d="M163 142q-39 28 -57.5 69.5t-18.5 93.5q0 63 27.5 117t76.5 86q26 17 59.5 27.5t72.5 10.5q68 0 118 -30t80 -85.5t36 -134.5q25 23 39.5 66.5t14.5 93.5q0 18 -2 36t-5 35l79 15q4 -17 6.5 -37t2.5 -43q0 -79 -35.5 -146.5t-107.5 -115.5l-73 18l1 36q0 74 -21 123
t-57 73.5t-81 24.5q-39 0 -72.5 -17t-56.5 -48.5t-32 -74.5q-7 -37 3.5 -73t36.5 -60.5t63 -28.5q1 28 -17.5 57.5t-45 51.5t-52.5 29l13 61q40 -10 76 -36t59 -69q14 -28 18 -58.5t-4 -59.5q-3 -13 -10.5 -22.5t-16.5 -14.5q-13 -6 -33 -4t-42 11t-42 23z" />
    <glyph glyph-name="uni1A92" unicode="&#x1a92;" horiz-adv-x="512" 
d="M265 -10q-44 0 -75 25.5t-47 75.5t-16 123v305q0 95 18 158.5t49.5 101.5t73 54.5t88.5 16.5q48 0 89 -14.5t73 -44.5l-41 -66q-17 19 -47 36t-75 18q-58 1 -91.5 -26.5t-47 -74t-13.5 -102.5v-303q0 -52 1 -96t7 -76.5t22 -51.5q32 -3 58 8t44 30t27 39t6 35
q-25 1 -53.5 -19t-49 -49.5t-23.5 -58.5l-53 21q8 40 31 79t62 61q26 14 52.5 16.5t48.5 -2.5q19 -4 29 -12t14 -16q7 -12 7.5 -32t-6 -42.5t-21.5 -43.5q-25 -34 -63.5 -53.5t-77.5 -19.5z" />
    <glyph glyph-name="uni1A93" unicode="&#x1a93;" horiz-adv-x="1047" 
d="M703 -10q-82 0 -142 44t-75 127l53 106q-2 -77 20.5 -122t60.5 -64.5t82 -19.5q75 0 121 48.5t46 131.5q0 54 -19.5 91.5t-54 62.5t-79.5 43q-41 17 -90 32.5t-102.5 38.5t-108.5 59q-37 25 -67 52t-51 56q-22 30 -34 63t-12 70q0 45 16.5 80.5t45 62t63.5 42.5l49 -56
q-23 -9 -45.5 -26.5t-36.5 -42.5t-14 -57q0 -38 20 -73.5t51.5 -65t63.5 -50.5q64 -43 130 -65.5t118 -41.5q53 -19 98 -43.5t77 -62.5q28 -31 44 -73t16 -96q0 -77 -32 -133.5t-87.5 -87t-124.5 -30.5zM139 145q37 -44 71.5 -64t77.5 -20q54 0 93 28t59.5 76.5t20.5 107.5
q0 62 -21 107.5t-56 70.5t-78 25q-42 0 -74 -22.5t-48.5 -53t-13.5 -54.5q28 1 57 16.5t51 39.5q17 19 28.5 40.5t15.5 43.5l57 -23q-7 -43 -36 -81t-73 -64q-31 -18 -61 -24.5t-59 -0.5q-19 4 -30.5 11.5t-16.5 16.5q-13 23 -5 63t33 75q29 41 74 63t100 22h1
q70 0 122.5 -36t81.5 -98t29 -142q0 -79 -30 -142t-85.5 -99.5t-132.5 -36.5q-55 0 -105 22.5t-92 71.5z" />
    <glyph glyph-name="uni1A94" unicode="&#x1a94;" horiz-adv-x="726" 
d="M400 -453q-85 0 -135 32.5t-66 104.5q-4 17 -6 36t-2 40v345l15 -60q-22 18 -42 40.5t-35 49.5q-18 34 -27 74t-9 90q0 43 5.5 89t15 87.5t19.5 70.5l79 -31q-6 -24 -15.5 -57.5t-17.5 -73t-8 -82.5q0 -117 62.5 -179t173.5 -62q44 0 83.5 11.5t57.5 41.5q5 7 8 16t3 21
q0 44 -42 67.5t-109 24.5v63l137 -32q41 -14 66 -47.5t25 -74.5q0 -46 -30.5 -82.5t-83.5 -58t-122 -21.5q-43 0 -80.5 8.5t-70.5 23.5l17 31v-309q0 -64 28.5 -95t101.5 -31q77 0 116 23.5t39 58.5q0 36 -33.5 58.5t-91.5 22.5q-40 0 -80.5 -8.5t-80 -25.5t-78 -41
t-74.5 -54l-28 58q52 44 106.5 75t113 48t121.5 17q56 0 101.5 -18.5t73 -53.5t27.5 -84q0 -45 -27.5 -78t-78.5 -51t-122 -18zM545 274l-137 32q58 2 97.5 25t39.5 69q0 23 -10.5 41t-27.5 28t-39 10t-37.5 -9.5t-15.5 -25.5q0 -12 10 -19.5t25 -7.5q24 0 50.5 19t46.5 56
l20 -71q-24 -34 -58.5 -50.5t-69.5 -16.5q-30 0 -52.5 12t-34.5 32t-12 44q0 31 18 53.5t47.5 35.5t63.5 13q45 0 79 -20t52.5 -52.5t18.5 -69.5q0 -47 -21 -79t-53 -49z" />
    <glyph glyph-name="uni1A95" unicode="&#x1a95;" horiz-adv-x="766" 
d="M580 279q52 -19 74.5 -51.5t22.5 -70.5q0 -16 -3.5 -30t-10.5 -27q-19 -37 -56.5 -61.5t-85 -36.5t-98.5 -12q-22 0 -44 2t-42 6q-111 20 -172 88.5t-61 165.5q0 40 11 83.5t38.5 89t75.5 91.5q63 60 113 109.5t80.5 99.5t36 110.5t-20.5 142.5l74 22q21 -86 18 -152
t-24 -116.5t-54.5 -92.5t-74 -81t-82.5 -80q-67 -66 -90 -118t-23 -97q0 -13 1.5 -24.5t3.5 -22.5q11 -50 40 -80.5t66.5 -47t74 -22t61.5 -5.5q29 0 59 6.5t55.5 18.5t39.5 27q8 8 12.5 19t4.5 24q0 38 -41 59t-106 27v64zM590 274l-137 32q58 2 97.5 25t39.5 69
q0 23 -10.5 41t-27.5 28t-39 10t-37.5 -9.5t-15.5 -25.5q0 -12 10 -19.5t25 -7.5q24 0 50.5 19t46.5 56l20 -71q-24 -34 -58.5 -50.5t-69.5 -16.5q-30 0 -52.5 12t-34.5 32t-12 44q0 31 18 53.5t47.5 35.5t63.5 13q45 0 79 -20t52.5 -52.5t18.5 -69.5q0 -47 -21 -79t-53 -49
z" />
    <glyph glyph-name="uni1A96" unicode="&#x1a96;" horiz-adv-x="782" 
d="M242 -9q-44 0 -78.5 18.5t-54 51.5t-20.5 74q0 46 24.5 81.5t67.5 57.5l137 32v-67q-67 -2 -109 -33t-42 -74q0 -30 21 -50t56 -20q40 0 67.5 30t45.5 88l71 -27q14 -45 35.5 -68.5t49.5 -23.5q27 0 46.5 23t30.5 66q6 26 9 54t3 57v346q0 20 1.5 37t3.5 33
q15 82 67.5 127.5t130.5 45.5q10 0 19.5 -1t24.5 -3l-16 -70q-16 3 -32 3q-46 0 -77.5 -26.5t-41.5 -75.5q-4 -21 -4 -53v-363q0 -81 -21 -143t-59 -95q-18 -16 -40.5 -24.5t-47.5 -8.5q-26 0 -50 10t-43 29.5t-33 47.5q-27 -45 -62.5 -65.5t-79.5 -20.5zM181 274
q-31 17 -52.5 49t-21.5 79q0 37 19 69.5t52.5 52.5t78.5 20q35 0 64 -13t47 -35.5t18 -53.5q0 -24 -12 -44t-34 -32t-53 -12q-34 0 -69 16.5t-59 50.5l20 71q20 -37 46.5 -56t50.5 -19q15 0 25 7.5t10 19.5q0 16 -15.5 25.5t-37.5 9.5q-21 0 -38.5 -10t-28 -28t-10.5 -41
q0 -46 39.5 -69t97.5 -25z" />
    <glyph glyph-name="uni1A97" unicode="&#x1a97;" horiz-adv-x="771" 
d="M512 551q61 -49 98.5 -106t55 -113.5t17.5 -106.5q0 -74 -22 -127t-60 -80.5t-85 -27.5q-20 0 -43.5 6.5t-46.5 25.5t-42 55q-27 -45 -62.5 -65.5t-79.5 -20.5t-78.5 18.5t-54 51.5t-20.5 74q0 46 24.5 81.5t67.5 57.5l137 32v-67q-67 -2 -109 -33t-42 -74q0 -30 21 -50
t56 -20q40 0 67.5 30t45.5 88l71 -27q11 -44 33 -68t52 -24q35 0 63.5 36.5t28.5 122.5q0 70 -34 141t-105 130zM181 274q-31 17 -52.5 49t-21.5 79q0 37 19 69.5t52.5 52.5t78.5 20q35 0 64 -13t47 -35.5t18 -53.5q0 -24 -12 -44t-34 -32t-53 -12q-34 0 -69 16.5t-59 50.5
l20 71q20 -37 46.5 -56t50.5 -19q15 0 25 7.5t10 19.5q0 16 -15.5 25.5t-37.5 9.5q-21 0 -38.5 -10t-28 -28t-10.5 -41q0 -46 39.5 -69t97.5 -25z" />
    <glyph glyph-name="uni1A98" unicode="&#x1a98;" horiz-adv-x="790" 
d="M175 -290l-16 7q101 44 190 69.5t186 25.5q49 0 96 -9t85.5 -28t61.5 -47.5t23 -67.5q0 -35 -15 -59t-39.5 -36t-54.5 -12q-12 0 -23.5 2t-22.5 6q-43 16 -66.5 59.5t-23.5 104.5v587q0 31 -3.5 62t-13.5 55q-8 21 -22 32.5t-33 11.5q-36 0 -59 -44.5t-29 -116.5l-68 12
q0 38 -14.5 71.5t-38 55t-51.5 22.5q-31 0 -54 -25.5t-23 -68.5q0 -28 10.5 -46t27.5 -19q12 0 19 8.5t7 22.5q0 20 -15.5 47t-53.5 54l44 31q28 -11 47 -38t29 -57.5t10 -54.5q0 -37 -22.5 -59t-58.5 -22q-47 0 -79 36.5t-33 96.5q0 42 16.5 79.5t48 61.5t76.5 24
q48 0 87.5 -27t58.5 -71q17 45 49.5 71.5t75.5 26.5q42 0 73.5 -27.5t49 -80t17.5 -129.5v-582q0 -51 15 -77t41 -26q14 0 25 9.5t11 28.5q0 20 -15 36q-15 17 -47 27.5t-70.5 16t-73.5 5.5q-82 0 -169.5 -27.5t-196.5 -77.5l-64 33q15 77 64 148t117 119q54 38 117.5 58
t132.5 20q53 0 101 -12t90 -35q41 -22 74.5 -57t63.5 -79l-50 -52q-51 81 -123 122.5t-152 41.5q-84 0 -153 -33t-118.5 -87t-75.5 -117z" />
    <glyph glyph-name="uni1A99" unicode="&#x1a99;" horiz-adv-x="1021" 
d="M717 544q52 0 92 -24t67.5 -65t41.5 -91.5t14 -104.5q0 -71 -24 -132.5t-68 -99t-105 -37.5q-43 0 -76 19.5t-62 53.5q-15 19 -34.5 48.5t-40.5 68.5l-95 181q-19 35 -32.5 56t-25.5 32q-12 12 -26.5 18t-31.5 6q-32 0 -60.5 -24t-46.5 -72.5t-18 -122.5q1 -39 7.5 -78.5
t21 -72.5t39.5 -51q49 0 79.5 21.5t43.5 52t6 54.5q-26 -2 -51 -24t-41 -53t-16 -62l-52 10q3 41 21.5 82.5t59.5 69.5q20 14 44.5 22t52.5 3q30 -4 41 -22q12 -19 7.5 -54.5t-24.5 -68.5q-23 -40 -61.5 -64t-80.5 -26q-46 -2 -86 26t-65 87t-25 150q0 83 25 148t70.5 102.5
t106.5 37.5q43 0 77.5 -19t63.5 -55q14 -17 33 -46t39 -68l96 -181q19 -35 34 -58t27 -34q12 -13 25 -17.5t26 -4.5q39 0 66.5 28.5t42.5 76t15 103.5q0 95 -39.5 149.5t-100.5 54.5q-26 0 -48.5 -11t-39.5 -34l-49 48q23 32 59 50t81 18z" />
    <glyph glyph-name="uni1AA0" unicode="&#x1aa0;" horiz-adv-x="723" 
d="M363 -10q-82 0 -153.5 40.5t-113.5 111.5t-42 156t42.5 156t113.5 111t153 40t153.5 -40t113.5 -111q43 -70 43 -156q0 -85 -42.5 -156.5t-114.5 -111.5q-71 -40 -153 -40zM322 63v196h-194q9 -50 36 -91.5t68 -68.5t90 -36zM126 327h196v205q-51 -9 -93 -38t-69 -72
t-34 -95zM405 63q49 8 90 35.5t68.5 69t34.5 91.5h-193v-196zM405 327h195q-7 52 -34 95t-68.5 72t-92.5 38v-205z" />
    <glyph glyph-name="uni1AA1" unicode="&#x1aa1;" horiz-adv-x="727" 
d="M363 -10q-82 0 -153.5 40.5t-113.5 111.5t-42 156t42.5 156t113.5 111t153 40q10 0 21 -0.5t21 -1.5v-276h266l2 -29q0 -85 -42.5 -156.5t-114.5 -111.5q-71 -40 -153 -40zM322 63v196h-194q9 -50 36 -91.5t68 -68.5t90 -36zM126 327h196v205q-51 -9 -93 -38t-69 -72
t-34 -95zM405 63q49 8 90 35.5t68.5 69t34.5 91.5h-193v-196z" />
    <glyph glyph-name="uni1AA2" unicode="&#x1aa2;" horiz-adv-x="1057" 
d="M444 113l47 155q-3 -68 17 -114t57 -69.5t82 -23.5q53 0 89.5 28t56 75t19.5 104t-19.5 103.5t-56 74t-89.5 27.5q-23 0 -43.5 -5.5t-38.5 -15.5l-40 58q28 17 58.5 25.5t65.5 8.5q74 0 128 -37t83.5 -100t29.5 -142q0 -78 -29 -140t-83.5 -98.5t-129.5 -36.5
q-79 0 -128.5 37t-75.5 86zM256 -10q-73 0 -124.5 37.5t-77.5 100.5l71 27q18 -43 51.5 -68.5t79.5 -25.5q48 0 83 27.5t54.5 74.5t19.5 104t-19.5 104t-54.5 75t-83 28q-42 0 -73 -22t-50 -57l-67 39q29 51 77.5 80.5t112.5 29.5q72 0 124.5 -36.5t81.5 -99t29 -141.5
t-29 -142t-81.5 -99t-124.5 -36zM581 649q-32 0 -65 19t-62 68l48 34q16 -38 38 -52t42 -14q23 0 36.5 12.5t13.5 32.5q0 27 -25 41.5t-63 13.5q-3 38 9 67t34.5 45t50.5 16q19 0 36 -6t32 -14q21 -10 35 -17t25 -7t17.5 10t7.5 33q1 10 -2.5 26t-9.5 29l58 9q4 -8 8.5 -30
t4.5 -45q0 -34 -12 -54.5t-30.5 -30t-37.5 -9.5q-16 0 -29.5 6t-33.5 16q-19 10 -34.5 16.5t-28.5 6.5q-26 0 -31 -27q43 -11 61.5 -36.5t18.5 -56.5q0 -46 -33 -74t-79 -28z" />
    <glyph glyph-name="uni1AA3" unicode="&#x1aa3;" horiz-adv-x="829" 
d="M705 218q-38 0 -65 26t-27 64t27 63.5t65 25.5q41 0 69 -25.5t28 -63.5q0 -37 -28 -63.5t-69 -26.5zM119 218q-38 0 -65 26t-27 64t27 63.5t65 25.5q41 0 69 -25.5t28 -63.5q0 -37 -28 -63.5t-69 -26.5zM118 270q16 0 27 10.5t11 25.5q0 16 -11 26t-27 10t-26 -10
t-10 -26q0 -15 10 -25.5t26 -10.5zM412 -75q-38 0 -65 26t-27 64t27 63.5t65 25.5q41 0 69 -25.5t28 -63.5q0 -37 -28 -63.5t-69 -26.5zM411 -23q16 0 27 10.5t11 25.5q0 16 -11 26t-27 10t-26 -10t-10 -26q0 -15 10 -25.5t26 -10.5zM292 55l-31 31l84 82l30 -32zM189 158
l-30 32l84 81l30 -31zM241 106l-30 32l84 82l30 -32zM243 347l-84 81l30 32l84 -82zM541 55l-84 81l30 32l84 -82zM412 218q-38 0 -65 26t-27 64t27 63.5t65 25.5q41 0 69 -25.5t28 -63.5q0 -37 -28 -63.5t-69 -26.5zM411 270q16 0 27 10.5t11 25.5q0 16 -11 26t-27 10
t-26 -10t-10 -26q0 -15 10 -25.5t26 -10.5zM295 398l-84 82l30 32l84 -82zM591 106l-84 82l30 32l84 -82zM345 450l-84 82l31 31l83 -81zM643 158l-84 82l30 31l84 -81zM704 270q16 0 27 10.5t11 25.5q0 16 -11 26t-27 10t-26 -10t-10 -26q0 -15 10 -25.5t26 -10.5zM412 511
q-38 0 -65 26t-27 64t27 63.5t65 25.5q41 0 69 -25.5t28 -63.5q0 -37 -28 -63.5t-69 -26.5zM411 563q16 0 27 10.5t11 25.5q0 16 -11 26t-27 10t-26 -10t-10 -26q0 -15 10 -25.5t26 -10.5zM537 398l-30 32l84 82l30 -32zM589 347l-30 31l84 82l30 -32zM487 450l-30 32l84 81
l30 -31z" />
    <glyph glyph-name="uni1AA4" unicode="&#x1aa4;" horiz-adv-x="724" 
d="M423 0q-369 0 -369 303q0 90 39.5 158t109.5 106t159 38q62 0 117.5 -16t98.5 -48t67.5 -78t24.5 -106q0 -124 -62 -183.5t-185 -59.5t-182 46t-59 143q0 55 23 95.5t65 63t97 22.5q89 0 132 -31.5t43 -95.5q0 -62 -32.5 -92.5t-102.5 -30.5q-57 0 -88 20l35 47
q11 -11 53 -11q38 0 55.5 16.5t17.5 50.5q0 37 -25 54.5t-83 17.5q-66 0 -97 -30.5t-31 -95.5q0 -70 43.5 -102t135.5 -32q94 0 139.5 45.5t45.5 142.5q0 59 -31 102t-86.5 67t-128.5 24q-72 0 -128 -31t-87.5 -86.5t-31.5 -129.5q0 -249 308 -249h185v-54h-185z" />
    <glyph glyph-name="uni1AA5" unicode="&#x1aa5;" horiz-adv-x="742" 
d="M331 -20q-60 0 -60 97q0 63 41 112l38 -30q-14 -18 -22 -37t-8 -45q0 -43 12 -43q18 0 22 35h34q3 -22 9 -28q7 -7 13 -7q12 0 12 43q0 26 -7.5 45t-21.5 37l38 30q40 -47 40 -112q0 -97 -59 -97q-18 0 -41 27q-19 -27 -40 -27zM119 65l-31 32l101 96l31 -31zM162 24
l-31 32l101 96l31 -32zM150 198q-96 0 -96 59q0 23 27 41q-27 20 -27 40q0 60 96 60q63 0 112 -41l-30 -38q-18 14 -37 22t-45 8q-43 0 -43 -13q0 -5 7 -12t28 -10v-33q-35 -5 -35 -22q0 -12 43 -12q26 0 45 7.5t37 21.5l30 -38q-47 -40 -112 -40zM189 402l-101 97l31 31
l101 -96zM581 24l-102 96l31 32l101 -96zM372 208q-38 0 -65 26.5t-27 63.5q0 38 27 64t65 26q41 0 69 -26t28 -64q0 -37 -28 -63.5t-69 -26.5zM371 260q16 0 27 10.5t11 25.5q0 16 -11 26.5t-27 10.5t-26 -10.5t-10 -26.5q0 -15 10 -25.5t26 -10.5zM232 444l-101 96l31 32
l101 -96zM624 65l-102 97l31 31l101 -96zM312 407q-19 22 -30 51.5t-11 60.5q0 96 60 96q21 0 40 -27q23 27 41 27q59 0 59 -96q0 -66 -40 -112l-38 30q14 17 21.5 36.5t7.5 45.5q0 43 -12 43q-6 0 -13 -7q-6 -6 -9 -28h-34q-5 35 -22 35q-12 0 -12 -43q0 -26 8 -45.5
t22 -36.5zM592 198q-66 0 -112 40l30 38q18 -14 37 -21.5t45 -7.5q43 0 43 12q0 18 -35 22v33q21 3 28 10t7 12q0 13 -43 13q-26 0 -45 -8t-37 -22l-30 38q22 20 51.5 30.5t60.5 10.5q96 0 96 -60q0 -20 -26 -40q26 -19 26 -41q0 -59 -96 -59zM510 444l-31 32l102 96l30 -32
zM553 402l-31 32l102 96l30 -31z" />
    <glyph glyph-name="uni1AA6" unicode="&#x1aa6;" horiz-adv-x="699" 
d="M72 451q0 73 37.5 128t100.5 86t139 31q79 0 141.5 -29t99 -83t36.5 -129q0 -72 -35 -123t-93.5 -78.5t-129.5 -27.5q-25 0 -50 3.5t-53 10.5q-29 8 -46.5 11.5t-24.5 3.5q-51 0 -51 -59q0 -31 14 -47.5t37 -16.5q7 0 24.5 4t46.5 11q28 7 53 10.5t50 3.5q72 0 130.5 -28
t93 -79.5t34.5 -122.5q0 -74 -36.5 -128.5t-99 -83.5t-141.5 -29q-76 0 -139 31t-100.5 86.5t-37.5 129.5v10.5v11.5l71 -11q0 -62 26.5 -102t73 -59t106.5 -19q57 0 103.5 19.5t74.5 57t28 90.5q0 68 -49.5 108t-140.5 40q-35 0 -61.5 -6t-47.5 -11q-16 -4 -36.5 -9.5
t-39.5 -5.5q-50 0 -79 41t-29 102q0 65 32 103.5t78 38.5q17 0 38 -4.5t40 -9.5q18 -4 44 -11t61 -7q84 0 137 36.5t53 110.5q0 53 -28 90.5t-74.5 57t-103.5 19.5q-94 0 -150 -46t-56 -129l-71 -10v9.5v8.5z" />
    <glyph glyph-name="uni1AA7" unicode="&#x1aa7;" horiz-adv-x="664" 
d="M392 -193q-37 0 -73 11t-65 31l32 66q20 -13 50.5 -25.5t62.5 -12.5q44 0 69 31t33 79q4 20 5 40.5t1 44.5v209q0 51 -5 85t-14 56q-12 30 -28.5 39.5t-32.5 9.5q-31 0 -54 -27.5t-31 -87.5l-66 14q-4 58 -27 79t-48 21q-27 0 -50 -20t-23 -61q0 -46 29.5 -72.5
t69.5 -41.5l-32 -67q-38 15 -71.5 42.5t-53.5 63.5t-20 78t20.5 75.5t53.5 53.5t72 20q22 0 45 -8t42.5 -26.5t28.5 -51.5q19 37 41.5 55.5t45.5 25t41 6.5q56 -1 87 -38.5t43.5 -99t12.5 -133.5v-209q0 -28 -1.5 -50t-6.5 -42q-14 -71 -58.5 -117t-124.5 -46z" />
    <glyph glyph-name="uni1AA8" unicode="&#x1aa8;" horiz-adv-x="312" 
d="M118 0v605h76v-605h-76z" />
    <glyph glyph-name="uni1AAA" unicode="&#x1aaa;" horiz-adv-x="635" 
d="M441 0v220q-32 -23 -67 -33.5t-75 -10.5q-77 0 -136 35.5t-81 100.5q-5 16 -8 33t-3 36q0 58 26 106t72.5 80.5t106.5 41.5l21 -65q-66 -11 -107 -51.5t-41 -104.5q0 -67 43.5 -104t113.5 -37q44 0 77.5 13.5t57.5 35.5v309h76v-605h-76z" />
    <glyph glyph-name="uni1AAB" unicode="&#x1aab;" horiz-adv-x="788" 
d="M605 0v605h76v-605h-76zM448 0v220q-32 -23 -67 -33.5t-75 -10.5q-77 0 -136 35.5t-81 100.5q-5 16 -8 33t-3 36q0 58 26 106t72.5 80.5t106.5 41.5l21 -65q-66 -11 -107 -51.5t-41 -104.5q0 -67 43.5 -104t113.5 -37q44 0 77.5 13.5t57.5 35.5v309h76v-605h-76z" />
    <glyph glyph-name="uni1AAC" unicode="&#x1aac;" horiz-adv-x="1369" 
d="M458 228l29 122q17 -91 61.5 -137t102.5 -46q53 0 90 28t56.5 75t19.5 104t-19.5 103.5t-56.5 74t-90 27.5q-22 0 -42.5 -5.5t-38.5 -15.5l-39 58q27 17 57 25.5t63 8.5q73 0 127.5 -37.5t85.5 -100t31 -138.5q0 -79 -29.5 -142t-84 -99.5t-130.5 -36.5q-49 0 -86.5 18.5
t-64 48.5t-42.5 65zM857 338l32 96q16 -79 59.5 -120.5t101.5 -41.5q53 0 90 28t56.5 75.5t19.5 103.5q0 58 -19.5 104.5t-56.5 74t-90 27.5q-22 0 -42.5 -5.5t-38.5 -15.5l-40 58q28 17 58 25.5t63 8.5q73 0 127.5 -37.5t85.5 -100t31 -139.5q0 -79 -29.5 -141.5t-84 -99
t-130.5 -36.5q-49 0 -86.5 19t-64 50t-42.5 67zM261 -10q-73 0 -124.5 37.5t-77.5 100.5l71 27q18 -43 51.5 -68.5t79.5 -25.5q48 0 83 27.5t54.5 74.5t19.5 104t-19.5 104t-54.5 75t-83 28q-42 0 -73 -22t-50 -57l-67 39q29 51 77.5 80.5t112.5 29.5q72 0 124.5 -36.5
t81.5 -99t29 -141.5t-29 -142t-81.5 -99t-124.5 -36z" />
    <glyph glyph-name="uni1AAD" unicode="&#x1aad;" horiz-adv-x="662" 
d="M169 494q30 -44 56 -59t45 -16q20 -1 30.5 8t10.5 20t-13 21.5t-39 10.5q-13 0 -29.5 -4.5t-29.5 -17.5t-16 -39q-4 -33 13.5 -58.5t49 -40t70.5 -17.5v-64q-44 -9 -81.5 -37.5t-60 -78.5t-22.5 -123q0 -79 26.5 -128t68 -71t85.5 -22q22 0 52.5 7.5t60 29.5t49 65
t19.5 114q0 56 -18.5 114.5t-73.5 127.5l66 38q60 -71 82 -144t22 -134q0 -86 -32.5 -151t-91 -101.5t-136.5 -36.5q-81 0 -138.5 39t-88 106t-30.5 151q0 106 42 176.5t106 100.5l-14 -19q-46 20 -73 58.5t-27 83.5q0 41 21 73t55.5 50.5t74.5 18.5q54 0 90.5 -30t36.5 -74
q0 -26 -13 -45t-35 -29t-50 -10t-62.5 13.5t-63.5 59.5z" />
    <glyph glyph-name="uni200B" unicode="&#x200b;" 
 />
    <glyph glyph-name="uni200C" unicode="&#x200c;" 
 />
    <glyph glyph-name="uni200D" unicode="&#x200d;" 
 />
    <glyph glyph-name="uni2219" unicode="&#x2219;" horiz-adv-x="283" 
d="M140 285q-28 0 -44.5 18.5t-16.5 49.5q0 32 16 50t45 18q30 0 46.5 -18t16.5 -50q0 -31 -16.5 -49.5t-46.5 -18.5z" />
    <glyph glyph-name="kaHigh_raMedial_signOotham" horiz-adv-x="1908" 
d="M1079 -5q-40 32 -74.5 69.5t-55 87t-20.5 114.5q0 79 32.5 142t89.5 99.5t131 36.5q73 0 129.5 -36.5t88.5 -99.5t32 -142q0 -65 -21 -114.5t-55 -87t-74 -69.5l-49 61q53 33 86.5 86t33.5 124q0 57 -20.5 104t-58.5 75t-92 28t-93.5 -28t-60.5 -75t-21 -104
q0 -71 34 -124t87 -86zM1385 421q26 49 75.5 86t128.5 37q75 0 129.5 -36t83.5 -98.5t29 -140.5q0 -79 -29.5 -142t-83.5 -100t-128 -37q-35 0 -65.5 9t-58.5 25l40 58q18 -10 38.5 -15.5t43.5 -5.5q53 0 89.5 27.5t56 74t19.5 103.5t-19.5 104t-56 75t-89.5 28
q-45 0 -82 -23.5t-57 -69.5t-17 -114zM894 -466q-73 0 -121 35.5t-69 100.5q-7 22 -11 51.5t-4 54.5v982q0 70 28 126.5t80 87.5q23 14 46.5 21t50.5 7q22 0 38 -2.5t27 -4.5l-22 -70q-11 5 -23.5 7t-23.5 2q-56 0 -91 -43.5t-35 -114.5v-1016q0 -55 18 -89.5t47 -50.5
t61 -16q11 0 23.5 2.5t23.5 6.5l22 -70q-11 -2 -27 -4.5t-38 -2.5zM553 159q-23 -76 -81.5 -122.5t-146.5 -46.5q-72 0 -125 36t-82 99t-29 142t29 141.5t82 99t125 36.5q87 0 145.5 -46t82.5 -122l-74 -26q-16 54 -55 89.5t-99 35.5q-48 0 -83.5 -28.5t-55 -75.5
t-19.5 -104t19.5 -104t55 -74.5t83.5 -27.5q62 0 101 35.5t54 91.5zM322 487q-51 0 -95 19t-77 53.5t-51 80.5t-18 100q0 76 35.5 134.5t95.5 92.5t132 34q65 0 119 -26.5t93 -68.5l-42 -62q-32 38 -76.5 62.5t-94.5 24.5q-52 0 -94 -25.5t-66 -70t-24 -100.5t24.5 -99
t63 -67.5t78.5 -24.5z" />
    <glyph glyph-name="kaHigh_raMedialtham" horiz-adv-x="1307" 
d="M478 -5q-40 32 -74.5 69.5t-55 87t-20.5 114.5q0 79 32.5 142t89.5 99.5t131 36.5q73 0 129.5 -36.5t88.5 -99.5t32 -142q0 -65 -21 -114.5t-55 -87t-74 -69.5l-49 61q53 33 86.5 86t33.5 124q0 57 -20.5 104t-58.5 75t-92 28t-93.5 -28t-60.5 -75t-21 -104
q0 -71 34 -124t87 -86zM784 421q26 49 75.5 86t128.5 37q75 0 129.5 -36t83.5 -98.5t29 -140.5q0 -79 -29.5 -142t-83.5 -100t-128 -37q-35 0 -65.5 9t-58.5 25l40 58q18 -10 38.5 -15.5t43.5 -5.5q53 0 89.5 27.5t56 74t19.5 103.5t-19.5 104t-56 75t-89.5 28
q-45 0 -82 -23.5t-57 -69.5t-17 -114zM303 -466q-73 0 -121 35.5t-69 100.5q-7 22 -11 51.5t-4 54.5v982q0 70 28 126.5t80 87.5q23 14 46.5 21t50.5 7q22 0 38 -2.5t27 -4.5l-22 -70q-11 5 -23.5 7t-23.5 2q-56 0 -91 -43.5t-35 -114.5v-1016q0 -55 18 -89.5t47 -50.5
t61 -16q11 0 23.5 2.5t23.5 6.5l22 -70q-11 -2 -27 -4.5t-38 -2.5z" />
    <glyph glyph-name="kaHigh_raMedial_signAetham" horiz-adv-x="2448" 
d="M1618 -5q-40 32 -74.5 69.5t-55 87t-20.5 114.5q0 79 32.5 142t89.5 99.5t131 36.5q73 0 129.5 -36.5t88.5 -99.5t32 -142q0 -65 -21 -114.5t-55 -87t-74 -69.5l-49 61q53 33 86.5 86t33.5 124q0 57 -20.5 104t-58.5 75t-92 28t-93.5 -28t-60.5 -75t-21 -104
q0 -71 34 -124t87 -86zM1924 421q26 49 75.5 86t128.5 37q75 0 129.5 -36t83.5 -98.5t29 -140.5q0 -79 -29.5 -142t-83.5 -100t-128 -37q-35 0 -65.5 9t-58.5 25l40 58q18 -10 38.5 -15.5t43.5 -5.5q53 0 89.5 27.5t56 74t19.5 103.5t-19.5 104t-56 75t-89.5 28
q-45 0 -82 -23.5t-57 -69.5t-17 -114zM1434 -466q-73 0 -121 35.5t-69 100.5q-7 22 -11 51.5t-4 54.5v982q0 70 28 126.5t80 87.5q23 14 46.5 21t50.5 7q22 0 38 -2.5t27 -4.5l-22 -70q-11 5 -23.5 7t-23.5 2q-56 0 -91 -43.5t-35 -114.5v-1016q0 -55 18 -89.5t47 -50.5
t61 -16q11 0 23.5 2.5t23.5 6.5l22 -70q-11 -2 -27 -4.5t-38 -2.5zM457 409q-28 29 -60.5 47t-70.5 18q-53 0 -91 -28.5t-58.5 -76t-20.5 -105.5q0 -63 22 -110t57.5 -73t77.5 -26q33 0 59.5 14t45 35t27.5 44t7 41q-24 0 -48 -12t-44 -30q-22 -20 -37.5 -46t-25.5 -54
l-67 19q20 48 50 88.5t68 63.5q30 18 62.5 24t62.5 -1q19 -4 29.5 -11t15.5 -16q13 -22 5 -61.5t-34 -74.5q-29 -41 -73.5 -64.5t-99.5 -23.5q-72 0 -125.5 36t-83 99t-29.5 142t30.5 141.5t85.5 99t128 36.5q55 0 99.5 -20.5t79.5 -54.5zM1036 409q-28 29 -60.5 47
t-70.5 18q-53 0 -91 -28.5t-58.5 -76t-20.5 -105.5q0 -63 22 -110t57.5 -73t77.5 -26q33 0 59.5 14t45 35t27.5 44t7 41q-24 0 -48 -12t-44 -30q-22 -20 -37.5 -46t-25.5 -54l-67 19q20 48 50 88.5t68 63.5q30 18 62.5 24t62.5 -1q19 -4 29.5 -11t15.5 -16q13 -22 5 -61.5
t-34 -74.5q-29 -41 -73.5 -64.5t-99.5 -23.5q-72 0 -125.5 36t-83 99t-29.5 142t30.5 141.5t85.5 99t128 36.5q55 0 99.5 -20.5t79.5 -54.5z" />
    <glyph glyph-name="kaHigh_raMedial_signEtham" horiz-adv-x="1867" 
d="M1037 -5q-40 32 -74.5 69.5t-55 87t-20.5 114.5q0 79 32.5 142t89.5 99.5t131 36.5q73 0 129.5 -36.5t88.5 -99.5t32 -142q0 -65 -21 -114.5t-55 -87t-74 -69.5l-49 61q53 33 86.5 86t33.5 124q0 57 -20.5 104t-58.5 75t-92 28t-93.5 -28t-60.5 -75t-21 -104
q0 -71 34 -124t87 -86zM1343 421q26 49 75.5 86t128.5 37q75 0 129.5 -36t83.5 -98.5t29 -140.5q0 -79 -29.5 -142t-83.5 -100t-128 -37q-35 0 -65.5 9t-58.5 25l40 58q18 -10 38.5 -15.5t43.5 -5.5q53 0 89.5 27.5t56 74t19.5 103.5t-19.5 104t-56 75t-89.5 28
q-45 0 -82 -23.5t-57 -69.5t-17 -114zM864 -466q-73 0 -121 35.5t-69 100.5q-7 22 -11 51.5t-4 54.5v982q0 70 28 126.5t80 87.5q23 14 46.5 21t50.5 7q22 0 38 -2.5t27 -4.5l-22 -70q-11 5 -23.5 7t-23.5 2q-56 0 -91 -43.5t-35 -114.5v-1016q0 -55 18 -89.5t47 -50.5
t61 -16q11 0 23.5 2.5t23.5 6.5l22 -70q-11 -2 -27 -4.5t-38 -2.5zM457 409q-28 29 -60.5 47t-70.5 18q-53 0 -91 -28.5t-58.5 -76t-20.5 -105.5q0 -63 22 -110t57.5 -73t77.5 -26q33 0 59.5 14t45 35t27.5 44t7 41q-24 0 -48 -12t-44 -30q-22 -20 -37.5 -46t-25.5 -54
l-67 19q20 48 50 88.5t68 63.5q30 18 62.5 24t62.5 -1q19 -4 29.5 -11t15.5 -16q13 -22 5 -61.5t-34 -74.5q-29 -41 -73.5 -64.5t-99.5 -23.5q-72 0 -125.5 36t-83 99t-29.5 142t30.5 141.5t85.5 99t128 36.5q55 0 99.5 -20.5t79.5 -54.5z" />
    <glyph glyph-name="kaHigh_signAetham" horiz-adv-x="2195" 
d="M1365 -5q-40 32 -74.5 69.5t-55 87t-20.5 114.5q0 79 32.5 142t89.5 99.5t131 36.5q73 0 129.5 -36.5t88.5 -99.5t32 -142q0 -65 -21 -114.5t-55 -87t-74 -69.5l-49 61q53 33 86.5 86t33.5 124q0 57 -20.5 104t-58.5 75t-92 28t-93.5 -28t-60.5 -75t-21 -104
q0 -71 34 -124t87 -86zM1671 421q26 49 75.5 86t128.5 37q75 0 129.5 -36t83.5 -98.5t29 -140.5q0 -79 -29.5 -142t-83.5 -100t-128 -37q-35 0 -65.5 9t-58.5 25l40 58q18 -10 38.5 -15.5t43.5 -5.5q53 0 89.5 27.5t56 74t19.5 103.5t-19.5 104t-56 75t-89.5 28
q-45 0 -82 -23.5t-57 -69.5t-17 -114zM457 409q-28 29 -60.5 47t-70.5 18q-53 0 -91 -28.5t-58.5 -76t-20.5 -105.5q0 -63 22 -110t57.5 -73t77.5 -26q33 0 59.5 14t45 35t27.5 44t7 41q-24 0 -48 -12t-44 -30q-22 -20 -37.5 -46t-25.5 -54l-67 19q20 48 50 88.5t68 63.5
q30 18 62.5 24t62.5 -1q19 -4 29.5 -11t15.5 -16q13 -22 5 -61.5t-34 -74.5q-29 -41 -73.5 -64.5t-99.5 -23.5q-72 0 -125.5 36t-83 99t-29.5 142t30.5 141.5t85.5 99t128 36.5q55 0 99.5 -20.5t79.5 -54.5zM1036 409q-28 29 -60.5 47t-70.5 18q-53 0 -91 -28.5t-58.5 -76
t-20.5 -105.5q0 -63 22 -110t57.5 -73t77.5 -26q33 0 59.5 14t45 35t27.5 44t7 41q-24 0 -48 -12t-44 -30q-22 -20 -37.5 -46t-25.5 -54l-67 19q20 48 50 88.5t68 63.5q30 18 62.5 24t62.5 -1q19 -4 29.5 -11t15.5 -16q13 -22 5 -61.5t-34 -74.5q-29 -41 -73.5 -64.5
t-99.5 -23.5q-72 0 -125.5 36t-83 99t-29.5 142t30.5 141.5t85.5 99t128 36.5q55 0 99.5 -20.5t79.5 -54.5z" />
    <glyph glyph-name="kaHigh_signEtham" horiz-adv-x="1611" 
d="M781 -5q-40 32 -74.5 69.5t-55 87t-20.5 114.5q0 79 32.5 142t89.5 99.5t131 36.5q73 0 129.5 -36.5t88.5 -99.5t32 -142q0 -65 -21 -114.5t-55 -87t-74 -69.5l-49 61q53 33 86.5 86t33.5 124q0 57 -20.5 104t-58.5 75t-92 28t-93.5 -28t-60.5 -75t-21 -104
q0 -71 34 -124t87 -86zM1087 421q26 49 75.5 86t128.5 37q75 0 129.5 -36t83.5 -98.5t29 -140.5q0 -79 -29.5 -142t-83.5 -100t-128 -37q-35 0 -65.5 9t-58.5 25l40 58q18 -10 38.5 -15.5t43.5 -5.5q53 0 89.5 27.5t56 74t19.5 103.5t-19.5 104t-56 75t-89.5 28
q-45 0 -82 -23.5t-57 -69.5t-17 -114zM457 409q-28 29 -60.5 47t-70.5 18q-53 0 -91 -28.5t-58.5 -76t-20.5 -105.5q0 -63 22 -110t57.5 -73t77.5 -26q33 0 59.5 14t45 35t27.5 44t7 41q-24 0 -48 -12t-44 -30q-22 -20 -37.5 -46t-25.5 -54l-67 19q20 48 50 88.5t68 63.5
q30 18 62.5 24t62.5 -1q19 -4 29.5 -11t15.5 -16q13 -22 5 -61.5t-34 -74.5q-29 -41 -73.5 -64.5t-99.5 -23.5q-72 0 -125.5 36t-83 99t-29.5 142t30.5 141.5t85.5 99t128 36.5q55 0 99.5 -20.5t79.5 -54.5z" />
    <glyph glyph-name="kaHigh_raMedial_signAitham" horiz-adv-x="1908" 
d="M1078 -5q-40 32 -74.5 69.5t-55 87t-20.5 114.5q0 79 32.5 142t89.5 99.5t131 36.5q73 0 129.5 -36.5t88.5 -99.5t32 -142q0 -65 -21 -114.5t-55 -87t-74 -69.5l-49 61q53 33 86.5 86t33.5 124q0 57 -20.5 104t-58.5 75t-92 28t-93.5 -28t-60.5 -75t-21 -104
q0 -71 34 -124t87 -86zM1384 421q26 49 75.5 86t128.5 37q75 0 129.5 -36t83.5 -98.5t29 -140.5q0 -79 -29.5 -142t-83.5 -100t-128 -37q-35 0 -65.5 9t-58.5 25l40 58q18 -10 38.5 -15.5t43.5 -5.5q53 0 89.5 27.5t56 74t19.5 103.5t-19.5 104t-56 75t-89.5 28
q-45 0 -82 -23.5t-57 -69.5t-17 -114zM894 -466q-73 0 -121 35.5t-69 100.5q-7 22 -11 51.5t-4 54.5v982q0 70 28 126.5t80 87.5q23 14 46.5 21t50.5 7q22 0 38 -2.5t27 -4.5l-22 -70q-11 5 -23.5 7t-23.5 2q-56 0 -91 -43.5t-35 -114.5v-1016q0 -55 18 -89.5t47 -50.5
t61 -16q11 0 23.5 2.5t23.5 6.5l22 -70q-11 -2 -27 -4.5t-38 -2.5zM182 950l51 53q33 -27 70 -73t73.5 -104t66.5 -122q21 -44 38.5 -88t31.5 -99t23 -133l-64 -31q-3 44 -9 84t-17.5 82.5t-33.5 92.5q-38 89 -97.5 180t-132.5 158zM544 159q-22 -76 -81 -122.5t-147 -46.5
q-72 0 -124.5 36t-81.5 99t-29 142t29 141.5t81.5 99t124.5 36.5q57 0 96.5 -21t68.5 -57t55 -82l-64 -31q-19 52 -56.5 87t-99.5 35q-48 0 -83.5 -28.5t-54.5 -75.5t-19 -104t19 -104t54.5 -74.5t83.5 -27.5q62 0 101.5 35.5t54.5 91.5z" />
    <glyph glyph-name="kaHigh_signOotham" horiz-adv-x="1615" 
d="M785 -5q-40 32 -74.5 69.5t-55 87t-20.5 114.5q0 79 32.5 142t89.5 99.5t131 36.5q73 0 129.5 -36.5t88.5 -99.5t32 -142q0 -65 -21 -114.5t-55 -87t-74 -69.5l-49 61q53 33 86.5 86t33.5 124q0 57 -20.5 104t-58.5 75t-92 28t-93.5 -28t-60.5 -75t-21 -104
q0 -71 34 -124t87 -86zM1091 421q26 49 75.5 86t128.5 37q75 0 129.5 -36t83.5 -98.5t29 -140.5q0 -79 -29.5 -142t-83.5 -100t-128 -37q-35 0 -65.5 9t-58.5 25l40 58q18 -10 38.5 -15.5t43.5 -5.5q53 0 89.5 27.5t56 74t19.5 103.5t-19.5 104t-56 75t-89.5 28
q-45 0 -82 -23.5t-57 -69.5t-17 -114zM553 159q-23 -76 -81.5 -122.5t-146.5 -46.5q-72 0 -125 36t-82 99t-29 142t29 141.5t82 99t125 36.5q87 0 145.5 -46t82.5 -122l-74 -26q-16 54 -55 89.5t-99 35.5q-48 0 -83.5 -28.5t-55 -75.5t-19.5 -104t19.5 -104t55 -74.5
t83.5 -27.5q62 0 101 35.5t54 91.5zM322 487q-51 0 -95 19t-77 53.5t-51 80.5t-18 100q0 76 35.5 134.5t95.5 92.5t132 34q65 0 119 -26.5t93 -68.5l-42 -62q-32 38 -76.5 62.5t-94.5 24.5q-52 0 -94 -25.5t-66 -70t-24 -100.5t24.5 -99t63 -67.5t78.5 -24.5z" />
    <glyph glyph-name="kaHigh_signAitham" horiz-adv-x="1619" 
d="M790 -5q-40 32 -74.5 69.5t-55 87t-20.5 114.5q0 79 32.5 142t89.5 99.5t131 36.5q73 0 129.5 -36.5t88.5 -99.5t32 -142q0 -65 -21 -114.5t-55 -87t-74 -69.5l-49 61q53 33 86.5 86t33.5 124q0 57 -20.5 104t-58.5 75t-92 28t-93.5 -28t-60.5 -75t-21 -104
q0 -71 34 -124t87 -86zM1096 421q26 49 75.5 86t128.5 37q75 0 129.5 -36t83.5 -98.5t29 -140.5q0 -79 -29.5 -142t-83.5 -100t-128 -37q-35 0 -65.5 9t-58.5 25l40 58q18 -10 38.5 -15.5t43.5 -5.5q53 0 89.5 27.5t56 74t19.5 103.5t-19.5 104t-56 75t-89.5 28
q-45 0 -82 -23.5t-57 -69.5t-17 -114zM182 950l51 53q33 -27 70 -73t73.5 -104t66.5 -122q21 -44 38.5 -88t31.5 -99t23 -133l-64 -31q-3 44 -9 84t-17.5 82.5t-33.5 92.5q-38 89 -97.5 180t-132.5 158zM544 159q-22 -76 -81 -122.5t-147 -46.5q-72 0 -124.5 36t-81.5 99
t-29 142t29 141.5t81.5 99t124.5 36.5q57 0 96.5 -21t68.5 -57t55 -82l-64 -31q-19 52 -56.5 87t-99.5 35q-48 0 -83.5 -28.5t-54.5 -75.5t-19 -104t19 -104t54.5 -74.5t83.5 -27.5q62 0 101.5 35.5t54.5 91.5z" />
    <glyph glyph-name="khaHigh_raMedialtham" horiz-adv-x="877" 
d="M337 429q38 53 90.5 84t119.5 31q71 0 122.5 -34t80 -92t28.5 -129q0 -60 -19.5 -113.5t-55 -95.5t-83.5 -66t-104 -24q-46 0 -87 17t-66.5 49t-25.5 76q0 16 3.5 31.5t9.5 28.5q20 42 62.5 67t94.5 25q64 0 122 -37t104.5 -101t76.5 -146l-65 -30q-26 72 -62.5 127.5
t-80.5 87t-93 31.5q-45 0 -68.5 -24.5t-23.5 -53.5q0 -31 27 -54.5t79 -23.5q56 0 95.5 27.5t61 76.5t21.5 112q0 62 -19.5 106t-54.5 67.5t-82 23.5q-48 0 -85.5 -23.5t-70.5 -67.5zM303 -466q-73 0 -121 35.5t-69 100.5q-7 22 -11 51.5t-4 54.5v982q0 70 28 126.5t80 87.5
q23 14 46.5 21t50.5 7q22 0 38 -2.5t27 -4.5l-22 -70q-11 5 -23.5 7t-23.5 2q-56 0 -91 -43.5t-35 -114.5v-1016q0 -55 18 -89.5t47 -50.5t61 -16q11 0 23.5 2.5t23.5 6.5l22 -70q-11 -2 -27 -4.5t-38 -2.5z" />
    <glyph glyph-name="khaHigh_raMedial_signAetham" horiz-adv-x="2008" 
d="M1468 429q38 53 90.5 84t119.5 31q71 0 122.5 -34t80 -92t28.5 -129q0 -60 -19.5 -113.5t-55 -95.5t-83.5 -66t-104 -24q-46 0 -87 17t-66.5 49t-25.5 76q0 16 3.5 31.5t9.5 28.5q20 42 62.5 67t94.5 25q64 0 122 -37t104.5 -101t76.5 -146l-65 -30q-26 72 -62.5 127.5
t-80.5 87t-93 31.5q-45 0 -68.5 -24.5t-23.5 -53.5q0 -31 27 -54.5t79 -23.5q56 0 95.5 27.5t61 76.5t21.5 112q0 62 -19.5 106t-54.5 67.5t-82 23.5q-48 0 -85.5 -23.5t-70.5 -67.5zM1434 -466q-73 0 -121 35.5t-69 100.5q-7 22 -11 51.5t-4 54.5v982q0 70 28 126.5
t80 87.5q23 14 46.5 21t50.5 7q22 0 38 -2.5t27 -4.5l-22 -70q-11 5 -23.5 7t-23.5 2q-56 0 -91 -43.5t-35 -114.5v-1016q0 -55 18 -89.5t47 -50.5t61 -16q11 0 23.5 2.5t23.5 6.5l22 -70q-11 -2 -27 -4.5t-38 -2.5zM457 409q-28 29 -60.5 47t-70.5 18q-53 0 -91 -28.5
t-58.5 -76t-20.5 -105.5q0 -63 22 -110t57.5 -73t77.5 -26q33 0 59.5 14t45 35t27.5 44t7 41q-24 0 -48 -12t-44 -30q-22 -20 -37.5 -46t-25.5 -54l-67 19q20 48 50 88.5t68 63.5q30 18 62.5 24t62.5 -1q19 -4 29.5 -11t15.5 -16q13 -22 5 -61.5t-34 -74.5
q-29 -41 -73.5 -64.5t-99.5 -23.5q-72 0 -125.5 36t-83 99t-29.5 142t30.5 141.5t85.5 99t128 36.5q55 0 99.5 -20.5t79.5 -54.5zM1036 409q-28 29 -60.5 47t-70.5 18q-53 0 -91 -28.5t-58.5 -76t-20.5 -105.5q0 -63 22 -110t57.5 -73t77.5 -26q33 0 59.5 14t45 35t27.5 44
t7 41q-24 0 -48 -12t-44 -30q-22 -20 -37.5 -46t-25.5 -54l-67 19q20 48 50 88.5t68 63.5q30 18 62.5 24t62.5 -1q19 -4 29.5 -11t15.5 -16q13 -22 5 -61.5t-34 -74.5q-29 -41 -73.5 -64.5t-99.5 -23.5q-72 0 -125.5 36t-83 99t-29.5 142t30.5 141.5t85.5 99t128 36.5
q55 0 99.5 -20.5t79.5 -54.5z" />
    <glyph glyph-name="kaHigh_raMedial_signThamAitham" horiz-adv-x="1914" 
d="M1084 -5q-40 32 -74.5 69.5t-55 87t-20.5 114.5q0 79 32.5 142t89.5 99.5t131 36.5q73 0 129.5 -36.5t88.5 -99.5t32 -142q0 -65 -21 -114.5t-55 -87t-74 -69.5l-49 61q53 33 86.5 86t33.5 124q0 57 -20.5 104t-58.5 75t-92 28t-93.5 -28t-60.5 -75t-21 -104
q0 -71 34 -124t87 -86zM1390 421q26 49 75.5 86t128.5 37q75 0 129.5 -36t83.5 -98.5t29 -140.5q0 -79 -29.5 -142t-83.5 -100t-128 -37q-35 0 -65.5 9t-58.5 25l40 58q18 -10 38.5 -15.5t43.5 -5.5q53 0 89.5 27.5t56 74t19.5 103.5t-19.5 104t-56 75t-89.5 28
q-45 0 -82 -23.5t-57 -69.5t-17 -114zM904 -466q-73 0 -121 35.5t-69 100.5q-7 22 -11 51.5t-4 54.5v982q0 70 28 126.5t80 87.5q23 14 46.5 21t50.5 7q22 0 38 -2.5t27 -4.5l-22 -70q-11 5 -23.5 7t-23.5 2q-56 0 -91 -43.5t-35 -114.5v-1016q0 -55 18 -89.5t47 -50.5
t61 -16q11 0 23.5 2.5t23.5 6.5l22 -70q-11 -2 -27 -4.5t-38 -2.5zM316 -10q-72 0 -124.5 36t-81.5 99t-29 142t29 141.5t81.5 99t124.5 36.5q82 0 129 -42.5t80 -118.5l-56 -28q-14 52 -53.5 86t-99.5 34q-48 0 -83.5 -28.5t-54.5 -75.5t-19 -104t19 -104t54.5 -74.5
t83.5 -27.5q62 0 101.5 35.5t54.5 91.5l72 -29q-22 -76 -81 -122.5t-147 -46.5zM450 416v268q0 71 -19 127.5t-59 88.5t-103 31q-43 -1 -76 -15t-56 -28l-38 71q36 20 80 31t88 11q53 0 99.5 -18t82.5 -58t56 -105t20 -159v-278z" />
    <glyph glyph-name="khaHigh_raMedial_signAitham" horiz-adv-x="1463" 
d="M923 429q38 53 90.5 84t119.5 31q71 0 122.5 -34t80 -92t28.5 -129q0 -60 -19.5 -113.5t-55 -95.5t-83.5 -66t-104 -24q-46 0 -87 17t-66.5 49t-25.5 76q0 16 3.5 31.5t9.5 28.5q20 42 62.5 67t94.5 25q64 0 122 -37t104.5 -101t76.5 -146l-65 -30q-26 72 -62.5 127.5
t-80.5 87t-93 31.5q-45 0 -68.5 -24.5t-23.5 -53.5q0 -31 27 -54.5t79 -23.5q56 0 95.5 27.5t61 76.5t21.5 112q0 62 -19.5 106t-54.5 67.5t-82 23.5q-48 0 -85.5 -23.5t-70.5 -67.5zM889 -466q-73 0 -121 35.5t-69 100.5q-7 22 -11 51.5t-4 54.5v982q0 70 28 126.5t80 87.5
q23 14 46.5 21t50.5 7q22 0 38 -2.5t27 -4.5l-22 -70q-11 5 -23.5 7t-23.5 2q-56 0 -91 -43.5t-35 -114.5v-1016q0 -55 18 -89.5t47 -50.5t61 -16q11 0 23.5 2.5t23.5 6.5l22 -70q-11 -2 -27 -4.5t-38 -2.5zM182 950l51 53q33 -27 70 -73t73.5 -104t66.5 -122
q21 -44 38.5 -88t31.5 -99t23 -133l-64 -31q-3 44 -9 84t-17.5 82.5t-33.5 92.5q-38 89 -97.5 180t-132.5 158zM544 159q-22 -76 -81 -122.5t-147 -46.5q-72 0 -124.5 36t-81.5 99t-29 142t29 141.5t81.5 99t124.5 36.5q57 0 96.5 -21t68.5 -57t55 -82l-64 -31
q-19 52 -56.5 87t-99.5 35q-48 0 -83.5 -28.5t-54.5 -75.5t-19 -104t19 -104t54.5 -74.5t83.5 -27.5q62 0 101.5 35.5t54.5 91.5z" />
    <glyph glyph-name="khaHigh_signEtham" horiz-adv-x="1173" 
d="M633 429q38 53 90.5 84t119.5 31q71 0 122.5 -34t80 -92t28.5 -129q0 -60 -19.5 -113.5t-55 -95.5t-83.5 -66t-104 -24q-46 0 -87 17t-66.5 49t-25.5 76q0 16 3.5 31.5t9.5 28.5q20 42 62.5 67t94.5 25q64 0 122 -37t104.5 -101t76.5 -146l-65 -30q-26 72 -62.5 127.5
t-80.5 87t-93 31.5q-45 0 -68.5 -24.5t-23.5 -53.5q0 -31 27 -54.5t79 -23.5q56 0 95.5 27.5t61 76.5t21.5 112q0 62 -19.5 106t-54.5 67.5t-82 23.5q-48 0 -85.5 -23.5t-70.5 -67.5zM457 409q-28 29 -60.5 47t-70.5 18q-53 0 -91 -28.5t-58.5 -76t-20.5 -105.5
q0 -63 22 -110t57.5 -73t77.5 -26q33 0 59.5 14t45 35t27.5 44t7 41q-24 0 -48 -12t-44 -30q-22 -20 -37.5 -46t-25.5 -54l-67 19q20 48 50 88.5t68 63.5q30 18 62.5 24t62.5 -1q19 -4 29.5 -11t15.5 -16q13 -22 5 -61.5t-34 -74.5q-29 -41 -73.5 -64.5t-99.5 -23.5
q-72 0 -125.5 36t-83 99t-29.5 142t30.5 141.5t85.5 99t128 36.5q55 0 99.5 -20.5t79.5 -54.5z" />
    </font>
</defs>
</svg>
